<?xml version="1.0" encoding="UTF-8" standalone="no"?>
<!DOCTYPE svg PUBLIC "-//W3C//DTD SVG 1.1//EN"
 "http://www.w3.org/Graphics/SVG/1.1/DTD/svg11.dtd">
<!-- Generated by graphviz version 2.43.0 (0)
 -->
<!-- Title: DGtal::OneItemOutputIterator&lt; T &gt; Pages: 1 -->
<svg width="198pt" height="106pt"
 viewBox="0.00 0.00 198.00 106.00" xmlns="http://www.w3.org/2000/svg" xmlns:xlink="http://www.w3.org/1999/xlink">
<g id="graph0" class="graph" transform="scale(1 1) rotate(0) translate(4 102)">
<title>DGtal::OneItemOutputIterator&lt; T &gt;</title>
<polygon fill="white" stroke="transparent" points="-4,4 -4,-102 194,-102 194,4 -4,4"/>
<!-- Node1 -->
<g id="node1" class="node">
<title>Node1</title>
<g id="a_node1"><a xlink:title="Aim: model of output iterator, ie incrementable and writable iterator, which only stores in a variabl...">
<polygon fill="#bfbfbf" stroke="black" points="0,-0.5 0,-19.5 190,-19.5 190,-0.5 0,-0.5"/>
<text text-anchor="middle" x="95" y="-7.5" font-family="FreeSans" font-size="10.00">DGtal::OneItemOutputIterator&lt; T &gt;</text>
</a>
</g>
</g>
<!-- Node2 -->
<g id="node2" class="node">
<title>Node2</title>
<g id="a_node2"><a xlink:title=" ">
<polygon fill="white" stroke="#bfbfbf" points="28.5,-56.5 28.5,-97.5 161.5,-97.5 161.5,-56.5 28.5,-56.5"/>
<text text-anchor="start" x="36.5" y="-85.5" font-family="FreeSans" font-size="10.00">std::iterator&lt; std</text>
<text text-anchor="start" x="36.5" y="-74.5" font-family="FreeSans" font-size="10.00">::output_iterator_tag,</text>
<text text-anchor="middle" x="95" y="-63.5" font-family="FreeSans" font-size="10.00"> void, void, void, void &gt;</text>
</a>
</g>
</g>
<!-- Node2&#45;&gt;Node1 -->
<g id="edge1" class="edge">
<title>Node2&#45;&gt;Node1</title>
<path fill="none" stroke="midnightblue" d="M95,-46.26C95,-36.56 95,-26.52 95,-19.65"/>
<polygon fill="midnightblue" stroke="midnightblue" points="91.5,-46.5 95,-56.5 98.5,-46.5 91.5,-46.5"/>
</g>
</g>
</svg>
