<?xml version="1.0" encoding="UTF-8" standalone="no"?>
<!DOCTYPE svg PUBLIC "-//W3C//DTD SVG 1.1//EN"
 "http://www.w3.org/Graphics/SVG/1.1/DTD/svg11.dtd">
<!-- Generated by graphviz version 2.43.0 (0)
 -->
<!-- Title: DGtal::PointVector&lt; dim, TEuclideanRing, TContainer &gt; Pages: 1 -->
<svg width="434pt" height="386pt"
 viewBox="0.00 0.00 434.00 386.00" xmlns="http://www.w3.org/2000/svg" xmlns:xlink="http://www.w3.org/1999/xlink">

<svg id="main" version="1.1" xmlns="http://www.w3.org/2000/svg" xmlns:xlink="http://www.w3.org/1999/xlink" xml:space="preserve" onload="init(evt)">
<style type="text/css"><![CDATA[
.node, .edge {opacity: 0.7;}
.node.selected, .edge.selected {opacity: 1;}
.edge:hover path { stroke: red; }
.edge:hover polygon { stroke: red; fill: red; }
]]></style>
<script type="application/ecmascript" xlink:href="svg.min.js"/>
<svg id="graph" class="graph">
<g id="graph0" class="graph" transform="scale(1 1) rotate(0) translate(4 382)">
<title>DGtal::PointVector&lt; dim, TEuclideanRing, TContainer &gt;</title>
<!-- Node1 -->
<g id="Node000001" class="node">
<title>Node1</title>
<g id="a_Node000001"><a xlink:title="Aim: Implements basic operations that will be used in Point and Vector classes.">
<polygon fill="#999999" stroke="#666666" points="131,-215.5 0,-215.5 0,-174.5 131,-174.5 131,-215.5"/>
<text text-anchor="start" x="8" y="-203.5" font-family="FreeSans" font-size="10.00">DGtal::PointVector</text>
<text text-anchor="start" x="8" y="-192.5" font-family="FreeSans" font-size="10.00">&lt; dim, TEuclideanRing,</text>
<text text-anchor="middle" x="65.5" y="-181.5" font-family="FreeSans" font-size="10.00"> TContainer &gt;</text>
</a>
</g>
</g>
<!-- Node2 -->
<g id="Node000002" class="node">
<title>Node2</title>
<g id="a_Node000002"><a xlink:href="classDGtal_1_1PointVector.html" target="_top" xlink:title=" ">
<polygon fill="white" stroke="#666666" points="411,-378 305,-378 305,-348 411,-348 411,-378"/>
<text text-anchor="start" x="313" y="-366" font-family="FreeSans" font-size="10.00">DGtal::PointVector</text>
<text text-anchor="middle" x="358" y="-355" font-family="FreeSans" font-size="10.00">&lt; 2, Integer &gt;</text>
</a>
</g>
</g>
<!-- Node1&#45;&gt;Node2 -->
<g id="edge1_Node000001_Node000002" class="edge">
<title>Node1&#45;&gt;Node2</title>
<g id="a_edge1_Node000001_Node000002"><a xlink:title=" ">
<path fill="none" stroke="orange" stroke-dasharray="5,2" d="M78.09,-224.75C90.97,-253.71 114.58,-296.67 149,-320 195.4,-351.45 260.03,-360.71 304.88,-363.05"/>
<polygon fill="orange" stroke="orange" points="81.29,-223.33 74.14,-215.51 74.86,-226.08 81.29,-223.33"/>
</a>
</g>
<text text-anchor="middle" x="210.5" y="-363" font-family="FreeSans" font-size="10.00" fill="grey"> &lt; 2, Integer &gt;</text>
</g>
<!-- Node3 -->
<g id="Node000003" class="node">
<title>Node3</title>
<g id="a_Node000003"><a xlink:href="classDGtal_1_1PointVector.html" target="_top" xlink:title=" ">
<polygon fill="white" stroke="#666666" points="419.5,-330 296.5,-330 296.5,-300 419.5,-300 419.5,-330"/>
<text text-anchor="start" x="304.5" y="-318" font-family="FreeSans" font-size="10.00">DGtal::PointVector</text>
<text text-anchor="middle" x="358" y="-307" font-family="FreeSans" font-size="10.00">&lt; 3, InternalInteger &gt;</text>
</a>
</g>
</g>
<!-- Node1&#45;&gt;Node3 -->
<g id="edge2_Node000001_Node000003" class="edge">
<title>Node1&#45;&gt;Node3</title>
<g id="a_edge2_Node000001_Node000003"><a xlink:title=" ">
<path fill="none" stroke="orange" stroke-dasharray="5,2" d="M91.39,-223.11C106.57,-238.58 127.2,-256.84 149,-268 195.3,-291.71 253.43,-303.55 296.46,-309.41"/>
<polygon fill="orange" stroke="orange" points="93.83,-220.6 84.4,-215.79 88.77,-225.44 93.83,-220.6"/>
</a>
</g>
<text text-anchor="middle" x="210.5" y="-308" font-family="FreeSans" font-size="10.00" fill="grey"> &lt; 3, InternalInteger &gt;</text>
</g>
<!-- Node4 -->
<g id="Node000004" class="node">
<title>Node4</title>
<g id="a_Node000004"><a xlink:href="classDGtal_1_1PointVector.html" target="_top" xlink:title=" ">
<polygon fill="white" stroke="#666666" points="417.5,-282 298.5,-282 298.5,-252 417.5,-252 417.5,-282"/>
<text text-anchor="start" x="306.5" y="-270" font-family="FreeSans" font-size="10.00">DGtal::PointVector</text>
<text text-anchor="middle" x="358" y="-259" font-family="FreeSans" font-size="10.00">&lt; 3, InternalScalar &gt;</text>
</a>
</g>
</g>
<!-- Node1&#45;&gt;Node4 -->
<g id="edge3_Node000001_Node000004" class="edge">
<title>Node1&#45;&gt;Node4</title>
<g id="a_edge3_Node000001_Node000004"><a xlink:title=" ">
<path fill="none" stroke="orange" stroke-dasharray="5,2" d="M126.78,-218.95C134.2,-221.51 141.73,-223.93 149,-226 198.56,-240.09 256.12,-251.03 298.11,-258.06"/>
<polygon fill="orange" stroke="orange" points="127.71,-215.56 117.11,-215.51 125.36,-222.16 127.71,-215.56"/>
</a>
</g>
<text text-anchor="middle" x="210.5" y="-256" font-family="FreeSans" font-size="10.00" fill="grey"> &lt; 3, InternalScalar &gt;</text>
</g>
<!-- Node5 -->
<g id="Node000005" class="node">
<title>Node5</title>
<g id="a_Node000005"><a xlink:href="classDGtal_1_1PointVector.html" target="_top" xlink:title=" ">
<polygon fill="white" stroke="#666666" points="426,-234 290,-234 290,-204 426,-204 426,-234"/>
<text text-anchor="start" x="298" y="-222" font-family="FreeSans" font-size="10.00">DGtal::PointVector</text>
<text text-anchor="middle" x="358" y="-211" font-family="FreeSans" font-size="10.00">&lt; dim, InternalInteger &gt;</text>
</a>
</g>
</g>
<!-- Node1&#45;&gt;Node5 -->
<g id="edge4_Node000001_Node000005" class="edge">
<title>Node1&#45;&gt;Node5</title>
<g id="a_edge4_Node000001_Node000005"><a xlink:title=" ">
<path fill="none" stroke="orange" stroke-dasharray="5,2" d="M141.51,-201.2C187.36,-204.99 245.51,-209.79 289.84,-213.45"/>
<polygon fill="orange" stroke="orange" points="141.59,-197.69 131.33,-200.36 141.01,-204.67 141.59,-197.69"/>
</a>
</g>
<text text-anchor="middle" x="210.5" y="-214" font-family="FreeSans" font-size="10.00" fill="grey"> &lt; dim, InternalInteger &gt;</text>
</g>
<!-- Node6 -->
<g id="Node000006" class="node">
<title>Node6</title>
<g id="a_Node000006"><a xlink:href="classDGtal_1_1PointVector.html" target="_top" xlink:title=" ">
<polygon fill="white" stroke="#666666" points="411,-186 305,-186 305,-156 411,-156 411,-186"/>
<text text-anchor="start" x="313" y="-174" font-family="FreeSans" font-size="10.00">DGtal::PointVector</text>
<text text-anchor="middle" x="358" y="-163" font-family="FreeSans" font-size="10.00">&lt; dim, Integer &gt;</text>
</a>
</g>
</g>
<!-- Node1&#45;&gt;Node6 -->
<g id="edge5_Node000001_Node000006" class="edge">
<title>Node1&#45;&gt;Node6</title>
<g id="a_edge5_Node000001_Node000006"><a xlink:title=" ">
<path fill="none" stroke="orange" stroke-dasharray="5,2" d="M141.36,-187.67C143.94,-187.44 146.49,-187.22 149,-187 202.04,-182.39 262.75,-177.8 304.83,-174.72"/>
<polygon fill="orange" stroke="orange" points="140.98,-184.2 131.34,-188.59 141.62,-191.17 140.98,-184.2"/>
</a>
</g>
<text text-anchor="middle" x="210.5" y="-190" font-family="FreeSans" font-size="10.00" fill="grey"> &lt; dim, Integer &gt;</text>
</g>
<!-- Node7 -->
<g id="Node000007" class="node">
<title>Node7</title>
<g id="a_Node000007"><a xlink:href="classDGtal_1_1PointVector.html" target="_top" xlink:title=" ">
<polygon fill="white" stroke="#666666" points="416.5,-137.5 299.5,-137.5 299.5,-96.5 416.5,-96.5 416.5,-137.5"/>
<text text-anchor="start" x="307.5" y="-125.5" font-family="FreeSans" font-size="10.00">DGtal::PointVector</text>
<text text-anchor="start" x="307.5" y="-114.5" font-family="FreeSans" font-size="10.00">&lt; Space::dimension,</text>
<text text-anchor="middle" x="358" y="-103.5" font-family="FreeSans" font-size="10.00"> Real &gt;</text>
</a>
</g>
</g>
<!-- Node1&#45;&gt;Node7 -->
<g id="edge6_Node000001_Node000007" class="edge">
<title>Node1&#45;&gt;Node7</title>
<g id="a_edge6_Node000001_Node000007"><a xlink:title=" ">
<path fill="none" stroke="orange" stroke-dasharray="5,2" d="M108.07,-169.42C120.81,-162.52 135.14,-155.69 149,-151 198.22,-134.36 256.84,-125.72 299.28,-121.32"/>
<polygon fill="orange" stroke="orange" points="106.13,-166.5 99.1,-174.42 109.53,-172.61 106.13,-166.5"/>
</a>
</g>
<text text-anchor="start" x="158.5" y="-165" font-family="FreeSans" font-size="10.00" fill="grey"> &lt; Space::dimension,</text>
<text text-anchor="middle" x="210.5" y="-154" font-family="FreeSans" font-size="10.00" fill="grey"> Real &gt;</text>
</g>
<!-- Node8 -->
<g id="Node000008" class="node">
<title>Node8</title>
<g id="a_Node000008"><a xlink:href="classDGtal_1_1PointVector.html" target="_top" xlink:title=" ">
<polygon fill="white" stroke="#666666" points="411,-78 305,-78 305,-48 411,-48 411,-78"/>
<text text-anchor="start" x="313" y="-66" font-family="FreeSans" font-size="10.00">DGtal::PointVector</text>
<text text-anchor="middle" x="358" y="-55" font-family="FreeSans" font-size="10.00">&lt; 2, double &gt;</text>
</a>
</g>
</g>
<!-- Node1&#45;&gt;Node8 -->
<g id="edge7_Node000001_Node000008" class="edge">
<title>Node1&#45;&gt;Node8</title>
<g id="a_edge7_Node000001_Node000008"><a xlink:title=" ">
<path fill="none" stroke="orange" stroke-dasharray="5,2" d="M86.9,-166.15C101.92,-147.06 124.02,-123.04 149,-109 197.53,-81.74 260.88,-70.63 304.86,-66.11"/>
<polygon fill="orange" stroke="orange" points="83.99,-164.18 80.7,-174.26 89.56,-168.43 83.99,-164.18"/>
</a>
</g>
<text text-anchor="middle" x="210.5" y="-112" font-family="FreeSans" font-size="10.00" fill="grey"> &lt; 2, double &gt;</text>
</g>
<!-- Node9 -->
<g id="Node000009" class="node">
<title>Node9</title>
<g id="a_Node000009"><a xlink:href="classDGtal_1_1PointVector.html" target="_top" xlink:title=" ">
<polygon fill="white" stroke="#666666" points="411,-30 305,-30 305,0 411,0 411,-30"/>
<text text-anchor="start" x="313" y="-18" font-family="FreeSans" font-size="10.00">DGtal::PointVector</text>
<text text-anchor="middle" x="358" y="-7" font-family="FreeSans" font-size="10.00">&lt; 3, double &gt;</text>
</a>
</g>
</g>
<!-- Node1&#45;&gt;Node9 -->
<g id="edge8_Node000001_Node000009" class="edge">
<title>Node1&#45;&gt;Node9</title>
<g id="a_edge8_Node000001_Node000009"><a xlink:title=" ">
<path fill="none" stroke="orange" stroke-dasharray="5,2" d="M76.01,-164.48C87.77,-132.03 111.03,-81.77 149,-55 194.83,-22.68 259.87,-14.68 304.97,-13.48"/>
<polygon fill="orange" stroke="orange" points="72.56,-163.75 72.59,-174.34 79.17,-166.04 72.56,-163.75"/>
</a>
</g>
<text text-anchor="middle" x="210.5" y="-58" font-family="FreeSans" font-size="10.00" fill="grey"> &lt; 3, double &gt;</text>
</g>
</g>
</svg>
</svg>

<style type='text/css'>
<![CDATA[
[data-mouse-over-selected='false'] { opacity: 0.7; }
[data-mouse-over-selected='true']  { opacity: 1.0; }
]]>
</style>
<script type="application/ecmascript"><![CDATA[
document.addEventListener('DOMContentLoaded', (event) => {
  highlightEdges();
  highlightAdjacentNodes();
});
]]></script>
</svg>
