<?xml version="1.0" encoding="UTF-8" standalone="no"?>
<!DOCTYPE svg PUBLIC "-//W3C//DTD SVG 1.1//EN"
 "http://www.w3.org/Graphics/SVG/1.1/DTD/svg11.dtd">
<!-- Generated by graphviz version 2.43.0 (0)
 -->
<!-- Title: DGtal::Display3D&lt; Space, KSpace &gt; Pages: 1 -->
<!--zoomable 264 -->
<svg id="main" version="1.1" xmlns="http://www.w3.org/2000/svg" xmlns:xlink="http://www.w3.org/1999/xlink" xml:space="preserve" onload="init(evt)">
<style type="text/css"><![CDATA[
.edge:hover path { stroke: red; }
.edge:hover polygon { stroke: red; fill: red; }
]]></style>
<script type="text/javascript"><![CDATA[
var edges = document.getElementsByTagName('g');
if (edges && edges.length) {
  for (var i=0;i<edges.length;i++) {
    if (edges[i].id.substr(0,4)=='edge') {
      edges[i].setAttribute('class','edge');
    }
  }
}
]]></script>
        <defs>
                <circle id="rim" cx="0" cy="0" r="7"/>
                <circle id="rim2" cx="0" cy="0" r="3.5"/>
                <g id="zoomPlus">
                        <use xlink:href="#rim" fill="#404040">
                                <set attributeName="fill" to="#808080" begin="zoomplus.mouseover" end="zoomplus.mouseout"/>
                        </use>
                        <path d="M-4,0h8M0,-4v8" fill="none" stroke="white" stroke-width="1.5" pointer-events="none"/>
                </g>
                <g id="zoomMin">
                        <use xlink:href="#rim" fill="#404040">
                                <set attributeName="fill" to="#808080" begin="zoomminus.mouseover" end="zoomminus.mouseout"/>
                        </use>
                        <path d="M-4,0h8" fill="none" stroke="white" stroke-width="1.5" pointer-events="none"/>
                </g>
                <g id="dirArrow">
                        <path fill="none" stroke="white" stroke-width="1.5" d="M0,-3.0v7 M-2.5,-0.5L0,-3.0L2.5,-0.5"/>
                </g>
               <g id="resetDef">
                       <use xlink:href="#rim2" fill="#404040">
                               <set attributeName="fill" to="#808080" begin="reset.mouseover" end="reset.mouseout"/>
                       </use>
               </g>
        </defs>

<script type="text/javascript">
var viewWidth = 1291;
var viewHeight = 264;
var sectionId = 'dynsection-0';
</script>
<script xlink:href="svgpan.js"/>
<svg id="graph" class="graph">
<g id="viewport">
<title>DGtal::Display3D&lt; Space, KSpace &gt;</title>
<polygon fill="white" stroke="transparent" points="-4,4 -4,-259.88 1287,-259.88 1287,4 -4,4"/>
<!-- Node1 -->
<g id="node1" class="node">
<title>Node1</title>
<g id="a_node1"><a xlink:title="Aim: This semi abstract class defines the stream mechanism to display 3d primitive (like BallVector,...">
<polygon fill="#bfbfbf" stroke="black" points="0,-123.5 0,-153.5 144,-153.5 144,-123.5 0,-123.5"/>
<text text-anchor="start" x="8" y="-141.5" font-family="FreeSans" font-size="10.00">DGtal::Display3D&lt; Space,</text>
<text text-anchor="middle" x="72" y="-130.5" font-family="FreeSans" font-size="10.00"> KSpace &gt;</text>
</a>
</g>
</g>
<!-- Node2 -->
<g id="node2" class="node">
<title>Node2</title>
<g id="a_node2"><a xlink:href="classDGtal_1_1Viewer3D.html" target="_top" xlink:title=" ">
<polygon fill="white" stroke="black" points="339,-235 339,-254 497,-254 497,-235 339,-235"/>
<text text-anchor="middle" x="418" y="-242" font-family="FreeSans" font-size="10.00">Viewer3D&lt; Space, KSpace &gt;</text>
</a>
</g>
</g>
<!-- Node1&#45;&gt;Node2 -->
<g id="edge1" class="edge">
<title>Node1&#45;&gt;Node2</title>
<path fill="none" stroke="midnightblue" d="M88.04,-162.13C103.58,-184.21 130.02,-215.89 162,-230.5 220.18,-257.07 293.76,-258.14 346.91,-254.01"/>
<polygon fill="midnightblue" stroke="midnightblue" points="90.77,-159.92 82.25,-153.62 84.98,-163.85 90.77,-159.92"/>
</g>
<!-- Node3 -->
<g id="node3" class="node">
<title>Node3</title>
<g id="a_node3"><a xlink:href="classDGtal_1_1Display3D.html" target="_top" xlink:title=" ">
<polygon fill="white" stroke="black" points="529,-191.5 529,-221.5 742,-221.5 742,-191.5 529,-191.5"/>
<text text-anchor="start" x="537" y="-209.5" font-family="FreeSans" font-size="10.00">DGtal::Display3D&lt; DGtal</text>
<text text-anchor="middle" x="635.5" y="-198.5" font-family="FreeSans" font-size="10.00">::SpaceND, DGtal::KhalimskySpaceND &gt;</text>
</a>
</g>
</g>
<!-- Node1&#45;&gt;Node3 -->
<g id="edge2" class="edge">
<title>Node1&#45;&gt;Node3</title>
<path fill="none" stroke="orange" stroke-dasharray="5,2" d="M107.12,-158.4C123.22,-166.79 143.03,-175.7 162,-180.5 228.85,-197.42 411.21,-203.33 528.84,-205.39"/>
<polygon fill="orange" stroke="orange" points="108.57,-155.21 98.1,-153.57 105.26,-161.38 108.57,-155.21"/>
<text text-anchor="start" x="171" y="-210.5" font-family="FreeSans" font-size="10.00"> &lt; DGtal::SpaceND, DGtal</text>
<text text-anchor="middle" x="234.5" y="-199.5" font-family="FreeSans" font-size="10.00">::KhalimskySpaceND &gt;</text>
</g>
<!-- Node5 -->
<g id="node5" class="node">
<title>Node5</title>
<g id="a_node5"><a xlink:href="classDGtal_1_1Display3D.html" target="_top" xlink:title=" ">
<polygon fill="white" stroke="black" points="325,-147.5 325,-177.5 511,-177.5 511,-147.5 325,-147.5"/>
<text text-anchor="start" x="333" y="-165.5" font-family="FreeSans" font-size="10.00">DGtal::Display3D&lt; SpaceND</text>
<text text-anchor="middle" x="418" y="-154.5" font-family="FreeSans" font-size="10.00">&lt; 3 &gt;, KhalimskySpaceND&lt; 3 &gt; &gt;</text>
</a>
</g>
</g>
<!-- Node1&#45;&gt;Node5 -->
<g id="edge4" class="edge">
<title>Node1&#45;&gt;Node5</title>
<path fill="none" stroke="orange" stroke-dasharray="5,2" d="M154.31,-144.17C205.51,-147.75 271.73,-152.37 324.88,-156.07"/>
<polygon fill="orange" stroke="orange" points="154.5,-140.68 144.28,-143.47 154.01,-147.66 154.5,-140.68"/>
<text text-anchor="start" x="162" y="-168.5" font-family="FreeSans" font-size="10.00"> &lt; SpaceND&lt; 3 &gt;, Khalimsky</text>
<text text-anchor="middle" x="234.5" y="-157.5" font-family="FreeSans" font-size="10.00">SpaceND&lt; 3 &gt; &gt;</text>
</g>
<!-- Node8 -->
<g id="node8" class="node">
<title>Node8</title>
<g id="a_node8"><a xlink:href="classDGtal_1_1Display3D.html" target="_top" xlink:title=" ">
<polygon fill="white" stroke="black" points="354,-98.5 354,-128.5 482,-128.5 482,-98.5 354,-98.5"/>
<text text-anchor="start" x="362" y="-116.5" font-family="FreeSans" font-size="10.00">DGtal::Display3D&lt; Z3i</text>
<text text-anchor="middle" x="418" y="-105.5" font-family="FreeSans" font-size="10.00">::Space, Z3i::KSpace &gt;</text>
</a>
</g>
</g>
<!-- Node1&#45;&gt;Node8 -->
<g id="edge8" class="edge">
<title>Node1&#45;&gt;Node8</title>
<path fill="none" stroke="orange" stroke-dasharray="5,2" d="M141.92,-121.58C148.68,-120.36 155.45,-119.29 162,-118.5 227.06,-110.63 302.12,-110.19 353.88,-111.22"/>
<polygon fill="orange" stroke="orange" points="141.23,-118.15 132.07,-123.48 142.56,-125.02 141.23,-118.15"/>
<text text-anchor="start" x="187.5" y="-132.5" font-family="FreeSans" font-size="10.00"> &lt; Z3i::Space, Z3i::</text>
<text text-anchor="middle" x="234.5" y="-121.5" font-family="FreeSans" font-size="10.00">KSpace &gt;</text>
</g>
<!-- Node10 -->
<g id="node10" class="node">
<title>Node10</title>
<g id="a_node10"><a xlink:href="classDGtal_1_1Display3D.html" target="_top" xlink:title=" ">
<polygon fill="white" stroke="black" points="354.5,-49.5 354.5,-79.5 481.5,-79.5 481.5,-49.5 354.5,-49.5"/>
<text text-anchor="start" x="362.5" y="-67.5" font-family="FreeSans" font-size="10.00">DGtal::Display3D&lt; Sp,</text>
<text text-anchor="middle" x="418" y="-56.5" font-family="FreeSans" font-size="10.00"> KSp &gt;</text>
</a>
</g>
</g>
<!-- Node1&#45;&gt;Node10 -->
<g id="edge10" class="edge">
<title>Node1&#45;&gt;Node10</title>
<path fill="none" stroke="orange" stroke-dasharray="5,2" d="M107.58,-118.5C123.64,-110.09 143.28,-100.99 162,-95.5 225.87,-76.75 301.94,-69.33 354.27,-66.4"/>
<polygon fill="orange" stroke="orange" points="105.72,-115.53 98.57,-123.35 109.04,-121.69 105.72,-115.53"/>
<text text-anchor="middle" x="234.5" y="-98.5" font-family="FreeSans" font-size="10.00"> &lt; Sp, KSp &gt;</text>
</g>
<!-- Node11 -->
<g id="node11" class="node">
<title>Node11</title>
<g id="a_node11"><a xlink:href="classDGtal_1_1Display3D.html" target="_top" xlink:title=" ">
<polygon fill="white" stroke="black" points="357.5,-0.5 357.5,-30.5 478.5,-30.5 478.5,-0.5 357.5,-0.5"/>
<text text-anchor="start" x="365.5" y="-18.5" font-family="FreeSans" font-size="10.00">DGtal::Display3D&lt; S,</text>
<text text-anchor="middle" x="418" y="-7.5" font-family="FreeSans" font-size="10.00"> KS &gt;</text>
</a>
</g>
</g>
<!-- Node1&#45;&gt;Node11 -->
<g id="edge11" class="edge">
<title>Node1&#45;&gt;Node11</title>
<path fill="none" stroke="orange" stroke-dasharray="5,2" d="M90.4,-115.62C106.66,-96.02 132.76,-68.77 162,-54.5 223.98,-24.24 303.67,-16.28 357.33,-14.73"/>
<polygon fill="orange" stroke="orange" points="87.61,-113.51 84.06,-123.49 93.06,-117.9 87.61,-113.51"/>
<text text-anchor="middle" x="234.5" y="-57.5" font-family="FreeSans" font-size="10.00"> &lt; S, KS &gt;</text>
</g>
<!-- Node4 -->
<g id="node4" class="node">
<title>Node4</title>
<g id="a_node4"><a xlink:href="classDGtal_1_1Viewer3D.html" target="_top" xlink:title=" ">
<polygon fill="white" stroke="black" points="1070,-180.5 1070,-210.5 1283,-210.5 1283,-180.5 1070,-180.5"/>
<text text-anchor="start" x="1078" y="-198.5" font-family="FreeSans" font-size="10.00">DGtal::Viewer3D&lt; DGtal</text>
<text text-anchor="middle" x="1176.5" y="-187.5" font-family="FreeSans" font-size="10.00">::SpaceND, DGtal::KhalimskySpaceND &gt;</text>
</a>
</g>
</g>
<!-- Node3&#45;&gt;Node4 -->
<g id="edge3" class="edge">
<title>Node3&#45;&gt;Node4</title>
<path fill="none" stroke="midnightblue" d="M752.17,-204.14C846.39,-202.22 978.34,-199.52 1069.77,-197.66"/>
<polygon fill="midnightblue" stroke="midnightblue" points="751.95,-200.64 742.02,-204.35 752.09,-207.64 751.95,-200.64"/>
</g>
<!-- Node6 -->
<g id="node6" class="node">
<title>Node6</title>
<g id="a_node6"><a xlink:href="classDGtal_1_1Viewer3D.html" target="_top" xlink:title=" ">
<polygon fill="white" stroke="black" points="760,-147.5 760,-177.5 907,-177.5 907,-147.5 760,-147.5"/>
<text text-anchor="start" x="768" y="-165.5" font-family="FreeSans" font-size="10.00">DGtal::Viewer3D&lt; TSpace,</text>
<text text-anchor="middle" x="833.5" y="-154.5" font-family="FreeSans" font-size="10.00"> TKSpace &gt;</text>
</a>
</g>
</g>
<!-- Node5&#45;&gt;Node6 -->
<g id="edge5" class="edge">
<title>Node5&#45;&gt;Node6</title>
<path fill="none" stroke="midnightblue" d="M521.32,-162.5C595.44,-162.5 693.84,-162.5 759.97,-162.5"/>
<polygon fill="midnightblue" stroke="midnightblue" points="521.03,-159 511.03,-162.5 521.03,-166 521.03,-159"/>
</g>
<!-- Node6&#45;&gt;Node4 -->
<g id="edge6" class="edge">
<title>Node6&#45;&gt;Node4</title>
<path fill="none" stroke="orange" stroke-dasharray="5,2" d="M917.37,-162.38C958.05,-163.13 1007.72,-165.24 1052,-170.5 1071.44,-172.81 1092.39,-176.56 1111.4,-180.46"/>
<polygon fill="orange" stroke="orange" points="917.28,-158.88 907.23,-162.22 917.17,-165.88 917.28,-158.88"/>
<text text-anchor="start" x="925" y="-184.5" font-family="FreeSans" font-size="10.00"> &lt; DGtal::SpaceND, DGtal</text>
<text text-anchor="middle" x="988.5" y="-173.5" font-family="FreeSans" font-size="10.00">::KhalimskySpaceND &gt;</text>
</g>
<!-- Node7 -->
<g id="node7" class="node">
<title>Node7</title>
<g id="a_node7"><a xlink:href="classDGtal_1_1Viewer3D.html" target="_top" xlink:title=" ">
<polygon fill="white" stroke="black" points="1106,-120.5 1106,-150.5 1247,-150.5 1247,-120.5 1106,-120.5"/>
<text text-anchor="start" x="1114" y="-138.5" font-family="FreeSans" font-size="10.00">DGtal::Viewer3D&lt; Space,</text>
<text text-anchor="middle" x="1176.5" y="-127.5" font-family="FreeSans" font-size="10.00"> KSpace &gt;</text>
</a>
</g>
</g>
<!-- Node6&#45;&gt;Node7 -->
<g id="edge7" class="edge">
<title>Node6&#45;&gt;Node7</title>
<path fill="none" stroke="orange" stroke-dasharray="5,2" d="M887.67,-144.59C899.8,-141.24 912.74,-138.25 925,-136.5 985.6,-127.84 1055.28,-128.4 1105.75,-130.66"/>
<polygon fill="orange" stroke="orange" points="886.34,-141.33 877.7,-147.46 888.28,-148.06 886.34,-141.33"/>
<text text-anchor="middle" x="988.5" y="-139.5" font-family="FreeSans" font-size="10.00"> &lt; Space, KSpace &gt;</text>
</g>
<!-- Node9 -->
<g id="node9" class="node">
<title>Node9</title>
<g id="a_node9"><a xlink:href="classDGtal_1_1Board3D.html" target="_top" xlink:title="The class Board3D is a type of Display3D which export the figures in the format OBJ/MTL when calling ...">
<polygon fill="white" stroke="black" points="765.5,-98.5 765.5,-128.5 901.5,-128.5 901.5,-98.5 765.5,-98.5"/>
<text text-anchor="start" x="773.5" y="-116.5" font-family="FreeSans" font-size="10.00">DGtal::Board3D&lt; Space,</text>
<text text-anchor="middle" x="833.5" y="-105.5" font-family="FreeSans" font-size="10.00"> KSpace &gt;</text>
</a>
</g>
</g>
<!-- Node8&#45;&gt;Node9 -->
<g id="edge9" class="edge">
<title>Node8&#45;&gt;Node9</title>
<path fill="none" stroke="midnightblue" d="M492.4,-113.5C569.78,-113.5 690.61,-113.5 765.48,-113.5"/>
<polygon fill="midnightblue" stroke="midnightblue" points="492.25,-110 482.25,-113.5 492.25,-117 492.25,-110"/>
</g>
</g>
</svg>
        <g id="navigator" transform="translate(0 0)" fill="#404254">
                <rect fill="#f2f5e9" fill-opacity="0.5" stroke="#606060" stroke-width=".5" x="0" y="0" width="60" height="60"/>
                <use id="zoomplus" xlink:href="#zoomPlus" x="17" y="9" onmousedown="handleZoom(evt,'in')"/>
                <use id="zoomminus" xlink:href="#zoomMin" x="42" y="9" onmousedown="handleZoom(evt,'out')"/>
                <use id="reset" xlink:href="#resetDef" x="30" y="36" onmousedown="handleReset()"/>
                <g id="arrowUp" xlink:href="#dirArrow" transform="translate(30 24)" onmousedown="handlePan(0,-1)">
                  <use xlink:href="#rim" fill="#404040">
                        <set attributeName="fill" to="#808080" begin="arrowUp.mouseover" end="arrowUp.mouseout"/>
                  </use>
                  <path fill="none" stroke="white" stroke-width="1.5" d="M0,-3.0v7 M-2.5,-0.5L0,-3.0L2.5,-0.5"/>
                </g>
                <g id="arrowRight" xlink:href="#dirArrow" transform="rotate(90) translate(36 -43)" onmousedown="handlePan(1,0)">
                  <use xlink:href="#rim" fill="#404040">
                        <set attributeName="fill" to="#808080" begin="arrowRight.mouseover" end="arrowRight.mouseout"/>
                  </use>
                  <path fill="none" stroke="white" stroke-width="1.5" d="M0,-3.0v7 M-2.5,-0.5L0,-3.0L2.5,-0.5"/>
                </g>
                <g id="arrowDown" xlink:href="#dirArrow" transform="rotate(180) translate(-30 -48)" onmousedown="handlePan(0,1)">
                  <use xlink:href="#rim" fill="#404040">
                        <set attributeName="fill" to="#808080" begin="arrowDown.mouseover" end="arrowDown.mouseout"/>
                  </use>
                  <path fill="none" stroke="white" stroke-width="1.5" d="M0,-3.0v7 M-2.5,-0.5L0,-3.0L2.5,-0.5"/>
                </g>
                <g id="arrowLeft" xlink:href="#dirArrow" transform="rotate(270) translate(-36 17)" onmousedown="handlePan(-1,0)">
                  <use xlink:href="#rim" fill="#404040">
                        <set attributeName="fill" to="#808080" begin="arrowLeft.mouseover" end="arrowLeft.mouseout"/>
                  </use>
                  <path fill="none" stroke="white" stroke-width="1.5" d="M0,-3.0v7 M-2.5,-0.5L0,-3.0L2.5,-0.5"/>
                </g>
        </g>
        <svg viewBox="0 0 15 15" width="100%" height="30px" preserveAspectRatio="xMaxYMin meet">
         <g id="arrow_out" transform="scale(0.3 0.3)">
          <a xlink:href="classDGtal_1_1Display3D__inherit__graph_org.svg" target="_base">
           <rect id="button" ry="5" rx="5" y="6" x="6" height="38" width="38"
                fill="#f2f5e9" fill-opacity="0.5" stroke="#606060" stroke-width="1.0"/>
           <path id="arrow"
             d="M 11.500037,31.436501 C 11.940474,20.09759 22.043105,11.32322 32.158766,21.979434 L 37.068811,17.246167 C 37.068811,17.246167 37.088388,32 37.088388,32 L 22.160133,31.978069 C 22.160133,31.978069 26.997745,27.140456 26.997745,27.140456 C 18.528582,18.264221 13.291696,25.230495 11.500037,31.436501 z"
             style="fill:#404040;"/>
          </a>
         </g>
        </svg>
</svg>
