<?xml version="1.0" encoding="UTF-8" standalone="no"?>
<!DOCTYPE svg PUBLIC "-//W3C//DTD SVG 1.1//EN"
 "http://www.w3.org/Graphics/SVG/1.1/DTD/svg11.dtd">
<!-- Generated by graphviz version 2.43.0 (0)
 -->
<!-- Title: DGtal::AngleLinearMinimizer Pages: 1 -->
<svg width="377pt" height="134pt"
 viewBox="0.00 0.00 377.00 134.00" xmlns="http://www.w3.org/2000/svg" xmlns:xlink="http://www.w3.org/1999/xlink">
<g id="graph0" class="graph" transform="scale(1 1) rotate(0) translate(4 130)">
<title>DGtal::AngleLinearMinimizer</title>
<!-- Node1 -->
<g id="Node000001" class="node">
<title>Node1</title>
<g id="a_Node000001"><a xlink:title="Aim: Used to minimize the angle variation between different angles while taking into accounts min and...">
<polygon fill="#999999" stroke="#666666" points="157,-72.5 0,-72.5 0,-53.5 157,-53.5 157,-72.5"/>
<text text-anchor="middle" x="78.5" y="-60.5" font-family="FreeSans" font-size="10.00">DGtal::AngleLinearMinimizer</text>
</a>
</g>
</g>
<!-- Node2 -->
<g id="Node000002" class="node">
<title>Node2</title>
<g id="a_Node000002"><a xlink:href="classDGtal_1_1AngleLinearMinimizerByAdaptiveStepGradientDescent.html" target="_top" xlink:title=" ">
<polygon fill="white" stroke="#666666" points="369,-126 193,-126 193,-96 369,-96 369,-126"/>
<text text-anchor="start" x="201" y="-114" font-family="FreeSans" font-size="10.00">DGtal::AngleLinearMinimizer</text>
<text text-anchor="middle" x="281" y="-103" font-family="FreeSans" font-size="10.00">ByAdaptiveStepGradientDescent</text>
</a>
</g>
</g>
<!-- Node1&#45;&gt;Node2 -->
<g id="edge1_Node000001_Node000002" class="edge">
<title>Node1&#45;&gt;Node2</title>
<g id="a_edge1_Node000001_Node000002"><a xlink:title=" ">
<path fill="none" stroke="#63b8ff" d="M129.43,-74.95C155.95,-81.3 188.82,-89.17 217.08,-95.94"/>
<polygon fill="#63b8ff" stroke="#63b8ff" points="130.13,-71.52 119.59,-72.6 128.5,-78.33 130.13,-71.52"/>
</a>
</g>
</g>
<!-- Node3 -->
<g id="Node000003" class="node">
<title>Node3</title>
<g id="a_Node000003"><a xlink:href="classDGtal_1_1AngleLinearMinimizerByGradientDescent.html" target="_top" xlink:title=" ">
<polygon fill="white" stroke="#666666" points="359.5,-78 202.5,-78 202.5,-48 359.5,-48 359.5,-78"/>
<text text-anchor="start" x="210.5" y="-66" font-family="FreeSans" font-size="10.00">DGtal::AngleLinearMinimizer</text>
<text text-anchor="middle" x="281" y="-55" font-family="FreeSans" font-size="10.00">ByGradientDescent</text>
</a>
</g>
</g>
<!-- Node1&#45;&gt;Node3 -->
<g id="edge2_Node000001_Node000003" class="edge">
<title>Node1&#45;&gt;Node3</title>
<g id="a_edge2_Node000001_Node000003"><a xlink:title=" ">
<path fill="none" stroke="#63b8ff" d="M167.22,-63C178.92,-63 190.85,-63 202.36,-63"/>
<polygon fill="#63b8ff" stroke="#63b8ff" points="167.02,-59.5 157.02,-63 167.02,-66.5 167.02,-59.5"/>
</a>
</g>
</g>
<!-- Node4 -->
<g id="Node000004" class="node">
<title>Node4</title>
<g id="a_Node000004"><a xlink:href="classDGtal_1_1AngleLinearMinimizerByRelaxation.html" target="_top" xlink:title=" ">
<polygon fill="white" stroke="#666666" points="359.5,-30 202.5,-30 202.5,0 359.5,0 359.5,-30"/>
<text text-anchor="start" x="210.5" y="-18" font-family="FreeSans" font-size="10.00">DGtal::AngleLinearMinimizer</text>
<text text-anchor="middle" x="281" y="-7" font-family="FreeSans" font-size="10.00">ByRelaxation</text>
</a>
</g>
</g>
<!-- Node1&#45;&gt;Node4 -->
<g id="edge3_Node000001_Node000004" class="edge">
<title>Node1&#45;&gt;Node4</title>
<g id="a_edge3_Node000001_Node000004"><a xlink:title=" ">
<path fill="none" stroke="#63b8ff" d="M129.43,-51.05C155.95,-44.7 188.82,-36.83 217.08,-30.06"/>
<polygon fill="#63b8ff" stroke="#63b8ff" points="128.5,-47.67 119.59,-53.4 130.13,-54.48 128.5,-47.67"/>
</a>
</g>
</g>
</g>
</svg>
