<?xml version="1.0" encoding="UTF-8" standalone="no"?>
<!DOCTYPE svg PUBLIC "-//W3C//DTD SVG 1.1//EN"
 "http://www.w3.org/Graphics/SVG/1.1/DTD/svg11.dtd">
<!-- Generated by graphviz version 2.43.0 (0)
 -->
<!-- Title: DGtal::PredicateFromOrientationFunctor2&lt; TOrientationFunctor, acceptNeg, acceptZero &gt; Pages: 1 -->
<svg width="519pt" height="86pt"
 viewBox="0.00 0.00 519.00 86.00" xmlns="http://www.w3.org/2000/svg" xmlns:xlink="http://www.w3.org/1999/xlink">
<g id="graph0" class="graph" transform="scale(1 1) rotate(0) translate(4 82)">
<title>DGtal::PredicateFromOrientationFunctor2&lt; TOrientationFunctor, acceptNeg, acceptZero &gt;</title>
<!-- Node1 -->
<g id="Node000001" class="node">
<title>Node1</title>
<g id="a_Node000001"><a xlink:title="Aim: Small adapter to models of COrientationFunctor2. It is a model of concepts::CPointPredicate....">
<polygon fill="#999999" stroke="#666666" points="176,-59.5 0,-59.5 0,-18.5 176,-18.5 176,-59.5"/>
<text text-anchor="start" x="8" y="-47.5" font-family="FreeSans" font-size="10.00">DGtal::PredicateFromOrientation</text>
<text text-anchor="start" x="8" y="-36.5" font-family="FreeSans" font-size="10.00">Functor2&lt; TOrientationFunctor,</text>
<text text-anchor="middle" x="88" y="-25.5" font-family="FreeSans" font-size="10.00"> acceptNeg, acceptZero &gt;</text>
</a>
</g>
</g>
<!-- Node2 -->
<g id="Node000002" class="node">
<title>Node2</title>
<g id="a_Node000002"><a xlink:href="classDGtal_1_1PredicateFromOrientationFunctor2.html" target="_top" xlink:title=" ">
<polygon fill="white" stroke="#666666" points="511,-78 334,-78 334,-48 511,-48 511,-78"/>
<text text-anchor="start" x="342" y="-66" font-family="FreeSans" font-size="10.00">DGtal::PredicateFromOrientation</text>
<text text-anchor="middle" x="422.5" y="-55" font-family="FreeSans" font-size="10.00">Functor2&lt; Functor, false, false &gt;</text>
</a>
</g>
</g>
<!-- Node1&#45;&gt;Node2 -->
<g id="edge1_Node000001_Node000002" class="edge">
<title>Node1&#45;&gt;Node2</title>
<g id="a_edge1_Node000001_Node000002"><a xlink:title=" ">
<path fill="none" stroke="orange" stroke-dasharray="5,2" d="M186.48,-46.04C233.13,-49.4 288.55,-53.4 333.86,-56.67"/>
<polygon fill="orange" stroke="orange" points="186.59,-42.53 176.36,-45.31 186.08,-49.52 186.59,-42.53"/>
</a>
</g>
<text text-anchor="middle" x="255" y="-58" font-family="FreeSans" font-size="10.00" fill="grey"> &lt; Functor, false, false &gt;</text>
</g>
<!-- Node3 -->
<g id="Node000003" class="node">
<title>Node3</title>
<g id="a_Node000003"><a xlink:href="classDGtal_1_1PredicateFromOrientationFunctor2.html" target="_top" xlink:title=" ">
<polygon fill="white" stroke="#666666" points="510.5,-30 334.5,-30 334.5,0 510.5,0 510.5,-30"/>
<text text-anchor="start" x="342.5" y="-18" font-family="FreeSans" font-size="10.00">DGtal::PredicateFromOrientation</text>
<text text-anchor="middle" x="422.5" y="-7" font-family="FreeSans" font-size="10.00">Functor2&lt; Functor, true, false &gt;</text>
</a>
</g>
</g>
<!-- Node1&#45;&gt;Node3 -->
<g id="edge2_Node000001_Node000003" class="edge">
<title>Node1&#45;&gt;Node3</title>
<g id="a_edge2_Node000001_Node000003"><a xlink:title=" ">
<path fill="none" stroke="orange" stroke-dasharray="5,2" d="M186.25,-31.57C188.86,-31.38 191.45,-31.19 194,-31 240.3,-27.61 291.91,-23.97 334.26,-21.02"/>
<polygon fill="orange" stroke="orange" points="185.8,-28.09 176.09,-32.33 186.32,-35.07 185.8,-28.09"/>
</a>
</g>
<text text-anchor="middle" x="255" y="-34" font-family="FreeSans" font-size="10.00" fill="grey"> &lt; Functor, true, false &gt;</text>
</g>
</g>
</svg>
