<?xml version="1.0" encoding="UTF-8" standalone="no"?>
<!DOCTYPE svg PUBLIC "-//W3C//DTD SVG 1.1//EN"
 "http://www.w3.org/Graphics/SVG/1.1/DTD/svg11.dtd">
<!-- Generated by graphviz version 2.43.0 (0)
 -->
<!-- Title: DGtal::ArithmeticalDSL&lt; TCoordinate, TInteger, adjacency &gt; Pages: 1 -->
<svg width="515pt" height="290pt"
 viewBox="0.00 0.00 515.00 290.00" xmlns="http://www.w3.org/2000/svg" xmlns:xlink="http://www.w3.org/1999/xlink">
<g id="graph0" class="graph" transform="scale(1 1) rotate(0) translate(4 286)">
<title>DGtal::ArithmeticalDSL&lt; TCoordinate, TInteger, adjacency &gt;</title>
<!-- Node1 -->
<g id="Node000001" class="node">
<title>Node1</title>
<g id="a_Node000001"><a xlink:title="Aim: This class represents a naive (resp. standard) digital straight line (DSL), ie....">
<polygon fill="#999999" stroke="#666666" points="136,-164.5 0,-164.5 0,-123.5 136,-123.5 136,-164.5"/>
<text text-anchor="start" x="8" y="-152.5" font-family="FreeSans" font-size="10.00">DGtal::ArithmeticalDSL</text>
<text text-anchor="start" x="8" y="-141.5" font-family="FreeSans" font-size="10.00">&lt; TCoordinate, TInteger,</text>
<text text-anchor="middle" x="68" y="-130.5" font-family="FreeSans" font-size="10.00"> adjacency &gt;</text>
</a>
</g>
</g>
<!-- Node2 -->
<g id="Node000002" class="node">
<title>Node2</title>
<g id="a_Node000002"><a xlink:href="classDGtal_1_1NaiveDSL.html" target="_top" xlink:title="Aim: This class is an alias of ArithmeticalDSS for naive DSL. It represents a naive digital straight ...">
<polygon fill="white" stroke="#666666" points="505,-282 335,-282 335,-252 505,-252 505,-282"/>
<text text-anchor="start" x="343" y="-270" font-family="FreeSans" font-size="10.00">DGtal::NaiveDSL&lt; TCoordinate,</text>
<text text-anchor="middle" x="420" y="-259" font-family="FreeSans" font-size="10.00"> TInteger &gt;</text>
</a>
</g>
</g>
<!-- Node1&#45;&gt;Node2 -->
<g id="edge1_Node000001_Node000002" class="edge">
<title>Node1&#45;&gt;Node2</title>
<g id="a_edge1_Node000001_Node000002"><a xlink:title=" ">
<path fill="none" stroke="#63b8ff" d="M99.99,-171.31C115.32,-183.54 134.65,-197.17 154,-206 211.44,-232.22 281.2,-247.69 334.72,-256.49"/>
<polygon fill="#63b8ff" stroke="#63b8ff" points="101.87,-168.33 91.91,-164.7 97.44,-173.75 101.87,-168.33"/>
</a>
</g>
</g>
<!-- Node3 -->
<g id="Node000003" class="node">
<title>Node3</title>
<g id="a_Node000003"><a xlink:href="classDGtal_1_1StandardDSL.html" target="_top" xlink:title="Aim: This class is an alias of ArithmeticalDSS for standard DSL. It represents a standard digital str...">
<polygon fill="white" stroke="#666666" points="492,-234 348,-234 348,-204 492,-204 492,-234"/>
<text text-anchor="start" x="356" y="-222" font-family="FreeSans" font-size="10.00">DGtal::StandardDSL</text>
<text text-anchor="middle" x="420" y="-211" font-family="FreeSans" font-size="10.00">&lt; TCoordinate, TInteger &gt;</text>
</a>
</g>
</g>
<!-- Node1&#45;&gt;Node3 -->
<g id="edge2_Node000001_Node000003" class="edge">
<title>Node1&#45;&gt;Node3</title>
<g id="a_edge2_Node000001_Node000003"><a xlink:title=" ">
<path fill="none" stroke="#63b8ff" d="M126.34,-168.16C135.49,-171.46 144.93,-174.55 154,-177 218.53,-194.43 293.98,-205.51 347.84,-211.89"/>
<polygon fill="#63b8ff" stroke="#63b8ff" points="127.54,-164.87 116.95,-164.66 125.1,-171.43 127.54,-164.87"/>
</a>
</g>
</g>
<!-- Node4 -->
<g id="Node000004" class="node">
<title>Node4</title>
<g id="a_Node000004"><a xlink:href="classDGtal_1_1ArithmeticalDSL.html" target="_top" xlink:title=" ">
<polygon fill="white" stroke="#666666" points="507,-186 333,-186 333,-156 507,-156 507,-186"/>
<text text-anchor="start" x="341" y="-174" font-family="FreeSans" font-size="10.00">DGtal::ArithmeticalDSL</text>
<text text-anchor="middle" x="420" y="-163" font-family="FreeSans" font-size="10.00">&lt; TCoordinate, TCoordinate, 8 &gt;</text>
</a>
</g>
</g>
<!-- Node1&#45;&gt;Node4 -->
<g id="edge3_Node000001_Node000004" class="edge">
<title>Node1&#45;&gt;Node4</title>
<g id="a_edge3_Node000001_Node000004"><a xlink:title=" ">
<path fill="none" stroke="orange" stroke-dasharray="5,2" d="M146.15,-149.95C201.37,-154.21 275.75,-159.95 332.9,-164.36"/>
<polygon fill="orange" stroke="orange" points="146.31,-146.45 136.07,-149.17 145.77,-153.43 146.31,-146.45"/>
</a>
</g>
<text text-anchor="middle" x="234.5" y="-165" font-family="FreeSans" font-size="10.00" fill="grey"> &lt; TCoordinate, TCoordinate, 8 &gt;</text>
</g>
<!-- Node5 -->
<g id="Node000005" class="node">
<title>Node5</title>
<g id="a_Node000005"><a xlink:href="classDGtal_1_1ArithmeticalDSL.html" target="_top" xlink:title=" ">
<polygon fill="white" stroke="#666666" points="484.5,-137.5 355.5,-137.5 355.5,-96.5 484.5,-96.5 484.5,-137.5"/>
<text text-anchor="start" x="363.5" y="-125.5" font-family="FreeSans" font-size="10.00">DGtal::ArithmeticalDSL</text>
<text text-anchor="start" x="363.5" y="-114.5" font-family="FreeSans" font-size="10.00">&lt; Coordinate, Integer,</text>
<text text-anchor="middle" x="420" y="-103.5" font-family="FreeSans" font-size="10.00"> adjacency &gt;</text>
</a>
</g>
</g>
<!-- Node1&#45;&gt;Node5 -->
<g id="edge4_Node000001_Node000005" class="edge">
<title>Node1&#45;&gt;Node5</title>
<g id="a_edge4_Node000001_Node000005"><a xlink:title=" ">
<path fill="none" stroke="orange" stroke-dasharray="5,2" d="M145.95,-126.13C148.66,-125.71 151.35,-125.33 154,-125 222.39,-116.4 301.45,-115.13 355.29,-115.55"/>
<polygon fill="orange" stroke="orange" points="145.36,-122.68 136.07,-127.77 146.51,-129.58 145.36,-122.68"/>
</a>
</g>
<text text-anchor="start" x="178.5" y="-139" font-family="FreeSans" font-size="10.00" fill="grey"> &lt; Coordinate, Integer,</text>
<text text-anchor="middle" x="234.5" y="-128" font-family="FreeSans" font-size="10.00" fill="grey"> adjacency &gt;</text>
</g>
<!-- Node6 -->
<g id="Node000006" class="node">
<title>Node6</title>
<g id="a_Node000006"><a xlink:href="classDGtal_1_1ArithmeticalDSL.html" target="_top" xlink:title=" ">
<polygon fill="white" stroke="#666666" points="507,-78 333,-78 333,-48 507,-48 507,-78"/>
<text text-anchor="start" x="341" y="-66" font-family="FreeSans" font-size="10.00">DGtal::ArithmeticalDSL</text>
<text text-anchor="middle" x="420" y="-55" font-family="FreeSans" font-size="10.00">&lt; TCoordinate, TCoordinate, 4 &gt;</text>
</a>
</g>
</g>
<!-- Node1&#45;&gt;Node6 -->
<g id="edge5_Node000001_Node000006" class="edge">
<title>Node1&#45;&gt;Node6</title>
<g id="a_edge5_Node000001_Node000006"><a xlink:title=" ">
<path fill="none" stroke="orange" stroke-dasharray="5,2" d="M111.1,-118.63C124.42,-111.6 139.46,-104.63 154,-100 212.1,-81.51 280.28,-72.25 332.93,-67.62"/>
<polygon fill="orange" stroke="orange" points="109.3,-115.63 102.19,-123.48 112.64,-121.78 109.3,-115.63"/>
</a>
</g>
<text text-anchor="middle" x="234.5" y="-103" font-family="FreeSans" font-size="10.00" fill="grey"> &lt; TCoordinate, TCoordinate, 4 &gt;</text>
</g>
<!-- Node7 -->
<g id="Node000007" class="node">
<title>Node7</title>
<g id="a_Node000007"><a xlink:href="classDGtal_1_1ArithmeticalDSL.html" target="_top" xlink:title=" ">
<polygon fill="white" stroke="#666666" points="492.5,-30 347.5,-30 347.5,0 492.5,0 492.5,-30"/>
<text text-anchor="start" x="355.5" y="-18" font-family="FreeSans" font-size="10.00">DGtal::ArithmeticalDSL</text>
<text text-anchor="middle" x="420" y="-7" font-family="FreeSans" font-size="10.00">&lt; Coordinate, Integer, 8 &gt;</text>
</a>
</g>
</g>
<!-- Node1&#45;&gt;Node7 -->
<g id="edge6_Node000001_Node000007" class="edge">
<title>Node1&#45;&gt;Node7</title>
<g id="a_edge6_Node000001_Node000007"><a xlink:title=" ">
<path fill="none" stroke="orange" stroke-dasharray="5,2" d="M88.05,-115.28C103.33,-94.71 126.69,-68.22 154,-54 214.12,-22.7 291.68,-14.4 347.33,-13.05"/>
<polygon fill="orange" stroke="orange" points="85.2,-113.24 82.2,-123.4 90.88,-117.33 85.2,-113.24"/>
</a>
</g>
<text text-anchor="middle" x="234.5" y="-57" font-family="FreeSans" font-size="10.00" fill="grey"> &lt; Coordinate, Integer, 8 &gt;</text>
</g>
</g>
</svg>
