<?xml version="1.0" encoding="UTF-8" standalone="no"?>
<!DOCTYPE svg PUBLIC "-//W3C//DTD SVG 1.1//EN"
 "http://www.w3.org/Graphics/SVG/1.1/DTD/svg11.dtd">
<!-- Generated by graphviz version 2.43.0 (0)
 -->
<!-- Title: DGtal::detail::GridPoint&lt; Integer, Index &gt; Pages: 1 -->
<svg width="396pt" height="86pt"
 viewBox="0.00 0.00 396.00 86.00" xmlns="http://www.w3.org/2000/svg" xmlns:xlink="http://www.w3.org/1999/xlink">
<g id="graph0" class="graph" transform="scale(1 1) rotate(0) translate(4 82)">
<title>DGtal::detail::GridPoint&lt; Integer, Index &gt;</title>
<!-- Node1 -->
<g id="Node000001" class="node">
<title>Node1</title>
<g id="a_Node000001"><a xlink:title="A grid point consists of a couple of nonnegative coordinates &#160;and an integer index &#160;that determines a...">
<polygon fill="#999999" stroke="#666666" points="129,-54 0,-54 0,-24 129,-24 129,-54"/>
<text text-anchor="start" x="8" y="-42" font-family="FreeSans" font-size="10.00">DGtal::detail::GridPoint</text>
<text text-anchor="middle" x="64.5" y="-31" font-family="FreeSans" font-size="10.00">&lt; Integer, Index &gt;</text>
</a>
</g>
</g>
<!-- Node2 -->
<g id="Node000002" class="node">
<title>Node2</title>
<g id="a_Node000002"><a xlink:href="classDGtal_1_1detail_1_1GridPoint.html" target="_top" xlink:title=" ">
<polygon fill="white" stroke="#666666" points="388,-78 259,-78 259,-48 388,-48 388,-78"/>
<text text-anchor="start" x="267" y="-66" font-family="FreeSans" font-size="10.00">DGtal::detail::GridPoint</text>
<text text-anchor="middle" x="323.5" y="-55" font-family="FreeSans" font-size="10.00">&lt; Integer, Index &gt;</text>
</a>
</g>
</g>
<!-- Node1&#45;&gt;Node2 -->
<g id="edge1_Node000001_Node000002" class="edge">
<title>Node1&#45;&gt;Node2</title>
<g id="a_edge1_Node000001_Node000002"><a xlink:title=" ">
<path fill="none" stroke="orange" stroke-dasharray="5,2" d="M139.45,-45.91C177.19,-49.43 222.64,-53.67 258.81,-57.05"/>
<polygon fill="orange" stroke="orange" points="139.31,-42.38 129.03,-44.93 138.66,-49.35 139.31,-42.38"/>
</a>
</g>
<text text-anchor="middle" x="194" y="-58" font-family="FreeSans" font-size="10.00" fill="grey"> &lt; Integer, Index &gt;</text>
</g>
<!-- Node3 -->
<g id="Node000003" class="node">
<title>Node3</title>
<g id="a_Node000003"><a xlink:href="classDGtal_1_1detail_1_1GridPoint.html" target="_top" xlink:title=" ">
<polygon fill="white" stroke="#666666" points="388,-30 259,-30 259,0 388,0 388,-30"/>
<text text-anchor="start" x="267" y="-18" font-family="FreeSans" font-size="10.00">DGtal::detail::GridPoint</text>
<text text-anchor="middle" x="323.5" y="-7" font-family="FreeSans" font-size="10.00">&lt; int, std::size_t &gt;</text>
</a>
</g>
</g>
<!-- Node1&#45;&gt;Node3 -->
<g id="edge2_Node000001_Node000003" class="edge">
<title>Node1&#45;&gt;Node3</title>
<g id="a_edge2_Node000001_Node000003"><a xlink:title=" ">
<path fill="none" stroke="orange" stroke-dasharray="5,2" d="M139.27,-31.74C141.88,-31.49 144.46,-31.24 147,-31 184.01,-27.5 225.42,-23.71 258.72,-20.71"/>
<polygon fill="orange" stroke="orange" points="138.74,-28.27 129.12,-32.71 139.41,-35.24 138.74,-28.27"/>
</a>
</g>
<text text-anchor="middle" x="194" y="-34" font-family="FreeSans" font-size="10.00" fill="grey"> &lt; int, std::size_t &gt;</text>
</g>
</g>
</svg>
