<?xml version="1.0" encoding="UTF-8" standalone="no"?>
<!DOCTYPE svg PUBLIC "-//W3C//DTD SVG 1.1//EN"
 "http://www.w3.org/Graphics/SVG/1.1/DTD/svg11.dtd">
<!-- Generated by graphviz version 2.43.0 (0)
 -->
<!-- Title: DGtal::ArithmeticalDSS&lt; TCoordinate, TInteger, adjacency &gt; Pages: 1 -->
<svg width="518pt" height="338pt"
 viewBox="0.00 0.00 518.00 337.50" xmlns="http://www.w3.org/2000/svg" xmlns:xlink="http://www.w3.org/1999/xlink">
<g id="graph0" class="graph" transform="scale(1 1) rotate(0) translate(4 333.5)">
<title>DGtal::ArithmeticalDSS&lt; TCoordinate, TInteger, adjacency &gt;</title>
<!-- Node1 -->
<g id="Node000001" class="node">
<title>Node1</title>
<g id="a_Node000001"><a xlink:title="Aim: This class represents a naive (resp. standard) digital straight segment (DSS),...">
<polygon fill="#999999" stroke="#666666" points="136,-191 0,-191 0,-150 136,-150 136,-191"/>
<text text-anchor="start" x="8" y="-179" font-family="FreeSans" font-size="10.00">DGtal::ArithmeticalDSS</text>
<text text-anchor="start" x="8" y="-168" font-family="FreeSans" font-size="10.00">&lt; TCoordinate, TInteger,</text>
<text text-anchor="middle" x="68" y="-157" font-family="FreeSans" font-size="10.00"> adjacency &gt;</text>
</a>
</g>
</g>
<!-- Node2 -->
<g id="Node000002" class="node">
<title>Node2</title>
<g id="a_Node000002"><a xlink:href="classDGtal_1_1NaiveDSS8.html" target="_top" xlink:title="Aim: This class represents a standard digital straight segment (DSS), ie. the sequence of simply 8&#45;co...">
<polygon fill="white" stroke="#666666" points="510,-329.5 333,-329.5 333,-299.5 510,-299.5 510,-329.5"/>
<text text-anchor="start" x="341" y="-317.5" font-family="FreeSans" font-size="10.00">DGtal::NaiveDSS8&lt; TCoordinate,</text>
<text text-anchor="middle" x="421.5" y="-306.5" font-family="FreeSans" font-size="10.00"> TInteger &gt;</text>
</a>
</g>
</g>
<!-- Node1&#45;&gt;Node2 -->
<g id="edge1_Node000001_Node000002" class="edge">
<title>Node1&#45;&gt;Node2</title>
<g id="a_edge1_Node000001_Node000002"><a xlink:title=" ">
<path fill="none" stroke="#63b8ff" d="M91.62,-199.17C107.28,-217.1 129.63,-239.25 154,-252.5 209.3,-282.57 278.74,-298.12 332.88,-306.13"/>
<polygon fill="#63b8ff" stroke="#63b8ff" points="94.05,-196.62 84.91,-191.27 88.72,-201.16 94.05,-196.62"/>
</a>
</g>
</g>
<!-- Node3 -->
<g id="Node000003" class="node">
<title>Node3</title>
<g id="a_Node000003"><a xlink:href="classDGtal_1_1StandardDSS4.html" target="_top" xlink:title="Aim: This class represents a standard digital straight segment (DSS), ie. the sequence of simply 4&#45;co...">
<polygon fill="white" stroke="#666666" points="493.5,-281.5 349.5,-281.5 349.5,-251.5 493.5,-251.5 493.5,-281.5"/>
<text text-anchor="start" x="357.5" y="-269.5" font-family="FreeSans" font-size="10.00">DGtal::StandardDSS4</text>
<text text-anchor="middle" x="421.5" y="-258.5" font-family="FreeSans" font-size="10.00">&lt; TCoordinate, TInteger &gt;</text>
</a>
</g>
</g>
<!-- Node1&#45;&gt;Node3 -->
<g id="edge2_Node000001_Node000003" class="edge">
<title>Node1&#45;&gt;Node3</title>
<g id="a_edge2_Node000001_Node000003"><a xlink:title=" ">
<path fill="none" stroke="#63b8ff" d="M106.53,-196.52C120.83,-205.36 137.63,-214.5 154,-220.5 217.81,-243.89 294.66,-255.53 349.41,-261.24"/>
<polygon fill="#63b8ff" stroke="#63b8ff" points="108.3,-193.5 97.98,-191.1 104.55,-199.41 108.3,-193.5"/>
</a>
</g>
</g>
<!-- Node4 -->
<g id="Node000004" class="node">
<title>Node4</title>
<g id="a_Node000004"><a xlink:href="classDGtal_1_1ArithmeticalDSS.html" target="_top" xlink:title=" ">
<polygon fill="white" stroke="#666666" points="508.5,-233.5 334.5,-233.5 334.5,-203.5 508.5,-203.5 508.5,-233.5"/>
<text text-anchor="start" x="342.5" y="-221.5" font-family="FreeSans" font-size="10.00">DGtal::ArithmeticalDSS</text>
<text text-anchor="middle" x="421.5" y="-210.5" font-family="FreeSans" font-size="10.00">&lt; TCoordinate, TCoordinate, 8 &gt;</text>
</a>
</g>
</g>
<!-- Node1&#45;&gt;Node4 -->
<g id="edge3_Node000001_Node000004" class="edge">
<title>Node1&#45;&gt;Node4</title>
<g id="a_edge3_Node000001_Node000004"><a xlink:title=" ">
<path fill="none" stroke="orange" stroke-dasharray="5,2" d="M146.31,-184.32C148.9,-184.73 151.47,-185.12 154,-185.5 214.05,-194.51 281.98,-202.89 334.23,-208.96"/>
<polygon fill="orange" stroke="orange" points="146.65,-180.83 136.22,-182.69 145.54,-187.74 146.65,-180.83"/>
</a>
</g>
<text text-anchor="middle" x="234.5" y="-208.5" font-family="FreeSans" font-size="10.00" fill="grey"> &lt; TCoordinate, TCoordinate, 8 &gt;</text>
</g>
<!-- Node5 -->
<g id="Node000005" class="node">
<title>Node5</title>
<g id="a_Node000005"><a xlink:href="classDGtal_1_1ArithmeticalDSS.html" target="_top" xlink:title=" ">
<polygon fill="white" stroke="#666666" points="508.5,-185.5 334.5,-185.5 334.5,-155.5 508.5,-155.5 508.5,-185.5"/>
<text text-anchor="start" x="342.5" y="-173.5" font-family="FreeSans" font-size="10.00">DGtal::ArithmeticalDSS</text>
<text text-anchor="middle" x="421.5" y="-162.5" font-family="FreeSans" font-size="10.00">&lt; TCoordinate, TCoordinate, 4 &gt;</text>
</a>
</g>
</g>
<!-- Node1&#45;&gt;Node5 -->
<g id="edge4_Node000001_Node000005" class="edge">
<title>Node1&#45;&gt;Node5</title>
<g id="a_edge4_Node000001_Node000005"><a xlink:title=" ">
<path fill="none" stroke="orange" stroke-dasharray="5,2" d="M146.5,-170.5C202.06,-170.5 276.92,-170.5 334.35,-170.5"/>
<polygon fill="orange" stroke="orange" points="146.36,-167 136.36,-170.5 146.36,-174 146.36,-167"/>
</a>
</g>
<text text-anchor="middle" x="234.5" y="-173.5" font-family="FreeSans" font-size="10.00" fill="grey"> &lt; TCoordinate, TCoordinate, 4 &gt;</text>
</g>
<!-- Node6 -->
<g id="Node000006" class="node">
<title>Node6</title>
<g id="a_Node000006"><a xlink:href="classDGtal_1_1ArithmeticalDSS.html" target="_top" xlink:title=" ">
<polygon fill="white" stroke="#666666" points="494,-137.5 349,-137.5 349,-107.5 494,-107.5 494,-137.5"/>
<text text-anchor="start" x="357" y="-125.5" font-family="FreeSans" font-size="10.00">DGtal::ArithmeticalDSS</text>
<text text-anchor="middle" x="421.5" y="-114.5" font-family="FreeSans" font-size="10.00">&lt; Coordinate, Integer, 8 &gt;</text>
</a>
</g>
</g>
<!-- Node1&#45;&gt;Node6 -->
<g id="edge5_Node000001_Node000006" class="edge">
<title>Node1&#45;&gt;Node6</title>
<g id="a_edge5_Node000001_Node000006"><a xlink:title=" ">
<path fill="none" stroke="orange" stroke-dasharray="5,2" d="M146.31,-156.68C148.9,-156.27 151.47,-155.88 154,-155.5 219.81,-145.62 295.09,-136.5 348.82,-130.36"/>
<polygon fill="orange" stroke="orange" points="145.54,-153.26 136.22,-158.31 146.65,-160.17 145.54,-153.26"/>
</a>
</g>
<text text-anchor="middle" x="234.5" y="-158.5" font-family="FreeSans" font-size="10.00" fill="grey"> &lt; Coordinate, Integer, 8 &gt;</text>
</g>
<!-- Node7 -->
<g id="Node000007" class="node">
<title>Node7</title>
<g id="a_Node000007"><a xlink:href="classDGtal_1_1ArithmeticalDSS.html" target="_top" xlink:title=" ">
<polygon fill="white" stroke="#666666" points="494,-89.5 349,-89.5 349,-59.5 494,-59.5 494,-89.5"/>
<text text-anchor="start" x="357" y="-77.5" font-family="FreeSans" font-size="10.00">DGtal::ArithmeticalDSS</text>
<text text-anchor="middle" x="421.5" y="-66.5" font-family="FreeSans" font-size="10.00">&lt; Coordinate, Integer, 4 &gt;</text>
</a>
</g>
</g>
<!-- Node1&#45;&gt;Node7 -->
<g id="edge6_Node000001_Node000007" class="edge">
<title>Node1&#45;&gt;Node7</title>
<g id="a_edge6_Node000001_Node000007"><a xlink:title=" ">
<path fill="none" stroke="orange" stroke-dasharray="5,2" d="M105.76,-144.34C120.19,-135.19 137.29,-125.67 154,-119.5 217.49,-96.05 294.05,-84.74 348.78,-79.33"/>
<polygon fill="orange" stroke="orange" points="103.61,-141.57 97.14,-149.96 107.43,-147.43 103.61,-141.57"/>
</a>
</g>
<text text-anchor="middle" x="234.5" y="-122.5" font-family="FreeSans" font-size="10.00" fill="grey"> &lt; Coordinate, Integer, 4 &gt;</text>
</g>
<!-- Node8 -->
<g id="Node000008" class="node">
<title>Node8</title>
<g id="a_Node000008"><a xlink:href="classDGtal_1_1ArithmeticalDSS.html" target="_top" xlink:title=" ">
<polygon fill="white" stroke="#666666" points="486.5,-41 356.5,-41 356.5,0 486.5,0 486.5,-41"/>
<text text-anchor="start" x="364.5" y="-29" font-family="FreeSans" font-size="10.00">DGtal::ArithmeticalDSS</text>
<text text-anchor="start" x="364.5" y="-18" font-family="FreeSans" font-size="10.00">&lt; Coordinate, Integer,</text>
<text text-anchor="middle" x="421.5" y="-7" font-family="FreeSans" font-size="10.00"> adjacency &gt;</text>
</a>
</g>
</g>
<!-- Node1&#45;&gt;Node8 -->
<g id="edge7_Node000001_Node000008" class="edge">
<title>Node1&#45;&gt;Node8</title>
<g id="a_edge7_Node000001_Node000008"><a xlink:title=" ">
<path fill="none" stroke="orange" stroke-dasharray="5,2" d="M82.95,-140.61C96.97,-114.14 121.21,-76.79 154,-57.5 215.8,-21.13 299.3,-15.08 356.26,-16.05"/>
<polygon fill="orange" stroke="orange" points="79.68,-139.32 78.25,-149.81 85.91,-142.5 79.68,-139.32"/>
</a>
</g>
<text text-anchor="start" x="178.5" y="-71.5" font-family="FreeSans" font-size="10.00" fill="grey"> &lt; Coordinate, Integer,</text>
<text text-anchor="middle" x="234.5" y="-60.5" font-family="FreeSans" font-size="10.00" fill="grey"> adjacency &gt;</text>
</g>
</g>
</svg>
