<?xml version="1.0" encoding="UTF-8" standalone="no"?>
<!DOCTYPE svg PUBLIC "-//W3C//DTD SVG 1.1//EN"
 "http://www.w3.org/Graphics/SVG/1.1/DTD/svg11.dtd">
<!-- Generated by graphviz version 2.43.0 (0)
 -->
<!-- Title: DGtal::FreemanChain&lt; TInteger &gt;::ConstIterator Pages: 1 -->
<svg width="157pt" height="128pt"
 viewBox="0.00 0.00 157.00 128.00" xmlns="http://www.w3.org/2000/svg" xmlns:xlink="http://www.w3.org/1999/xlink">
<g id="graph0" class="graph" transform="scale(1 1) rotate(0) translate(4 124)">
<title>DGtal::FreemanChain&lt; TInteger &gt;::ConstIterator</title>
<polygon fill="white" stroke="transparent" points="-4,4 -4,-124 153,-124 153,4 -4,4"/>
<!-- Node1 -->
<g id="node1" class="node">
<title>Node1</title>
<g id="a_node1"><a xlink:title=" ">
<polygon fill="#bfbfbf" stroke="black" points="0,-0.5 0,-30.5 149,-30.5 149,-0.5 0,-0.5"/>
<text text-anchor="start" x="8" y="-18.5" font-family="FreeSans" font-size="10.00">DGtal::FreemanChain</text>
<text text-anchor="middle" x="74.5" y="-7.5" font-family="FreeSans" font-size="10.00">&lt; TInteger &gt;::ConstIterator</text>
</a>
</g>
</g>
<!-- Node2 -->
<g id="node2" class="node">
<title>Node2</title>
<g id="a_node2"><a xlink:title=" ">
<polygon fill="white" stroke="#bfbfbf" points="12,-67.5 12,-119.5 137,-119.5 137,-67.5 12,-67.5"/>
<text text-anchor="start" x="20" y="-107.5" font-family="FreeSans" font-size="10.00">std::iterator&lt; std</text>
<text text-anchor="start" x="20" y="-96.5" font-family="FreeSans" font-size="10.00">::bidirectional_iterator</text>
<text text-anchor="start" x="20" y="-85.5" font-family="FreeSans" font-size="10.00">_tag, Point, int, Point</text>
<text text-anchor="middle" x="74.5" y="-74.5" font-family="FreeSans" font-size="10.00"> *, Point &gt;</text>
</a>
</g>
</g>
<!-- Node2&#45;&gt;Node1 -->
<g id="edge1" class="edge">
<title>Node2&#45;&gt;Node1</title>
<path fill="none" stroke="midnightblue" d="M74.5,-56.96C74.5,-47.72 74.5,-38.28 74.5,-30.85"/>
<polygon fill="midnightblue" stroke="midnightblue" points="71,-57.19 74.5,-67.19 78,-57.19 71,-57.19"/>
</g>
</g>
</svg>
