<?xml version="1.0" encoding="UTF-8" standalone="no"?>
<!DOCTYPE svg PUBLIC "-//W3C//DTD SVG 1.1//EN"
 "http://www.w3.org/Graphics/SVG/1.1/DTD/svg11.dtd">
<!-- Generated by graphviz version 2.43.0 (0)
 -->
<!-- Title: DGtal::TwoStepLocalLengthEstimator&lt; TConstIterator &gt; Pages: 1 -->
<svg width="387pt" height="86pt"
 viewBox="0.00 0.00 387.00 86.00" xmlns="http://www.w3.org/2000/svg" xmlns:xlink="http://www.w3.org/1999/xlink">
<g id="graph0" class="graph" transform="scale(1 1) rotate(0) translate(4 82)">
<title>DGtal::TwoStepLocalLengthEstimator&lt; TConstIterator &gt;</title>
<!-- Node1 -->
<g id="Node000001" class="node">
<title>Node1</title>
<g id="a_Node000001"><a xlink:title="Aim: a simple model of CGlobalCurveEstimator that compute the length of a curve using the l_1 metric ...">
<polygon fill="#999999" stroke="#666666" points="155,-54 0,-54 0,-24 155,-24 155,-54"/>
<text text-anchor="start" x="8" y="-42" font-family="FreeSans" font-size="10.00">DGtal::TwoStepLocalLength</text>
<text text-anchor="middle" x="77.5" y="-31" font-family="FreeSans" font-size="10.00">Estimator&lt; TConstIterator &gt;</text>
</a>
</g>
</g>
<!-- Node2 -->
<g id="Node000002" class="node">
<title>Node2</title>
<g id="a_Node000002"><a xlink:href="classDGtal_1_1BLUELocalLengthEstimator.html" target="_top" xlink:title="Aim: Best Linear Unbiased Two step length estimator.">
<polygon fill="white" stroke="#666666" points="376,-78 194,-78 194,-48 376,-48 376,-78"/>
<text text-anchor="start" x="202" y="-66" font-family="FreeSans" font-size="10.00">DGtal::BLUELocalLengthEstimator</text>
<text text-anchor="middle" x="285" y="-55" font-family="FreeSans" font-size="10.00">&lt; TConstIterator &gt;</text>
</a>
</g>
</g>
<!-- Node1&#45;&gt;Node2 -->
<g id="edge1_Node000001_Node000002" class="edge">
<title>Node1&#45;&gt;Node2</title>
<g id="a_edge1_Node000001_Node000002"><a xlink:title=" ">
<path fill="none" stroke="#63b8ff" d="M165.22,-49.13C174.7,-50.24 184.37,-51.36 193.89,-52.48"/>
<polygon fill="#63b8ff" stroke="#63b8ff" points="165.36,-45.62 155.02,-47.94 164.55,-52.57 165.36,-45.62"/>
</a>
</g>
</g>
<!-- Node3 -->
<g id="Node000003" class="node">
<title>Node3</title>
<g id="a_Node000003"><a xlink:href="classDGtal_1_1RosenProffittLocalLengthEstimator.html" target="_top" xlink:title="Aim: Rosen&#45;Proffitt Length Estimator.">
<polygon fill="white" stroke="#666666" points="379,-30 191,-30 191,0 379,0 379,-30"/>
<text text-anchor="start" x="199" y="-18" font-family="FreeSans" font-size="10.00">DGtal::RosenProffittLocal</text>
<text text-anchor="middle" x="285" y="-7" font-family="FreeSans" font-size="10.00">LengthEstimator&lt; TConstIterator &gt;</text>
</a>
</g>
</g>
<!-- Node1&#45;&gt;Node3 -->
<g id="edge2_Node000001_Node000003" class="edge">
<title>Node1&#45;&gt;Node3</title>
<g id="a_edge2_Node000001_Node000003"><a xlink:title=" ">
<path fill="none" stroke="#63b8ff" d="M165.22,-28.87C173.65,-27.89 182.24,-26.88 190.73,-25.89"/>
<polygon fill="#63b8ff" stroke="#63b8ff" points="164.55,-25.43 155.02,-30.06 165.36,-32.38 164.55,-25.43"/>
</a>
</g>
</g>
</g>
</svg>
