<?xml version="1.0" encoding="UTF-8" standalone="no"?>
<!DOCTYPE svg PUBLIC "-//W3C//DTD SVG 1.1//EN"
 "http://www.w3.org/Graphics/SVG/1.1/DTD/svg11.dtd">
<!-- Generated by graphviz version 2.43.0 (0)
 -->
<!-- Title: DGtal::PlaneProbingRNeighborhood&lt; TPredicate &gt; Pages: 1 -->
<svg width="646pt" height="86pt"
 viewBox="0.00 0.00 646.00 86.00" xmlns="http://www.w3.org/2000/svg" xmlns:xlink="http://www.w3.org/1999/xlink">
<g id="graph0" class="graph" transform="scale(1 1) rotate(0) translate(4 82)">
<title>DGtal::PlaneProbingRNeighborhood&lt; TPredicate &gt;</title>
<!-- Node1 -->
<g id="Node000001" class="node">
<title>Node1</title>
<g id="a_Node000001"><a xlink:title="Aim: Represent a way to probe the R&#45;neighborhood.">
<polygon fill="#999999" stroke="#666666" points="407,-54 218,-54 218,-24 407,-24 407,-54"/>
<text text-anchor="start" x="226" y="-42" font-family="FreeSans" font-size="10.00">DGtal::PlaneProbingRNeighborhood</text>
<text text-anchor="middle" x="312.5" y="-31" font-family="FreeSans" font-size="10.00">&lt; TPredicate &gt;</text>
</a>
</g>
</g>
<!-- Node3 -->
<g id="Node000003" class="node">
<title>Node3</title>
<g id="a_Node000003"><a xlink:href="classDGtal_1_1PlaneProbingLNeighborhood.html" target="_top" xlink:title="Aim: Represents a way to probe the L&#45;neighborhood, see &#160;for details.">
<polygon fill="white" stroke="#666666" points="634.5,-78 446.5,-78 446.5,-48 634.5,-48 634.5,-78"/>
<text text-anchor="start" x="454.5" y="-66" font-family="FreeSans" font-size="10.00">DGtal::PlaneProbingLNeighborhood</text>
<text text-anchor="middle" x="540.5" y="-55" font-family="FreeSans" font-size="10.00">&lt; TPredicate &gt;</text>
</a>
</g>
</g>
<!-- Node1&#45;&gt;Node3 -->
<g id="edge2_Node000001_Node000003" class="edge">
<title>Node1&#45;&gt;Node3</title>
<g id="a_edge2_Node000001_Node000003"><a xlink:title=" ">
<path fill="none" stroke="#63b8ff" d="M417.16,-50.01C426.91,-51.04 436.74,-52.09 446.38,-53.11"/>
<polygon fill="#63b8ff" stroke="#63b8ff" points="417.37,-46.51 407.05,-48.93 416.63,-53.47 417.37,-46.51"/>
</a>
</g>
</g>
<!-- Node4 -->
<g id="Node000004" class="node">
<title>Node4</title>
<g id="a_Node000004"><a xlink:href="classDGtal_1_1PlaneProbingR1Neighborhood.html" target="_top" xlink:title="Aim: Represent a way to probe the R&#45;neighborhood, with the R1 optimization, see &#160;for details.">
<polygon fill="white" stroke="#666666" points="638,-30 443,-30 443,0 638,0 638,-30"/>
<text text-anchor="start" x="451" y="-18" font-family="FreeSans" font-size="10.00">DGtal::PlaneProbingR1Neighborhood</text>
<text text-anchor="middle" x="540.5" y="-7" font-family="FreeSans" font-size="10.00">&lt; TPredicate &gt;</text>
</a>
</g>
</g>
<!-- Node1&#45;&gt;Node4 -->
<g id="edge3_Node000001_Node000004" class="edge">
<title>Node1&#45;&gt;Node4</title>
<g id="a_edge3_Node000001_Node000004"><a xlink:title=" ">
<path fill="none" stroke="#63b8ff" d="M417.05,-28C425.6,-27.1 434.23,-26.18 442.73,-25.28"/>
<polygon fill="#63b8ff" stroke="#63b8ff" points="416.63,-24.53 407.05,-29.07 417.37,-31.49 416.63,-24.53"/>
</a>
</g>
</g>
<!-- Node2 -->
<g id="Node000002" class="node">
<title>Node2</title>
<g id="a_Node000002"><a xlink:href="classDGtal_1_1PlaneProbingNeighborhood.html" target="_top" xlink:title="Aim: A base virtual class that represents a way to probe a neighborhood, used in the plane probing ba...">
<polygon fill="white" stroke="#666666" points="182,-54 0,-54 0,-24 182,-24 182,-54"/>
<text text-anchor="start" x="8" y="-42" font-family="FreeSans" font-size="10.00">DGtal::PlaneProbingNeighborhood</text>
<text text-anchor="middle" x="91" y="-31" font-family="FreeSans" font-size="10.00">&lt; TPredicate &gt;</text>
</a>
</g>
</g>
<!-- Node2&#45;&gt;Node1 -->
<g id="edge1_Node000001_Node000002" class="edge">
<title>Node2&#45;&gt;Node1</title>
<g id="a_edge1_Node000001_Node000002"><a xlink:title=" ">
<path fill="none" stroke="#63b8ff" d="M192.44,-39C200.86,-39 209.35,-39 217.71,-39"/>
<polygon fill="#63b8ff" stroke="#63b8ff" points="192.23,-35.5 182.23,-39 192.23,-42.5 192.23,-35.5"/>
</a>
</g>
</g>
</g>
</svg>
