<?xml version="1.0" encoding="UTF-8" standalone="no"?>
<!DOCTYPE svg PUBLIC "-//W3C//DTD SVG 1.1//EN"
 "http://www.w3.org/Graphics/SVG/1.1/DTD/svg11.dtd">
<!-- Generated by graphviz version 2.43.0 (0)
 -->
<!-- Title: DGtal::LambdaMST3DBy2DEstimator&lt; Iterator3D, Functor, LambdaFunctor, CONNECTIVITY &gt; Pages: 1 -->
<svg width="634pt" height="108pt"
 viewBox="0.00 0.00 634.00 108.00" xmlns="http://www.w3.org/2000/svg" xmlns:xlink="http://www.w3.org/1999/xlink">
<g id="graph0" class="graph" transform="scale(1 1) rotate(0) translate(4 104)">
<title>DGtal::LambdaMST3DBy2DEstimator&lt; Iterator3D, Functor, LambdaFunctor, CONNECTIVITY &gt;</title>
<!-- Node1 -->
<g id="Node000001" class="node">
<title>Node1</title>
<g id="a_Node000001"><a xlink:title=" ">
<polygon fill="#999999" stroke="#666666" points="203,-70 0,-70 0,-29 203,-29 203,-70"/>
<text text-anchor="start" x="8" y="-58" font-family="FreeSans" font-size="10.00">DGtal::LambdaMST3DBy2DEstimator</text>
<text text-anchor="start" x="8" y="-47" font-family="FreeSans" font-size="10.00">&lt; Iterator3D, Functor, LambdaFunctor,</text>
<text text-anchor="middle" x="101.5" y="-36" font-family="FreeSans" font-size="10.00"> CONNECTIVITY &gt;</text>
</a>
</g>
</g>
<!-- Node2 -->
<g id="Node000002" class="node">
<title>Node2</title>
<g id="a_Node000002"><a xlink:href="classDGtal_1_1LambdaMST3DBy2D.html" target="_top" xlink:title="Aim: Simplify creation of Lambda MST tangent estimator.">
<polygon fill="white" stroke="#666666" points="584,-100 423,-100 423,-59 584,-59 584,-100"/>
<text text-anchor="start" x="431" y="-88" font-family="FreeSans" font-size="10.00">DGtal::LambdaMST3DBy2D</text>
<text text-anchor="start" x="431" y="-77" font-family="FreeSans" font-size="10.00">&lt; Iterator3D, LambdaFunctor,</text>
<text text-anchor="middle" x="503.5" y="-66" font-family="FreeSans" font-size="10.00"> CONNECTIVITY &gt;</text>
</a>
</g>
</g>
<!-- Node1&#45;&gt;Node2 -->
<g id="edge1_Node000001_Node000002" class="edge">
<title>Node1&#45;&gt;Node2</title>
<g id="a_edge1_Node000001_Node000002"><a xlink:title=" ">
<path fill="none" stroke="#63b8ff" d="M213.32,-64.76C215.91,-65.02 218.47,-65.27 221,-65.5 288.97,-71.77 366.45,-75.36 422.9,-77.33"/>
<polygon fill="#63b8ff" stroke="#63b8ff" points="213.6,-61.27 203.28,-63.7 212.86,-68.23 213.6,-61.27"/>
</a>
</g>
</g>
<!-- Node3 -->
<g id="Node000003" class="node">
<title>Node3</title>
<g id="a_Node000003"><a xlink:href="classDGtal_1_1LambdaMST3DBy2DEstimator.html" target="_top" xlink:title=" ">
<polygon fill="white" stroke="#666666" points="626,-41 381,-41 381,0 626,0 626,-41"/>
<text text-anchor="start" x="389" y="-29" font-family="FreeSans" font-size="10.00">DGtal::LambdaMST3DBy2DEstimator</text>
<text text-anchor="start" x="389" y="-18" font-family="FreeSans" font-size="10.00">&lt; Iterator3D, TangentFromDSS3DBy2DFunctor,</text>
<text text-anchor="middle" x="503.5" y="-7" font-family="FreeSans" font-size="10.00"> functors::Lambda64Function, 8 &gt;</text>
</a>
</g>
</g>
<!-- Node1&#45;&gt;Node3 -->
<g id="edge2_Node000001_Node000003" class="edge">
<title>Node1&#45;&gt;Node3</title>
<g id="a_edge2_Node000001_Node000003"><a xlink:title=" ">
<path fill="none" stroke="orange" stroke-dasharray="5,2" d="M213.32,-33.25C215.9,-32.99 218.46,-32.74 221,-32.5 273.24,-27.65 331.11,-24.76 380.73,-23.04"/>
<polygon fill="orange" stroke="orange" points="212.83,-29.79 203.27,-34.35 213.59,-36.74 212.83,-29.79"/>
</a>
</g>
<text text-anchor="start" x="221" y="-57.5" font-family="FreeSans" font-size="10.00" fill="grey"> &lt; Iterator3D, TangentFrom</text>
<text text-anchor="start" x="221" y="-46.5" font-family="FreeSans" font-size="10.00" fill="grey">DSS3DBy2DFunctor, functors</text>
<text text-anchor="middle" x="292" y="-35.5" font-family="FreeSans" font-size="10.00" fill="grey">::Lambda64Function, 8 &gt;</text>
</g>
</g>
</svg>
