<?xml version="1.0" encoding="UTF-8" standalone="no"?>
<!DOCTYPE svg PUBLIC "-//W3C//DTD SVG 1.1//EN"
 "http://www.w3.org/Graphics/SVG/1.1/DTD/svg11.dtd">
<!-- Generated by graphviz version 2.43.0 (0)
 -->
<!-- Title: DGtal::Simple2x2DetComputer&lt; TArgumentInteger, TResultInteger &gt; Pages: 1 -->
<svg width="560pt" height="98pt"
 viewBox="0.00 0.00 560.00 97.50" xmlns="http://www.w3.org/2000/svg" xmlns:xlink="http://www.w3.org/1999/xlink">
<g id="graph0" class="graph" transform="scale(1 1) rotate(0) translate(4 93.5)">
<title>DGtal::Simple2x2DetComputer&lt; TArgumentInteger, TResultInteger &gt;</title>
<!-- Node1 -->
<g id="Node000001" class="node">
<title>Node1</title>
<g id="a_Node000001"><a xlink:title="Aim: Small class useful to compute the determinant of a 2x2 matrix from its four coefficients,...">
<polygon fill="#999999" stroke="#666666" points="204,-62.5 0,-62.5 0,-32.5 204,-32.5 204,-62.5"/>
<text text-anchor="start" x="8" y="-50.5" font-family="FreeSans" font-size="10.00">DGtal::Simple2x2DetComputer</text>
<text text-anchor="middle" x="102" y="-39.5" font-family="FreeSans" font-size="10.00">&lt; TArgumentInteger, TResultInteger &gt;</text>
</a>
</g>
</g>
<!-- Node2 -->
<g id="Node000002" class="node">
<title>Node2</title>
<g id="a_Node000002"><a xlink:href="classDGtal_1_1Simple2x2DetComputer.html" target="_top" xlink:title=" ">
<polygon fill="white" stroke="#666666" points="549,-89.5 382,-89.5 382,-59.5 549,-59.5 549,-89.5"/>
<text text-anchor="start" x="390" y="-77.5" font-family="FreeSans" font-size="10.00">DGtal::Simple2x2DetComputer</text>
<text text-anchor="middle" x="465.5" y="-66.5" font-family="FreeSans" font-size="10.00">&lt; Integer &gt;</text>
</a>
</g>
</g>
<!-- Node1&#45;&gt;Node2 -->
<g id="edge1_Node000001_Node000002" class="edge">
<title>Node1&#45;&gt;Node2</title>
<g id="a_edge1_Node000001_Node000002"><a xlink:title=" ">
<path fill="none" stroke="orange" stroke-dasharray="5,2" d="M214.16,-55.8C268.28,-59.84 332.21,-64.62 381.92,-68.33"/>
<polygon fill="orange" stroke="orange" points="214.41,-52.31 204.18,-55.06 213.89,-59.29 214.41,-52.31"/>
</a>
</g>
<text text-anchor="middle" x="291.5" y="-69.5" font-family="FreeSans" font-size="10.00" fill="grey"> &lt; Integer &gt;</text>
</g>
<!-- Node3 -->
<g id="Node000003" class="node">
<title>Node3</title>
<g id="a_Node000003"><a xlink:href="classDGtal_1_1Simple2x2DetComputer.html" target="_top" xlink:title=" ">
<polygon fill="white" stroke="#666666" points="552,-41 379,-41 379,0 552,0 552,-41"/>
<text text-anchor="start" x="387" y="-29" font-family="FreeSans" font-size="10.00">DGtal::Simple2x2DetComputer</text>
<text text-anchor="start" x="387" y="-18" font-family="FreeSans" font-size="10.00">&lt; typename TPoint::Coordinate,</text>
<text text-anchor="middle" x="465.5" y="-7" font-family="FreeSans" font-size="10.00"> DGtal::int64_t &gt;</text>
</a>
</g>
</g>
<!-- Node1&#45;&gt;Node3 -->
<g id="edge2_Node000001_Node000003" class="edge">
<title>Node1&#45;&gt;Node3</title>
<g id="a_edge2_Node000001_Node000003"><a xlink:title=" ">
<path fill="none" stroke="orange" stroke-dasharray="5,2" d="M214.29,-32.23C216.88,-31.97 219.46,-31.73 222,-31.5 273.94,-26.84 332.34,-24.11 378.8,-22.54"/>
<polygon fill="orange" stroke="orange" points="213.79,-28.76 204.21,-33.27 214.51,-35.72 213.79,-28.76"/>
</a>
</g>
<text text-anchor="start" x="222" y="-45.5" font-family="FreeSans" font-size="10.00" fill="grey"> &lt; typename TPoint::</text>
<text text-anchor="middle" x="291.5" y="-34.5" font-family="FreeSans" font-size="10.00" fill="grey">Coordinate, DGtal::int64_t &gt;</text>
</g>
</g>
</svg>
