<?xml version="1.0" encoding="UTF-8" standalone="no"?>
<!DOCTYPE svg PUBLIC "-//W3C//DTD SVG 1.1//EN"
 "http://www.w3.org/Graphics/SVG/1.1/DTD/svg11.dtd">
<!-- Generated by graphviz version 2.43.0 (0)
 -->
<!-- Title: DGtal::COBANaivePlaneComputer&lt; TSpace, TInternalInteger &gt; Pages: 1 -->
<svg width="541pt" height="86pt"
 viewBox="0.00 0.00 541.00 86.00" xmlns="http://www.w3.org/2000/svg" xmlns:xlink="http://www.w3.org/1999/xlink">
<g id="graph0" class="graph" transform="scale(1 1) rotate(0) translate(4 82)">
<title>DGtal::COBANaivePlaneComputer&lt; TSpace, TInternalInteger &gt;</title>
<!-- Node1 -->
<g id="Node000001" class="node">
<title>Node1</title>
<g id="a_Node000001"><a xlink:title="Aim: A class that contains the COBA algorithm (Emilie Charrier, Lilian Buzer, DGCI2008) for recognizi...">
<polygon fill="#999999" stroke="#666666" points="182,-54 0,-54 0,-24 182,-24 182,-54"/>
<text text-anchor="start" x="8" y="-42" font-family="FreeSans" font-size="10.00">DGtal::COBANaivePlaneComputer</text>
<text text-anchor="middle" x="91" y="-31" font-family="FreeSans" font-size="10.00">&lt; TSpace, TInternalInteger &gt;</text>
</a>
</g>
</g>
<!-- Node2 -->
<g id="Node000002" class="node">
<title>Node2</title>
<g id="a_Node000002"><a xlink:href="classDGtal_1_1COBANaivePlaneComputer.html" target="_top" xlink:title=" ">
<polygon fill="white" stroke="#666666" points="533,-78 351,-78 351,-48 533,-48 533,-78"/>
<text text-anchor="start" x="359" y="-66" font-family="FreeSans" font-size="10.00">DGtal::COBANaivePlaneComputer</text>
<text text-anchor="middle" x="442" y="-55" font-family="FreeSans" font-size="10.00">&lt; Space, InternalInteger &gt;</text>
</a>
</g>
</g>
<!-- Node1&#45;&gt;Node2 -->
<g id="edge1_Node000001_Node000002" class="edge">
<title>Node1&#45;&gt;Node2</title>
<g id="a_edge1_Node000001_Node000002"><a xlink:title=" ">
<path fill="none" stroke="orange" stroke-dasharray="5,2" d="M192.5,-45.91C242.44,-49.35 302.29,-53.46 350.75,-56.79"/>
<polygon fill="orange" stroke="orange" points="192.55,-42.41 182.33,-45.21 192.07,-49.39 192.55,-42.41"/>
</a>
</g>
<text text-anchor="middle" x="266.5" y="-58" font-family="FreeSans" font-size="10.00" fill="grey"> &lt; Space, InternalInteger &gt;</text>
</g>
<!-- Node3 -->
<g id="Node000003" class="node">
<title>Node3</title>
<g id="a_Node000003"><a xlink:href="classDGtal_1_1COBANaivePlaneComputer.html" target="_top" xlink:title=" ">
<polygon fill="white" stroke="#666666" points="533,-30 351,-30 351,0 533,0 533,-30"/>
<text text-anchor="start" x="359" y="-18" font-family="FreeSans" font-size="10.00">DGtal::COBANaivePlaneComputer</text>
<text text-anchor="middle" x="442" y="-7" font-family="FreeSans" font-size="10.00">&lt; Z3, InternalInteger &gt;</text>
</a>
</g>
</g>
<!-- Node1&#45;&gt;Node3 -->
<g id="edge2_Node000001_Node000003" class="edge">
<title>Node1&#45;&gt;Node3</title>
<g id="a_edge2_Node000001_Node000003"><a xlink:title=" ">
<path fill="none" stroke="orange" stroke-dasharray="5,2" d="M192.28,-31.55C194.88,-31.36 197.46,-31.18 200,-31 249.88,-27.5 305.59,-23.79 350.86,-20.82"/>
<polygon fill="orange" stroke="orange" points="191.88,-28.06 182.16,-32.27 192.38,-35.05 191.88,-28.06"/>
</a>
</g>
<text text-anchor="middle" x="266.5" y="-34" font-family="FreeSans" font-size="10.00" fill="grey"> &lt; Z3, InternalInteger &gt;</text>
</g>
</g>
</svg>
