<?xml version="1.0" encoding="UTF-8" standalone="no"?>
<!DOCTYPE svg PUBLIC "-//W3C//DTD SVG 1.1//EN"
 "http://www.w3.org/Graphics/SVG/1.1/DTD/svg11.dtd">
<!-- Generated by graphviz version 2.43.0 (0)
 -->
<!-- Title: DGtal::CountedPtrOrPtr&lt; T &gt; Pages: 1 -->
<svg width="517pt" height="242pt"
 viewBox="0.00 0.00 517.00 242.00" xmlns="http://www.w3.org/2000/svg" xmlns:xlink="http://www.w3.org/1999/xlink">
<g id="graph0" class="graph" transform="scale(1 1) rotate(0) translate(4 238)">
<title>DGtal::CountedPtrOrPtr&lt; T &gt;</title>
<!-- Node1 -->
<g id="Node000001" class="node">
<title>Node1</title>
<g id="a_Node000001"><a xlink:title="Aim: Smart or simple pointer on T. It can be a smart pointer based on reference counts or a simple po...">
<polygon fill="#999999" stroke="#666666" points="158,-126.5 0,-126.5 0,-107.5 158,-107.5 158,-126.5"/>
<text text-anchor="middle" x="79" y="-114.5" font-family="FreeSans" font-size="10.00">DGtal::CountedPtrOrPtr&lt; T &gt;</text>
</a>
</g>
</g>
<!-- Node2 -->
<g id="Node000002" class="node">
<title>Node2</title>
<g id="a_Node000002"><a xlink:href="classDGtal_1_1CountedPtrOrPtr.html" target="_top" xlink:title=" ">
<polygon fill="white" stroke="#666666" points="491.5,-234 362.5,-234 362.5,-204 491.5,-204 491.5,-234"/>
<text text-anchor="start" x="370.5" y="-222" font-family="FreeSans" font-size="10.00">DGtal::CountedPtrOrPtr</text>
<text text-anchor="middle" x="427" y="-211" font-family="FreeSans" font-size="10.00">&lt; DummyTbl &gt;</text>
</a>
</g>
</g>
<!-- Node1&#45;&gt;Node2 -->
<g id="edge1_Node000001_Node000002" class="edge">
<title>Node1&#45;&gt;Node2</title>
<g id="a_edge1_Node000001_Node000002"><a xlink:title=" ">
<path fill="none" stroke="orange" stroke-dasharray="5,2" d="M99.54,-132.79C118.09,-146.93 147.33,-167.07 176,-178 236.72,-201.15 310.63,-211.24 362.27,-215.63"/>
<polygon fill="orange" stroke="orange" points="101.62,-129.97 91.58,-126.59 97.32,-135.49 101.62,-129.97"/>
</a>
</g>
<text text-anchor="middle" x="251.5" y="-214" font-family="FreeSans" font-size="10.00" fill="grey"> &lt; DummyTbl &gt;</text>
</g>
<!-- Node3 -->
<g id="Node000003" class="node">
<title>Node3</title>
<g id="a_Node000003"><a xlink:href="classDGtal_1_1CountedPtrOrPtr.html" target="_top" xlink:title=" ">
<polygon fill="white" stroke="#666666" points="509,-186 345,-186 345,-156 509,-156 509,-186"/>
<text text-anchor="start" x="353" y="-174" font-family="FreeSans" font-size="10.00">DGtal::CountedPtrOrPtr</text>
<text text-anchor="middle" x="427" y="-163" font-family="FreeSans" font-size="10.00">&lt; boost::dynamic_bitset&lt;&gt; &gt;</text>
</a>
</g>
</g>
<!-- Node1&#45;&gt;Node3 -->
<g id="edge2_Node000001_Node000003" class="edge">
<title>Node1&#45;&gt;Node3</title>
<g id="a_edge2_Node000001_Node000003"><a xlink:title=" ">
<path fill="none" stroke="orange" stroke-dasharray="5,2" d="M120.08,-129.33C137.17,-134.2 157.42,-139.47 176,-143 231.88,-153.63 295.62,-160.69 344.75,-165.07"/>
<polygon fill="orange" stroke="orange" points="121,-125.95 110.42,-126.52 119.05,-132.67 121,-125.95"/>
</a>
</g>
<text text-anchor="middle" x="251.5" y="-166" font-family="FreeSans" font-size="10.00" fill="grey"> &lt; boost::dynamic_bitset&lt;&gt; &gt;</text>
</g>
<!-- Node4 -->
<g id="Node000004" class="node">
<title>Node4</title>
<g id="a_Node000004"><a xlink:href="classDGtal_1_1CountedPtrOrPtr.html" target="_top" xlink:title=" ">
<polygon fill="white" stroke="#666666" points="494,-137.5 360,-137.5 360,-96.5 494,-96.5 494,-137.5"/>
<text text-anchor="start" x="368" y="-125.5" font-family="FreeSans" font-size="10.00">DGtal::CountedPtrOrPtr</text>
<text text-anchor="start" x="368" y="-114.5" font-family="FreeSans" font-size="10.00">&lt; std::unordered_map&lt;</text>
<text text-anchor="middle" x="427" y="-103.5" font-family="FreeSans" font-size="10.00"> Point, unsigned int &gt; &gt;</text>
</a>
</g>
</g>
<!-- Node1&#45;&gt;Node4 -->
<g id="edge3_Node000001_Node000004" class="edge">
<title>Node1&#45;&gt;Node4</title>
<g id="a_edge3_Node000001_Node000004"><a xlink:title=" ">
<path fill="none" stroke="orange" stroke-dasharray="5,2" d="M168.25,-117C227.92,-117 305.46,-117 359.84,-117"/>
<polygon fill="orange" stroke="orange" points="168.08,-113.5 158.08,-117 168.08,-120.5 168.08,-113.5"/>
</a>
</g>
<text text-anchor="start" x="189" y="-131" font-family="FreeSans" font-size="10.00" fill="grey"> &lt; std::unordered_map</text>
<text text-anchor="middle" x="251.5" y="-120" font-family="FreeSans" font-size="10.00" fill="grey">&lt; Point, unsigned int &gt; &gt;</text>
</g>
<!-- Node5 -->
<g id="Node000005" class="node">
<title>Node5</title>
<g id="a_Node000005"><a xlink:href="classDGtal_1_1CountedPtrOrPtr.html" target="_top" xlink:title=" ">
<polygon fill="white" stroke="#666666" points="491.5,-78 362.5,-78 362.5,-48 491.5,-48 491.5,-78"/>
<text text-anchor="start" x="370.5" y="-66" font-family="FreeSans" font-size="10.00">DGtal::CountedPtrOrPtr</text>
<text text-anchor="middle" x="427" y="-55" font-family="FreeSans" font-size="10.00">&lt; ConfigMap &gt;</text>
</a>
</g>
</g>
<!-- Node1&#45;&gt;Node5 -->
<g id="edge4_Node000001_Node000005" class="edge">
<title>Node1&#45;&gt;Node5</title>
<g id="a_edge4_Node000001_Node000005"><a xlink:title=" ">
<path fill="none" stroke="orange" stroke-dasharray="5,2" d="M150.84,-105.93C159.32,-104.6 167.85,-103.27 176,-102 239.37,-92.11 311.77,-80.81 362.29,-72.93"/>
<polygon fill="orange" stroke="orange" points="150.28,-102.47 140.94,-107.48 151.36,-109.39 150.28,-102.47"/>
</a>
</g>
<text text-anchor="middle" x="251.5" y="-105" font-family="FreeSans" font-size="10.00" fill="grey"> &lt; ConfigMap &gt;</text>
</g>
<!-- Node6 -->
<g id="Node000006" class="node">
<title>Node6</title>
<g id="a_Node000006"><a xlink:href="classDGtal_1_1CountedPtrOrPtr.html" target="_top" xlink:title=" ">
<polygon fill="white" stroke="#666666" points="491.5,-30 362.5,-30 362.5,0 491.5,0 491.5,-30"/>
<text text-anchor="start" x="370.5" y="-18" font-family="FreeSans" font-size="10.00">DGtal::CountedPtrOrPtr</text>
<text text-anchor="middle" x="427" y="-7" font-family="FreeSans" font-size="10.00">&lt; PointToMaskMap &gt;</text>
</a>
</g>
</g>
<!-- Node1&#45;&gt;Node6 -->
<g id="edge5_Node000001_Node000006" class="edge">
<title>Node1&#45;&gt;Node6</title>
<g id="a_edge5_Node000001_Node000006"><a xlink:title=" ">
<path fill="none" stroke="orange" stroke-dasharray="5,2" d="M102.07,-101.85C120.91,-89.6 149.15,-72.83 176,-63 237.21,-40.58 310.88,-28.06 362.33,-21.48"/>
<polygon fill="orange" stroke="orange" points="100.02,-99.01 93.62,-107.45 103.89,-104.84 100.02,-99.01"/>
</a>
</g>
<text text-anchor="middle" x="251.5" y="-66" font-family="FreeSans" font-size="10.00" fill="grey"> &lt; PointToMaskMap &gt;</text>
</g>
</g>
</svg>
