<?xml version="1.0" encoding="UTF-8" standalone="no"?>
<!DOCTYPE svg PUBLIC "-//W3C//DTD SVG 1.1//EN"
 "http://www.w3.org/Graphics/SVG/1.1/DTD/svg11.dtd">
<!-- Generated by graphviz version 2.43.0 (0)
 -->
<!-- Title: DGtal::CountedPtr&lt; T &gt; Pages: 1 -->
<!--zoomable 1446 -->

<svg id="main" version="1.1" xmlns="http://www.w3.org/2000/svg" xmlns:xlink="http://www.w3.org/1999/xlink" xml:space="preserve" onload="init(evt)">
<style type="text/css"><![CDATA[
.node, .edge {opacity: 0.7;}
.node.selected, .edge.selected {opacity: 1;}
.edge:hover path { stroke: red; }
.edge:hover polygon { stroke: red; fill: red; }
]]></style>

<defs>
  <circle id="rim" cx="0" cy="0" r="7"/>
  <circle id="rim2" cx="0" cy="0" r="3.5"/>
  <g id="zoomPlus">
    <use xlink:href="#rim" fill="#404040"><set attributeName="fill" to="#808080" begin="zoomplus.mouseover" end="zoomplus.mouseout"/></use>
    <path d="M-4,0h8M0,-4v8" fill="none" stroke="white" stroke-width="1.5" pointer-events="none"/>
  </g>
  <g id="zoomMin">
    <use xlink:href="#rim" fill="#404040"><set attributeName="fill" to="#808080" begin="zoomminus.mouseover" end="zoomminus.mouseout"/></use>
    <path d="M-4,0h8" fill="none" stroke="white" stroke-width="1.5" pointer-events="none"/>
  </g>
  <g id="arrowUp" transform="translate(30 24)">
    <use xlink:href="#rim"/>
    <path pointer-events="none" fill="none" stroke="white" stroke-width="1.5" d="M0,-3.0v7 M-2.5,-0.5L0,-3.0L2.5,-0.5"/>
  </g>
  <g id="arrowRight" transform="rotate(90) translate(36 -43)">
    <use xlink:href="#rim"/>
    <path pointer-events="none" fill="none" stroke="white" stroke-width="1.5" d="M0,-3.0v7 M-2.5,-0.5L0,-3.0L2.5,-0.5"/>
  </g>
  <g id="arrowDown" transform="rotate(180) translate(-30 -48)">
    <use xlink:href="#rim"/>
    <path pointer-events="none" fill="none" stroke="white" stroke-width="1.5" d="M0,-3.0v7 M-2.5,-0.5L0,-3.0L2.5,-0.5"/>
  </g>
  <g id="arrowLeft" transform="rotate(270) translate(-36 17)">
    <use xlink:href="#rim"/>
    <path pointer-events="none" fill="none" stroke="white" stroke-width="1.5" d="M0,-3.0v7 M-2.5,-0.5L0,-3.0L2.5,-0.5"/>
  </g>
  <g id="resetDef">
    <use xlink:href="#rim2" fill="#404040"><set attributeName="fill" to="#808080" begin="reset.mouseover" end="reset.mouseout"/></use>
  </g>
</defs>
<script type="application/ecmascript">
var viewWidth = 538;
var viewHeight = 1446;
var sectionId = 'dynsection-0';
</script>
<script type="application/ecmascript" xlink:href="svg.min.js"/>
<svg id="graph" class="graph">
<g id="viewport">
<title>DGtal::CountedPtr&lt; T &gt;</title>
<!-- Node1 -->
<g id="Node000001" class="node">
<title>Node1</title>
<g id="a_Node000001"><a xlink:title="Aim: Smart pointer based on reference counts.">
<polygon fill="#999999" stroke="#666666" points="133,-735.39 0,-735.39 0,-716.39 133,-716.39 133,-735.39"/>
<text text-anchor="middle" x="66.5" y="-723.39" font-family="FreeSans" font-size="10.00">DGtal::CountedPtr&lt; T &gt;</text>
</a>
</g>
</g>
<!-- Node2 -->
<g id="Node000002" class="node">
<title>Node2</title>
<g id="a_Node000002"><a xlink:href="classDGtal_1_1CountedPtr.html" target="_top" xlink:title=" ">
<polygon fill="white" stroke="#666666" points="495,-1422.89 382,-1422.89 382,-1392.89 495,-1392.89 495,-1422.89"/>
<text text-anchor="start" x="390" y="-1410.89" font-family="FreeSans" font-size="10.00">DGtal::CountedPtr&lt;</text>
<text text-anchor="middle" x="438.5" y="-1399.89" font-family="FreeSans" font-size="10.00"> OutputImage &gt;</text>
</a>
</g>
</g>
<!-- Node1&#45;&gt;Node2 -->
<g id="edge1_Node000001_Node000002" class="edge">
<title>Node1&#45;&gt;Node2</title>
<g id="a_edge1_Node000001_Node000002"><a xlink:title=" ">
<path fill="none" stroke="orange" stroke-dasharray="5,2" d="M68.61,-746.05C74.57,-851.17 104.34,-1333.44 151,-1378.89 211.61,-1437.93 317.31,-1431.58 381.98,-1420.49"/>
<polygon fill="orange" stroke="orange" points="72.09,-745.65 68.04,-735.86 65.1,-746.04 72.09,-745.65"/>
</a>
</g>
<text text-anchor="middle" x="240" y="-1429.89" font-family="FreeSans" font-size="10.00" fill="grey"> &lt; OutputImage &gt;</text>
</g>
<!-- Node3 -->
<g id="Node000003" class="node">
<title>Node3</title>
<g id="a_Node000003"><a xlink:href="classDGtal_1_1CountedPtr.html" target="_top" xlink:title=" ">
<polygon fill="white" stroke="#666666" points="495,-1374.89 382,-1374.89 382,-1344.89 495,-1344.89 495,-1374.89"/>
<text text-anchor="start" x="390" y="-1362.89" font-family="FreeSans" font-size="10.00">DGtal::CountedPtr&lt;</text>
<text text-anchor="middle" x="438.5" y="-1351.89" font-family="FreeSans" font-size="10.00"> DummyTbl &gt;</text>
</a>
</g>
</g>
<!-- Node1&#45;&gt;Node3 -->
<g id="edge2_Node000001_Node000003" class="edge">
<title>Node1&#45;&gt;Node3</title>
<g id="a_edge2_Node000001_Node000003"><a xlink:title=" ">
<path fill="none" stroke="orange" stroke-dasharray="5,2" d="M67.05,-745.9C65.32,-841.87 63.17,-1253.82 151,-1336.89 183.13,-1367.28 308.11,-1366.61 381.97,-1363.32"/>
<polygon fill="orange" stroke="orange" points="70.55,-745.87 67.25,-735.8 63.55,-745.73 70.55,-745.87"/>
</a>
</g>
<text text-anchor="middle" x="240" y="-1366.89" font-family="FreeSans" font-size="10.00" fill="grey"> &lt; DummyTbl &gt;</text>
</g>
<!-- Node4 -->
<g id="Node000004" class="node">
<title>Node4</title>
<g id="a_Node000004"><a xlink:href="classDGtal_1_1CountedPtr.html" target="_top" xlink:title=" ">
<polygon fill="white" stroke="#666666" points="496,-1326.39 381,-1326.39 381,-1285.39 496,-1285.39 496,-1326.39"/>
<text text-anchor="start" x="389" y="-1314.39" font-family="FreeSans" font-size="10.00">DGtal::CountedPtr&lt;</text>
<text text-anchor="start" x="389" y="-1303.39" font-family="FreeSans" font-size="10.00"> DGtal::SignalData&lt;</text>
<text text-anchor="middle" x="438.5" y="-1292.39" font-family="FreeSans" font-size="10.00"> Value &gt; &gt;</text>
</a>
</g>
</g>
<!-- Node1&#45;&gt;Node4 -->
<g id="edge3_Node000001_Node000004" class="edge">
<title>Node1&#45;&gt;Node4</title>
<g id="a_edge3_Node000001_Node000004"><a xlink:title=" ">
<path fill="none" stroke="orange" stroke-dasharray="5,2" d="M67.33,-745.87C66.98,-836.65 70.54,-1209.02 151,-1283.89 183.18,-1313.84 306.85,-1312.98 380.78,-1309.53"/>
<polygon fill="orange" stroke="orange" points="70.83,-745.83 67.39,-735.81 63.83,-745.79 70.83,-745.83"/>
</a>
</g>
<text text-anchor="start" x="189" y="-1324.89" font-family="FreeSans" font-size="10.00" fill="grey"> &lt; DGtal::SignalData</text>
<text text-anchor="middle" x="240" y="-1313.89" font-family="FreeSans" font-size="10.00" fill="grey">&lt; Value &gt; &gt;</text>
</g>
<!-- Node5 -->
<g id="Node000005" class="node">
<title>Node5</title>
<g id="a_Node000005"><a xlink:href="classDGtal_1_1CountedPtr.html" target="_top" xlink:title=" ">
<polygon fill="white" stroke="#666666" points="509.5,-1266.89 367.5,-1266.89 367.5,-1236.89 509.5,-1236.89 509.5,-1266.89"/>
<text text-anchor="start" x="375.5" y="-1254.89" font-family="FreeSans" font-size="10.00">DGtal::CountedPtr&lt;</text>
<text text-anchor="middle" x="438.5" y="-1243.89" font-family="FreeSans" font-size="10.00"> DrawableWithBoard2D &gt;</text>
</a>
</g>
</g>
<!-- Node1&#45;&gt;Node5 -->
<g id="edge4_Node000001_Node000005" class="edge">
<title>Node1&#45;&gt;Node5</title>
<g id="a_edge4_Node000001_Node000005"><a xlink:title=" ">
<path fill="none" stroke="orange" stroke-dasharray="5,2" d="M67.79,-745.65C69.45,-829.46 80.43,-1154.38 151,-1220.89 208.07,-1274.67 302.67,-1274.21 367.44,-1265.77"/>
<polygon fill="orange" stroke="orange" points="71.29,-745.41 67.61,-735.47 64.29,-745.53 71.29,-745.41"/>
</a>
</g>
<text text-anchor="middle" x="240" y="-1272.89" font-family="FreeSans" font-size="10.00" fill="grey"> &lt; DrawableWithBoard2D &gt;</text>
</g>
<!-- Node6 -->
<g id="Node000006" class="node">
<title>Node6</title>
<g id="a_Node000006"><a xlink:href="classDGtal_1_1CountedPtr.html" target="_top" xlink:title=" ">
<polygon fill="white" stroke="#666666" points="526.5,-1218.89 350.5,-1218.89 350.5,-1188.89 526.5,-1188.89 526.5,-1218.89"/>
<text text-anchor="start" x="358.5" y="-1206.89" font-family="FreeSans" font-size="10.00">DGtal::CountedPtr&lt;</text>
<text text-anchor="middle" x="438.5" y="-1195.89" font-family="FreeSans" font-size="10.00"> DGtal::DrawableWithBoard2D &gt;</text>
</a>
</g>
</g>
<!-- Node1&#45;&gt;Node6 -->
<g id="edge5_Node000001_Node000006" class="edge">
<title>Node1&#45;&gt;Node6</title>
<g id="a_edge5_Node000001_Node000006"><a xlink:title=" ">
<path fill="none" stroke="orange" stroke-dasharray="5,2" d="M68.15,-745.82C71.19,-824.97 86.63,-1115.65 151,-1174.89 179.28,-1200.91 276.93,-1206.14 350.43,-1206.16"/>
<polygon fill="orange" stroke="orange" points="71.65,-745.6 67.79,-735.73 64.65,-745.85 71.65,-745.6"/>
</a>
</g>
<text text-anchor="middle" x="240" y="-1208.89" font-family="FreeSans" font-size="10.00" fill="grey"> &lt; DGtal::DrawableWithBoard2D &gt;</text>
</g>
<!-- Node7 -->
<g id="Node000007" class="node">
<title>Node7</title>
<g id="a_Node000007"><a xlink:href="classDGtal_1_1CountedPtr.html" target="_top" xlink:title=" ">
<polygon fill="white" stroke="#666666" points="495,-1170.89 382,-1170.89 382,-1140.89 495,-1140.89 495,-1170.89"/>
<text text-anchor="start" x="390" y="-1158.89" font-family="FreeSans" font-size="10.00">DGtal::CountedPtr&lt;</text>
<text text-anchor="middle" x="438.5" y="-1147.89" font-family="FreeSans" font-size="10.00"> Domain &gt;</text>
</a>
</g>
</g>
<!-- Node1&#45;&gt;Node7 -->
<g id="edge6_Node000001_Node000007" class="edge">
<title>Node1&#45;&gt;Node7</title>
<g id="a_edge6_Node000001_Node000007"><a xlink:title=" ">
<path fill="none" stroke="orange" stroke-dasharray="5,2" d="M68.53,-745.87C72.83,-820.39 91.9,-1080.6 151,-1132.89 184.08,-1162.15 308.37,-1161.94 381.94,-1159.03"/>
<polygon fill="orange" stroke="orange" points="72.01,-745.35 67.97,-735.56 65.02,-745.74 72.01,-745.35"/>
</a>
</g>
<text text-anchor="middle" x="240" y="-1162.89" font-family="FreeSans" font-size="10.00" fill="grey"> &lt; Domain &gt;</text>
</g>
<!-- Node8 -->
<g id="Node000008" class="node">
<title>Node8</title>
<g id="a_Node000008"><a xlink:href="classDGtal_1_1CountedPtr.html" target="_top" xlink:title=" ">
<polygon fill="white" stroke="#666666" points="524.5,-1122.89 352.5,-1122.89 352.5,-1092.89 524.5,-1092.89 524.5,-1122.89"/>
<text text-anchor="start" x="360.5" y="-1110.89" font-family="FreeSans" font-size="10.00">DGtal::CountedPtr&lt;</text>
<text text-anchor="middle" x="438.5" y="-1099.89" font-family="FreeSans" font-size="10.00"> HyperRectDomain&lt; Space &gt; &gt;</text>
</a>
</g>
</g>
<!-- Node1&#45;&gt;Node8 -->
<g id="edge7_Node000001_Node000008" class="edge">
<title>Node1&#45;&gt;Node8</title>
<g id="a_edge7_Node000001_Node000008"><a xlink:title=" ">
<path fill="none" stroke="orange" stroke-dasharray="5,2" d="M69.31,-745.45C75.88,-812.2 100.85,-1029.3 151,-1073.89 180.01,-1099.68 278.92,-1106.7 352.45,-1108.23"/>
<polygon fill="orange" stroke="orange" points="72.78,-745.06 68.35,-735.44 65.82,-745.73 72.78,-745.06"/>
</a>
</g>
<text text-anchor="start" x="184" y="-1120.89" font-family="FreeSans" font-size="10.00" fill="grey"> &lt; HyperRectDomain&lt;</text>
<text text-anchor="middle" x="240" y="-1109.89" font-family="FreeSans" font-size="10.00" fill="grey"> Space &gt; &gt;</text>
</g>
<!-- Node9 -->
<g id="Node000009" class="node">
<title>Node9</title>
<g id="a_Node000009"><a xlink:href="classDGtal_1_1CountedPtr.html" target="_top" xlink:title=" ">
<polygon fill="white" stroke="#666666" points="512,-1074.89 365,-1074.89 365,-1044.89 512,-1044.89 512,-1074.89"/>
<text text-anchor="start" x="373" y="-1062.89" font-family="FreeSans" font-size="10.00">DGtal::CountedPtr&lt;</text>
<text text-anchor="middle" x="438.5" y="-1051.89" font-family="FreeSans" font-size="10.00"> DigitalSurfaceContainer &gt;</text>
</a>
</g>
</g>
<!-- Node1&#45;&gt;Node9 -->
<g id="edge8_Node000001_Node000009" class="edge">
<title>Node1&#45;&gt;Node9</title>
<g id="a_edge8_Node000001_Node000009"><a xlink:title=" ">
<path fill="none" stroke="orange" stroke-dasharray="5,2" d="M70.14,-745.92C78.63,-807.08 107.24,-989.47 151,-1026.89 182.16,-1053.53 290.68,-1059.59 364.84,-1060.5"/>
<polygon fill="orange" stroke="orange" points="73.57,-745.12 68.75,-735.68 66.63,-746.06 73.57,-745.12"/>
</a>
</g>
<text text-anchor="middle" x="240" y="-1061.89" font-family="FreeSans" font-size="10.00" fill="grey"> &lt; DigitalSurfaceContainer &gt;</text>
</g>
<!-- Node10 -->
<g id="Node000010" class="node">
<title>Node10</title>
<g id="a_Node000010"><a xlink:href="classDGtal_1_1CountedPtr.html" target="_top" xlink:title=" ">
<polygon fill="white" stroke="#666666" points="495,-1026.89 382,-1026.89 382,-996.89 495,-996.89 495,-1026.89"/>
<text text-anchor="start" x="390" y="-1014.89" font-family="FreeSans" font-size="10.00">DGtal::CountedPtr&lt;</text>
<text text-anchor="middle" x="438.5" y="-1003.89" font-family="FreeSans" font-size="10.00"> DigSurface &gt;</text>
</a>
</g>
</g>
<!-- Node1&#45;&gt;Node10 -->
<g id="edge9_Node000001_Node000010" class="edge">
<title>Node1&#45;&gt;Node10</title>
<g id="a_edge9_Node000001_Node000010"><a xlink:title=" ">
<path fill="none" stroke="orange" stroke-dasharray="5,2" d="M67.26,-745.77C67.84,-794.8 76.79,-921.89 151,-981.89 185.32,-1009.64 308.5,-1013.38 381.7,-1013.03"/>
<polygon fill="orange" stroke="orange" points="70.76,-745.55 67.25,-735.55 63.76,-745.56 70.76,-745.55"/>
</a>
</g>
<text text-anchor="middle" x="240" y="-1014.89" font-family="FreeSans" font-size="10.00" fill="grey"> &lt; DigSurface &gt;</text>
</g>
<!-- Node11 -->
<g id="Node000011" class="node">
<title>Node11</title>
<g id="a_Node000011"><a xlink:href="classDGtal_1_1CountedPtr.html" target="_top" xlink:title=" ">
<polygon fill="white" stroke="#666666" points="495,-978.89 382,-978.89 382,-948.89 495,-948.89 495,-978.89"/>
<text text-anchor="start" x="390" y="-966.89" font-family="FreeSans" font-size="10.00">DGtal::CountedPtr&lt;</text>
<text text-anchor="middle" x="438.5" y="-955.89" font-family="FreeSans" font-size="10.00"> GraphVisitor &gt;</text>
</a>
</g>
</g>
<!-- Node1&#45;&gt;Node11 -->
<g id="edge10_Node000001_Node000011" class="edge">
<title>Node1&#45;&gt;Node11</title>
<g id="a_edge10_Node000001_Node000011"><a xlink:title=" ">
<path fill="none" stroke="orange" stroke-dasharray="5,2" d="M68.52,-746.01C71.92,-789.9 86.73,-894.11 151,-941.89 186.33,-968.15 309.13,-968.66 381.99,-966.44"/>
<polygon fill="orange" stroke="orange" points="71.99,-745.53 67.85,-735.78 65.01,-745.98 71.99,-745.53"/>
</a>
</g>
<text text-anchor="middle" x="240" y="-969.89" font-family="FreeSans" font-size="10.00" fill="grey"> &lt; GraphVisitor &gt;</text>
</g>
<!-- Node12 -->
<g id="Node000012" class="node">
<title>Node12</title>
<g id="a_Node000012"><a xlink:href="classDGtal_1_1CountedPtr.html" target="_top" xlink:title=" ">
<polygon fill="white" stroke="#666666" points="496,-930.89 381,-930.89 381,-900.89 496,-900.89 496,-930.89"/>
<text text-anchor="start" x="389" y="-918.89" font-family="FreeSans" font-size="10.00">DGtal::CountedPtr&lt;</text>
<text text-anchor="middle" x="438.5" y="-907.89" font-family="FreeSans" font-size="10.00"> TImageContainer &gt;</text>
</a>
</g>
</g>
<!-- Node1&#45;&gt;Node12 -->
<g id="edge11_Node000001_Node000012" class="edge">
<title>Node1&#45;&gt;Node12</title>
<g id="a_edge11_Node000001_Node000012"><a xlink:title=" ">
<path fill="none" stroke="orange" stroke-dasharray="5,2" d="M71.47,-745.28C79.66,-779.82 101.92,-851.49 151,-884.89 219.35,-931.4 318.84,-930.78 380.78,-924.5"/>
<polygon fill="orange" stroke="orange" points="74.88,-744.47 69.29,-735.47 68.04,-745.99 74.88,-744.47"/>
</a>
</g>
<text text-anchor="middle" x="240" y="-929.89" font-family="FreeSans" font-size="10.00" fill="grey"> &lt; TImageContainer &gt;</text>
</g>
<!-- Node13 -->
<g id="Node000013" class="node">
<title>Node13</title>
<g id="a_Node000013"><a xlink:href="classDGtal_1_1CountedPtr.html" target="_top" xlink:title=" ">
<polygon fill="white" stroke="#666666" points="495,-882.89 382,-882.89 382,-852.89 495,-852.89 495,-882.89"/>
<text text-anchor="start" x="390" y="-870.89" font-family="FreeSans" font-size="10.00">DGtal::CountedPtr&lt;</text>
<text text-anchor="middle" x="438.5" y="-859.89" font-family="FreeSans" font-size="10.00"> const Domain &gt;</text>
</a>
</g>
</g>
<!-- Node1&#45;&gt;Node13 -->
<g id="edge12_Node000001_Node000013" class="edge">
<title>Node1&#45;&gt;Node13</title>
<g id="a_edge12_Node000001_Node000013"><a xlink:title=" ">
<path fill="none" stroke="orange" stroke-dasharray="5,2" d="M77.26,-744.68C90.53,-768.17 116.62,-807.61 151,-826.89 223.2,-867.38 321.13,-872.73 381.77,-871.41"/>
<polygon fill="orange" stroke="orange" points="80.22,-742.81 72.37,-735.7 74.07,-746.16 80.22,-742.81"/>
</a>
</g>
<text text-anchor="middle" x="240" y="-872.89" font-family="FreeSans" font-size="10.00" fill="grey"> &lt; const Domain &gt;</text>
</g>
<!-- Node14 -->
<g id="Node000014" class="node">
<title>Node14</title>
<g id="a_Node000014"><a xlink:href="classDGtal_1_1CountedPtr.html" target="_top" xlink:title=" ">
<polygon fill="white" stroke="#666666" points="495,-834.89 382,-834.89 382,-804.89 495,-804.89 495,-834.89"/>
<text text-anchor="start" x="390" y="-822.89" font-family="FreeSans" font-size="10.00">DGtal::CountedPtr&lt;</text>
<text text-anchor="middle" x="438.5" y="-811.89" font-family="FreeSans" font-size="10.00"> Sequence &gt;</text>
</a>
</g>
</g>
<!-- Node1&#45;&gt;Node14 -->
<g id="edge13_Node000001_Node000014" class="edge">
<title>Node1&#45;&gt;Node14</title>
<g id="a_edge13_Node000001_Node000014"><a xlink:title=" ">
<path fill="none" stroke="orange" stroke-dasharray="5,2" d="M88.22,-741.42C104.46,-752.79 128.07,-767.62 151,-775.89 228.05,-803.66 322.92,-813.9 381.82,-817.68"/>
<polygon fill="orange" stroke="orange" points="90.18,-738.51 80.01,-735.52 86.09,-744.2 90.18,-738.51"/>
</a>
</g>
<text text-anchor="middle" x="240" y="-814.89" font-family="FreeSans" font-size="10.00" fill="grey"> &lt; Sequence &gt;</text>
</g>
<!-- Node15 -->
<g id="Node000015" class="node">
<title>Node15</title>
<g id="a_Node000015"><a xlink:href="classDGtal_1_1CountedPtr.html" target="_top" xlink:title=" ">
<polygon fill="white" stroke="#666666" points="498.5,-786.89 378.5,-786.89 378.5,-756.89 498.5,-756.89 498.5,-786.89"/>
<text text-anchor="start" x="386.5" y="-774.89" font-family="FreeSans" font-size="10.00">DGtal::CountedPtr&lt;</text>
<text text-anchor="middle" x="438.5" y="-763.89" font-family="FreeSans" font-size="10.00"> DGtal::ImplicitBall &gt;</text>
</a>
</g>
</g>
<!-- Node1&#45;&gt;Node15 -->
<g id="edge14_Node000001_Node000015" class="edge">
<title>Node1&#45;&gt;Node15</title>
<g id="a_edge14_Node000001_Node000015"><a xlink:title=" ">
<path fill="none" stroke="orange" stroke-dasharray="5,2" d="M131.88,-737.05C138.33,-738.05 144.79,-739.02 151,-739.89 229.44,-750.84 320.38,-760.48 378.4,-766.24"/>
<polygon fill="orange" stroke="orange" points="132.21,-733.55 121.78,-735.43 131.11,-740.47 132.21,-733.55"/>
</a>
</g>
<text text-anchor="middle" x="240" y="-763.89" font-family="FreeSans" font-size="10.00" fill="grey"> &lt; DGtal::ImplicitBall &gt;</text>
</g>
<!-- Node16 -->
<g id="Node000016" class="node">
<title>Node16</title>
<g id="a_Node000016"><a xlink:href="classDGtal_1_1CountedPtr.html" target="_top" xlink:title=" ">
<polygon fill="white" stroke="#666666" points="506.5,-738.89 370.5,-738.89 370.5,-708.89 506.5,-708.89 506.5,-738.89"/>
<text text-anchor="start" x="378.5" y="-726.89" font-family="FreeSans" font-size="10.00">DGtal::CountedPtr&lt;</text>
<text text-anchor="middle" x="438.5" y="-715.89" font-family="FreeSans" font-size="10.00"> DGtal::GaussDigitizer &gt;</text>
</a>
</g>
</g>
<!-- Node1&#45;&gt;Node16 -->
<g id="edge15_Node000001_Node000016" class="edge">
<title>Node1&#45;&gt;Node16</title>
<g id="a_edge15_Node000001_Node000016"><a xlink:title=" ">
<path fill="none" stroke="orange" stroke-dasharray="5,2" d="M143.25,-725.48C209.95,-725.12 306.17,-724.6 370.2,-724.25"/>
<polygon fill="orange" stroke="orange" points="143.2,-721.98 133.22,-725.53 143.24,-728.98 143.2,-721.98"/>
</a>
</g>
<text text-anchor="middle" x="240" y="-727.89" font-family="FreeSans" font-size="10.00" fill="grey"> &lt; DGtal::GaussDigitizer &gt;</text>
</g>
<!-- Node17 -->
<g id="Node000017" class="node">
<title>Node17</title>
<g id="a_Node000017"><a xlink:href="classDGtal_1_1CountedPtr.html" target="_top" xlink:title=" ">
<polygon fill="white" stroke="#666666" points="528.5,-690.39 348.5,-690.39 348.5,-649.39 528.5,-649.39 528.5,-690.39"/>
<text text-anchor="start" x="356.5" y="-678.39" font-family="FreeSans" font-size="10.00">DGtal::CountedPtr&lt;</text>
<text text-anchor="start" x="356.5" y="-667.39" font-family="FreeSans" font-size="10.00"> DGtal::functors::PointFunctor</text>
<text text-anchor="middle" x="438.5" y="-656.39" font-family="FreeSans" font-size="10.00">FromPointPredicateAndDomain &gt;</text>
</a>
</g>
</g>
<!-- Node1&#45;&gt;Node17 -->
<g id="edge16_Node000001_Node000017" class="edge">
<title>Node1&#45;&gt;Node17</title>
<g id="a_edge16_Node000001_Node000017"><a xlink:title=" ">
<path fill="none" stroke="orange" stroke-dasharray="5,2" d="M91.94,-711.46C108.12,-702.68 130.13,-692.18 151,-686.89 215.72,-670.49 291.19,-666.6 348.41,-666.62"/>
<polygon fill="orange" stroke="orange" points="90.17,-708.44 83.15,-716.38 93.58,-714.55 90.17,-708.44"/>
</a>
</g>
<text text-anchor="start" x="161.5" y="-711.89" font-family="FreeSans" font-size="10.00" fill="grey"> &lt; DGtal::functors::</text>
<text text-anchor="start" x="161.5" y="-700.89" font-family="FreeSans" font-size="10.00" fill="grey">PointFunctorFromPointPredicate</text>
<text text-anchor="middle" x="240" y="-689.89" font-family="FreeSans" font-size="10.00" fill="grey">AndDomain &gt;</text>
</g>
<!-- Node18 -->
<g id="Node000018" class="node">
<title>Node18</title>
<g id="a_Node000018"><a xlink:href="classDGtal_1_1CountedPtr.html" target="_top" xlink:title=" ">
<polygon fill="white" stroke="#666666" points="507.5,-630.89 369.5,-630.89 369.5,-600.89 507.5,-600.89 507.5,-630.89"/>
<text text-anchor="start" x="377.5" y="-618.89" font-family="FreeSans" font-size="10.00">DGtal::CountedPtr&lt;</text>
<text text-anchor="middle" x="438.5" y="-607.89" font-family="FreeSans" font-size="10.00"> DGtal::FunctorOnCells &gt;</text>
</a>
</g>
</g>
<!-- Node1&#45;&gt;Node18 -->
<g id="edge17_Node000001_Node000018" class="edge">
<title>Node1&#45;&gt;Node18</title>
<g id="a_edge17_Node000001_Node000018"><a xlink:title=" ">
<path fill="none" stroke="orange" stroke-dasharray="5,2" d="M81.27,-708.4C96.32,-690.65 122.19,-663.99 151,-650.89 220.68,-619.21 309.21,-612.87 369.28,-612.92"/>
<polygon fill="orange" stroke="orange" points="78.42,-706.35 74.78,-716.3 83.83,-710.79 78.42,-706.35"/>
</a>
</g>
<text text-anchor="middle" x="240" y="-653.89" font-family="FreeSans" font-size="10.00" fill="grey"> &lt; DGtal::FunctorOnCells &gt;</text>
</g>
<!-- Node19 -->
<g id="Node000019" class="node">
<title>Node19</title>
<g id="a_Node000019"><a xlink:href="classDGtal_1_1CountedPtr.html" target="_top" xlink:title=" ">
<polygon fill="white" stroke="#666666" points="530,-582.89 347,-582.89 347,-552.89 530,-552.89 530,-582.89"/>
<text text-anchor="start" x="355" y="-570.89" font-family="FreeSans" font-size="10.00">DGtal::CountedPtr&lt;</text>
<text text-anchor="middle" x="438.5" y="-559.89" font-family="FreeSans" font-size="10.00"> DGtal::DigitalSurfaceConvolver &gt;</text>
</a>
</g>
</g>
<!-- Node1&#45;&gt;Node19 -->
<g id="edge18_Node000001_Node000019" class="edge">
<title>Node1&#45;&gt;Node19</title>
<g id="a_edge18_Node000001_Node000019"><a xlink:title=" ">
<path fill="none" stroke="orange" stroke-dasharray="5,2" d="M74.17,-706.36C85.17,-677.42 110.07,-623.9 151,-598.89 209.38,-563.22 287.14,-556.81 346.92,-558.58"/>
<polygon fill="orange" stroke="orange" points="70.74,-705.54 70.63,-716.13 77.32,-707.92 70.74,-705.54"/>
</a>
</g>
<text text-anchor="middle" x="240" y="-601.89" font-family="FreeSans" font-size="10.00" fill="grey"> &lt; DGtal::DigitalSurfaceConvolver &gt;</text>
</g>
<!-- Node20 -->
<g id="Node000020" class="node">
<title>Node20</title>
<g id="a_Node000020"><a xlink:href="classDGtal_1_1CountedPtr.html" target="_top" xlink:title=" ">
<polygon fill="white" stroke="#666666" points="495,-534.89 382,-534.89 382,-504.89 495,-504.89 495,-534.89"/>
<text text-anchor="start" x="390" y="-522.89" font-family="FreeSans" font-size="10.00">DGtal::CountedPtr&lt;</text>
<text text-anchor="middle" x="438.5" y="-511.89" font-family="FreeSans" font-size="10.00"> DigitalTopology &gt;</text>
</a>
</g>
</g>
<!-- Node1&#45;&gt;Node20 -->
<g id="edge19_Node000001_Node000020" class="edge">
<title>Node1&#45;&gt;Node20</title>
<g id="a_edge19_Node000001_Node000020"><a xlink:title=" ">
<path fill="none" stroke="orange" stroke-dasharray="5,2" d="M69.99,-706.19C76.02,-667.5 95.3,-581.93 151,-542.89 219.03,-495.2 319.76,-499.81 381.88,-508.87"/>
<polygon fill="orange" stroke="orange" points="66.51,-705.8 68.56,-716.19 73.44,-706.78 66.51,-705.8"/>
</a>
</g>
<text text-anchor="middle" x="240" y="-545.89" font-family="FreeSans" font-size="10.00" fill="grey"> &lt; DigitalTopology &gt;</text>
</g>
<!-- Node21 -->
<g id="Node000021" class="node">
<title>Node21</title>
<g id="a_Node000021"><a xlink:href="classDGtal_1_1CountedPtr.html" target="_top" xlink:title=" ">
<polygon fill="white" stroke="#666666" points="495,-486.89 382,-486.89 382,-456.89 495,-456.89 495,-486.89"/>
<text text-anchor="start" x="390" y="-474.89" font-family="FreeSans" font-size="10.00">DGtal::CountedPtr&lt;</text>
<text text-anchor="middle" x="438.5" y="-463.89" font-family="FreeSans" font-size="10.00"> DigitalSet &gt;</text>
</a>
</g>
</g>
<!-- Node1&#45;&gt;Node21 -->
<g id="edge20_Node000001_Node000021" class="edge">
<title>Node1&#45;&gt;Node21</title>
<g id="a_edge20_Node000001_Node000021"><a xlink:title=" ">
<path fill="none" stroke="orange" stroke-dasharray="5,2" d="M67.62,-706.22C69.1,-659.4 80.02,-541.24 151,-487.89 217.5,-437.9 319.16,-446.32 381.81,-458.22"/>
<polygon fill="orange" stroke="orange" points="64.12,-706.21 67.42,-716.28 71.12,-706.35 64.12,-706.21"/>
</a>
</g>
<text text-anchor="middle" x="240" y="-490.89" font-family="FreeSans" font-size="10.00" fill="grey"> &lt; DigitalSet &gt;</text>
</g>
<!-- Node22 -->
<g id="Node000022" class="node">
<title>Node22</title>
<g id="a_Node000022"><a xlink:href="classDGtal_1_1CountedPtr.html" target="_top" xlink:title=" ">
<polygon fill="white" stroke="#666666" points="524.5,-438.89 352.5,-438.89 352.5,-408.89 524.5,-408.89 524.5,-438.89"/>
<text text-anchor="start" x="360.5" y="-426.89" font-family="FreeSans" font-size="10.00">DGtal::CountedPtr&lt;</text>
<text text-anchor="middle" x="438.5" y="-415.89" font-family="FreeSans" font-size="10.00"> DGtal::IndexedDigitalSurface &gt;</text>
</a>
</g>
</g>
<!-- Node1&#45;&gt;Node22 -->
<g id="edge21_Node000001_Node000022" class="edge">
<title>Node1&#45;&gt;Node22</title>
<g id="a_edge21_Node000001_Node000022"><a xlink:title=" ">
<path fill="none" stroke="orange" stroke-dasharray="5,2" d="M70.11,-706.29C78.52,-646.5 106.9,-468.36 151,-433.89 217.65,-381.77 322.12,-394.46 384.79,-408.87"/>
<polygon fill="orange" stroke="orange" points="66.63,-705.93 68.74,-716.31 73.57,-706.88 66.63,-705.93"/>
</a>
</g>
<text text-anchor="middle" x="240" y="-436.89" font-family="FreeSans" font-size="10.00" fill="grey"> &lt; DGtal::IndexedDigitalSurface &gt;</text>
</g>
<!-- Node23 -->
<g id="Node000023" class="node">
<title>Node23</title>
<g id="a_Node000023"><a xlink:href="classDGtal_1_1CountedPtr.html" target="_top" xlink:title=" ">
<polygon fill="white" stroke="#666666" points="496,-390.39 381,-390.39 381,-349.39 496,-349.39 496,-390.39"/>
<text text-anchor="start" x="389" y="-378.39" font-family="FreeSans" font-size="10.00">DGtal::CountedPtr&lt;</text>
<text text-anchor="start" x="389" y="-367.39" font-family="FreeSans" font-size="10.00"> DGtal::SignalData&lt;</text>
<text text-anchor="middle" x="438.5" y="-356.39" font-family="FreeSans" font-size="10.00"> TValue &gt; &gt;</text>
</a>
</g>
</g>
<!-- Node1&#45;&gt;Node23 -->
<g id="edge22_Node000001_Node000023" class="edge">
<title>Node1&#45;&gt;Node23</title>
<g id="a_edge22_Node000001_Node000023"><a xlink:title=" ">
<path fill="none" stroke="orange" stroke-dasharray="5,2" d="M69.01,-706.1C74.67,-637.63 97.15,-412.57 151,-369.89 185.25,-342.74 307.51,-352.87 380.79,-361.88"/>
<polygon fill="orange" stroke="orange" points="65.49,-706.1 68.19,-716.35 72.47,-706.66 65.49,-706.1"/>
</a>
</g>
<text text-anchor="start" x="189" y="-383.89" font-family="FreeSans" font-size="10.00" fill="grey"> &lt; DGtal::SignalData</text>
<text text-anchor="middle" x="240" y="-372.89" font-family="FreeSans" font-size="10.00" fill="grey">&lt; TValue &gt; &gt;</text>
</g>
<!-- Node24 -->
<g id="Node000024" class="node">
<title>Node24</title>
<g id="a_Node000024"><a xlink:href="classDGtal_1_1CountedPtr.html" target="_top" xlink:title=" ">
<polygon fill="white" stroke="#666666" points="504,-331.39 373,-331.39 373,-290.39 504,-290.39 504,-331.39"/>
<text text-anchor="start" x="381" y="-319.39" font-family="FreeSans" font-size="10.00">DGtal::CountedPtr&lt;</text>
<text text-anchor="start" x="381" y="-308.39" font-family="FreeSans" font-size="10.00"> StabbingLineComputer</text>
<text text-anchor="middle" x="438.5" y="-297.39" font-family="FreeSans" font-size="10.00">&lt; ConstIterator &gt; &gt;</text>
</a>
</g>
</g>
<!-- Node1&#45;&gt;Node24 -->
<g id="edge23_Node000001_Node000024" class="edge">
<title>Node1&#45;&gt;Node24</title>
<g id="a_edge23_Node000001_Node000024"><a xlink:title=" ">
<path fill="none" stroke="orange" stroke-dasharray="5,2" d="M68.54,-706.2C72.88,-632.75 92.08,-376.4 151,-325.89 211.69,-273.86 308.9,-281.18 372.98,-293.87"/>
<polygon fill="orange" stroke="orange" points="65.04,-706.18 67.97,-716.36 72.03,-706.57 65.04,-706.18"/>
</a>
</g>
<text text-anchor="start" x="177" y="-339.89" font-family="FreeSans" font-size="10.00" fill="grey"> &lt; StabbingLineComputer</text>
<text text-anchor="middle" x="240" y="-328.89" font-family="FreeSans" font-size="10.00" fill="grey">&lt; ConstIterator &gt; &gt;</text>
</g>
<!-- Node25 -->
<g id="Node000025" class="node">
<title>Node25</title>
<g id="a_Node000025"><a xlink:href="classDGtal_1_1CountedPtr.html" target="_top" xlink:title=" ">
<polygon fill="white" stroke="#666666" points="495,-271.89 382,-271.89 382,-241.89 495,-241.89 495,-271.89"/>
<text text-anchor="start" x="390" y="-259.89" font-family="FreeSans" font-size="10.00">DGtal::CountedPtr&lt;</text>
<text text-anchor="middle" x="438.5" y="-248.89" font-family="FreeSans" font-size="10.00"> Preimage &gt;</text>
</a>
</g>
</g>
<!-- Node1&#45;&gt;Node25 -->
<g id="edge24_Node000001_Node000025" class="edge">
<title>Node1&#45;&gt;Node25</title>
<g id="a_edge24_Node000001_Node000025"><a xlink:title=" ">
<path fill="none" stroke="orange" stroke-dasharray="5,2" d="M67.98,-706.01C70.37,-625.8 83.72,-327.42 151,-268.89 215.7,-212.61 323.04,-226.63 386.35,-241.83"/>
<polygon fill="orange" stroke="orange" points="64.48,-706.12 67.7,-716.21 71.47,-706.31 64.48,-706.12"/>
</a>
</g>
<text text-anchor="middle" x="240" y="-271.89" font-family="FreeSans" font-size="10.00" fill="grey"> &lt; Preimage &gt;</text>
</g>
<!-- Node26 -->
<g id="Node000026" class="node">
<title>Node26</title>
<g id="a_Node000026"><a xlink:href="classDGtal_1_1CountedPtr.html" target="_top" xlink:title=" ">
<polygon fill="white" stroke="#666666" points="497.5,-223.89 379.5,-223.89 379.5,-193.89 497.5,-193.89 497.5,-223.89"/>
<text text-anchor="start" x="387.5" y="-211.89" font-family="FreeSans" font-size="10.00">DGtal::CountedPtr&lt;</text>
<text text-anchor="middle" x="438.5" y="-200.89" font-family="FreeSans" font-size="10.00"> GeometricFunctor &gt;</text>
</a>
</g>
</g>
<!-- Node1&#45;&gt;Node26 -->
<g id="edge25_Node000001_Node000026" class="edge">
<title>Node1&#45;&gt;Node26</title>
<g id="a_edge25_Node000001_Node000026"><a xlink:title=" ">
<path fill="none" stroke="orange" stroke-dasharray="5,2" d="M67.51,-706.07C67.98,-619.83 74.73,-278.67 151,-212.89 183.91,-184.5 305.39,-193 379.19,-201.26"/>
<polygon fill="orange" stroke="orange" points="64,-706.28 67.47,-716.29 71,-706.3 64,-706.28"/>
</a>
</g>
<text text-anchor="middle" x="240" y="-215.89" font-family="FreeSans" font-size="10.00" fill="grey"> &lt; GeometricFunctor &gt;</text>
</g>
<!-- Node27 -->
<g id="Node000027" class="node">
<title>Node27</title>
<g id="a_Node000027"><a xlink:href="classDGtal_1_1CountedPtr.html" target="_top" xlink:title=" ">
<polygon fill="white" stroke="#666666" points="508.5,-175.39 368.5,-175.39 368.5,-156.39 508.5,-156.39 508.5,-175.39"/>
<text text-anchor="middle" x="438.5" y="-163.39" font-family="FreeSans" font-size="10.00">DGtal::CountedPtr&lt; A1 &gt;</text>
</a>
</g>
</g>
<!-- Node1&#45;&gt;Node27 -->
<g id="edge26_Node000001_Node000027" class="edge">
<title>Node1&#45;&gt;Node27</title>
<g id="a_edge26_Node000001_Node000027"><a xlink:title=" ">
<path fill="none" stroke="orange" stroke-dasharray="5,2" d="M67.33,-705.92C67,-616 70.67,-249.88 151,-177.89 181.86,-150.23 293.77,-153.47 368.25,-159.12"/>
<polygon fill="orange" stroke="orange" points="63.83,-706.13 67.39,-716.11 70.83,-706.09 63.83,-706.13"/>
</a>
</g>
<text text-anchor="middle" x="240" y="-180.89" font-family="FreeSans" font-size="10.00" fill="grey"> &lt; A1 &gt;</text>
</g>
<!-- Node28 -->
<g id="Node000028" class="node">
<title>Node28</title>
<g id="a_Node000028"><a xlink:href="classDGtal_1_1CountedPtr.html" target="_top" xlink:title=" ">
<polygon fill="white" stroke="#666666" points="495,-137.89 382,-137.89 382,-107.89 495,-107.89 495,-137.89"/>
<text text-anchor="start" x="390" y="-125.89" font-family="FreeSans" font-size="10.00">DGtal::CountedPtr&lt;</text>
<text text-anchor="middle" x="438.5" y="-114.89" font-family="FreeSans" font-size="10.00"> MyPointD &gt;</text>
</a>
</g>
</g>
<!-- Node1&#45;&gt;Node28 -->
<g id="edge27_Node000001_Node000028" class="edge">
<title>Node1&#45;&gt;Node28</title>
<g id="a_edge27_Node000001_Node000028"><a xlink:title=" ">
<path fill="none" stroke="orange" stroke-dasharray="5,2" d="M67.14,-706.09C65.9,-612.79 65.82,-218.33 151,-139.89 213.22,-82.59 318.89,-93.8 383.04,-107.86"/>
<polygon fill="orange" stroke="orange" points="63.65,-706.41 67.3,-716.36 70.65,-706.3 63.65,-706.41"/>
</a>
</g>
<text text-anchor="middle" x="240" y="-142.89" font-family="FreeSans" font-size="10.00" fill="grey"> &lt; MyPointD &gt;</text>
</g>
<!-- Node29 -->
<g id="Node000029" class="node">
<title>Node29</title>
<g id="a_Node000029"><a xlink:href="classDGtal_1_1CountedPtr.html" target="_top" xlink:title=" ">
<polygon fill="white" stroke="#666666" points="514.5,-89.89 362.5,-89.89 362.5,-59.89 514.5,-59.89 514.5,-89.89"/>
<text text-anchor="start" x="370.5" y="-77.89" font-family="FreeSans" font-size="10.00">DGtal::CountedPtr&lt;</text>
<text text-anchor="middle" x="438.5" y="-66.89" font-family="FreeSans" font-size="10.00"> AdjacentVertexContainer &gt;</text>
</a>
</g>
</g>
<!-- Node1&#45;&gt;Node29 -->
<g id="edge28_Node000001_Node000029" class="edge">
<title>Node1&#45;&gt;Node29</title>
<g id="a_edge28_Node000001_Node000029"><a xlink:title=" ">
<path fill="none" stroke="orange" stroke-dasharray="5,2" d="M68.56,-705.91C74.3,-601.72 103.11,-123.87 151,-80.89 181.03,-53.93 288.08,-58.73 362.46,-65.87"/>
<polygon fill="orange" stroke="orange" points="65.06,-705.83 68.01,-716.01 72.05,-706.21 65.06,-705.83"/>
</a>
</g>
<text text-anchor="middle" x="240" y="-83.89" font-family="FreeSans" font-size="10.00" fill="grey"> &lt; AdjacentVertexContainer &gt;</text>
</g>
<!-- Node30 -->
<g id="Node000030" class="node">
<title>Node30</title>
<g id="a_Node000030"><a xlink:href="classDGtal_1_1CountedPtr.html" target="_top" xlink:title=" ">
<polygon fill="white" stroke="#666666" points="498,-41.89 379,-41.89 379,-11.89 498,-11.89 498,-41.89"/>
<text text-anchor="start" x="387" y="-29.89" font-family="FreeSans" font-size="10.00">DGtal::CountedPtr&lt;</text>
<text text-anchor="middle" x="438.5" y="-18.89" font-family="FreeSans" font-size="10.00"> OutEdgeContainer &gt;</text>
</a>
</g>
</g>
<!-- Node1&#45;&gt;Node30 -->
<g id="edge29_Node000001_Node000030" class="edge">
<title>Node1&#45;&gt;Node30</title>
<g id="a_edge29_Node000001_Node000030"><a xlink:title=" ">
<path fill="none" stroke="orange" stroke-dasharray="5,2" d="M68.44,-706.19C73.74,-599.28 101.39,-91.64 151,-44.89 212.57,13.13 318.45,2.12 382.82,-11.88"/>
<polygon fill="orange" stroke="orange" points="64.94,-706.08 67.95,-716.24 71.93,-706.43 64.94,-706.08"/>
</a>
</g>
<text text-anchor="middle" x="240" y="-47.89" font-family="FreeSans" font-size="10.00" fill="grey"> &lt; OutEdgeContainer &gt;</text>
</g>
</g>
</svg>

<g id="navigator" transform="translate(0 0)" fill="#404254">
  <rect fill="#f2f5e9" fill-opacity="0.5" stroke="#606060" stroke-width=".5" x="0" y="0" width="60" height="60"/>
  <use id="zoomplus" xlink:href="#zoomPlus" x="17" y="9" onmousedown="handleZoom(evt,'in')"/>
  <use id="zoomminus" xlink:href="#zoomMin" x="42" y="9" onmousedown="handleZoom(evt,'out')"/>
  <use id="reset" xlink:href="#resetDef" x="30" y="36" onmousedown="handleReset()"/>
   <use id="arrowup" xlink:href="#arrowUp" x="0" y="0" onmousedown="handlePan(0,-1)"/>
  <use id="arrowright" xlink:href="#arrowRight" x="0" y="0" onmousedown="handlePan(1,0)"/>
  <use id="arrowdown" xlink:href="#arrowDown" x="0" y="0" onmousedown="handlePan(0,1)"/>
  <use id="arrowleft" xlink:href="#arrowLeft" x="0" y="0" onmousedown="handlePan(-1,0)"/>
</g>
<svg viewBox="0 0 15 15" width="100%" height="30px" preserveAspectRatio="xMaxYMin meet">
 <g id="arrow_out" transform="scale(0.3 0.3)">
  <a xlink:href="classDGtal_1_1CountedPtr__inherit__graph_org.svg" target="_base">
   <rect id="button" ry="5" rx="5" y="6" x="6" height="38" width="38"
        fill="#f2f5e9" fill-opacity="0.5" stroke="#606060" stroke-width="1.0"/>
   <path id="arrow"
     d="M 11.500037,31.436501 C 11.940474,20.09759 22.043105,11.32322 32.158766,21.979434 L 37.068811,17.246167 C 37.068811,17.246167 37.088388,32 37.088388,32 L 22.160133,31.978069 C 22.160133,31.978069 26.997745,27.140456 26.997745,27.140456 C 18.528582,18.264221 13.291696,25.230495 11.500037,31.436501 z"
     style="fill:#404040;"/>
  </a>
 </g>
</svg>

<style type='text/css'>
<![CDATA[
[data-mouse-over-selected='false'] { opacity: 0.7; }
[data-mouse-over-selected='true']  { opacity: 1.0; }
]]>
</style>
<script type="application/ecmascript"><![CDATA[
document.addEventListener('DOMContentLoaded', (event) => {
  highlightEdges();
  highlightAdjacentNodes();
});
]]></script>
</svg>
