<?xml version="1.0" encoding="UTF-8" standalone="no"?>
<!DOCTYPE svg PUBLIC "-//W3C//DTD SVG 1.1//EN"
 "http://www.w3.org/Graphics/SVG/1.1/DTD/svg11.dtd">
<!-- Generated by graphviz version 2.43.0 (0)
 -->
<!-- Title: DGtal::CountedConstPtrOrConstPtr&lt; T &gt; Pages: 1 -->
<!--zoomable 748 -->

<svg id="main" version="1.1" xmlns="http://www.w3.org/2000/svg" xmlns:xlink="http://www.w3.org/1999/xlink" xml:space="preserve" onload="init(evt)">
<style type="text/css"><![CDATA[
.node, .edge {opacity: 0.7;}
.node.selected, .edge.selected {opacity: 1;}
.edge:hover path { stroke: red; }
.edge:hover polygon { stroke: red; fill: red; }
]]></style>

<defs>
  <circle id="rim" cx="0" cy="0" r="7"/>
  <circle id="rim2" cx="0" cy="0" r="3.5"/>
  <g id="zoomPlus">
    <use xlink:href="#rim" fill="#404040"><set attributeName="fill" to="#808080" begin="zoomplus.mouseover" end="zoomplus.mouseout"/></use>
    <path d="M-4,0h8M0,-4v8" fill="none" stroke="white" stroke-width="1.5" pointer-events="none"/>
  </g>
  <g id="zoomMin">
    <use xlink:href="#rim" fill="#404040"><set attributeName="fill" to="#808080" begin="zoomminus.mouseover" end="zoomminus.mouseout"/></use>
    <path d="M-4,0h8" fill="none" stroke="white" stroke-width="1.5" pointer-events="none"/>
  </g>
  <g id="arrowUp" transform="translate(30 24)">
    <use xlink:href="#rim"/>
    <path pointer-events="none" fill="none" stroke="white" stroke-width="1.5" d="M0,-3.0v7 M-2.5,-0.5L0,-3.0L2.5,-0.5"/>
  </g>
  <g id="arrowRight" transform="rotate(90) translate(36 -43)">
    <use xlink:href="#rim"/>
    <path pointer-events="none" fill="none" stroke="white" stroke-width="1.5" d="M0,-3.0v7 M-2.5,-0.5L0,-3.0L2.5,-0.5"/>
  </g>
  <g id="arrowDown" transform="rotate(180) translate(-30 -48)">
    <use xlink:href="#rim"/>
    <path pointer-events="none" fill="none" stroke="white" stroke-width="1.5" d="M0,-3.0v7 M-2.5,-0.5L0,-3.0L2.5,-0.5"/>
  </g>
  <g id="arrowLeft" transform="rotate(270) translate(-36 17)">
    <use xlink:href="#rim"/>
    <path pointer-events="none" fill="none" stroke="white" stroke-width="1.5" d="M0,-3.0v7 M-2.5,-0.5L0,-3.0L2.5,-0.5"/>
  </g>
  <g id="resetDef">
    <use xlink:href="#rim2" fill="#404040"><set attributeName="fill" to="#808080" begin="reset.mouseover" end="reset.mouseout"/></use>
  </g>
</defs>
<script type="application/ecmascript">
var viewWidth = 526;
var viewHeight = 748;
var sectionId = 'dynsection-0';
</script>
<script type="application/ecmascript" xlink:href="svg.min.js"/>
<svg id="graph" class="graph">
<g id="viewport">
<title>DGtal::CountedConstPtrOrConstPtr&lt; T &gt;</title>
<!-- Node1 -->
<g id="Node000001" class="node">
<title>Node1</title>
<g id="a_Node000001"><a xlink:title="Aim: Smart or simple const pointer on T. It can be a smart pointer based on reference counts or a sim...">
<polygon fill="#999999" stroke="#666666" points="143,-383.22 0,-383.22 0,-353.22 143,-353.22 143,-383.22"/>
<text text-anchor="start" x="8" y="-371.22" font-family="FreeSans" font-size="10.00">DGtal::CountedConstPtrOr</text>
<text text-anchor="middle" x="71.5" y="-360.22" font-family="FreeSans" font-size="10.00">ConstPtr&lt; T &gt;</text>
</a>
</g>
</g>
<!-- Node2 -->
<g id="Node000002" class="node">
<title>Node2</title>
<g id="a_Node000002"><a xlink:href="classDGtal_1_1CountedConstPtrOrConstPtr.html" target="_top" xlink:title=" ">
<polygon fill="white" stroke="#666666" points="491,-731.22 348,-731.22 348,-701.22 491,-701.22 491,-731.22"/>
<text text-anchor="start" x="356" y="-719.22" font-family="FreeSans" font-size="10.00">DGtal::CountedConstPtrOr</text>
<text text-anchor="middle" x="419.5" y="-708.22" font-family="FreeSans" font-size="10.00">ConstPtr&lt; DummyTbl &gt;</text>
</a>
</g>
</g>
<!-- Node1&#45;&gt;Node2 -->
<g id="edge1_Node000001_Node000002" class="edge">
<title>Node1&#45;&gt;Node2</title>
<g id="a_edge1_Node000001_Node000002"><a xlink:title=" ">
<path fill="none" stroke="orange" stroke-dasharray="5,2" d="M75.9,-393.55C85.62,-461.89 115.73,-647.49 161,-686.22 211.96,-729.81 290.83,-732.82 347.86,-727.72"/>
<polygon fill="orange" stroke="orange" points="79.32,-392.69 74.47,-383.27 72.38,-393.66 79.32,-392.69"/>
</a>
</g>
<text text-anchor="middle" x="232" y="-732.22" font-family="FreeSans" font-size="10.00" fill="grey"> &lt; DummyTbl &gt;</text>
</g>
<!-- Node3 -->
<g id="Node000003" class="node">
<title>Node3</title>
<g id="a_Node000003"><a xlink:href="classDGtal_1_1CountedConstPtrOrConstPtr.html" target="_top" xlink:title=" ">
<polygon fill="white" stroke="#666666" points="510.5,-682.72 328.5,-682.72 328.5,-641.72 510.5,-641.72 510.5,-682.72"/>
<text text-anchor="start" x="336.5" y="-670.72" font-family="FreeSans" font-size="10.00">DGtal::CountedConstPtrOr</text>
<text text-anchor="start" x="336.5" y="-659.72" font-family="FreeSans" font-size="10.00">ConstPtr&lt; DGtal::DiscreteExterior</text>
<text text-anchor="middle" x="419.5" y="-648.72" font-family="FreeSans" font-size="10.00">Calculus &gt;</text>
</a>
</g>
</g>
<!-- Node1&#45;&gt;Node3 -->
<g id="edge2_Node000001_Node000003" class="edge">
<title>Node1&#45;&gt;Node3</title>
<g id="a_edge2_Node000001_Node000003"><a xlink:title=" ">
<path fill="none" stroke="orange" stroke-dasharray="5,2" d="M72.56,-393.28C74.19,-446.89 86.21,-572.7 161,-633.22 186.18,-653.59 264.51,-660.22 328.22,-662.12"/>
<polygon fill="orange" stroke="orange" points="76.06,-393.2 72.36,-383.28 69.07,-393.35 76.06,-393.2"/>
</a>
</g>
<text text-anchor="start" x="168.5" y="-674.22" font-family="FreeSans" font-size="10.00" fill="grey"> &lt; DGtal::DiscreteExterior</text>
<text text-anchor="middle" x="232" y="-663.22" font-family="FreeSans" font-size="10.00" fill="grey">Calculus &gt;</text>
</g>
<!-- Node4 -->
<g id="Node000004" class="node">
<title>Node4</title>
<g id="a_Node000004"><a xlink:href="classDGtal_1_1CountedConstPtrOrConstPtr.html" target="_top" xlink:title=" ">
<polygon fill="white" stroke="#666666" points="491,-623.22 348,-623.22 348,-593.22 491,-593.22 491,-623.22"/>
<text text-anchor="start" x="356" y="-611.22" font-family="FreeSans" font-size="10.00">DGtal::CountedConstPtrOr</text>
<text text-anchor="middle" x="419.5" y="-600.22" font-family="FreeSans" font-size="10.00">ConstPtr&lt; ShapeA &gt;</text>
</a>
</g>
</g>
<!-- Node1&#45;&gt;Node4 -->
<g id="edge3_Node000001_Node000004" class="edge">
<title>Node1&#45;&gt;Node4</title>
<g id="a_edge3_Node000001_Node000004"><a xlink:title=" ">
<path fill="none" stroke="orange" stroke-dasharray="5,2" d="M75.05,-393.34C81.09,-438.51 100.64,-532.9 161,-578.22 214.18,-618.14 291.75,-621.97 347.84,-618.08"/>
<polygon fill="orange" stroke="orange" points="78.5,-392.73 73.82,-383.23 71.56,-393.58 78.5,-392.73"/>
</a>
</g>
<text text-anchor="middle" x="232" y="-621.22" font-family="FreeSans" font-size="10.00" fill="grey"> &lt; ShapeA &gt;</text>
</g>
<!-- Node5 -->
<g id="Node000005" class="node">
<title>Node5</title>
<g id="a_Node000005"><a xlink:href="classDGtal_1_1CountedConstPtrOrConstPtr.html" target="_top" xlink:title=" ">
<polygon fill="white" stroke="#666666" points="491,-575.22 348,-575.22 348,-545.22 491,-545.22 491,-575.22"/>
<text text-anchor="start" x="356" y="-563.22" font-family="FreeSans" font-size="10.00">DGtal::CountedConstPtrOr</text>
<text text-anchor="middle" x="419.5" y="-552.22" font-family="FreeSans" font-size="10.00">ConstPtr&lt; Surface &gt;</text>
</a>
</g>
</g>
<!-- Node1&#45;&gt;Node5 -->
<g id="edge4_Node000001_Node000005" class="edge">
<title>Node1&#45;&gt;Node5</title>
<g id="a_edge4_Node000001_Node000005"><a xlink:title=" ">
<path fill="none" stroke="orange" stroke-dasharray="5,2" d="M79.47,-393.29C90.56,-428.13 115.73,-490.36 161,-521.22 215.82,-558.59 292.41,-565.93 347.79,-565.39"/>
<polygon fill="orange" stroke="orange" points="82.73,-391.98 76.48,-383.42 76.03,-394.01 82.73,-391.98"/>
</a>
</g>
<text text-anchor="middle" x="232" y="-566.22" font-family="FreeSans" font-size="10.00" fill="grey"> &lt; Surface &gt;</text>
</g>
<!-- Node6 -->
<g id="Node000006" class="node">
<title>Node6</title>
<g id="a_Node000006"><a xlink:href="classDGtal_1_1CountedConstPtrOrConstPtr.html" target="_top" xlink:title=" ">
<polygon fill="white" stroke="#666666" points="498.5,-527.22 340.5,-527.22 340.5,-497.22 498.5,-497.22 498.5,-527.22"/>
<text text-anchor="start" x="348.5" y="-515.22" font-family="FreeSans" font-size="10.00">DGtal::CountedConstPtrOr</text>
<text text-anchor="middle" x="419.5" y="-504.22" font-family="FreeSans" font-size="10.00">ConstPtr&lt; EuclideanShape &gt;</text>
</a>
</g>
</g>
<!-- Node1&#45;&gt;Node6 -->
<g id="edge5_Node000001_Node000006" class="edge">
<title>Node1&#45;&gt;Node6</title>
<g id="a_edge5_Node000001_Node000006"><a xlink:title=" ">
<path fill="none" stroke="orange" stroke-dasharray="5,2" d="M87.43,-391.65C102.99,-414 129.48,-446.78 161,-464.22 216.12,-494.7 286.96,-506.25 340.39,-510.43"/>
<polygon fill="orange" stroke="orange" points="90.33,-389.68 81.83,-383.35 84.53,-393.6 90.33,-389.68"/>
</a>
</g>
<text text-anchor="middle" x="232" y="-509.22" font-family="FreeSans" font-size="10.00" fill="grey"> &lt; EuclideanShape &gt;</text>
</g>
<!-- Node7 -->
<g id="Node000007" class="node">
<title>Node7</title>
<g id="a_Node000007"><a xlink:href="classDGtal_1_1CountedConstPtrOrConstPtr.html" target="_top" xlink:title=" ">
<polygon fill="white" stroke="#666666" points="518,-479.22 321,-479.22 321,-449.22 518,-449.22 518,-479.22"/>
<text text-anchor="start" x="329" y="-467.22" font-family="FreeSans" font-size="10.00">DGtal::CountedConstPtrOr</text>
<text text-anchor="middle" x="419.5" y="-456.22" font-family="FreeSans" font-size="10.00">ConstPtr&lt; DigitalSurfaceContainer &gt;</text>
</a>
</g>
</g>
<!-- Node1&#45;&gt;Node7 -->
<g id="edge6_Node000001_Node000007" class="edge">
<title>Node1&#45;&gt;Node7</title>
<g id="a_edge6_Node000001_Node000007"><a xlink:title=" ">
<path fill="none" stroke="orange" stroke-dasharray="5,2" d="M104.23,-388.58C120.61,-398.26 141.26,-409.22 161,-416.22 212.33,-434.41 271.98,-446.08 320.94,-453.36"/>
<polygon fill="orange" stroke="orange" points="105.97,-385.54 95.6,-383.36 102.35,-391.53 105.97,-385.54"/>
</a>
</g>
<text text-anchor="middle" x="232" y="-452.22" font-family="FreeSans" font-size="10.00" fill="grey"> &lt; DigitalSurfaceContainer &gt;</text>
</g>
<!-- Node8 -->
<g id="Node000008" class="node">
<title>Node8</title>
<g id="a_Node000008"><a xlink:href="classDGtal_1_1CountedConstPtrOrConstPtr.html" target="_top" xlink:title=" ">
<polygon fill="white" stroke="#666666" points="495,-431.22 344,-431.22 344,-401.22 495,-401.22 495,-431.22"/>
<text text-anchor="start" x="352" y="-419.22" font-family="FreeSans" font-size="10.00">DGtal::CountedConstPtrOr</text>
<text text-anchor="middle" x="419.5" y="-408.22" font-family="FreeSans" font-size="10.00">ConstPtr&lt; PointPredicate &gt;</text>
</a>
</g>
</g>
<!-- Node1&#45;&gt;Node8 -->
<g id="edge7_Node000001_Node000008" class="edge">
<title>Node1&#45;&gt;Node8</title>
<g id="a_edge7_Node000001_Node000008"><a xlink:title=" ">
<path fill="none" stroke="orange" stroke-dasharray="5,2" d="M153.41,-382.07C155.97,-382.46 158.5,-382.84 161,-383.22 222.41,-392.35 292.29,-401.21 343.74,-407.44"/>
<polygon fill="orange" stroke="orange" points="153.89,-378.6 143.47,-380.5 152.8,-385.51 153.89,-378.6"/>
</a>
</g>
<text text-anchor="middle" x="232" y="-404.22" font-family="FreeSans" font-size="10.00" fill="grey"> &lt; PointPredicate &gt;</text>
</g>
<!-- Node9 -->
<g id="Node000009" class="node">
<title>Node9</title>
<g id="a_Node000009"><a xlink:href="classDGtal_1_1CountedConstPtrOrConstPtr.html" target="_top" xlink:title=" ">
<polygon fill="white" stroke="#666666" points="511,-383.22 328,-383.22 328,-353.22 511,-353.22 511,-383.22"/>
<text text-anchor="start" x="336" y="-371.22" font-family="FreeSans" font-size="10.00">DGtal::CountedConstPtrOr</text>
<text text-anchor="middle" x="419.5" y="-360.22" font-family="FreeSans" font-size="10.00">ConstPtr&lt; DGtal::DigitalSurface &gt;</text>
</a>
</g>
</g>
<!-- Node1&#45;&gt;Node9 -->
<g id="edge8_Node000001_Node000009" class="edge">
<title>Node1&#45;&gt;Node9</title>
<g id="a_edge8_Node000001_Node000009"><a xlink:title=" ">
<path fill="none" stroke="orange" stroke-dasharray="5,2" d="M153.59,-368.22C205.87,-368.22 273.93,-368.22 327.98,-368.22"/>
<polygon fill="orange" stroke="orange" points="153.35,-364.72 143.35,-368.22 153.35,-371.72 153.35,-364.72"/>
</a>
</g>
<text text-anchor="middle" x="232" y="-371.22" font-family="FreeSans" font-size="10.00" fill="grey"> &lt; DGtal::DigitalSurface &gt;</text>
</g>
<!-- Node10 -->
<g id="Node000010" class="node">
<title>Node10</title>
<g id="a_Node000010"><a xlink:href="classDGtal_1_1CountedConstPtrOrConstPtr.html" target="_top" xlink:title=" ">
<polygon fill="white" stroke="#666666" points="491,-335.22 348,-335.22 348,-305.22 491,-305.22 491,-335.22"/>
<text text-anchor="start" x="356" y="-323.22" font-family="FreeSans" font-size="10.00">DGtal::CountedConstPtrOr</text>
<text text-anchor="middle" x="419.5" y="-312.22" font-family="FreeSans" font-size="10.00">ConstPtr&lt; Metric &gt;</text>
</a>
</g>
</g>
<!-- Node1&#45;&gt;Node10 -->
<g id="edge9_Node000001_Node000010" class="edge">
<title>Node1&#45;&gt;Node10</title>
<g id="a_edge9_Node000001_Node000010"><a xlink:title=" ">
<path fill="none" stroke="orange" stroke-dasharray="5,2" d="M153.41,-354.37C155.97,-353.97 158.5,-353.59 161,-353.22 224.08,-343.83 296.1,-334.74 347.9,-328.48"/>
<polygon fill="orange" stroke="orange" points="152.8,-350.92 143.47,-355.93 153.89,-357.83 152.8,-350.92"/>
</a>
</g>
<text text-anchor="middle" x="232" y="-356.22" font-family="FreeSans" font-size="10.00" fill="grey"> &lt; Metric &gt;</text>
</g>
<!-- Node11 -->
<g id="Node000011" class="node">
<title>Node11</title>
<g id="a_Node000011"><a xlink:href="classDGtal_1_1CountedConstPtrOrConstPtr.html" target="_top" xlink:title=" ">
<polygon fill="white" stroke="#666666" points="507,-287.22 332,-287.22 332,-257.22 507,-257.22 507,-287.22"/>
<text text-anchor="start" x="340" y="-275.22" font-family="FreeSans" font-size="10.00">DGtal::CountedConstPtrOr</text>
<text text-anchor="middle" x="419.5" y="-264.22" font-family="FreeSans" font-size="10.00">ConstPtr&lt; ConvolutionFunctor &gt;</text>
</a>
</g>
</g>
<!-- Node1&#45;&gt;Node11 -->
<g id="edge10_Node000001_Node000011" class="edge">
<title>Node1&#45;&gt;Node11</title>
<g id="a_edge10_Node000001_Node000011"><a xlink:title=" ">
<path fill="none" stroke="orange" stroke-dasharray="5,2" d="M103.48,-347.8C119.95,-337.8 140.91,-326.39 161,-319.22 216.1,-299.53 280.91,-287.76 331.72,-280.92"/>
<polygon fill="orange" stroke="orange" points="101.47,-344.92 94.82,-353.17 105.16,-350.87 101.47,-344.92"/>
</a>
</g>
<text text-anchor="middle" x="232" y="-322.22" font-family="FreeSans" font-size="10.00" fill="grey"> &lt; ConvolutionFunctor &gt;</text>
</g>
<!-- Node12 -->
<g id="Node000012" class="node">
<title>Node12</title>
<g id="a_Node000012"><a xlink:href="classDGtal_1_1CountedConstPtrOrConstPtr.html" target="_top" xlink:title=" ">
<polygon fill="white" stroke="#666666" points="491,-239.22 348,-239.22 348,-209.22 491,-209.22 491,-239.22"/>
<text text-anchor="start" x="356" y="-227.22" font-family="FreeSans" font-size="10.00">DGtal::CountedConstPtrOr</text>
<text text-anchor="middle" x="419.5" y="-216.22" font-family="FreeSans" font-size="10.00">ConstPtr&lt; KSpace &gt;</text>
</a>
</g>
</g>
<!-- Node1&#45;&gt;Node12 -->
<g id="edge11_Node000001_Node000012" class="edge">
<title>Node1&#45;&gt;Node12</title>
<g id="a_edge11_Node000001_Node000012"><a xlink:title=" ">
<path fill="none" stroke="orange" stroke-dasharray="5,2" d="M87.03,-344.62C102.44,-321.75 128.97,-287.99 161,-270.22 218.58,-238.27 293.54,-227.75 347.72,-224.64"/>
<polygon fill="orange" stroke="orange" points="84.04,-342.81 81.49,-353.09 89.9,-346.64 84.04,-342.81"/>
</a>
</g>
<text text-anchor="middle" x="232" y="-273.22" font-family="FreeSans" font-size="10.00" fill="grey"> &lt; KSpace &gt;</text>
</g>
<!-- Node13 -->
<g id="Node000013" class="node">
<title>Node13</title>
<g id="a_Node000013"><a xlink:href="classDGtal_1_1CountedConstPtrOrConstPtr.html" target="_top" xlink:title=" ">
<polygon fill="white" stroke="#666666" points="491,-191.22 348,-191.22 348,-161.22 491,-161.22 491,-191.22"/>
<text text-anchor="start" x="356" y="-179.22" font-family="FreeSans" font-size="10.00">DGtal::CountedConstPtrOr</text>
<text text-anchor="middle" x="419.5" y="-168.22" font-family="FreeSans" font-size="10.00">ConstPtr&lt; Shape &gt;</text>
</a>
</g>
</g>
<!-- Node1&#45;&gt;Node13 -->
<g id="edge12_Node000001_Node000013" class="edge">
<title>Node1&#45;&gt;Node13</title>
<g id="a_edge12_Node000001_Node000013"><a xlink:title=" ">
<path fill="none" stroke="orange" stroke-dasharray="5,2" d="M79.34,-342.77C90.27,-307.43 115.26,-244.33 161,-213.22 215.8,-175.94 292.39,-169.24 347.78,-170.31"/>
<polygon fill="orange" stroke="orange" points="75.86,-342.2 76.39,-352.78 82.58,-344.18 75.86,-342.2"/>
</a>
</g>
<text text-anchor="middle" x="232" y="-216.22" font-family="FreeSans" font-size="10.00" fill="grey"> &lt; Shape &gt;</text>
</g>
<!-- Node14 -->
<g id="Node000014" class="node">
<title>Node14</title>
<g id="a_Node000014"><a xlink:href="classDGtal_1_1CountedConstPtrOrConstPtr.html" target="_top" xlink:title=" ">
<polygon fill="white" stroke="#666666" points="516.5,-142.72 322.5,-142.72 322.5,-101.72 516.5,-101.72 516.5,-142.72"/>
<text text-anchor="start" x="330.5" y="-130.72" font-family="FreeSans" font-size="10.00">DGtal::CountedConstPtrOr</text>
<text text-anchor="start" x="330.5" y="-119.72" font-family="FreeSans" font-size="10.00">ConstPtr&lt; DGtal::VoronoiCovariance</text>
<text text-anchor="middle" x="419.5" y="-108.72" font-family="FreeSans" font-size="10.00">MeasureOnDigitalSurface &gt;</text>
</a>
</g>
</g>
<!-- Node1&#45;&gt;Node14 -->
<g id="edge13_Node000001_Node000014" class="edge">
<title>Node1&#45;&gt;Node14</title>
<g id="a_edge13_Node000001_Node000014"><a xlink:title=" ">
<path fill="none" stroke="orange" stroke-dasharray="5,2" d="M74.24,-343.06C78.99,-295.59 96.58,-193.28 161,-145.22 206.51,-111.26 269.91,-105.25 322.42,-107.85"/>
<polygon fill="orange" stroke="orange" points="70.74,-342.83 73.34,-353.1 77.72,-343.45 70.74,-342.83"/>
</a>
</g>
<text text-anchor="start" x="162" y="-159.22" font-family="FreeSans" font-size="10.00" fill="grey"> &lt; DGtal::VoronoiCovariance</text>
<text text-anchor="middle" x="232" y="-148.22" font-family="FreeSans" font-size="10.00" fill="grey">MeasureOnDigitalSurface &gt;</text>
</g>
<!-- Node15 -->
<g id="Node000015" class="node">
<title>Node15</title>
<g id="a_Node000015"><a xlink:href="classDGtal_1_1CountedConstPtrOrConstPtr.html" target="_top" xlink:title=" ">
<polygon fill="white" stroke="#666666" points="498.5,-83.22 340.5,-83.22 340.5,-53.22 498.5,-53.22 498.5,-83.22"/>
<text text-anchor="start" x="348.5" y="-71.22" font-family="FreeSans" font-size="10.00">DGtal::CountedConstPtrOr</text>
<text text-anchor="middle" x="419.5" y="-60.22" font-family="FreeSans" font-size="10.00">ConstPtr&lt; Eigen::MatrixXd &gt;</text>
</a>
</g>
</g>
<!-- Node1&#45;&gt;Node15 -->
<g id="edge14_Node000001_Node000015" class="edge">
<title>Node1&#45;&gt;Node15</title>
<g id="a_edge14_Node000001_Node000015"><a xlink:title=" ">
<path fill="none" stroke="orange" stroke-dasharray="5,2" d="M72.09,-342.81C72.73,-287.28 82.82,-155.01 161,-92.22 210.71,-52.29 284.5,-49.27 340.36,-54.5"/>
<polygon fill="orange" stroke="orange" points="68.59,-343.15 72.08,-353.15 75.59,-343.16 68.59,-343.15"/>
</a>
</g>
<text text-anchor="middle" x="232" y="-95.22" font-family="FreeSans" font-size="10.00" fill="grey"> &lt; Eigen::MatrixXd &gt;</text>
</g>
<!-- Node16 -->
<g id="Node000016" class="node">
<title>Node16</title>
<g id="a_Node000016"><a xlink:href="classDGtal_1_1CountedConstPtrOrConstPtr.html" target="_top" xlink:title=" ">
<polygon fill="white" stroke="#666666" points="512,-35.22 327,-35.22 327,-5.22 512,-5.22 512,-35.22"/>
<text text-anchor="start" x="335" y="-23.22" font-family="FreeSans" font-size="10.00">DGtal::CountedConstPtrOr</text>
<text text-anchor="middle" x="419.5" y="-12.22" font-family="FreeSans" font-size="10.00">ConstPtr&lt; VCMOnDigitalSurface &gt;</text>
</a>
</g>
</g>
<!-- Node1&#45;&gt;Node16 -->
<g id="edge15_Node000001_Node000016" class="edge">
<title>Node1&#45;&gt;Node16</title>
<g id="a_edge15_Node000001_Node000016"><a xlink:title=" ">
<path fill="none" stroke="orange" stroke-dasharray="5,2" d="M75.54,-342.74C84.5,-272.32 113.21,-77.61 161,-38.22 213.39,4.96 293.96,3.34 351,-5.18"/>
<polygon fill="orange" stroke="orange" points="72.03,-342.58 74.27,-352.94 78.98,-343.44 72.03,-342.58"/>
</a>
</g>
<text text-anchor="middle" x="232" y="-41.22" font-family="FreeSans" font-size="10.00" fill="grey"> &lt; VCMOnDigitalSurface &gt;</text>
</g>
</g>
</svg>

<g id="navigator" transform="translate(0 0)" fill="#404254">
  <rect fill="#f2f5e9" fill-opacity="0.5" stroke="#606060" stroke-width=".5" x="0" y="0" width="60" height="60"/>
  <use id="zoomplus" xlink:href="#zoomPlus" x="17" y="9" onmousedown="handleZoom(evt,'in')"/>
  <use id="zoomminus" xlink:href="#zoomMin" x="42" y="9" onmousedown="handleZoom(evt,'out')"/>
  <use id="reset" xlink:href="#resetDef" x="30" y="36" onmousedown="handleReset()"/>
   <use id="arrowup" xlink:href="#arrowUp" x="0" y="0" onmousedown="handlePan(0,-1)"/>
  <use id="arrowright" xlink:href="#arrowRight" x="0" y="0" onmousedown="handlePan(1,0)"/>
  <use id="arrowdown" xlink:href="#arrowDown" x="0" y="0" onmousedown="handlePan(0,1)"/>
  <use id="arrowleft" xlink:href="#arrowLeft" x="0" y="0" onmousedown="handlePan(-1,0)"/>
</g>
<svg viewBox="0 0 15 15" width="100%" height="30px" preserveAspectRatio="xMaxYMin meet">
 <g id="arrow_out" transform="scale(0.3 0.3)">
  <a xlink:href="classDGtal_1_1CountedConstPtrOrConstPtr__inherit__graph_org.svg" target="_base">
   <rect id="button" ry="5" rx="5" y="6" x="6" height="38" width="38"
        fill="#f2f5e9" fill-opacity="0.5" stroke="#606060" stroke-width="1.0"/>
   <path id="arrow"
     d="M 11.500037,31.436501 C 11.940474,20.09759 22.043105,11.32322 32.158766,21.979434 L 37.068811,17.246167 C 37.068811,17.246167 37.088388,32 37.088388,32 L 22.160133,31.978069 C 22.160133,31.978069 26.997745,27.140456 26.997745,27.140456 C 18.528582,18.264221 13.291696,25.230495 11.500037,31.436501 z"
     style="fill:#404040;"/>
  </a>
 </g>
</svg>

<style type='text/css'>
<![CDATA[
[data-mouse-over-selected='false'] { opacity: 0.7; }
[data-mouse-over-selected='true']  { opacity: 1.0; }
]]>
</style>
<script type="application/ecmascript"><![CDATA[
document.addEventListener('DOMContentLoaded', (event) => {
  highlightEdges();
  highlightAdjacentNodes();
});
]]></script>
</svg>
