<?xml version="1.0" encoding="UTF-8" standalone="no"?>
<!DOCTYPE svg PUBLIC "-//W3C//DTD SVG 1.1//EN"
 "http://www.w3.org/Graphics/SVG/1.1/DTD/svg11.dtd">
<!-- Generated by graphviz version 2.43.0 (0)
 -->
<!-- Title: DGtal::Astroid2D&lt; TSpace &gt; Pages: 1 -->
<svg width="164pt" height="160pt"
 viewBox="0.00 0.00 164.00 160.00" xmlns="http://www.w3.org/2000/svg" xmlns:xlink="http://www.w3.org/1999/xlink">
<g id="graph0" class="graph" transform="scale(1 1) rotate(0) translate(4 156)">
<title>DGtal::Astroid2D&lt; TSpace &gt;</title>
<!-- Node1 -->
<g id="Node000001" class="node">
<title>Node1</title>
<g id="a_Node000001"><a xlink:title="Aim: Model of the concept StarShaped represents an astroid.">
<polygon fill="#999999" stroke="#666666" points="156,-85 0,-85 0,-66 156,-66 156,-85"/>
<text text-anchor="middle" x="78" y="-73" font-family="FreeSans" font-size="10.00">DGtal::Astroid2D&lt; TSpace &gt;</text>
</a>
</g>
</g>
<!-- Node3 -->
<g id="Node000003" class="node">
<title>Node3</title>
<g id="a_Node000003"><a xlink:href="classDGtal_1_1Astroid2D.html" target="_top" xlink:title=" ">
<polygon fill="white" stroke="#666666" points="153,-19 3,-19 3,0 153,0 153,-19"/>
<text text-anchor="middle" x="78" y="-7" font-family="FreeSans" font-size="10.00">DGtal::Astroid2D&lt; Space &gt;</text>
</a>
</g>
</g>
<!-- Node1&#45;&gt;Node3 -->
<g id="edge2_Node000001_Node000003" class="edge">
<title>Node1&#45;&gt;Node3</title>
<g id="a_edge2_Node000001_Node000003"><a xlink:title=" ">
<path fill="none" stroke="orange" stroke-dasharray="5,2" d="M78,-55.58C78,-43.63 78,-28.72 78,-19.41"/>
<polygon fill="orange" stroke="orange" points="74.5,-55.87 78,-65.87 81.5,-55.87 74.5,-55.87"/>
</a>
</g>
<text text-anchor="middle" x="105.5" y="-40" font-family="FreeSans" font-size="10.00" fill="grey"> &lt; Space &gt;</text>
</g>
<!-- Node2 -->
<g id="Node000002" class="node">
<title>Node2</title>
<g id="a_Node000002"><a xlink:href="classDGtal_1_1StarShaped2D.html" target="_top" xlink:title=" ">
<polygon fill="white" stroke="#666666" points="137.5,-152 18.5,-152 18.5,-122 137.5,-122 137.5,-152"/>
<text text-anchor="start" x="26.5" y="-140" font-family="FreeSans" font-size="10.00">DGtal::StarShaped2D</text>
<text text-anchor="middle" x="78" y="-129" font-family="FreeSans" font-size="10.00">&lt; TSpace &gt;</text>
</a>
</g>
</g>
<!-- Node2&#45;&gt;Node1 -->
<g id="edge1_Node000001_Node000002" class="edge">
<title>Node2&#45;&gt;Node1</title>
<g id="a_edge1_Node000001_Node000002"><a xlink:title=" ">
<path fill="none" stroke="#63b8ff" d="M78,-111.79C78,-102.36 78,-92.15 78,-85.16"/>
<polygon fill="#63b8ff" stroke="#63b8ff" points="74.5,-111.9 78,-121.9 81.5,-111.9 74.5,-111.9"/>
</a>
</g>
</g>
</g>
</svg>
