<?xml version="1.0" encoding="UTF-8" standalone="no"?>
<!DOCTYPE svg PUBLIC "-//W3C//DTD SVG 1.1//EN"
 "http://www.w3.org/Graphics/SVG/1.1/DTD/svg11.dtd">
<!-- Generated by graphviz version 2.43.0 (0)
 -->
<!-- Title: DGtal::StarShaped2D&lt; TSpace &gt; Pages: 1 -->
<svg width="615pt" height="346pt"
 viewBox="0.00 0.00 615.00 346.33" xmlns="http://www.w3.org/2000/svg" xmlns:xlink="http://www.w3.org/1999/xlink">
<g id="graph0" class="graph" transform="scale(1 1) rotate(0) translate(4 342.33)">
<title>DGtal::StarShaped2D&lt; TSpace &gt;</title>
<!-- Node1 -->
<g id="Node000001" class="node">
<title>Node1</title>
<g id="a_Node000001"><a xlink:title=" ">
<polygon fill="#999999" stroke="#666666" points="119,-196 0,-196 0,-166 119,-166 119,-196"/>
<text text-anchor="start" x="8" y="-184" font-family="FreeSans" font-size="10.00">DGtal::StarShaped2D</text>
<text text-anchor="middle" x="59.5" y="-173" font-family="FreeSans" font-size="10.00">&lt; TSpace &gt;</text>
</a>
</g>
</g>
<!-- Node2 -->
<g id="Node000002" class="node">
<title>Node2</title>
<g id="a_Node000002"><a xlink:href="classDGtal_1_1Astroid2D.html" target="_top" xlink:title=" ">
<polygon fill="white" stroke="#666666" points="607,-307.5 457,-307.5 457,-288.5 607,-288.5 607,-307.5"/>
<text text-anchor="middle" x="532" y="-295.5" font-family="FreeSans" font-size="10.00">DGtal::Astroid2D&lt; Space &gt;</text>
</a>
</g>
</g>
<!-- Node1&#45;&gt;Node2 -->
<g id="edge1_Node000001_Node000002" class="edge">
<title>Node1&#45;&gt;Node2</title>
<g id="a_edge1_Node000001_Node000002"><a xlink:title=" ">
<path fill="none" stroke="#63b8ff" d="M75.84,-204.83C99.63,-239.16 149.08,-300.75 210,-322 312.89,-357.9 445.28,-325.18 502.53,-307.55"/>
<polygon fill="#63b8ff" stroke="#63b8ff" points="78.59,-202.65 70.09,-196.33 72.79,-206.57 78.59,-202.65"/>
</a>
</g>
</g>
<!-- Node3 -->
<g id="Node000003" class="node">
<title>Node3</title>
<g id="a_Node000003"><a xlink:href="classDGtal_1_1AccFlower2D.html" target="_top" xlink:title="Aim: Model of the concept StarShaped represents any accelerated flower in the plane.">
<polygon fill="white" stroke="#666666" points="345,-313 231,-313 231,-283 345,-283 345,-313"/>
<text text-anchor="start" x="239" y="-301" font-family="FreeSans" font-size="10.00">DGtal::AccFlower2D</text>
<text text-anchor="middle" x="288" y="-290" font-family="FreeSans" font-size="10.00">&lt; TSpace &gt;</text>
</a>
</g>
</g>
<!-- Node1&#45;&gt;Node3 -->
<g id="edge2_Node000001_Node000003" class="edge">
<title>Node1&#45;&gt;Node3</title>
<g id="a_edge2_Node000001_Node000003"><a xlink:title=" ">
<path fill="none" stroke="#63b8ff" d="M88.15,-202.34C102.41,-212.97 120.27,-225.71 137,-236 168.15,-255.17 176.18,-260.06 210,-274 217.77,-277.2 226.12,-280.22 234.37,-282.97"/>
<polygon fill="#63b8ff" stroke="#63b8ff" points="89.88,-199.26 79.78,-196.04 85.66,-204.85 89.88,-199.26"/>
</a>
</g>
</g>
<!-- Node4 -->
<g id="Node000004" class="node">
<title>Node4</title>
<g id="a_Node000004"><a xlink:href="classDGtal_1_1Astroid2D.html" target="_top" xlink:title="Aim: Model of the concept StarShaped represents an astroid.">
<polygon fill="white" stroke="#666666" points="366,-264.5 210,-264.5 210,-245.5 366,-245.5 366,-264.5"/>
<text text-anchor="middle" x="288" y="-252.5" font-family="FreeSans" font-size="10.00">DGtal::Astroid2D&lt; TSpace &gt;</text>
</a>
</g>
</g>
<!-- Node1&#45;&gt;Node4 -->
<g id="edge3_Node000001_Node000004" class="edge">
<title>Node1&#45;&gt;Node4</title>
<g id="a_edge3_Node000001_Node000004"><a xlink:title=" ">
<path fill="none" stroke="#63b8ff" d="M104.42,-200.06C115.02,-204.47 126.36,-209.03 137,-213 169,-224.93 177.12,-227.77 210,-237 220.71,-240.01 232.35,-242.91 243.26,-245.48"/>
<polygon fill="#63b8ff" stroke="#63b8ff" points="105.5,-196.72 94.93,-196.08 102.79,-203.18 105.5,-196.72"/>
</a>
</g>
</g>
<!-- Node5 -->
<g id="Node000005" class="node">
<title>Node5</title>
<g id="a_Node000005"><a xlink:href="classDGtal_1_1Ball2D.html" target="_top" xlink:title="Aim: Model of the concept StarShaped represents any circle in the plane.">
<polygon fill="white" stroke="#666666" points="358,-227.5 218,-227.5 218,-208.5 358,-208.5 358,-227.5"/>
<text text-anchor="middle" x="288" y="-215.5" font-family="FreeSans" font-size="10.00">DGtal::Ball2D&lt; TSpace &gt;</text>
</a>
</g>
</g>
<!-- Node1&#45;&gt;Node5 -->
<g id="edge5_Node000001_Node000005" class="edge">
<title>Node1&#45;&gt;Node5</title>
<g id="a_edge5_Node000001_Node000005"><a xlink:title=" ">
<path fill="none" stroke="#63b8ff" d="M129.37,-193.7C131.95,-194.14 134.5,-194.58 137,-195 164.8,-199.67 195.57,-204.46 221.96,-208.45"/>
<polygon fill="#63b8ff" stroke="#63b8ff" points="129.81,-190.22 119.36,-191.95 128.61,-197.12 129.81,-190.22"/>
</a>
</g>
</g>
<!-- Node6 -->
<g id="Node000006" class="node">
<title>Node6</title>
<g id="a_Node000006"><a xlink:href="classDGtal_1_1Ellipse2D.html" target="_top" xlink:title="Aim: Model of the concept StarShaped represents any ellipse in the plane.">
<polygon fill="white" stroke="#666666" points="365,-190.5 211,-190.5 211,-171.5 365,-171.5 365,-190.5"/>
<text text-anchor="middle" x="288" y="-178.5" font-family="FreeSans" font-size="10.00">DGtal::Ellipse2D&lt; TSpace &gt;</text>
</a>
</g>
</g>
<!-- Node1&#45;&gt;Node6 -->
<g id="edge6_Node000001_Node000006" class="edge">
<title>Node1&#45;&gt;Node6</title>
<g id="a_edge6_Node000001_Node000006"><a xlink:title=" ">
<path fill="none" stroke="#63b8ff" d="M129.16,-181C154.9,-181 184.29,-181 210.68,-181"/>
<polygon fill="#63b8ff" stroke="#63b8ff" points="129.12,-177.5 119.12,-181 129.12,-184.5 129.12,-177.5"/>
</a>
</g>
</g>
<!-- Node7 -->
<g id="Node000007" class="node">
<title>Node7</title>
<g id="a_Node000007"><a xlink:href="classDGtal_1_1Flower2D.html" target="_top" xlink:title="Aim: Model of the concept StarShaped represents any flower with k&#45;petals in the plane.">
<polygon fill="white" stroke="#666666" points="365.5,-153.5 210.5,-153.5 210.5,-134.5 365.5,-134.5 365.5,-153.5"/>
<text text-anchor="middle" x="288" y="-141.5" font-family="FreeSans" font-size="10.00">DGtal::Flower2D&lt; TSpace &gt;</text>
</a>
</g>
</g>
<!-- Node1&#45;&gt;Node7 -->
<g id="edge7_Node000001_Node000007" class="edge">
<title>Node1&#45;&gt;Node7</title>
<g id="a_edge7_Node000001_Node000007"><a xlink:title=" ">
<path fill="none" stroke="#63b8ff" d="M129.22,-169.77C160.96,-164.59 198.26,-158.5 228.62,-153.54"/>
<polygon fill="#63b8ff" stroke="#63b8ff" points="128.43,-166.36 119.12,-171.42 129.56,-173.27 128.43,-166.36"/>
</a>
</g>
</g>
<!-- Node8 -->
<g id="Node000008" class="node">
<title>Node8</title>
<g id="a_Node000008"><a xlink:href="classDGtal_1_1Lemniscate2D.html" target="_top" xlink:title="Aim: Model of the concept StarShaped represents a lemniscate.">
<polygon fill="white" stroke="#666666" points="348,-116 228,-116 228,-86 348,-86 348,-116"/>
<text text-anchor="start" x="236" y="-104" font-family="FreeSans" font-size="10.00">DGtal::Lemniscate2D</text>
<text text-anchor="middle" x="288" y="-93" font-family="FreeSans" font-size="10.00">&lt; TSpace &gt;</text>
</a>
</g>
</g>
<!-- Node1&#45;&gt;Node8 -->
<g id="edge8_Node000001_Node000008" class="edge">
<title>Node1&#45;&gt;Node8</title>
<g id="a_edge8_Node000001_Node000008"><a xlink:title=" ">
<path fill="none" stroke="#63b8ff" d="M109.53,-162.42C138.63,-151.53 176.31,-137.66 210,-126 219.56,-122.69 229.84,-119.26 239.67,-116.05"/>
<polygon fill="#63b8ff" stroke="#63b8ff" points="108.14,-159.2 100.01,-165.99 110.6,-165.76 108.14,-159.2"/>
</a>
</g>
</g>
<!-- Node9 -->
<g id="Node000009" class="node">
<title>Node9</title>
<g id="a_Node000009"><a xlink:href="classDGtal_1_1NGon2D.html" target="_top" xlink:title="Aim: Model of the concept StarShaped represents any regular k&#45;gon in the plane.">
<polygon fill="white" stroke="#666666" points="362.5,-67.5 213.5,-67.5 213.5,-48.5 362.5,-48.5 362.5,-67.5"/>
<text text-anchor="middle" x="288" y="-55.5" font-family="FreeSans" font-size="10.00">DGtal::NGon2D&lt; TSpace &gt;</text>
</a>
</g>
</g>
<!-- Node1&#45;&gt;Node9 -->
<g id="edge9_Node000001_Node000009" class="edge">
<title>Node1&#45;&gt;Node9</title>
<g id="a_edge9_Node000001_Node000009"><a xlink:title=" ">
<path fill="none" stroke="#63b8ff" d="M85.39,-159.35C113.72,-135.78 162.28,-98.59 210,-77 218.41,-73.2 227.68,-70.08 236.81,-67.56"/>
<polygon fill="#63b8ff" stroke="#63b8ff" points="83.01,-156.78 77.61,-165.9 87.51,-162.13 83.01,-156.78"/>
</a>
</g>
</g>
<!-- Node10 -->
<g id="Node000010" class="node">
<title>Node10</title>
<g id="a_Node000010"><a xlink:href="classDGtal_1_1StarShaped2D.html" target="_top" xlink:title=" ">
<polygon fill="white" stroke="#666666" points="347.5,-30 228.5,-30 228.5,0 347.5,0 347.5,-30"/>
<text text-anchor="start" x="236.5" y="-18" font-family="FreeSans" font-size="10.00">DGtal::StarShaped2D</text>
<text text-anchor="middle" x="288" y="-7" font-family="FreeSans" font-size="10.00">&lt; Space &gt;</text>
</a>
</g>
</g>
<!-- Node1&#45;&gt;Node10 -->
<g id="edge10_Node000001_Node000010" class="edge">
<title>Node1&#45;&gt;Node10</title>
<g id="a_edge10_Node000001_Node000010"><a xlink:title=" ">
<path fill="none" stroke="orange" stroke-dasharray="5,2" d="M72.8,-156.75C85.95,-132.83 108.77,-96.54 137,-73 163.16,-51.18 198.45,-36.99 228.23,-28.1"/>
<polygon fill="orange" stroke="orange" points="69.56,-155.39 67.93,-165.86 75.73,-158.69 69.56,-155.39"/>
</a>
</g>
<text text-anchor="middle" x="164.5" y="-76" font-family="FreeSans" font-size="10.00" fill="grey"> &lt; Space &gt;</text>
</g>
<!-- Node4&#45;&gt;Node2 -->
<g id="edge4_Node000004_Node000002" class="edge">
<title>Node4&#45;&gt;Node2</title>
<g id="a_edge4_Node000004_Node000002"><a xlink:title=" ">
<path fill="none" stroke="orange" stroke-dasharray="5,2" d="M352.85,-266.35C391.67,-273.24 440.66,-281.95 477.44,-288.48"/>
<polygon fill="orange" stroke="orange" points="353.17,-262.85 342.71,-264.54 351.94,-269.74 353.17,-262.85"/>
</a>
</g>
<text text-anchor="middle" x="411.5" y="-284" font-family="FreeSans" font-size="10.00" fill="grey"> &lt; Space &gt;</text>
</g>
</g>
</svg>
