<?xml version="1.0" encoding="UTF-8" standalone="no"?>
<!DOCTYPE svg PUBLIC "-//W3C//DTD SVG 1.1//EN"
 "http://www.w3.org/Graphics/SVG/1.1/DTD/svg11.dtd">
<!-- Generated by graphviz version 2.43.0 (0)
 -->
<!-- Title: DGtal::CountedConstPtrOrConstPtr&lt; T &gt; Pages: 1 -->
<svg width="526pt" height="716pt"
 viewBox="0.00 0.00 526.00 716.31" xmlns="http://www.w3.org/2000/svg" xmlns:xlink="http://www.w3.org/1999/xlink">
<g id="graph0" class="graph" transform="scale(1 1) rotate(0) translate(4 712.31)">
<title>DGtal::CountedConstPtrOrConstPtr&lt; T &gt;</title>
<polygon fill="white" stroke="transparent" points="-4,4 -4,-712.31 522,-712.31 522,4 -4,4"/>
<!-- Node1 -->
<g id="node1" class="node">
<title>Node1</title>
<g id="a_node1"><a xlink:title="Aim: Smart or simple const pointer on T. It can be a smart pointer based on reference counts or a sim...">
<polygon fill="#bfbfbf" stroke="black" points="0,-334.31 0,-364.31 143,-364.31 143,-334.31 0,-334.31"/>
<text text-anchor="start" x="8" y="-352.31" font-family="FreeSans" font-size="10.00">DGtal::CountedConstPtrOr</text>
<text text-anchor="middle" x="71.5" y="-341.31" font-family="FreeSans" font-size="10.00">ConstPtr&lt; T &gt;</text>
</a>
</g>
</g>
<!-- Node2 -->
<g id="node2" class="node">
<title>Node2</title>
<g id="a_node2"><a xlink:href="classDGtal_1_1CountedConstPtrOrConstPtr.html" target="_top" xlink:title=" ">
<polygon fill="white" stroke="black" points="348,-665.31 348,-695.31 491,-695.31 491,-665.31 348,-665.31"/>
<text text-anchor="start" x="356" y="-683.31" font-family="FreeSans" font-size="10.00">DGtal::CountedConstPtrOr</text>
<text text-anchor="middle" x="419.5" y="-672.31" font-family="FreeSans" font-size="10.00">ConstPtr&lt; Surface &gt;</text>
</a>
</g>
</g>
<!-- Node1&#45;&gt;Node2 -->
<g id="edge1" class="edge">
<title>Node1&#45;&gt;Node2</title>
<path fill="none" stroke="orange" stroke-dasharray="5,2" d="M76.02,-374.46C85.93,-441.45 116.31,-621.53 161,-658.31 212.54,-700.72 291.12,-701.27 347.92,-694.29"/>
<polygon fill="orange" stroke="orange" points="79.45,-373.77 74.55,-364.37 72.53,-374.77 79.45,-373.77"/>
<text text-anchor="middle" x="232" y="-700.31" font-family="FreeSans" font-size="10.00"> &lt; Surface &gt;</text>
</g>
<!-- Node3 -->
<g id="node3" class="node">
<title>Node3</title>
<g id="a_node3"><a xlink:href="classDGtal_1_1CountedConstPtrOrConstPtr.html" target="_top" xlink:title=" ">
<polygon fill="white" stroke="black" points="321,-616.31 321,-646.31 518,-646.31 518,-616.31 321,-616.31"/>
<text text-anchor="start" x="329" y="-634.31" font-family="FreeSans" font-size="10.00">DGtal::CountedConstPtrOr</text>
<text text-anchor="middle" x="419.5" y="-623.31" font-family="FreeSans" font-size="10.00">ConstPtr&lt; DigitalSurfaceContainer &gt;</text>
</a>
</g>
</g>
<!-- Node1&#45;&gt;Node3 -->
<g id="edge2" class="edge">
<title>Node1&#45;&gt;Node3</title>
<path fill="none" stroke="orange" stroke-dasharray="5,2" d="M72.86,-374.68C75.1,-427.23 88.35,-547.84 161,-605.31 205.31,-640.36 268.22,-647.25 320.77,-645.19"/>
<polygon fill="orange" stroke="orange" points="76.35,-374.43 72.53,-364.55 69.36,-374.66 76.35,-374.43"/>
<text text-anchor="middle" x="232" y="-648.31" font-family="FreeSans" font-size="10.00"> &lt; DigitalSurfaceContainer &gt;</text>
</g>
<!-- Node4 -->
<g id="node4" class="node">
<title>Node4</title>
<g id="a_node4"><a xlink:href="classDGtal_1_1CountedConstPtrOrConstPtr.html" target="_top" xlink:title=" ">
<polygon fill="white" stroke="black" points="328,-567.31 328,-597.31 511,-597.31 511,-567.31 328,-567.31"/>
<text text-anchor="start" x="336" y="-585.31" font-family="FreeSans" font-size="10.00">DGtal::CountedConstPtrOr</text>
<text text-anchor="middle" x="419.5" y="-574.31" font-family="FreeSans" font-size="10.00">ConstPtr&lt; DGtal::DigitalSurface &gt;</text>
</a>
</g>
</g>
<!-- Node1&#45;&gt;Node4 -->
<g id="edge3" class="edge">
<title>Node1&#45;&gt;Node4</title>
<path fill="none" stroke="orange" stroke-dasharray="5,2" d="M75.75,-374.29C82.8,-417.46 103.76,-505.53 161,-548.31 208.23,-583.6 274.38,-591.72 327.81,-591.2"/>
<polygon fill="orange" stroke="orange" points="79.2,-373.69 74.25,-364.33 72.28,-374.74 79.2,-373.69"/>
<text text-anchor="middle" x="232" y="-593.31" font-family="FreeSans" font-size="10.00"> &lt; DGtal::DigitalSurface &gt;</text>
</g>
<!-- Node5 -->
<g id="node5" class="node">
<title>Node5</title>
<g id="a_node5"><a xlink:href="classDGtal_1_1CountedConstPtrOrConstPtr.html" target="_top" xlink:title=" ">
<polygon fill="white" stroke="black" points="322.5,-506.81 322.5,-547.81 516.5,-547.81 516.5,-506.81 322.5,-506.81"/>
<text text-anchor="start" x="330.5" y="-535.81" font-family="FreeSans" font-size="10.00">DGtal::CountedConstPtrOr</text>
<text text-anchor="start" x="330.5" y="-524.81" font-family="FreeSans" font-size="10.00">ConstPtr&lt; DGtal::VoronoiCovariance</text>
<text text-anchor="middle" x="419.5" y="-513.81" font-family="FreeSans" font-size="10.00">MeasureOnDigitalSurface &gt;</text>
</a>
</g>
</g>
<!-- Node1&#45;&gt;Node5 -->
<g id="edge4" class="edge">
<title>Node1&#45;&gt;Node5</title>
<path fill="none" stroke="orange" stroke-dasharray="5,2" d="M82.81,-374.24C96.29,-403.53 122.77,-451.32 161,-476.31 208.59,-507.41 270.95,-520.31 322.38,-525.36"/>
<polygon fill="orange" stroke="orange" points="85.84,-372.43 78.59,-364.71 79.44,-375.27 85.84,-372.43"/>
<text text-anchor="start" x="162" y="-536.31" font-family="FreeSans" font-size="10.00"> &lt; DGtal::VoronoiCovariance</text>
<text text-anchor="middle" x="232" y="-525.31" font-family="FreeSans" font-size="10.00">MeasureOnDigitalSurface &gt;</text>
</g>
<!-- Node6 -->
<g id="node6" class="node">
<title>Node6</title>
<g id="a_node6"><a xlink:href="classDGtal_1_1CountedConstPtrOrConstPtr.html" target="_top" xlink:title=" ">
<polygon fill="white" stroke="black" points="348,-457.31 348,-487.31 491,-487.31 491,-457.31 348,-457.31"/>
<text text-anchor="start" x="356" y="-475.31" font-family="FreeSans" font-size="10.00">DGtal::CountedConstPtrOr</text>
<text text-anchor="middle" x="419.5" y="-464.31" font-family="FreeSans" font-size="10.00">ConstPtr&lt; Metric &gt;</text>
</a>
</g>
</g>
<!-- Node1&#45;&gt;Node6 -->
<g id="edge5" class="edge">
<title>Node1&#45;&gt;Node6</title>
<path fill="none" stroke="orange" stroke-dasharray="5,2" d="M93.32,-371.69C110.02,-388.26 134.91,-410 161,-422.31 220.31,-450.29 294.37,-462.61 347.82,-468.04"/>
<polygon fill="orange" stroke="orange" points="95.75,-369.18 86.24,-364.5 90.76,-374.08 95.75,-369.18"/>
<text text-anchor="middle" x="232" y="-464.31" font-family="FreeSans" font-size="10.00"> &lt; Metric &gt;</text>
</g>
<!-- Node7 -->
<g id="node7" class="node">
<title>Node7</title>
<g id="a_node7"><a xlink:href="classDGtal_1_1CountedConstPtrOrConstPtr.html" target="_top" xlink:title=" ">
<polygon fill="white" stroke="black" points="327,-408.31 327,-438.31 512,-438.31 512,-408.31 327,-408.31"/>
<text text-anchor="start" x="335" y="-426.31" font-family="FreeSans" font-size="10.00">DGtal::CountedConstPtrOr</text>
<text text-anchor="middle" x="419.5" y="-415.31" font-family="FreeSans" font-size="10.00">ConstPtr&lt; VCMOnDigitalSurface &gt;</text>
</a>
</g>
</g>
<!-- Node1&#45;&gt;Node7 -->
<g id="edge6" class="edge">
<title>Node1&#45;&gt;Node7</title>
<path fill="none" stroke="orange" stroke-dasharray="5,2" d="M120.51,-367.81C133.52,-372.35 147.68,-376.89 161,-380.31 215.33,-394.25 277.3,-404.76 326.84,-411.9"/>
<polygon fill="orange" stroke="orange" points="121.42,-364.42 110.83,-364.35 119.07,-371.01 121.42,-364.42"/>
<text text-anchor="middle" x="232" y="-410.31" font-family="FreeSans" font-size="10.00"> &lt; VCMOnDigitalSurface &gt;</text>
</g>
<!-- Node8 -->
<g id="node8" class="node">
<title>Node8</title>
<g id="a_node8"><a xlink:href="classDGtal_1_1CountedConstPtrOrConstPtr.html" target="_top" xlink:title=" ">
<polygon fill="white" stroke="black" points="348,-359.31 348,-389.31 491,-389.31 491,-359.31 348,-359.31"/>
<text text-anchor="start" x="356" y="-377.31" font-family="FreeSans" font-size="10.00">DGtal::CountedConstPtrOr</text>
<text text-anchor="middle" x="419.5" y="-366.31" font-family="FreeSans" font-size="10.00">ConstPtr&lt; DummyTbl &gt;</text>
</a>
</g>
</g>
<!-- Node1&#45;&gt;Node8 -->
<g id="edge7" class="edge">
<title>Node1&#45;&gt;Node8</title>
<path fill="none" stroke="orange" stroke-dasharray="5,2" d="M153.37,-355.15C212.28,-359.41 291.32,-365.12 347.74,-369.2"/>
<polygon fill="orange" stroke="orange" points="153.58,-351.66 143.35,-354.43 153.07,-358.64 153.58,-351.66"/>
<text text-anchor="middle" x="232" y="-368.31" font-family="FreeSans" font-size="10.00"> &lt; DummyTbl &gt;</text>
</g>
<!-- Node9 -->
<g id="node9" class="node">
<title>Node9</title>
<g id="a_node9"><a xlink:href="classDGtal_1_1CountedConstPtrOrConstPtr.html" target="_top" xlink:title=" ">
<polygon fill="white" stroke="black" points="332,-310.31 332,-340.31 507,-340.31 507,-310.31 332,-310.31"/>
<text text-anchor="start" x="340" y="-328.31" font-family="FreeSans" font-size="10.00">DGtal::CountedConstPtrOr</text>
<text text-anchor="middle" x="419.5" y="-317.31" font-family="FreeSans" font-size="10.00">ConstPtr&lt; ConvolutionFunctor &gt;</text>
</a>
</g>
</g>
<!-- Node1&#45;&gt;Node9 -->
<g id="edge8" class="edge">
<title>Node1&#45;&gt;Node9</title>
<path fill="none" stroke="orange" stroke-dasharray="5,2" d="M153.22,-341.92C155.84,-341.71 158.44,-341.5 161,-341.31 217.83,-336.98 281.79,-333 331.74,-330.09"/>
<polygon fill="orange" stroke="orange" points="152.69,-338.45 143.01,-342.76 153.27,-345.43 152.69,-338.45"/>
<text text-anchor="middle" x="232" y="-344.31" font-family="FreeSans" font-size="10.00"> &lt; ConvolutionFunctor &gt;</text>
</g>
<!-- Node10 -->
<g id="node10" class="node">
<title>Node10</title>
<g id="a_node10"><a xlink:href="classDGtal_1_1CountedConstPtrOrConstPtr.html" target="_top" xlink:title=" ">
<polygon fill="white" stroke="black" points="340.5,-261.31 340.5,-291.31 498.5,-291.31 498.5,-261.31 340.5,-261.31"/>
<text text-anchor="start" x="348.5" y="-279.31" font-family="FreeSans" font-size="10.00">DGtal::CountedConstPtrOr</text>
<text text-anchor="middle" x="419.5" y="-268.31" font-family="FreeSans" font-size="10.00">ConstPtr&lt; EuclideanShape &gt;</text>
</a>
</g>
</g>
<!-- Node1&#45;&gt;Node10 -->
<g id="edge9" class="edge">
<title>Node1&#45;&gt;Node10</title>
<path fill="none" stroke="orange" stroke-dasharray="5,2" d="M117.04,-330.69C130.93,-325.43 146.43,-320.11 161,-316.31 220.31,-300.82 288.98,-290.52 340.48,-284.25"/>
<polygon fill="orange" stroke="orange" points="115.77,-327.43 107.71,-334.31 118.3,-333.96 115.77,-327.43"/>
<text text-anchor="middle" x="232" y="-319.31" font-family="FreeSans" font-size="10.00"> &lt; EuclideanShape &gt;</text>
</g>
<!-- Node11 -->
<g id="node11" class="node">
<title>Node11</title>
<g id="a_node11"><a xlink:href="classDGtal_1_1CountedConstPtrOrConstPtr.html" target="_top" xlink:title=" ">
<polygon fill="white" stroke="black" points="328.5,-200.81 328.5,-241.81 510.5,-241.81 510.5,-200.81 328.5,-200.81"/>
<text text-anchor="start" x="336.5" y="-229.81" font-family="FreeSans" font-size="10.00">DGtal::CountedConstPtrOr</text>
<text text-anchor="start" x="336.5" y="-218.81" font-family="FreeSans" font-size="10.00">ConstPtr&lt; DGtal::DiscreteExterior</text>
<text text-anchor="middle" x="419.5" y="-207.81" font-family="FreeSans" font-size="10.00">Calculus &gt;</text>
</a>
</g>
</g>
<!-- Node1&#45;&gt;Node11 -->
<g id="edge10" class="edge">
<title>Node1&#45;&gt;Node11</title>
<path fill="none" stroke="orange" stroke-dasharray="5,2" d="M89.69,-325.95C105.79,-305.93 131.7,-278.06 161,-263.31 212.69,-237.29 276.91,-226.78 328.29,-222.78"/>
<polygon fill="orange" stroke="orange" points="86.81,-323.96 83.42,-333.99 92.33,-328.26 86.81,-323.96"/>
<text text-anchor="start" x="168.5" y="-277.31" font-family="FreeSans" font-size="10.00"> &lt; DGtal::DiscreteExterior</text>
<text text-anchor="middle" x="232" y="-266.31" font-family="FreeSans" font-size="10.00">Calculus &gt;</text>
</g>
<!-- Node12 -->
<g id="node12" class="node">
<title>Node12</title>
<g id="a_node12"><a xlink:href="classDGtal_1_1CountedConstPtrOrConstPtr.html" target="_top" xlink:title=" ">
<polygon fill="white" stroke="black" points="348,-151.31 348,-181.31 491,-181.31 491,-151.31 348,-151.31"/>
<text text-anchor="start" x="356" y="-169.31" font-family="FreeSans" font-size="10.00">DGtal::CountedConstPtrOr</text>
<text text-anchor="middle" x="419.5" y="-158.31" font-family="FreeSans" font-size="10.00">ConstPtr&lt; KSpace &gt;</text>
</a>
</g>
</g>
<!-- Node1&#45;&gt;Node12 -->
<g id="edge11" class="edge">
<title>Node1&#45;&gt;Node12</title>
<path fill="none" stroke="orange" stroke-dasharray="5,2" d="M80.94,-324.72C93.24,-292.83 119.29,-238.03 161,-210.31 216.34,-173.53 292.67,-164.44 347.84,-163.39"/>
<polygon fill="orange" stroke="orange" points="77.62,-323.61 77.42,-334.2 84.18,-326.04 77.62,-323.61"/>
<text text-anchor="middle" x="232" y="-213.31" font-family="FreeSans" font-size="10.00"> &lt; KSpace &gt;</text>
</g>
<!-- Node13 -->
<g id="node13" class="node">
<title>Node13</title>
<g id="a_node13"><a xlink:href="classDGtal_1_1CountedConstPtrOrConstPtr.html" target="_top" xlink:title=" ">
<polygon fill="white" stroke="black" points="348,-102.31 348,-132.31 491,-132.31 491,-102.31 348,-102.31"/>
<text text-anchor="start" x="356" y="-120.31" font-family="FreeSans" font-size="10.00">DGtal::CountedConstPtrOr</text>
<text text-anchor="middle" x="419.5" y="-109.31" font-family="FreeSans" font-size="10.00">ConstPtr&lt; ShapeA &gt;</text>
</a>
</g>
</g>
<!-- Node1&#45;&gt;Node13 -->
<g id="edge12" class="edge">
<title>Node1&#45;&gt;Node13</title>
<path fill="none" stroke="orange" stroke-dasharray="5,2" d="M75.73,-324.31C82.76,-281.1 103.68,-192.98 161,-150.31 214.42,-110.55 291.95,-105.69 347.97,-108.69"/>
<polygon fill="orange" stroke="orange" points="72.26,-323.86 74.23,-334.27 79.18,-324.91 72.26,-323.86"/>
<text text-anchor="middle" x="232" y="-153.31" font-family="FreeSans" font-size="10.00"> &lt; ShapeA &gt;</text>
</g>
<!-- Node14 -->
<g id="node14" class="node">
<title>Node14</title>
<g id="a_node14"><a xlink:href="classDGtal_1_1CountedConstPtrOrConstPtr.html" target="_top" xlink:title=" ">
<polygon fill="white" stroke="black" points="344,-53.31 344,-83.31 495,-83.31 495,-53.31 344,-53.31"/>
<text text-anchor="start" x="352" y="-71.31" font-family="FreeSans" font-size="10.00">DGtal::CountedConstPtrOr</text>
<text text-anchor="middle" x="419.5" y="-60.31" font-family="FreeSans" font-size="10.00">ConstPtr&lt; PointPredicate &gt;</text>
</a>
</g>
</g>
<!-- Node1&#45;&gt;Node14 -->
<g id="edge13" class="edge">
<title>Node1&#45;&gt;Node14</title>
<path fill="none" stroke="orange" stroke-dasharray="5,2" d="M72.84,-323.91C75.05,-271.32 88.24,-150.64 161,-93.31 212.07,-53.07 287.71,-50.34 343.81,-55.57"/>
<polygon fill="orange" stroke="orange" points="69.34,-323.95 72.52,-334.05 76.33,-324.17 69.34,-323.95"/>
<text text-anchor="middle" x="232" y="-96.31" font-family="FreeSans" font-size="10.00"> &lt; PointPredicate &gt;</text>
</g>
<!-- Node15 -->
<g id="node15" class="node">
<title>Node15</title>
<g id="a_node15"><a xlink:href="classDGtal_1_1CountedConstPtrOrConstPtr.html" target="_top" xlink:title=" ">
<polygon fill="white" stroke="black" points="348,-4.31 348,-34.31 491,-34.31 491,-4.31 348,-4.31"/>
<text text-anchor="start" x="356" y="-22.31" font-family="FreeSans" font-size="10.00">DGtal::CountedConstPtrOr</text>
<text text-anchor="middle" x="419.5" y="-11.31" font-family="FreeSans" font-size="10.00">ConstPtr&lt; Shape &gt;</text>
</a>
</g>
</g>
<!-- Node1&#45;&gt;Node15 -->
<g id="edge14" class="edge">
<title>Node1&#45;&gt;Node15</title>
<path fill="none" stroke="orange" stroke-dasharray="5,2" d="M75.97,-323.96C85.76,-256.48 115.86,-75.09 161,-38.31 212.61,3.73 290.99,3.39 347.72,-4.31"/>
<polygon fill="orange" stroke="orange" points="72.47,-323.74 74.53,-334.13 79.4,-324.72 72.47,-323.74"/>
<text text-anchor="middle" x="232" y="-41.31" font-family="FreeSans" font-size="10.00"> &lt; Shape &gt;</text>
</g>
</g>
</svg>
