<?xml version="1.0" encoding="UTF-8" standalone="no"?>
<!DOCTYPE svg PUBLIC "-//W3C//DTD SVG 1.1//EN"
 "http://www.w3.org/Graphics/SVG/1.1/DTD/svg11.dtd">
<!-- Generated by graphviz version 2.43.0 (0)
 -->
<!-- Title: DGtal::ImageContainerBySTLMap&lt; TDomain, TValue &gt; Pages: 1 -->
<svg width="187pt" height="106pt"
 viewBox="0.00 0.00 187.00 106.00" xmlns="http://www.w3.org/2000/svg" xmlns:xlink="http://www.w3.org/1999/xlink">
<g id="graph0" class="graph" transform="scale(1 1) rotate(0) translate(4 102)">
<title>DGtal::ImageContainerBySTLMap&lt; TDomain, TValue &gt;</title>
<polygon fill="white" stroke="transparent" points="-4,4 -4,-102 183,-102 183,4 -4,4"/>
<!-- Node1 -->
<g id="node1" class="node">
<title>Node1</title>
<g id="a_node1"><a xlink:title=" ">
<polygon fill="#bfbfbf" stroke="black" points="0,-0.5 0,-30.5 179,-30.5 179,-0.5 0,-0.5"/>
<text text-anchor="start" x="8" y="-18.5" font-family="FreeSans" font-size="10.00">DGtal::ImageContainerBySTLMap</text>
<text text-anchor="middle" x="89.5" y="-7.5" font-family="FreeSans" font-size="10.00">&lt; TDomain, TValue &gt;</text>
</a>
</g>
</g>
<!-- Node2 -->
<g id="node2" class="node">
<title>Node2</title>
<g id="a_node2"><a xlink:title="STL class.">
<polygon fill="white" stroke="#bfbfbf" points="29,-67.5 29,-97.5 150,-97.5 150,-67.5 29,-67.5"/>
<text text-anchor="start" x="37" y="-85.5" font-family="FreeSans" font-size="10.00">std::map&lt; TDomain::</text>
<text text-anchor="middle" x="89.5" y="-74.5" font-family="FreeSans" font-size="10.00">Point, TValue &gt;</text>
</a>
</g>
</g>
<!-- Node2&#45;&gt;Node1 -->
<g id="edge1" class="edge">
<title>Node2&#45;&gt;Node1</title>
<path fill="none" stroke="midnightblue" d="M89.5,-57.11C89.5,-48.15 89.5,-38.32 89.5,-30.58"/>
<polygon fill="midnightblue" stroke="midnightblue" points="86,-57.4 89.5,-67.4 93,-57.4 86,-57.4"/>
</g>
</g>
</svg>
