<?xml version="1.0" encoding="UTF-8" standalone="no"?>
<!DOCTYPE svg PUBLIC "-//W3C//DTD SVG 1.1//EN"
 "http://www.w3.org/Graphics/SVG/1.1/DTD/svg11.dtd">
<!-- Generated by graphviz version 2.43.0 (0)
 -->
<!-- Title: DGtal::ImageContainerBySTLVector&lt; TDomain, TValue &gt; Pages: 1 -->
<svg width="697pt" height="88pt"
 viewBox="0.00 0.00 697.00 88.00" xmlns="http://www.w3.org/2000/svg" xmlns:xlink="http://www.w3.org/1999/xlink">
<g id="graph0" class="graph" transform="scale(1 1) rotate(0) translate(4 84)">
<title>DGtal::ImageContainerBySTLVector&lt; TDomain, TValue &gt;</title>
<polygon fill="white" stroke="transparent" points="-4,4 -4,-84 693,-84 693,4 -4,4"/>
<!-- Node1 -->
<g id="node1" class="node">
<title>Node1</title>
<g id="a_node1"><a xlink:title=" ">
<polygon fill="#bfbfbf" stroke="black" points="161,-24.5 161,-54.5 349,-54.5 349,-24.5 161,-24.5"/>
<text text-anchor="start" x="169" y="-42.5" font-family="FreeSans" font-size="10.00">DGtal::ImageContainerBySTLVector</text>
<text text-anchor="middle" x="255" y="-31.5" font-family="FreeSans" font-size="10.00">&lt; TDomain, TValue &gt;</text>
</a>
</g>
</g>
<!-- Node3 -->
<g id="node3" class="node">
<title>Node3</title>
<g id="a_node3"><a xlink:href="classDGtal_1_1ImageContainerBySTLVector.html" target="_top" xlink:title=" ">
<polygon fill="white" stroke="black" points="501,-49.5 501,-79.5 689,-79.5 689,-49.5 501,-49.5"/>
<text text-anchor="start" x="509" y="-67.5" font-family="FreeSans" font-size="10.00">DGtal::ImageContainerBySTLVector</text>
<text text-anchor="middle" x="595" y="-56.5" font-family="FreeSans" font-size="10.00">&lt; Domain, Value &gt;</text>
</a>
</g>
</g>
<!-- Node1&#45;&gt;Node3 -->
<g id="edge2" class="edge">
<title>Node1&#45;&gt;Node3</title>
<path fill="none" stroke="orange" stroke-dasharray="5,2" d="M359.35,-47.14C404.43,-50.48 456.89,-54.36 500.76,-57.6"/>
<polygon fill="orange" stroke="orange" points="359.49,-43.64 349.25,-46.4 358.97,-50.63 359.49,-43.64"/>
<text text-anchor="middle" x="425" y="-58.5" font-family="FreeSans" font-size="10.00"> &lt; Domain, Value &gt;</text>
</g>
<!-- Node4 -->
<g id="node4" class="node">
<title>Node4</title>
<g id="a_node4"><a xlink:href="classDGtal_1_1ImageContainerBySTLVector.html" target="_top" xlink:title=" ">
<polygon fill="white" stroke="black" points="501,-0.5 501,-30.5 689,-30.5 689,-0.5 501,-0.5"/>
<text text-anchor="start" x="509" y="-18.5" font-family="FreeSans" font-size="10.00">DGtal::ImageContainerBySTLVector</text>
<text text-anchor="middle" x="595" y="-7.5" font-family="FreeSans" font-size="10.00">&lt; Domain, Storage * &gt;</text>
</a>
</g>
</g>
<!-- Node1&#45;&gt;Node4 -->
<g id="edge3" class="edge">
<title>Node1&#45;&gt;Node4</title>
<path fill="none" stroke="orange" stroke-dasharray="5,2" d="M359.32,-32.05C361.91,-31.86 364.47,-31.68 367,-31.5 411.04,-28.36 459.88,-24.91 500.95,-22.03"/>
<polygon fill="orange" stroke="orange" points="358.99,-28.56 349.27,-32.77 359.49,-35.54 358.99,-28.56"/>
<text text-anchor="middle" x="425" y="-34.5" font-family="FreeSans" font-size="10.00"> &lt; Domain, Storage * &gt;</text>
</g>
<!-- Node2 -->
<g id="node2" class="node">
<title>Node2</title>
<g id="a_node2"><a xlink:title="STL class.">
<polygon fill="white" stroke="#bfbfbf" points="0,-30 0,-49 124,-49 124,-30 0,-30"/>
<text text-anchor="middle" x="62" y="-37" font-family="FreeSans" font-size="10.00">std::vector&lt; TValue &gt;</text>
</a>
</g>
</g>
<!-- Node2&#45;&gt;Node1 -->
<g id="edge1" class="edge">
<title>Node2&#45;&gt;Node1</title>
<path fill="none" stroke="midnightblue" d="M134.24,-39.5C142.9,-39.5 151.85,-39.5 160.77,-39.5"/>
<polygon fill="midnightblue" stroke="midnightblue" points="134.22,-36 124.22,-39.5 134.22,-43 134.22,-36"/>
</g>
</g>
</svg>
