<?xml version="1.0" encoding="UTF-8" standalone="no"?>
<!DOCTYPE svg PUBLIC "-//W3C//DTD SVG 1.1//EN"
 "http://www.w3.org/Graphics/SVG/1.1/DTD/svg11.dtd">
<!-- Generated by graphviz version 2.43.0 (0)
 -->
<!-- Title: DGtal::ArithmeticalDSL&lt; TCoordinate, TInteger, adjacency &gt; Pages: 1 -->
<svg width="722pt" height="198pt"
 viewBox="0.00 0.00 722.00 197.50" xmlns="http://www.w3.org/2000/svg" xmlns:xlink="http://www.w3.org/1999/xlink">
<g id="graph0" class="graph" transform="scale(1 1) rotate(0) translate(4 193.5)">
<title>DGtal::ArithmeticalDSL&lt; TCoordinate, TInteger, adjacency &gt;</title>
<polygon fill="white" stroke="transparent" points="-4,4 -4,-193.5 718,-193.5 718,4 -4,4"/>
<!-- Node1 -->
<g id="node1" class="node">
<title>Node1</title>
<g id="a_node1"><a xlink:title="Aim: This class represents a naive (resp. standard) digital straight line (DSL), ie....">
<polygon fill="#bfbfbf" stroke="black" points="0,-86.5 0,-127.5 136,-127.5 136,-86.5 0,-86.5"/>
<text text-anchor="start" x="8" y="-115.5" font-family="FreeSans" font-size="10.00">DGtal::ArithmeticalDSL</text>
<text text-anchor="start" x="8" y="-104.5" font-family="FreeSans" font-size="10.00">&lt; TCoordinate, TInteger,</text>
<text text-anchor="middle" x="68" y="-93.5" font-family="FreeSans" font-size="10.00"> adjacency &gt;</text>
</a>
</g>
</g>
<!-- Node2 -->
<g id="node2" class="node">
<title>Node2</title>
<g id="a_node2"><a xlink:href="classDGtal_1_1ArithmeticalDSL.html" target="_top" xlink:title=" ">
<polygon fill="white" stroke="black" points="333,-159 333,-189 507,-189 507,-159 333,-159"/>
<text text-anchor="start" x="341" y="-177" font-family="FreeSans" font-size="10.00">DGtal::ArithmeticalDSL</text>
<text text-anchor="middle" x="420" y="-166" font-family="FreeSans" font-size="10.00">&lt; TCoordinate, TCoordinate, 8 &gt;</text>
</a>
</g>
</g>
<!-- Node1&#45;&gt;Node2 -->
<g id="edge1" class="edge">
<title>Node1&#45;&gt;Node2</title>
<path fill="none" stroke="orange" stroke-dasharray="5,2" d="M139.79,-130.4C144.57,-131.7 149.34,-132.92 154,-134 213.03,-147.74 280.59,-157.85 332.72,-164.47"/>
<polygon fill="orange" stroke="orange" points="140.54,-126.98 129.96,-127.63 138.64,-133.72 140.54,-126.98"/>
<text text-anchor="middle" x="234.5" y="-164" font-family="FreeSans" font-size="10.00"> &lt; TCoordinate, TCoordinate, 8 &gt;</text>
</g>
<!-- Node4 -->
<g id="node4" class="node">
<title>Node4</title>
<g id="a_node4"><a xlink:href="classDGtal_1_1ArithmeticalDSL.html" target="_top" xlink:title=" ">
<polygon fill="white" stroke="black" points="347.5,-110 347.5,-140 492.5,-140 492.5,-110 347.5,-110"/>
<text text-anchor="start" x="355.5" y="-128" font-family="FreeSans" font-size="10.00">DGtal::ArithmeticalDSL</text>
<text text-anchor="middle" x="420" y="-117" font-family="FreeSans" font-size="10.00">&lt; Coordinate, Integer, 8 &gt;</text>
</a>
</g>
</g>
<!-- Node1&#45;&gt;Node4 -->
<g id="edge3" class="edge">
<title>Node1&#45;&gt;Node4</title>
<path fill="none" stroke="orange" stroke-dasharray="5,2" d="M146.25,-110.97C206.24,-114.06 288.81,-118.3 347.34,-121.31"/>
<polygon fill="orange" stroke="orange" points="146.24,-107.47 136.07,-110.45 145.88,-114.46 146.24,-107.47"/>
<text text-anchor="middle" x="234.5" y="-122" font-family="FreeSans" font-size="10.00"> &lt; Coordinate, Integer, 8 &gt;</text>
</g>
<!-- Node5 -->
<g id="node5" class="node">
<title>Node5</title>
<g id="a_node5"><a xlink:href="classDGtal_1_1ArithmeticalDSL.html" target="_top" xlink:title=" ">
<polygon fill="white" stroke="black" points="333,-61 333,-91 507,-91 507,-61 333,-61"/>
<text text-anchor="start" x="341" y="-79" font-family="FreeSans" font-size="10.00">DGtal::ArithmeticalDSL</text>
<text text-anchor="middle" x="420" y="-68" font-family="FreeSans" font-size="10.00">&lt; TCoordinate, TCoordinate, 4 &gt;</text>
</a>
</g>
</g>
<!-- Node1&#45;&gt;Node5 -->
<g id="edge4" class="edge">
<title>Node1&#45;&gt;Node5</title>
<path fill="none" stroke="orange" stroke-dasharray="5,2" d="M146.32,-96.82C148.91,-96.53 151.47,-96.26 154,-96 213.67,-89.89 281.07,-84.83 332.97,-81.33"/>
<polygon fill="orange" stroke="orange" points="145.78,-93.35 136.24,-97.96 146.57,-100.31 145.78,-93.35"/>
<text text-anchor="middle" x="234.5" y="-99" font-family="FreeSans" font-size="10.00"> &lt; TCoordinate, TCoordinate, 4 &gt;</text>
</g>
<!-- Node7 -->
<g id="node7" class="node">
<title>Node7</title>
<g id="a_node7"><a xlink:href="classDGtal_1_1ArithmeticalDSL.html" target="_top" xlink:title=" ">
<polygon fill="white" stroke="black" points="355.5,-0.5 355.5,-41.5 484.5,-41.5 484.5,-0.5 355.5,-0.5"/>
<text text-anchor="start" x="363.5" y="-29.5" font-family="FreeSans" font-size="10.00">DGtal::ArithmeticalDSL</text>
<text text-anchor="start" x="363.5" y="-18.5" font-family="FreeSans" font-size="10.00">&lt; Coordinate, Integer,</text>
<text text-anchor="middle" x="420" y="-7.5" font-family="FreeSans" font-size="10.00"> adjacency &gt;</text>
</a>
</g>
</g>
<!-- Node1&#45;&gt;Node7 -->
<g id="edge6" class="edge">
<title>Node1&#45;&gt;Node7</title>
<path fill="none" stroke="orange" stroke-dasharray="5,2" d="M105.3,-80.74C119.79,-71.48 137.05,-61.92 154,-56 220.27,-32.87 300.73,-24.85 355.49,-22.16"/>
<polygon fill="orange" stroke="orange" points="103.09,-78.01 96.66,-86.43 106.94,-83.86 103.09,-78.01"/>
<text text-anchor="start" x="178.5" y="-70" font-family="FreeSans" font-size="10.00"> &lt; Coordinate, Integer,</text>
<text text-anchor="middle" x="234.5" y="-59" font-family="FreeSans" font-size="10.00"> adjacency &gt;</text>
</g>
<!-- Node3 -->
<g id="node3" class="node">
<title>Node3</title>
<g id="a_node3"><a xlink:href="classDGtal_1_1NaiveDSL.html" target="_top" xlink:title="Aim: This class is an alias of ArithmeticalDSS for naive DSL. It represents a naive digital straight ...">
<polygon fill="white" stroke="black" points="544,-159 544,-189 714,-189 714,-159 544,-159"/>
<text text-anchor="start" x="552" y="-177" font-family="FreeSans" font-size="10.00">DGtal::NaiveDSL&lt; TCoordinate,</text>
<text text-anchor="middle" x="629" y="-166" font-family="FreeSans" font-size="10.00"> TInteger &gt;</text>
</a>
</g>
</g>
<!-- Node2&#45;&gt;Node3 -->
<g id="edge2" class="edge">
<title>Node2&#45;&gt;Node3</title>
<path fill="none" stroke="midnightblue" d="M517.55,-174C526.33,-174 535.18,-174 543.85,-174"/>
<polygon fill="midnightblue" stroke="midnightblue" points="517.29,-170.5 507.29,-174 517.29,-177.5 517.29,-170.5"/>
</g>
<!-- Node6 -->
<g id="node6" class="node">
<title>Node6</title>
<g id="a_node6"><a xlink:href="classDGtal_1_1StandardDSL.html" target="_top" xlink:title="Aim: This class is an alias of ArithmeticalDSS for standard DSL. It represents a standard digital str...">
<polygon fill="white" stroke="black" points="557,-61 557,-91 701,-91 701,-61 557,-61"/>
<text text-anchor="start" x="565" y="-79" font-family="FreeSans" font-size="10.00">DGtal::StandardDSL</text>
<text text-anchor="middle" x="629" y="-68" font-family="FreeSans" font-size="10.00">&lt; TCoordinate, TInteger &gt;</text>
</a>
</g>
</g>
<!-- Node5&#45;&gt;Node6 -->
<g id="edge5" class="edge">
<title>Node5&#45;&gt;Node6</title>
<path fill="none" stroke="midnightblue" d="M517.42,-76C530.73,-76 544.2,-76 556.93,-76"/>
<polygon fill="midnightblue" stroke="midnightblue" points="517.29,-72.5 507.29,-76 517.29,-79.5 517.29,-72.5"/>
</g>
</g>
</svg>
