<?xml version="1.0" encoding="UTF-8" standalone="no"?>
<!DOCTYPE svg PUBLIC "-//W3C//DTD SVG 1.1//EN"
 "http://www.w3.org/Graphics/SVG/1.1/DTD/svg11.dtd">
<!-- Generated by graphviz version 2.43.0 (0)
 -->
<!-- Title: DGtal::IteratorCompletion&lt; TDerived &gt; Pages: 1 -->
<svg width="756pt" height="100pt"
 viewBox="0.00 0.00 756.00 100.00" xmlns="http://www.w3.org/2000/svg" xmlns:xlink="http://www.w3.org/1999/xlink">
<g id="graph0" class="graph" transform="scale(1 1) rotate(0) translate(4 96)">
<title>DGtal::IteratorCompletion&lt; TDerived &gt;</title>
<!-- Node1 -->
<g id="Node000001" class="node">
<title>Node1</title>
<g id="a_Node000001"><a xlink:title="Aim: Class that uses CRTP to add reverse iterators and ranges to a derived class.">
<polygon fill="#999999" stroke="#666666" points="143,-57 0,-57 0,-27 143,-27 143,-57"/>
<text text-anchor="start" x="8" y="-45" font-family="FreeSans" font-size="10.00">DGtal::IteratorCompletion</text>
<text text-anchor="middle" x="71.5" y="-34" font-family="FreeSans" font-size="10.00">&lt; TDerived &gt;</text>
</a>
</g>
</g>
<!-- Node2 -->
<g id="Node000002" class="node">
<title>Node2</title>
<g id="a_Node000002"><a xlink:href="classDGtal_1_1IteratorCompletion.html" target="_top" xlink:title=" ">
<polygon fill="white" stroke="#666666" points="520,-89.5 315,-89.5 315,-48.5 520,-48.5 520,-89.5"/>
<text text-anchor="start" x="323" y="-77.5" font-family="FreeSans" font-size="10.00">DGtal::IteratorCompletion</text>
<text text-anchor="start" x="323" y="-66.5" font-family="FreeSans" font-size="10.00">&lt; ArrayImageAdapter&lt; TArrayIterator,</text>
<text text-anchor="middle" x="417.5" y="-55.5" font-family="FreeSans" font-size="10.00"> HyperRectDomain&lt; TSpace &gt; &gt; &gt;</text>
</a>
</g>
</g>
<!-- Node1&#45;&gt;Node2 -->
<g id="edge1_Node000001_Node000002" class="edge">
<title>Node1&#45;&gt;Node2</title>
<g id="a_edge1_Node000001_Node000002"><a xlink:title=" ">
<path fill="none" stroke="orange" stroke-dasharray="5,2" d="M153.43,-48.35C201.64,-52.14 263.26,-56.97 314.74,-61.01"/>
<polygon fill="orange" stroke="orange" points="153.6,-44.85 143.36,-47.56 153.06,-51.83 153.6,-44.85"/>
</a>
</g>
<text text-anchor="start" x="161" y="-84" font-family="FreeSans" font-size="10.00" fill="grey"> &lt; ArrayImageAdapter</text>
<text text-anchor="start" x="161" y="-73" font-family="FreeSans" font-size="10.00" fill="grey">&lt; TArrayIterator, HyperRect</text>
<text text-anchor="middle" x="229" y="-62" font-family="FreeSans" font-size="10.00" fill="grey">Domain&lt; TSpace &gt; &gt; &gt;</text>
</g>
<!-- Node4 -->
<g id="Node000004" class="node">
<title>Node4</title>
<g id="a_Node000004"><a xlink:href="classDGtal_1_1IteratorCompletion.html" target="_top" xlink:title=" ">
<polygon fill="white" stroke="#666666" points="489,-30 346,-30 346,0 489,0 489,-30"/>
<text text-anchor="start" x="354" y="-18" font-family="FreeSans" font-size="10.00">DGtal::IteratorCompletion</text>
<text text-anchor="middle" x="417.5" y="-7" font-family="FreeSans" font-size="10.00">&lt; MyImage&lt; T, N &gt; &gt;</text>
</a>
</g>
</g>
<!-- Node1&#45;&gt;Node4 -->
<g id="edge3_Node000001_Node000004" class="edge">
<title>Node1&#45;&gt;Node4</title>
<g id="a_edge3_Node000001_Node000004"><a xlink:title=" ">
<path fill="none" stroke="orange" stroke-dasharray="5,2" d="M153.22,-34.65C155.85,-34.43 158.44,-34.21 161,-34 223.51,-28.85 294.67,-23.61 345.99,-19.94"/>
<polygon fill="orange" stroke="orange" points="152.68,-31.18 143.02,-35.52 153.28,-38.16 152.68,-31.18"/>
</a>
</g>
<text text-anchor="middle" x="229" y="-37" font-family="FreeSans" font-size="10.00" fill="grey"> &lt; MyImage&lt; T, N &gt; &gt;</text>
</g>
<!-- Node3 -->
<g id="Node000003" class="node">
<title>Node3</title>
<g id="a_Node000003"><a xlink:href="classDGtal_1_1ArrayImageAdapter_3_01TArrayIterator_00_01HyperRectDomain_3_01TSpace_01_4_01_4.html" target="_top" xlink:title="Aim: Image adapter for generic arrays with sub&#45;domain view capability.">
<polygon fill="white" stroke="#666666" points="748,-89.5 557,-89.5 557,-48.5 748,-48.5 748,-89.5"/>
<text text-anchor="start" x="565" y="-77.5" font-family="FreeSans" font-size="10.00">DGtal::ArrayImageAdapter</text>
<text text-anchor="start" x="565" y="-66.5" font-family="FreeSans" font-size="10.00">&lt; TArrayIterator, HyperRectDomain</text>
<text text-anchor="middle" x="652.5" y="-55.5" font-family="FreeSans" font-size="10.00">&lt; TSpace &gt; &gt;</text>
</a>
</g>
</g>
<!-- Node2&#45;&gt;Node3 -->
<g id="edge2_Node000002_Node000003" class="edge">
<title>Node2&#45;&gt;Node3</title>
<g id="a_edge2_Node000002_Node000003"><a xlink:title=" ">
<path fill="none" stroke="#63b8ff" d="M530.12,-69C539.09,-69 548.1,-69 556.93,-69"/>
<polygon fill="#63b8ff" stroke="#63b8ff" points="530.02,-65.5 520.02,-69 530.02,-72.5 530.02,-65.5"/>
</a>
</g>
</g>
<!-- Node5 -->
<g id="Node000005" class="node">
<title>Node5</title>
<g id="a_Node000005"><a xlink:href="classMyImage.html" target="_top" xlink:title="[includes]">
<polygon fill="white" stroke="#666666" points="704.5,-24.5 600.5,-24.5 600.5,-5.5 704.5,-5.5 704.5,-24.5"/>
<text text-anchor="middle" x="652.5" y="-12.5" font-family="FreeSans" font-size="10.00">MyImage&lt; T, N &gt;</text>
</a>
</g>
</g>
<!-- Node4&#45;&gt;Node5 -->
<g id="edge4_Node000004_Node000005" class="edge">
<title>Node4&#45;&gt;Node5</title>
<g id="a_edge4_Node000004_Node000005"><a xlink:title=" ">
<path fill="none" stroke="#63b8ff" d="M499.3,-15C532.88,-15 570.83,-15 600.43,-15"/>
<polygon fill="#63b8ff" stroke="#63b8ff" points="499.04,-11.5 489.04,-15 499.04,-18.5 499.04,-11.5"/>
</a>
</g>
</g>
</g>
</svg>
