<?xml version="1.0" encoding="UTF-8" standalone="no"?>
<!DOCTYPE svg PUBLIC "-//W3C//DTD SVG 1.1//EN"
 "http://www.w3.org/Graphics/SVG/1.1/DTD/svg11.dtd">
<!-- Generated by graphviz version 2.43.0 (0)
 -->
<!-- Title: DGtal::KhalimskySpaceNDHelper&lt; TKhalimskySpace &gt; Pages: 1 -->
<svg width="1028pt" height="130pt"
 viewBox="0.00 0.00 1028.00 129.50" xmlns="http://www.w3.org/2000/svg" xmlns:xlink="http://www.w3.org/1999/xlink">
<g id="graph0" class="graph" transform="scale(1 1) rotate(0) translate(4 125.5)">
<title>DGtal::KhalimskySpaceNDHelper&lt; TKhalimskySpace &gt;</title>
<!-- Node1 -->
<g id="Node000001" class="node">
<title>Node1</title>
<g id="a_Node000001"><a xlink:title="Internal class of KhalimskySpaceND that provides some optimizations depending on the space type.">
<polygon fill="#999999" stroke="#666666" points="178,-94.5 0,-94.5 0,-64.5 178,-64.5 178,-94.5"/>
<text text-anchor="start" x="8" y="-82.5" font-family="FreeSans" font-size="10.00">DGtal::KhalimskySpaceNDHelper</text>
<text text-anchor="middle" x="89" y="-71.5" font-family="FreeSans" font-size="10.00">&lt; TKhalimskySpace &gt;</text>
</a>
</g>
</g>
<!-- Node2 -->
<g id="Node000002" class="node">
<title>Node2</title>
<g id="a_Node000002"><a xlink:href="classDGtal_1_1KhalimskySpaceND.html" target="_top" xlink:title=" ">
<polygon fill="white" stroke="#666666" points="1020,-121.5 847,-121.5 847,-91.5 1020,-91.5 1020,-121.5"/>
<text text-anchor="start" x="855" y="-109.5" font-family="FreeSans" font-size="10.00">DGtal::KhalimskySpaceND</text>
<text text-anchor="middle" x="933.5" y="-98.5" font-family="FreeSans" font-size="10.00">&lt; dimAmbient, DGtal::int32_t &gt;</text>
</a>
</g>
</g>
<!-- Node1&#45;&gt;Node2 -->
<g id="edge1_Node000001_Node000002" class="edge">
<title>Node1&#45;&gt;Node2</title>
<g id="a_edge1_Node000001_Node000002"><a xlink:title=" ">
<path fill="none" stroke="#8b1a1a" d="M151.69,-96.97C166.12,-100.41 181.51,-103.55 196,-105.5 243.98,-111.97 469.96,-112.85 720,-114.5 768.44,-114.82 780.59,-116.37 829,-114.5 834.85,-114.27 840.89,-113.98 846.96,-113.63"/>
<polygon fill="#8b1a1a" stroke="#8b1a1a" points="152.42,-93.55 141.87,-94.56 150.75,-100.35 152.42,-93.55"/>
</a>
</g>
</g>
<!-- Node3 -->
<g id="Node000003" class="node">
<title>Node3</title>
<g id="a_Node000003"><a xlink:href="classDGtal_1_1KhalimskySpaceNDHelper.html" target="_top" xlink:title=" ">
<polygon fill="white" stroke="#666666" points="519,-100 341,-100 341,-59 519,-59 519,-100"/>
<text text-anchor="start" x="349" y="-88" font-family="FreeSans" font-size="10.00">DGtal::KhalimskySpaceNDHelper</text>
<text text-anchor="start" x="349" y="-77" font-family="FreeSans" font-size="10.00">&lt; KhalimskySpaceND&lt; dim,</text>
<text text-anchor="middle" x="430" y="-66" font-family="FreeSans" font-size="10.00"> TInteger &gt; &gt;</text>
</a>
</g>
</g>
<!-- Node1&#45;&gt;Node3 -->
<g id="edge2_Node000001_Node000003" class="edge">
<title>Node1&#45;&gt;Node3</title>
<g id="a_edge2_Node000001_Node000003"><a xlink:title=" ">
<path fill="none" stroke="orange" stroke-dasharray="5,2" d="M188.33,-79.5C236.56,-79.5 294.19,-79.5 340.96,-79.5"/>
<polygon fill="orange" stroke="orange" points="188.18,-76 178.18,-79.5 188.18,-83 188.18,-76"/>
</a>
</g>
<text text-anchor="start" x="204.5" y="-93.5" font-family="FreeSans" font-size="10.00" fill="grey"> &lt; KhalimskySpaceND</text>
<text text-anchor="middle" x="259.5" y="-82.5" font-family="FreeSans" font-size="10.00" fill="grey">&lt; dim, TInteger &gt; &gt;</text>
</g>
<!-- Node5 -->
<g id="Node000005" class="node">
<title>Node5</title>
<g id="a_Node000005"><a xlink:href="classDGtal_1_1KhalimskySpaceNDHelper.html" target="_top" xlink:title=" ">
<polygon fill="white" stroke="#666666" points="519,-41 341,-41 341,0 519,0 519,-41"/>
<text text-anchor="start" x="349" y="-29" font-family="FreeSans" font-size="10.00">DGtal::KhalimskySpaceNDHelper</text>
<text text-anchor="start" x="349" y="-18" font-family="FreeSans" font-size="10.00">&lt; KhalimskySpaceND&lt; dim,</text>
<text text-anchor="middle" x="430" y="-7" font-family="FreeSans" font-size="10.00"> DGtal::int32_t &gt; &gt;</text>
</a>
</g>
</g>
<!-- Node1&#45;&gt;Node5 -->
<g id="edge5_Node000001_Node000005" class="edge">
<title>Node1&#45;&gt;Node5</title>
<g id="a_edge5_Node000001_Node000005"><a xlink:title=" ">
<path fill="none" stroke="orange" stroke-dasharray="5,2" d="M156.54,-62.1C169.57,-59 183.18,-55.97 196,-53.5 243.64,-44.31 297.21,-36.54 340.97,-30.86"/>
<polygon fill="orange" stroke="orange" points="155.6,-58.73 146.71,-64.48 157.25,-65.53 155.6,-58.73"/>
</a>
</g>
<text text-anchor="start" x="196" y="-67.5" font-family="FreeSans" font-size="10.00" fill="grey"> &lt; KhalimskySpaceND</text>
<text text-anchor="middle" x="259.5" y="-56.5" font-family="FreeSans" font-size="10.00" fill="grey">&lt; dim, DGtal::int32_t &gt; &gt;</text>
</g>
<!-- Node4 -->
<g id="Node000004" class="node">
<title>Node4</title>
<g id="a_Node000004"><a xlink:href="classDGtal_1_1KhalimskySpaceND.html" target="_top" xlink:title="Aim: This class is a model of CCellularGridSpaceND. It represents the cubical grid as a cell complex,...">
<polygon fill="white" stroke="#666666" points="702,-99.5 556,-99.5 556,-69.5 702,-69.5 702,-99.5"/>
<text text-anchor="start" x="564" y="-87.5" font-family="FreeSans" font-size="10.00">DGtal::KhalimskySpaceND</text>
<text text-anchor="middle" x="629" y="-76.5" font-family="FreeSans" font-size="10.00">&lt; dim, TInteger &gt;</text>
</a>
</g>
</g>
<!-- Node3&#45;&gt;Node4 -->
<g id="edge3_Node000003_Node000004" class="edge">
<title>Node3&#45;&gt;Node4</title>
<g id="a_edge3_Node000003_Node000004"><a xlink:title=" ">
<path fill="none" stroke="#8b1a1a" d="M529.25,-81.99C538.22,-82.22 547.2,-82.45 555.89,-82.67"/>
<polygon fill="#8b1a1a" stroke="#8b1a1a" points="529.21,-78.49 519.13,-81.74 529.04,-85.49 529.21,-78.49"/>
</a>
</g>
</g>
<!-- Node4&#45;&gt;Node2 -->
<g id="edge4_Node000004_Node000002" class="edge">
<title>Node4&#45;&gt;Node2</title>
<g id="a_edge4_Node000004_Node000002"><a xlink:title=" ">
<path fill="none" stroke="orange" stroke-dasharray="5,2" d="M712.81,-86.08C748.59,-87.22 790.91,-89.17 829,-92.5 834.78,-93.01 840.73,-93.6 846.72,-94.26"/>
<polygon fill="orange" stroke="orange" points="712.52,-82.57 702.42,-85.77 712.31,-89.57 712.52,-82.57"/>
</a>
</g>
<text text-anchor="start" x="720" y="-106.5" font-family="FreeSans" font-size="10.00" fill="grey"> &lt; dimAmbient, DGtal</text>
<text text-anchor="middle" x="774.5" y="-95.5" font-family="FreeSans" font-size="10.00" fill="grey">::int32_t &gt;</text>
</g>
</g>
</svg>
