<?xml version="1.0" encoding="UTF-8" standalone="no"?>
<!DOCTYPE svg PUBLIC "-//W3C//DTD SVG 1.1//EN"
 "http://www.w3.org/Graphics/SVG/1.1/DTD/svg11.dtd">
<!-- Generated by graphviz version 2.43.0 (0)
 -->
<!-- Title: DGtal::detail::PosIndepScaleIndepSCEstimator&lt; TSegmentComputer, Functor, ReturnType &gt; Pages: 1 -->
<!--zoomable 179 -->

<svg id="main" version="1.1" xmlns="http://www.w3.org/2000/svg" xmlns:xlink="http://www.w3.org/1999/xlink" xml:space="preserve" onload="init(evt)">
<style type="text/css"><![CDATA[
.node, .edge {opacity: 0.7;}
.node.selected, .edge.selected {opacity: 1;}
.edge:hover path { stroke: red; }
.edge:hover polygon { stroke: red; fill: red; }
]]></style>

<defs>
  <circle id="rim" cx="0" cy="0" r="7"/>
  <circle id="rim2" cx="0" cy="0" r="3.5"/>
  <g id="zoomPlus">
    <use xlink:href="#rim" fill="#404040"><set attributeName="fill" to="#808080" begin="zoomplus.mouseover" end="zoomplus.mouseout"/></use>
    <path d="M-4,0h8M0,-4v8" fill="none" stroke="white" stroke-width="1.5" pointer-events="none"/>
  </g>
  <g id="zoomMin">
    <use xlink:href="#rim" fill="#404040"><set attributeName="fill" to="#808080" begin="zoomminus.mouseover" end="zoomminus.mouseout"/></use>
    <path d="M-4,0h8" fill="none" stroke="white" stroke-width="1.5" pointer-events="none"/>
  </g>
  <g id="arrowUp" transform="translate(30 24)">
    <use xlink:href="#rim"/>
    <path pointer-events="none" fill="none" stroke="white" stroke-width="1.5" d="M0,-3.0v7 M-2.5,-0.5L0,-3.0L2.5,-0.5"/>
  </g>
  <g id="arrowRight" transform="rotate(90) translate(36 -43)">
    <use xlink:href="#rim"/>
    <path pointer-events="none" fill="none" stroke="white" stroke-width="1.5" d="M0,-3.0v7 M-2.5,-0.5L0,-3.0L2.5,-0.5"/>
  </g>
  <g id="arrowDown" transform="rotate(180) translate(-30 -48)">
    <use xlink:href="#rim"/>
    <path pointer-events="none" fill="none" stroke="white" stroke-width="1.5" d="M0,-3.0v7 M-2.5,-0.5L0,-3.0L2.5,-0.5"/>
  </g>
  <g id="arrowLeft" transform="rotate(270) translate(-36 17)">
    <use xlink:href="#rim"/>
    <path pointer-events="none" fill="none" stroke="white" stroke-width="1.5" d="M0,-3.0v7 M-2.5,-0.5L0,-3.0L2.5,-0.5"/>
  </g>
  <g id="resetDef">
    <use xlink:href="#rim2" fill="#404040"><set attributeName="fill" to="#808080" begin="reset.mouseover" end="reset.mouseout"/></use>
  </g>
</defs>
<script type="application/ecmascript">
var viewWidth = 895;
var viewHeight = 179;
var sectionId = 'dynsection-0';
</script>
<script type="application/ecmascript" xlink:href="svg.min.js"/>
<svg id="graph" class="graph">
<g id="viewport">
<title>DGtal::detail::PosIndepScaleIndepSCEstimator&lt; TSegmentComputer, Functor, ReturnType &gt;</title>
<!-- Node1 -->
<g id="Node000001" class="node">
<title>Node1</title>
<g id="a_Node000001"><a xlink:title=" ">
<polygon fill="#999999" stroke="#666666" points="215,-111.5 0,-111.5 0,-70.5 215,-70.5 215,-111.5"/>
<text text-anchor="start" x="8" y="-99.5" font-family="FreeSans" font-size="10.00">DGtal::detail::PosIndepScale</text>
<text text-anchor="start" x="8" y="-88.5" font-family="FreeSans" font-size="10.00">IndepSCEstimator&lt; TSegmentComputer,</text>
<text text-anchor="middle" x="107.5" y="-77.5" font-family="FreeSans" font-size="10.00"> Functor, ReturnType &gt;</text>
</a>
</g>
</g>
<!-- Node2 -->
<g id="Node000002" class="node">
<title>Node2</title>
<g id="a_Node000002"><a xlink:href="classDGtal_1_1detail_1_1PosIndepScaleIndepSCEstimator.html" target="_top" xlink:title=" ">
<polygon fill="white" stroke="#666666" points="617.5,-170.5 432.5,-170.5 432.5,-129.5 617.5,-129.5 617.5,-170.5"/>
<text text-anchor="start" x="440.5" y="-158.5" font-family="FreeSans" font-size="10.00">DGtal::detail::PosIndepScale</text>
<text text-anchor="start" x="440.5" y="-147.5" font-family="FreeSans" font-size="10.00">IndepSCEstimator&lt; DSSComputer,</text>
<text text-anchor="middle" x="525" y="-136.5" font-family="FreeSans" font-size="10.00"> detail::TangentAngleFromDSS &gt;</text>
</a>
</g>
</g>
<!-- Node1&#45;&gt;Node2 -->
<g id="edge1_Node000001_Node000002" class="edge">
<title>Node1&#45;&gt;Node2</title>
<g id="a_edge1_Node000001_Node000002"><a xlink:title=" ">
<path fill="none" stroke="orange" stroke-dasharray="5,2" d="M182.66,-114.36C199.1,-118.83 216.53,-123.03 233,-126 299.1,-137.9 374.74,-143.91 432.32,-146.94"/>
<polygon fill="orange" stroke="orange" points="183.14,-110.86 172.57,-111.55 181.26,-117.6 183.14,-110.86"/>
</a>
</g>
<text text-anchor="start" x="247.5" y="-157" font-family="FreeSans" font-size="10.00" fill="grey"> &lt; DSSComputer, detail</text>
<text text-anchor="middle" x="311.5" y="-146" font-family="FreeSans" font-size="10.00" fill="grey">::TangentAngleFromDSS &gt;</text>
</g>
<!-- Node4 -->
<g id="Node000004" class="node">
<title>Node4</title>
<g id="a_Node000004"><a xlink:href="classDGtal_1_1detail_1_1PosIndepScaleIndepSCEstimator.html" target="_top" xlink:title=" ">
<polygon fill="white" stroke="#666666" points="642,-111.5 408,-111.5 408,-70.5 642,-70.5 642,-111.5"/>
<text text-anchor="start" x="416" y="-99.5" font-family="FreeSans" font-size="10.00">DGtal::detail::PosIndepScale</text>
<text text-anchor="start" x="416" y="-88.5" font-family="FreeSans" font-size="10.00">IndepSCEstimator&lt; DSSComputer,</text>
<text text-anchor="middle" x="525" y="-77.5" font-family="FreeSans" font-size="10.00"> detail::NormalizedTangentVectorFromDSS &gt;</text>
</a>
</g>
</g>
<!-- Node1&#45;&gt;Node4 -->
<g id="edge3_Node000001_Node000004" class="edge">
<title>Node1&#45;&gt;Node4</title>
<g id="a_edge3_Node000001_Node000004"><a xlink:title=" ">
<path fill="none" stroke="orange" stroke-dasharray="5,2" d="M225.37,-91C282.4,-91 350.79,-91 407.73,-91"/>
<polygon fill="orange" stroke="orange" points="225.23,-87.5 215.23,-91 225.23,-94.5 225.23,-87.5"/>
</a>
</g>
<text text-anchor="start" x="233" y="-116" font-family="FreeSans" font-size="10.00" fill="grey"> &lt; DSSComputer, detail</text>
<text text-anchor="start" x="233" y="-105" font-family="FreeSans" font-size="10.00" fill="grey">::NormalizedTangentVectorFrom</text>
<text text-anchor="middle" x="311.5" y="-94" font-family="FreeSans" font-size="10.00" fill="grey">DSS &gt;</text>
</g>
<!-- Node6 -->
<g id="Node000006" class="node">
<title>Node6</title>
<g id="a_Node000006"><a xlink:href="classDGtal_1_1detail_1_1PosIndepScaleIndepSCEstimator.html" target="_top" xlink:title=" ">
<polygon fill="white" stroke="#666666" points="617.5,-52 432.5,-52 432.5,0 617.5,0 617.5,-52"/>
<text text-anchor="start" x="440.5" y="-40" font-family="FreeSans" font-size="10.00">DGtal::detail::PosIndepScale</text>
<text text-anchor="start" x="440.5" y="-29" font-family="FreeSans" font-size="10.00">IndepSCEstimator&lt; DSSComputer,</text>
<text text-anchor="start" x="440.5" y="-18" font-family="FreeSans" font-size="10.00"> detail::TangentVectorFromDSS</text>
<text text-anchor="middle" x="525" y="-7" font-family="FreeSans" font-size="10.00">&lt; DSSComputer &gt; &gt;</text>
</a>
</g>
</g>
<!-- Node1&#45;&gt;Node6 -->
<g id="edge5_Node000001_Node000006" class="edge">
<title>Node1&#45;&gt;Node6</title>
<g id="a_edge5_Node000001_Node000006"><a xlink:title=" ">
<path fill="none" stroke="orange" stroke-dasharray="5,2" d="M178.64,-67.58C196.22,-62.43 215.17,-57.47 233,-54 299.01,-41.14 374.64,-34.09 432.26,-30.28"/>
<polygon fill="orange" stroke="orange" points="177.6,-64.24 169.02,-70.46 179.61,-70.95 177.6,-64.24"/>
</a>
</g>
<text text-anchor="start" x="251.5" y="-79" font-family="FreeSans" font-size="10.00" fill="grey"> &lt; DSSComputer, detail</text>
<text text-anchor="start" x="251.5" y="-68" font-family="FreeSans" font-size="10.00" fill="grey">::TangentVectorFromDSS</text>
<text text-anchor="middle" x="311.5" y="-57" font-family="FreeSans" font-size="10.00" fill="grey">&lt; DSSComputer &gt; &gt;</text>
</g>
<!-- Node3 -->
<g id="Node000003" class="node">
<title>Node3</title>
<g id="a_Node000003"><a xlink:href="classDGtal_1_1TangentAngleFromDSSEstimator.html" target="_top" xlink:title=" ">
<polygon fill="white" stroke="#666666" points="887,-165 679,-165 679,-135 887,-135 887,-165"/>
<text text-anchor="start" x="687" y="-153" font-family="FreeSans" font-size="10.00">DGtal::TangentAngleFromDSSEstimator</text>
<text text-anchor="middle" x="783" y="-142" font-family="FreeSans" font-size="10.00">&lt; DSSComputer &gt;</text>
</a>
</g>
</g>
<!-- Node2&#45;&gt;Node3 -->
<g id="edge2_Node000002_Node000003" class="edge">
<title>Node2&#45;&gt;Node3</title>
<g id="a_edge2_Node000002_Node000003"><a xlink:title=" ">
<path fill="none" stroke="#63b8ff" d="M628.01,-150C644.71,-150 662.03,-150 678.77,-150"/>
<polygon fill="#63b8ff" stroke="#63b8ff" points="627.7,-146.5 617.7,-150 627.7,-153.5 627.7,-146.5"/>
</a>
</g>
</g>
<!-- Node5 -->
<g id="Node000005" class="node">
<title>Node5</title>
<g id="a_Node000005"><a xlink:href="classDGtal_1_1TangentFromDSSEstimator.html" target="_top" xlink:title=" ">
<polygon fill="white" stroke="#666666" points="873,-106 693,-106 693,-76 873,-76 873,-106"/>
<text text-anchor="start" x="701" y="-94" font-family="FreeSans" font-size="10.00">DGtal::TangentFromDSSEstimator</text>
<text text-anchor="middle" x="783" y="-83" font-family="FreeSans" font-size="10.00">&lt; DSSComputer &gt;</text>
</a>
</g>
</g>
<!-- Node4&#45;&gt;Node5 -->
<g id="edge4_Node000004_Node000005" class="edge">
<title>Node4&#45;&gt;Node5</title>
<g id="a_edge4_Node000004_Node000005"><a xlink:title=" ">
<path fill="none" stroke="#63b8ff" d="M652.04,-91C665.82,-91 679.64,-91 692.85,-91"/>
<polygon fill="#63b8ff" stroke="#63b8ff" points="652.02,-87.5 642.02,-91 652.02,-94.5 652.02,-87.5"/>
</a>
</g>
</g>
<!-- Node7 -->
<g id="Node000007" class="node">
<title>Node7</title>
<g id="a_Node000007"><a xlink:href="classDGtal_1_1TangentVectorFromDSSEstimator.html" target="_top" xlink:title=" ">
<polygon fill="white" stroke="#666666" points="869.5,-41 696.5,-41 696.5,-11 869.5,-11 869.5,-41"/>
<text text-anchor="start" x="704.5" y="-29" font-family="FreeSans" font-size="10.00">DGtal::TangentVectorFrom</text>
<text text-anchor="middle" x="783" y="-18" font-family="FreeSans" font-size="10.00">DSSEstimator&lt; DSSComputer &gt;</text>
</a>
</g>
</g>
<!-- Node6&#45;&gt;Node7 -->
<g id="edge6_Node000006_Node000007" class="edge">
<title>Node6&#45;&gt;Node7</title>
<g id="a_edge6_Node000006_Node000007"><a xlink:title=" ">
<path fill="none" stroke="#63b8ff" d="M627.73,-26C650.51,-26 674.45,-26 696.49,-26"/>
<polygon fill="#63b8ff" stroke="#63b8ff" points="627.7,-22.5 617.7,-26 627.7,-29.5 627.7,-22.5"/>
</a>
</g>
</g>
</g>
</svg>

<g id="navigator" transform="translate(0 0)" fill="#404254">
  <rect fill="#f2f5e9" fill-opacity="0.5" stroke="#606060" stroke-width=".5" x="0" y="0" width="60" height="60"/>
  <use id="zoomplus" xlink:href="#zoomPlus" x="17" y="9" onmousedown="handleZoom(evt,'in')"/>
  <use id="zoomminus" xlink:href="#zoomMin" x="42" y="9" onmousedown="handleZoom(evt,'out')"/>
  <use id="reset" xlink:href="#resetDef" x="30" y="36" onmousedown="handleReset()"/>
   <use id="arrowup" xlink:href="#arrowUp" x="0" y="0" onmousedown="handlePan(0,-1)"/>
  <use id="arrowright" xlink:href="#arrowRight" x="0" y="0" onmousedown="handlePan(1,0)"/>
  <use id="arrowdown" xlink:href="#arrowDown" x="0" y="0" onmousedown="handlePan(0,1)"/>
  <use id="arrowleft" xlink:href="#arrowLeft" x="0" y="0" onmousedown="handlePan(-1,0)"/>
</g>
<svg viewBox="0 0 15 15" width="100%" height="30px" preserveAspectRatio="xMaxYMin meet">
 <g id="arrow_out" transform="scale(0.3 0.3)">
  <a xlink:href="classDGtal_1_1detail_1_1PosIndepScaleIndepSCEstimator__inherit__graph_org.svg" target="_base">
   <rect id="button" ry="5" rx="5" y="6" x="6" height="38" width="38"
        fill="#f2f5e9" fill-opacity="0.5" stroke="#606060" stroke-width="1.0"/>
   <path id="arrow"
     d="M 11.500037,31.436501 C 11.940474,20.09759 22.043105,11.32322 32.158766,21.979434 L 37.068811,17.246167 C 37.068811,17.246167 37.088388,32 37.088388,32 L 22.160133,31.978069 C 22.160133,31.978069 26.997745,27.140456 26.997745,27.140456 C 18.528582,18.264221 13.291696,25.230495 11.500037,31.436501 z"
     style="fill:#404040;"/>
  </a>
 </g>
</svg>

<style type='text/css'>
<![CDATA[
[data-mouse-over-selected='false'] { opacity: 0.7; }
[data-mouse-over-selected='true']  { opacity: 1.0; }
]]>
</style>
<script type="application/ecmascript"><![CDATA[
document.addEventListener('DOMContentLoaded', (event) => {
  highlightEdges();
  highlightAdjacentNodes();
});
]]></script>
</svg>
