<?xml version="1.0" encoding="UTF-8" standalone="no"?>
<!DOCTYPE svg PUBLIC "-//W3C//DTD SVG 1.1//EN"
 "http://www.w3.org/Graphics/SVG/1.1/DTD/svg11.dtd">
<!-- Generated by graphviz version 2.43.0 (0)
 -->
<!-- Title: DGtal::MPolynomial&lt; n, TRing, TAlloc &gt; Pages: 1 -->
<svg width="264pt" height="115pt"
 viewBox="0.00 0.00 264.00 115.00" xmlns="http://www.w3.org/2000/svg" xmlns:xlink="http://www.w3.org/1999/xlink">
<g id="graph0" class="graph" transform="scale(1 1) rotate(0) translate(4 111)">
<title>DGtal::MPolynomial&lt; n, TRing, TAlloc &gt;</title>
<!-- Node1 -->
<g id="Node000001" class="node">
<title>Node1</title>
<g id="a_Node000001"><a xlink:title="Aim: Represents a multivariate polynomial, i.e. an element of , where K is some ring or field.">
<polygon fill="#999999" stroke="#666666" points="180,-107 66,-107 66,-77 180,-77 180,-107"/>
<text text-anchor="start" x="74" y="-95" font-family="FreeSans" font-size="10.00">DGtal::MPolynomial</text>
<text text-anchor="middle" x="123" y="-84" font-family="FreeSans" font-size="10.00">&lt; n, TRing, TAlloc &gt;</text>
</a>
</g>
</g>
<!-- Node2 -->
<g id="Node000002" class="node">
<title>Node2</title>
<g id="a_Node000002"><a xlink:href="classDGtal_1_1MPolynomial.html" target="_top" xlink:title=" ">
<polygon fill="white" stroke="#666666" points="114,-30 0,-30 0,0 114,0 114,-30"/>
<text text-anchor="start" x="8" y="-18" font-family="FreeSans" font-size="10.00">DGtal::MPolynomial</text>
<text text-anchor="middle" x="57" y="-7" font-family="FreeSans" font-size="10.00">&lt; 3, Ring &gt;</text>
</a>
</g>
</g>
<!-- Node1&#45;&gt;Node2 -->
<g id="edge1_Node000001_Node000002" class="edge">
<title>Node1&#45;&gt;Node2</title>
<g id="a_edge1_Node000001_Node000002"><a xlink:title=" ">
<path fill="none" stroke="orange" stroke-dasharray="5,2" d="M103.73,-69.1C92.63,-56.49 79.02,-41.03 69.36,-30.04"/>
<polygon fill="orange" stroke="orange" points="101.35,-71.7 110.59,-76.89 106.61,-67.07 101.35,-71.7"/>
</a>
</g>
<text text-anchor="middle" x="124" y="-51" font-family="FreeSans" font-size="10.00" fill="grey"> &lt; 3, Ring &gt;</text>
</g>
<!-- Node3 -->
<g id="Node000003" class="node">
<title>Node3</title>
<g id="a_Node000003"><a xlink:href="classDGtal_1_1MPolynomial.html" target="_top" xlink:title=" ">
<polygon fill="white" stroke="#666666" points="246,-30 132,-30 132,0 246,0 246,-30"/>
<text text-anchor="start" x="140" y="-18" font-family="FreeSans" font-size="10.00">DGtal::MPolynomial</text>
<text text-anchor="middle" x="189" y="-7" font-family="FreeSans" font-size="10.00">&lt; n, Ring, Alloc &gt;</text>
</a>
</g>
</g>
<!-- Node1&#45;&gt;Node3 -->
<g id="edge2_Node000001_Node000003" class="edge">
<title>Node1&#45;&gt;Node3</title>
<g id="a_edge2_Node000001_Node000003"><a xlink:title=" ">
<path fill="none" stroke="orange" stroke-dasharray="5,2" d="M147.47,-69.83C151.12,-66.33 154.75,-62.65 158,-59 166.08,-49.93 174.07,-38.78 179.91,-30.11"/>
<polygon fill="orange" stroke="orange" points="145.02,-67.33 140.05,-76.68 149.77,-72.47 145.02,-67.33"/>
</a>
</g>
<text text-anchor="middle" x="211" y="-51" font-family="FreeSans" font-size="10.00" fill="grey"> &lt; n, Ring, Alloc &gt;</text>
</g>
</g>
</svg>
