<?xml version="1.0" encoding="UTF-8" standalone="no"?>
<!DOCTYPE svg PUBLIC "-//W3C//DTD SVG 1.1//EN"
 "http://www.w3.org/Graphics/SVG/1.1/DTD/svg11.dtd">
<!-- Generated by graphviz version 2.43.0 (0)
 -->
<!-- Title: DGtal::CurvatureFromDSSEstimator&lt; DSSComputer &gt; Pages: 1 -->
<svg width="737pt" height="67pt"
 viewBox="0.00 0.00 737.00 67.00" xmlns="http://www.w3.org/2000/svg" xmlns:xlink="http://www.w3.org/1999/xlink">
<g id="graph0" class="graph" transform="scale(1 1) rotate(0) translate(4 63)">
<title>DGtal::CurvatureFromDSSEstimator&lt; DSSComputer &gt;</title>
<!-- Node1 -->
<g id="Node000001" class="node">
<title>Node1</title>
<g id="a_Node000001"><a xlink:title=" ">
<polygon fill="#999999" stroke="#666666" points="729,-41 539,-41 539,-11 729,-11 729,-41"/>
<text text-anchor="start" x="547" y="-29" font-family="FreeSans" font-size="10.00">DGtal::CurvatureFromDSSEstimator</text>
<text text-anchor="middle" x="634" y="-18" font-family="FreeSans" font-size="10.00">&lt; DSSComputer &gt;</text>
</a>
</g>
</g>
<!-- Node2 -->
<g id="Node000002" class="node">
<title>Node2</title>
<g id="a_Node000002"><a xlink:href="classDGtal_1_1detail_1_1CurvatureFromDSSBaseEstimator.html" target="_top" xlink:title=" ">
<polygon fill="white" stroke="#666666" points="502,-52 327,-52 327,0 502,0 502,-52"/>
<text text-anchor="start" x="335" y="-40" font-family="FreeSans" font-size="10.00">DGtal::detail::Curvature</text>
<text text-anchor="start" x="335" y="-29" font-family="FreeSans" font-size="10.00">FromDSSBaseEstimator&lt;</text>
<text text-anchor="start" x="335" y="-18" font-family="FreeSans" font-size="10.00"> DSSComputer, detail::Curvature</text>
<text text-anchor="middle" x="414.5" y="-7" font-family="FreeSans" font-size="10.00">FromDSSLengthAndWidth &gt;</text>
</a>
</g>
</g>
<!-- Node2&#45;&gt;Node1 -->
<g id="edge1_Node000001_Node000002" class="edge">
<title>Node2&#45;&gt;Node1</title>
<g id="a_edge1_Node000001_Node000002"><a xlink:title=" ">
<path fill="none" stroke="#63b8ff" d="M512.36,-26C521.16,-26 530.07,-26 538.85,-26"/>
<polygon fill="#63b8ff" stroke="#63b8ff" points="512.09,-22.5 502.09,-26 512.09,-29.5 512.09,-22.5"/>
</a>
</g>
</g>
<!-- Node3 -->
<g id="Node000003" class="node">
<title>Node3</title>
<g id="a_Node000003"><a xlink:href="classDGtal_1_1detail_1_1CurvatureFromDSSBaseEstimator.html" target="_top" xlink:title=" ">
<polygon fill="white" stroke="#666666" points="140,-46.5 0,-46.5 0,-5.5 140,-5.5 140,-46.5"/>
<text text-anchor="start" x="8" y="-34.5" font-family="FreeSans" font-size="10.00">DGtal::detail::Curvature</text>
<text text-anchor="start" x="8" y="-23.5" font-family="FreeSans" font-size="10.00">FromDSSBaseEstimator&lt;</text>
<text text-anchor="middle" x="70" y="-12.5" font-family="FreeSans" font-size="10.00"> DSSComputer, Functor &gt;</text>
</a>
</g>
</g>
<!-- Node3&#45;&gt;Node2 -->
<g id="edge2_Node000002_Node000003" class="edge">
<title>Node3&#45;&gt;Node2</title>
<g id="a_edge2_Node000002_Node000003"><a xlink:title=" ">
<path fill="none" stroke="orange" stroke-dasharray="5,2" d="M150.32,-26C203.18,-26 272.66,-26 326.95,-26"/>
<polygon fill="orange" stroke="orange" points="150.31,-22.5 140.31,-26 150.31,-29.5 150.31,-22.5"/>
</a>
</g>
<text text-anchor="start" x="158" y="-51" font-family="FreeSans" font-size="10.00" fill="grey"> &lt; DSSComputer, detail</text>
<text text-anchor="start" x="158" y="-40" font-family="FreeSans" font-size="10.00" fill="grey">::CurvatureFromDSSLengthAnd</text>
<text text-anchor="middle" x="233.5" y="-29" font-family="FreeSans" font-size="10.00" fill="grey">Width &gt;</text>
</g>
</g>
</svg>
