<?xml version="1.0" encoding="UTF-8" standalone="no"?>
<!DOCTYPE svg PUBLIC "-//W3C//DTD SVG 1.1//EN"
 "http://www.w3.org/Graphics/SVG/1.1/DTD/svg11.dtd">
<!-- Generated by graphviz version 2.43.0 (0)
 -->
<!-- Title: DGtal::KhalimskySpaceND&lt; dim, TInteger &gt; Pages: 1 -->
<svg width="204pt" height="128pt"
 viewBox="0.00 0.00 203.50 128.00" xmlns="http://www.w3.org/2000/svg" xmlns:xlink="http://www.w3.org/1999/xlink">
<g id="graph0" class="graph" transform="scale(1 1) rotate(0) translate(4 124)">
<title>DGtal::KhalimskySpaceND&lt; dim, TInteger &gt;</title>
<polygon fill="white" stroke="transparent" points="-4,4 -4,-124 199.5,-124 199.5,4 -4,4"/>
<!-- Node1 -->
<g id="node1" class="node">
<title>Node1</title>
<g id="a_node1"><a xlink:title="Aim: This class is a model of CCellularGridSpaceND. It represents the cubical grid as a cell complex,...">
<polygon fill="#bfbfbf" stroke="black" points="13.5,-89.5 13.5,-119.5 159.5,-119.5 159.5,-89.5 13.5,-89.5"/>
<text text-anchor="start" x="21.5" y="-107.5" font-family="FreeSans" font-size="10.00">DGtal::KhalimskySpaceND</text>
<text text-anchor="middle" x="86.5" y="-96.5" font-family="FreeSans" font-size="10.00">&lt; dim, TInteger &gt;</text>
</a>
</g>
</g>
<!-- Node2 -->
<g id="node2" class="node">
<title>Node2</title>
<g id="a_node2"><a xlink:href="classDGtal_1_1KhalimskySpaceND.html" target="_top" xlink:title=" ">
<polygon fill="white" stroke="black" points="0,-0.5 0,-30.5 173,-30.5 173,-0.5 0,-0.5"/>
<text text-anchor="start" x="8" y="-18.5" font-family="FreeSans" font-size="10.00">DGtal::KhalimskySpaceND</text>
<text text-anchor="middle" x="86.5" y="-7.5" font-family="FreeSans" font-size="10.00">&lt; dimAmbient, DGtal::int32_t &gt;</text>
</a>
</g>
</g>
<!-- Node1&#45;&gt;Node2 -->
<g id="edge1" class="edge">
<title>Node1&#45;&gt;Node2</title>
<path fill="none" stroke="orange" stroke-dasharray="5,2" d="M86.5,-79.09C86.5,-63.44 86.5,-43.68 86.5,-30.6"/>
<polygon fill="orange" stroke="orange" points="83,-79.13 86.5,-89.13 90,-79.13 83,-79.13"/>
<text text-anchor="start" x="86.5" y="-63" font-family="FreeSans" font-size="10.00"> &lt; dimAmbient, DGtal</text>
<text text-anchor="middle" x="141" y="-52" font-family="FreeSans" font-size="10.00">::int32_t &gt;</text>
</g>
</g>
</svg>
