<?xml version="1.0" encoding="UTF-8" standalone="no"?>
<!DOCTYPE svg PUBLIC "-//W3C//DTD SVG 1.1//EN"
 "http://www.w3.org/Graphics/SVG/1.1/DTD/svg11.dtd">
<!-- Generated by graphviz version 2.43.0 (0)
 -->
<!-- Title: DGtal::MPolynomialEvaluatorImpl&lt; n, TRing, TOwner, TAlloc, TX &gt; Pages: 1 -->
<svg width="520pt" height="86pt"
 viewBox="0.00 0.00 520.00 86.00" xmlns="http://www.w3.org/2000/svg" xmlns:xlink="http://www.w3.org/1999/xlink">
<g id="graph0" class="graph" transform="scale(1 1) rotate(0) translate(4 82)">
<title>DGtal::MPolynomialEvaluatorImpl&lt; n, TRing, TOwner, TAlloc, TX &gt;</title>
<!-- Node1 -->
<g id="Node000001" class="node">
<title>Node1</title>
<g id="a_Node000001"><a xlink:title=" ">
<polygon fill="#999999" stroke="#666666" points="161,-59.5 0,-59.5 0,-18.5 161,-18.5 161,-59.5"/>
<text text-anchor="start" x="8" y="-47.5" font-family="FreeSans" font-size="10.00">DGtal::MPolynomialEvaluator</text>
<text text-anchor="start" x="8" y="-36.5" font-family="FreeSans" font-size="10.00">Impl&lt; n, TRing, TOwner,</text>
<text text-anchor="middle" x="80.5" y="-25.5" font-family="FreeSans" font-size="10.00"> TAlloc, TX &gt;</text>
</a>
</g>
</g>
<!-- Node2 -->
<g id="Node000002" class="node">
<title>Node2</title>
<g id="a_Node000002"><a xlink:href="classDGtal_1_1MPolynomialEvaluatorImpl.html" target="_top" xlink:title=" ">
<polygon fill="white" stroke="#666666" points="512,-78 337,-78 337,-48 512,-48 512,-78"/>
<text text-anchor="start" x="345" y="-66" font-family="FreeSans" font-size="10.00">DGtal::MPolynomialEvaluator</text>
<text text-anchor="middle" x="424.5" y="-55" font-family="FreeSans" font-size="10.00">Impl&lt; n, Ring, Owner, Alloc, X &gt;</text>
</a>
</g>
</g>
<!-- Node1&#45;&gt;Node2 -->
<g id="edge1_Node000001_Node000002" class="edge">
<title>Node1&#45;&gt;Node2</title>
<g id="a_edge1_Node000001_Node000002"><a xlink:title=" ">
<path fill="none" stroke="orange" stroke-dasharray="5,2" d="M171.3,-45.3C222.41,-48.89 286.12,-53.36 336.72,-56.91"/>
<polygon fill="orange" stroke="orange" points="171.47,-41.81 161.25,-44.6 170.98,-48.79 171.47,-41.81"/>
</a>
</g>
<text text-anchor="middle" x="249" y="-58" font-family="FreeSans" font-size="10.00" fill="grey"> &lt; n, Ring, Owner, Alloc, X &gt;</text>
</g>
<!-- Node3 -->
<g id="Node000003" class="node">
<title>Node3</title>
<g id="a_Node000003"><a xlink:href="classDGtal_1_1MPolynomialEvaluatorImpl.html" target="_top" xlink:title=" ">
<polygon fill="white" stroke="#666666" points="512,-30 337,-30 337,0 512,0 512,-30"/>
<text text-anchor="start" x="345" y="-18" font-family="FreeSans" font-size="10.00">DGtal::MPolynomialEvaluator</text>
<text text-anchor="middle" x="424.5" y="-7" font-family="FreeSans" font-size="10.00">Impl&lt; 1, Ring, Owner, Alloc, X &gt;</text>
</a>
</g>
</g>
<!-- Node1&#45;&gt;Node3 -->
<g id="edge2_Node000001_Node000003" class="edge">
<title>Node1&#45;&gt;Node3</title>
<g id="a_edge2_Node000001_Node000003"><a xlink:title=" ">
<path fill="none" stroke="orange" stroke-dasharray="5,2" d="M171.23,-31.58C173.85,-31.38 176.44,-31.19 179,-31 231.39,-27.14 290.14,-23.28 336.91,-20.32"/>
<polygon fill="orange" stroke="orange" points="170.74,-28.11 161.04,-32.36 171.28,-35.09 170.74,-28.11"/>
</a>
</g>
<text text-anchor="middle" x="249" y="-34" font-family="FreeSans" font-size="10.00" fill="grey"> &lt; 1, Ring, Owner, Alloc, X &gt;</text>
</g>
</g>
</svg>
