<?xml version="1.0" encoding="UTF-8" standalone="no"?>
<!DOCTYPE svg PUBLIC "-//W3C//DTD SVG 1.1//EN"
 "http://www.w3.org/Graphics/SVG/1.1/DTD/svg11.dtd">
<!-- Generated by graphviz version 2.43.0 (0)
 -->
<!-- Title: DGtal::VoronoiMap&lt; TSpace, TPointPredicate, TSeparableMetric, TImageContainer &gt; Pages: 1 -->
<svg width="688pt" height="130pt"
 viewBox="0.00 0.00 688.00 130.00" xmlns="http://www.w3.org/2000/svg" xmlns:xlink="http://www.w3.org/1999/xlink">
<g id="graph0" class="graph" transform="scale(1 1) rotate(0) translate(4 126)">
<title>DGtal::VoronoiMap&lt; TSpace, TPointPredicate, TSeparableMetric, TImageContainer &gt;</title>
<!-- Node1 -->
<g id="Node000001" class="node">
<title>Node1</title>
<g id="a_Node000001"><a xlink:title="Aim: Implementation of the linear in time Voronoi map construction.">
<polygon fill="#999999" stroke="#666666" points="206,-87 0,-87 0,-46 206,-46 206,-87"/>
<text text-anchor="start" x="8" y="-75" font-family="FreeSans" font-size="10.00">DGtal::VoronoiMap&lt;</text>
<text text-anchor="start" x="8" y="-64" font-family="FreeSans" font-size="10.00"> TSpace, TPointPredicate,</text>
<text text-anchor="middle" x="103" y="-53" font-family="FreeSans" font-size="10.00"> TSeparableMetric, TImageContainer &gt;</text>
</a>
</g>
</g>
<!-- Node2 -->
<g id="Node000002" class="node">
<title>Node2</title>
<g id="a_Node000002"><a xlink:href="classDGtal_1_1DistanceTransformation.html" target="_top" xlink:title="Aim: Implementation of the linear in time distance transformation for separable metrics.">
<polygon fill="white" stroke="#666666" points="669.5,-122 463.5,-122 463.5,-81 669.5,-81 669.5,-122"/>
<text text-anchor="start" x="471.5" y="-110" font-family="FreeSans" font-size="10.00">DGtal::DistanceTransformation</text>
<text text-anchor="start" x="471.5" y="-99" font-family="FreeSans" font-size="10.00">&lt; TSpace, TPointPredicate,</text>
<text text-anchor="middle" x="566.5" y="-88" font-family="FreeSans" font-size="10.00"> TSeparableMetric, TImageContainer &gt;</text>
</a>
</g>
</g>
<!-- Node1&#45;&gt;Node2 -->
<g id="edge1_Node000001_Node000002" class="edge">
<title>Node1&#45;&gt;Node2</title>
<g id="a_edge1_Node000001_Node000002"><a xlink:title=" ">
<path fill="none" stroke="#63b8ff" d="M216.25,-78.81C218.85,-79.05 221.44,-79.28 224,-79.5 304.35,-86.44 395.51,-92.2 463.43,-96.09"/>
<polygon fill="#63b8ff" stroke="#63b8ff" points="216.38,-75.31 206.1,-77.87 215.73,-82.28 216.38,-75.31"/>
</a>
</g>
</g>
<!-- Node3 -->
<g id="Node000003" class="node">
<title>Node3</title>
<g id="a_Node000003"><a xlink:href="classDGtal_1_1VoronoiMap.html" target="_top" xlink:title=" ">
<polygon fill="white" stroke="#666666" points="680,-63 453,-63 453,0 680,0 680,-63"/>
<text text-anchor="start" x="461" y="-51" font-family="FreeSans" font-size="10.00">DGtal::VoronoiMap&lt;</text>
<text text-anchor="start" x="461" y="-40" font-family="FreeSans" font-size="10.00"> TSpace, TPointPredicate,</text>
<text text-anchor="start" x="461" y="-29" font-family="FreeSans" font-size="10.00"> TSeparableMetric, ImageContainer</text>
<text text-anchor="start" x="461" y="-18" font-family="FreeSans" font-size="10.00">BySTLVector&lt; HyperRectDomain</text>
<text text-anchor="middle" x="566.5" y="-7" font-family="FreeSans" font-size="10.00">&lt; TSpace &gt;, typename TSpace::Vector &gt; &gt;</text>
</a>
</g>
</g>
<!-- Node1&#45;&gt;Node3 -->
<g id="edge2_Node000001_Node000003" class="edge">
<title>Node1&#45;&gt;Node3</title>
<g id="a_edge2_Node000001_Node000003"><a xlink:title=" ">
<path fill="none" stroke="orange" stroke-dasharray="5,2" d="M171.9,-43.07C188.73,-38.28 206.85,-33.95 224,-31.5 299.71,-20.68 385.84,-20.77 452.65,-23.51"/>
<polygon fill="orange" stroke="orange" points="170.77,-39.75 162.17,-45.93 172.75,-46.47 170.77,-39.75"/>
</a>
</g>
<text text-anchor="start" x="224" y="-67.5" font-family="FreeSans" font-size="10.00" fill="grey"> &lt; TSpace, TPointPredicate,</text>
<text text-anchor="start" x="224" y="-56.5" font-family="FreeSans" font-size="10.00" fill="grey"> TSeparableMetric, ImageContainer</text>
<text text-anchor="start" x="224" y="-45.5" font-family="FreeSans" font-size="10.00" fill="grey">BySTLVector&lt; HyperRectDomain</text>
<text text-anchor="middle" x="329.5" y="-34.5" font-family="FreeSans" font-size="10.00" fill="grey">&lt; TSpace &gt;, typename TSpace::Vector &gt; &gt;</text>
</g>
</g>
</svg>
