<?xml version="1.0" encoding="UTF-8" standalone="no"?>
<!DOCTYPE svg PUBLIC "-//W3C//DTD SVG 1.1//EN"
 "http://www.w3.org/Graphics/SVG/1.1/DTD/svg11.dtd">
<!-- Generated by graphviz version 2.43.0 (0)
 -->
<!-- Title: DGtal::detail::PosIndepScaleDepSCEstimator&lt; TSegmentComputer, Functor, ReturnType &gt; Pages: 1 -->
<svg width="597pt" height="108pt"
 viewBox="0.00 0.00 597.00 108.00" xmlns="http://www.w3.org/2000/svg" xmlns:xlink="http://www.w3.org/1999/xlink">
<g id="graph0" class="graph" transform="scale(1 1) rotate(0) translate(4 104)">
<title>DGtal::detail::PosIndepScaleDepSCEstimator&lt; TSegmentComputer, Functor, ReturnType &gt;</title>
<!-- Node1 -->
<g id="Node000001" class="node">
<title>Node1</title>
<g id="a_Node000001"><a xlink:title=" ">
<polygon fill="#999999" stroke="#666666" points="208,-75.5 0,-75.5 0,-34.5 208,-34.5 208,-75.5"/>
<text text-anchor="start" x="8" y="-63.5" font-family="FreeSans" font-size="10.00">DGtal::detail::PosIndepScale</text>
<text text-anchor="start" x="8" y="-52.5" font-family="FreeSans" font-size="10.00">DepSCEstimator&lt; TSegmentComputer,</text>
<text text-anchor="middle" x="104" y="-41.5" font-family="FreeSans" font-size="10.00"> Functor, ReturnType &gt;</text>
</a>
</g>
</g>
<!-- Node2 -->
<g id="Node000002" class="node">
<title>Node2</title>
<g id="a_Node000002"><a xlink:href="classDGtal_1_1CurvatureFromDCAEstimator.html" target="_top" xlink:title=" ">
<polygon fill="white" stroke="#666666" points="589,-100 398,-100 398,-70 589,-70 589,-100"/>
<text text-anchor="start" x="406" y="-88" font-family="FreeSans" font-size="10.00">DGtal::CurvatureFromDCAEstimator</text>
<text text-anchor="middle" x="493.5" y="-77" font-family="FreeSans" font-size="10.00">&lt; DCAComputer, isCCW &gt;</text>
</a>
</g>
</g>
<!-- Node1&#45;&gt;Node2 -->
<g id="edge1_Node000001_Node000002" class="edge">
<title>Node1&#45;&gt;Node2</title>
<g id="a_edge1_Node000001_Node000002"><a xlink:title=" ">
<path fill="none" stroke="#63b8ff" d="M218.31,-70.26C220.89,-70.52 223.46,-70.77 226,-71 282.86,-76.24 346.74,-79.68 397.71,-81.84"/>
<polygon fill="#63b8ff" stroke="#63b8ff" points="218.55,-66.77 208.24,-69.21 217.82,-73.73 218.55,-66.77"/>
</a>
</g>
</g>
<!-- Node3 -->
<g id="Node000003" class="node">
<title>Node3</title>
<g id="a_Node000003"><a xlink:href="classDGtal_1_1detail_1_1PosIndepScaleDepSCEstimator.html" target="_top" xlink:title=" ">
<polygon fill="white" stroke="#666666" points="583,-52 404,-52 404,0 583,0 583,-52"/>
<text text-anchor="start" x="412" y="-40" font-family="FreeSans" font-size="10.00">DGtal::detail::PosIndepScale</text>
<text text-anchor="start" x="412" y="-29" font-family="FreeSans" font-size="10.00">DepSCEstimator&lt; DCAComputer,</text>
<text text-anchor="start" x="412" y="-18" font-family="FreeSans" font-size="10.00"> detail::CurvatureFromDCA&lt;</text>
<text text-anchor="middle" x="493.5" y="-7" font-family="FreeSans" font-size="10.00"> true &gt; &gt;</text>
</a>
</g>
</g>
<!-- Node1&#45;&gt;Node3 -->
<g id="edge2_Node000001_Node000003" class="edge">
<title>Node1&#45;&gt;Node3</title>
<g id="a_edge2_Node000001_Node000003"><a xlink:title=" ">
<path fill="none" stroke="orange" stroke-dasharray="5,2" d="M218.22,-46.53C277.37,-42.1 348.71,-36.76 403.8,-32.64"/>
<polygon fill="orange" stroke="orange" points="217.79,-43.05 208.08,-47.29 218.31,-50.03 217.79,-43.05"/>
</a>
</g>
<text text-anchor="start" x="226" y="-59" font-family="FreeSans" font-size="10.00" fill="grey"> &lt; DCAComputer, detail</text>
<text text-anchor="middle" x="303" y="-48" font-family="FreeSans" font-size="10.00" fill="grey">::CurvatureFromDCA&lt; true &gt; &gt;</text>
</g>
</g>
</svg>
