<?xml version="1.0" encoding="UTF-8" standalone="no"?>
<!DOCTYPE svg PUBLIC "-//W3C//DTD SVG 1.1//EN"
 "http://www.w3.org/Graphics/SVG/1.1/DTD/svg11.dtd">
<!-- Generated by graphviz version 2.43.0 (0)
 -->
<!-- Title: DGtal::detail::PosIndepScaleIndepSCEstimator&lt; TSegmentComputer, Functor, ReturnType &gt; Pages: 1 -->
<svg width="895pt" height="179pt"
 viewBox="0.00 0.00 895.00 178.50" xmlns="http://www.w3.org/2000/svg" xmlns:xlink="http://www.w3.org/1999/xlink">
<g id="graph0" class="graph" transform="scale(1 1) rotate(0) translate(4 174.5)">
<title>DGtal::detail::PosIndepScaleIndepSCEstimator&lt; TSegmentComputer, Functor, ReturnType &gt;</title>
<!-- Node1 -->
<g id="Node000001" class="node">
<title>Node1</title>
<g id="a_Node000001"><a xlink:title=" ">
<polygon fill="#999999" stroke="#666666" points="215,-111.5 0,-111.5 0,-70.5 215,-70.5 215,-111.5"/>
<text text-anchor="start" x="8" y="-99.5" font-family="FreeSans" font-size="10.00">DGtal::detail::PosIndepScale</text>
<text text-anchor="start" x="8" y="-88.5" font-family="FreeSans" font-size="10.00">IndepSCEstimator&lt; TSegmentComputer,</text>
<text text-anchor="middle" x="107.5" y="-77.5" font-family="FreeSans" font-size="10.00"> Functor, ReturnType &gt;</text>
</a>
</g>
</g>
<!-- Node2 -->
<g id="Node000002" class="node">
<title>Node2</title>
<g id="a_Node000002"><a xlink:href="classDGtal_1_1detail_1_1PosIndepScaleIndepSCEstimator.html" target="_top" xlink:title=" ">
<polygon fill="white" stroke="#666666" points="617.5,-170.5 432.5,-170.5 432.5,-129.5 617.5,-129.5 617.5,-170.5"/>
<text text-anchor="start" x="440.5" y="-158.5" font-family="FreeSans" font-size="10.00">DGtal::detail::PosIndepScale</text>
<text text-anchor="start" x="440.5" y="-147.5" font-family="FreeSans" font-size="10.00">IndepSCEstimator&lt; DSSComputer,</text>
<text text-anchor="middle" x="525" y="-136.5" font-family="FreeSans" font-size="10.00"> detail::TangentAngleFromDSS &gt;</text>
</a>
</g>
</g>
<!-- Node1&#45;&gt;Node2 -->
<g id="edge1_Node000001_Node000002" class="edge">
<title>Node1&#45;&gt;Node2</title>
<g id="a_edge1_Node000001_Node000002"><a xlink:title=" ">
<path fill="none" stroke="orange" stroke-dasharray="5,2" d="M182.66,-114.36C199.1,-118.83 216.53,-123.03 233,-126 299.1,-137.9 374.74,-143.91 432.32,-146.94"/>
<polygon fill="orange" stroke="orange" points="183.14,-110.86 172.57,-111.55 181.26,-117.6 183.14,-110.86"/>
</a>
</g>
<text text-anchor="start" x="247.5" y="-157" font-family="FreeSans" font-size="10.00" fill="grey"> &lt; DSSComputer, detail</text>
<text text-anchor="middle" x="311.5" y="-146" font-family="FreeSans" font-size="10.00" fill="grey">::TangentAngleFromDSS &gt;</text>
</g>
<!-- Node4 -->
<g id="Node000004" class="node">
<title>Node4</title>
<g id="a_Node000004"><a xlink:href="classDGtal_1_1detail_1_1PosIndepScaleIndepSCEstimator.html" target="_top" xlink:title=" ">
<polygon fill="white" stroke="#666666" points="642,-111.5 408,-111.5 408,-70.5 642,-70.5 642,-111.5"/>
<text text-anchor="start" x="416" y="-99.5" font-family="FreeSans" font-size="10.00">DGtal::detail::PosIndepScale</text>
<text text-anchor="start" x="416" y="-88.5" font-family="FreeSans" font-size="10.00">IndepSCEstimator&lt; DSSComputer,</text>
<text text-anchor="middle" x="525" y="-77.5" font-family="FreeSans" font-size="10.00"> detail::NormalizedTangentVectorFromDSS &gt;</text>
</a>
</g>
</g>
<!-- Node1&#45;&gt;Node4 -->
<g id="edge3_Node000001_Node000004" class="edge">
<title>Node1&#45;&gt;Node4</title>
<g id="a_edge3_Node000001_Node000004"><a xlink:title=" ">
<path fill="none" stroke="orange" stroke-dasharray="5,2" d="M225.37,-91C282.4,-91 350.79,-91 407.73,-91"/>
<polygon fill="orange" stroke="orange" points="225.23,-87.5 215.23,-91 225.23,-94.5 225.23,-87.5"/>
</a>
</g>
<text text-anchor="start" x="233" y="-116" font-family="FreeSans" font-size="10.00" fill="grey"> &lt; DSSComputer, detail</text>
<text text-anchor="start" x="233" y="-105" font-family="FreeSans" font-size="10.00" fill="grey">::NormalizedTangentVectorFrom</text>
<text text-anchor="middle" x="311.5" y="-94" font-family="FreeSans" font-size="10.00" fill="grey">DSS &gt;</text>
</g>
<!-- Node6 -->
<g id="Node000006" class="node">
<title>Node6</title>
<g id="a_Node000006"><a xlink:href="classDGtal_1_1detail_1_1PosIndepScaleIndepSCEstimator.html" target="_top" xlink:title=" ">
<polygon fill="white" stroke="#666666" points="617.5,-52 432.5,-52 432.5,0 617.5,0 617.5,-52"/>
<text text-anchor="start" x="440.5" y="-40" font-family="FreeSans" font-size="10.00">DGtal::detail::PosIndepScale</text>
<text text-anchor="start" x="440.5" y="-29" font-family="FreeSans" font-size="10.00">IndepSCEstimator&lt; DSSComputer,</text>
<text text-anchor="start" x="440.5" y="-18" font-family="FreeSans" font-size="10.00"> detail::TangentVectorFromDSS</text>
<text text-anchor="middle" x="525" y="-7" font-family="FreeSans" font-size="10.00">&lt; DSSComputer &gt; &gt;</text>
</a>
</g>
</g>
<!-- Node1&#45;&gt;Node6 -->
<g id="edge5_Node000001_Node000006" class="edge">
<title>Node1&#45;&gt;Node6</title>
<g id="a_edge5_Node000001_Node000006"><a xlink:title=" ">
<path fill="none" stroke="orange" stroke-dasharray="5,2" d="M178.64,-67.58C196.22,-62.43 215.17,-57.47 233,-54 299.01,-41.14 374.64,-34.09 432.26,-30.28"/>
<polygon fill="orange" stroke="orange" points="177.6,-64.24 169.02,-70.46 179.61,-70.95 177.6,-64.24"/>
</a>
</g>
<text text-anchor="start" x="251.5" y="-79" font-family="FreeSans" font-size="10.00" fill="grey"> &lt; DSSComputer, detail</text>
<text text-anchor="start" x="251.5" y="-68" font-family="FreeSans" font-size="10.00" fill="grey">::TangentVectorFromDSS</text>
<text text-anchor="middle" x="311.5" y="-57" font-family="FreeSans" font-size="10.00" fill="grey">&lt; DSSComputer &gt; &gt;</text>
</g>
<!-- Node3 -->
<g id="Node000003" class="node">
<title>Node3</title>
<g id="a_Node000003"><a xlink:href="classDGtal_1_1TangentAngleFromDSSEstimator.html" target="_top" xlink:title=" ">
<polygon fill="white" stroke="#666666" points="887,-165 679,-165 679,-135 887,-135 887,-165"/>
<text text-anchor="start" x="687" y="-153" font-family="FreeSans" font-size="10.00">DGtal::TangentAngleFromDSSEstimator</text>
<text text-anchor="middle" x="783" y="-142" font-family="FreeSans" font-size="10.00">&lt; DSSComputer &gt;</text>
</a>
</g>
</g>
<!-- Node2&#45;&gt;Node3 -->
<g id="edge2_Node000002_Node000003" class="edge">
<title>Node2&#45;&gt;Node3</title>
<g id="a_edge2_Node000002_Node000003"><a xlink:title=" ">
<path fill="none" stroke="#63b8ff" d="M628.01,-150C644.71,-150 662.03,-150 678.77,-150"/>
<polygon fill="#63b8ff" stroke="#63b8ff" points="627.7,-146.5 617.7,-150 627.7,-153.5 627.7,-146.5"/>
</a>
</g>
</g>
<!-- Node5 -->
<g id="Node000005" class="node">
<title>Node5</title>
<g id="a_Node000005"><a xlink:href="classDGtal_1_1TangentFromDSSEstimator.html" target="_top" xlink:title=" ">
<polygon fill="white" stroke="#666666" points="873,-106 693,-106 693,-76 873,-76 873,-106"/>
<text text-anchor="start" x="701" y="-94" font-family="FreeSans" font-size="10.00">DGtal::TangentFromDSSEstimator</text>
<text text-anchor="middle" x="783" y="-83" font-family="FreeSans" font-size="10.00">&lt; DSSComputer &gt;</text>
</a>
</g>
</g>
<!-- Node4&#45;&gt;Node5 -->
<g id="edge4_Node000004_Node000005" class="edge">
<title>Node4&#45;&gt;Node5</title>
<g id="a_edge4_Node000004_Node000005"><a xlink:title=" ">
<path fill="none" stroke="#63b8ff" d="M652.04,-91C665.82,-91 679.64,-91 692.85,-91"/>
<polygon fill="#63b8ff" stroke="#63b8ff" points="652.02,-87.5 642.02,-91 652.02,-94.5 652.02,-87.5"/>
</a>
</g>
</g>
<!-- Node7 -->
<g id="Node000007" class="node">
<title>Node7</title>
<g id="a_Node000007"><a xlink:href="classDGtal_1_1TangentVectorFromDSSEstimator.html" target="_top" xlink:title=" ">
<polygon fill="white" stroke="#666666" points="869.5,-41 696.5,-41 696.5,-11 869.5,-11 869.5,-41"/>
<text text-anchor="start" x="704.5" y="-29" font-family="FreeSans" font-size="10.00">DGtal::TangentVectorFrom</text>
<text text-anchor="middle" x="783" y="-18" font-family="FreeSans" font-size="10.00">DSSEstimator&lt; DSSComputer &gt;</text>
</a>
</g>
</g>
<!-- Node6&#45;&gt;Node7 -->
<g id="edge6_Node000006_Node000007" class="edge">
<title>Node6&#45;&gt;Node7</title>
<g id="a_edge6_Node000006_Node000007"><a xlink:title=" ">
<path fill="none" stroke="#63b8ff" d="M627.73,-26C650.51,-26 674.45,-26 696.49,-26"/>
<polygon fill="#63b8ff" stroke="#63b8ff" points="627.7,-22.5 617.7,-26 627.7,-29.5 627.7,-22.5"/>
</a>
</g>
</g>
</g>
</svg>
