<?xml version="1.0" encoding="UTF-8" standalone="no"?>
<!DOCTYPE svg PUBLIC "-//W3C//DTD SVG 1.1//EN"
 "http://www.w3.org/Graphics/SVG/1.1/DTD/svg11.dtd">
<!-- Generated by graphviz version 2.43.0 (0)
 -->
<!-- Title: DGtal::detail::PosDepScaleIndepSCEstimator&lt; TSegmentComputer, Functor, ReturnType &gt; Pages: 1 -->
<svg width="798pt" height="108pt"
 viewBox="0.00 0.00 798.00 108.00" xmlns="http://www.w3.org/2000/svg" xmlns:xlink="http://www.w3.org/1999/xlink">
<g id="graph0" class="graph" transform="scale(1 1) rotate(0) translate(4 104)">
<title>DGtal::detail::PosDepScaleIndepSCEstimator&lt; TSegmentComputer, Functor, ReturnType &gt;</title>
<!-- Node1 -->
<g id="Node000001" class="node">
<title>Node1</title>
<g id="a_Node000001"><a xlink:title=" ">
<polygon fill="#999999" stroke="#666666" points="215,-70 0,-70 0,-29 215,-29 215,-70"/>
<text text-anchor="start" x="8" y="-58" font-family="FreeSans" font-size="10.00">DGtal::detail::PosDepScale</text>
<text text-anchor="start" x="8" y="-47" font-family="FreeSans" font-size="10.00">IndepSCEstimator&lt; TSegmentComputer,</text>
<text text-anchor="middle" x="107.5" y="-36" font-family="FreeSans" font-size="10.00"> Functor, ReturnType &gt;</text>
</a>
</g>
</g>
<!-- Node2 -->
<g id="Node000002" class="node">
<title>Node2</title>
<g id="a_Node000002"><a xlink:href="classDGtal_1_1detail_1_1PosDepScaleIndepSCEstimator.html" target="_top" xlink:title=" ">
<polygon fill="white" stroke="#666666" points="571,-100 384,-100 384,-59 571,-59 571,-100"/>
<text text-anchor="start" x="392" y="-88" font-family="FreeSans" font-size="10.00">DGtal::detail::PosDepScale</text>
<text text-anchor="start" x="392" y="-77" font-family="FreeSans" font-size="10.00">IndepSCEstimator&lt; DCAComputer,</text>
<text text-anchor="middle" x="477.5" y="-66" font-family="FreeSans" font-size="10.00"> detail::NormalVectorFromDCA &gt;</text>
</a>
</g>
</g>
<!-- Node1&#45;&gt;Node2 -->
<g id="edge1_Node000001_Node000002" class="edge">
<title>Node1&#45;&gt;Node2</title>
<g id="a_edge1_Node000001_Node000002"><a xlink:title=" ">
<path fill="none" stroke="orange" stroke-dasharray="5,2" d="M225.56,-59.04C276.75,-63.22 335.94,-68.04 383.97,-71.96"/>
<polygon fill="orange" stroke="orange" points="225.69,-55.54 215.44,-58.22 225.12,-62.52 225.69,-55.54"/>
</a>
</g>
<text text-anchor="start" x="234.5" y="-83.5" font-family="FreeSans" font-size="10.00" fill="grey"> &lt; DCAComputer, detail</text>
<text text-anchor="middle" x="299.5" y="-72.5" font-family="FreeSans" font-size="10.00" fill="grey">::NormalVectorFromDCA &gt;</text>
</g>
<!-- Node4 -->
<g id="Node000004" class="node">
<title>Node4</title>
<g id="a_Node000004"><a xlink:href="classDGtal_1_1detail_1_1PosDepScaleIndepSCEstimator.html" target="_top" xlink:title=" ">
<polygon fill="white" stroke="#666666" points="571,-41 384,-41 384,0 571,0 571,-41"/>
<text text-anchor="start" x="392" y="-29" font-family="FreeSans" font-size="10.00">DGtal::detail::PosDepScale</text>
<text text-anchor="start" x="392" y="-18" font-family="FreeSans" font-size="10.00">IndepSCEstimator&lt; DCAComputer,</text>
<text text-anchor="middle" x="477.5" y="-7" font-family="FreeSans" font-size="10.00"> detail::TangentVectorFromDCA &gt;</text>
</a>
</g>
</g>
<!-- Node1&#45;&gt;Node4 -->
<g id="edge3_Node000001_Node000004" class="edge">
<title>Node1&#45;&gt;Node4</title>
<g id="a_edge3_Node000001_Node000004"><a xlink:title=" ">
<path fill="none" stroke="orange" stroke-dasharray="5,2" d="M225.22,-32.27C227.84,-32 230.43,-31.74 233,-31.5 282.71,-26.79 338.33,-24.09 383.85,-22.54"/>
<polygon fill="orange" stroke="orange" points="224.6,-28.82 215.05,-33.39 225.37,-35.78 224.6,-28.82"/>
</a>
</g>
<text text-anchor="start" x="233" y="-45.5" font-family="FreeSans" font-size="10.00" fill="grey"> &lt; DCAComputer, detail</text>
<text text-anchor="middle" x="299.5" y="-34.5" font-family="FreeSans" font-size="10.00" fill="grey">::TangentVectorFromDCA &gt;</text>
</g>
<!-- Node3 -->
<g id="Node000003" class="node">
<title>Node3</title>
<g id="a_Node000003"><a xlink:href="classDGtal_1_1NormalFromDCAEstimator.html" target="_top" xlink:title=" ">
<polygon fill="white" stroke="#666666" points="788.5,-94.5 609.5,-94.5 609.5,-64.5 788.5,-64.5 788.5,-94.5"/>
<text text-anchor="start" x="617.5" y="-82.5" font-family="FreeSans" font-size="10.00">DGtal::NormalFromDCAEstimator</text>
<text text-anchor="middle" x="699" y="-71.5" font-family="FreeSans" font-size="10.00">&lt; DCAComputer &gt;</text>
</a>
</g>
</g>
<!-- Node2&#45;&gt;Node3 -->
<g id="edge2_Node000002_Node000003" class="edge">
<title>Node2&#45;&gt;Node3</title>
<g id="a_edge2_Node000002_Node000003"><a xlink:title=" ">
<path fill="none" stroke="#63b8ff" d="M581.39,-79.5C590.76,-79.5 600.19,-79.5 609.41,-79.5"/>
<polygon fill="#63b8ff" stroke="#63b8ff" points="581.27,-76 571.27,-79.5 581.27,-83 581.27,-76"/>
</a>
</g>
</g>
<!-- Node5 -->
<g id="Node000005" class="node">
<title>Node5</title>
<g id="a_Node000005"><a xlink:href="classDGtal_1_1TangentFromDCAEstimator.html" target="_top" xlink:title=" ">
<polygon fill="white" stroke="#666666" points="790,-35.5 608,-35.5 608,-5.5 790,-5.5 790,-35.5"/>
<text text-anchor="start" x="616" y="-23.5" font-family="FreeSans" font-size="10.00">DGtal::TangentFromDCAEstimator</text>
<text text-anchor="middle" x="699" y="-12.5" font-family="FreeSans" font-size="10.00">&lt; DCAComputer &gt;</text>
</a>
</g>
</g>
<!-- Node4&#45;&gt;Node5 -->
<g id="edge4_Node000004_Node000005" class="edge">
<title>Node4&#45;&gt;Node5</title>
<g id="a_edge4_Node000004_Node000005"><a xlink:title=" ">
<path fill="none" stroke="#63b8ff" d="M581.49,-20.5C590.23,-20.5 599.03,-20.5 607.66,-20.5"/>
<polygon fill="#63b8ff" stroke="#63b8ff" points="581.27,-17 571.27,-20.5 581.27,-24 581.27,-17"/>
</a>
</g>
</g>
</g>
</svg>
