<?xml version="1.0" encoding="UTF-8" standalone="no"?>
<!DOCTYPE svg PUBLIC "-//W3C//DTD SVG 1.1//EN"
 "http://www.w3.org/Graphics/SVG/1.1/DTD/svg11.dtd">
<!-- Generated by graphviz version 2.43.0 (0)
 -->
<!-- Title: DGtal::NormalFromDCAEstimator&lt; DCAComputer &gt; Pages: 1 -->
<svg width="792pt" height="51pt"
 viewBox="0.00 0.00 792.00 50.50" xmlns="http://www.w3.org/2000/svg" xmlns:xlink="http://www.w3.org/1999/xlink">
<g id="graph0" class="graph" transform="scale(1 1) rotate(0) translate(4 46.5)">
<title>DGtal::NormalFromDCAEstimator&lt; DCAComputer &gt;</title>
<!-- Node1 -->
<g id="Node000001" class="node">
<title>Node1</title>
<g id="a_Node000001"><a xlink:title=" ">
<polygon fill="#999999" stroke="#666666" points="784,-35.5 605,-35.5 605,-5.5 784,-5.5 784,-35.5"/>
<text text-anchor="start" x="613" y="-23.5" font-family="FreeSans" font-size="10.00">DGtal::NormalFromDCAEstimator</text>
<text text-anchor="middle" x="694.5" y="-12.5" font-family="FreeSans" font-size="10.00">&lt; DCAComputer &gt;</text>
</a>
</g>
</g>
<!-- Node2 -->
<g id="Node000002" class="node">
<title>Node2</title>
<g id="a_Node000002"><a xlink:href="classDGtal_1_1detail_1_1PosDepScaleIndepSCEstimator.html" target="_top" xlink:title=" ">
<polygon fill="white" stroke="#666666" points="568,-41 381,-41 381,0 568,0 568,-41"/>
<text text-anchor="start" x="389" y="-29" font-family="FreeSans" font-size="10.00">DGtal::detail::PosDepScale</text>
<text text-anchor="start" x="389" y="-18" font-family="FreeSans" font-size="10.00">IndepSCEstimator&lt; DCAComputer,</text>
<text text-anchor="middle" x="474.5" y="-7" font-family="FreeSans" font-size="10.00"> detail::NormalVectorFromDCA &gt;</text>
</a>
</g>
</g>
<!-- Node2&#45;&gt;Node1 -->
<g id="edge1_Node000001_Node000002" class="edge">
<title>Node2&#45;&gt;Node1</title>
<g id="a_edge1_Node000001_Node000002"><a xlink:title=" ">
<path fill="none" stroke="#63b8ff" d="M578.3,-20.5C587.22,-20.5 596.19,-20.5 604.98,-20.5"/>
<polygon fill="#63b8ff" stroke="#63b8ff" points="578.27,-17 568.27,-20.5 578.27,-24 578.27,-17"/>
</a>
</g>
</g>
<!-- Node3 -->
<g id="Node000003" class="node">
<title>Node3</title>
<g id="a_Node000003"><a xlink:href="classDGtal_1_1detail_1_1PosDepScaleIndepSCEstimator.html" target="_top" xlink:title=" ">
<polygon fill="white" stroke="#666666" points="215,-41 0,-41 0,0 215,0 215,-41"/>
<text text-anchor="start" x="8" y="-29" font-family="FreeSans" font-size="10.00">DGtal::detail::PosDepScale</text>
<text text-anchor="start" x="8" y="-18" font-family="FreeSans" font-size="10.00">IndepSCEstimator&lt; TSegmentComputer,</text>
<text text-anchor="middle" x="107.5" y="-7" font-family="FreeSans" font-size="10.00"> Functor, ReturnType &gt;</text>
</a>
</g>
</g>
<!-- Node3&#45;&gt;Node2 -->
<g id="edge2_Node000002_Node000003" class="edge">
<title>Node3&#45;&gt;Node2</title>
<g id="a_edge2_Node000002_Node000003"><a xlink:title=" ">
<path fill="none" stroke="orange" stroke-dasharray="5,2" d="M225.33,-20.5C275.59,-20.5 333.51,-20.5 380.76,-20.5"/>
<polygon fill="orange" stroke="orange" points="225.05,-17 215.05,-20.5 225.05,-24 225.05,-17"/>
</a>
</g>
<text text-anchor="start" x="233" y="-34.5" font-family="FreeSans" font-size="10.00" fill="grey"> &lt; DCAComputer, detail</text>
<text text-anchor="middle" x="298" y="-23.5" font-family="FreeSans" font-size="10.00" fill="grey">::NormalVectorFromDCA &gt;</text>
</g>
</g>
</svg>
