<?xml version="1.0" encoding="UTF-8" standalone="no"?>
<!DOCTYPE svg PUBLIC "-//W3C//DTD SVG 1.1//EN"
 "http://www.w3.org/Graphics/SVG/1.1/DTD/svg11.dtd">
<!-- Generated by graphviz version 2.43.0 (0)
 -->
<!-- Title: DGtal::ImageContainerBySTLVector&lt; TDomain, TValue &gt; Pages: 1 -->
<svg width="670pt" height="86pt"
 viewBox="0.00 0.00 670.00 86.00" xmlns="http://www.w3.org/2000/svg" xmlns:xlink="http://www.w3.org/1999/xlink">
<g id="graph0" class="graph" transform="scale(1 1) rotate(0) translate(4 82)">
<title>DGtal::ImageContainerBySTLVector&lt; TDomain, TValue &gt;</title>
<!-- Node1 -->
<g id="Node000001" class="node">
<title>Node1</title>
<g id="a_Node000001"><a xlink:title=" ">
<polygon fill="#999999" stroke="#666666" points="322,-54 134,-54 134,-24 322,-24 322,-54"/>
<text text-anchor="start" x="142" y="-42" font-family="FreeSans" font-size="10.00">DGtal::ImageContainerBySTLVector</text>
<text text-anchor="middle" x="228" y="-31" font-family="FreeSans" font-size="10.00">&lt; TDomain, TValue &gt;</text>
</a>
</g>
</g>
<!-- Node3 -->
<g id="Node000003" class="node">
<title>Node3</title>
<g id="a_Node000003"><a xlink:href="classDGtal_1_1ImageContainerBySTLVector.html" target="_top" xlink:title=" ">
<polygon fill="white" stroke="#666666" points="662,-78 474,-78 474,-48 662,-48 662,-78"/>
<text text-anchor="start" x="482" y="-66" font-family="FreeSans" font-size="10.00">DGtal::ImageContainerBySTLVector</text>
<text text-anchor="middle" x="568" y="-55" font-family="FreeSans" font-size="10.00">&lt; Domain, Value &gt;</text>
</a>
</g>
</g>
<!-- Node1&#45;&gt;Node3 -->
<g id="edge2_Node000001_Node000003" class="edge">
<title>Node1&#45;&gt;Node3</title>
<g id="a_edge2_Node000001_Node000003"><a xlink:title=" ">
<path fill="none" stroke="orange" stroke-dasharray="5,2" d="M332.35,-46.34C377.43,-49.54 429.89,-53.26 473.76,-56.38"/>
<polygon fill="orange" stroke="orange" points="332.48,-42.84 322.25,-45.62 331.98,-49.82 332.48,-42.84"/>
</a>
</g>
<text text-anchor="middle" x="398" y="-57" font-family="FreeSans" font-size="10.00" fill="grey"> &lt; Domain, Value &gt;</text>
</g>
<!-- Node4 -->
<g id="Node000004" class="node">
<title>Node4</title>
<g id="a_Node000004"><a xlink:href="classDGtal_1_1ImageContainerBySTLVector.html" target="_top" xlink:title=" ">
<polygon fill="white" stroke="#666666" points="662,-30 474,-30 474,0 662,0 662,-30"/>
<text text-anchor="start" x="482" y="-18" font-family="FreeSans" font-size="10.00">DGtal::ImageContainerBySTLVector</text>
<text text-anchor="middle" x="568" y="-7" font-family="FreeSans" font-size="10.00">&lt; Domain, Storage * &gt;</text>
</a>
</g>
</g>
<!-- Node1&#45;&gt;Node4 -->
<g id="edge3_Node000001_Node000004" class="edge">
<title>Node1&#45;&gt;Node4</title>
<g id="a_edge3_Node000001_Node000004"><a xlink:title=" ">
<path fill="none" stroke="orange" stroke-dasharray="5,2" d="M332.35,-31.66C377.43,-28.46 429.89,-24.74 473.76,-21.62"/>
<polygon fill="orange" stroke="orange" points="331.98,-28.18 322.25,-32.38 332.48,-35.16 331.98,-28.18"/>
</a>
</g>
<text text-anchor="middle" x="398" y="-34" font-family="FreeSans" font-size="10.00" fill="grey"> &lt; Domain, Storage * &gt;</text>
</g>
<!-- Node2 -->
<g id="Node000002" class="node">
<title>Node2</title>
<g id="a_Node000002"><a xlink:title=" ">
<polygon fill="white" stroke="#666666" points="97,-48.5 0,-48.5 0,-29.5 97,-29.5 97,-48.5"/>
<text text-anchor="middle" x="48.5" y="-36.5" font-family="FreeSans" font-size="10.00">std::vector&lt; T &gt;</text>
</a>
</g>
</g>
<!-- Node2&#45;&gt;Node1 -->
<g id="edge1_Node000001_Node000002" class="edge">
<title>Node2&#45;&gt;Node1</title>
<g id="a_edge1_Node000001_Node000002"><a xlink:title=" ">
<path fill="none" stroke="#63b8ff" d="M107.22,-39C115.74,-39 124.7,-39 133.72,-39"/>
<polygon fill="#63b8ff" stroke="#63b8ff" points="107.07,-35.5 97.07,-39 107.07,-42.5 107.07,-35.5"/>
</a>
</g>
</g>
</g>
</svg>
