<?xml version="1.0" encoding="UTF-8" standalone="no"?>
<!DOCTYPE svg PUBLIC "-//W3C//DTD SVG 1.1//EN"
 "http://www.w3.org/Graphics/SVG/1.1/DTD/svg11.dtd">
<!-- Generated by graphviz version 2.43.0 (0)
 -->
<!-- Title: MyImage&lt; T, N &gt; Pages: 1 -->
<svg width="194pt" height="171pt"
 viewBox="0.00 0.00 193.50 171.00" xmlns="http://www.w3.org/2000/svg" xmlns:xlink="http://www.w3.org/1999/xlink">
<g id="graph0" class="graph" transform="scale(1 1) rotate(0) translate(4 167)">
<title>MyImage&lt; T, N &gt;</title>
<!-- Node1 -->
<g id="Node000001" class="node">
<title>Node1</title>
<g id="a_Node000001"><a xlink:title="[includes]">
<polygon fill="#999999" stroke="#666666" points="123.5,-19 19.5,-19 19.5,0 123.5,0 123.5,-19"/>
<text text-anchor="middle" x="71.5" y="-7" font-family="FreeSans" font-size="10.00">MyImage&lt; T, N &gt;</text>
</a>
</g>
</g>
<!-- Node2 -->
<g id="Node000002" class="node">
<title>Node2</title>
<g id="a_Node000002"><a xlink:href="classDGtal_1_1IteratorCompletion.html" target="_top" xlink:title=" ">
<polygon fill="white" stroke="#666666" points="143,-86 0,-86 0,-56 143,-56 143,-86"/>
<text text-anchor="start" x="8" y="-74" font-family="FreeSans" font-size="10.00">DGtal::IteratorCompletion</text>
<text text-anchor="middle" x="71.5" y="-63" font-family="FreeSans" font-size="10.00">&lt; MyImage&lt; T, N &gt; &gt;</text>
</a>
</g>
</g>
<!-- Node2&#45;&gt;Node1 -->
<g id="edge1_Node000001_Node000002" class="edge">
<title>Node2&#45;&gt;Node1</title>
<g id="a_edge1_Node000001_Node000002"><a xlink:title=" ">
<path fill="none" stroke="#63b8ff" d="M71.5,-45.79C71.5,-36.36 71.5,-26.15 71.5,-19.16"/>
<polygon fill="#63b8ff" stroke="#63b8ff" points="68,-45.9 71.5,-55.9 75,-45.9 68,-45.9"/>
</a>
</g>
</g>
<!-- Node3 -->
<g id="Node000003" class="node">
<title>Node3</title>
<g id="a_Node000003"><a xlink:href="classDGtal_1_1IteratorCompletion.html" target="_top" xlink:title="Aim: Class that uses CRTP to add reverse iterators and ranges to a derived class.">
<polygon fill="white" stroke="#666666" points="143,-163 0,-163 0,-133 143,-133 143,-163"/>
<text text-anchor="start" x="8" y="-151" font-family="FreeSans" font-size="10.00">DGtal::IteratorCompletion</text>
<text text-anchor="middle" x="71.5" y="-140" font-family="FreeSans" font-size="10.00">&lt; TDerived &gt;</text>
</a>
</g>
</g>
<!-- Node3&#45;&gt;Node2 -->
<g id="edge2_Node000002_Node000003" class="edge">
<title>Node3&#45;&gt;Node2</title>
<g id="a_edge2_Node000002_Node000003"><a xlink:title=" ">
<path fill="none" stroke="orange" stroke-dasharray="5,2" d="M71.5,-122.54C71.5,-110.45 71.5,-96.29 71.5,-86.04"/>
<polygon fill="orange" stroke="orange" points="68,-122.89 71.5,-132.89 75,-122.89 68,-122.89"/>
</a>
</g>
<text text-anchor="middle" x="128.5" y="-107" font-family="FreeSans" font-size="10.00" fill="grey"> &lt; MyImage&lt; T, N &gt; &gt;</text>
</g>
</g>
</svg>
