<?xml version="1.0" encoding="UTF-8" standalone="no"?>
<!DOCTYPE svg PUBLIC "-//W3C//DTD SVG 1.1//EN"
 "http://www.w3.org/Graphics/SVG/1.1/DTD/svg11.dtd">
<!-- Generated by graphviz version 2.43.0 (0)
 -->
<!-- Title: DGtal::Display3D&lt; Space, KSpace &gt; Pages: 1 -->
<svg width="528pt" height="182pt"
 viewBox="0.00 0.00 528.00 182.00" xmlns="http://www.w3.org/2000/svg" xmlns:xlink="http://www.w3.org/1999/xlink">
<g id="graph0" class="graph" transform="scale(1 1) rotate(0) translate(4 178)">
<title>DGtal::Display3D&lt; Space, KSpace &gt;</title>
<!-- Node1 -->
<g id="Node000001" class="node">
<title>Node1</title>
<g id="a_Node000001"><a xlink:title="Base class for viewing DGtal objects.">
<polygon fill="#999999" stroke="#666666" points="144,-102 0,-102 0,-72 144,-72 144,-102"/>
<text text-anchor="start" x="8" y="-90" font-family="FreeSans" font-size="10.00">DGtal::Display3D&lt; Space,</text>
<text text-anchor="middle" x="72" y="-79" font-family="FreeSans" font-size="10.00"> KSpace &gt;</text>
</a>
</g>
</g>
<!-- Node2 -->
<g id="Node000002" class="node">
<title>Node2</title>
<g id="a_Node000002"><a xlink:href="classDGtal_1_1PolyscopeViewer.html" target="_top" xlink:title=" ">
<polygon fill="white" stroke="#666666" points="480.5,-174 346.5,-174 346.5,-144 480.5,-144 480.5,-174"/>
<text text-anchor="start" x="354.5" y="-162" font-family="FreeSans" font-size="10.00">DGtal::PolyscopeViewer</text>
<text text-anchor="middle" x="413.5" y="-151" font-family="FreeSans" font-size="10.00">&lt; Space, KSpace &gt;</text>
</a>
</g>
</g>
<!-- Node1&#45;&gt;Node2 -->
<g id="edge1_Node000001_Node000002" class="edge">
<title>Node1&#45;&gt;Node2</title>
<g id="a_edge1_Node000001_Node000002"><a xlink:title=" ">
<path fill="none" stroke="#63b8ff" d="M110.34,-106.74C125.92,-114.19 144.45,-122.05 162,-127 223.08,-144.22 295.18,-152.19 346.3,-155.88"/>
<polygon fill="#63b8ff" stroke="#63b8ff" points="111.57,-103.45 101.05,-102.19 108.49,-109.74 111.57,-103.45"/>
</a>
</g>
</g>
<!-- Node3 -->
<g id="Node000003" class="node">
<title>Node3</title>
<g id="a_Node000003"><a xlink:href="classDGtal_1_1Display3D.html" target="_top" xlink:title=" ">
<polygon fill="white" stroke="#666666" points="477.5,-126 349.5,-126 349.5,-96 477.5,-96 477.5,-126"/>
<text text-anchor="start" x="357.5" y="-114" font-family="FreeSans" font-size="10.00">DGtal::Display3D&lt; Z3i</text>
<text text-anchor="middle" x="413.5" y="-103" font-family="FreeSans" font-size="10.00">::Space, Z3i::KSpace &gt;</text>
</a>
</g>
</g>
<!-- Node1&#45;&gt;Node3 -->
<g id="edge2_Node000001_Node000003" class="edge">
<title>Node1&#45;&gt;Node3</title>
<g id="a_edge2_Node000001_Node000003"><a xlink:title=" ">
<path fill="none" stroke="orange" stroke-dasharray="5,2" d="M154.34,-92.75C214.2,-96.98 294.39,-102.65 349.43,-106.54"/>
<polygon fill="orange" stroke="orange" points="154.39,-89.25 144.17,-92.03 153.9,-96.23 154.39,-89.25"/>
</a>
</g>
<text text-anchor="start" x="178.5" y="-115" font-family="FreeSans" font-size="10.00" fill="grey"> &lt; Z3i::Space, Z3i::</text>
<text text-anchor="middle" x="225.5" y="-104" font-family="FreeSans" font-size="10.00" fill="grey">KSpace &gt;</text>
</g>
<!-- Node4 -->
<g id="Node000004" class="node">
<title>Node4</title>
<g id="a_Node000004"><a xlink:href="classDGtal_1_1Display3D.html" target="_top" xlink:title=" ">
<polygon fill="white" stroke="#666666" points="520,-78 307,-78 307,-48 520,-48 520,-78"/>
<text text-anchor="start" x="315" y="-66" font-family="FreeSans" font-size="10.00">DGtal::Display3D&lt; DGtal</text>
<text text-anchor="middle" x="413.5" y="-55" font-family="FreeSans" font-size="10.00">::SpaceND, DGtal::KhalimskySpaceND &gt;</text>
</a>
</g>
</g>
<!-- Node1&#45;&gt;Node4 -->
<g id="edge3_Node000001_Node000004" class="edge">
<title>Node1&#45;&gt;Node4</title>
<g id="a_edge3_Node000001_Node000004"><a xlink:title=" ">
<path fill="none" stroke="orange" stroke-dasharray="5,2" d="M141.92,-70.06C148.67,-68.84 155.45,-67.78 162,-67 209.29,-61.37 261.96,-59.82 306.75,-59.9"/>
<polygon fill="orange" stroke="orange" points="141.23,-66.63 132.07,-71.95 142.55,-73.5 141.23,-66.63"/>
</a>
</g>
<text text-anchor="start" x="162" y="-81" font-family="FreeSans" font-size="10.00" fill="grey"> &lt; DGtal::SpaceND, DGtal</text>
<text text-anchor="middle" x="225.5" y="-70" font-family="FreeSans" font-size="10.00" fill="grey">::KhalimskySpaceND &gt;</text>
</g>
<!-- Node5 -->
<g id="Node000005" class="node">
<title>Node5</title>
<g id="a_Node000005"><a xlink:href="classDGtal_1_1Display3D.html" target="_top" xlink:title=" ">
<polygon fill="white" stroke="#666666" points="477,-30 350,-30 350,0 477,0 477,-30"/>
<text text-anchor="start" x="358" y="-18" font-family="FreeSans" font-size="10.00">DGtal::Display3D&lt; Sp,</text>
<text text-anchor="middle" x="413.5" y="-7" font-family="FreeSans" font-size="10.00"> KSp &gt;</text>
</a>
</g>
</g>
<!-- Node1&#45;&gt;Node5 -->
<g id="edge4_Node000001_Node000005" class="edge">
<title>Node1&#45;&gt;Node5</title>
<g id="a_edge4_Node000001_Node000005"><a xlink:title=" ">
<path fill="none" stroke="orange" stroke-dasharray="5,2" d="M107.56,-66.95C123.62,-58.53 143.27,-49.44 162,-44 224.33,-25.9 298.48,-19.04 349.85,-16.47"/>
<polygon fill="orange" stroke="orange" points="105.7,-63.98 98.56,-71.8 109.02,-70.14 105.7,-63.98"/>
</a>
</g>
<text text-anchor="middle" x="225.5" y="-47" font-family="FreeSans" font-size="10.00" fill="grey"> &lt; Sp, KSp &gt;</text>
</g>
</g>
</svg>
