<?xml version="1.0" encoding="UTF-8" standalone="no"?>
<!DOCTYPE svg PUBLIC "-//W3C//DTD SVG 1.1//EN"
 "http://www.w3.org/Graphics/SVG/1.1/DTD/svg11.dtd">
<!-- Generated by graphviz version 2.43.0 (0)
 -->
<!-- Title: DGtal::OutputIteratorAdapter&lt; TIterator, TFunctor, TInputValue &gt; Pages: 1 -->
<svg width="201pt" height="117pt"
 viewBox="0.00 0.00 201.00 117.00" xmlns="http://www.w3.org/2000/svg" xmlns:xlink="http://www.w3.org/1999/xlink">
<g id="graph0" class="graph" transform="scale(1 1) rotate(0) translate(4 113)">
<title>DGtal::OutputIteratorAdapter&lt; TIterator, TFunctor, TInputValue &gt;</title>
<polygon fill="white" stroke="transparent" points="-4,4 -4,-113 197,-113 197,4 -4,4"/>
<!-- Node1 -->
<g id="node1" class="node">
<title>Node1</title>
<g id="a_node1"><a xlink:title="Aim: Adapts an output iterator i with a unary functor f, both given at construction,...">
<polygon fill="#bfbfbf" stroke="black" points="0,-0.5 0,-30.5 193,-30.5 193,-0.5 0,-0.5"/>
<text text-anchor="start" x="8" y="-18.5" font-family="FreeSans" font-size="10.00">DGtal::OutputIteratorAdapter</text>
<text text-anchor="middle" x="96.5" y="-7.5" font-family="FreeSans" font-size="10.00">&lt; TIterator, TFunctor, TInputValue &gt;</text>
</a>
</g>
</g>
<!-- Node2 -->
<g id="node2" class="node">
<title>Node2</title>
<g id="a_node2"><a xlink:title=" ">
<polygon fill="white" stroke="#bfbfbf" points="30,-67.5 30,-108.5 163,-108.5 163,-67.5 30,-67.5"/>
<text text-anchor="start" x="38" y="-96.5" font-family="FreeSans" font-size="10.00">std::iterator&lt; std</text>
<text text-anchor="start" x="38" y="-85.5" font-family="FreeSans" font-size="10.00">::output_iterator_tag,</text>
<text text-anchor="middle" x="96.5" y="-74.5" font-family="FreeSans" font-size="10.00"> void, void, void, void &gt;</text>
</a>
</g>
</g>
<!-- Node2&#45;&gt;Node1 -->
<g id="edge1" class="edge">
<title>Node2&#45;&gt;Node1</title>
<path fill="none" stroke="midnightblue" d="M96.5,-57.08C96.5,-48.01 96.5,-38.45 96.5,-30.89"/>
<polygon fill="midnightblue" stroke="midnightblue" points="93,-57.36 96.5,-67.36 100,-57.36 93,-57.36"/>
</g>
</g>
</svg>
