<?xml version="1.0" encoding="UTF-8" standalone="no"?>
<!DOCTYPE svg PUBLIC "-//W3C//DTD SVG 1.1//EN"
 "http://www.w3.org/Graphics/SVG/1.1/DTD/svg11.dtd">
<!-- Generated by graphviz version 2.43.0 (0)
 -->
<!-- Title: DGtal::PlaneProbingNeighborhood&lt; TPredicate &gt; Pages: 1 -->
<svg width="647pt" height="110pt"
 viewBox="0.00 0.00 647.00 110.00" xmlns="http://www.w3.org/2000/svg" xmlns:xlink="http://www.w3.org/1999/xlink">
<g id="graph0" class="graph" transform="scale(1 1) rotate(0) translate(4 106)">
<title>DGtal::PlaneProbingNeighborhood&lt; TPredicate &gt;</title>
<!-- Node1 -->
<g id="Node000001" class="node">
<title>Node1</title>
<g id="a_Node000001"><a xlink:title="Aim: A base virtual class that represents a way to probe a neighborhood, used in the plane probing ba...">
<polygon fill="#999999" stroke="#666666" points="182,-78 0,-78 0,-48 182,-48 182,-78"/>
<text text-anchor="start" x="8" y="-66" font-family="FreeSans" font-size="10.00">DGtal::PlaneProbingNeighborhood</text>
<text text-anchor="middle" x="91" y="-55" font-family="FreeSans" font-size="10.00">&lt; TPredicate &gt;</text>
</a>
</g>
</g>
<!-- Node2 -->
<g id="Node000002" class="node">
<title>Node2</title>
<g id="a_Node000002"><a xlink:href="classDGtal_1_1PlaneProbingHNeighborhood.html" target="_top" xlink:title="Aim: Represent a way to probe the H&#45;neighborhood.">
<polygon fill="white" stroke="#666666" points="408,-102 218,-102 218,-72 408,-72 408,-102"/>
<text text-anchor="start" x="226" y="-90" font-family="FreeSans" font-size="10.00">DGtal::PlaneProbingHNeighborhood</text>
<text text-anchor="middle" x="313" y="-79" font-family="FreeSans" font-size="10.00">&lt; TPredicate &gt;</text>
</a>
</g>
</g>
<!-- Node1&#45;&gt;Node2 -->
<g id="edge1_Node000001_Node000002" class="edge">
<title>Node1&#45;&gt;Node2</title>
<g id="a_edge1_Node000001_Node000002"><a xlink:title=" ">
<path fill="none" stroke="#63b8ff" d="M192.09,-73.92C200.63,-74.85 209.25,-75.79 217.74,-76.72"/>
<polygon fill="#63b8ff" stroke="#63b8ff" points="192.44,-70.44 182.12,-72.83 191.68,-77.39 192.44,-70.44"/>
</a>
</g>
</g>
<!-- Node3 -->
<g id="Node000003" class="node">
<title>Node3</title>
<g id="a_Node000003"><a xlink:href="classDGtal_1_1PlaneProbingRNeighborhood.html" target="_top" xlink:title="Aim: Represent a way to probe the R&#45;neighborhood.">
<polygon fill="white" stroke="#666666" points="407.5,-54 218.5,-54 218.5,-24 407.5,-24 407.5,-54"/>
<text text-anchor="start" x="226.5" y="-42" font-family="FreeSans" font-size="10.00">DGtal::PlaneProbingRNeighborhood</text>
<text text-anchor="middle" x="313" y="-31" font-family="FreeSans" font-size="10.00">&lt; TPredicate &gt;</text>
</a>
</g>
</g>
<!-- Node1&#45;&gt;Node3 -->
<g id="edge2_Node000001_Node000003" class="edge">
<title>Node1&#45;&gt;Node3</title>
<g id="a_edge2_Node000001_Node000003"><a xlink:title=" ">
<path fill="none" stroke="#63b8ff" d="M192.29,-52.06C201.01,-51.11 209.8,-50.15 218.45,-49.2"/>
<polygon fill="#63b8ff" stroke="#63b8ff" points="191.68,-48.61 182.12,-53.17 192.44,-55.56 191.68,-48.61"/>
</a>
</g>
</g>
<!-- Node4 -->
<g id="Node000004" class="node">
<title>Node4</title>
<g id="a_Node000004"><a xlink:href="classDGtal_1_1PlaneProbingLNeighborhood.html" target="_top" xlink:title="Aim: Represents a way to probe the L&#45;neighborhood, see &#160;for details.">
<polygon fill="white" stroke="#666666" points="635.5,-78 447.5,-78 447.5,-48 635.5,-48 635.5,-78"/>
<text text-anchor="start" x="455.5" y="-66" font-family="FreeSans" font-size="10.00">DGtal::PlaneProbingLNeighborhood</text>
<text text-anchor="middle" x="541.5" y="-55" font-family="FreeSans" font-size="10.00">&lt; TPredicate &gt;</text>
</a>
</g>
</g>
<!-- Node3&#45;&gt;Node4 -->
<g id="edge3_Node000003_Node000004" class="edge">
<title>Node3&#45;&gt;Node4</title>
<g id="a_edge3_Node000003_Node000004"><a xlink:title=" ">
<path fill="none" stroke="#63b8ff" d="M417.89,-50.01C427.66,-51.04 437.52,-52.09 447.17,-53.11"/>
<polygon fill="#63b8ff" stroke="#63b8ff" points="418.07,-46.51 407.76,-48.93 417.34,-53.47 418.07,-46.51"/>
</a>
</g>
</g>
<!-- Node5 -->
<g id="Node000005" class="node">
<title>Node5</title>
<g id="a_Node000005"><a xlink:href="classDGtal_1_1PlaneProbingR1Neighborhood.html" target="_top" xlink:title="Aim: Represent a way to probe the R&#45;neighborhood, with the R1 optimization, see &#160;for details.">
<polygon fill="white" stroke="#666666" points="639,-30 444,-30 444,0 639,0 639,-30"/>
<text text-anchor="start" x="452" y="-18" font-family="FreeSans" font-size="10.00">DGtal::PlaneProbingR1Neighborhood</text>
<text text-anchor="middle" x="541.5" y="-7" font-family="FreeSans" font-size="10.00">&lt; TPredicate &gt;</text>
</a>
</g>
</g>
<!-- Node3&#45;&gt;Node5 -->
<g id="edge4_Node000003_Node000005" class="edge">
<title>Node3&#45;&gt;Node5</title>
<g id="a_edge4_Node000003_Node000005"><a xlink:title=" ">
<path fill="none" stroke="#63b8ff" d="M417.88,-27.99C426.54,-27.07 435.28,-26.15 443.88,-25.24"/>
<polygon fill="#63b8ff" stroke="#63b8ff" points="417.34,-24.53 407.76,-29.07 418.07,-31.49 417.34,-24.53"/>
</a>
</g>
</g>
</g>
</svg>
