<?xml version="1.0" encoding="UTF-8" standalone="no"?>
<!DOCTYPE svg PUBLIC "-//W3C//DTD SVG 1.1//EN"
 "http://www.w3.org/Graphics/SVG/1.1/DTD/svg11.dtd">
<!-- Generated by graphviz version 2.43.0 (0)
 -->
<!-- Title: DGtal::ArithmeticalDSSComputer&lt; TIterator, TInteger, adjacency &gt; Pages: 1 -->
<svg width="526pt" height="158pt"
 viewBox="0.00 0.00 526.00 157.50" xmlns="http://www.w3.org/2000/svg" xmlns:xlink="http://www.w3.org/1999/xlink">
<g id="graph0" class="graph" transform="scale(1 1) rotate(0) translate(4 153.5)">
<title>DGtal::ArithmeticalDSSComputer&lt; TIterator, TInteger, adjacency &gt;</title>
<!-- Node1 -->
<g id="Node000001" class="node">
<title>Node1</title>
<g id="a_Node000001"><a xlink:title="Aim: This class is a wrapper around ArithmeticalDSS that is devoted to the dynamic recognition of dig...">
<polygon fill="#999999" stroke="#666666" points="183,-89.5 0,-89.5 0,-59.5 183,-59.5 183,-89.5"/>
<text text-anchor="start" x="8" y="-77.5" font-family="FreeSans" font-size="10.00">DGtal::ArithmeticalDSSComputer</text>
<text text-anchor="middle" x="91.5" y="-66.5" font-family="FreeSans" font-size="10.00">&lt; TIterator, TInteger, adjacency &gt;</text>
</a>
</g>
</g>
<!-- Node2 -->
<g id="Node000002" class="node">
<title>Node2</title>
<g id="a_Node000002"><a xlink:href="classDGtal_1_1ArithmeticalDSSComputer.html" target="_top" xlink:title=" ">
<polygon fill="white" stroke="#666666" points="518,-149 340,-149 340,-108 518,-108 518,-149"/>
<text text-anchor="start" x="348" y="-137" font-family="FreeSans" font-size="10.00">DGtal::ArithmeticalDSSComputer</text>
<text text-anchor="start" x="348" y="-126" font-family="FreeSans" font-size="10.00">&lt; std::vector&lt; Z2i::Point</text>
<text text-anchor="middle" x="429" y="-115" font-family="FreeSans" font-size="10.00"> &gt;::const_iterator, int, 4 &gt;</text>
</a>
</g>
</g>
<!-- Node1&#45;&gt;Node2 -->
<g id="edge1_Node000001_Node000002" class="edge">
<title>Node1&#45;&gt;Node2</title>
<g id="a_edge1_Node000001_Node000002"><a xlink:title=" ">
<path fill="none" stroke="orange" stroke-dasharray="5,2" d="M159.73,-91.85C173.33,-95.01 187.58,-98.07 201,-100.5 246.52,-108.73 297.62,-115.27 339.8,-119.95"/>
<polygon fill="orange" stroke="orange" points="160.5,-88.44 149.96,-89.54 158.89,-95.25 160.5,-88.44"/>
</a>
</g>
<text text-anchor="start" x="202" y="-141.5" font-family="FreeSans" font-size="10.00" fill="grey"> &lt; std::vector&lt; Z2i</text>
<text text-anchor="start" x="202" y="-130.5" font-family="FreeSans" font-size="10.00" fill="grey">::Point &gt;::const_iterator,</text>
<text text-anchor="middle" x="261.5" y="-119.5" font-family="FreeSans" font-size="10.00" fill="grey"> int, 4 &gt;</text>
</g>
<!-- Node3 -->
<g id="Node000003" class="node">
<title>Node3</title>
<g id="a_Node000003"><a xlink:href="classDGtal_1_1ArithmeticalDSSComputer.html" target="_top" xlink:title=" ">
<polygon fill="white" stroke="#666666" points="518,-89.5 340,-89.5 340,-59.5 518,-59.5 518,-89.5"/>
<text text-anchor="start" x="348" y="-77.5" font-family="FreeSans" font-size="10.00">DGtal::ArithmeticalDSSComputer</text>
<text text-anchor="middle" x="429" y="-66.5" font-family="FreeSans" font-size="10.00">&lt; IteratorAdapter, TInteger, 8 &gt;</text>
</a>
</g>
</g>
<!-- Node1&#45;&gt;Node3 -->
<g id="edge2_Node000001_Node000003" class="edge">
<title>Node1&#45;&gt;Node3</title>
<g id="a_edge2_Node000001_Node000003"><a xlink:title=" ">
<path fill="none" stroke="orange" stroke-dasharray="5,2" d="M193.41,-74.5C240,-74.5 294.82,-74.5 339.75,-74.5"/>
<polygon fill="orange" stroke="orange" points="193.29,-71 183.29,-74.5 193.29,-78 193.29,-71"/>
</a>
</g>
<text text-anchor="start" x="215.5" y="-88.5" font-family="FreeSans" font-size="10.00" fill="grey"> &lt; IteratorAdapter,</text>
<text text-anchor="middle" x="261.5" y="-77.5" font-family="FreeSans" font-size="10.00" fill="grey"> TInteger, 8 &gt;</text>
</g>
<!-- Node4 -->
<g id="Node000004" class="node">
<title>Node4</title>
<g id="a_Node000004"><a xlink:href="classDGtal_1_1ArithmeticalDSSComputer.html" target="_top" xlink:title=" ">
<polygon fill="white" stroke="#666666" points="518,-41 340,-41 340,0 518,0 518,-41"/>
<text text-anchor="start" x="348" y="-29" font-family="FreeSans" font-size="10.00">DGtal::ArithmeticalDSSComputer</text>
<text text-anchor="start" x="348" y="-18" font-family="FreeSans" font-size="10.00">&lt; IteratorAdapter, TInteger,</text>
<text text-anchor="middle" x="429" y="-7" font-family="FreeSans" font-size="10.00"> connectivity &gt;</text>
</a>
</g>
</g>
<!-- Node1&#45;&gt;Node4 -->
<g id="edge3_Node000001_Node000004" class="edge">
<title>Node1&#45;&gt;Node4</title>
<g id="a_edge3_Node000001_Node000004"><a xlink:title=" ">
<path fill="none" stroke="orange" stroke-dasharray="5,2" d="M159.73,-57.15C173.33,-53.99 187.58,-50.93 201,-48.5 246.52,-40.27 297.62,-33.73 339.8,-29.05"/>
<polygon fill="orange" stroke="orange" points="158.89,-53.75 149.96,-59.46 160.5,-60.56 158.89,-53.75"/>
</a>
</g>
<text text-anchor="start" x="201" y="-62.5" font-family="FreeSans" font-size="10.00" fill="grey"> &lt; IteratorAdapter,</text>
<text text-anchor="middle" x="261.5" y="-51.5" font-family="FreeSans" font-size="10.00" fill="grey"> TInteger, connectivity &gt;</text>
</g>
</g>
</svg>
