<?xml version="1.0" encoding="UTF-8" standalone="no"?>
<!DOCTYPE svg PUBLIC "-//W3C//DTD SVG 1.1//EN"
 "http://www.w3.org/Graphics/SVG/1.1/DTD/svg11.dtd">
<!-- Generated by graphviz version 2.43.0 (0)
 -->
<!-- Title: DGtal::DistanceFromDCAEstimator&lt; DCAComputer &gt; Pages: 1 -->
<svg width="772pt" height="51pt"
 viewBox="0.00 0.00 772.00 50.50" xmlns="http://www.w3.org/2000/svg" xmlns:xlink="http://www.w3.org/1999/xlink">
<g id="graph0" class="graph" transform="scale(1 1) rotate(0) translate(4 46.5)">
<title>DGtal::DistanceFromDCAEstimator&lt; DCAComputer &gt;</title>
<!-- Node1 -->
<g id="Node000001" class="node">
<title>Node1</title>
<g id="a_Node000001"><a xlink:title=" ">
<polygon fill="#999999" stroke="#666666" points="764,-35.5 578,-35.5 578,-5.5 764,-5.5 764,-35.5"/>
<text text-anchor="start" x="586" y="-23.5" font-family="FreeSans" font-size="10.00">DGtal::DistanceFromDCAEstimator</text>
<text text-anchor="middle" x="671" y="-12.5" font-family="FreeSans" font-size="10.00">&lt; DCAComputer &gt;</text>
</a>
</g>
</g>
<!-- Node2 -->
<g id="Node000002" class="node">
<title>Node2</title>
<g id="a_Node000002"><a xlink:href="classDGtal_1_1detail_1_1PosDepScaleDepSCEstimator.html" target="_top" xlink:title=" ">
<polygon fill="white" stroke="#666666" points="541,-41 362,-41 362,0 541,0 541,-41"/>
<text text-anchor="start" x="370" y="-29" font-family="FreeSans" font-size="10.00">DGtal::detail::PosDepScale</text>
<text text-anchor="start" x="370" y="-18" font-family="FreeSans" font-size="10.00">DepSCEstimator&lt; DCAComputer,</text>
<text text-anchor="middle" x="451.5" y="-7" font-family="FreeSans" font-size="10.00"> detail::DistanceFromDCA &gt;</text>
</a>
</g>
</g>
<!-- Node2&#45;&gt;Node1 -->
<g id="edge1_Node000001_Node000002" class="edge">
<title>Node2&#45;&gt;Node1</title>
<g id="a_edge1_Node000001_Node000002"><a xlink:title=" ">
<path fill="none" stroke="#63b8ff" d="M551.55,-20.5C560.35,-20.5 569.24,-20.5 577.97,-20.5"/>
<polygon fill="#63b8ff" stroke="#63b8ff" points="551.28,-17 541.28,-20.5 551.28,-24 551.28,-17"/>
</a>
</g>
</g>
<!-- Node3 -->
<g id="Node000003" class="node">
<title>Node3</title>
<g id="a_Node000003"><a xlink:href="classDGtal_1_1detail_1_1PosDepScaleDepSCEstimator.html" target="_top" xlink:title=" ">
<polygon fill="white" stroke="#666666" points="208,-41 0,-41 0,0 208,0 208,-41"/>
<text text-anchor="start" x="8" y="-29" font-family="FreeSans" font-size="10.00">DGtal::detail::PosDepScale</text>
<text text-anchor="start" x="8" y="-18" font-family="FreeSans" font-size="10.00">DepSCEstimator&lt; TSegmentComputer,</text>
<text text-anchor="middle" x="104" y="-7" font-family="FreeSans" font-size="10.00"> Functor, ReturnType &gt;</text>
</a>
</g>
</g>
<!-- Node3&#45;&gt;Node2 -->
<g id="edge2_Node000002_Node000003" class="edge">
<title>Node3&#45;&gt;Node2</title>
<g id="a_edge2_Node000002_Node000003"><a xlink:title=" ">
<path fill="none" stroke="orange" stroke-dasharray="5,2" d="M218.34,-20.5C264.97,-20.5 318.16,-20.5 361.86,-20.5"/>
<polygon fill="orange" stroke="orange" points="218.19,-17 208.19,-20.5 218.19,-24 218.19,-17"/>
</a>
</g>
<text text-anchor="start" x="226" y="-34.5" font-family="FreeSans" font-size="10.00" fill="grey"> &lt; DCAComputer, detail</text>
<text text-anchor="middle" x="285" y="-23.5" font-family="FreeSans" font-size="10.00" fill="grey">::DistanceFromDCA &gt;</text>
</g>
</g>
</svg>
