<?xml version="1.0" encoding="UTF-8" standalone="no"?>
<!DOCTYPE svg PUBLIC "-//W3C//DTD SVG 1.1//EN"
 "http://www.w3.org/Graphics/SVG/1.1/DTD/svg11.dtd">
<!-- Generated by graphviz version 2.43.0 (0)
 -->
<!-- Title: DGtal::CowPtr&lt; T &gt; Pages: 1 -->
<!--zoomable 562 -->

<svg id="main" version="1.1" xmlns="http://www.w3.org/2000/svg" xmlns:xlink="http://www.w3.org/1999/xlink" xml:space="preserve" onload="init(evt)">
<style type="text/css"><![CDATA[
.node, .edge {opacity: 0.7;}
.node.selected, .edge.selected {opacity: 1;}
.edge:hover path { stroke: red; }
.edge:hover polygon { stroke: red; fill: red; }
]]></style>

<defs>
  <circle id="rim" cx="0" cy="0" r="7"/>
  <circle id="rim2" cx="0" cy="0" r="3.5"/>
  <g id="zoomPlus">
    <use xlink:href="#rim" fill="#404040"><set attributeName="fill" to="#808080" begin="zoomplus.mouseover" end="zoomplus.mouseout"/></use>
    <path d="M-4,0h8M0,-4v8" fill="none" stroke="white" stroke-width="1.5" pointer-events="none"/>
  </g>
  <g id="zoomMin">
    <use xlink:href="#rim" fill="#404040"><set attributeName="fill" to="#808080" begin="zoomminus.mouseover" end="zoomminus.mouseout"/></use>
    <path d="M-4,0h8" fill="none" stroke="white" stroke-width="1.5" pointer-events="none"/>
  </g>
  <g id="arrowUp" transform="translate(30 24)">
    <use xlink:href="#rim"/>
    <path pointer-events="none" fill="none" stroke="white" stroke-width="1.5" d="M0,-3.0v7 M-2.5,-0.5L0,-3.0L2.5,-0.5"/>
  </g>
  <g id="arrowRight" transform="rotate(90) translate(36 -43)">
    <use xlink:href="#rim"/>
    <path pointer-events="none" fill="none" stroke="white" stroke-width="1.5" d="M0,-3.0v7 M-2.5,-0.5L0,-3.0L2.5,-0.5"/>
  </g>
  <g id="arrowDown" transform="rotate(180) translate(-30 -48)">
    <use xlink:href="#rim"/>
    <path pointer-events="none" fill="none" stroke="white" stroke-width="1.5" d="M0,-3.0v7 M-2.5,-0.5L0,-3.0L2.5,-0.5"/>
  </g>
  <g id="arrowLeft" transform="rotate(270) translate(-36 17)">
    <use xlink:href="#rim"/>
    <path pointer-events="none" fill="none" stroke="white" stroke-width="1.5" d="M0,-3.0v7 M-2.5,-0.5L0,-3.0L2.5,-0.5"/>
  </g>
  <g id="resetDef">
    <use xlink:href="#rim2" fill="#404040"><set attributeName="fill" to="#808080" begin="reset.mouseover" end="reset.mouseout"/></use>
  </g>
</defs>
<script type="application/ecmascript">
var viewWidth = 474;
var viewHeight = 562;
var sectionId = 'dynsection-0';
</script>
<script type="application/ecmascript" xlink:href="svg.min.js"/>
<svg id="graph" class="graph">
<g id="viewport">
<title>DGtal::CowPtr&lt; T &gt;</title>
<!-- Node1 -->
<g id="Node000001" class="node">
<title>Node1</title>
<g id="a_Node000001"><a xlink:title="Aim: Copy on write shared pointer.">
<polygon fill="#999999" stroke="#666666" points="113,-294.35 0,-294.35 0,-275.35 113,-275.35 113,-294.35"/>
<text text-anchor="middle" x="56.5" y="-282.35" font-family="FreeSans" font-size="10.00">DGtal::CowPtr&lt; T &gt;</text>
</a>
</g>
</g>
<!-- Node2 -->
<g id="Node000002" class="node">
<title>Node2</title>
<g id="a_Node000002"><a xlink:href="classDGtal_1_1CowPtr.html" target="_top" xlink:title=" ">
<polygon fill="white" stroke="#666666" points="451,-539.35 290,-539.35 290,-520.35 451,-520.35 451,-539.35"/>
<text text-anchor="middle" x="370.5" y="-527.35" font-family="FreeSans" font-size="10.00">DGtal::CowPtr&lt; DummyTbl &gt;</text>
</a>
</g>
</g>
<!-- Node1&#45;&gt;Node2 -->
<g id="edge1_Node000001_Node000002" class="edge">
<title>Node1&#45;&gt;Node2</title>
<g id="a_edge1_Node000001_Node000002"><a xlink:title=" ">
<path fill="none" stroke="orange" stroke-dasharray="5,2" d="M57.39,-304.44C58.32,-348.61 67.37,-456.06 131,-506.85 184.81,-549.8 268.72,-546.83 321.33,-539.36"/>
<polygon fill="orange" stroke="orange" points="60.89,-304.39 57.31,-294.43 53.89,-304.46 60.89,-304.39"/>
</a>
</g>
<text text-anchor="middle" x="194" y="-545.85" font-family="FreeSans" font-size="10.00" fill="grey"> &lt; DummyTbl &gt;</text>
</g>
<!-- Node3 -->
<g id="Node000003" class="node">
<title>Node3</title>
<g id="a_Node000003"><a xlink:href="classDGtal_1_1CowPtr.html" target="_top" xlink:title=" ">
<polygon fill="white" stroke="#666666" points="439,-500.85 302,-500.85 302,-470.85 439,-470.85 439,-500.85"/>
<text text-anchor="start" x="310" y="-488.85" font-family="FreeSans" font-size="10.00">DGtal::CowPtr&lt; DGtal</text>
<text text-anchor="middle" x="370.5" y="-477.85" font-family="FreeSans" font-size="10.00">::SignalData&lt; Value &gt; &gt;</text>
</a>
</g>
</g>
<!-- Node1&#45;&gt;Node3 -->
<g id="edge2_Node000001_Node000003" class="edge">
<title>Node1&#45;&gt;Node3</title>
<g id="a_edge2_Node000001_Node000003"><a xlink:title=" ">
<path fill="none" stroke="orange" stroke-dasharray="5,2" d="M59.8,-304.85C65.13,-341.21 81.88,-417.83 131,-454.85 157.17,-474.59 240.95,-481.77 301.83,-484.38"/>
<polygon fill="orange" stroke="orange" points="63.22,-304.01 58.44,-294.56 56.28,-304.93 63.22,-304.01"/>
</a>
</g>
<text text-anchor="start" x="143" y="-494.85" font-family="FreeSans" font-size="10.00" fill="grey"> &lt; DGtal::SignalData</text>
<text text-anchor="middle" x="194" y="-483.85" font-family="FreeSans" font-size="10.00" fill="grey">&lt; Value &gt; &gt;</text>
</g>
<!-- Node4 -->
<g id="Node000004" class="node">
<title>Node4</title>
<g id="a_Node000004"><a xlink:href="classDGtal_1_1CowPtr.html" target="_top" xlink:title=" ">
<polygon fill="white" stroke="#666666" points="443.5,-452.35 297.5,-452.35 297.5,-433.35 443.5,-433.35 443.5,-452.35"/>
<text text-anchor="middle" x="370.5" y="-440.35" font-family="FreeSans" font-size="10.00">DGtal::CowPtr&lt; Domain &gt;</text>
</a>
</g>
</g>
<!-- Node1&#45;&gt;Node4 -->
<g id="edge3_Node000001_Node000004" class="edge">
<title>Node1&#45;&gt;Node4</title>
<g id="a_edge3_Node000001_Node000004"><a xlink:title=" ">
<path fill="none" stroke="orange" stroke-dasharray="5,2" d="M62.14,-304.39C70.39,-334.39 90.65,-391.12 131,-417.85 157.51,-435.42 237.29,-440.92 297.34,-442.5"/>
<polygon fill="orange" stroke="orange" points="65.52,-303.47 59.63,-294.66 58.74,-305.21 65.52,-303.47"/>
</a>
</g>
<text text-anchor="middle" x="194" y="-442.85" font-family="FreeSans" font-size="10.00" fill="grey"> &lt; Domain &gt;</text>
</g>
<!-- Node5 -->
<g id="Node000005" class="node">
<title>Node5</title>
<g id="a_Node000005"><a xlink:href="classDGtal_1_1CowPtr.html" target="_top" xlink:title=" ">
<polygon fill="white" stroke="#666666" points="466,-415.35 275,-415.35 275,-396.35 466,-396.35 466,-415.35"/>
<text text-anchor="middle" x="370.5" y="-403.35" font-family="FreeSans" font-size="10.00">DGtal::CowPtr&lt; TImageContainer &gt;</text>
</a>
</g>
</g>
<!-- Node1&#45;&gt;Node5 -->
<g id="edge4_Node000001_Node000005" class="edge">
<title>Node1&#45;&gt;Node5</title>
<g id="a_edge4_Node000001_Node000005"><a xlink:title=" ">
<path fill="none" stroke="orange" stroke-dasharray="5,2" d="M68.21,-303.07C80.67,-322.51 103.16,-352.57 131,-367.85 174.65,-391.81 229.12,-401.72 274.98,-405.46"/>
<polygon fill="orange" stroke="orange" points="71.14,-301.16 62.91,-294.49 65.18,-304.84 71.14,-301.16"/>
</a>
</g>
<text text-anchor="middle" x="194" y="-405.85" font-family="FreeSans" font-size="10.00" fill="grey"> &lt; TImageContainer &gt;</text>
</g>
<!-- Node6 -->
<g id="Node000006" class="node">
<title>Node6</title>
<g id="a_Node000006"><a xlink:href="classDGtal_1_1CowPtr.html" target="_top" xlink:title=" ">
<polygon fill="white" stroke="#666666" points="431.5,-377.85 309.5,-377.85 309.5,-347.85 431.5,-347.85 431.5,-377.85"/>
<text text-anchor="start" x="317.5" y="-365.85" font-family="FreeSans" font-size="10.00">DGtal::CowPtr&lt; const</text>
<text text-anchor="middle" x="370.5" y="-354.85" font-family="FreeSans" font-size="10.00"> Domain &gt;</text>
</a>
</g>
</g>
<!-- Node1&#45;&gt;Node6 -->
<g id="edge5_Node000001_Node000006" class="edge">
<title>Node1&#45;&gt;Node6</title>
<g id="a_edge5_Node000001_Node000006"><a xlink:title=" ">
<path fill="none" stroke="orange" stroke-dasharray="5,2" d="M79.67,-299.96C93.77,-308.86 112.75,-319.58 131,-325.85 189.64,-346.03 260.19,-355.24 309.28,-359.43"/>
<polygon fill="orange" stroke="orange" points="81.46,-296.95 71.16,-294.44 77.64,-302.82 81.46,-296.95"/>
</a>
</g>
<text text-anchor="middle" x="194" y="-355.85" font-family="FreeSans" font-size="10.00" fill="grey"> &lt; const Domain &gt;</text>
</g>
<!-- Node7 -->
<g id="Node000007" class="node">
<title>Node7</title>
<g id="a_Node000007"><a xlink:href="classDGtal_1_1CowPtr.html" target="_top" xlink:title=" ">
<polygon fill="white" stroke="#666666" points="462,-329.35 279,-329.35 279,-310.35 462,-310.35 462,-329.35"/>
<text text-anchor="middle" x="370.5" y="-317.35" font-family="FreeSans" font-size="10.00">DGtal::CowPtr&lt; DigitalTopology &gt;</text>
</a>
</g>
</g>
<!-- Node1&#45;&gt;Node7 -->
<g id="edge6_Node000001_Node000007" class="edge">
<title>Node1&#45;&gt;Node7</title>
<g id="a_edge6_Node000001_Node000007"><a xlink:title=" ">
<path fill="none" stroke="orange" stroke-dasharray="5,2" d="M118.15,-295.99C122.49,-296.66 126.81,-297.29 131,-297.85 179.73,-304.4 234.33,-309.59 278.98,-313.28"/>
<polygon fill="orange" stroke="orange" points="118.45,-292.49 108.02,-294.36 117.34,-299.4 118.45,-292.49"/>
</a>
</g>
<text text-anchor="middle" x="194" y="-313.85" font-family="FreeSans" font-size="10.00" fill="grey"> &lt; DigitalTopology &gt;</text>
</g>
<!-- Node8 -->
<g id="Node000008" class="node">
<title>Node8</title>
<g id="a_Node000008"><a xlink:href="classDGtal_1_1CowPtr.html" target="_top" xlink:title=" ">
<polygon fill="white" stroke="#666666" points="448,-292.35 293,-292.35 293,-273.35 448,-273.35 448,-292.35"/>
<text text-anchor="middle" x="370.5" y="-280.35" font-family="FreeSans" font-size="10.00">DGtal::CowPtr&lt; DigitalSet &gt;</text>
</a>
</g>
</g>
<!-- Node1&#45;&gt;Node8 -->
<g id="edge7_Node000001_Node000008" class="edge">
<title>Node1&#45;&gt;Node8</title>
<g id="a_edge7_Node000001_Node000008"><a xlink:title=" ">
<path fill="none" stroke="orange" stroke-dasharray="5,2" d="M123.55,-284.43C173.06,-284.11 240.91,-283.68 292.82,-283.35"/>
<polygon fill="orange" stroke="orange" points="123.26,-280.93 113.28,-284.5 123.3,-287.93 123.26,-280.93"/>
</a>
</g>
<text text-anchor="middle" x="194" y="-286.85" font-family="FreeSans" font-size="10.00" fill="grey"> &lt; DigitalSet &gt;</text>
</g>
<!-- Node9 -->
<g id="Node000009" class="node">
<title>Node9</title>
<g id="a_Node000009"><a xlink:href="classDGtal_1_1CowPtr.html" target="_top" xlink:title=" ">
<polygon fill="white" stroke="#666666" points="442,-254.85 299,-254.85 299,-224.85 442,-224.85 442,-254.85"/>
<text text-anchor="start" x="307" y="-242.85" font-family="FreeSans" font-size="10.00">DGtal::CowPtr&lt; DGtal</text>
<text text-anchor="middle" x="370.5" y="-231.85" font-family="FreeSans" font-size="10.00">::SignalData&lt; TValue &gt; &gt;</text>
</a>
</g>
</g>
<!-- Node1&#45;&gt;Node9 -->
<g id="edge8_Node000001_Node000009" class="edge">
<title>Node1&#45;&gt;Node9</title>
<g id="a_edge8_Node000001_Node000009"><a xlink:title=" ">
<path fill="none" stroke="orange" stroke-dasharray="5,2" d="M87.37,-271.2C100.48,-265.8 116.23,-260.12 131,-256.85 186.53,-244.58 250.93,-240.57 298.8,-239.5"/>
<polygon fill="orange" stroke="orange" points="85.74,-268.08 77.91,-275.22 88.48,-274.52 85.74,-268.08"/>
</a>
</g>
<text text-anchor="start" x="143" y="-270.85" font-family="FreeSans" font-size="10.00" fill="grey"> &lt; DGtal::SignalData</text>
<text text-anchor="middle" x="194" y="-259.85" font-family="FreeSans" font-size="10.00" fill="grey">&lt; TValue &gt; &gt;</text>
</g>
<!-- Node10 -->
<g id="Node000010" class="node">
<title>Node10</title>
<g id="a_Node000010"><a xlink:href="classDGtal_1_1CowPtr.html" target="_top" xlink:title=" ">
<polygon fill="white" stroke="#666666" points="451.5,-206.85 289.5,-206.85 289.5,-176.85 451.5,-176.85 451.5,-206.85"/>
<text text-anchor="start" x="297.5" y="-194.85" font-family="FreeSans" font-size="10.00">DGtal::CowPtr&lt; StabbingLine</text>
<text text-anchor="middle" x="370.5" y="-183.85" font-family="FreeSans" font-size="10.00">Computer&lt; ConstIterator &gt; &gt;</text>
</a>
</g>
</g>
<!-- Node1&#45;&gt;Node10 -->
<g id="edge9_Node000001_Node000010" class="edge">
<title>Node1&#45;&gt;Node10</title>
<g id="a_edge9_Node000001_Node000010"><a xlink:title=" ">
<path fill="none" stroke="orange" stroke-dasharray="5,2" d="M70.49,-266.95C83.67,-250.31 105.71,-226.41 131,-214.85 180.38,-192.29 241.39,-186.76 289.34,-186.75"/>
<polygon fill="orange" stroke="orange" points="67.39,-265.25 64.11,-275.32 72.95,-269.49 67.39,-265.25"/>
</a>
</g>
<text text-anchor="start" x="131" y="-228.85" font-family="FreeSans" font-size="10.00" fill="grey"> &lt; StabbingLineComputer</text>
<text text-anchor="middle" x="194" y="-217.85" font-family="FreeSans" font-size="10.00" fill="grey">&lt; ConstIterator &gt; &gt;</text>
</g>
<!-- Node11 -->
<g id="Node000011" class="node">
<title>Node11</title>
<g id="a_Node000011"><a xlink:href="classDGtal_1_1CowPtr.html" target="_top" xlink:title=" ">
<polygon fill="white" stroke="#666666" points="447.5,-158.35 293.5,-158.35 293.5,-139.35 447.5,-139.35 447.5,-158.35"/>
<text text-anchor="middle" x="370.5" y="-146.35" font-family="FreeSans" font-size="10.00">DGtal::CowPtr&lt; Preimage &gt;</text>
</a>
</g>
</g>
<!-- Node1&#45;&gt;Node11 -->
<g id="edge10_Node000001_Node000011" class="edge">
<title>Node1&#45;&gt;Node11</title>
<g id="a_edge10_Node000001_Node000011"><a xlink:title=" ">
<path fill="none" stroke="orange" stroke-dasharray="5,2" d="M63.97,-265.59C73.87,-239.41 95.47,-193.4 131,-171.85 179.37,-142.52 243.66,-137.86 293.3,-139.94"/>
<polygon fill="orange" stroke="orange" points="60.62,-264.57 60.54,-275.16 67.21,-266.93 60.62,-264.57"/>
</a>
</g>
<text text-anchor="middle" x="194" y="-174.85" font-family="FreeSans" font-size="10.00" fill="grey"> &lt; Preimage &gt;</text>
</g>
<!-- Node12 -->
<g id="Node000012" class="node">
<title>Node12</title>
<g id="a_Node000012"><a xlink:href="classDGtal_1_1CowPtr.html" target="_top" xlink:title=" ">
<polygon fill="white" stroke="#666666" points="444,-120.85 297,-120.85 297,-90.85 444,-90.85 444,-120.85"/>
<text text-anchor="start" x="305" y="-108.85" font-family="FreeSans" font-size="10.00">DGtal::CowPtr&lt; Geometric</text>
<text text-anchor="middle" x="370.5" y="-97.85" font-family="FreeSans" font-size="10.00">Functor &gt;</text>
</a>
</g>
</g>
<!-- Node1&#45;&gt;Node12 -->
<g id="edge11_Node000001_Node000012" class="edge">
<title>Node1&#45;&gt;Node12</title>
<g id="a_edge11_Node000001_Node000012"><a xlink:title=" ">
<path fill="none" stroke="orange" stroke-dasharray="5,2" d="M60.11,-265.28C65.89,-230.44 83.29,-158.19 131,-124.85 178.84,-91.43 246.01,-88.97 296.88,-93.56"/>
<polygon fill="orange" stroke="orange" points="56.64,-264.77 58.61,-275.18 63.57,-265.82 56.64,-264.77"/>
</a>
</g>
<text text-anchor="middle" x="194" y="-127.85" font-family="FreeSans" font-size="10.00" fill="grey"> &lt; GeometricFunctor &gt;</text>
</g>
<!-- Node13 -->
<g id="Node000013" class="node">
<title>Node13</title>
<g id="a_Node000013"><a xlink:href="classDGtal_1_1CowPtr.html" target="_top" xlink:title=" ">
<polygon fill="white" stroke="#666666" points="430.5,-72.35 310.5,-72.35 310.5,-53.35 430.5,-53.35 430.5,-72.35"/>
<text text-anchor="middle" x="370.5" y="-60.35" font-family="FreeSans" font-size="10.00">DGtal::CowPtr&lt; A1 &gt;</text>
</a>
</g>
</g>
<!-- Node1&#45;&gt;Node13 -->
<g id="edge12_Node000001_Node000013" class="edge">
<title>Node1&#45;&gt;Node13</title>
<g id="a_edge12_Node000001_Node000013"><a xlink:title=" ">
<path fill="none" stroke="orange" stroke-dasharray="5,2" d="M57.76,-265.18C59.49,-222.72 70.16,-122.62 131,-76.85 189.51,-32.85 280.71,-42.87 331.71,-53.33"/>
<polygon fill="orange" stroke="orange" points="54.25,-265.23 57.47,-275.32 61.25,-265.42 54.25,-265.23"/>
</a>
</g>
<text text-anchor="middle" x="194" y="-79.85" font-family="FreeSans" font-size="10.00" fill="grey"> &lt; A1 &gt;</text>
</g>
<!-- Node14 -->
<g id="Node000014" class="node">
<title>Node14</title>
<g id="a_Node000014"><a xlink:href="classDGtal_1_1CowPtr.html" target="_top" xlink:title=" ">
<polygon fill="white" stroke="#666666" points="448,-35.35 293,-35.35 293,-16.35 448,-16.35 448,-35.35"/>
<text text-anchor="middle" x="370.5" y="-23.35" font-family="FreeSans" font-size="10.00">DGtal::CowPtr&lt; MyPointD &gt;</text>
</a>
</g>
</g>
<!-- Node1&#45;&gt;Node14 -->
<g id="edge13_Node000001_Node000014" class="edge">
<title>Node1&#45;&gt;Node14</title>
<g id="a_edge13_Node000001_Node000014"><a xlink:title=" ">
<path fill="none" stroke="orange" stroke-dasharray="5,2" d="M60.2,-264.92C68.06,-210.07 92.84,-59.08 131,-29.85 192.49,17.23 291.4,-2.34 340.26,-16.31"/>
<polygon fill="orange" stroke="orange" points="56.69,-264.69 58.78,-275.08 63.63,-265.66 56.69,-264.69"/>
</a>
</g>
<text text-anchor="middle" x="194" y="-32.85" font-family="FreeSans" font-size="10.00" fill="grey"> &lt; MyPointD &gt;</text>
</g>
</g>
</svg>

<g id="navigator" transform="translate(0 0)" fill="#404254">
  <rect fill="#f2f5e9" fill-opacity="0.5" stroke="#606060" stroke-width=".5" x="0" y="0" width="60" height="60"/>
  <use id="zoomplus" xlink:href="#zoomPlus" x="17" y="9" onmousedown="handleZoom(evt,'in')"/>
  <use id="zoomminus" xlink:href="#zoomMin" x="42" y="9" onmousedown="handleZoom(evt,'out')"/>
  <use id="reset" xlink:href="#resetDef" x="30" y="36" onmousedown="handleReset()"/>
   <use id="arrowup" xlink:href="#arrowUp" x="0" y="0" onmousedown="handlePan(0,-1)"/>
  <use id="arrowright" xlink:href="#arrowRight" x="0" y="0" onmousedown="handlePan(1,0)"/>
  <use id="arrowdown" xlink:href="#arrowDown" x="0" y="0" onmousedown="handlePan(0,1)"/>
  <use id="arrowleft" xlink:href="#arrowLeft" x="0" y="0" onmousedown="handlePan(-1,0)"/>
</g>
<svg viewBox="0 0 15 15" width="100%" height="30px" preserveAspectRatio="xMaxYMin meet">
 <g id="arrow_out" transform="scale(0.3 0.3)">
  <a xlink:href="classDGtal_1_1CowPtr__inherit__graph_org.svg" target="_base">
   <rect id="button" ry="5" rx="5" y="6" x="6" height="38" width="38"
        fill="#f2f5e9" fill-opacity="0.5" stroke="#606060" stroke-width="1.0"/>
   <path id="arrow"
     d="M 11.500037,31.436501 C 11.940474,20.09759 22.043105,11.32322 32.158766,21.979434 L 37.068811,17.246167 C 37.068811,17.246167 37.088388,32 37.088388,32 L 22.160133,31.978069 C 22.160133,31.978069 26.997745,27.140456 26.997745,27.140456 C 18.528582,18.264221 13.291696,25.230495 11.500037,31.436501 z"
     style="fill:#404040;"/>
  </a>
 </g>
</svg>

<style type='text/css'>
<![CDATA[
[data-mouse-over-selected='false'] { opacity: 0.7; }
[data-mouse-over-selected='true']  { opacity: 1.0; }
]]>
</style>
<script type="application/ecmascript"><![CDATA[
document.addEventListener('DOMContentLoaded', (event) => {
  highlightEdges();
  highlightAdjacentNodes();
});
]]></script>
</svg>
