<?xml version="1.0" encoding="UTF-8" standalone="no"?>
<!DOCTYPE svg PUBLIC "-//W3C//DTD SVG 1.1//EN"
 "http://www.w3.org/Graphics/SVG/1.1/DTD/svg11.dtd">
<!-- Generated by graphviz version 2.43.0 (0)
 -->
<!-- Title: DGtal::TiledImage&lt; TImageContainer, TImageFactory, TImageCacheReadPolicy, TImageCacheWritePolicy &gt;::TiledIterator Pages: 1 -->
<svg width="382pt" height="61pt"
 viewBox="0.00 0.00 382.00 61.00" xmlns="http://www.w3.org/2000/svg" xmlns:xlink="http://www.w3.org/1999/xlink">
<g id="graph0" class="graph" transform="scale(1 1) rotate(0) translate(4 57)">
<title>DGtal::TiledImage&lt; TImageContainer, TImageFactory, TImageCacheReadPolicy, TImageCacheWritePolicy &gt;::TiledIterator</title>
<polygon fill="white" stroke="transparent" points="-4,4 -4,-57 378,-57 378,4 -4,4"/>
<!-- Node1 -->
<g id="node1" class="node">
<title>Node1</title>
<g id="a_node1"><a xlink:title=" ">
<polygon fill="#bfbfbf" stroke="black" points="161,-0.5 161,-52.5 374,-52.5 374,-0.5 161,-0.5"/>
<text text-anchor="start" x="169" y="-40.5" font-family="FreeSans" font-size="10.00">DGtal::TiledImage&lt;</text>
<text text-anchor="start" x="169" y="-29.5" font-family="FreeSans" font-size="10.00"> TImageContainer, TImageFactory,</text>
<text text-anchor="start" x="169" y="-18.5" font-family="FreeSans" font-size="10.00"> TImageCacheReadPolicy, TImageCache</text>
<text text-anchor="middle" x="267.5" y="-7.5" font-family="FreeSans" font-size="10.00">WritePolicy &gt;::TiledIterator</text>
</a>
</g>
</g>
<!-- Node2 -->
<g id="node2" class="node">
<title>Node2</title>
<g id="a_node2"><a xlink:title=" ">
<polygon fill="white" stroke="#bfbfbf" points="0,-0.5 0,-52.5 125,-52.5 125,-0.5 0,-0.5"/>
<text text-anchor="start" x="8" y="-40.5" font-family="FreeSans" font-size="10.00">std::iterator&lt; std</text>
<text text-anchor="start" x="8" y="-29.5" font-family="FreeSans" font-size="10.00">::bidirectional_iterator</text>
<text text-anchor="start" x="8" y="-18.5" font-family="FreeSans" font-size="10.00">_tag, Value, ptrdiff_t,</text>
<text text-anchor="middle" x="62.5" y="-7.5" font-family="FreeSans" font-size="10.00"> Value *, Value &amp; &gt;</text>
</a>
</g>
</g>
<!-- Node2&#45;&gt;Node1 -->
<g id="edge1" class="edge">
<title>Node2&#45;&gt;Node1</title>
<path fill="none" stroke="midnightblue" d="M135.5,-26.5C143.74,-26.5 152.26,-26.5 160.82,-26.5"/>
<polygon fill="midnightblue" stroke="midnightblue" points="135.23,-23 125.23,-26.5 135.23,-30 135.23,-23"/>
</g>
</g>
</svg>
