<?xml version="1.0" encoding="UTF-8" standalone="no"?>
<!DOCTYPE svg PUBLIC "-//W3C//DTD SVG 1.1//EN"
 "http://www.w3.org/Graphics/SVG/1.1/DTD/svg11.dtd">
<!-- Generated by graphviz version 2.43.0 (0)
 -->
<!-- Title: DGtal::CowPtr&lt; T &gt; Pages: 1 -->
<svg width="474pt" height="607pt"
 viewBox="0.00 0.00 474.00 606.66" xmlns="http://www.w3.org/2000/svg" xmlns:xlink="http://www.w3.org/1999/xlink">
<g id="graph0" class="graph" transform="scale(1 1) rotate(0) translate(4 602.66)">
<title>DGtal::CowPtr&lt; T &gt;</title>
<!-- Node1 -->
<g id="Node000001" class="node">
<title>Node1</title>
<g id="a_Node000001"><a xlink:title="Aim: Copy on write shared pointer.">
<polygon fill="#999999" stroke="#666666" points="113,-305.16 0,-305.16 0,-286.16 113,-286.16 113,-305.16"/>
<text text-anchor="middle" x="56.5" y="-293.16" font-family="FreeSans" font-size="10.00">DGtal::CowPtr&lt; T &gt;</text>
</a>
</g>
</g>
<!-- Node2 -->
<g id="Node000002" class="node">
<title>Node2</title>
<g id="a_Node000002"><a xlink:href="classDGtal_1_1CowPtr.html" target="_top" xlink:title=" ">
<polygon fill="white" stroke="#666666" points="451,-582.16 290,-582.16 290,-563.16 451,-563.16 451,-582.16"/>
<text text-anchor="middle" x="370.5" y="-570.16" font-family="FreeSans" font-size="10.00">DGtal::CowPtr&lt; DummyTbl &gt;</text>
</a>
</g>
</g>
<!-- Node1&#45;&gt;Node2 -->
<g id="edge1_Node000001_Node000002" class="edge">
<title>Node1&#45;&gt;Node2</title>
<g id="a_edge1_Node000001_Node000002"><a xlink:title=" ">
<path fill="none" stroke="orange" stroke-dasharray="5,2" d="M60.31,-315.45C68.47,-369.92 93.96,-520.02 131,-550.66 185.31,-595.58 272.26,-590.66 324.81,-582.21"/>
<polygon fill="orange" stroke="orange" points="63.75,-314.74 58.83,-305.36 56.82,-315.76 63.75,-314.74"/>
</a>
</g>
<text text-anchor="middle" x="194" y="-590.66" font-family="FreeSans" font-size="10.00" fill="grey"> &lt; DummyTbl &gt;</text>
</g>
<!-- Node3 -->
<g id="Node000003" class="node">
<title>Node3</title>
<g id="a_Node000003"><a xlink:href="classDGtal_1_1CowPtr.html" target="_top" xlink:title=" ">
<polygon fill="white" stroke="#666666" points="439,-543.66 302,-543.66 302,-513.66 439,-513.66 439,-543.66"/>
<text text-anchor="start" x="310" y="-531.66" font-family="FreeSans" font-size="10.00">DGtal::CowPtr&lt; DGtal</text>
<text text-anchor="middle" x="370.5" y="-520.66" font-family="FreeSans" font-size="10.00">::SignalData&lt; Value &gt; &gt;</text>
</a>
</g>
</g>
<!-- Node1&#45;&gt;Node3 -->
<g id="edge2_Node000001_Node000003" class="edge">
<title>Node1&#45;&gt;Node3</title>
<g id="a_edge2_Node000001_Node000003"><a xlink:title=" ">
<path fill="none" stroke="orange" stroke-dasharray="5,2" d="M58.2,-315.41C60.83,-356.77 73.19,-452.45 131,-498.66 156.63,-519.14 240.76,-525.78 301.86,-527.85"/>
<polygon fill="orange" stroke="orange" points="61.69,-315.08 57.69,-305.27 54.7,-315.44 61.69,-315.08"/>
</a>
</g>
<text text-anchor="start" x="143" y="-538.66" font-family="FreeSans" font-size="10.00" fill="grey"> &lt; DGtal::SignalData</text>
<text text-anchor="middle" x="194" y="-527.66" font-family="FreeSans" font-size="10.00" fill="grey">&lt; Value &gt; &gt;</text>
</g>
<!-- Node4 -->
<g id="Node000004" class="node">
<title>Node4</title>
<g id="a_Node000004"><a xlink:href="classDGtal_1_1CowPtr.html" target="_top" xlink:title=" ">
<polygon fill="white" stroke="#666666" points="443.5,-495.16 297.5,-495.16 297.5,-476.16 443.5,-476.16 443.5,-495.16"/>
<text text-anchor="middle" x="370.5" y="-483.16" font-family="FreeSans" font-size="10.00">DGtal::CowPtr&lt; Domain &gt;</text>
</a>
</g>
</g>
<!-- Node1&#45;&gt;Node4 -->
<g id="edge3_Node000001_Node000004" class="edge">
<title>Node1&#45;&gt;Node4</title>
<g id="a_edge3_Node000001_Node000004"><a xlink:title=" ">
<path fill="none" stroke="orange" stroke-dasharray="5,2" d="M60.04,-315.56C65.72,-351.03 82.97,-424.71 131,-459.66 156.76,-478.4 236.92,-484.03 297.25,-485.52"/>
<polygon fill="orange" stroke="orange" points="63.48,-314.88 58.58,-305.49 56.55,-315.89 63.48,-314.88"/>
</a>
</g>
<text text-anchor="middle" x="194" y="-486.66" font-family="FreeSans" font-size="10.00" fill="grey"> &lt; Domain &gt;</text>
</g>
<!-- Node5 -->
<g id="Node000005" class="node">
<title>Node5</title>
<g id="a_Node000005"><a xlink:href="classDGtal_1_1CowPtr.html" target="_top" xlink:title=" ">
<polygon fill="white" stroke="#666666" points="444,-457.66 297,-457.66 297,-427.66 444,-427.66 444,-457.66"/>
<text text-anchor="start" x="305" y="-445.66" font-family="FreeSans" font-size="10.00">DGtal::CowPtr&lt; HyperRect</text>
<text text-anchor="middle" x="370.5" y="-434.66" font-family="FreeSans" font-size="10.00">Domain&lt; Space &gt; &gt;</text>
</a>
</g>
</g>
<!-- Node1&#45;&gt;Node5 -->
<g id="edge4_Node000001_Node000005" class="edge">
<title>Node1&#45;&gt;Node5</title>
<g id="a_edge4_Node000001_Node000005"><a xlink:title=" ">
<path fill="none" stroke="orange" stroke-dasharray="5,2" d="M64.38,-314.71C74.66,-340.19 96.58,-384.7 131,-406.66 157.87,-423.8 237.14,-433.29 296.98,-438.16"/>
<polygon fill="orange" stroke="orange" points="67.65,-313.45 60.8,-305.37 61.12,-315.96 67.65,-313.45"/>
</a>
</g>
<text text-anchor="start" x="138" y="-447.66" font-family="FreeSans" font-size="10.00" fill="grey"> &lt; HyperRectDomain&lt;</text>
<text text-anchor="middle" x="194" y="-436.66" font-family="FreeSans" font-size="10.00" fill="grey"> Space &gt; &gt;</text>
</g>
<!-- Node6 -->
<g id="Node000006" class="node">
<title>Node6</title>
<g id="a_Node000006"><a xlink:href="classDGtal_1_1CowPtr.html" target="_top" xlink:title=" ">
<polygon fill="white" stroke="#666666" points="466,-409.16 275,-409.16 275,-390.16 466,-390.16 466,-409.16"/>
<text text-anchor="middle" x="370.5" y="-397.16" font-family="FreeSans" font-size="10.00">DGtal::CowPtr&lt; TImageContainer &gt;</text>
</a>
</g>
</g>
<!-- Node1&#45;&gt;Node6 -->
<g id="edge5_Node000001_Node000006" class="edge">
<title>Node1&#45;&gt;Node6</title>
<g id="a_edge5_Node000001_Node000006"><a xlink:title=" ">
<path fill="none" stroke="orange" stroke-dasharray="5,2" d="M72.62,-313.06C86.34,-327.65 107.9,-347.8 131,-358.66 175.68,-379.66 229.58,-390.02 274.84,-395.08"/>
<polygon fill="orange" stroke="orange" points="75.17,-310.65 65.85,-305.61 69.99,-315.37 75.17,-310.65"/>
</a>
</g>
<text text-anchor="middle" x="194" y="-394.66" font-family="FreeSans" font-size="10.00" fill="grey"> &lt; TImageContainer &gt;</text>
</g>
<!-- Node7 -->
<g id="Node000007" class="node">
<title>Node7</title>
<g id="a_Node000007"><a xlink:href="classDGtal_1_1CowPtr.html" target="_top" xlink:title=" ">
<polygon fill="white" stroke="#666666" points="431.5,-371.66 309.5,-371.66 309.5,-341.66 431.5,-341.66 431.5,-371.66"/>
<text text-anchor="start" x="317.5" y="-359.66" font-family="FreeSans" font-size="10.00">DGtal::CowPtr&lt; const</text>
<text text-anchor="middle" x="370.5" y="-348.66" font-family="FreeSans" font-size="10.00"> Domain &gt;</text>
</a>
</g>
</g>
<!-- Node1&#45;&gt;Node7 -->
<g id="edge6_Node000001_Node000007" class="edge">
<title>Node1&#45;&gt;Node7</title>
<g id="a_edge6_Node000001_Node000007"><a xlink:title=" ">
<path fill="none" stroke="orange" stroke-dasharray="5,2" d="M90.53,-308.88C103.05,-313.48 117.52,-318.32 131,-321.66 190.71,-336.45 260.49,-345.8 309.08,-351.07"/>
<polygon fill="orange" stroke="orange" points="91.57,-305.53 80.98,-305.28 89.1,-312.08 91.57,-305.53"/>
</a>
</g>
<text text-anchor="middle" x="194" y="-346.66" font-family="FreeSans" font-size="10.00" fill="grey"> &lt; const Domain &gt;</text>
</g>
<!-- Node8 -->
<g id="Node000008" class="node">
<title>Node8</title>
<g id="a_Node000008"><a xlink:href="classDGtal_1_1CowPtr.html" target="_top" xlink:title=" ">
<polygon fill="white" stroke="#666666" points="462,-323.16 279,-323.16 279,-304.16 462,-304.16 462,-323.16"/>
<text text-anchor="middle" x="370.5" y="-311.16" font-family="FreeSans" font-size="10.00">DGtal::CowPtr&lt; DigitalTopology &gt;</text>
</a>
</g>
</g>
<!-- Node1&#45;&gt;Node8 -->
<g id="edge7_Node000001_Node000008" class="edge">
<title>Node1&#45;&gt;Node8</title>
<g id="a_edge7_Node000001_Node000008"><a xlink:title=" ">
<path fill="none" stroke="orange" stroke-dasharray="5,2" d="M123.54,-299.47C168.68,-302.07 229.09,-305.56 278.74,-308.42"/>
<polygon fill="orange" stroke="orange" points="123.46,-295.96 113.28,-298.88 123.06,-302.95 123.46,-295.96"/>
</a>
</g>
<text text-anchor="middle" x="194" y="-309.66" font-family="FreeSans" font-size="10.00" fill="grey"> &lt; DigitalTopology &gt;</text>
</g>
<!-- Node9 -->
<g id="Node000009" class="node">
<title>Node9</title>
<g id="a_Node000009"><a xlink:href="classDGtal_1_1CowPtr.html" target="_top" xlink:title=" ">
<polygon fill="white" stroke="#666666" points="448,-286.16 293,-286.16 293,-267.16 448,-267.16 448,-286.16"/>
<text text-anchor="middle" x="370.5" y="-274.16" font-family="FreeSans" font-size="10.00">DGtal::CowPtr&lt; DigitalSet &gt;</text>
</a>
</g>
</g>
<!-- Node1&#45;&gt;Node9 -->
<g id="edge8_Node000001_Node000009" class="edge">
<title>Node1&#45;&gt;Node9</title>
<g id="a_edge8_Node000001_Node000009"><a xlink:title=" ">
<path fill="none" stroke="orange" stroke-dasharray="5,2" d="M123.3,-285.43C125.9,-285.15 128.47,-284.89 131,-284.66 184.94,-279.73 246,-277.75 292.83,-276.99"/>
<polygon fill="orange" stroke="orange" points="122.72,-281.98 113.2,-286.63 123.54,-288.93 122.72,-281.98"/>
</a>
</g>
<text text-anchor="middle" x="194" y="-287.66" font-family="FreeSans" font-size="10.00" fill="grey"> &lt; DigitalSet &gt;</text>
</g>
<!-- Node10 -->
<g id="Node000010" class="node">
<title>Node10</title>
<g id="a_Node000010"><a xlink:href="classDGtal_1_1CowPtr.html" target="_top" xlink:title=" ">
<polygon fill="white" stroke="#666666" points="442,-248.66 299,-248.66 299,-218.66 442,-218.66 442,-248.66"/>
<text text-anchor="start" x="307" y="-236.66" font-family="FreeSans" font-size="10.00">DGtal::CowPtr&lt; DGtal</text>
<text text-anchor="middle" x="370.5" y="-225.66" font-family="FreeSans" font-size="10.00">::SignalData&lt; TValue &gt; &gt;</text>
</a>
</g>
</g>
<!-- Node1&#45;&gt;Node10 -->
<g id="edge9_Node000001_Node000010" class="edge">
<title>Node1&#45;&gt;Node10</title>
<g id="a_edge9_Node000001_Node000010"><a xlink:title=" ">
<path fill="none" stroke="orange" stroke-dasharray="5,2" d="M77.79,-279.97C91.9,-269.99 111.58,-257.82 131,-251.66 185.52,-234.35 250.42,-230.46 298.75,-230.55"/>
<polygon fill="orange" stroke="orange" points="75.39,-277.39 69.39,-286.13 79.53,-283.04 75.39,-277.39"/>
</a>
</g>
<text text-anchor="start" x="143" y="-265.66" font-family="FreeSans" font-size="10.00" fill="grey"> &lt; DGtal::SignalData</text>
<text text-anchor="middle" x="194" y="-254.66" font-family="FreeSans" font-size="10.00" fill="grey">&lt; TValue &gt; &gt;</text>
</g>
<!-- Node11 -->
<g id="Node000011" class="node">
<title>Node11</title>
<g id="a_Node000011"><a xlink:href="classDGtal_1_1CowPtr.html" target="_top" xlink:title=" ">
<polygon fill="white" stroke="#666666" points="451.5,-200.66 289.5,-200.66 289.5,-170.66 451.5,-170.66 451.5,-200.66"/>
<text text-anchor="start" x="297.5" y="-188.66" font-family="FreeSans" font-size="10.00">DGtal::CowPtr&lt; StabbingLine</text>
<text text-anchor="middle" x="370.5" y="-177.66" font-family="FreeSans" font-size="10.00">Computer&lt; ConstIterator &gt; &gt;</text>
</a>
</g>
</g>
<!-- Node1&#45;&gt;Node11 -->
<g id="edge10_Node000001_Node000011" class="edge">
<title>Node1&#45;&gt;Node11</title>
<g id="a_edge10_Node000001_Node000011"><a xlink:title=" ">
<path fill="none" stroke="orange" stroke-dasharray="5,2" d="M66.88,-276.79C78.64,-255.41 100.95,-221.48 131,-205.66 179.34,-180.19 240.95,-175.61 289.44,-177.18"/>
<polygon fill="orange" stroke="orange" points="63.66,-275.41 62.1,-285.89 69.85,-278.66 63.66,-275.41"/>
</a>
</g>
<text text-anchor="start" x="131" y="-219.66" font-family="FreeSans" font-size="10.00" fill="grey"> &lt; StabbingLineComputer</text>
<text text-anchor="middle" x="194" y="-208.66" font-family="FreeSans" font-size="10.00" fill="grey">&lt; ConstIterator &gt; &gt;</text>
</g>
<!-- Node12 -->
<g id="Node000012" class="node">
<title>Node12</title>
<g id="a_Node000012"><a xlink:href="classDGtal_1_1CowPtr.html" target="_top" xlink:title=" ">
<polygon fill="white" stroke="#666666" points="447.5,-152.16 293.5,-152.16 293.5,-133.16 447.5,-133.16 447.5,-152.16"/>
<text text-anchor="middle" x="370.5" y="-140.16" font-family="FreeSans" font-size="10.00">DGtal::CowPtr&lt; Preimage &gt;</text>
</a>
</g>
</g>
<!-- Node1&#45;&gt;Node12 -->
<g id="edge11_Node000001_Node000012" class="edge">
<title>Node1&#45;&gt;Node12</title>
<g id="a_edge11_Node000001_Node000012"><a xlink:title=" ">
<path fill="none" stroke="orange" stroke-dasharray="5,2" d="M61.9,-276.29C69.89,-246.03 89.93,-188.23 131,-161.66 185.93,-126.12 263.54,-127.12 315.14,-133.15"/>
<polygon fill="orange" stroke="orange" points="58.48,-275.54 59.48,-286.09 65.27,-277.22 58.48,-275.54"/>
</a>
</g>
<text text-anchor="middle" x="194" y="-164.66" font-family="FreeSans" font-size="10.00" fill="grey"> &lt; Preimage &gt;</text>
</g>
<!-- Node13 -->
<g id="Node000013" class="node">
<title>Node13</title>
<g id="a_Node000013"><a xlink:href="classDGtal_1_1CowPtr.html" target="_top" xlink:title=" ">
<polygon fill="white" stroke="#666666" points="444,-114.66 297,-114.66 297,-84.66 444,-84.66 444,-114.66"/>
<text text-anchor="start" x="305" y="-102.66" font-family="FreeSans" font-size="10.00">DGtal::CowPtr&lt; Geometric</text>
<text text-anchor="middle" x="370.5" y="-91.66" font-family="FreeSans" font-size="10.00">Functor &gt;</text>
</a>
</g>
</g>
<!-- Node1&#45;&gt;Node13 -->
<g id="edge12_Node000001_Node000013" class="edge">
<title>Node1&#45;&gt;Node13</title>
<g id="a_edge12_Node000001_Node000013"><a xlink:title=" ">
<path fill="none" stroke="orange" stroke-dasharray="5,2" d="M58.95,-275.68C62.93,-237.17 77.62,-153.09 131,-114.66 178.39,-80.54 245.77,-79.41 296.82,-85.3"/>
<polygon fill="orange" stroke="orange" points="55.43,-275.79 58.03,-286.06 62.4,-276.41 55.43,-275.79"/>
</a>
</g>
<text text-anchor="middle" x="194" y="-117.66" font-family="FreeSans" font-size="10.00" fill="grey"> &lt; GeometricFunctor &gt;</text>
</g>
<!-- Node14 -->
<g id="Node000014" class="node">
<title>Node14</title>
<g id="a_Node000014"><a xlink:href="classDGtal_1_1CowPtr.html" target="_top" xlink:title=" ">
<polygon fill="white" stroke="#666666" points="430.5,-66.16 310.5,-66.16 310.5,-47.16 430.5,-47.16 430.5,-66.16"/>
<text text-anchor="middle" x="370.5" y="-54.16" font-family="FreeSans" font-size="10.00">DGtal::CowPtr&lt; A1 &gt;</text>
</a>
</g>
</g>
<!-- Node1&#45;&gt;Node14 -->
<g id="edge13_Node000001_Node000014" class="edge">
<title>Node1&#45;&gt;Node14</title>
<g id="a_edge13_Node000001_Node000014"><a xlink:title=" ">
<path fill="none" stroke="orange" stroke-dasharray="5,2" d="M56.98,-275.51C57.01,-229.65 64.25,-117.51 131,-66.66 158.11,-46 248.86,-47.76 310.27,-51.66"/>
<polygon fill="orange" stroke="orange" points="53.48,-275.7 57.09,-285.66 60.48,-275.62 53.48,-275.7"/>
</a>
</g>
<text text-anchor="middle" x="194" y="-69.66" font-family="FreeSans" font-size="10.00" fill="grey"> &lt; A1 &gt;</text>
</g>
<!-- Node15 -->
<g id="Node000015" class="node">
<title>Node15</title>
<g id="a_Node000015"><a xlink:href="classDGtal_1_1CowPtr.html" target="_top" xlink:title=" ">
<polygon fill="white" stroke="#666666" points="448,-29.16 293,-29.16 293,-10.16 448,-10.16 448,-29.16"/>
<text text-anchor="middle" x="370.5" y="-17.16" font-family="FreeSans" font-size="10.00">DGtal::CowPtr&lt; MyPointD &gt;</text>
</a>
</g>
</g>
<!-- Node1&#45;&gt;Node15 -->
<g id="edge14_Node000001_Node000015" class="edge">
<title>Node1&#45;&gt;Node15</title>
<g id="a_edge14_Node000001_Node000015"><a xlink:title=" ">
<path fill="none" stroke="orange" stroke-dasharray="5,2" d="M60.09,-276.07C67.83,-220.8 92.63,-65.66 131,-34.66 188.6,11.88 281.83,0.81 333,-10.15"/>
<polygon fill="orange" stroke="orange" points="56.62,-275.61 58.74,-286 63.56,-276.56 56.62,-275.61"/>
</a>
</g>
<text text-anchor="middle" x="194" y="-37.66" font-family="FreeSans" font-size="10.00" fill="grey"> &lt; MyPointD &gt;</text>
</g>
</g>
</svg>
