<?xml version="1.0" encoding="UTF-8" standalone="no"?>
<!DOCTYPE svg PUBLIC "-//W3C//DTD SVG 1.1//EN"
 "http://www.w3.org/Graphics/SVG/1.1/DTD/svg11.dtd">
<!-- Generated by graphviz version 2.43.0 (0)
 -->
<!-- Title: DGtal::SimpleMatrix&lt; TComponent, TM, TN &gt; Pages: 1 -->
<svg width="502pt" height="164pt"
 viewBox="0.00 0.00 502.00 164.00" xmlns="http://www.w3.org/2000/svg" xmlns:xlink="http://www.w3.org/1999/xlink">
<g id="graph0" class="graph" transform="scale(1 1) rotate(0) translate(4 160)">
<title>DGtal::SimpleMatrix&lt; TComponent, TM, TN &gt;</title>
<!-- Node1 -->
<g id="Node000001" class="node">
<title>Node1</title>
<g id="a_Node000001"><a xlink:title="Aim: implements basic MxN Matrix services (M,N&gt;=1).">
<polygon fill="#999999" stroke="#666666" points="141,-89 0,-89 0,-59 141,-59 141,-89"/>
<text text-anchor="start" x="8" y="-77" font-family="FreeSans" font-size="10.00">DGtal::SimpleMatrix</text>
<text text-anchor="middle" x="70.5" y="-66" font-family="FreeSans" font-size="10.00">&lt; TComponent, TM, TN &gt;</text>
</a>
</g>
</g>
<!-- Node2 -->
<g id="Node000002" class="node">
<title>Node2</title>
<g id="a_Node000002"><a xlink:href="classDGtal_1_1SimpleMatrix.html" target="_top" xlink:title=" ">
<polygon fill="white" stroke="#666666" points="462,-156 346,-156 346,-126 462,-126 462,-156"/>
<text text-anchor="start" x="354" y="-144" font-family="FreeSans" font-size="10.00">DGtal::SimpleMatrix</text>
<text text-anchor="middle" x="404" y="-133" font-family="FreeSans" font-size="10.00">&lt; Integer, 3, 3 &gt;</text>
</a>
</g>
</g>
<!-- Node1&#45;&gt;Node2 -->
<g id="edge1_Node000001_Node000002" class="edge">
<title>Node1&#45;&gt;Node2</title>
<g id="a_edge1_Node000001_Node000002"><a xlink:title=" ">
<path fill="none" stroke="orange" stroke-dasharray="5,2" d="M103.54,-94.26C119.58,-103.4 139.66,-113.39 159,-119 221.09,-137.02 295.47,-141.4 345.65,-141.98"/>
<polygon fill="orange" stroke="orange" points="105,-91.06 94.6,-89.02 101.46,-97.1 105,-91.06"/>
</a>
</g>
<text text-anchor="middle" x="227.5" y="-142" font-family="FreeSans" font-size="10.00" fill="grey"> &lt; Integer, 3, 3 &gt;</text>
</g>
<!-- Node3 -->
<g id="Node000003" class="node">
<title>Node3</title>
<g id="a_Node000003"><a xlink:href="classDGtal_1_1SimpleMatrix.html" target="_top" xlink:title=" ">
<polygon fill="white" stroke="#666666" points="494,-100 314,-100 314,-48 494,-48 494,-100"/>
<text text-anchor="start" x="322" y="-88" font-family="FreeSans" font-size="10.00">DGtal::SimpleMatrix</text>
<text text-anchor="start" x="322" y="-77" font-family="FreeSans" font-size="10.00">&lt; typename TSpace::RealVector</text>
<text text-anchor="start" x="322" y="-66" font-family="FreeSans" font-size="10.00">::Component, TSpace::dimension,</text>
<text text-anchor="middle" x="404" y="-55" font-family="FreeSans" font-size="10.00"> TSpace::dimension &gt;</text>
</a>
</g>
</g>
<!-- Node1&#45;&gt;Node3 -->
<g id="edge2_Node000001_Node000003" class="edge">
<title>Node1&#45;&gt;Node3</title>
<g id="a_edge2_Node000001_Node000003"><a xlink:title=" ">
<path fill="none" stroke="orange" stroke-dasharray="5,2" d="M151.63,-74C200.63,-74 263.38,-74 313.93,-74"/>
<polygon fill="orange" stroke="orange" points="151.4,-70.5 141.4,-74 151.4,-77.5 151.4,-70.5"/>
</a>
</g>
<text text-anchor="start" x="159" y="-110" font-family="FreeSans" font-size="10.00" fill="grey"> &lt; typename TSpace::</text>
<text text-anchor="start" x="159" y="-99" font-family="FreeSans" font-size="10.00" fill="grey">RealVector::Component,</text>
<text text-anchor="start" x="159" y="-88" font-family="FreeSans" font-size="10.00" fill="grey"> TSpace::dimension, TSpace</text>
<text text-anchor="middle" x="227.5" y="-77" font-family="FreeSans" font-size="10.00" fill="grey">::dimension &gt;</text>
</g>
<!-- Node4 -->
<g id="Node000004" class="node">
<title>Node4</title>
<g id="a_Node000004"><a xlink:href="classDGtal_1_1SimpleMatrix.html" target="_top" xlink:title=" ">
<polygon fill="white" stroke="#666666" points="462,-30 346,-30 346,0 462,0 462,-30"/>
<text text-anchor="start" x="354" y="-18" font-family="FreeSans" font-size="10.00">DGtal::SimpleMatrix</text>
<text text-anchor="middle" x="404" y="-7" font-family="FreeSans" font-size="10.00">&lt; double, 3, 3 &gt;</text>
</a>
</g>
</g>
<!-- Node1&#45;&gt;Node4 -->
<g id="edge3_Node000001_Node000004" class="edge">
<title>Node1&#45;&gt;Node4</title>
<g id="a_edge3_Node000001_Node000004"><a xlink:title=" ">
<path fill="none" stroke="orange" stroke-dasharray="5,2" d="M151.6,-59.74C211.61,-49.06 292.28,-34.71 345.87,-25.17"/>
<polygon fill="orange" stroke="orange" points="150.63,-56.36 141.4,-61.56 151.86,-63.25 150.63,-56.36"/>
</a>
</g>
<text text-anchor="middle" x="227.5" y="-61" font-family="FreeSans" font-size="10.00" fill="grey"> &lt; double, 3, 3 &gt;</text>
</g>
</g>
</svg>
