<?xml version="1.0" encoding="UTF-8" standalone="no"?>
<!DOCTYPE svg PUBLIC "-//W3C//DTD SVG 1.1//EN"
 "http://www.w3.org/Graphics/SVG/1.1/DTD/svg11.dtd">
<!-- Generated by graphviz version 2.43.0 (0)
 -->
<!-- Title: DGtal::CubicalComplex&lt; TKSpace, TCellContainer &gt; Pages: 1 -->
<!--zoomable 302 -->

<svg id="main" version="1.1" xmlns="http://www.w3.org/2000/svg" xmlns:xlink="http://www.w3.org/1999/xlink" xml:space="preserve" onload="init(evt)">
<style type="text/css"><![CDATA[
.node, .edge {opacity: 0.7;}
.node.selected, .edge.selected {opacity: 1;}
.edge:hover path { stroke: red; }
.edge:hover polygon { stroke: red; fill: red; }
]]></style>

<defs>
  <circle id="rim" cx="0" cy="0" r="7"/>
  <circle id="rim2" cx="0" cy="0" r="3.5"/>
  <g id="zoomPlus">
    <use xlink:href="#rim" fill="#404040"><set attributeName="fill" to="#808080" begin="zoomplus.mouseover" end="zoomplus.mouseout"/></use>
    <path d="M-4,0h8M0,-4v8" fill="none" stroke="white" stroke-width="1.5" pointer-events="none"/>
  </g>
  <g id="zoomMin">
    <use xlink:href="#rim" fill="#404040"><set attributeName="fill" to="#808080" begin="zoomminus.mouseover" end="zoomminus.mouseout"/></use>
    <path d="M-4,0h8" fill="none" stroke="white" stroke-width="1.5" pointer-events="none"/>
  </g>
  <g id="arrowUp" transform="translate(30 24)">
    <use xlink:href="#rim"/>
    <path pointer-events="none" fill="none" stroke="white" stroke-width="1.5" d="M0,-3.0v7 M-2.5,-0.5L0,-3.0L2.5,-0.5"/>
  </g>
  <g id="arrowRight" transform="rotate(90) translate(36 -43)">
    <use xlink:href="#rim"/>
    <path pointer-events="none" fill="none" stroke="white" stroke-width="1.5" d="M0,-3.0v7 M-2.5,-0.5L0,-3.0L2.5,-0.5"/>
  </g>
  <g id="arrowDown" transform="rotate(180) translate(-30 -48)">
    <use xlink:href="#rim"/>
    <path pointer-events="none" fill="none" stroke="white" stroke-width="1.5" d="M0,-3.0v7 M-2.5,-0.5L0,-3.0L2.5,-0.5"/>
  </g>
  <g id="arrowLeft" transform="rotate(270) translate(-36 17)">
    <use xlink:href="#rim"/>
    <path pointer-events="none" fill="none" stroke="white" stroke-width="1.5" d="M0,-3.0v7 M-2.5,-0.5L0,-3.0L2.5,-0.5"/>
  </g>
  <g id="resetDef">
    <use xlink:href="#rim2" fill="#404040"><set attributeName="fill" to="#808080" begin="reset.mouseover" end="reset.mouseout"/></use>
  </g>
</defs>
<script type="application/ecmascript">
var viewWidth = 837;
var viewHeight = 302;
var sectionId = 'dynsection-0';
</script>
<script type="application/ecmascript" xlink:href="svg.min.js"/>
<svg id="graph" class="graph">
<g id="viewport">
<title>DGtal::CubicalComplex&lt; TKSpace, TCellContainer &gt;</title>
<!-- Node1 -->
<g id="Node000001" class="node">
<title>Node1</title>
<g id="a_Node000001"><a xlink:title="Aim: This class represents an arbitrary cubical complex living in some Khalimsky space....">
<polygon fill="#999999" stroke="#666666" points="158,-186 0,-186 0,-156 158,-156 158,-186"/>
<text text-anchor="start" x="8" y="-174" font-family="FreeSans" font-size="10.00">DGtal::CubicalComplex</text>
<text text-anchor="middle" x="79" y="-163" font-family="FreeSans" font-size="10.00">&lt; TKSpace, TCellContainer &gt;</text>
</a>
</g>
</g>
<!-- Node2 -->
<g id="Node000002" class="node">
<title>Node2</title>
<g id="a_Node000002"><a xlink:href="classDGtal_1_1VoxelComplex.html" target="_top" xlink:title=" ">
<polygon fill="white" stroke="#666666" points="821,-291 701,-291 701,-261 821,-261 821,-291"/>
<text text-anchor="start" x="709" y="-279" font-family="FreeSans" font-size="10.00">DGtal::VoxelComplex</text>
<text text-anchor="middle" x="761" y="-268" font-family="FreeSans" font-size="10.00">&lt; KSpace &gt;</text>
</a>
</g>
</g>
<!-- Node1&#45;&gt;Node2 -->
<g id="edge1_Node000001_Node000002" class="edge">
<title>Node1&#45;&gt;Node2</title>
<g id="a_edge1_Node000001_Node000002"><a xlink:title=" ">
<path fill="none" stroke="#63b8ff" d="M104.94,-192.62C123.36,-207.42 149.7,-226.24 176,-237 355.64,-310.48 592.31,-296.03 700.91,-283.95"/>
<polygon fill="#63b8ff" stroke="#63b8ff" points="107.01,-189.79 97.06,-186.14 102.56,-195.2 107.01,-189.79"/>
</a>
</g>
</g>
<!-- Node3 -->
<g id="Node000003" class="node">
<title>Node3</title>
<g id="a_Node000003"><a xlink:href="classDGtal_1_1VoxelComplex.html" target="_top" xlink:title=" ">
<polygon fill="white" stroke="#666666" points="829,-234 693,-234 693,-204 829,-204 829,-234"/>
<text text-anchor="start" x="701" y="-222" font-family="FreeSans" font-size="10.00">DGtal::VoxelComplex</text>
<text text-anchor="middle" x="761" y="-211" font-family="FreeSans" font-size="10.00">&lt; KSpace, FixtureMap &gt;</text>
</a>
</g>
</g>
<!-- Node1&#45;&gt;Node3 -->
<g id="edge2_Node000001_Node000003" class="edge">
<title>Node1&#45;&gt;Node3</title>
<g id="a_edge2_Node000001_Node000003"><a xlink:title=" ">
<path fill="none" stroke="#63b8ff" d="M168.21,-183.2C170.84,-183.48 173.44,-183.75 176,-184 362.77,-202.22 584.12,-212.37 692.87,-216.61"/>
<polygon fill="#63b8ff" stroke="#63b8ff" points="168.34,-179.69 158.01,-182.06 167.56,-186.65 168.34,-179.69"/>
</a>
</g>
</g>
<!-- Node4 -->
<g id="Node000004" class="node">
<title>Node4</title>
<g id="a_Node000004"><a xlink:href="classDGtal_1_1VoxelComplex.html" target="_top" xlink:title="This class represents a voxel complex living in some Khalimsky space. Voxel complexes are derived fro...">
<polygon fill="white" stroke="#666666" points="513.5,-256 355.5,-256 355.5,-226 513.5,-226 513.5,-256"/>
<text text-anchor="start" x="363.5" y="-244" font-family="FreeSans" font-size="10.00">DGtal::VoxelComplex</text>
<text text-anchor="middle" x="434.5" y="-233" font-family="FreeSans" font-size="10.00">&lt; TKSpace, TCellContainer &gt;</text>
</a>
</g>
</g>
<!-- Node1&#45;&gt;Node4 -->
<g id="edge3_Node000001_Node000004" class="edge">
<title>Node1&#45;&gt;Node4</title>
<g id="a_edge3_Node000001_Node000004"><a xlink:title=" ">
<path fill="none" stroke="#63b8ff" d="M118.22,-190.36C135.46,-198.3 156.34,-206.81 176,-212 234.94,-227.55 303.63,-234.76 355.23,-238.11"/>
<polygon fill="#63b8ff" stroke="#63b8ff" points="119.59,-187.14 109.05,-186.04 116.6,-193.47 119.59,-187.14"/>
</a>
</g>
</g>
<!-- Node5 -->
<g id="Node000005" class="node">
<title>Node5</title>
<g id="a_Node000005"><a xlink:href="classDGtal_1_1CubicalComplex.html" target="_top" xlink:title=" ">
<polygon fill="white" stroke="#666666" points="534,-170 335,-170 335,-118 534,-118 534,-170"/>
<text text-anchor="start" x="343" y="-158" font-family="FreeSans" font-size="10.00">DGtal::CubicalComplex</text>
<text text-anchor="start" x="343" y="-147" font-family="FreeSans" font-size="10.00">&lt; TKSpace, typename TKSpace</text>
<text text-anchor="start" x="343" y="-136" font-family="FreeSans" font-size="10.00">::template CellMap&lt; CubicalCellData</text>
<text text-anchor="middle" x="434.5" y="-125" font-family="FreeSans" font-size="10.00"> &gt;::Type &gt;</text>
</a>
</g>
</g>
<!-- Node1&#45;&gt;Node5 -->
<g id="edge6_Node000001_Node000005" class="edge">
<title>Node1&#45;&gt;Node5</title>
<g id="a_edge6_Node000001_Node000005"><a xlink:title=" ">
<path fill="none" stroke="orange" stroke-dasharray="5,2" d="M154.24,-154.17C161.56,-152.92 168.91,-151.83 176,-151 228.19,-144.9 286.72,-142.93 334.77,-142.58"/>
<polygon fill="orange" stroke="orange" points="153.51,-150.75 144.29,-155.96 154.75,-157.64 153.51,-150.75"/>
</a>
</g>
<text text-anchor="start" x="176" y="-176" font-family="FreeSans" font-size="10.00" fill="grey"> &lt; TKSpace, typename</text>
<text text-anchor="start" x="176" y="-165" font-family="FreeSans" font-size="10.00" fill="grey"> TKSpace::template CellMap</text>
<text text-anchor="middle" x="246.5" y="-154" font-family="FreeSans" font-size="10.00" fill="grey">&lt; CubicalCellData &gt;::Type &gt;</text>
</g>
<!-- Node6 -->
<g id="Node000006" class="node">
<title>Node6</title>
<g id="a_Node000006"><a xlink:href="classDGtal_1_1CubicalComplex.html" target="_top" xlink:title=" ">
<polygon fill="white" stroke="#666666" points="534,-100 335,-100 335,-48 534,-48 534,-100"/>
<text text-anchor="start" x="343" y="-88" font-family="FreeSans" font-size="10.00">DGtal::CubicalComplex</text>
<text text-anchor="start" x="343" y="-77" font-family="FreeSans" font-size="10.00">&lt; KSpace, typename TKSpace</text>
<text text-anchor="start" x="343" y="-66" font-family="FreeSans" font-size="10.00">::template CellMap&lt; CubicalCellData</text>
<text text-anchor="middle" x="434.5" y="-55" font-family="FreeSans" font-size="10.00"> &gt;::Type &gt;</text>
</a>
</g>
</g>
<!-- Node1&#45;&gt;Node6 -->
<g id="edge7_Node000001_Node000006" class="edge">
<title>Node1&#45;&gt;Node6</title>
<g id="a_edge7_Node000001_Node000006"><a xlink:title=" ">
<path fill="none" stroke="orange" stroke-dasharray="5,2" d="M104.83,-149.31C123.2,-134.55 149.53,-115.95 176,-106 226.39,-87.07 285.85,-78.84 334.93,-75.44"/>
<polygon fill="orange" stroke="orange" points="102.47,-146.72 96.98,-155.78 106.92,-152.13 102.47,-146.72"/>
</a>
</g>
<text text-anchor="start" x="176" y="-131" font-family="FreeSans" font-size="10.00" fill="grey"> &lt; KSpace, typename</text>
<text text-anchor="start" x="176" y="-120" font-family="FreeSans" font-size="10.00" fill="grey"> TKSpace::template CellMap</text>
<text text-anchor="middle" x="246.5" y="-109" font-family="FreeSans" font-size="10.00" fill="grey">&lt; CubicalCellData &gt;::Type &gt;</text>
</g>
<!-- Node7 -->
<g id="Node000007" class="node">
<title>Node7</title>
<g id="a_Node000007"><a xlink:href="classDGtal_1_1CubicalComplex.html" target="_top" xlink:title=" ">
<polygon fill="white" stroke="#666666" points="502.5,-30 366.5,-30 366.5,0 502.5,0 502.5,-30"/>
<text text-anchor="start" x="374.5" y="-18" font-family="FreeSans" font-size="10.00">DGtal::CubicalComplex</text>
<text text-anchor="middle" x="434.5" y="-7" font-family="FreeSans" font-size="10.00">&lt; KSpace, FixtureMap &gt;</text>
</a>
</g>
</g>
<!-- Node1&#45;&gt;Node7 -->
<g id="edge8_Node000001_Node000007" class="edge">
<title>Node1&#45;&gt;Node7</title>
<g id="a_edge8_Node000001_Node000007"><a xlink:title=" ">
<path fill="none" stroke="orange" stroke-dasharray="5,2" d="M94.18,-147.37C110.58,-122.23 140.01,-83.33 176,-63 234.7,-29.84 311.77,-18.99 366.24,-15.73"/>
<polygon fill="orange" stroke="orange" points="91.13,-145.63 88.73,-155.95 97.04,-149.38 91.13,-145.63"/>
</a>
</g>
<text text-anchor="middle" x="246.5" y="-66" font-family="FreeSans" font-size="10.00" fill="grey"> &lt; KSpace, FixtureMap &gt;</text>
</g>
<!-- Node4&#45;&gt;Node2 -->
<g id="edge4_Node000004_Node000002" class="edge">
<title>Node4&#45;&gt;Node2</title>
<g id="a_edge4_Node000004_Node000002"><a xlink:title=" ">
<path fill="none" stroke="orange" stroke-dasharray="5,2" d="M523.8,-249.94C569.03,-254.59 624.98,-260.45 675,-266 683.27,-266.92 691.99,-267.91 700.57,-268.91"/>
<polygon fill="orange" stroke="orange" points="524.03,-246.44 513.73,-248.9 523.32,-253.41 524.03,-246.44"/>
</a>
</g>
<text text-anchor="middle" x="613.5" y="-269" font-family="FreeSans" font-size="10.00" fill="grey"> &lt; KSpace &gt;</text>
</g>
<!-- Node4&#45;&gt;Node3 -->
<g id="edge5_Node000004_Node000003" class="edge">
<title>Node4&#45;&gt;Node3</title>
<g id="a_edge5_Node000004_Node000003"><a xlink:title=" ">
<path fill="none" stroke="orange" stroke-dasharray="5,2" d="M523.5,-234.06C533.12,-233.35 542.76,-232.65 552,-232 598.92,-228.72 651.83,-225.42 692.54,-222.96"/>
<polygon fill="orange" stroke="orange" points="523.22,-230.57 513.51,-234.81 523.74,-237.56 523.22,-230.57"/>
</a>
</g>
<text text-anchor="middle" x="613.5" y="-235" font-family="FreeSans" font-size="10.00" fill="grey"> &lt; KSpace, FixtureMap &gt;</text>
</g>
</g>
</svg>

<g id="navigator" transform="translate(0 0)" fill="#404254">
  <rect fill="#f2f5e9" fill-opacity="0.5" stroke="#606060" stroke-width=".5" x="0" y="0" width="60" height="60"/>
  <use id="zoomplus" xlink:href="#zoomPlus" x="17" y="9" onmousedown="handleZoom(evt,'in')"/>
  <use id="zoomminus" xlink:href="#zoomMin" x="42" y="9" onmousedown="handleZoom(evt,'out')"/>
  <use id="reset" xlink:href="#resetDef" x="30" y="36" onmousedown="handleReset()"/>
   <use id="arrowup" xlink:href="#arrowUp" x="0" y="0" onmousedown="handlePan(0,-1)"/>
  <use id="arrowright" xlink:href="#arrowRight" x="0" y="0" onmousedown="handlePan(1,0)"/>
  <use id="arrowdown" xlink:href="#arrowDown" x="0" y="0" onmousedown="handlePan(0,1)"/>
  <use id="arrowleft" xlink:href="#arrowLeft" x="0" y="0" onmousedown="handlePan(-1,0)"/>
</g>
<svg viewBox="0 0 15 15" width="100%" height="30px" preserveAspectRatio="xMaxYMin meet">
 <g id="arrow_out" transform="scale(0.3 0.3)">
  <a xlink:href="classDGtal_1_1CubicalComplex__inherit__graph_org.svg" target="_base">
   <rect id="button" ry="5" rx="5" y="6" x="6" height="38" width="38"
        fill="#f2f5e9" fill-opacity="0.5" stroke="#606060" stroke-width="1.0"/>
   <path id="arrow"
     d="M 11.500037,31.436501 C 11.940474,20.09759 22.043105,11.32322 32.158766,21.979434 L 37.068811,17.246167 C 37.068811,17.246167 37.088388,32 37.088388,32 L 22.160133,31.978069 C 22.160133,31.978069 26.997745,27.140456 26.997745,27.140456 C 18.528582,18.264221 13.291696,25.230495 11.500037,31.436501 z"
     style="fill:#404040;"/>
  </a>
 </g>
</svg>

<style type='text/css'>
<![CDATA[
[data-mouse-over-selected='false'] { opacity: 0.7; }
[data-mouse-over-selected='true']  { opacity: 1.0; }
]]>
</style>
<script type="application/ecmascript"><![CDATA[
document.addEventListener('DOMContentLoaded', (event) => {
  highlightEdges();
  highlightAdjacentNodes();
});
]]></script>
</svg>
