<?xml version="1.0" encoding="UTF-8" standalone="no"?>
<!DOCTYPE svg PUBLIC "-//W3C//DTD SVG 1.1//EN"
 "http://www.w3.org/Graphics/SVG/1.1/DTD/svg11.dtd">
<!-- Generated by graphviz version 2.43.0 (0)
 -->
<!-- Title: DGtal::CountedPtr&lt; T &gt; Pages: 1 -->
<!--zoomable 1626 -->
<svg id="main" version="1.1" xmlns="http://www.w3.org/2000/svg" xmlns:xlink="http://www.w3.org/1999/xlink" xml:space="preserve" onload="init(evt)">
<style type="text/css"><![CDATA[
.edge:hover path { stroke: red; }
.edge:hover polygon { stroke: red; fill: red; }
]]></style>
<script type="text/javascript"><![CDATA[
var edges = document.getElementsByTagName('g');
if (edges && edges.length) {
  for (var i=0;i<edges.length;i++) {
    if (edges[i].id.substr(0,4)=='edge') {
      edges[i].setAttribute('class','edge');
    }
  }
}
]]></script>
        <defs>
                <circle id="rim" cx="0" cy="0" r="7"/>
                <circle id="rim2" cx="0" cy="0" r="3.5"/>
                <g id="zoomPlus">
                        <use xlink:href="#rim" fill="#404040">
                                <set attributeName="fill" to="#808080" begin="zoomplus.mouseover" end="zoomplus.mouseout"/>
                        </use>
                        <path d="M-4,0h8M0,-4v8" fill="none" stroke="white" stroke-width="1.5" pointer-events="none"/>
                </g>
                <g id="zoomMin">
                        <use xlink:href="#rim" fill="#404040">
                                <set attributeName="fill" to="#808080" begin="zoomminus.mouseover" end="zoomminus.mouseout"/>
                        </use>
                        <path d="M-4,0h8" fill="none" stroke="white" stroke-width="1.5" pointer-events="none"/>
                </g>
                <g id="dirArrow">
                        <path fill="none" stroke="white" stroke-width="1.5" d="M0,-3.0v7 M-2.5,-0.5L0,-3.0L2.5,-0.5"/>
                </g>
               <g id="resetDef">
                       <use xlink:href="#rim2" fill="#404040">
                               <set attributeName="fill" to="#808080" begin="reset.mouseover" end="reset.mouseout"/>
                       </use>
               </g>
        </defs>

<script type="text/javascript">
var viewWidth = 540;
var viewHeight = 1626;
var sectionId = 'dynsection-0';
</script>
<script xlink:href="svgpan.js"/>
<svg id="graph" class="graph">
<g id="viewport">
<title>DGtal::CountedPtr&lt; T &gt;</title>
<polygon fill="white" stroke="transparent" points="-4,4 -4,-1621.68 536,-1621.68 536,4 -4,4"/>
<!-- Node1 -->
<g id="node1" class="node">
<title>Node1</title>
<g id="a_node1"><a xlink:title="Aim: Smart pointer based on reference counts.">
<polygon fill="#bfbfbf" stroke="black" points="0,-804.18 0,-823.18 133,-823.18 133,-804.18 0,-804.18"/>
<text text-anchor="middle" x="66.5" y="-811.18" font-family="FreeSans" font-size="10.00">DGtal::CountedPtr&lt; T &gt;</text>
</a>
</g>
</g>
<!-- Node2 -->
<g id="node2" class="node">
<title>Node2</title>
<g id="a_node2"><a xlink:href="classDGtal_1_1CountedPtr.html" target="_top" xlink:title=" ">
<polygon fill="white" stroke="black" points="383.5,-1572.68 383.5,-1602.68 496.5,-1602.68 496.5,-1572.68 383.5,-1572.68"/>
<text text-anchor="start" x="391.5" y="-1590.68" font-family="FreeSans" font-size="10.00">DGtal::CountedPtr&lt;</text>
<text text-anchor="middle" x="440" y="-1579.68" font-family="FreeSans" font-size="10.00"> Sequence &gt;</text>
</a>
</g>
</g>
<!-- Node1&#45;&gt;Node2 -->
<g id="edge1" class="edge">
<title>Node1&#45;&gt;Node2</title>
<path fill="none" stroke="orange" stroke-dasharray="5,2" d="M68.28,-833.72C72.85,-947.1 97.97,-1505.08 151,-1557.68 211.49,-1617.7 318.13,-1611.39 383.3,-1600.28"/>
<polygon fill="orange" stroke="orange" points="71.76,-833.25 67.87,-823.39 64.76,-833.53 71.76,-833.25"/>
<text text-anchor="middle" x="240.5" y="-1609.68" font-family="FreeSans" font-size="10.00"> &lt; Sequence &gt;</text>
</g>
<!-- Node3 -->
<g id="node3" class="node">
<title>Node3</title>
<g id="a_node3"><a xlink:href="classDGtal_1_1CountedPtr.html" target="_top" xlink:title=" ">
<polygon fill="white" stroke="black" points="383.5,-1523.68 383.5,-1553.68 496.5,-1553.68 496.5,-1523.68 383.5,-1523.68"/>
<text text-anchor="start" x="391.5" y="-1541.68" font-family="FreeSans" font-size="10.00">DGtal::CountedPtr&lt;</text>
<text text-anchor="middle" x="440" y="-1530.68" font-family="FreeSans" font-size="10.00"> const Domain &gt;</text>
</a>
</g>
</g>
<!-- Node1&#45;&gt;Node3 -->
<g id="edge2" class="edge">
<title>Node1&#45;&gt;Node3</title>
<path fill="none" stroke="orange" stroke-dasharray="5,2" d="M68.4,-833.59C73.5,-942.79 100.48,-1465.92 151,-1514.68 183.04,-1545.61 309.1,-1545.19 383.4,-1542.02"/>
<polygon fill="orange" stroke="orange" points="71.88,-833.18 67.92,-823.35 64.89,-833.5 71.88,-833.18"/>
<text text-anchor="middle" x="240.5" y="-1545.68" font-family="FreeSans" font-size="10.00"> &lt; const Domain &gt;</text>
</g>
<!-- Node4 -->
<g id="node4" class="node">
<title>Node4</title>
<g id="a_node4"><a xlink:href="classDGtal_1_1CountedPtr.html" target="_top" xlink:title=" ">
<polygon fill="white" stroke="black" points="374.5,-1463.18 374.5,-1504.18 505.5,-1504.18 505.5,-1463.18 374.5,-1463.18"/>
<text text-anchor="start" x="382.5" y="-1492.18" font-family="FreeSans" font-size="10.00">DGtal::CountedPtr&lt;</text>
<text text-anchor="start" x="382.5" y="-1481.18" font-family="FreeSans" font-size="10.00"> StabbingLineComputer</text>
<text text-anchor="middle" x="440" y="-1470.18" font-family="FreeSans" font-size="10.00">&lt; ConstIterator &gt; &gt;</text>
</a>
</g>
</g>
<!-- Node1&#45;&gt;Node4 -->
<g id="edge3" class="edge">
<title>Node1&#45;&gt;Node4</title>
<path fill="none" stroke="orange" stroke-dasharray="5,2" d="M68.6,-833.68C74.55,-937.93 104.26,-1416.17 151,-1460.68 181.96,-1490.18 299.43,-1490.59 374.44,-1487.57"/>
<polygon fill="orange" stroke="orange" points="72.09,-833.36 68.04,-823.57 65.1,-833.75 72.09,-833.36"/>
<text text-anchor="start" x="177.5" y="-1502.68" font-family="FreeSans" font-size="10.00"> &lt; StabbingLineComputer</text>
<text text-anchor="middle" x="240.5" y="-1491.68" font-family="FreeSans" font-size="10.00">&lt; ConstIterator &gt; &gt;</text>
</g>
<!-- Node5 -->
<g id="node5" class="node">
<title>Node5</title>
<g id="a_node5"><a xlink:href="classDGtal_1_1CountedPtr.html" target="_top" xlink:title=" ">
<polygon fill="white" stroke="black" points="364,-1413.68 364,-1443.68 516,-1443.68 516,-1413.68 364,-1413.68"/>
<text text-anchor="start" x="372" y="-1431.68" font-family="FreeSans" font-size="10.00">DGtal::CountedPtr&lt;</text>
<text text-anchor="middle" x="440" y="-1420.68" font-family="FreeSans" font-size="10.00"> AdjacentVertexContainer &gt;</text>
</a>
</g>
</g>
<!-- Node1&#45;&gt;Node5 -->
<g id="edge4" class="edge">
<title>Node1&#45;&gt;Node5</title>
<path fill="none" stroke="orange" stroke-dasharray="5,2" d="M67.26,-833.81C66.62,-926.9 68.96,-1314.69 151,-1394.68 206.24,-1448.55 298.55,-1450.11 363.75,-1442.68"/>
<polygon fill="orange" stroke="orange" points="70.77,-833.56 67.36,-823.53 63.77,-833.49 70.77,-833.56"/>
<text text-anchor="middle" x="240.5" y="-1448.68" font-family="FreeSans" font-size="10.00"> &lt; AdjacentVertexContainer &gt;</text>
</g>
<!-- Node6 -->
<g id="node6" class="node">
<title>Node6</title>
<g id="a_node6"><a xlink:href="classDGtal_1_1CountedPtr.html" target="_top" xlink:title=" ">
<polygon fill="white" stroke="black" points="383.5,-1364.68 383.5,-1394.68 496.5,-1394.68 496.5,-1364.68 383.5,-1364.68"/>
<text text-anchor="start" x="391.5" y="-1382.68" font-family="FreeSans" font-size="10.00">DGtal::CountedPtr&lt;</text>
<text text-anchor="middle" x="440" y="-1371.68" font-family="FreeSans" font-size="10.00"> GraphVisitor &gt;</text>
</a>
</g>
</g>
<!-- Node1&#45;&gt;Node6 -->
<g id="edge5" class="edge">
<title>Node1&#45;&gt;Node6</title>
<path fill="none" stroke="orange" stroke-dasharray="5,2" d="M67.56,-833.77C68.25,-921.9 75.74,-1273.24 151,-1345.68 183.19,-1376.67 309.2,-1381.03 383.45,-1380.8"/>
<polygon fill="orange" stroke="orange" points="71.06,-833.52 67.5,-823.54 64.06,-833.56 71.06,-833.52"/>
<text text-anchor="middle" x="240.5" y="-1382.68" font-family="FreeSans" font-size="10.00"> &lt; GraphVisitor &gt;</text>
</g>
<!-- Node7 -->
<g id="node7" class="node">
<title>Node7</title>
<g id="a_node7"><a xlink:href="classDGtal_1_1CountedPtr.html" target="_top" xlink:title=" ">
<polygon fill="white" stroke="black" points="369,-1315.68 369,-1345.68 511,-1345.68 511,-1315.68 369,-1315.68"/>
<text text-anchor="start" x="377" y="-1333.68" font-family="FreeSans" font-size="10.00">DGtal::CountedPtr&lt;</text>
<text text-anchor="middle" x="440" y="-1322.68" font-family="FreeSans" font-size="10.00"> DrawableWithBoard2D &gt;</text>
</a>
</g>
</g>
<!-- Node1&#45;&gt;Node7 -->
<g id="edge6" class="edge">
<title>Node1&#45;&gt;Node7</title>
<path fill="none" stroke="orange" stroke-dasharray="5,2" d="M67.89,-833.53C69.93,-916.29 82.18,-1232.67 151,-1297.68 181.41,-1326.42 293.78,-1331.75 368.84,-1331.95"/>
<polygon fill="orange" stroke="orange" points="71.38,-833.37 67.66,-823.45 64.38,-833.53 71.38,-833.37"/>
<text text-anchor="middle" x="240.5" y="-1333.68" font-family="FreeSans" font-size="10.00"> &lt; DrawableWithBoard2D &gt;</text>
</g>
<!-- Node8 -->
<g id="node8" class="node">
<title>Node8</title>
<g id="a_node8"><a xlink:href="classDGtal_1_1CountedPtr.html" target="_top" xlink:title=" ">
<polygon fill="white" stroke="black" points="383.5,-1266.68 383.5,-1296.68 496.5,-1296.68 496.5,-1266.68 383.5,-1266.68"/>
<text text-anchor="start" x="391.5" y="-1284.68" font-family="FreeSans" font-size="10.00">DGtal::CountedPtr&lt;</text>
<text text-anchor="middle" x="440" y="-1273.68" font-family="FreeSans" font-size="10.00"> DigSurface &gt;</text>
</a>
</g>
</g>
<!-- Node1&#45;&gt;Node8 -->
<g id="edge7" class="edge">
<title>Node1&#45;&gt;Node8</title>
<path fill="none" stroke="orange" stroke-dasharray="5,2" d="M68.26,-833.61C71.67,-911.5 88.24,-1194.02 151,-1251.68 183.81,-1281.83 309.25,-1284.61 383.32,-1283.47"/>
<polygon fill="orange" stroke="orange" points="71.74,-833.13 67.83,-823.29 64.75,-833.42 71.74,-833.13"/>
<text text-anchor="middle" x="240.5" y="-1285.68" font-family="FreeSans" font-size="10.00"> &lt; DigSurface &gt;</text>
</g>
<!-- Node9 -->
<g id="node9" class="node">
<title>Node9</title>
<g id="a_node9"><a xlink:href="classDGtal_1_1CountedPtr.html" target="_top" xlink:title=" ">
<polygon fill="white" stroke="black" points="348,-1217.68 348,-1247.68 532,-1247.68 532,-1217.68 348,-1217.68"/>
<text text-anchor="start" x="356" y="-1235.68" font-family="FreeSans" font-size="10.00">DGtal::CountedPtr&lt;</text>
<text text-anchor="middle" x="440" y="-1224.68" font-family="FreeSans" font-size="10.00"> DGtal::DrawableWithDisplay3D &gt;</text>
</a>
</g>
</g>
<!-- Node1&#45;&gt;Node9 -->
<g id="edge8" class="edge">
<title>Node1&#45;&gt;Node9</title>
<path fill="none" stroke="orange" stroke-dasharray="5,2" d="M68.64,-833.66C73.25,-907.03 93.19,-1160 151,-1210.68 179.47,-1235.65 274.55,-1238.81 347.76,-1237.21"/>
<polygon fill="orange" stroke="orange" points="72.12,-833.26 68.02,-823.49 65.13,-833.68 72.12,-833.26"/>
<text text-anchor="middle" x="240.5" y="-1239.68" font-family="FreeSans" font-size="10.00"> &lt; DGtal::DrawableWithDisplay3D &gt;</text>
</g>
<!-- Node10 -->
<g id="node10" class="node">
<title>Node10</title>
<g id="a_node10"><a xlink:href="classDGtal_1_1CountedPtr.html" target="_top" xlink:title=" ">
<polygon fill="white" stroke="black" points="348.5,-1168.68 348.5,-1198.68 531.5,-1198.68 531.5,-1168.68 348.5,-1168.68"/>
<text text-anchor="start" x="356.5" y="-1186.68" font-family="FreeSans" font-size="10.00">DGtal::CountedPtr&lt;</text>
<text text-anchor="middle" x="440" y="-1175.68" font-family="FreeSans" font-size="10.00"> DGtal::DigitalSurfaceConvolver &gt;</text>
</a>
</g>
</g>
<!-- Node1&#45;&gt;Node10 -->
<g id="edge9" class="edge">
<title>Node1&#45;&gt;Node10</title>
<path fill="none" stroke="orange" stroke-dasharray="5,2" d="M69.49,-833.48C76.49,-899.12 102.31,-1107.89 151,-1150.68 204.11,-1197.36 285.68,-1202.74 348.46,-1198.1"/>
<polygon fill="orange" stroke="orange" points="72.94,-832.85 68.43,-823.27 65.98,-833.58 72.94,-832.85"/>
<text text-anchor="middle" x="240.5" y="-1201.68" font-family="FreeSans" font-size="10.00"> &lt; DGtal::DigitalSurfaceConvolver &gt;</text>
</g>
<!-- Node11 -->
<g id="node11" class="node">
<title>Node11</title>
<g id="a_node11"><a xlink:href="classDGtal_1_1CountedPtr.html" target="_top" xlink:title=" ">
<polygon fill="white" stroke="black" points="366.5,-1119.68 366.5,-1149.68 513.5,-1149.68 513.5,-1119.68 366.5,-1119.68"/>
<text text-anchor="start" x="374.5" y="-1137.68" font-family="FreeSans" font-size="10.00">DGtal::CountedPtr&lt;</text>
<text text-anchor="middle" x="440" y="-1126.68" font-family="FreeSans" font-size="10.00"> DigitalSurfaceContainer &gt;</text>
</a>
</g>
</g>
<!-- Node1&#45;&gt;Node11 -->
<g id="edge10" class="edge">
<title>Node1&#45;&gt;Node11</title>
<path fill="none" stroke="orange" stroke-dasharray="5,2" d="M70.2,-833.23C78.85,-892.88 107.87,-1070.72 151,-1106.68 182.64,-1133.07 291.93,-1137.14 366.41,-1136.66"/>
<polygon fill="orange" stroke="orange" points="73.65,-832.65 68.78,-823.24 66.72,-833.63 73.65,-832.65"/>
<text text-anchor="middle" x="240.5" y="-1138.68" font-family="FreeSans" font-size="10.00"> &lt; DigitalSurfaceContainer &gt;</text>
</g>
<!-- Node12 -->
<g id="node12" class="node">
<title>Node12</title>
<g id="a_node12"><a xlink:href="classDGtal_1_1CountedPtr.html" target="_top" xlink:title=" ">
<polygon fill="white" stroke="black" points="370,-1081.18 370,-1100.18 510,-1100.18 510,-1081.18 370,-1081.18"/>
<text text-anchor="middle" x="440" y="-1088.18" font-family="FreeSans" font-size="10.00">DGtal::CountedPtr&lt; A1 &gt;</text>
</a>
</g>
</g>
<!-- Node1&#45;&gt;Node12 -->
<g id="edge11" class="edge">
<title>Node1&#45;&gt;Node12</title>
<path fill="none" stroke="orange" stroke-dasharray="5,2" d="M67.39,-833.49C68.31,-881.75 78,-1005.74 151,-1063.68 183.7,-1089.64 295.39,-1093.27 369.68,-1092.63"/>
<polygon fill="orange" stroke="orange" points="70.89,-833.38 67.31,-823.41 63.89,-833.44 70.89,-833.38"/>
<text text-anchor="middle" x="240.5" y="-1094.68" font-family="FreeSans" font-size="10.00"> &lt; A1 &gt;</text>
</g>
<!-- Node13 -->
<g id="node13" class="node">
<title>Node13</title>
<g id="a_node13"><a xlink:href="classDGtal_1_1CountedPtr.html" target="_top" xlink:title=" ">
<polygon fill="white" stroke="black" points="383.5,-1031.68 383.5,-1061.68 496.5,-1061.68 496.5,-1031.68 383.5,-1031.68"/>
<text text-anchor="start" x="391.5" y="-1049.68" font-family="FreeSans" font-size="10.00">DGtal::CountedPtr&lt;</text>
<text text-anchor="middle" x="440" y="-1038.68" font-family="FreeSans" font-size="10.00"> OutputImage &gt;</text>
</a>
</g>
</g>
<!-- Node1&#45;&gt;Node13 -->
<g id="edge12" class="edge">
<title>Node1&#45;&gt;Node13</title>
<path fill="none" stroke="orange" stroke-dasharray="5,2" d="M68.84,-833.31C72.88,-875.69 88.86,-975.63 151,-1021.68 186.58,-1048.06 310,-1049.95 383.22,-1048.58"/>
<polygon fill="orange" stroke="orange" points="72.31,-832.87 68,-823.2 65.34,-833.45 72.31,-832.87"/>
<text text-anchor="middle" x="240.5" y="-1051.68" font-family="FreeSans" font-size="10.00"> &lt; OutputImage &gt;</text>
</g>
<!-- Node14 -->
<g id="node14" class="node">
<title>Node14</title>
<g id="a_node14"><a xlink:href="classDGtal_1_1CountedPtr.html" target="_top" xlink:title=" ">
<polygon fill="white" stroke="black" points="382.5,-971.18 382.5,-1012.18 497.5,-1012.18 497.5,-971.18 382.5,-971.18"/>
<text text-anchor="start" x="390.5" y="-1000.18" font-family="FreeSans" font-size="10.00">DGtal::CountedPtr&lt;</text>
<text text-anchor="start" x="390.5" y="-989.18" font-family="FreeSans" font-size="10.00"> DGtal::SignalData&lt;</text>
<text text-anchor="middle" x="440" y="-978.18" font-family="FreeSans" font-size="10.00"> Value &gt; &gt;</text>
</a>
</g>
</g>
<!-- Node1&#45;&gt;Node14 -->
<g id="edge13" class="edge">
<title>Node1&#45;&gt;Node14</title>
<path fill="none" stroke="orange" stroke-dasharray="5,2" d="M73.64,-833.36C84.19,-863.58 108.78,-920.87 151,-948.68 220.76,-994.64 320.46,-999.19 382.38,-996.63"/>
<polygon fill="orange" stroke="orange" points="76.86,-831.94 70.39,-823.55 70.22,-834.14 76.86,-831.94"/>
<text text-anchor="start" x="189.5" y="-1009.68" font-family="FreeSans" font-size="10.00"> &lt; DGtal::SignalData</text>
<text text-anchor="middle" x="240.5" y="-998.68" font-family="FreeSans" font-size="10.00">&lt; Value &gt; &gt;</text>
</g>
<!-- Node15 -->
<g id="node15" class="node">
<title>Node15</title>
<g id="a_node15"><a xlink:href="classDGtal_1_1CountedPtr.html" target="_top" xlink:title=" ">
<polygon fill="white" stroke="black" points="379,-921.68 379,-951.68 501,-951.68 501,-921.68 379,-921.68"/>
<text text-anchor="start" x="387" y="-939.68" font-family="FreeSans" font-size="10.00">DGtal::CountedPtr&lt;</text>
<text text-anchor="middle" x="440" y="-928.68" font-family="FreeSans" font-size="10.00"> ShapePointFunctor &gt;</text>
</a>
</g>
</g>
<!-- Node1&#45;&gt;Node15 -->
<g id="edge14" class="edge">
<title>Node1&#45;&gt;Node15</title>
<path fill="none" stroke="orange" stroke-dasharray="5,2" d="M80.97,-831.39C95.94,-849.68 121.88,-877.5 151,-891.68 223.91,-927.19 318.39,-935.88 378.87,-937.41"/>
<polygon fill="orange" stroke="orange" points="83.49,-828.93 74.53,-823.27 78,-833.28 83.49,-828.93"/>
<text text-anchor="middle" x="240.5" y="-936.68" font-family="FreeSans" font-size="10.00"> &lt; ShapePointFunctor &gt;</text>
</g>
<!-- Node16 -->
<g id="node16" class="node">
<title>Node16</title>
<g id="a_node16"><a xlink:href="classDGtal_1_1CountedPtr.html" target="_top" xlink:title=" ">
<polygon fill="white" stroke="black" points="372,-872.68 372,-902.68 508,-902.68 508,-872.68 372,-872.68"/>
<text text-anchor="start" x="380" y="-890.68" font-family="FreeSans" font-size="10.00">DGtal::CountedPtr&lt;</text>
<text text-anchor="middle" x="440" y="-879.68" font-family="FreeSans" font-size="10.00"> DGtal::GaussDigitizer &gt;</text>
</a>
</g>
</g>
<!-- Node1&#45;&gt;Node16 -->
<g id="edge15" class="edge">
<title>Node1&#45;&gt;Node16</title>
<path fill="none" stroke="orange" stroke-dasharray="5,2" d="M98.31,-827.37C113.84,-833.78 133.13,-841.02 151,-845.68 225.31,-865.09 312.91,-876.26 371.82,-882.13"/>
<polygon fill="orange" stroke="orange" points="99.27,-823.98 88.7,-823.31 96.55,-830.42 99.27,-823.98"/>
<text text-anchor="middle" x="240.5" y="-879.68" font-family="FreeSans" font-size="10.00"> &lt; DGtal::GaussDigitizer &gt;</text>
</g>
<!-- Node17 -->
<g id="node17" class="node">
<title>Node17</title>
<g id="a_node17"><a xlink:href="classDGtal_1_1CountedPtr.html" target="_top" xlink:title=" ">
<polygon fill="white" stroke="black" points="380,-823.68 380,-853.68 500,-853.68 500,-823.68 380,-823.68"/>
<text text-anchor="start" x="388" y="-841.68" font-family="FreeSans" font-size="10.00">DGtal::CountedPtr&lt;</text>
<text text-anchor="middle" x="440" y="-830.68" font-family="FreeSans" font-size="10.00"> DGtal::ImplicitBall &gt;</text>
</a>
</g>
</g>
<!-- Node1&#45;&gt;Node17 -->
<g id="edge16" class="edge">
<title>Node1&#45;&gt;Node17</title>
<path fill="none" stroke="orange" stroke-dasharray="5,2" d="M143.14,-818.78C213.13,-823.49 315.76,-830.39 379.91,-834.71"/>
<polygon fill="orange" stroke="orange" points="143.27,-815.28 133.06,-818.1 142.8,-822.26 143.27,-815.28"/>
<text text-anchor="middle" x="240.5" y="-833.68" font-family="FreeSans" font-size="10.00"> &lt; DGtal::ImplicitBall &gt;</text>
</g>
<!-- Node18 -->
<g id="node18" class="node">
<title>Node18</title>
<g id="a_node18"><a xlink:href="classDGtal_1_1CountedPtr.html" target="_top" xlink:title=" ">
<polygon fill="white" stroke="black" points="380.5,-774.68 380.5,-804.68 499.5,-804.68 499.5,-774.68 380.5,-774.68"/>
<text text-anchor="start" x="388.5" y="-792.68" font-family="FreeSans" font-size="10.00">DGtal::CountedPtr&lt;</text>
<text text-anchor="middle" x="440" y="-781.68" font-family="FreeSans" font-size="10.00"> OutEdgeContainer &gt;</text>
</a>
</g>
</g>
<!-- Node1&#45;&gt;Node18 -->
<g id="edge17" class="edge">
<title>Node1&#45;&gt;Node18</title>
<path fill="none" stroke="orange" stroke-dasharray="5,2" d="M143.27,-806.29C145.87,-806.08 148.46,-805.88 151,-805.68 230.4,-799.68 322.27,-794.96 380.49,-792.25"/>
<polygon fill="orange" stroke="orange" points="142.79,-802.82 133.12,-807.15 143.37,-809.8 142.79,-802.82"/>
<text text-anchor="middle" x="240.5" y="-808.68" font-family="FreeSans" font-size="10.00"> &lt; OutEdgeContainer &gt;</text>
</g>
<!-- Node19 -->
<g id="node19" class="node">
<title>Node19</title>
<g id="a_node19"><a xlink:href="classDGtal_1_1CountedPtr.html" target="_top" xlink:title=" ">
<polygon fill="white" stroke="black" points="354,-725.68 354,-755.68 526,-755.68 526,-725.68 354,-725.68"/>
<text text-anchor="start" x="362" y="-743.68" font-family="FreeSans" font-size="10.00">DGtal::CountedPtr&lt;</text>
<text text-anchor="middle" x="440" y="-732.68" font-family="FreeSans" font-size="10.00"> HyperRectDomain&lt; Space &gt; &gt;</text>
</a>
</g>
</g>
<!-- Node1&#45;&gt;Node19 -->
<g id="edge18" class="edge">
<title>Node1&#45;&gt;Node19</title>
<path fill="none" stroke="orange" stroke-dasharray="5,2" d="M89.95,-798.39C106.17,-788.16 129.01,-775.38 151,-768.68 217.2,-748.53 295.54,-741.95 353.79,-740.18"/>
<polygon fill="orange" stroke="orange" points="87.7,-795.67 81.22,-804.05 91.51,-801.55 87.7,-795.67"/>
<text text-anchor="start" x="184.5" y="-782.68" font-family="FreeSans" font-size="10.00"> &lt; HyperRectDomain&lt;</text>
<text text-anchor="middle" x="240.5" y="-771.68" font-family="FreeSans" font-size="10.00"> Space &gt; &gt;</text>
</g>
<!-- Node20 -->
<g id="node20" class="node">
<title>Node20</title>
<g id="a_node20"><a xlink:href="classDGtal_1_1CountedPtr.html" target="_top" xlink:title=" ">
<polygon fill="white" stroke="black" points="383.5,-676.68 383.5,-706.68 496.5,-706.68 496.5,-676.68 383.5,-676.68"/>
<text text-anchor="start" x="391.5" y="-694.68" font-family="FreeSans" font-size="10.00">DGtal::CountedPtr&lt;</text>
<text text-anchor="middle" x="440" y="-683.68" font-family="FreeSans" font-size="10.00"> DigitalSet &gt;</text>
</a>
</g>
</g>
<!-- Node1&#45;&gt;Node20 -->
<g id="edge19" class="edge">
<title>Node1&#45;&gt;Node20</title>
<path fill="none" stroke="orange" stroke-dasharray="5,2" d="M79.04,-795.34C93.22,-774.57 119.32,-741.56 151,-725.68 225.04,-688.58 322.85,-685.12 383.3,-687.39"/>
<polygon fill="orange" stroke="orange" points="75.97,-793.65 73.39,-803.92 81.82,-797.5 75.97,-793.65"/>
<text text-anchor="middle" x="240.5" y="-728.68" font-family="FreeSans" font-size="10.00"> &lt; DigitalSet &gt;</text>
</g>
<!-- Node21 -->
<g id="node21" class="node">
<title>Node21</title>
<g id="a_node21"><a xlink:href="classDGtal_1_1CountedPtr.html" target="_top" xlink:title=" ">
<polygon fill="white" stroke="black" points="365,-627.68 365,-657.68 515,-657.68 515,-627.68 365,-627.68"/>
<text text-anchor="start" x="373" y="-645.68" font-family="FreeSans" font-size="10.00">DGtal::CountedPtr&lt;</text>
<text text-anchor="middle" x="440" y="-634.68" font-family="FreeSans" font-size="10.00"> DrawableWithDisplay3D &gt;</text>
</a>
</g>
</g>
<!-- Node1&#45;&gt;Node21 -->
<g id="edge20" class="edge">
<title>Node1&#45;&gt;Node21</title>
<path fill="none" stroke="orange" stroke-dasharray="5,2" d="M72.76,-794.11C82.41,-762.38 106.19,-700.39 151,-671.68 214.58,-630.95 302.73,-628.04 364.71,-632.59"/>
<polygon fill="orange" stroke="orange" points="69.32,-793.39 69.92,-803.96 76.05,-795.32 69.32,-793.39"/>
<text text-anchor="middle" x="240.5" y="-674.68" font-family="FreeSans" font-size="10.00"> &lt; DrawableWithDisplay3D &gt;</text>
</g>
<!-- Node22 -->
<g id="node22" class="node">
<title>Node22</title>
<g id="a_node22"><a xlink:href="classDGtal_1_1CountedPtr.html" target="_top" xlink:title=" ">
<polygon fill="white" stroke="black" points="383.5,-578.68 383.5,-608.68 496.5,-608.68 496.5,-578.68 383.5,-578.68"/>
<text text-anchor="start" x="391.5" y="-596.68" font-family="FreeSans" font-size="10.00">DGtal::CountedPtr&lt;</text>
<text text-anchor="middle" x="440" y="-585.68" font-family="FreeSans" font-size="10.00"> DummyTbl &gt;</text>
</a>
</g>
</g>
<!-- Node1&#45;&gt;Node22 -->
<g id="edge21" class="edge">
<title>Node1&#45;&gt;Node22</title>
<path fill="none" stroke="orange" stroke-dasharray="5,2" d="M69.23,-794.1C73.98,-753.15 91.22,-658.72 151,-615.68 218.96,-566.76 320.81,-572.3 383.42,-582.07"/>
<polygon fill="orange" stroke="orange" points="65.73,-793.84 68.19,-804.14 72.7,-794.55 65.73,-793.84"/>
<text text-anchor="middle" x="240.5" y="-618.68" font-family="FreeSans" font-size="10.00"> &lt; DummyTbl &gt;</text>
</g>
<!-- Node23 -->
<g id="node23" class="node">
<title>Node23</title>
<g id="a_node23"><a xlink:href="classDGtal_1_1CountedPtr.html" target="_top" xlink:title=" ">
<polygon fill="white" stroke="black" points="371,-529.68 371,-559.68 509,-559.68 509,-529.68 371,-529.68"/>
<text text-anchor="start" x="379" y="-547.68" font-family="FreeSans" font-size="10.00">DGtal::CountedPtr&lt;</text>
<text text-anchor="middle" x="440" y="-536.68" font-family="FreeSans" font-size="10.00"> DGtal::FunctorOnCells &gt;</text>
</a>
</g>
</g>
<!-- Node1&#45;&gt;Node23 -->
<g id="edge22" class="edge">
<title>Node1&#45;&gt;Node23</title>
<path fill="none" stroke="orange" stroke-dasharray="5,2" d="M67.12,-793.72C67.4,-744.51 75.72,-617.23 151,-559.68 216.04,-509.97 315.48,-517.64 378.84,-529.67"/>
<polygon fill="orange" stroke="orange" points="63.62,-793.99 67.18,-803.97 70.62,-793.95 63.62,-793.99"/>
<text text-anchor="middle" x="240.5" y="-562.68" font-family="FreeSans" font-size="10.00"> &lt; DGtal::FunctorOnCells &gt;</text>
</g>
<!-- Node24 -->
<g id="node24" class="node">
<title>Node24</title>
<g id="a_node24"><a xlink:href="classDGtal_1_1CountedPtr.html" target="_top" xlink:title=" ">
<polygon fill="white" stroke="black" points="382.5,-469.18 382.5,-510.18 497.5,-510.18 497.5,-469.18 382.5,-469.18"/>
<text text-anchor="start" x="390.5" y="-498.18" font-family="FreeSans" font-size="10.00">DGtal::CountedPtr&lt;</text>
<text text-anchor="start" x="390.5" y="-487.18" font-family="FreeSans" font-size="10.00"> DGtal::SignalData&lt;</text>
<text text-anchor="middle" x="440" y="-476.18" font-family="FreeSans" font-size="10.00"> TValue &gt; &gt;</text>
</a>
</g>
</g>
<!-- Node1&#45;&gt;Node24 -->
<g id="edge23" class="edge">
<title>Node1&#45;&gt;Node24</title>
<path fill="none" stroke="orange" stroke-dasharray="5,2" d="M69.6,-793.93C76.81,-730.28 102.81,-532.56 151,-494.68 185.6,-467.49 308.75,-475.33 382.34,-482.88"/>
<polygon fill="orange" stroke="orange" points="66.12,-793.55 68.51,-803.88 73.08,-794.32 66.12,-793.55"/>
<text text-anchor="start" x="189.5" y="-508.68" font-family="FreeSans" font-size="10.00"> &lt; DGtal::SignalData</text>
<text text-anchor="middle" x="240.5" y="-497.68" font-family="FreeSans" font-size="10.00">&lt; TValue &gt; &gt;</text>
</g>
<!-- Node25 -->
<g id="node25" class="node">
<title>Node25</title>
<g id="a_node25"><a xlink:href="classDGtal_1_1CountedPtr.html" target="_top" xlink:title=" ">
<polygon fill="white" stroke="black" points="350,-409.18 350,-450.18 530,-450.18 530,-409.18 350,-409.18"/>
<text text-anchor="start" x="358" y="-438.18" font-family="FreeSans" font-size="10.00">DGtal::CountedPtr&lt;</text>
<text text-anchor="start" x="358" y="-427.18" font-family="FreeSans" font-size="10.00"> DGtal::functors::PointFunctor</text>
<text text-anchor="middle" x="440" y="-416.18" font-family="FreeSans" font-size="10.00">FromPointPredicateAndDomain &gt;</text>
</a>
</g>
</g>
<!-- Node1&#45;&gt;Node25 -->
<g id="edge24" class="edge">
<title>Node1&#45;&gt;Node25</title>
<path fill="none" stroke="orange" stroke-dasharray="5,2" d="M68.81,-793.83C73.94,-723.06 95.15,-484.92 151,-438.68 209.96,-389.88 301.31,-396.2 365.28,-409.18"/>
<polygon fill="orange" stroke="orange" points="65.31,-793.81 68.1,-804.03 72.29,-794.3 65.31,-793.81"/>
<text text-anchor="start" x="162" y="-463.68" font-family="FreeSans" font-size="10.00"> &lt; DGtal::functors::</text>
<text text-anchor="start" x="162" y="-452.68" font-family="FreeSans" font-size="10.00">PointFunctorFromPointPredicate</text>
<text text-anchor="middle" x="240.5" y="-441.68" font-family="FreeSans" font-size="10.00">AndDomain &gt;</text>
</g>
<!-- Node26 -->
<g id="node26" class="node">
<title>Node26</title>
<g id="a_node26"><a xlink:href="classDGtal_1_1CountedPtr.html" target="_top" xlink:title=" ">
<polygon fill="white" stroke="black" points="383.5,-359.68 383.5,-389.68 496.5,-389.68 496.5,-359.68 383.5,-359.68"/>
<text text-anchor="start" x="391.5" y="-377.68" font-family="FreeSans" font-size="10.00">DGtal::CountedPtr&lt;</text>
<text text-anchor="middle" x="440" y="-366.68" font-family="FreeSans" font-size="10.00"> Point &gt;</text>
</a>
</g>
</g>
<!-- Node1&#45;&gt;Node26 -->
<g id="edge25" class="edge">
<title>Node1&#45;&gt;Node26</title>
<path fill="none" stroke="orange" stroke-dasharray="5,2" d="M68.24,-793.54C71.52,-716.05 87.6,-438.81 151,-384.68 217.11,-328.24 326.15,-343.81 389.39,-359.64"/>
<polygon fill="orange" stroke="orange" points="64.73,-793.71 67.83,-803.84 71.72,-793.99 64.73,-793.71"/>
<text text-anchor="middle" x="240.5" y="-387.68" font-family="FreeSans" font-size="10.00"> &lt; Point &gt;</text>
</g>
<!-- Node27 -->
<g id="node27" class="node">
<title>Node27</title>
<g id="a_node27"><a xlink:href="classDGtal_1_1CountedPtr.html" target="_top" xlink:title=" ">
<polygon fill="white" stroke="black" points="354,-310.68 354,-340.68 526,-340.68 526,-310.68 354,-310.68"/>
<text text-anchor="start" x="362" y="-328.68" font-family="FreeSans" font-size="10.00">DGtal::CountedPtr&lt;</text>
<text text-anchor="middle" x="440" y="-317.68" font-family="FreeSans" font-size="10.00"> DGtal::IndexedDigitalSurface &gt;</text>
</a>
</g>
</g>
<!-- Node1&#45;&gt;Node27 -->
<g id="edge26" class="edge">
<title>Node1&#45;&gt;Node27</title>
<path fill="none" stroke="orange" stroke-dasharray="5,2" d="M67.72,-793.66C69.09,-710.15 79.01,-391.17 151,-329.68 180.47,-304.51 279.83,-308.36 353.65,-315.31"/>
<polygon fill="orange" stroke="orange" points="64.22,-793.78 67.58,-803.83 71.22,-793.88 64.22,-793.78"/>
<text text-anchor="middle" x="240.5" y="-332.68" font-family="FreeSans" font-size="10.00"> &lt; DGtal::IndexedDigitalSurface &gt;</text>
</g>
<!-- Node28 -->
<g id="node28" class="node">
<title>Node28</title>
<g id="a_node28"><a xlink:href="classDGtal_1_1CountedPtr.html" target="_top" xlink:title=" ">
<polygon fill="white" stroke="black" points="381,-261.68 381,-291.68 499,-291.68 499,-261.68 381,-261.68"/>
<text text-anchor="start" x="389" y="-279.68" font-family="FreeSans" font-size="10.00">DGtal::CountedPtr&lt;</text>
<text text-anchor="middle" x="440" y="-268.68" font-family="FreeSans" font-size="10.00"> GeometricFunctor &gt;</text>
</a>
</g>
</g>
<!-- Node1&#45;&gt;Node28 -->
<g id="edge27" class="edge">
<title>Node1&#45;&gt;Node28</title>
<path fill="none" stroke="orange" stroke-dasharray="5,2" d="M67.54,-793.99C68.18,-707.57 75.48,-363.21 151,-294.68 213.52,-237.96 318.51,-248.11 382.97,-261.68"/>
<polygon fill="orange" stroke="orange" points="64.04,-794 67.49,-804.02 71.04,-794.04 64.04,-794"/>
<text text-anchor="middle" x="240.5" y="-297.68" font-family="FreeSans" font-size="10.00"> &lt; GeometricFunctor &gt;</text>
</g>
<!-- Node29 -->
<g id="node29" class="node">
<title>Node29</title>
<g id="a_node29"><a xlink:href="classDGtal_1_1CountedPtr.html" target="_top" xlink:title=" ">
<polygon fill="white" stroke="black" points="383.5,-212.68 383.5,-242.68 496.5,-242.68 496.5,-212.68 383.5,-212.68"/>
<text text-anchor="start" x="391.5" y="-230.68" font-family="FreeSans" font-size="10.00">DGtal::CountedPtr&lt;</text>
<text text-anchor="middle" x="440" y="-219.68" font-family="FreeSans" font-size="10.00"> Preimage &gt;</text>
</a>
</g>
</g>
<!-- Node1&#45;&gt;Node29 -->
<g id="edge28" class="edge">
<title>Node1&#45;&gt;Node29</title>
<path fill="none" stroke="orange" stroke-dasharray="5,2" d="M67.13,-793.79C65.87,-700.93 65.78,-311.58 151,-235.68 184.11,-206.2 309.43,-213.71 383.41,-221.12"/>
<polygon fill="orange" stroke="orange" points="63.63,-793.87 67.29,-803.81 70.63,-793.76 63.63,-793.87"/>
<text text-anchor="middle" x="240.5" y="-238.68" font-family="FreeSans" font-size="10.00"> &lt; Preimage &gt;</text>
</g>
<!-- Node30 -->
<g id="node30" class="node">
<title>Node30</title>
<g id="a_node30"><a xlink:href="classDGtal_1_1CountedPtr.html" target="_top" xlink:title=" ">
<polygon fill="white" stroke="black" points="352,-163.68 352,-193.68 528,-193.68 528,-163.68 352,-163.68"/>
<text text-anchor="start" x="360" y="-181.68" font-family="FreeSans" font-size="10.00">DGtal::CountedPtr&lt;</text>
<text text-anchor="middle" x="440" y="-170.68" font-family="FreeSans" font-size="10.00"> DGtal::DrawableWithBoard2D &gt;</text>
</a>
</g>
</g>
<!-- Node1&#45;&gt;Node30 -->
<g id="edge29" class="edge">
<title>Node1&#45;&gt;Node30</title>
<path fill="none" stroke="orange" stroke-dasharray="5,2" d="M68.73,-793.73C75.17,-692.67 106.32,-240.53 151,-198.68 212.28,-141.3 316.66,-150.45 381.51,-163.63"/>
<polygon fill="orange" stroke="orange" points="65.23,-793.61 68.1,-803.81 72.22,-794.05 65.23,-793.61"/>
<text text-anchor="middle" x="240.5" y="-201.68" font-family="FreeSans" font-size="10.00"> &lt; DGtal::DrawableWithBoard2D &gt;</text>
</g>
<!-- Node31 -->
<g id="node31" class="node">
<title>Node31</title>
<g id="a_node31"><a xlink:href="classDGtal_1_1CountedPtr.html" target="_top" xlink:title=" ">
<polygon fill="white" stroke="black" points="383.5,-114.68 383.5,-144.68 496.5,-144.68 496.5,-114.68 383.5,-114.68"/>
<text text-anchor="start" x="391.5" y="-132.68" font-family="FreeSans" font-size="10.00">DGtal::CountedPtr&lt;</text>
<text text-anchor="middle" x="440" y="-121.68" font-family="FreeSans" font-size="10.00"> DigitalTopology &gt;</text>
</a>
</g>
</g>
<!-- Node1&#45;&gt;Node31 -->
<g id="edge30" class="edge">
<title>Node1&#45;&gt;Node31</title>
<path fill="none" stroke="orange" stroke-dasharray="5,2" d="M68.45,-793.8C73.73,-686.96 101.13,-184.18 151,-138.68 183.75,-108.81 309.22,-115.99 383.31,-123.23"/>
<polygon fill="orange" stroke="orange" points="64.95,-793.7 67.96,-803.86 71.94,-794.04 64.95,-793.7"/>
<text text-anchor="middle" x="240.5" y="-141.68" font-family="FreeSans" font-size="10.00"> &lt; DigitalTopology &gt;</text>
</g>
<!-- Node32 -->
<g id="node32" class="node">
<title>Node32</title>
<g id="a_node32"><a xlink:href="classDGtal_1_1CountedPtr.html" target="_top" xlink:title=" ">
<polygon fill="white" stroke="black" points="382.5,-65.68 382.5,-95.68 497.5,-95.68 497.5,-65.68 382.5,-65.68"/>
<text text-anchor="start" x="390.5" y="-83.68" font-family="FreeSans" font-size="10.00">DGtal::CountedPtr&lt;</text>
<text text-anchor="middle" x="440" y="-72.68" font-family="FreeSans" font-size="10.00"> TImageContainer &gt;</text>
</a>
</g>
</g>
<!-- Node1&#45;&gt;Node32 -->
<g id="edge31" class="edge">
<title>Node1&#45;&gt;Node32</title>
<path fill="none" stroke="orange" stroke-dasharray="5,2" d="M68.35,-793.81C73.24,-683.63 99.43,-151.03 151,-101.68 212.03,-43.28 317.49,-52.66 382.45,-65.9"/>
<polygon fill="orange" stroke="orange" points="64.84,-793.98 67.9,-804.13 71.83,-794.29 64.84,-793.98"/>
<text text-anchor="middle" x="240.5" y="-104.68" font-family="FreeSans" font-size="10.00"> &lt; TImageContainer &gt;</text>
</g>
<!-- Node33 -->
<g id="node33" class="node">
<title>Node33</title>
<g id="a_node33"><a xlink:href="classDGtal_1_1CountedPtr.html" target="_top" xlink:title=" ">
<polygon fill="white" stroke="black" points="383.5,-16.68 383.5,-46.68 496.5,-46.68 496.5,-16.68 383.5,-16.68"/>
<text text-anchor="start" x="391.5" y="-34.68" font-family="FreeSans" font-size="10.00">DGtal::CountedPtr&lt;</text>
<text text-anchor="middle" x="440" y="-23.68" font-family="FreeSans" font-size="10.00"> Domain &gt;</text>
</a>
</g>
</g>
<!-- Node1&#45;&gt;Node33 -->
<g id="edge32" class="edge">
<title>Node1&#45;&gt;Node33</title>
<path fill="none" stroke="orange" stroke-dasharray="5,2" d="M68.12,-793.93C71.96,-678.49 94.08,-94.59 151,-41.68 215.77,18.52 328.39,0.36 391.91,-16.66"/>
<polygon fill="orange" stroke="orange" points="64.62,-794.01 67.79,-804.12 71.61,-794.24 64.62,-794.01"/>
<text text-anchor="middle" x="240.5" y="-44.68" font-family="FreeSans" font-size="10.00"> &lt; Domain &gt;</text>
</g>
</g>
</svg>
        <g id="navigator" transform="translate(0 0)" fill="#404254">
                <rect fill="#f2f5e9" fill-opacity="0.5" stroke="#606060" stroke-width=".5" x="0" y="0" width="60" height="60"/>
                <use id="zoomplus" xlink:href="#zoomPlus" x="17" y="9" onmousedown="handleZoom(evt,'in')"/>
                <use id="zoomminus" xlink:href="#zoomMin" x="42" y="9" onmousedown="handleZoom(evt,'out')"/>
                <use id="reset" xlink:href="#resetDef" x="30" y="36" onmousedown="handleReset()"/>
                <g id="arrowUp" xlink:href="#dirArrow" transform="translate(30 24)" onmousedown="handlePan(0,-1)">
                  <use xlink:href="#rim" fill="#404040">
                        <set attributeName="fill" to="#808080" begin="arrowUp.mouseover" end="arrowUp.mouseout"/>
                  </use>
                  <path fill="none" stroke="white" stroke-width="1.5" d="M0,-3.0v7 M-2.5,-0.5L0,-3.0L2.5,-0.5"/>
                </g>
                <g id="arrowRight" xlink:href="#dirArrow" transform="rotate(90) translate(36 -43)" onmousedown="handlePan(1,0)">
                  <use xlink:href="#rim" fill="#404040">
                        <set attributeName="fill" to="#808080" begin="arrowRight.mouseover" end="arrowRight.mouseout"/>
                  </use>
                  <path fill="none" stroke="white" stroke-width="1.5" d="M0,-3.0v7 M-2.5,-0.5L0,-3.0L2.5,-0.5"/>
                </g>
                <g id="arrowDown" xlink:href="#dirArrow" transform="rotate(180) translate(-30 -48)" onmousedown="handlePan(0,1)">
                  <use xlink:href="#rim" fill="#404040">
                        <set attributeName="fill" to="#808080" begin="arrowDown.mouseover" end="arrowDown.mouseout"/>
                  </use>
                  <path fill="none" stroke="white" stroke-width="1.5" d="M0,-3.0v7 M-2.5,-0.5L0,-3.0L2.5,-0.5"/>
                </g>
                <g id="arrowLeft" xlink:href="#dirArrow" transform="rotate(270) translate(-36 17)" onmousedown="handlePan(-1,0)">
                  <use xlink:href="#rim" fill="#404040">
                        <set attributeName="fill" to="#808080" begin="arrowLeft.mouseover" end="arrowLeft.mouseout"/>
                  </use>
                  <path fill="none" stroke="white" stroke-width="1.5" d="M0,-3.0v7 M-2.5,-0.5L0,-3.0L2.5,-0.5"/>
                </g>
        </g>
        <svg viewBox="0 0 15 15" width="100%" height="30px" preserveAspectRatio="xMaxYMin meet">
         <g id="arrow_out" transform="scale(0.3 0.3)">
          <a xlink:href="classDGtal_1_1CountedPtr__inherit__graph_org.svg" target="_base">
           <rect id="button" ry="5" rx="5" y="6" x="6" height="38" width="38"
                fill="#f2f5e9" fill-opacity="0.5" stroke="#606060" stroke-width="1.0"/>
           <path id="arrow"
             d="M 11.500037,31.436501 C 11.940474,20.09759 22.043105,11.32322 32.158766,21.979434 L 37.068811,17.246167 C 37.068811,17.246167 37.088388,32 37.088388,32 L 22.160133,31.978069 C 22.160133,31.978069 26.997745,27.140456 26.997745,27.140456 C 18.528582,18.264221 13.291696,25.230495 11.500037,31.436501 z"
             style="fill:#404040;"/>
          </a>
         </g>
        </svg>
</svg>
