<?xml version="1.0" encoding="UTF-8" standalone="no"?>
<!DOCTYPE svg PUBLIC "-//W3C//DTD SVG 1.1//EN"
 "http://www.w3.org/Graphics/SVG/1.1/DTD/svg11.dtd">
<!-- Generated by graphviz version 2.43.0 (0)
 -->
<!-- Title: DGtal::CowPtr&lt; T &gt; Pages: 1 -->
<!--zoomable 568 -->
<svg id="main" version="1.1" xmlns="http://www.w3.org/2000/svg" xmlns:xlink="http://www.w3.org/1999/xlink" xml:space="preserve" onload="init(evt)">
<style type="text/css"><![CDATA[
.edge:hover path { stroke: red; }
.edge:hover polygon { stroke: red; fill: red; }
]]></style>
<script type="text/javascript"><![CDATA[
var edges = document.getElementsByTagName('g');
if (edges && edges.length) {
  for (var i=0;i<edges.length;i++) {
    if (edges[i].id.substr(0,4)=='edge') {
      edges[i].setAttribute('class','edge');
    }
  }
}
]]></script>
        <defs>
                <circle id="rim" cx="0" cy="0" r="7"/>
                <circle id="rim2" cx="0" cy="0" r="3.5"/>
                <g id="zoomPlus">
                        <use xlink:href="#rim" fill="#404040">
                                <set attributeName="fill" to="#808080" begin="zoomplus.mouseover" end="zoomplus.mouseout"/>
                        </use>
                        <path d="M-4,0h8M0,-4v8" fill="none" stroke="white" stroke-width="1.5" pointer-events="none"/>
                </g>
                <g id="zoomMin">
                        <use xlink:href="#rim" fill="#404040">
                                <set attributeName="fill" to="#808080" begin="zoomminus.mouseover" end="zoomminus.mouseout"/>
                        </use>
                        <path d="M-4,0h8" fill="none" stroke="white" stroke-width="1.5" pointer-events="none"/>
                </g>
                <g id="dirArrow">
                        <path fill="none" stroke="white" stroke-width="1.5" d="M0,-3.0v7 M-2.5,-0.5L0,-3.0L2.5,-0.5"/>
                </g>
               <g id="resetDef">
                       <use xlink:href="#rim2" fill="#404040">
                               <set attributeName="fill" to="#808080" begin="reset.mouseover" end="reset.mouseout"/>
                       </use>
               </g>
        </defs>

<script type="text/javascript">
var viewWidth = 474;
var viewHeight = 568;
var sectionId = 'dynsection-0';
</script>
<script xlink:href="svgpan.js"/>
<svg id="graph" class="graph">
<g id="viewport">
<title>DGtal::CowPtr&lt; T &gt;</title>
<polygon fill="white" stroke="transparent" points="-4,4 -4,-563.56 470,-563.56 470,4 -4,4"/>
<!-- Node1 -->
<g id="node1" class="node">
<title>Node1</title>
<g id="a_node1"><a xlink:title="Aim: Copy on write shared pointer.">
<polygon fill="#bfbfbf" stroke="black" points="0,-261.06 0,-280.06 113,-280.06 113,-261.06 0,-261.06"/>
<text text-anchor="middle" x="56.5" y="-268.06" font-family="FreeSans" font-size="10.00">DGtal::CowPtr&lt; T &gt;</text>
</a>
</g>
</g>
<!-- Node2 -->
<g id="node2" class="node">
<title>Node2</title>
<g id="a_node2"><a xlink:href="classDGtal_1_1CowPtr.html" target="_top" xlink:title=" ">
<polygon fill="white" stroke="black" points="309.5,-519.56 309.5,-549.56 431.5,-549.56 431.5,-519.56 309.5,-519.56"/>
<text text-anchor="start" x="317.5" y="-537.56" font-family="FreeSans" font-size="10.00">DGtal::CowPtr&lt; const</text>
<text text-anchor="middle" x="370.5" y="-526.56" font-family="FreeSans" font-size="10.00"> Domain &gt;</text>
</a>
</g>
</g>
<!-- Node1&#45;&gt;Node2 -->
<g id="edge1" class="edge">
<title>Node1&#45;&gt;Node2</title>
<path fill="none" stroke="orange" stroke-dasharray="5,2" d="M56.81,-290.19C56.33,-337 62.33,-455.41 131,-511.56 180.51,-552.05 256.58,-552.2 309.45,-545.86"/>
<polygon fill="orange" stroke="orange" points="60.31,-290.23 57.02,-280.15 53.31,-290.07 60.31,-290.23"/>
<text text-anchor="middle" x="194" y="-551.56" font-family="FreeSans" font-size="10.00"> &lt; const Domain &gt;</text>
</g>
<!-- Node3 -->
<g id="node3" class="node">
<title>Node3</title>
<g id="a_node3"><a xlink:href="classDGtal_1_1CowPtr.html" target="_top" xlink:title=" ">
<polygon fill="white" stroke="black" points="289.5,-470.56 289.5,-500.56 451.5,-500.56 451.5,-470.56 289.5,-470.56"/>
<text text-anchor="start" x="297.5" y="-488.56" font-family="FreeSans" font-size="10.00">DGtal::CowPtr&lt; StabbingLine</text>
<text text-anchor="middle" x="370.5" y="-477.56" font-family="FreeSans" font-size="10.00">Computer&lt; ConstIterator &gt; &gt;</text>
</a>
</g>
</g>
<!-- Node1&#45;&gt;Node3 -->
<g id="edge2" class="edge">
<title>Node1&#45;&gt;Node3</title>
<path fill="none" stroke="orange" stroke-dasharray="5,2" d="M58.49,-290.33C61.67,-330.41 75,-421.04 131,-463.56 155.26,-481.98 229.86,-486.52 289.24,-487.04"/>
<polygon fill="orange" stroke="orange" points="61.98,-289.99 57.83,-280.24 54.99,-290.44 61.98,-289.99"/>
<text text-anchor="start" x="131" y="-499.56" font-family="FreeSans" font-size="10.00"> &lt; StabbingLineComputer</text>
<text text-anchor="middle" x="194" y="-488.56" font-family="FreeSans" font-size="10.00">&lt; ConstIterator &gt; &gt;</text>
</g>
<!-- Node4 -->
<g id="node4" class="node">
<title>Node4</title>
<g id="a_node4"><a xlink:href="classDGtal_1_1CowPtr.html" target="_top" xlink:title=" ">
<polygon fill="white" stroke="black" points="310.5,-432.06 310.5,-451.06 430.5,-451.06 430.5,-432.06 310.5,-432.06"/>
<text text-anchor="middle" x="370.5" y="-439.06" font-family="FreeSans" font-size="10.00">DGtal::CowPtr&lt; A1 &gt;</text>
</a>
</g>
</g>
<!-- Node1&#45;&gt;Node4 -->
<g id="edge3" class="edge">
<title>Node1&#45;&gt;Node4</title>
<path fill="none" stroke="orange" stroke-dasharray="5,2" d="M61.29,-290.42C68.58,-322.64 87.81,-385.69 131,-415.56 183.5,-451.87 258.61,-454.02 310.45,-449.9"/>
<polygon fill="orange" stroke="orange" points="64.67,-289.49 59.19,-280.42 57.82,-290.92 64.67,-289.49"/>
<text text-anchor="middle" x="194" y="-453.56" font-family="FreeSans" font-size="10.00"> &lt; A1 &gt;</text>
</g>
<!-- Node5 -->
<g id="node5" class="node">
<title>Node5</title>
<g id="a_node5"><a xlink:href="classDGtal_1_1CowPtr.html" target="_top" xlink:title=" ">
<polygon fill="white" stroke="black" points="302,-382.56 302,-412.56 439,-412.56 439,-382.56 302,-382.56"/>
<text text-anchor="start" x="310" y="-400.56" font-family="FreeSans" font-size="10.00">DGtal::CowPtr&lt; DGtal</text>
<text text-anchor="middle" x="370.5" y="-389.56" font-family="FreeSans" font-size="10.00">::SignalData&lt; Value &gt; &gt;</text>
</a>
</g>
</g>
<!-- Node1&#45;&gt;Node5 -->
<g id="edge4" class="edge">
<title>Node1&#45;&gt;Node5</title>
<path fill="none" stroke="orange" stroke-dasharray="5,2" d="M66.24,-289.2C77.73,-311.42 100.13,-347.77 131,-365.56 159.28,-381.86 241.89,-390.18 301.97,-394.19"/>
<polygon fill="orange" stroke="orange" points="69.31,-287.51 61.74,-280.1 63.04,-290.62 69.31,-287.51"/>
<text text-anchor="start" x="143" y="-403.56" font-family="FreeSans" font-size="10.00"> &lt; DGtal::SignalData</text>
<text text-anchor="middle" x="194" y="-392.56" font-family="FreeSans" font-size="10.00">&lt; Value &gt; &gt;</text>
</g>
<!-- Node6 -->
<g id="node6" class="node">
<title>Node6</title>
<g id="a_node6"><a xlink:href="classDGtal_1_1CowPtr.html" target="_top" xlink:title=" ">
<polygon fill="white" stroke="black" points="293,-344.06 293,-363.06 448,-363.06 448,-344.06 293,-344.06"/>
<text text-anchor="middle" x="370.5" y="-351.06" font-family="FreeSans" font-size="10.00">DGtal::CowPtr&lt; DigitalSet &gt;</text>
</a>
</g>
</g>
<!-- Node1&#45;&gt;Node6 -->
<g id="edge5" class="edge">
<title>Node1&#45;&gt;Node6</title>
<path fill="none" stroke="orange" stroke-dasharray="5,2" d="M74.32,-286.89C88.3,-299.42 109.34,-315.98 131,-324.56 182.57,-345 244.93,-352.03 292.95,-354.06"/>
<polygon fill="orange" stroke="orange" points="76.67,-284.3 66.96,-280.07 71.92,-289.44 76.67,-284.3"/>
<text text-anchor="middle" x="194" y="-353.56" font-family="FreeSans" font-size="10.00"> &lt; DigitalSet &gt;</text>
</g>
<!-- Node7 -->
<g id="node7" class="node">
<title>Node7</title>
<g id="a_node7"><a xlink:href="classDGtal_1_1CowPtr.html" target="_top" xlink:title=" ">
<polygon fill="white" stroke="black" points="290,-306.06 290,-325.06 451,-325.06 451,-306.06 290,-306.06"/>
<text text-anchor="middle" x="370.5" y="-313.06" font-family="FreeSans" font-size="10.00">DGtal::CowPtr&lt; DummyTbl &gt;</text>
</a>
</g>
</g>
<!-- Node1&#45;&gt;Node7 -->
<g id="edge6" class="edge">
<title>Node1&#45;&gt;Node7</title>
<path fill="none" stroke="orange" stroke-dasharray="5,2" d="M92.96,-283.32C104.91,-287.17 118.4,-291.04 131,-293.56 183.39,-304.05 243.28,-309.55 289.94,-312.43"/>
<polygon fill="orange" stroke="orange" points="93.94,-279.95 83.34,-280.12 91.73,-286.6 93.94,-279.95"/>
<text text-anchor="middle" x="194" y="-312.56" font-family="FreeSans" font-size="10.00"> &lt; DummyTbl &gt;</text>
</g>
<!-- Node8 -->
<g id="node8" class="node">
<title>Node8</title>
<g id="a_node8"><a xlink:href="classDGtal_1_1CowPtr.html" target="_top" xlink:title=" ">
<polygon fill="white" stroke="black" points="299,-256.56 299,-286.56 442,-286.56 442,-256.56 299,-256.56"/>
<text text-anchor="start" x="307" y="-274.56" font-family="FreeSans" font-size="10.00">DGtal::CowPtr&lt; DGtal</text>
<text text-anchor="middle" x="370.5" y="-263.56" font-family="FreeSans" font-size="10.00">::SignalData&lt; TValue &gt; &gt;</text>
</a>
</g>
</g>
<!-- Node1&#45;&gt;Node8 -->
<g id="edge7" class="edge">
<title>Node1&#45;&gt;Node8</title>
<path fill="none" stroke="orange" stroke-dasharray="5,2" d="M123.3,-270.77C174.77,-270.93 246.2,-271.16 298.87,-271.33"/>
<polygon fill="orange" stroke="orange" points="123.29,-267.27 113.28,-270.74 123.27,-274.27 123.29,-267.27"/>
<text text-anchor="start" x="143" y="-284.56" font-family="FreeSans" font-size="10.00"> &lt; DGtal::SignalData</text>
<text text-anchor="middle" x="194" y="-273.56" font-family="FreeSans" font-size="10.00">&lt; TValue &gt; &gt;</text>
</g>
<!-- Node9 -->
<g id="node9" class="node">
<title>Node9</title>
<g id="a_node9"><a xlink:href="classDGtal_1_1CowPtr.html" target="_top" xlink:title=" ">
<polygon fill="white" stroke="black" points="304.5,-218.06 304.5,-237.06 436.5,-237.06 436.5,-218.06 304.5,-218.06"/>
<text text-anchor="middle" x="370.5" y="-225.06" font-family="FreeSans" font-size="10.00">DGtal::CowPtr&lt; Point &gt;</text>
</a>
</g>
</g>
<!-- Node1&#45;&gt;Node9 -->
<g id="edge8" class="edge">
<title>Node1&#45;&gt;Node9</title>
<path fill="none" stroke="orange" stroke-dasharray="5,2" d="M111.51,-259C118.06,-257.75 124.67,-256.57 131,-255.56 189.35,-246.2 256.21,-238.62 304.26,-233.72"/>
<polygon fill="orange" stroke="orange" points="110.45,-255.64 101.31,-260.99 111.79,-262.51 110.45,-255.64"/>
<text text-anchor="middle" x="194" y="-258.56" font-family="FreeSans" font-size="10.00"> &lt; Point &gt;</text>
</g>
<!-- Node10 -->
<g id="node10" class="node">
<title>Node10</title>
<g id="a_node10"><a xlink:href="classDGtal_1_1CowPtr.html" target="_top" xlink:title=" ">
<polygon fill="white" stroke="black" points="297,-168.56 297,-198.56 444,-198.56 444,-168.56 297,-168.56"/>
<text text-anchor="start" x="305" y="-186.56" font-family="FreeSans" font-size="10.00">DGtal::CowPtr&lt; Geometric</text>
<text text-anchor="middle" x="370.5" y="-175.56" font-family="FreeSans" font-size="10.00">Functor &gt;</text>
</a>
</g>
</g>
<!-- Node1&#45;&gt;Node10 -->
<g id="edge9" class="edge">
<title>Node1&#45;&gt;Node10</title>
<path fill="none" stroke="orange" stroke-dasharray="5,2" d="M77.17,-254.85C91.34,-244.35 111.34,-231.13 131,-223.56 184.38,-203 248.5,-193 296.81,-188.13"/>
<polygon fill="orange" stroke="orange" points="75,-252.11 69.17,-260.96 79.24,-257.68 75,-252.11"/>
<text text-anchor="middle" x="194" y="-226.56" font-family="FreeSans" font-size="10.00"> &lt; GeometricFunctor &gt;</text>
</g>
<!-- Node11 -->
<g id="node11" class="node">
<title>Node11</title>
<g id="a_node11"><a xlink:href="classDGtal_1_1CowPtr.html" target="_top" xlink:title=" ">
<polygon fill="white" stroke="black" points="293.5,-130.06 293.5,-149.06 447.5,-149.06 447.5,-130.06 293.5,-130.06"/>
<text text-anchor="middle" x="370.5" y="-137.06" font-family="FreeSans" font-size="10.00">DGtal::CowPtr&lt; Preimage &gt;</text>
</a>
</g>
</g>
<!-- Node1&#45;&gt;Node11 -->
<g id="edge10" class="edge">
<title>Node1&#45;&gt;Node11</title>
<path fill="none" stroke="orange" stroke-dasharray="5,2" d="M67,-251.7C78.88,-230.24 101.3,-195.94 131,-178.56 180.07,-149.85 244.01,-140.6 293.33,-138.26"/>
<polygon fill="orange" stroke="orange" points="63.77,-250.33 62.17,-260.81 69.95,-253.61 63.77,-250.33"/>
<text text-anchor="middle" x="194" y="-181.56" font-family="FreeSans" font-size="10.00"> &lt; Preimage &gt;</text>
</g>
<!-- Node12 -->
<g id="node12" class="node">
<title>Node12</title>
<g id="a_node12"><a xlink:href="classDGtal_1_1CowPtr.html" target="_top" xlink:title=" ">
<polygon fill="white" stroke="black" points="279,-92.06 279,-111.06 462,-111.06 462,-92.06 279,-92.06"/>
<text text-anchor="middle" x="370.5" y="-99.06" font-family="FreeSans" font-size="10.00">DGtal::CowPtr&lt; DigitalTopology &gt;</text>
</a>
</g>
</g>
<!-- Node1&#45;&gt;Node12 -->
<g id="edge11" class="edge">
<title>Node1&#45;&gt;Node12</title>
<path fill="none" stroke="orange" stroke-dasharray="5,2" d="M61.26,-250.65C68.51,-218.38 87.69,-155.25 131,-125.56 181.28,-91.09 252.12,-88.21 303.52,-92.05"/>
<polygon fill="orange" stroke="orange" points="57.79,-250.17 59.18,-260.68 64.64,-251.6 57.79,-250.17"/>
<text text-anchor="middle" x="194" y="-128.56" font-family="FreeSans" font-size="10.00"> &lt; DigitalTopology &gt;</text>
</g>
<!-- Node13 -->
<g id="node13" class="node">
<title>Node13</title>
<g id="a_node13"><a xlink:href="classDGtal_1_1CowPtr.html" target="_top" xlink:title=" ">
<polygon fill="white" stroke="black" points="275,-54.06 275,-73.06 466,-73.06 466,-54.06 275,-54.06"/>
<text text-anchor="middle" x="370.5" y="-61.06" font-family="FreeSans" font-size="10.00">DGtal::CowPtr&lt; TImageContainer &gt;</text>
</a>
</g>
</g>
<!-- Node1&#45;&gt;Node13 -->
<g id="edge12" class="edge">
<title>Node1&#45;&gt;Node13</title>
<path fill="none" stroke="orange" stroke-dasharray="5,2" d="M58.26,-250.66C61,-209.95 73.56,-117.46 131,-75.56 190.45,-32.19 282.12,-43.19 332.75,-54.02"/>
<polygon fill="orange" stroke="orange" points="54.76,-250.51 57.72,-260.68 61.75,-250.89 54.76,-250.51"/>
<text text-anchor="middle" x="194" y="-78.56" font-family="FreeSans" font-size="10.00"> &lt; TImageContainer &gt;</text>
</g>
<!-- Node14 -->
<g id="node14" class="node">
<title>Node14</title>
<g id="a_node14"><a xlink:href="classDGtal_1_1CowPtr.html" target="_top" xlink:title=" ">
<polygon fill="white" stroke="black" points="297.5,-16.06 297.5,-35.06 443.5,-35.06 443.5,-16.06 297.5,-16.06"/>
<text text-anchor="middle" x="370.5" y="-23.06" font-family="FreeSans" font-size="10.00">DGtal::CowPtr&lt; Domain &gt;</text>
</a>
</g>
</g>
<!-- Node1&#45;&gt;Node14 -->
<g id="edge13" class="edge">
<title>Node1&#45;&gt;Node14</title>
<path fill="none" stroke="orange" stroke-dasharray="5,2" d="M60.48,-251.02C68.91,-198.59 94.71,-56.9 131,-29.56 192.68,16.92 291.07,-2.2 339.95,-16.01"/>
<polygon fill="orange" stroke="orange" points="57,-250.62 58.91,-261.04 63.92,-251.7 57,-250.62"/>
<text text-anchor="middle" x="194" y="-32.56" font-family="FreeSans" font-size="10.00"> &lt; Domain &gt;</text>
</g>
</g>
</svg>
        <g id="navigator" transform="translate(0 0)" fill="#404254">
                <rect fill="#f2f5e9" fill-opacity="0.5" stroke="#606060" stroke-width=".5" x="0" y="0" width="60" height="60"/>
                <use id="zoomplus" xlink:href="#zoomPlus" x="17" y="9" onmousedown="handleZoom(evt,'in')"/>
                <use id="zoomminus" xlink:href="#zoomMin" x="42" y="9" onmousedown="handleZoom(evt,'out')"/>
                <use id="reset" xlink:href="#resetDef" x="30" y="36" onmousedown="handleReset()"/>
                <g id="arrowUp" xlink:href="#dirArrow" transform="translate(30 24)" onmousedown="handlePan(0,-1)">
                  <use xlink:href="#rim" fill="#404040">
                        <set attributeName="fill" to="#808080" begin="arrowUp.mouseover" end="arrowUp.mouseout"/>
                  </use>
                  <path fill="none" stroke="white" stroke-width="1.5" d="M0,-3.0v7 M-2.5,-0.5L0,-3.0L2.5,-0.5"/>
                </g>
                <g id="arrowRight" xlink:href="#dirArrow" transform="rotate(90) translate(36 -43)" onmousedown="handlePan(1,0)">
                  <use xlink:href="#rim" fill="#404040">
                        <set attributeName="fill" to="#808080" begin="arrowRight.mouseover" end="arrowRight.mouseout"/>
                  </use>
                  <path fill="none" stroke="white" stroke-width="1.5" d="M0,-3.0v7 M-2.5,-0.5L0,-3.0L2.5,-0.5"/>
                </g>
                <g id="arrowDown" xlink:href="#dirArrow" transform="rotate(180) translate(-30 -48)" onmousedown="handlePan(0,1)">
                  <use xlink:href="#rim" fill="#404040">
                        <set attributeName="fill" to="#808080" begin="arrowDown.mouseover" end="arrowDown.mouseout"/>
                  </use>
                  <path fill="none" stroke="white" stroke-width="1.5" d="M0,-3.0v7 M-2.5,-0.5L0,-3.0L2.5,-0.5"/>
                </g>
                <g id="arrowLeft" xlink:href="#dirArrow" transform="rotate(270) translate(-36 17)" onmousedown="handlePan(-1,0)">
                  <use xlink:href="#rim" fill="#404040">
                        <set attributeName="fill" to="#808080" begin="arrowLeft.mouseover" end="arrowLeft.mouseout"/>
                  </use>
                  <path fill="none" stroke="white" stroke-width="1.5" d="M0,-3.0v7 M-2.5,-0.5L0,-3.0L2.5,-0.5"/>
                </g>
        </g>
        <svg viewBox="0 0 15 15" width="100%" height="30px" preserveAspectRatio="xMaxYMin meet">
         <g id="arrow_out" transform="scale(0.3 0.3)">
          <a xlink:href="classDGtal_1_1CowPtr__inherit__graph_org.svg" target="_base">
           <rect id="button" ry="5" rx="5" y="6" x="6" height="38" width="38"
                fill="#f2f5e9" fill-opacity="0.5" stroke="#606060" stroke-width="1.0"/>
           <path id="arrow"
             d="M 11.500037,31.436501 C 11.940474,20.09759 22.043105,11.32322 32.158766,21.979434 L 37.068811,17.246167 C 37.068811,17.246167 37.088388,32 37.088388,32 L 22.160133,31.978069 C 22.160133,31.978069 26.997745,27.140456 26.997745,27.140456 C 18.528582,18.264221 13.291696,25.230495 11.500037,31.436501 z"
             style="fill:#404040;"/>
          </a>
         </g>
        </svg>
</svg>
