<?xml version="1.0" encoding="UTF-8" standalone="no"?>
<!DOCTYPE svg PUBLIC "-//W3C//DTD SVG 1.1//EN"
 "http://www.w3.org/Graphics/SVG/1.1/DTD/svg11.dtd">
<!-- Generated by graphviz version 2.43.0 (0)
 -->
<!-- Title: DGtal::detail::CurvatureFromDSSBaseEstimator&lt; DSSComputer, Functor &gt; Pages: 1 -->
<svg width="737pt" height="130pt"
 viewBox="0.00 0.00 737.00 130.00" xmlns="http://www.w3.org/2000/svg" xmlns:xlink="http://www.w3.org/1999/xlink">
<g id="graph0" class="graph" transform="scale(1 1) rotate(0) translate(4 126)">
<title>DGtal::detail::CurvatureFromDSSBaseEstimator&lt; DSSComputer, Functor &gt;</title>
<!-- Node1 -->
<g id="Node000001" class="node">
<title>Node1</title>
<g id="a_Node000001"><a xlink:title=" ">
<polygon fill="#999999" stroke="#666666" points="140,-80.5 0,-80.5 0,-39.5 140,-39.5 140,-80.5"/>
<text text-anchor="start" x="8" y="-68.5" font-family="FreeSans" font-size="10.00">DGtal::detail::Curvature</text>
<text text-anchor="start" x="8" y="-57.5" font-family="FreeSans" font-size="10.00">FromDSSBaseEstimator&lt;</text>
<text text-anchor="middle" x="70" y="-46.5" font-family="FreeSans" font-size="10.00"> DSSComputer, Functor &gt;</text>
</a>
</g>
</g>
<!-- Node2 -->
<g id="Node000002" class="node">
<title>Node2</title>
<g id="a_Node000002"><a xlink:href="classDGtal_1_1detail_1_1CurvatureFromDSSBaseEstimator.html" target="_top" xlink:title=" ">
<polygon fill="white" stroke="#666666" points="502,-122 327,-122 327,-70 502,-70 502,-122"/>
<text text-anchor="start" x="335" y="-110" font-family="FreeSans" font-size="10.00">DGtal::detail::Curvature</text>
<text text-anchor="start" x="335" y="-99" font-family="FreeSans" font-size="10.00">FromDSSBaseEstimator&lt;</text>
<text text-anchor="start" x="335" y="-88" font-family="FreeSans" font-size="10.00"> DSSComputer, detail::Curvature</text>
<text text-anchor="middle" x="414.5" y="-77" font-family="FreeSans" font-size="10.00">FromDSSLengthAndWidth &gt;</text>
</a>
</g>
</g>
<!-- Node1&#45;&gt;Node2 -->
<g id="edge1_Node000001_Node000002" class="edge">
<title>Node1&#45;&gt;Node2</title>
<g id="a_edge1_Node000001_Node000002"><a xlink:title=" ">
<path fill="none" stroke="orange" stroke-dasharray="5,2" d="M150.32,-68.34C203.18,-73.89 272.66,-81.2 326.95,-86.9"/>
<polygon fill="orange" stroke="orange" points="150.62,-64.85 140.31,-67.29 149.89,-71.81 150.62,-64.85"/>
</a>
</g>
<text text-anchor="start" x="158" y="-109" font-family="FreeSans" font-size="10.00" fill="grey"> &lt; DSSComputer, detail</text>
<text text-anchor="start" x="158" y="-98" font-family="FreeSans" font-size="10.00" fill="grey">::CurvatureFromDSSLengthAnd</text>
<text text-anchor="middle" x="233.5" y="-87" font-family="FreeSans" font-size="10.00" fill="grey">Width &gt;</text>
</g>
<!-- Node4 -->
<g id="Node000004" class="node">
<title>Node4</title>
<g id="a_Node000004"><a xlink:href="classDGtal_1_1detail_1_1CurvatureFromDSSBaseEstimator.html" target="_top" xlink:title=" ">
<polygon fill="white" stroke="#666666" points="502,-52 327,-52 327,0 502,0 502,-52"/>
<text text-anchor="start" x="335" y="-40" font-family="FreeSans" font-size="10.00">DGtal::detail::Curvature</text>
<text text-anchor="start" x="335" y="-29" font-family="FreeSans" font-size="10.00">FromDSSBaseEstimator&lt;</text>
<text text-anchor="start" x="335" y="-18" font-family="FreeSans" font-size="10.00"> DSSComputer, detail::Curvature</text>
<text text-anchor="middle" x="414.5" y="-7" font-family="FreeSans" font-size="10.00">FromDSSLength &gt;</text>
</a>
</g>
</g>
<!-- Node1&#45;&gt;Node4 -->
<g id="edge3_Node000001_Node000004" class="edge">
<title>Node1&#45;&gt;Node4</title>
<g id="a_edge3_Node000001_Node000004"><a xlink:title=" ">
<path fill="none" stroke="orange" stroke-dasharray="5,2" d="M150.31,-46C152.9,-45.65 155.47,-45.31 158,-45 214.07,-38.1 277.39,-33.37 326.96,-30.35"/>
<polygon fill="orange" stroke="orange" points="149.64,-42.56 140.24,-47.44 150.64,-49.49 149.64,-42.56"/>
</a>
</g>
<text text-anchor="start" x="162" y="-59" font-family="FreeSans" font-size="10.00" fill="grey"> &lt; DSSComputer, detail</text>
<text text-anchor="middle" x="233.5" y="-48" font-family="FreeSans" font-size="10.00" fill="grey">::CurvatureFromDSSLength &gt;</text>
</g>
<!-- Node3 -->
<g id="Node000003" class="node">
<title>Node3</title>
<g id="a_Node000003"><a xlink:href="classDGtal_1_1CurvatureFromDSSEstimator.html" target="_top" xlink:title=" ">
<polygon fill="white" stroke="#666666" points="729,-111 539,-111 539,-81 729,-81 729,-111"/>
<text text-anchor="start" x="547" y="-99" font-family="FreeSans" font-size="10.00">DGtal::CurvatureFromDSSEstimator</text>
<text text-anchor="middle" x="634" y="-88" font-family="FreeSans" font-size="10.00">&lt; DSSComputer &gt;</text>
</a>
</g>
</g>
<!-- Node2&#45;&gt;Node3 -->
<g id="edge2_Node000002_Node000003" class="edge">
<title>Node2&#45;&gt;Node3</title>
<g id="a_edge2_Node000002_Node000003"><a xlink:title=" ">
<path fill="none" stroke="#63b8ff" d="M512.36,-96C521.16,-96 530.07,-96 538.85,-96"/>
<polygon fill="#63b8ff" stroke="#63b8ff" points="512.09,-92.5 502.09,-96 512.09,-99.5 512.09,-92.5"/>
</a>
</g>
</g>
<!-- Node5 -->
<g id="Node000005" class="node">
<title>Node5</title>
<g id="a_Node000005"><a xlink:href="classDGtal_1_1CurvatureFromDSSLengthEstimator.html" target="_top" xlink:title=" ">
<polygon fill="white" stroke="#666666" points="722,-41 546,-41 546,-11 722,-11 722,-41"/>
<text text-anchor="start" x="554" y="-29" font-family="FreeSans" font-size="10.00">DGtal::CurvatureFromDSSLength</text>
<text text-anchor="middle" x="634" y="-18" font-family="FreeSans" font-size="10.00">Estimator&lt; DSSComputer &gt;</text>
</a>
</g>
</g>
<!-- Node4&#45;&gt;Node5 -->
<g id="edge4_Node000004_Node000005" class="edge">
<title>Node4&#45;&gt;Node5</title>
<g id="a_edge4_Node000004_Node000005"><a xlink:title=" ">
<path fill="none" stroke="#63b8ff" d="M512.24,-26C523.36,-26 534.66,-26 545.64,-26"/>
<polygon fill="#63b8ff" stroke="#63b8ff" points="512.09,-22.5 502.09,-26 512.09,-29.5 512.09,-22.5"/>
</a>
</g>
</g>
</g>
</svg>
