<?xml version="1.0" encoding="UTF-8" standalone="no"?>
<!DOCTYPE svg PUBLIC "-//W3C//DTD SVG 1.1//EN"
 "http://www.w3.org/Graphics/SVG/1.1/DTD/svg11.dtd">
<!-- Generated by graphviz version 2.43.0 (0)
 -->
<!-- Title: DGtal::detail::PosDepScaleDepSCEstimator&lt; TSegmentComputer, Functor, ReturnType &gt; Pages: 1 -->
<svg width="230pt" height="215pt"
 viewBox="0.00 0.00 230.00 215.00" xmlns="http://www.w3.org/2000/svg" xmlns:xlink="http://www.w3.org/1999/xlink">
<g id="graph0" class="graph" transform="scale(1 1) rotate(0) translate(4 211)">
<title>DGtal::detail::PosDepScaleDepSCEstimator&lt; TSegmentComputer, Functor, ReturnType &gt;</title>
<!-- Node1 -->
<g id="Node000001" class="node">
<title>Node1</title>
<g id="a_Node000001"><a xlink:title=" ">
<polygon fill="#999999" stroke="#666666" points="208,-207 0,-207 0,-166 208,-166 208,-207"/>
<text text-anchor="start" x="8" y="-195" font-family="FreeSans" font-size="10.00">DGtal::detail::PosDepScale</text>
<text text-anchor="start" x="8" y="-184" font-family="FreeSans" font-size="10.00">DepSCEstimator&lt; TSegmentComputer,</text>
<text text-anchor="middle" x="104" y="-173" font-family="FreeSans" font-size="10.00"> Functor, ReturnType &gt;</text>
</a>
</g>
</g>
<!-- Node2 -->
<g id="Node000002" class="node">
<title>Node2</title>
<g id="a_Node000002"><a xlink:href="classDGtal_1_1detail_1_1PosDepScaleDepSCEstimator.html" target="_top" xlink:title=" ">
<polygon fill="white" stroke="#666666" points="193.5,-108 14.5,-108 14.5,-67 193.5,-67 193.5,-108"/>
<text text-anchor="start" x="22.5" y="-96" font-family="FreeSans" font-size="10.00">DGtal::detail::PosDepScale</text>
<text text-anchor="start" x="22.5" y="-85" font-family="FreeSans" font-size="10.00">DepSCEstimator&lt; DCAComputer,</text>
<text text-anchor="middle" x="104" y="-74" font-family="FreeSans" font-size="10.00"> detail::DistanceFromDCA &gt;</text>
</a>
</g>
</g>
<!-- Node1&#45;&gt;Node2 -->
<g id="edge1_Node000001_Node000002" class="edge">
<title>Node1&#45;&gt;Node2</title>
<g id="a_edge1_Node000001_Node000002"><a xlink:title=" ">
<path fill="none" stroke="orange" stroke-dasharray="5,2" d="M104,-155.73C104,-140.25 104,-121.77 104,-108.1"/>
<polygon fill="orange" stroke="orange" points="100.5,-155.87 104,-165.87 107.5,-155.87 100.5,-155.87"/>
</a>
</g>
<text text-anchor="start" x="104" y="-140" font-family="FreeSans" font-size="10.00" fill="grey"> &lt; DCAComputer, detail</text>
<text text-anchor="middle" x="163" y="-129" font-family="FreeSans" font-size="10.00" fill="grey">::DistanceFromDCA &gt;</text>
</g>
<!-- Node3 -->
<g id="Node000003" class="node">
<title>Node3</title>
<g id="a_Node000003"><a xlink:href="classDGtal_1_1DistanceFromDCAEstimator.html" target="_top" xlink:title=" ">
<polygon fill="white" stroke="#666666" points="197,-30 11,-30 11,0 197,0 197,-30"/>
<text text-anchor="start" x="19" y="-18" font-family="FreeSans" font-size="10.00">DGtal::DistanceFromDCAEstimator</text>
<text text-anchor="middle" x="104" y="-7" font-family="FreeSans" font-size="10.00">&lt; DCAComputer &gt;</text>
</a>
</g>
</g>
<!-- Node2&#45;&gt;Node3 -->
<g id="edge2_Node000002_Node000003" class="edge">
<title>Node2&#45;&gt;Node3</title>
<g id="a_edge2_Node000002_Node000003"><a xlink:title=" ">
<path fill="none" stroke="#63b8ff" d="M104,-56.58C104,-47.51 104,-37.95 104,-30.39"/>
<polygon fill="#63b8ff" stroke="#63b8ff" points="100.5,-56.86 104,-66.86 107.5,-56.86 100.5,-56.86"/>
</a>
</g>
</g>
</g>
</svg>
