<?xml version="1.0" encoding="UTF-8" standalone="no"?>
<!DOCTYPE svg PUBLIC "-//W3C//DTD SVG 1.1//EN"
 "http://www.w3.org/Graphics/SVG/1.1/DTD/svg11.dtd">
<!-- Generated by graphviz version 2.43.0 (0)
 -->
<!-- Title: DGtal::LambdaMST2DEstimator&lt; TSpace, TSegmentation, Functor &gt; Pages: 1 -->
<svg width="762pt" height="120pt"
 viewBox="0.00 0.00 762.00 119.50" xmlns="http://www.w3.org/2000/svg" xmlns:xlink="http://www.w3.org/1999/xlink">
<g id="graph0" class="graph" transform="scale(1 1) rotate(0) translate(4 115.5)">
<title>DGtal::LambdaMST2DEstimator&lt; TSpace, TSegmentation, Functor &gt;</title>
<!-- Node1 -->
<g id="Node000001" class="node">
<title>Node1</title>
<g id="a_Node000001"><a xlink:title=" ">
<polygon fill="#999999" stroke="#666666" points="171,-78.5 0,-78.5 0,-37.5 171,-37.5 171,-78.5"/>
<text text-anchor="start" x="8" y="-66.5" font-family="FreeSans" font-size="10.00">DGtal::LambdaMST2DEstimator</text>
<text text-anchor="start" x="8" y="-55.5" font-family="FreeSans" font-size="10.00">&lt; TSpace, TSegmentation,</text>
<text text-anchor="middle" x="85.5" y="-44.5" font-family="FreeSans" font-size="10.00"> Functor &gt;</text>
</a>
</g>
</g>
<!-- Node2 -->
<g id="Node000002" class="node">
<title>Node2</title>
<g id="a_Node000002"><a xlink:href="classDGtal_1_1LambdaMST2D.html" target="_top" xlink:title="Aim: Simplify creation of Lambda MST tangent estimator.">
<polygon fill="white" stroke="#666666" points="688,-111.5 521,-111.5 521,-70.5 688,-70.5 688,-111.5"/>
<text text-anchor="start" x="529" y="-99.5" font-family="FreeSans" font-size="10.00">DGtal::LambdaMST2D</text>
<text text-anchor="start" x="529" y="-88.5" font-family="FreeSans" font-size="10.00">&lt; DSSSegmentationComputer,</text>
<text text-anchor="middle" x="604.5" y="-77.5" font-family="FreeSans" font-size="10.00"> LambdaFunction &gt;</text>
</a>
</g>
</g>
<!-- Node1&#45;&gt;Node2 -->
<g id="edge1_Node000001_Node000002" class="edge">
<title>Node1&#45;&gt;Node2</title>
<g id="a_edge1_Node000001_Node000002"><a xlink:title=" ">
<path fill="none" stroke="#63b8ff" d="M181.24,-76.08C183.85,-76.41 186.44,-76.72 189,-77 303.53,-89.48 436.81,-91.83 520.67,-91.83"/>
<polygon fill="#63b8ff" stroke="#63b8ff" points="181.47,-72.58 171.09,-74.7 180.53,-79.52 181.47,-72.58"/>
</a>
</g>
</g>
<!-- Node3 -->
<g id="Node000003" class="node">
<title>Node3</title>
<g id="a_Node000003"><a xlink:href="classDGtal_1_1LambdaMST2DEstimator.html" target="_top" xlink:title=" ">
<polygon fill="white" stroke="#666666" points="754,-52 455,-52 455,0 754,0 754,-52"/>
<text text-anchor="start" x="463" y="-40" font-family="FreeSans" font-size="10.00">DGtal::LambdaMST2DEstimator</text>
<text text-anchor="start" x="463" y="-29" font-family="FreeSans" font-size="10.00">&lt; Z2i::Space, DSSSegmentationComputer,</text>
<text text-anchor="start" x="463" y="-18" font-family="FreeSans" font-size="10.00"> TangentFromDSS2DFunctor&lt; DSSSegmentationComputer</text>
<text text-anchor="middle" x="604.5" y="-7" font-family="FreeSans" font-size="10.00">::SegmentComputer, functors::Lambda64Function &gt; &gt;</text>
</a>
</g>
</g>
<!-- Node1&#45;&gt;Node3 -->
<g id="edge2_Node000001_Node000003" class="edge">
<title>Node1&#45;&gt;Node3</title>
<g id="a_edge2_Node000001_Node000003"><a xlink:title=" ">
<path fill="none" stroke="orange" stroke-dasharray="5,2" d="M172.54,-35.56C178.09,-34.56 183.61,-33.69 189,-33 276.62,-21.72 375.52,-19.65 454.72,-20.54"/>
<polygon fill="orange" stroke="orange" points="171.71,-32.15 162.55,-37.47 173.03,-39.03 171.71,-32.15"/>
</a>
</g>
<text text-anchor="start" x="189" y="-69" font-family="FreeSans" font-size="10.00" fill="grey"> &lt; Z2i::Space, DSSSegmentation</text>
<text text-anchor="start" x="189" y="-58" font-family="FreeSans" font-size="10.00" fill="grey">Computer, TangentFromDSS2DFunctor</text>
<text text-anchor="start" x="189" y="-47" font-family="FreeSans" font-size="10.00" fill="grey">&lt; DSSSegmentationComputer::SegmentComputer,</text>
<text text-anchor="middle" x="313" y="-36" font-family="FreeSans" font-size="10.00" fill="grey"> functors::Lambda64Function &gt; &gt;</text>
</g>
</g>
</svg>
