<?xml version="1.0" encoding="UTF-8" standalone="no"?>
<!DOCTYPE svg PUBLIC "-//W3C//DTD SVG 1.1//EN"
 "http://www.w3.org/Graphics/SVG/1.1/DTD/svg11.dtd">
<!-- Generated by graphviz version 2.43.0 (0)
 -->
<!-- Title: benchmarks Pages: 1 -->
<svg width="635pt" height="94pt"
 viewBox="0.00 0.00 635.00 94.00" xmlns="http://www.w3.org/2000/svg" xmlns:xlink="http://www.w3.org/1999/xlink">
<g id="graph0" class="graph" transform="scale(1 1) rotate(0) translate(4 90)">
<title>benchmarks</title>
<g id="clust1" class="cluster">
<title>clusterdir_59425e443f801f1f2fd8bbe4959a3ccf</title>
<g id="a_clust1"><a xlink:href="dir_59425e443f801f1f2fd8bbe4959a3ccf.html" target="_top" xlink:title="tests">
<polygon fill="#edf0f7" stroke="#404040" stroke-dasharray="5,2" points="8,-8 8,-78 619,-78 619,-8 8,-8"/>
<text text-anchor="middle" x="313.5" y="-66" font-family="FreeSans" font-size="10.00">tests</text>
</a>
</g>
</g>
<g id="clust2" class="cluster">
<title>clusterdir_14398671fc603a1b127bf8041b444913</title>
<g id="a_clust2"><a xlink:href="dir_14398671fc603a1b127bf8041b444913.html" target="_top">
<polygon fill="#edf0f7" stroke="#404040" stroke-width="2" points="16,-16 16,-51 611,-51 611,-16 16,-16"/>
</a>
</g>
</g>
<!-- dir_14398671fc603a1b127bf8041b444913 -->
<g id="node1" class="node">
<title>dir_14398671fc603a1b127bf8041b444913</title>
<text text-anchor="middle" x="564" y="-31" font-family="FreeSans" font-size="10.00">benchmarks</text>
</g>
<!-- dir_1c5fa66b463bf0ad0a07a1a8a0a3ec27 -->
<g id="node2" class="node">
<title>dir_1c5fa66b463bf0ad0a07a1a8a0a3ec27</title>
<g id="a_node2"><a xlink:href="dir_1c5fa66b463bf0ad0a07a1a8a0a3ec27.html" target="_top" xlink:title="arithmetic">
<polygon fill="#a2b4d6" stroke="#404040" points="507.5,-43 440.5,-43 440.5,-24 507.5,-24 507.5,-43"/>
<text text-anchor="middle" x="474" y="-31" font-family="FreeSans" font-size="10.00">arithmetic</text>
</a>
</g>
</g>
<!-- dir_dae598dacf97a7317abbb057e72a2b0a -->
<g id="node3" class="node">
<title>dir_dae598dacf97a7317abbb057e72a2b0a</title>
<g id="a_node3"><a xlink:href="dir_dae598dacf97a7317abbb057e72a2b0a.html" target="_top" xlink:title="base">
<polygon fill="#a2b4d6" stroke="#404040" points="422,-43 382,-43 382,-24 422,-24 422,-43"/>
<text text-anchor="middle" x="402" y="-31" font-family="FreeSans" font-size="10.00">base</text>
</a>
</g>
</g>
<!-- dir_3ee1a75020f7c11b09076f7cc4149ca9 -->
<g id="node4" class="node">
<title>dir_3ee1a75020f7c11b09076f7cc4149ca9</title>
<g id="a_node4"><a xlink:href="dir_3ee1a75020f7c11b09076f7cc4149ca9.html" target="_top" xlink:title="geometry">
<polygon fill="#a2b4d6" stroke="#404040" points="364,-43 300,-43 300,-24 364,-24 364,-43"/>
<text text-anchor="middle" x="332" y="-31" font-family="FreeSans" font-size="10.00">geometry</text>
</a>
</g>
</g>
<!-- dir_a9a0f133d724cc0c0d1ad75347798c0a -->
<g id="node5" class="node">
<title>dir_a9a0f133d724cc0c0d1ad75347798c0a</title>
<g id="a_node5"><a xlink:href="dir_a9a0f133d724cc0c0d1ad75347798c0a.html" target="_top" xlink:title="graph">
<polygon fill="#a2b4d6" stroke="#404040" points="282,-43 238,-43 238,-24 282,-24 282,-43"/>
<text text-anchor="middle" x="260" y="-31" font-family="FreeSans" font-size="10.00">graph</text>
</a>
</g>
</g>
<!-- dir_d3a86dd2148c7473ce17e1beadaf3864 -->
<g id="node6" class="node">
<title>dir_d3a86dd2148c7473ce17e1beadaf3864</title>
<g id="a_node6"><a xlink:href="dir_d3a86dd2148c7473ce17e1beadaf3864.html" target="_top" xlink:title="images">
<polygon fill="#a2b4d6" stroke="#404040" points="219.5,-43 166.5,-43 166.5,-24 219.5,-24 219.5,-43"/>
<text text-anchor="middle" x="193" y="-31" font-family="FreeSans" font-size="10.00">images</text>
</a>
</g>
</g>
<!-- dir_a78efa4486733e41c527082f61e528a6 -->
<g id="node7" class="node">
<title>dir_a78efa4486733e41c527082f61e528a6</title>
<g id="a_node7"><a xlink:href="dir_a78efa4486733e41c527082f61e528a6.html" target="_top" xlink:title="kernel">
<polygon fill="#a2b4d6" stroke="#404040" points="148.5,-43 101.5,-43 101.5,-24 148.5,-24 148.5,-43"/>
<text text-anchor="middle" x="125" y="-31" font-family="FreeSans" font-size="10.00">kernel</text>
</a>
</g>
</g>
<!-- dir_06f6ef01df3600395cabb7e8f8c5971c -->
<g id="node8" class="node">
<title>dir_06f6ef01df3600395cabb7e8f8c5971c</title>
<g id="a_node8"><a xlink:href="dir_06f6ef01df3600395cabb7e8f8c5971c.html" target="_top" xlink:title="topology">
<polygon fill="#a2b4d6" stroke="#404040" points="83.5,-43 24.5,-43 24.5,-24 83.5,-24 83.5,-43"/>
<text text-anchor="middle" x="54" y="-31" font-family="FreeSans" font-size="10.00">topology</text>
</a>
</g>
</g>
</g>
</svg>
