<?xml version="1.0" encoding="UTF-8" standalone="no"?>
<!DOCTYPE svg PUBLIC "-//W3C//DTD SVG 1.1//EN"
 "http://www.w3.org/Graphics/SVG/1.1/DTD/svg11.dtd">
<!-- Generated by graphviz version 2.43.0 (0)
 -->
<!-- Title: io Pages: 1 -->
<svg width="505pt" height="94pt"
 viewBox="0.00 0.00 505.00 94.00" xmlns="http://www.w3.org/2000/svg" xmlns:xlink="http://www.w3.org/1999/xlink">
<g id="graph0" class="graph" transform="scale(1 1) rotate(0) translate(4 90)">
<title>io</title>
<g id="clust1" class="cluster">
<title>clusterdir_f2cd1aeea1cfa982bb13a5f95fa4218c</title>
<g id="a_clust1"><a xlink:href="dir_f2cd1aeea1cfa982bb13a5f95fa4218c.html" target="_top" xlink:title="DGtal">
<polygon fill="#edf0f7" stroke="#7f7f7f" stroke-dasharray="5,2" points="8,-8 8,-78 489,-78 489,-8 8,-8"/>
<text text-anchor="middle" x="248.5" y="-66" font-family="FreeSans" font-size="10.00">DGtal</text>
</a>
</g>
</g>
<g id="clust2" class="cluster">
<title>clusterdir_5520f6078718884549800e0f3c69770f</title>
<g id="a_clust2"><a xlink:href="dir_5520f6078718884549800e0f3c69770f.html" target="_top">
<polygon fill="#edf0f7" stroke="#404040" stroke-width="2" points="16,-16 16,-51 481,-51 481,-16 16,-16"/>
</a>
</g>
</g>
<!-- dir_5520f6078718884549800e0f3c69770f -->
<g id="node1" class="node">
<title>dir_5520f6078718884549800e0f3c69770f</title>
<text text-anchor="middle" x="458" y="-31" font-family="FreeSans" font-size="10.00">io</text>
</g>
<!-- dir_3b43fe505c70ce59b3e34efa0b94c580 -->
<g id="node2" class="node">
<title>dir_3b43fe505c70ce59b3e34efa0b94c580</title>
<g id="a_node2"><a xlink:href="dir_3b43fe505c70ce59b3e34efa0b94c580.html" target="_top" xlink:title="boards">
<polygon fill="#a2b4d6" stroke="#404040" points="425,-43 375,-43 375,-24 425,-24 425,-43"/>
<text text-anchor="middle" x="400" y="-31" font-family="FreeSans" font-size="10.00">boards</text>
</a>
</g>
</g>
<!-- dir_c9522c97f30603e3dd64dac8aff8bd02 -->
<g id="node3" class="node">
<title>dir_c9522c97f30603e3dd64dac8aff8bd02</title>
<g id="a_node3"><a xlink:href="dir_c9522c97f30603e3dd64dac8aff8bd02.html" target="_top" xlink:title="colormaps">
<polygon fill="#a2b4d6" stroke="#404040" points="357,-43 289,-43 289,-24 357,-24 357,-43"/>
<text text-anchor="middle" x="323" y="-31" font-family="FreeSans" font-size="10.00">colormaps</text>
</a>
</g>
</g>
<!-- dir_e9a82ebffbf86e8202b62b9a16399c32 -->
<g id="node4" class="node">
<title>dir_e9a82ebffbf86e8202b62b9a16399c32</title>
<g id="a_node4"><a xlink:href="dir_e9a82ebffbf86e8202b62b9a16399c32.html" target="_top" xlink:title="doc">
<polygon fill="#a2b4d6" stroke="#404040" points="271,-43 237,-43 237,-24 271,-24 271,-43"/>
<text text-anchor="middle" x="254" y="-31" font-family="FreeSans" font-size="10.00">doc</text>
</a>
</g>
</g>
<!-- dir_08eb2414170ee26d20336b7bc14760d5 -->
<g id="node5" class="node">
<title>dir_08eb2414170ee26d20336b7bc14760d5</title>
<g id="a_node5"><a xlink:href="dir_08eb2414170ee26d20336b7bc14760d5.html" target="_top" xlink:title="readers">
<polygon fill="#a2b4d6" stroke="#404040" points="218.5,-43 165.5,-43 165.5,-24 218.5,-24 218.5,-43"/>
<text text-anchor="middle" x="192" y="-31" font-family="FreeSans" font-size="10.00">readers</text>
</a>
</g>
</g>
<!-- dir_fec4c135949dc5ef1783f7be9d94f54f -->
<g id="node6" class="node">
<title>dir_fec4c135949dc5ef1783f7be9d94f54f</title>
<g id="a_node6"><a xlink:href="dir_fec4c135949dc5ef1783f7be9d94f54f.html" target="_top" xlink:title="viewers">
<polygon fill="#a2b4d6" stroke="#404040" points="147.5,-43 92.5,-43 92.5,-24 147.5,-24 147.5,-43"/>
<text text-anchor="middle" x="120" y="-31" font-family="FreeSans" font-size="10.00">viewers</text>
</a>
</g>
</g>
<!-- dir_87e0a58be5f3ad073dc9f684edf9e3c0 -->
<g id="node7" class="node">
<title>dir_87e0a58be5f3ad073dc9f684edf9e3c0</title>
<g id="a_node7"><a xlink:href="dir_87e0a58be5f3ad073dc9f684edf9e3c0.html" target="_top" xlink:title="writers">
<polygon fill="#a2b4d6" stroke="#404040" points="74,-43 24,-43 24,-24 74,-24 74,-43"/>
<text text-anchor="middle" x="49" y="-31" font-family="FreeSans" font-size="10.00">writers</text>
</a>
</g>
</g>
</g>
</svg>
