<?xml version="1.0" encoding="UTF-8" standalone="no"?>
<!DOCTYPE svg PUBLIC "-//W3C//DTD SVG 1.1//EN"
 "http://www.w3.org/Graphics/SVG/1.1/DTD/svg11.dtd">
<!-- Generated by graphviz version 2.43.0 (0)
 -->
<!-- Title: DGtal Pages: 1 -->
<svg width="954pt" height="94pt"
 viewBox="0.00 0.00 954.00 94.00" xmlns="http://www.w3.org/2000/svg" xmlns:xlink="http://www.w3.org/1999/xlink">
<g id="graph0" class="graph" transform="scale(1 1) rotate(0) translate(4 90)">
<title>DGtal</title>
<g id="clust1" class="cluster">
<title>clusterdir_68267d1309a1af8e8297ef4c3efbcdba</title>
<g id="a_clust1"><a xlink:href="dir_68267d1309a1af8e8297ef4c3efbcdba.html" target="_top" xlink:title="src">
<polygon fill="#edf0f7" stroke="#404040" stroke-dasharray="5,2" points="8,-8 8,-78 938,-78 938,-8 8,-8"/>
<text text-anchor="middle" x="473" y="-66" font-family="FreeSans" font-size="10.00">src</text>
</a>
</g>
</g>
<g id="clust2" class="cluster">
<title>clusterdir_f2cd1aeea1cfa982bb13a5f95fa4218c</title>
<g id="a_clust2"><a xlink:href="dir_f2cd1aeea1cfa982bb13a5f95fa4218c.html" target="_top">
<polygon fill="#edf0f7" stroke="#404040" stroke-width="2" points="16,-16 16,-51 930,-51 930,-16 16,-16"/>
</a>
</g>
</g>
<!-- dir_f2cd1aeea1cfa982bb13a5f95fa4218c -->
<g id="node1" class="node">
<title>dir_f2cd1aeea1cfa982bb13a5f95fa4218c</title>
<text text-anchor="middle" x="900" y="-31" font-family="FreeSans" font-size="10.00">DGtal</text>
</g>
<!-- dir_9d2942cdc6eb90f6470f789cdd6b5d2d -->
<g id="node2" class="node">
<title>dir_9d2942cdc6eb90f6470f789cdd6b5d2d</title>
<g id="a_node2"><a xlink:href="dir_9d2942cdc6eb90f6470f789cdd6b5d2d.html" target="_top" xlink:title="arithmetic">
<polygon fill="#a2b4d6" stroke="#404040" points="859.5,-43 792.5,-43 792.5,-24 859.5,-24 859.5,-43"/>
<text text-anchor="middle" x="826" y="-31" font-family="FreeSans" font-size="10.00">arithmetic</text>
</a>
</g>
</g>
<!-- dir_c72d96e2c8210585cd8a59fe221b7478 -->
<g id="node3" class="node">
<title>dir_c72d96e2c8210585cd8a59fe221b7478</title>
<g id="a_node3"><a xlink:href="dir_c72d96e2c8210585cd8a59fe221b7478.html" target="_top" xlink:title="base">
<polygon fill="#a2b4d6" stroke="#404040" points="774,-43 734,-43 734,-24 774,-24 774,-43"/>
<text text-anchor="middle" x="754" y="-31" font-family="FreeSans" font-size="10.00">base</text>
</a>
</g>
</g>
<!-- dir_dff551b9dd3c14b106f4789fe844a7f9 -->
<g id="node4" class="node">
<title>dir_dff551b9dd3c14b106f4789fe844a7f9</title>
<g id="a_node4"><a xlink:href="dir_dff551b9dd3c14b106f4789fe844a7f9.html" target="_top" xlink:title="dec">
<polygon fill="#a2b4d6" stroke="#404040" points="716,-43 682,-43 682,-24 716,-24 716,-43"/>
<text text-anchor="middle" x="699" y="-31" font-family="FreeSans" font-size="10.00">dec</text>
</a>
</g>
</g>
<!-- dir_18d4605cc7bb2c64e210a112a00724a3 -->
<g id="node5" class="node">
<title>dir_18d4605cc7bb2c64e210a112a00724a3</title>
<g id="a_node5"><a xlink:href="dir_18d4605cc7bb2c64e210a112a00724a3.html" target="_top" xlink:title="doc">
<polygon fill="#a2b4d6" stroke="#404040" points="664,-43 630,-43 630,-24 664,-24 664,-43"/>
<text text-anchor="middle" x="647" y="-31" font-family="FreeSans" font-size="10.00">doc</text>
</a>
</g>
</g>
<!-- dir_754267a81a1dbd2dcdc6a3e6905a7e31 -->
<g id="node6" class="node">
<title>dir_754267a81a1dbd2dcdc6a3e6905a7e31</title>
<g id="a_node6"><a xlink:href="dir_754267a81a1dbd2dcdc6a3e6905a7e31.html" target="_top" xlink:title="geometry">
<polygon fill="#a2b4d6" stroke="#404040" points="612,-43 548,-43 548,-24 612,-24 612,-43"/>
<text text-anchor="middle" x="580" y="-31" font-family="FreeSans" font-size="10.00">geometry</text>
</a>
</g>
</g>
<!-- dir_5f560b4291223c6169be3d43857eb5b9 -->
<g id="node7" class="node">
<title>dir_5f560b4291223c6169be3d43857eb5b9</title>
<g id="a_node7"><a xlink:href="dir_5f560b4291223c6169be3d43857eb5b9.html" target="_top" xlink:title="graph">
<polygon fill="#a2b4d6" stroke="#404040" points="530,-43 486,-43 486,-24 530,-24 530,-43"/>
<text text-anchor="middle" x="508" y="-31" font-family="FreeSans" font-size="10.00">graph</text>
</a>
</g>
</g>
<!-- dir_cf30c0435acced65985fddead9ce96e2 -->
<g id="node8" class="node">
<title>dir_cf30c0435acced65985fddead9ce96e2</title>
<g id="a_node8"><a xlink:href="dir_cf30c0435acced65985fddead9ce96e2.html" target="_top" xlink:title="helpers">
<polygon fill="#a2b4d6" stroke="#404040" points="467.5,-43 414.5,-43 414.5,-24 467.5,-24 467.5,-43"/>
<text text-anchor="middle" x="441" y="-31" font-family="FreeSans" font-size="10.00">helpers</text>
</a>
</g>
</g>
<!-- dir_0b45b73c8a84e1e533b26fe370d7a80d -->
<g id="node9" class="node">
<title>dir_0b45b73c8a84e1e533b26fe370d7a80d</title>
<g id="a_node9"><a xlink:href="dir_0b45b73c8a84e1e533b26fe370d7a80d.html" target="_top" xlink:title="images">
<polygon fill="#a2b4d6" stroke="#404040" points="396.5,-43 343.5,-43 343.5,-24 396.5,-24 396.5,-43"/>
<text text-anchor="middle" x="370" y="-31" font-family="FreeSans" font-size="10.00">images</text>
</a>
</g>
</g>
<!-- dir_5520f6078718884549800e0f3c69770f -->
<g id="node10" class="node">
<title>dir_5520f6078718884549800e0f3c69770f</title>
<g id="a_node10"><a xlink:href="dir_5520f6078718884549800e0f3c69770f.html" target="_top" xlink:title="io">
<polygon fill="#a2b4d6" stroke="#404040" points="325.5,-43 296.5,-43 296.5,-24 325.5,-24 325.5,-43"/>
<text text-anchor="middle" x="311" y="-31" font-family="FreeSans" font-size="10.00">io</text>
</a>
</g>
</g>
<!-- dir_836e545d3226650d428fca2c7a499aa6 -->
<g id="node11" class="node">
<title>dir_836e545d3226650d428fca2c7a499aa6</title>
<g id="a_node11"><a xlink:href="dir_836e545d3226650d428fca2c7a499aa6.html" target="_top" xlink:title="kernel">
<polygon fill="#a2b4d6" stroke="#404040" points="278.5,-43 231.5,-43 231.5,-24 278.5,-24 278.5,-43"/>
<text text-anchor="middle" x="255" y="-31" font-family="FreeSans" font-size="10.00">kernel</text>
</a>
</g>
</g>
<!-- dir_b5108e809fa67f729d044e06289c9bff -->
<g id="node12" class="node">
<title>dir_b5108e809fa67f729d044e06289c9bff</title>
<g id="a_node12"><a xlink:href="dir_b5108e809fa67f729d044e06289c9bff.html" target="_top" xlink:title="math">
<polygon fill="#a2b4d6" stroke="#404040" points="213,-43 171,-43 171,-24 213,-24 213,-43"/>
<text text-anchor="middle" x="192" y="-31" font-family="FreeSans" font-size="10.00">math</text>
</a>
</g>
</g>
<!-- dir_b5cedd3610db960cb0235f10a76b8ff0 -->
<g id="node13" class="node">
<title>dir_b5cedd3610db960cb0235f10a76b8ff0</title>
<g id="a_node13"><a xlink:href="dir_b5cedd3610db960cb0235f10a76b8ff0.html" target="_top" xlink:title="shapes">
<polygon fill="#a2b4d6" stroke="#404040" points="152.5,-43 101.5,-43 101.5,-24 152.5,-24 152.5,-43"/>
<text text-anchor="middle" x="127" y="-31" font-family="FreeSans" font-size="10.00">shapes</text>
</a>
</g>
</g>
<!-- dir_beb349dd51fade10e83e4caaef469050 -->
<g id="node14" class="node">
<title>dir_beb349dd51fade10e83e4caaef469050</title>
<g id="a_node14"><a xlink:href="dir_beb349dd51fade10e83e4caaef469050.html" target="_top" xlink:title="topology">
<polygon fill="#a2b4d6" stroke="#404040" points="83.5,-43 24.5,-43 24.5,-24 83.5,-24 83.5,-43"/>
<text text-anchor="middle" x="54" y="-31" font-family="FreeSans" font-size="10.00">topology</text>
</a>
</g>
</g>
</g>
</svg>
