<?xml version="1.0" encoding="UTF-8" standalone="no"?>
<!DOCTYPE svg PUBLIC "-//W3C//DTD SVG 1.1//EN"
 "http://www.w3.org/Graphics/SVG/1.1/DTD/svg11.dtd">
<!-- Generated by graphviz version 2.43.0 (0)
 -->
<!-- Title: GKERNEL Pages: 1 -->
<!--zoomable 797 -->

<svg id="main" version="1.1" xmlns="http://www.w3.org/2000/svg" xmlns:xlink="http://www.w3.org/1999/xlink" xml:space="preserve" onload="init(evt)">
<style type="text/css"><![CDATA[
.node, .edge {opacity: 0.7;}
.node.selected, .edge.selected {opacity: 1;}
.edge:hover path { stroke: red; }
.edge:hover polygon { stroke: red; fill: red; }
]]></style>

<defs>
  <circle id="rim" cx="0" cy="0" r="7"/>
  <circle id="rim2" cx="0" cy="0" r="3.5"/>
  <g id="zoomPlus">
    <use xlink:href="#rim" fill="#404040"><set attributeName="fill" to="#808080" begin="zoomplus.mouseover" end="zoomplus.mouseout"/></use>
    <path d="M-4,0h8M0,-4v8" fill="none" stroke="white" stroke-width="1.5" pointer-events="none"/>
  </g>
  <g id="zoomMin">
    <use xlink:href="#rim" fill="#404040"><set attributeName="fill" to="#808080" begin="zoomminus.mouseover" end="zoomminus.mouseout"/></use>
    <path d="M-4,0h8" fill="none" stroke="white" stroke-width="1.5" pointer-events="none"/>
  </g>
  <g id="arrowUp" transform="translate(30 24)">
    <use xlink:href="#rim"/>
    <path pointer-events="none" fill="none" stroke="white" stroke-width="1.5" d="M0,-3.0v7 M-2.5,-0.5L0,-3.0L2.5,-0.5"/>
  </g>
  <g id="arrowRight" transform="rotate(90) translate(36 -43)">
    <use xlink:href="#rim"/>
    <path pointer-events="none" fill="none" stroke="white" stroke-width="1.5" d="M0,-3.0v7 M-2.5,-0.5L0,-3.0L2.5,-0.5"/>
  </g>
  <g id="arrowDown" transform="rotate(180) translate(-30 -48)">
    <use xlink:href="#rim"/>
    <path pointer-events="none" fill="none" stroke="white" stroke-width="1.5" d="M0,-3.0v7 M-2.5,-0.5L0,-3.0L2.5,-0.5"/>
  </g>
  <g id="arrowLeft" transform="rotate(270) translate(-36 17)">
    <use xlink:href="#rim"/>
    <path pointer-events="none" fill="none" stroke="white" stroke-width="1.5" d="M0,-3.0v7 M-2.5,-0.5L0,-3.0L2.5,-0.5"/>
  </g>
  <g id="resetDef">
    <use xlink:href="#rim2" fill="#404040"><set attributeName="fill" to="#808080" begin="reset.mouseover" end="reset.mouseout"/></use>
  </g>
</defs>
<script type="application/ecmascript">
var viewWidth = 2092;
var viewHeight = 797;
</script>
<script type="application/ecmascript" xlink:href="svg.min.js"/>
<svg id="graph" class="graph">
<g id="viewport">
<title>GKERNEL</title>
<polygon fill="white" stroke="transparent" points="-4,4 -4,-793 2087.84,-793 2087.84,4 -4,4"/>
<g id="clust1" class="cluster">
<title>cluster_ext</title>
</g>
<g id="clust2" class="cluster">
<title>cluster_base</title>
<polygon fill="#eeeeff" stroke="#eeeeff" points="1066,-698 1066,-773 1790,-773 1790,-698 1066,-698"/>
<text text-anchor="middle" x="1428" y="-705.8" font-family="Times,serif" font-size="14.00">base</text>
</g>
<g id="clust3" class="cluster">
<title>cluster_boost</title>
<polygon fill="white" stroke="white" points="16,-698 16,-773 1058,-773 1058,-698 16,-698"/>
<text text-anchor="middle" x="537" y="-705.8" font-family="Times,serif" font-size="14.00">boost</text>
</g>
<g id="clust4" class="cluster">
<title>cluster_main</title>
<polygon fill="#ddddee" stroke="#ddddee" points="752,-116 752,-671 1568,-671 1568,-116 752,-116"/>
<text text-anchor="middle" x="1160" y="-123.8" font-family="Times,serif" font-size="14.00">kernel (main concepts)</text>
</g>
<g id="clust5" class="cluster">
<title>cluster_models</title>
<polygon fill="#ccffcc" stroke="#ccffcc" points="345,-8 345,-83 1932,-83 1932,-8 345,-8"/>
<text text-anchor="middle" x="1138.5" y="-15.8" font-family="Times,serif" font-size="14.00">Kernel (main models)</text>
</g>
<!-- CQuantity -->
<g id="node1" class="node">
<title>CQuantity</title>
<g id="a_node1"><a xlink:href="structDGtal_1_1concepts_1_1CQuantity.html" target="_top" xlink:title="CQuantity">
<ellipse fill="white" stroke="white" cx="1458" cy="-747" rx="57.69" ry="18"/>
<text text-anchor="middle" x="1458" y="-743.3" font-family="Times,serif" font-size="14.00">CQuantity</text>
</a>
</g>
</g>
<!-- CUnaryFunctor -->
<g id="node2" class="node">
<title>CUnaryFunctor</title>
<g id="a_node2"><a xlink:href="structDGtal_1_1concepts_1_1CUnaryFunctor.html" target="_top" xlink:title="CUnaryFunctor">
<ellipse fill="white" stroke="white" cx="1157" cy="-747" rx="83.39" ry="18"/>
<text text-anchor="middle" x="1157" y="-743.3" font-family="Times,serif" font-size="14.00">CUnaryFunctor</text>
</a>
</g>
</g>
<!-- CPredicate -->
<g id="node3" class="node">
<title>CPredicate</title>
<g id="a_node3"><a xlink:href="structDGtal_1_1concepts_1_1CPredicate.html" target="_top" xlink:title="CPredicate">
<ellipse fill="white" stroke="white" cx="1320" cy="-747" rx="61.99" ry="18"/>
<text text-anchor="middle" x="1320" y="-743.3" font-family="Times,serif" font-size="14.00">CPredicate</text>
</a>
</g>
</g>
<!-- CConstSinglePassRange -->
<g id="node4" class="node">
<title>CConstSinglePassRange</title>
<g id="a_node4"><a xlink:href="structDGtal_1_1concepts_1_1CConstSinglePassRange.html" target="_top" xlink:title="CConstSinglePassRange">
<ellipse fill="white" stroke="white" cx="1658" cy="-747" rx="124.28" ry="18"/>
<text text-anchor="middle" x="1658" y="-743.3" font-family="Times,serif" font-size="14.00">CConstSinglePassRange</text>
</a>
</g>
</g>
<!-- boost_CopyConstructible -->
<g id="node5" class="node">
<title>boost_CopyConstructible</title>
<g id="a_node5"><a xlink:href="structboost_1_1CopyConstructible.html" target="_top" xlink:title="boost::CopyConstructible">
<ellipse fill="orange" stroke="orange" cx="922" cy="-747" rx="128.08" ry="18"/>
<text text-anchor="middle" x="922" y="-743.3" font-family="Times,serif" font-size="14.00">boost::CopyConstructible</text>
</a>
</g>
</g>
<!-- boost_Assignable -->
<g id="node6" class="node">
<title>boost_Assignable</title>
<g id="a_node6"><a xlink:href="structboost_1_1Assignable.html" target="_top" xlink:title="boost::Assignable">
<ellipse fill="orange" stroke="orange" cx="684" cy="-747" rx="92.08" ry="18"/>
<text text-anchor="middle" x="684" y="-743.3" font-family="Times,serif" font-size="14.00">boost::Assignable</text>
</a>
</g>
</g>
<!-- boost_DefaultConstructible -->
<g id="node7" class="node">
<title>boost_DefaultConstructible</title>
<g id="a_node7"><a xlink:href="structboost_1_1DefaultConstructible.html" target="_top" xlink:title="boost::DefaultConstructible">
<ellipse fill="orange" stroke="orange" cx="435" cy="-747" rx="139.18" ry="18"/>
<text text-anchor="middle" x="435" y="-743.3" font-family="Times,serif" font-size="14.00">boost::DefaultConstructible</text>
</a>
</g>
</g>
<!-- boost_ForwardContainer -->
<g id="node8" class="node">
<title>boost_ForwardContainer</title>
<g id="a_node8"><a xlink:href="structboost_1_1ForwardContainer.html" target="_top" xlink:title="boost::ForwardContainer">
<ellipse fill="orange" stroke="orange" cx="151" cy="-747" rx="126.98" ry="18"/>
<text text-anchor="middle" x="151" y="-743.3" font-family="Times,serif" font-size="14.00">boost::ForwardContainer</text>
</a>
</g>
</g>
<!-- CPointPredicate -->
<g id="node9" class="node">
<title>CPointPredicate</title>
<g id="a_node9"><a xlink:href="structDGtal_1_1concepts_1_1CPointPredicate.html" target="_top" xlink:title="CPointPredicate">
<ellipse fill="white" stroke="white" cx="1288" cy="-252" rx="85.59" ry="18"/>
<text text-anchor="middle" x="1288" y="-248.3" font-family="Times,serif" font-size="14.00">CPointPredicate</text>
</a>
</g>
</g>
<!-- CPointPredicate&#45;&gt;CPredicate -->
<g id="edge2" class="edge">
<title>CPointPredicate&#45;&gt;CPredicate</title>
<path fill="none" stroke="black" d="M1228.65,-265.02C1190.87,-276.54 1149,-298.26 1149,-338 1149,-338 1149,-338 1149,-646 1149,-694.56 1207.38,-664.99 1249,-690 1264.93,-699.58 1281.32,-712.28 1294.33,-723.16"/>
<polygon fill="black" stroke="black" points="1292.08,-725.84 1301.96,-729.66 1296.62,-720.51 1292.08,-725.84"/>
</g>
<!-- CPointFunctor -->
<g id="node10" class="node">
<title>CPointFunctor</title>
<g id="a_node10"><a xlink:href="structDGtal_1_1concepts_1_1CPointFunctor.html" target="_top" xlink:title="CPointFunctor">
<ellipse fill="white" stroke="white" cx="1270" cy="-165" rx="77.99" ry="18"/>
<text text-anchor="middle" x="1270" y="-161.3" font-family="Times,serif" font-size="14.00">CPointFunctor</text>
</a>
</g>
</g>
<!-- CPointFunctor&#45;&gt;CUnaryFunctor -->
<g id="edge1" class="edge">
<title>CPointFunctor&#45;&gt;CUnaryFunctor</title>
<path fill="none" stroke="black" d="M1213.78,-177.48C1174.76,-185.72 1128.34,-196.19 1120,-201 1093.57,-216.23 1073,-220.5 1073,-251 1073,-251 1073,-251 1073,-646 1073,-678.31 1099.03,-705.63 1122.11,-723.51"/>
<polygon fill="black" stroke="black" points="1120.3,-726.53 1130.42,-729.66 1124.46,-720.9 1120.3,-726.53"/>
</g>
<!-- CSpace -->
<g id="node11" class="node">
<title>CSpace</title>
<ellipse fill="white" stroke="white" cx="1460" cy="-339" rx="45.49" ry="18"/>
<text text-anchor="middle" x="1460" y="-335.3" font-family="Times,serif" font-size="14.00">CSpace</text>
</g>
<!-- CInteger -->
<g id="node12" class="node">
<title>CInteger</title>
<g id="a_node12"><a xlink:href="structDGtal_1_1concepts_1_1CInteger.html" target="_top" xlink:title="CInteger">
<ellipse fill="white" stroke="white" cx="1229" cy="-426" rx="51.99" ry="18"/>
<text text-anchor="middle" x="1229" y="-422.3" font-family="Times,serif" font-size="14.00">CInteger</text>
</a>
</g>
</g>
<!-- CSpace&#45;&gt;CInteger -->
<g id="edge16" class="edge">
<title>CSpace&#45;&gt;CInteger</title>
<path fill="none" stroke="black" stroke-dasharray="5,2" d="M1415.35,-342.78C1379.19,-346.47 1327.73,-355.05 1287,-375 1273.68,-381.53 1260.96,-391.86 1250.84,-401.44"/>
<polygon fill="black" stroke="black" points="1248.29,-399.03 1243.64,-408.55 1253.21,-404.01 1248.29,-399.03"/>
<text text-anchor="middle" x="1299.5" y="-378.8" font-family="Times,serif" font-size="14.00">use</text>
</g>
<!-- CUnsignedNumber -->
<g id="node13" class="node">
<title>CUnsignedNumber</title>
<g id="a_node13"><a xlink:href="structDGtal_1_1concepts_1_1CUnsignedNumber.html" target="_top" xlink:title="CUnsignedNumber">
<ellipse fill="white" stroke="white" cx="1460" cy="-426" rx="100.18" ry="18"/>
<text text-anchor="middle" x="1460" y="-422.3" font-family="Times,serif" font-size="14.00">CUnsignedNumber</text>
</a>
</g>
</g>
<!-- CSpace&#45;&gt;CUnsignedNumber -->
<g id="edge18" class="edge">
<title>CSpace&#45;&gt;CUnsignedNumber</title>
<path fill="none" stroke="black" stroke-dasharray="5,2" d="M1460,-357.2C1460,-368.84 1460,-384.45 1460,-397.76"/>
<polygon fill="black" stroke="black" points="1456.5,-397.82 1460,-407.82 1463.5,-397.82 1456.5,-397.82"/>
<text text-anchor="middle" x="1472.5" y="-378.8" font-family="Times,serif" font-size="14.00">use</text>
</g>
<!-- CIntegralNumber -->
<g id="node15" class="node">
<title>CIntegralNumber</title>
<g id="a_node15"><a xlink:href="structDGtal_1_1concepts_1_1CIntegralNumber.html" target="_top" xlink:title="CIntegralNumber">
<ellipse fill="white" stroke="white" cx="1458" cy="-499" rx="92.88" ry="18"/>
<text text-anchor="middle" x="1458" y="-495.3" font-family="Times,serif" font-size="14.00">CIntegralNumber</text>
</a>
</g>
</g>
<!-- CSpace&#45;&gt;CIntegralNumber -->
<g id="edge17" class="edge">
<title>CSpace&#45;&gt;CIntegralNumber</title>
<path fill="none" stroke="black" stroke-dasharray="5,2" d="M1424.18,-350.29C1375.14,-366.27 1296.37,-399.87 1326,-444 1338.74,-462.98 1359.47,-475.3 1380.76,-483.28"/>
<polygon fill="black" stroke="black" points="1379.62,-486.59 1390.22,-486.55 1381.91,-479.98 1379.62,-486.59"/>
<text text-anchor="middle" x="1338.5" y="-422.3" font-family="Times,serif" font-size="14.00">use</text>
</g>
<!-- CInteger&#45;&gt;CIntegralNumber -->
<g id="edge7" class="edge">
<title>CInteger&#45;&gt;CIntegralNumber</title>
<path fill="none" stroke="black" d="M1258.09,-441.1C1273.8,-448.33 1293.68,-456.88 1312,-463 1335.58,-470.87 1361.86,-477.74 1385.54,-483.25"/>
<polygon fill="black" stroke="black" points="1384.99,-486.72 1395.52,-485.53 1386.55,-479.89 1384.99,-486.72"/>
</g>
<!-- CEuclideanRing -->
<g id="node17" class="node">
<title>CEuclideanRing</title>
<g id="a_node17"><a xlink:href="structDGtal_1_1concepts_1_1CEuclideanRing.html" target="_top" xlink:title="CEuclideanRing">
<ellipse fill="white" stroke="white" cx="1262" cy="-499" rx="85.29" ry="18"/>
<text text-anchor="middle" x="1262" y="-495.3" font-family="Times,serif" font-size="14.00">CEuclideanRing</text>
</a>
</g>
</g>
<!-- CInteger&#45;&gt;CEuclideanRing -->
<g id="edge8" class="edge">
<title>CInteger&#45;&gt;CEuclideanRing</title>
<path fill="none" stroke="black" d="M1236.82,-443.83C1240.67,-452.1 1245.4,-462.28 1249.71,-471.56"/>
<polygon fill="black" stroke="black" points="1246.62,-473.21 1254.01,-480.8 1252.97,-470.26 1246.62,-473.21"/>
</g>
<!-- CUnsignedNumber&#45;&gt;CQuantity -->
<g id="edge4" class="edge">
<title>CUnsignedNumber&#45;&gt;CQuantity</title>
<path fill="none" stroke="black" d="M1521.94,-440.25C1550.85,-450.44 1579,-468.05 1579,-498 1579,-498 1579,-498 1579,-646 1579,-676.96 1548.88,-670.29 1525,-690 1511.89,-700.82 1497.41,-712.9 1485.28,-723.07"/>
<polygon fill="black" stroke="black" points="1482.71,-720.65 1477.3,-729.76 1487.21,-726.02 1482.71,-720.65"/>
</g>
<!-- CSignedNumber -->
<g id="node14" class="node">
<title>CSignedNumber</title>
<g id="a_node14"><a xlink:href="structDGtal_1_1concepts_1_1CSignedNumber.html" target="_top" xlink:title="CSignedNumber">
<ellipse fill="white" stroke="white" cx="1333" cy="-645" rx="87.99" ry="18"/>
<text text-anchor="middle" x="1333" y="-641.3" font-family="Times,serif" font-size="14.00">CSignedNumber</text>
</a>
</g>
</g>
<!-- CSignedNumber&#45;&gt;CQuantity -->
<g id="edge3" class="edge">
<title>CSignedNumber&#45;&gt;CQuantity</title>
<path fill="none" stroke="black" d="M1355.22,-662.47C1366.1,-670.63 1379.33,-680.71 1391,-690 1404.39,-700.67 1419.01,-712.82 1431.16,-723.07"/>
<polygon fill="black" stroke="black" points="1429.24,-726.04 1439.14,-729.83 1433.77,-720.69 1429.24,-726.04"/>
</g>
<!-- CIntegralNumber&#45;&gt;CQuantity -->
<g id="edge5" class="edge">
<title>CIntegralNumber&#45;&gt;CQuantity</title>
<path fill="none" stroke="black" d="M1458,-517.3C1458,-559.38 1458,-667.37 1458,-718.45"/>
<polygon fill="black" stroke="black" points="1454.5,-718.72 1458,-728.72 1461.5,-718.72 1454.5,-718.72"/>
</g>
<!-- CBoundedNumber -->
<g id="node16" class="node">
<title>CBoundedNumber</title>
<g id="a_node16"><a xlink:href="structDGtal_1_1concepts_1_1CBoundedNumber.html" target="_top" xlink:title="CBoundedNumber">
<ellipse fill="white" stroke="white" cx="1463" cy="-165" rx="96.68" ry="18"/>
<text text-anchor="middle" x="1463" y="-161.3" font-family="Times,serif" font-size="14.00">CBoundedNumber</text>
</a>
</g>
</g>
<!-- CBoundedNumber&#45;&gt;CQuantity -->
<g id="edge6" class="edge">
<title>CBoundedNumber&#45;&gt;CQuantity</title>
<path fill="none" stroke="black" d="M1392.71,-177.54C1346.5,-185.32 1290.4,-195.19 1267,-201 1196.34,-218.55 1111,-178.19 1111,-251 1111,-251 1111,-251 1111,-646 1111,-702.66 1180.07,-661.99 1236,-671 1304.52,-682.04 1327.32,-662.39 1391,-690 1408,-697.37 1424.04,-710.47 1436.16,-722.14"/>
<polygon fill="black" stroke="black" points="1433.99,-724.93 1443.53,-729.54 1438.95,-719.98 1433.99,-724.93"/>
</g>
<!-- CCommutativeRing -->
<g id="node18" class="node">
<title>CCommutativeRing</title>
<g id="a_node18"><a xlink:href="structDGtal_1_1concepts_1_1CCommutativeRing.html" target="_top" xlink:title="CCommutativeRing">
<ellipse fill="white" stroke="white" cx="1304" cy="-572" rx="101.28" ry="18"/>
<text text-anchor="middle" x="1304" y="-568.3" font-family="Times,serif" font-size="14.00">CCommutativeRing</text>
</a>
</g>
</g>
<!-- CEuclideanRing&#45;&gt;CCommutativeRing -->
<g id="edge9" class="edge">
<title>CEuclideanRing&#45;&gt;CCommutativeRing</title>
<path fill="none" stroke="black" d="M1272.17,-517.19C1277.12,-525.56 1283.18,-535.8 1288.68,-545.1"/>
<polygon fill="black" stroke="black" points="1285.82,-547.15 1293.93,-553.97 1291.85,-543.58 1285.82,-547.15"/>
</g>
<!-- CCommutativeRing&#45;&gt;CSignedNumber -->
<g id="edge10" class="edge">
<title>CCommutativeRing&#45;&gt;CSignedNumber</title>
<path fill="none" stroke="black" d="M1311.02,-590.19C1314.37,-598.38 1318.45,-608.38 1322.18,-617.52"/>
<polygon fill="black" stroke="black" points="1319.02,-619.04 1326.04,-626.97 1325.5,-616.39 1319.02,-619.04"/>
</g>
<!-- CDomain -->
<g id="node19" class="node">
<title>CDomain</title>
<g id="a_node19"><a xlink:href="structDGtal_1_1concepts_1_1CDomain.html" target="_top" xlink:title="CDomain">
<ellipse fill="white" stroke="white" cx="1507" cy="-252" rx="53.09" ry="18"/>
<text text-anchor="middle" x="1507" y="-248.3" font-family="Times,serif" font-size="14.00">CDomain</text>
</a>
</g>
</g>
<!-- CDomain&#45;&gt;CConstSinglePassRange -->
<g id="edge11" class="edge">
<title>CDomain&#45;&gt;CConstSinglePassRange</title>
<path fill="none" stroke="black" d="M1550.65,-262.41C1588.42,-273.43 1637,-295.8 1637,-338 1637,-338 1637,-338 1637,-646 1637,-671.23 1643.48,-699.29 1649.24,-719.25"/>
<polygon fill="black" stroke="black" points="1645.91,-720.32 1652.15,-728.89 1652.61,-718.3 1645.91,-720.32"/>
</g>
<!-- CDomain&#45;&gt;CSpace -->
<g id="edge19" class="edge">
<title>CDomain&#45;&gt;CSpace</title>
<path fill="none" stroke="black" stroke-dasharray="5,2" d="M1497.71,-269.79C1491.02,-281.9 1481.86,-298.47 1474.24,-312.24"/>
<polygon fill="black" stroke="black" points="1471.04,-310.8 1469.27,-321.24 1477.17,-314.18 1471.04,-310.8"/>
<text text-anchor="middle" x="1498.5" y="-291.8" font-family="Times,serif" font-size="14.00">use</text>
</g>
<!-- CSTLAssociativeContainer -->
<g id="node20" class="node">
<title>CSTLAssociativeContainer</title>
<g id="a_node20"><a xlink:href="structDGtal_1_1concepts_1_1CSTLAssociativeContainer.html" target="_top" xlink:title="CSTLAssociativeContainer">
<ellipse fill="white" stroke="white" cx="894" cy="-165" rx="133.78" ry="18"/>
<text text-anchor="middle" x="894" y="-161.3" font-family="Times,serif" font-size="14.00">CSTLAssociativeContainer</text>
</a>
</g>
</g>
<!-- CSTLAssociativeContainer&#45;&gt;boost_DefaultConstructible -->
<g id="edge12" class="edge">
<title>CSTLAssociativeContainer&#45;&gt;boost_DefaultConstructible</title>
<path fill="none" stroke="black" d="M798.79,-177.73C757.32,-188.71 718,-209.94 718,-251 718,-251 718,-251 718,-646 718,-709.11 642.53,-669.05 583,-690 550.4,-701.47 514.11,-715.19 485.62,-726.18"/>
<polygon fill="black" stroke="black" points="484.34,-722.92 476.28,-729.79 486.87,-729.45 484.34,-722.92"/>
</g>
<!-- CSTLAssociativeContainer&#45;&gt;boost_ForwardContainer -->
<g id="edge13" class="edge">
<title>CSTLAssociativeContainer&#45;&gt;boost_ForwardContainer</title>
<path fill="none" stroke="black" d="M771.54,-172.35C605.11,-182.66 328,-206.5 328,-251 328,-251 328,-251 328,-646 328,-674.33 258.42,-706.44 206.51,-726.46"/>
<polygon fill="black" stroke="black" points="205.15,-723.23 197.04,-730.06 207.63,-729.78 205.15,-723.23"/>
</g>
<!-- CDigitalSet -->
<g id="node21" class="node">
<title>CDigitalSet</title>
<ellipse fill="white" stroke="white" cx="1110" cy="-165" rx="64.19" ry="18"/>
<text text-anchor="middle" x="1110" y="-161.3" font-family="Times,serif" font-size="14.00">CDigitalSet</text>
</g>
<!-- CDigitalSet&#45;&gt;boost_CopyConstructible -->
<g id="edge21" class="edge">
<title>CDigitalSet&#45;&gt;boost_CopyConstructible</title>
<path fill="none" stroke="black" d="M1070.46,-179.22C1039.98,-192.19 1003,-215.29 1003,-251 1003,-251 1003,-251 1003,-646 1003,-677.64 978.21,-704.87 956.07,-722.9"/>
<polygon fill="black" stroke="black" points="953.82,-720.21 948.07,-729.11 958.12,-725.73 953.82,-720.21"/>
</g>
<!-- CDigitalSet&#45;&gt;boost_Assignable -->
<g id="edge20" class="edge">
<title>CDigitalSet&#45;&gt;boost_Assignable</title>
<path fill="none" stroke="black" d="M1068.54,-178.95C1020.84,-195.13 949,-223.98 949,-251 949,-251 949,-251 949,-646 949,-721.47 854.97,-661.71 785,-690 761.89,-699.34 737.41,-712.82 718.34,-724.21"/>
<polygon fill="black" stroke="black" points="716.45,-721.26 709.71,-729.44 720.08,-727.25 716.45,-721.26"/>
</g>
<!-- CDigitalSet&#45;&gt;CPointPredicate -->
<g id="edge14" class="edge">
<title>CDigitalSet&#45;&gt;CPointPredicate</title>
<path fill="none" stroke="black" d="M1141.01,-180.81C1170.11,-194.7 1213.86,-215.6 1246.07,-230.98"/>
<polygon fill="black" stroke="black" points="1244.71,-234.21 1255.24,-235.36 1247.73,-227.89 1244.71,-234.21"/>
</g>
<!-- CDigitalSet&#45;&gt;CDomain -->
<g id="edge15" class="edge">
<title>CDigitalSet&#45;&gt;CDomain</title>
<path fill="none" stroke="black" stroke-dasharray="5,2" d="M1157.48,-177.22C1165.97,-179.18 1174.74,-181.17 1183,-183 1277.68,-203.96 1388.3,-226.83 1452.72,-239.99"/>
<polygon fill="black" stroke="black" points="1452.15,-243.44 1462.65,-242.01 1453.55,-236.58 1452.15,-243.44"/>
<text text-anchor="middle" x="1345.5" y="-204.8" font-family="Times,serif" font-size="14.00">use</text>
</g>
<!-- SpaceND -->
<g id="node22" class="node">
<title>SpaceND</title>
<g id="a_node22"><a xlink:href="classDGtal_1_1SpaceND.html" target="_top" xlink:title="SpaceND">
<ellipse fill="white" stroke="white" cx="1870" cy="-57" rx="53.89" ry="18"/>
<text text-anchor="middle" x="1870" y="-53.3" font-family="Times,serif" font-size="14.00">SpaceND</text>
</a>
</g>
</g>
<!-- SpaceND&#45;&gt;CSpace -->
<g id="edge22" class="edge">
<title>SpaceND&#45;&gt;CSpace</title>
<path fill="none" stroke="black" d="M1852.27,-74.36C1824.92,-99.21 1770.35,-147.35 1720,-183 1643.09,-237.46 1546.34,-291.69 1495.29,-319.28"/>
<polygon fill="black" stroke="black" points="1493.45,-316.29 1486.31,-324.11 1496.77,-322.46 1493.45,-316.29"/>
</g>
<!-- HyperRectDomain -->
<g id="node23" class="node">
<title>HyperRectDomain</title>
<g id="a_node23"><a xlink:href="classDGtal_1_1HyperRectDomain.html" target="_top" xlink:title="HyperRectDomain">
<ellipse fill="white" stroke="white" cx="1502" cy="-57" rx="96.38" ry="18"/>
<text text-anchor="middle" x="1502" y="-53.3" font-family="Times,serif" font-size="14.00">HyperRectDomain</text>
</a>
</g>
</g>
<!-- HyperRectDomain&#45;&gt;CDomain -->
<g id="edge23" class="edge">
<title>HyperRectDomain&#45;&gt;CDomain</title>
<path fill="none" stroke="black" d="M1559.11,-71.58C1599.52,-81.22 1646.63,-92.54 1647,-93 1660.56,-110.22 1676.46,-144.59 1602,-216 1590.97,-226.58 1576.48,-234.01 1562.14,-239.21"/>
<polygon fill="black" stroke="black" points="1560.69,-236 1552.29,-242.46 1562.88,-242.65 1560.69,-236"/>
</g>
<!-- DigitalSetBySTLSet -->
<g id="node24" class="node">
<title>DigitalSetBySTLSet</title>
<g id="a_node24"><a xlink:href="classDGtal_1_1DigitalSetBySTLSet.html" target="_top" xlink:title="DigitalSetBySTLSet">
<ellipse fill="white" stroke="white" cx="1033" cy="-57" rx="103.18" ry="18"/>
<text text-anchor="middle" x="1033" y="-53.3" font-family="Times,serif" font-size="14.00">DigitalSetBySTLSet</text>
</a>
</g>
</g>
<!-- DigitalSetBySTLSet&#45;&gt;CDigitalSet -->
<g id="edge25" class="edge">
<title>DigitalSetBySTLSet&#45;&gt;CDigitalSet</title>
<path fill="none" stroke="black" d="M1045.37,-75.03C1057.89,-92.26 1077.38,-119.1 1091.69,-138.79"/>
<polygon fill="black" stroke="black" points="1088.95,-140.98 1097.66,-147.01 1094.61,-136.86 1088.95,-140.98"/>
</g>
<!-- DigitalSetBySTLVector -->
<g id="node25" class="node">
<title>DigitalSetBySTLVector</title>
<g id="a_node25"><a xlink:href="classDGtal_1_1DigitalSetBySTLVector.html" target="_top" xlink:title="DigitalSetBySTLVector">
<ellipse fill="white" stroke="white" cx="1271" cy="-57" rx="116.18" ry="18"/>
<text text-anchor="middle" x="1271" y="-53.3" font-family="Times,serif" font-size="14.00">DigitalSetBySTLVector</text>
</a>
</g>
</g>
<!-- DigitalSetBySTLVector&#45;&gt;CDigitalSet -->
<g id="edge24" class="edge">
<title>DigitalSetBySTLVector&#45;&gt;CDigitalSet</title>
<path fill="none" stroke="black" d="M1245.49,-74.8C1217.65,-93.13 1172.99,-122.53 1142.62,-142.52"/>
<polygon fill="black" stroke="black" points="1140.5,-139.73 1134.08,-148.15 1144.35,-145.57 1140.5,-139.73"/>
</g>
<!-- DigitalSetFromMap -->
<g id="node26" class="node">
<title>DigitalSetFromMap</title>
<g id="a_node26"><a xlink:href="classDGtal_1_1DigitalSetFromMap.html" target="_top" xlink:title="DigitalSetFromMap">
<ellipse fill="white" stroke="white" cx="809" cy="-57" rx="102.88" ry="18"/>
<text text-anchor="middle" x="809" y="-53.3" font-family="Times,serif" font-size="14.00">DigitalSetFromMap</text>
</a>
</g>
</g>
<!-- DigitalSetFromMap&#45;&gt;CDigitalSet -->
<g id="edge26" class="edge">
<title>DigitalSetFromMap&#45;&gt;CDigitalSet</title>
<path fill="none" stroke="black" d="M867.69,-71.86C929.95,-86.74 1021.47,-109.15 1037,-116 1052.34,-122.76 1068.03,-132.63 1080.92,-141.66"/>
<polygon fill="black" stroke="black" points="1079.2,-144.73 1089.36,-147.73 1083.29,-139.05 1079.2,-144.73"/>
</g>
<!-- DomainPredicate -->
<g id="node27" class="node">
<title>DomainPredicate</title>
<g id="a_node27"><a xlink:href="structDGtal_1_1functors_1_1DomainPredicate.html" target="_top" xlink:title="DomainPredicate">
<ellipse fill="white" stroke="white" cx="1707" cy="-57" rx="90.98" ry="18"/>
<text text-anchor="middle" x="1707" y="-53.3" font-family="Times,serif" font-size="14.00">DomainPredicate</text>
</a>
</g>
</g>
<!-- DomainPredicate&#45;&gt;CPointPredicate -->
<g id="edge32" class="edge">
<title>DomainPredicate&#45;&gt;CPointPredicate</title>
<path fill="none" stroke="black" d="M1641.99,-69.7C1627.42,-74.86 1613.03,-82.29 1602,-93 1571.43,-122.68 1600.79,-154.64 1569,-183 1539.62,-209.21 1440.73,-228.83 1368.55,-240.1"/>
<polygon fill="black" stroke="black" points="1367.91,-236.65 1358.56,-241.63 1368.97,-243.57 1367.91,-236.65"/>
</g>
<!-- DomainPredicate&#45;&gt;CDomain -->
<g id="edge31" class="edge">
<title>DomainPredicate&#45;&gt;CDomain</title>
<path fill="none" stroke="black" stroke-dasharray="5,2" d="M1703.43,-75.03C1697.53,-100.33 1683.96,-148.55 1660,-183 1637.95,-214.71 1597.56,-231.82 1563.82,-240.95"/>
<polygon fill="black" stroke="black" points="1562.88,-237.58 1554.05,-243.42 1564.6,-244.36 1562.88,-237.58"/>
<text text-anchor="middle" x="1703.5" y="-161.3" font-family="Times,serif" font-size="14.00">use</text>
</g>
<!-- DigitalSetByAssociativeContainer -->
<g id="node28" class="node">
<title>DigitalSetByAssociativeContainer</title>
<g id="a_node28"><a xlink:href="classDGtal_1_1DigitalSetByAssociativeContainer.html" target="_top" xlink:title="DigitalSetByAssociativeContainer">
<ellipse fill="white" stroke="white" cx="521" cy="-57" rx="167.87" ry="18"/>
<text text-anchor="middle" x="521" y="-53.3" font-family="Times,serif" font-size="14.00">DigitalSetByAssociativeContainer</text>
</a>
</g>
</g>
<!-- DigitalSetByAssociativeContainer&#45;&gt;CSTLAssociativeContainer -->
<g id="edge28" class="edge">
<title>DigitalSetByAssociativeContainer&#45;&gt;CSTLAssociativeContainer</title>
<path fill="none" stroke="black" stroke-dasharray="5,2" d="M577.25,-73.98C644.99,-93.23 758.52,-125.5 829.67,-145.72"/>
<polygon fill="black" stroke="black" points="828.85,-149.12 839.42,-148.49 830.76,-142.39 828.85,-149.12"/>
<text text-anchor="middle" x="708.5" y="-96.8" font-family="Times,serif" font-size="14.00">use</text>
</g>
<!-- DigitalSetByAssociativeContainer&#45;&gt;CDigitalSet -->
<g id="edge27" class="edge">
<title>DigitalSetByAssociativeContainer&#45;&gt;CDigitalSet</title>
<path fill="none" stroke="black" d="M614.07,-72.01C640.81,-75.82 670.03,-79.78 697,-83 697.29,-83.04 1036.72,-115.9 1037,-116 1053.43,-121.8 1069.81,-132.05 1082.88,-141.6"/>
<polygon fill="black" stroke="black" points="1080.87,-144.47 1090.95,-147.72 1085.09,-138.89 1080.87,-144.47"/>
</g>
<!-- SetPredicate -->
<g id="node29" class="node">
<title>SetPredicate</title>
<ellipse fill="none" stroke="black" cx="2013" cy="-57" rx="70.69" ry="18"/>
<text text-anchor="middle" x="2013" y="-53.3" font-family="Times,serif" font-size="14.00">SetPredicate</text>
</g>
<!-- SetPredicate&#45;&gt;CPointPredicate -->
<g id="edge30" class="edge">
<title>SetPredicate&#45;&gt;CPointPredicate</title>
<path fill="none" stroke="black" d="M1983.08,-73.57C1931.01,-100.01 1819.75,-153.68 1720,-183 1636.09,-207.66 1612.38,-202.3 1526,-216 1473.06,-224.39 1413.39,-233.17 1367.04,-239.83"/>
<polygon fill="black" stroke="black" points="1366.46,-236.38 1357.06,-241.26 1367.46,-243.31 1366.46,-236.38"/>
</g>
<!-- SetPredicate&#45;&gt;CDigitalSet -->
<g id="edge29" class="edge">
<title>SetPredicate&#45;&gt;CDigitalSet</title>
<path fill="none" stroke="black" stroke-dasharray="5,2" d="M1975.53,-72.41C1963.13,-76.57 1949.14,-80.62 1936,-83 1853.59,-97.9 1262.69,-90.24 1183,-116 1166.31,-121.4 1149.8,-131.72 1136.71,-141.41"/>
<polygon fill="black" stroke="black" points="1134.42,-138.75 1128.64,-147.63 1138.7,-144.3 1134.42,-138.75"/>
<text text-anchor="middle" x="1689.5" y="-96.8" font-family="Times,serif" font-size="14.00">use</text>
</g>
</g>
</svg>

<g id="navigator" transform="translate(0 0)" fill="#404254">
  <rect fill="#f2f5e9" fill-opacity="0.5" stroke="#606060" stroke-width=".5" x="0" y="0" width="60" height="60"/>
  <use id="zoomplus" xlink:href="#zoomPlus" x="17" y="9" onmousedown="handleZoom(evt,'in')"/>
  <use id="zoomminus" xlink:href="#zoomMin" x="42" y="9" onmousedown="handleZoom(evt,'out')"/>
  <use id="reset" xlink:href="#resetDef" x="30" y="36" onmousedown="handleReset()"/>
   <use id="arrowup" xlink:href="#arrowUp" x="0" y="0" onmousedown="handlePan(0,-1)"/>
  <use id="arrowright" xlink:href="#arrowRight" x="0" y="0" onmousedown="handlePan(1,0)"/>
  <use id="arrowdown" xlink:href="#arrowDown" x="0" y="0" onmousedown="handlePan(0,1)"/>
  <use id="arrowleft" xlink:href="#arrowLeft" x="0" y="0" onmousedown="handlePan(-1,0)"/>
</g>
<svg viewBox="0 0 15 15" width="100%" height="30px" preserveAspectRatio="xMaxYMin meet">
 <g id="arrow_out" transform="scale(0.3 0.3)">
  <a xlink:href="dot_inline_dotgraph_11_org.svg" target="_base">
   <rect id="button" ry="5" rx="5" y="6" x="6" height="38" width="38"
        fill="#f2f5e9" fill-opacity="0.5" stroke="#606060" stroke-width="1.0"/>
   <path id="arrow"
     d="M 11.500037,31.436501 C 11.940474,20.09759 22.043105,11.32322 32.158766,21.979434 L 37.068811,17.246167 C 37.068811,17.246167 37.088388,32 37.088388,32 L 22.160133,31.978069 C 22.160133,31.978069 26.997745,27.140456 26.997745,27.140456 C 18.528582,18.264221 13.291696,25.230495 11.500037,31.436501 z"
     style="fill:#404040;"/>
  </a>
 </g>
</svg>

<style type='text/css'>
<![CDATA[
[data-mouse-over-selected='false'] { opacity: 0.7; }
[data-mouse-over-selected='true']  { opacity: 1.0; }
]]>
</style>
<script type="application/ecmascript"><![CDATA[
document.addEventListener('DOMContentLoaded', (event) => {
  highlightEdges();
  highlightAdjacentNodes();
});
]]></script>
</svg>
