<?xml version="1.0" encoding="UTF-8" standalone="no"?>
<!DOCTYPE svg PUBLIC "-//W3C//DTD SVG 1.1//EN"
 "http://www.w3.org/Graphics/SVG/1.1/DTD/svg11.dtd">
<!-- Generated by graphviz version 2.43.0 (0)
 -->
<!-- Title: Graphical Class Hierarchy Pages: 1 -->
<svg width="382pt" height="76pt"
 viewBox="0.00 0.00 382.00 75.50" xmlns="http://www.w3.org/2000/svg" xmlns:xlink="http://www.w3.org/1999/xlink">
<g id="graph0" class="graph" transform="scale(1 1) rotate(0) translate(4 71.5)">
<title>Graphical Class Hierarchy</title>
<!-- Node0 -->
<g id="Node000000" class="node">
<title>Node0</title>
<g id="a_Node000000"><a xlink:title=" ">
<polygon fill="#e0e0e0" stroke="#999999" points="128,-45.5 0,-45.5 0,-15.5 128,-15.5 128,-45.5"/>
<text text-anchor="start" x="8" y="-33.5" font-family="FreeSans" font-size="10.00">boost::forward_iterator</text>
<text text-anchor="middle" x="64" y="-22.5" font-family="FreeSans" font-size="10.00">_archetype</text>
</a>
</g>
</g>
<!-- Node1 -->
<g id="Node000001" class="node">
<title>Node1</title>
<g id="a_Node000001"><a xlink:href="structDGtal_1_1CForwardIteratorArchetype.html" target="_top" xlink:title=" ">
<polygon fill="white" stroke="#666666" points="360,-67.5 178,-67.5 178,-37.5 360,-37.5 360,-67.5"/>
<text text-anchor="start" x="186" y="-55.5" font-family="FreeSans" font-size="10.00">DGtal::CForwardIteratorArchetype</text>
<text text-anchor="middle" x="269" y="-44.5" font-family="FreeSans" font-size="10.00">&lt; Point &gt;</text>
</a>
</g>
</g>
<!-- Node0&#45;&gt;Node1 -->
<g id="edge151_Node000000_Node000001" class="edge">
<title>Node0&#45;&gt;Node1</title>
<g id="a_edge151_Node000000_Node000001"><a xlink:title=" ">
<path fill="none" stroke="#63b8ff" d="M138.24,-38.44C151.05,-39.83 164.51,-41.28 177.72,-42.72"/>
<polygon fill="#63b8ff" stroke="#63b8ff" points="138.44,-34.94 128.12,-37.34 137.68,-41.9 138.44,-34.94"/>
</a>
</g>
</g>
<!-- Node2 -->
<g id="Node000002" class="node">
<title>Node2</title>
<g id="a_Node000002"><a xlink:href="structDGtal_1_1CForwardIteratorArchetype.html" target="_top" xlink:title="An archetype of ForwardIterator.">
<polygon fill="white" stroke="#666666" points="374,-19 164,-19 164,0 374,0 374,-19"/>
<text text-anchor="middle" x="269" y="-7" font-family="FreeSans" font-size="10.00">DGtal::CForwardIteratorArchetype&lt; T &gt;</text>
</a>
</g>
</g>
<!-- Node0&#45;&gt;Node2 -->
<g id="edge152_Node000000_Node000002" class="edge">
<title>Node0&#45;&gt;Node2</title>
<g id="a_edge152_Node000000_Node000002"><a xlink:title=" ">
<path fill="none" stroke="#63b8ff" d="M138.22,-22.93C150.44,-21.66 163.25,-20.34 175.86,-19.03"/>
<polygon fill="#63b8ff" stroke="#63b8ff" points="137.7,-19.46 128.12,-23.97 138.42,-26.42 137.7,-19.46"/>
</a>
</g>
</g>
</g>
</svg>
