<?xml version="1.0" encoding="UTF-8" standalone="no"?>
<!DOCTYPE svg PUBLIC "-//W3C//DTD SVG 1.1//EN"
 "http://www.w3.org/Graphics/SVG/1.1/DTD/svg11.dtd">
<!-- Generated by graphviz version 2.43.0 (0)
 -->
<!-- Title: Graphical Class Hierarchy Pages: 1 -->
<svg width="324pt" height="64pt"
 viewBox="0.00 0.00 324.00 64.00" xmlns="http://www.w3.org/2000/svg" xmlns:xlink="http://www.w3.org/1999/xlink">
<g id="graph0" class="graph" transform="scale(1 1) rotate(0) translate(4 60)">
<title>Graphical Class Hierarchy</title>
<!-- Node0 -->
<g id="Node000000" class="node">
<title>Node0</title>
<g id="a_Node000000"><a xlink:href="structDGtal_1_1DrawWithBoardModifier.html" target="_top" xlink:title=" ">
<polygon fill="white" stroke="#666666" points="167,-37 0,-37 0,-18 167,-18 167,-37"/>
<text text-anchor="middle" x="83.5" y="-25" font-family="FreeSans" font-size="10.00">DGtal::DrawWithBoardModifier</text>
</a>
</g>
</g>
<!-- Node1 -->
<g id="Node000001" class="node">
<title>Node1</title>
<g id="a_Node000001"><a xlink:href="structDGtal_1_1CustomStyle.html" target="_top" xlink:title=" ">
<polygon fill="white" stroke="#666666" points="316,-56 203,-56 203,-37 316,-37 316,-56"/>
<text text-anchor="middle" x="259.5" y="-44" font-family="FreeSans" font-size="10.00">DGtal::CustomStyle</text>
</a>
</g>
</g>
<!-- Node0&#45;&gt;Node1 -->
<g id="edge258_Node000000_Node000001" class="edge">
<title>Node0&#45;&gt;Node1</title>
<g id="a_edge258_Node000000_Node000001"><a xlink:title=" ">
<path fill="none" stroke="#63b8ff" d="M177.38,-37.64C186.07,-38.59 194.68,-39.53 202.87,-40.43"/>
<polygon fill="#63b8ff" stroke="#63b8ff" points="177.49,-34.13 167.17,-36.53 176.73,-41.09 177.49,-34.13"/>
</a>
</g>
</g>
<!-- Node2 -->
<g id="Node000002" class="node">
<title>Node2</title>
<g id="a_Node000002"><a xlink:href="structDGtal_1_1SetMode.html" target="_top" xlink:title="Modifier class in a Board2D stream. Useful to choose your own mode for a given class....">
<polygon fill="white" stroke="#666666" points="306,-19 213,-19 213,0 306,0 306,-19"/>
<text text-anchor="middle" x="259.5" y="-7" font-family="FreeSans" font-size="10.00">DGtal::SetMode</text>
</a>
</g>
</g>
<!-- Node0&#45;&gt;Node2 -->
<g id="edge259_Node000000_Node000002" class="edge">
<title>Node0&#45;&gt;Node2</title>
<g id="a_edge259_Node000000_Node000002"><a xlink:title=" ">
<path fill="none" stroke="#63b8ff" d="M177.42,-17.89C189.6,-16.63 201.63,-15.38 212.54,-14.25"/>
<polygon fill="#63b8ff" stroke="#63b8ff" points="176.76,-14.44 167.17,-18.95 177.48,-21.4 176.76,-14.44"/>
</a>
</g>
</g>
</g>
</svg>
