<?xml version="1.0" encoding="UTF-8" standalone="no"?>
<!DOCTYPE svg PUBLIC "-//W3C//DTD SVG 1.1//EN"
 "http://www.w3.org/Graphics/SVG/1.1/DTD/svg11.dtd">
<!-- Generated by graphviz version 2.43.0 (0)
 -->
<!-- Title: Graphical Class Hierarchy Pages: 1 -->
<svg width="331pt" height="122pt"
 viewBox="0.00 0.00 331.00 121.50" xmlns="http://www.w3.org/2000/svg" xmlns:xlink="http://www.w3.org/1999/xlink">
<g id="graph0" class="graph" transform="scale(1 1) rotate(0) translate(4 117.5)">
<title>Graphical Class Hierarchy</title>
<polygon fill="white" stroke="transparent" points="-4,4 -4,-117.5 327,-117.5 327,4 -4,4"/>
<!-- Node83 -->
<g id="node1" class="node">
<title>Node83</title>
<g id="a_node1"><a xlink:title=" ">
<polygon fill="white" stroke="#bfbfbf" points="0,-50 0,-69 63,-69 63,-50 0,-50"/>
<text text-anchor="middle" x="31.5" y="-57" font-family="FreeSans" font-size="10.00">true_type</text>
</a>
</g>
</g>
<!-- Node0 -->
<g id="node2" class="node">
<title>Node0</title>
<g id="a_node2"><a xlink:href="structDGtal_1_1IsAPointVector_3_01PointVector_3_01dim_00_01TEuclideanRing_00_01TContainer_01_4_01_4.html" target="_top" xlink:title="Specialization of IsAPointVector for a PointVector.">
<polygon fill="white" stroke="black" points="124.5,-72 124.5,-113 297.5,-113 297.5,-72 124.5,-72"/>
<text text-anchor="start" x="132.5" y="-101" font-family="FreeSans" font-size="10.00">DGtal::IsAPointVector</text>
<text text-anchor="start" x="132.5" y="-90" font-family="FreeSans" font-size="10.00">&lt; PointVector&lt; dim, TEuclidean</text>
<text text-anchor="middle" x="211" y="-79" font-family="FreeSans" font-size="10.00">Ring, TContainer &gt; &gt;</text>
</a>
</g>
</g>
<!-- Node83&#45;&gt;Node0 -->
<g id="edge1" class="edge">
<title>Node83&#45;&gt;Node0</title>
<path fill="none" stroke="midnightblue" d="M73.11,-67.05C88.37,-69.89 106.36,-73.23 124.19,-76.55"/>
<polygon fill="midnightblue" stroke="midnightblue" points="73.48,-63.56 63.01,-65.17 72.21,-70.44 73.48,-63.56"/>
</g>
<!-- Node85 -->
<g id="node3" class="node">
<title>Node85</title>
<g id="a_node3"><a xlink:href="structDGtal_1_1IsArithmeticConversionValid_3_01T_00_01U_00_01typename_01std_1_1conditional_3_01f3d12afaad57391e67b8a4fff74de6483.html" target="_top" xlink:title="Specialization when arithmetic operation between the two given type is valid.">
<polygon fill="white" stroke="black" points="99,-0.5 99,-52.5 323,-52.5 323,-0.5 99,-0.5"/>
<text text-anchor="start" x="107" y="-40.5" font-family="FreeSans" font-size="10.00">DGtal::IsArithmeticConversion</text>
<text text-anchor="start" x="107" y="-29.5" font-family="FreeSans" font-size="10.00">Valid&lt; T, U, typename std</text>
<text text-anchor="start" x="107" y="-18.5" font-family="FreeSans" font-size="10.00">::conditional&lt; false, ArithmeticConversion</text>
<text text-anchor="middle" x="211" y="-7.5" font-family="FreeSans" font-size="10.00">Type&lt; T, U &gt;, void &gt;::type &gt;</text>
</a>
</g>
</g>
<!-- Node83&#45;&gt;Node85 -->
<g id="edge2" class="edge">
<title>Node83&#45;&gt;Node85</title>
<path fill="none" stroke="midnightblue" d="M73.02,-51.97C80.99,-50.48 89.71,-48.86 98.75,-47.18"/>
<polygon fill="midnightblue" stroke="midnightblue" points="72.21,-48.56 63.01,-53.83 73.48,-55.44 72.21,-48.56"/>
</g>
</g>
</svg>
