<?xml version="1.0" encoding="UTF-8" standalone="no"?>
<!DOCTYPE svg PUBLIC "-//W3C//DTD SVG 1.1//EN"
 "http://www.w3.org/Graphics/SVG/1.1/DTD/svg11.dtd">
<!-- Generated by graphviz version 2.43.0 (0)
 -->
<!-- Title: Graphical Class Hierarchy Pages: 1 -->
<svg width="329pt" height="134pt"
 viewBox="0.00 0.00 329.00 134.00" xmlns="http://www.w3.org/2000/svg" xmlns:xlink="http://www.w3.org/1999/xlink">
<g id="graph0" class="graph" transform="scale(1 1) rotate(0) translate(4 130)">
<title>Graphical Class Hierarchy</title>
<!-- Node0 -->
<g id="Node000000" class="node">
<title>Node0</title>
<g id="a_Node000000"><a xlink:title=" ">
<polygon fill="#e0e0e0" stroke="#999999" points="97,-72.5 0,-72.5 0,-53.5 97,-53.5 97,-72.5"/>
<text text-anchor="middle" x="48.5" y="-60.5" font-family="FreeSans" font-size="10.00">std::vector&lt; T &gt;</text>
</a>
</g>
</g>
<!-- Node1 -->
<g id="Node000001" class="node">
<title>Node1</title>
<g id="a_Node000001"><a xlink:href="classDGtal_1_1ImageContainerBySTLVector.html" target="_top" xlink:title=" ">
<polygon fill="white" stroke="#666666" points="321,-126 133,-126 133,-96 321,-96 321,-126"/>
<text text-anchor="start" x="141" y="-114" font-family="FreeSans" font-size="10.00">DGtal::ImageContainerBySTLVector</text>
<text text-anchor="middle" x="227" y="-103" font-family="FreeSans" font-size="10.00">&lt; Domain, Value &gt;</text>
</a>
</g>
</g>
<!-- Node0&#45;&gt;Node1 -->
<g id="edge333_Node000000_Node000001" class="edge">
<title>Node0&#45;&gt;Node1</title>
<g id="a_edge333_Node000000_Node000001"><a xlink:title=" ">
<path fill="none" stroke="#63b8ff" d="M91.73,-75.38C104.92,-79.18 119.55,-83.33 133,-87 143.78,-89.94 155.29,-92.98 166.4,-95.88"/>
<polygon fill="#63b8ff" stroke="#63b8ff" points="92.54,-71.97 81.96,-72.55 90.59,-78.69 92.54,-71.97"/>
</a>
</g>
</g>
<!-- Node2 -->
<g id="Node000002" class="node">
<title>Node2</title>
<g id="a_Node000002"><a xlink:href="classDGtal_1_1ImageContainerBySTLVector.html" target="_top" xlink:title=" ">
<polygon fill="white" stroke="#666666" points="321,-78 133,-78 133,-48 321,-48 321,-78"/>
<text text-anchor="start" x="141" y="-66" font-family="FreeSans" font-size="10.00">DGtal::ImageContainerBySTLVector</text>
<text text-anchor="middle" x="227" y="-55" font-family="FreeSans" font-size="10.00">&lt; Domain, Storage * &gt;</text>
</a>
</g>
</g>
<!-- Node0&#45;&gt;Node2 -->
<g id="edge334_Node000000_Node000002" class="edge">
<title>Node0&#45;&gt;Node2</title>
<g id="a_edge334_Node000000_Node000002"><a xlink:title=" ">
<path fill="none" stroke="#63b8ff" d="M107.44,-63C115.66,-63 124.28,-63 132.97,-63"/>
<polygon fill="#63b8ff" stroke="#63b8ff" points="107.26,-59.5 97.26,-63 107.26,-66.5 107.26,-59.5"/>
</a>
</g>
</g>
<!-- Node3 -->
<g id="Node000003" class="node">
<title>Node3</title>
<g id="a_Node000003"><a xlink:href="classDGtal_1_1ImageContainerBySTLVector.html" target="_top" xlink:title=" ">
<polygon fill="white" stroke="#666666" points="321,-30 133,-30 133,0 321,0 321,-30"/>
<text text-anchor="start" x="141" y="-18" font-family="FreeSans" font-size="10.00">DGtal::ImageContainerBySTLVector</text>
<text text-anchor="middle" x="227" y="-7" font-family="FreeSans" font-size="10.00">&lt; TDomain, TValue &gt;</text>
</a>
</g>
</g>
<!-- Node0&#45;&gt;Node3 -->
<g id="edge335_Node000000_Node000003" class="edge">
<title>Node0&#45;&gt;Node3</title>
<g id="a_edge335_Node000000_Node000003"><a xlink:title=" ">
<path fill="none" stroke="#63b8ff" d="M91.73,-50.62C104.92,-46.82 119.55,-42.67 133,-39 143.78,-36.06 155.29,-33.02 166.4,-30.12"/>
<polygon fill="#63b8ff" stroke="#63b8ff" points="90.59,-47.31 81.96,-53.45 92.54,-54.03 90.59,-47.31"/>
</a>
</g>
</g>
</g>
</svg>
