<?xml version="1.0" encoding="UTF-8" standalone="no"?>
<!DOCTYPE svg PUBLIC "-//W3C//DTD SVG 1.1//EN"
 "http://www.w3.org/Graphics/SVG/1.1/DTD/svg11.dtd">
<!-- Generated by graphviz version 2.43.0 (0)
 -->
<!-- Title: Graphical Class Hierarchy Pages: 1 -->
<svg width="319pt" height="280pt"
 viewBox="0.00 0.00 319.00 279.50" xmlns="http://www.w3.org/2000/svg" xmlns:xlink="http://www.w3.org/1999/xlink">
<g id="graph0" class="graph" transform="scale(1 1) rotate(0) translate(4 275.5)">
<title>Graphical Class Hierarchy</title>
<polygon fill="white" stroke="transparent" points="-4,4 -4,-275.5 315,-275.5 315,4 -4,4"/>
<!-- Node0 -->
<g id="node1" class="node">
<title>Node0</title>
<g id="a_node1"><a xlink:href="classDGtal_1_1StarShaped2D.html" target="_top" xlink:title=" ">
<polygon fill="white" stroke="black" points="0,-121 0,-151 119,-151 119,-121 0,-121"/>
<text text-anchor="start" x="8" y="-139" font-family="FreeSans" font-size="10.00">DGtal::StarShaped2D</text>
<text text-anchor="middle" x="59.5" y="-128" font-family="FreeSans" font-size="10.00">&lt; TSpace &gt;</text>
</a>
</g>
</g>
<!-- Node1 -->
<g id="node2" class="node">
<title>Node1</title>
<g id="a_node2"><a xlink:href="classDGtal_1_1AccFlower2D.html" target="_top" xlink:title="Aim: Model of the concept StarShaped represents any accelerated flower in the plane.">
<polygon fill="white" stroke="black" points="176,-241 176,-271 290,-271 290,-241 176,-241"/>
<text text-anchor="start" x="184" y="-259" font-family="FreeSans" font-size="10.00">DGtal::AccFlower2D</text>
<text text-anchor="middle" x="233" y="-248" font-family="FreeSans" font-size="10.00">&lt; TSpace &gt;</text>
</a>
</g>
</g>
<!-- Node0&#45;&gt;Node1 -->
<g id="edge1" class="edge">
<title>Node0&#45;&gt;Node1</title>
<path fill="none" stroke="midnightblue" d="M77.96,-159C95.34,-180.42 123.85,-211.86 155,-231 161.47,-234.97 168.63,-238.38 175.91,-241.29"/>
<polygon fill="midnightblue" stroke="midnightblue" points="80.61,-156.7 71.65,-151.05 75.12,-161.05 80.61,-156.7"/>
</g>
<!-- Node2 -->
<g id="node3" class="node">
<title>Node2</title>
<g id="a_node3"><a xlink:href="classDGtal_1_1Astroid2D.html" target="_top" xlink:title="Aim: Model of the concept StarShaped represents an astroid.">
<polygon fill="white" stroke="black" points="155,-202.5 155,-221.5 311,-221.5 311,-202.5 155,-202.5"/>
<text text-anchor="middle" x="233" y="-209.5" font-family="FreeSans" font-size="10.00">DGtal::Astroid2D&lt; TSpace &gt;</text>
</a>
</g>
</g>
<!-- Node0&#45;&gt;Node2 -->
<g id="edge2" class="edge">
<title>Node0&#45;&gt;Node2</title>
<path fill="none" stroke="midnightblue" d="M89.66,-156.74C107.74,-168.79 131.87,-183.43 155,-193 164.03,-196.74 173.98,-199.86 183.64,-202.43"/>
<polygon fill="midnightblue" stroke="midnightblue" points="91.53,-153.78 81.29,-151.07 87.6,-159.58 91.53,-153.78"/>
</g>
<!-- Node3 -->
<g id="node4" class="node">
<title>Node3</title>
<g id="a_node4"><a xlink:href="classDGtal_1_1Ball2D.html" target="_top" xlink:title="Aim: Model of the concept StarShaped represents any circle in the plane.">
<polygon fill="white" stroke="black" points="163,-164.5 163,-183.5 303,-183.5 303,-164.5 163,-164.5"/>
<text text-anchor="middle" x="233" y="-171.5" font-family="FreeSans" font-size="10.00">DGtal::Ball2D&lt; TSpace &gt;</text>
</a>
</g>
</g>
<!-- Node0&#45;&gt;Node3 -->
<g id="edge3" class="edge">
<title>Node0&#45;&gt;Node3</title>
<path fill="none" stroke="midnightblue" d="M128.85,-151.15C149.1,-155.63 170.7,-160.42 188.88,-164.45"/>
<polygon fill="midnightblue" stroke="midnightblue" points="129.56,-147.72 119.04,-148.97 128.05,-154.55 129.56,-147.72"/>
</g>
<!-- Node4 -->
<g id="node5" class="node">
<title>Node4</title>
<g id="a_node5"><a xlink:href="classDGtal_1_1Ellipse2D.html" target="_top" xlink:title="Aim: Model of the concept StarShaped represents any ellipse in the plane.">
<polygon fill="white" stroke="black" points="156,-126.5 156,-145.5 310,-145.5 310,-126.5 156,-126.5"/>
<text text-anchor="middle" x="233" y="-133.5" font-family="FreeSans" font-size="10.00">DGtal::Ellipse2D&lt; TSpace &gt;</text>
</a>
</g>
</g>
<!-- Node0&#45;&gt;Node4 -->
<g id="edge4" class="edge">
<title>Node0&#45;&gt;Node4</title>
<path fill="none" stroke="midnightblue" d="M129.19,-136C137.95,-136 146.96,-136 155.83,-136"/>
<polygon fill="midnightblue" stroke="midnightblue" points="129.04,-132.5 119.04,-136 129.04,-139.5 129.04,-132.5"/>
</g>
<!-- Node5 -->
<g id="node6" class="node">
<title>Node5</title>
<g id="a_node6"><a xlink:href="classDGtal_1_1Flower2D.html" target="_top" xlink:title="Aim: Model of the concept StarShaped represents any flower with k&#45;petals in the plane.">
<polygon fill="white" stroke="black" points="155.5,-88.5 155.5,-107.5 310.5,-107.5 310.5,-88.5 155.5,-88.5"/>
<text text-anchor="middle" x="233" y="-95.5" font-family="FreeSans" font-size="10.00">DGtal::Flower2D&lt; TSpace &gt;</text>
</a>
</g>
</g>
<!-- Node0&#45;&gt;Node5 -->
<g id="edge5" class="edge">
<title>Node0&#45;&gt;Node5</title>
<path fill="none" stroke="midnightblue" d="M128.85,-120.85C149.1,-116.37 170.7,-111.58 188.88,-107.55"/>
<polygon fill="midnightblue" stroke="midnightblue" points="128.05,-117.45 119.04,-123.03 129.56,-124.28 128.05,-117.45"/>
</g>
<!-- Node6 -->
<g id="node7" class="node">
<title>Node6</title>
<g id="a_node7"><a xlink:href="classDGtal_1_1Lemniscate2D.html" target="_top" xlink:title="Aim: Model of the concept StarShaped represents a lemniscate.">
<polygon fill="white" stroke="black" points="173,-39 173,-69 293,-69 293,-39 173,-39"/>
<text text-anchor="start" x="181" y="-57" font-family="FreeSans" font-size="10.00">DGtal::Lemniscate2D</text>
<text text-anchor="middle" x="233" y="-46" font-family="FreeSans" font-size="10.00">&lt; TSpace &gt;</text>
</a>
</g>
</g>
<!-- Node0&#45;&gt;Node6 -->
<g id="edge6" class="edge">
<title>Node0&#45;&gt;Node6</title>
<path fill="none" stroke="midnightblue" d="M90.64,-115.39C108.73,-103.64 132.53,-89.26 155,-79 162.93,-75.38 171.53,-72.05 180.02,-69.08"/>
<polygon fill="midnightblue" stroke="midnightblue" points="88.67,-112.49 82.24,-120.92 92.52,-118.34 88.67,-112.49"/>
</g>
<!-- Node7 -->
<g id="node8" class="node">
<title>Node7</title>
<g id="a_node8"><a xlink:href="classDGtal_1_1NGon2D.html" target="_top" xlink:title="Aim: Model of the concept StarShaped represents any regular k&#45;gon in the plane.">
<polygon fill="white" stroke="black" points="158.5,-0.5 158.5,-19.5 307.5,-19.5 307.5,-0.5 158.5,-0.5"/>
<text text-anchor="middle" x="233" y="-7.5" font-family="FreeSans" font-size="10.00">DGtal::NGon2D&lt; TSpace &gt;</text>
</a>
</g>
</g>
<!-- Node0&#45;&gt;Node7 -->
<g id="edge7" class="edge">
<title>Node0&#45;&gt;Node7</title>
<path fill="none" stroke="midnightblue" d="M75.5,-112.16C92.03,-87.86 120.86,-50.86 155,-30 162.07,-25.68 170.06,-22.29 178.14,-19.62"/>
<polygon fill="midnightblue" stroke="midnightblue" points="72.38,-110.53 69.78,-120.8 78.22,-114.39 72.38,-110.53"/>
</g>
</g>
</svg>
