<?xml version="1.0" encoding="UTF-8" standalone="no"?>
<!DOCTYPE svg PUBLIC "-//W3C//DTD SVG 1.1//EN"
 "http://www.w3.org/Graphics/SVG/1.1/DTD/svg11.dtd">
<!-- Generated by graphviz version 2.43.0 (0)
 -->
<!-- Title: Graphical Class Hierarchy Pages: 1 -->
<svg width="324pt" height="98pt"
 viewBox="0.00 0.00 324.00 97.50" xmlns="http://www.w3.org/2000/svg" xmlns:xlink="http://www.w3.org/1999/xlink">
<g id="graph0" class="graph" transform="scale(1 1) rotate(0) translate(4 93.5)">
<title>Graphical Class Hierarchy</title>
<!-- Node0 -->
<g id="Node000000" class="node">
<title>Node0</title>
<g id="a_Node000000"><a xlink:title=" ">
<polygon fill="#e0e0e0" stroke="#999999" points="128,-51.5 0,-51.5 0,-32.5 128,-32.5 128,-51.5"/>
<text text-anchor="middle" x="64" y="-39.5" font-family="FreeSans" font-size="10.00">boost::iterator_adaptor</text>
</a>
</g>
</g>
<!-- Node1 -->
<g id="Node000001" class="node">
<title>Node1</title>
<g id="a_Node000001"><a xlink:href="classDGtal_1_1ConstIteratorAdapter.html" target="_top" xlink:title="This class adapts any iterator so that operator* returns another element than the one pointed to by t...">
<polygon fill="white" stroke="#666666" points="316,-89.5 164,-89.5 164,-48.5 316,-48.5 316,-89.5"/>
<text text-anchor="start" x="172" y="-77.5" font-family="FreeSans" font-size="10.00">DGtal::ConstIteratorAdapter</text>
<text text-anchor="start" x="172" y="-66.5" font-family="FreeSans" font-size="10.00">&lt; TIterator, TLightFunctor,</text>
<text text-anchor="middle" x="240" y="-55.5" font-family="FreeSans" font-size="10.00"> TReturnType &gt;</text>
</a>
</g>
</g>
<!-- Node0&#45;&gt;Node1 -->
<g id="edge154_Node000000_Node000001" class="edge">
<title>Node0&#45;&gt;Node1</title>
<g id="a_edge154_Node000000_Node000001"><a xlink:title=" ">
<path fill="none" stroke="#63b8ff" d="M136.44,-53.09C145.49,-54.49 154.77,-55.93 163.87,-57.34"/>
<polygon fill="#63b8ff" stroke="#63b8ff" points="136.76,-49.59 126.35,-51.52 135.69,-56.51 136.76,-49.59"/>
</a>
</g>
</g>
<!-- Node2 -->
<g id="Node000002" class="node">
<title>Node2</title>
<g id="a_Node000002"><a xlink:href="classDGtal_1_1ReverseIterator.html" target="_top" xlink:title="This class adapts any bidirectional iterator so that operator++ calls operator&#45;&#45; and vice versa.">
<polygon fill="white" stroke="#666666" points="303,-30 177,-30 177,0 303,0 303,-30"/>
<text text-anchor="start" x="185" y="-18" font-family="FreeSans" font-size="10.00">DGtal::ReverseIterator</text>
<text text-anchor="middle" x="240" y="-7" font-family="FreeSans" font-size="10.00">&lt; Iterator &gt;</text>
</a>
</g>
</g>
<!-- Node0&#45;&gt;Node2 -->
<g id="edge155_Node000000_Node000002" class="edge">
<title>Node0&#45;&gt;Node2</title>
<g id="a_edge155_Node000000_Node000002"><a xlink:title=" ">
<path fill="none" stroke="#63b8ff" d="M136.45,-30.91C149.81,-28.84 163.68,-26.69 176.74,-24.66"/>
<polygon fill="#63b8ff" stroke="#63b8ff" points="135.69,-27.49 126.35,-32.48 136.76,-34.41 135.69,-27.49"/>
</a>
</g>
</g>
</g>
</svg>
