<?xml version="1.0" encoding="UTF-8" standalone="no"?>
<!DOCTYPE svg PUBLIC "-//W3C//DTD SVG 1.1//EN"
 "http://www.w3.org/Graphics/SVG/1.1/DTD/svg11.dtd">
<!-- Generated by graphviz version 2.43.0 (0)
 -->
<!-- Title: Graphical Class Hierarchy Pages: 1 -->
<svg width="324pt" height="963pt"
 viewBox="0.00 0.00 324.00 963.00" xmlns="http://www.w3.org/2000/svg" xmlns:xlink="http://www.w3.org/1999/xlink">
<g id="graph0" class="graph" transform="scale(1 1) rotate(0) translate(4 959)">
<title>Graphical Class Hierarchy</title>
<polygon fill="white" stroke="transparent" points="-4,4 -4,-959 320,-959 320,4 -4,4"/>
<!-- Node640 -->
<g id="node1" class="node">
<title>Node640</title>
<g id="a_node1"><a xlink:title=" ">
<polygon fill="white" stroke="#bfbfbf" points="0,-437 0,-456 91,-456 91,-437 0,-437"/>
<text text-anchor="middle" x="45.5" y="-444" font-family="FreeSans" font-size="10.00">iterator_facade</text>
</a>
</g>
</g>
<!-- Node0 -->
<g id="node2" class="node">
<title>Node0</title>
<g id="a_node2"><a xlink:href="classboost_1_1graph__traits_3_01DGtal_1_1DigitalSurface_3_01TDigitalSurfaceContainer_01_4_01_4_1_1adjacency__iterator.html" target="_top" xlink:title=" ">
<polygon fill="white" stroke="black" points="146.5,-902.5 146.5,-954.5 296.5,-954.5 296.5,-902.5 146.5,-902.5"/>
<text text-anchor="start" x="154.5" y="-942.5" font-family="FreeSans" font-size="10.00">boost::graph_traits</text>
<text text-anchor="start" x="154.5" y="-931.5" font-family="FreeSans" font-size="10.00">&lt; DGtal::DigitalSurface</text>
<text text-anchor="start" x="154.5" y="-920.5" font-family="FreeSans" font-size="10.00">&lt; TDigitalSurfaceContainer</text>
<text text-anchor="middle" x="221.5" y="-909.5" font-family="FreeSans" font-size="10.00"> &gt; &gt;::adjacency_iterator</text>
</a>
</g>
</g>
<!-- Node640&#45;&gt;Node0 -->
<g id="edge1" class="edge">
<title>Node640&#45;&gt;Node0</title>
<path fill="none" stroke="midnightblue" d="M47.52,-466.37C51.88,-544.14 71.38,-826.84 127,-893.5 132.33,-899.89 138.95,-905.11 146.19,-909.38"/>
<polygon fill="midnightblue" stroke="midnightblue" points="51,-465.87 46.96,-456.07 44.01,-466.25 51,-465.87"/>
</g>
<!-- Node642 -->
<g id="node3" class="node">
<title>Node642</title>
<g id="a_node3"><a xlink:href="classboost_1_1graph__traits_3_01DGtal_1_1DigitalSurface_3_01TDigitalSurfaceContainer_01_4_01_4_1_1edge__iterator.html" target="_top" xlink:title=" ">
<polygon fill="white" stroke="black" points="146.5,-831.5 146.5,-883.5 296.5,-883.5 296.5,-831.5 146.5,-831.5"/>
<text text-anchor="start" x="154.5" y="-871.5" font-family="FreeSans" font-size="10.00">boost::graph_traits</text>
<text text-anchor="start" x="154.5" y="-860.5" font-family="FreeSans" font-size="10.00">&lt; DGtal::DigitalSurface</text>
<text text-anchor="start" x="154.5" y="-849.5" font-family="FreeSans" font-size="10.00">&lt; TDigitalSurfaceContainer</text>
<text text-anchor="middle" x="221.5" y="-838.5" font-family="FreeSans" font-size="10.00"> &gt; &gt;::edge_iterator</text>
</a>
</g>
</g>
<!-- Node640&#45;&gt;Node642 -->
<g id="edge2" class="edge">
<title>Node640&#45;&gt;Node642</title>
<path fill="none" stroke="midnightblue" d="M48.25,-466.27C54.76,-535.79 79.71,-767.67 127,-822.5 132.43,-828.8 139.12,-833.97 146.39,-838.21"/>
<polygon fill="midnightblue" stroke="midnightblue" points="51.73,-465.87 47.33,-456.23 44.76,-466.51 51.73,-465.87"/>
</g>
<!-- Node643 -->
<g id="node4" class="node">
<title>Node643</title>
<g id="a_node4"><a xlink:href="classboost_1_1graph__traits_3_01DGtal_1_1DigitalSurface_3_01TDigitalSurfaceContainer_01_4_01_4_1_1out__edge__iterator.html" target="_top" xlink:title=" ">
<polygon fill="white" stroke="black" points="146.5,-760.5 146.5,-812.5 296.5,-812.5 296.5,-760.5 146.5,-760.5"/>
<text text-anchor="start" x="154.5" y="-800.5" font-family="FreeSans" font-size="10.00">boost::graph_traits</text>
<text text-anchor="start" x="154.5" y="-789.5" font-family="FreeSans" font-size="10.00">&lt; DGtal::DigitalSurface</text>
<text text-anchor="start" x="154.5" y="-778.5" font-family="FreeSans" font-size="10.00">&lt; TDigitalSurfaceContainer</text>
<text text-anchor="middle" x="221.5" y="-767.5" font-family="FreeSans" font-size="10.00"> &gt; &gt;::out_edge_iterator</text>
</a>
</g>
</g>
<!-- Node640&#45;&gt;Node643 -->
<g id="edge3" class="edge">
<title>Node640&#45;&gt;Node643</title>
<path fill="none" stroke="midnightblue" d="M45.86,-466.28C45.24,-519.49 50.85,-667.31 127,-751.5 132.46,-757.54 139.07,-762.54 146.22,-766.69"/>
<polygon fill="midnightblue" stroke="midnightblue" points="49.36,-466.23 46.08,-456.16 42.37,-466.08 49.36,-466.23"/>
</g>
<!-- Node644 -->
<g id="node5" class="node">
<title>Node644</title>
<g id="a_node5"><a xlink:href="classboost_1_1graph__traits_3_01DGtal_1_1Object_3_01TDigitalTopology_00_01TDigitalSet_01_4_01_4_1_1adjacency__iterator.html" target="_top" xlink:title=" ">
<polygon fill="white" stroke="black" points="127,-689.5 127,-741.5 316,-741.5 316,-689.5 127,-689.5"/>
<text text-anchor="start" x="135" y="-729.5" font-family="FreeSans" font-size="10.00">boost::graph_traits</text>
<text text-anchor="start" x="135" y="-718.5" font-family="FreeSans" font-size="10.00">&lt; DGtal::Object&lt; TDigitalTopology,</text>
<text text-anchor="start" x="135" y="-707.5" font-family="FreeSans" font-size="10.00"> TDigitalSet &gt; &gt;::adjacency</text>
<text text-anchor="middle" x="221.5" y="-696.5" font-family="FreeSans" font-size="10.00">_iterator</text>
</a>
</g>
</g>
<!-- Node640&#45;&gt;Node644 -->
<g id="edge4" class="edge">
<title>Node640&#45;&gt;Node644</title>
<path fill="none" stroke="midnightblue" d="M47.86,-466.48C51.91,-510.76 67.65,-618.04 127,-679.5 130.5,-683.13 134.41,-686.4 138.59,-689.34"/>
<polygon fill="midnightblue" stroke="midnightblue" points="51.34,-466.11 47.04,-456.42 44.36,-466.67 51.34,-466.11"/>
</g>
<!-- Node645 -->
<g id="node6" class="node">
<title>Node645</title>
<g id="a_node6"><a xlink:href="classboost_1_1graph__traits_3_01DGtal_1_1Object_3_01TDigitalTopology_00_01TDigitalSet_01_4_01_4_1_1edge__iterator.html" target="_top" xlink:title=" ">
<polygon fill="white" stroke="black" points="127,-629 127,-670 316,-670 316,-629 127,-629"/>
<text text-anchor="start" x="135" y="-658" font-family="FreeSans" font-size="10.00">boost::graph_traits</text>
<text text-anchor="start" x="135" y="-647" font-family="FreeSans" font-size="10.00">&lt; DGtal::Object&lt; TDigitalTopology,</text>
<text text-anchor="middle" x="221.5" y="-636" font-family="FreeSans" font-size="10.00"> TDigitalSet &gt; &gt;::edge_iterator</text>
</a>
</g>
</g>
<!-- Node640&#45;&gt;Node645 -->
<g id="edge5" class="edge">
<title>Node640&#45;&gt;Node645</title>
<path fill="none" stroke="midnightblue" d="M50.33,-466.54C58.23,-502.42 79.7,-577.77 127,-619.5 130.96,-623 135.34,-626.09 139.97,-628.82"/>
<polygon fill="midnightblue" stroke="midnightblue" points="53.68,-465.45 48.23,-456.37 46.83,-466.87 53.68,-465.45"/>
</g>
<!-- Node646 -->
<g id="node7" class="node">
<title>Node646</title>
<g id="a_node7"><a xlink:href="classboost_1_1graph__traits_3_01DGtal_1_1Object_3_01TDigitalTopology_00_01TDigitalSet_01_4_01_4_1_1out__edge__iterator.html" target="_top" xlink:title=" ">
<polygon fill="white" stroke="black" points="127,-569 127,-610 316,-610 316,-569 127,-569"/>
<text text-anchor="start" x="135" y="-598" font-family="FreeSans" font-size="10.00">boost::graph_traits</text>
<text text-anchor="start" x="135" y="-587" font-family="FreeSans" font-size="10.00">&lt; DGtal::Object&lt; TDigitalTopology,</text>
<text text-anchor="middle" x="221.5" y="-576" font-family="FreeSans" font-size="10.00"> TDigitalSet &gt; &gt;::out_edge_iterator</text>
</a>
</g>
</g>
<!-- Node640&#45;&gt;Node646 -->
<g id="edge6" class="edge">
<title>Node640&#45;&gt;Node646</title>
<path fill="none" stroke="midnightblue" d="M55.19,-465.47C67.62,-490.56 92.82,-534.52 127,-559.5 131.82,-563.02 137.06,-566.14 142.54,-568.9"/>
<polygon fill="midnightblue" stroke="midnightblue" points="58.26,-463.78 50.79,-456.28 51.95,-466.81 58.26,-463.78"/>
</g>
<!-- Node647 -->
<g id="node8" class="node">
<title>Node647</title>
<g id="a_node8"><a xlink:href="classDGtal_1_1ArithmeticalDSL_1_1ConstIterator.html" target="_top" xlink:title="Aim: This class aims at representing an iterator that provides a way to scan the points of a DSL....">
<polygon fill="white" stroke="black" points="146.5,-509 146.5,-550 296.5,-550 296.5,-509 146.5,-509"/>
<text text-anchor="start" x="154.5" y="-538" font-family="FreeSans" font-size="10.00">DGtal::ArithmeticalDSL</text>
<text text-anchor="start" x="154.5" y="-527" font-family="FreeSans" font-size="10.00">&lt; TCoordinate, TInteger,</text>
<text text-anchor="middle" x="221.5" y="-516" font-family="FreeSans" font-size="10.00"> adjacency &gt;::ConstIterator</text>
</a>
</g>
</g>
<!-- Node640&#45;&gt;Node647 -->
<g id="edge7" class="edge">
<title>Node640&#45;&gt;Node647</title>
<path fill="none" stroke="midnightblue" d="M67.11,-462.34C82.84,-473.86 105.42,-489.17 127,-499.5 134.07,-502.89 141.62,-506.02 149.25,-508.89"/>
<polygon fill="midnightblue" stroke="midnightblue" points="68.8,-459.24 58.69,-456.06 64.62,-464.85 68.8,-459.24"/>
</g>
<!-- Node648 -->
<g id="node9" class="node">
<title>Node648</title>
<g id="a_node9"><a xlink:href="classDGtal_1_1ArrayImageIterator.html" target="_top" xlink:title="Aim: Random access iterator over an image given his definition domain and viewable domain.">
<polygon fill="white" stroke="black" points="150,-459.5 150,-489.5 293,-489.5 293,-459.5 150,-459.5"/>
<text text-anchor="start" x="158" y="-477.5" font-family="FreeSans" font-size="10.00">DGtal::ArrayImageIterator</text>
<text text-anchor="middle" x="221.5" y="-466.5" font-family="FreeSans" font-size="10.00">&lt; TIterableClass &gt;</text>
</a>
</g>
</g>
<!-- Node640&#45;&gt;Node648 -->
<g id="edge8" class="edge">
<title>Node640&#45;&gt;Node648</title>
<path fill="none" stroke="midnightblue" d="M101.19,-455.3C116.62,-457.78 133.62,-460.52 149.84,-463.13"/>
<polygon fill="midnightblue" stroke="midnightblue" points="101.74,-451.84 91.31,-453.71 100.63,-458.76 101.74,-451.84"/>
</g>
<!-- Node649 -->
<g id="node10" class="node">
<title>Node649</title>
<g id="a_node10"><a xlink:href="structDGtal_1_1CubicalComplex_1_1ConstIterator.html" target="_top" xlink:title=" ">
<polygon fill="white" stroke="black" points="148,-399 148,-440 295,-440 295,-399 148,-399"/>
<text text-anchor="start" x="156" y="-428" font-family="FreeSans" font-size="10.00">DGtal::CubicalComplex</text>
<text text-anchor="start" x="156" y="-417" font-family="FreeSans" font-size="10.00">&lt; TKSpace, TCellContainer</text>
<text text-anchor="middle" x="221.5" y="-406" font-family="FreeSans" font-size="10.00"> &gt;::ConstIterator</text>
</a>
</g>
</g>
<!-- Node640&#45;&gt;Node649 -->
<g id="edge9" class="edge">
<title>Node640&#45;&gt;Node649</title>
<path fill="none" stroke="midnightblue" d="M101.28,-438C116.04,-435.71 132.25,-433.19 147.83,-430.78"/>
<polygon fill="midnightblue" stroke="midnightblue" points="100.65,-434.55 91.31,-439.55 101.73,-441.47 100.65,-434.55"/>
</g>
<!-- Node650 -->
<g id="node11" class="node">
<title>Node650</title>
<g id="a_node11"><a xlink:href="structDGtal_1_1CubicalComplex_1_1Iterator.html" target="_top" xlink:title=" ">
<polygon fill="white" stroke="black" points="148,-339 148,-380 295,-380 295,-339 148,-339"/>
<text text-anchor="start" x="156" y="-368" font-family="FreeSans" font-size="10.00">DGtal::CubicalComplex</text>
<text text-anchor="start" x="156" y="-357" font-family="FreeSans" font-size="10.00">&lt; TKSpace, TCellContainer</text>
<text text-anchor="middle" x="221.5" y="-346" font-family="FreeSans" font-size="10.00"> &gt;::Iterator</text>
</a>
</g>
</g>
<!-- Node640&#45;&gt;Node650 -->
<g id="edge10" class="edge">
<title>Node640&#45;&gt;Node650</title>
<path fill="none" stroke="midnightblue" d="M65.67,-430.37C81.34,-417.83 104.51,-400.74 127,-389.5 133.86,-386.07 141.2,-382.92 148.64,-380.06"/>
<polygon fill="midnightblue" stroke="midnightblue" points="63.32,-427.77 57.78,-436.8 67.74,-433.19 63.32,-427.77"/>
</g>
<!-- Node651 -->
<g id="node12" class="node">
<title>Node651</title>
<g id="a_node12"><a xlink:href="classDGtal_1_1HyperRectDomain__Iterator.html" target="_top" xlink:title="Iterator for HyperRectDomain.">
<polygon fill="white" stroke="black" points="151.5,-289.5 151.5,-319.5 291.5,-319.5 291.5,-289.5 151.5,-289.5"/>
<text text-anchor="start" x="159.5" y="-307.5" font-family="FreeSans" font-size="10.00">DGtal::HyperRectDomain</text>
<text text-anchor="middle" x="221.5" y="-296.5" font-family="FreeSans" font-size="10.00">_Iterator&lt; TPoint &gt;</text>
</a>
</g>
</g>
<!-- Node640&#45;&gt;Node651 -->
<g id="edge11" class="edge">
<title>Node640&#45;&gt;Node651</title>
<path fill="none" stroke="midnightblue" d="M54.31,-427.73C66.14,-401.66 91.08,-354.86 127,-329.5 134.28,-324.36 142.55,-320.28 151.09,-317.04"/>
<polygon fill="midnightblue" stroke="midnightblue" points="51.1,-426.35 50.3,-436.91 57.51,-429.15 51.1,-426.35"/>
</g>
<!-- Node652 -->
<g id="node13" class="node">
<title>Node652</title>
<g id="a_node13"><a xlink:href="classDGtal_1_1HyperRectDomain__ReverseIterator.html" target="_top" xlink:title="Reverse iterator for HyperRectDomain.">
<polygon fill="white" stroke="black" points="140.5,-240.5 140.5,-270.5 302.5,-270.5 302.5,-240.5 140.5,-240.5"/>
<text text-anchor="start" x="148.5" y="-258.5" font-family="FreeSans" font-size="10.00">DGtal::HyperRectDomain</text>
<text text-anchor="middle" x="221.5" y="-247.5" font-family="FreeSans" font-size="10.00">_ReverseIterator&lt; TIterator &gt;</text>
</a>
</g>
</g>
<!-- Node640&#45;&gt;Node652 -->
<g id="edge12" class="edge">
<title>Node640&#45;&gt;Node652</title>
<path fill="none" stroke="midnightblue" d="M50.39,-427.03C58.37,-392.22 79.98,-319.33 127,-280.5 131.66,-276.65 136.87,-273.39 142.36,-270.62"/>
<polygon fill="midnightblue" stroke="midnightblue" points="46.94,-426.39 48.26,-436.9 53.79,-427.87 46.94,-426.39"/>
</g>
<!-- Node653 -->
<g id="node14" class="node">
<title>Node653</title>
<g id="a_node14"><a xlink:href="classDGtal_1_1HyperRectDomain__subIterator.html" target="_top" xlink:title=" ">
<polygon fill="white" stroke="black" points="151.5,-191.5 151.5,-221.5 291.5,-221.5 291.5,-191.5 151.5,-191.5"/>
<text text-anchor="start" x="159.5" y="-209.5" font-family="FreeSans" font-size="10.00">DGtal::HyperRectDomain</text>
<text text-anchor="middle" x="221.5" y="-198.5" font-family="FreeSans" font-size="10.00">_subIterator&lt; TPoint &gt;</text>
</a>
</g>
</g>
<!-- Node640&#45;&gt;Node653 -->
<g id="edge13" class="edge">
<title>Node640&#45;&gt;Node653</title>
<path fill="none" stroke="midnightblue" d="M48.03,-426.47C52.39,-384 68.6,-284.49 127,-231.5 133.97,-225.18 142.36,-220.42 151.22,-216.86"/>
<polygon fill="midnightblue" stroke="midnightblue" points="44.53,-426.36 47.11,-436.63 51.5,-426.99 44.53,-426.36"/>
</g>
<!-- Node654 -->
<g id="node15" class="node">
<title>Node654</title>
<g id="a_node15"><a xlink:href="classDGtal_1_1IntegerSequenceIterator.html" target="_top" xlink:title="Aim: It is a simple class that mimics a (non mutable) iterator over integers. You can increment it,...">
<polygon fill="white" stroke="black" points="137.5,-142.5 137.5,-172.5 305.5,-172.5 305.5,-142.5 137.5,-142.5"/>
<text text-anchor="start" x="145.5" y="-160.5" font-family="FreeSans" font-size="10.00">DGtal::IntegerSequenceIterator</text>
<text text-anchor="middle" x="221.5" y="-149.5" font-family="FreeSans" font-size="10.00">&lt; TInteger &gt;</text>
</a>
</g>
</g>
<!-- Node640&#45;&gt;Node654 -->
<g id="edge14" class="edge">
<title>Node640&#45;&gt;Node654</title>
<path fill="none" stroke="midnightblue" d="M46.41,-426.75C47.31,-377.9 56.64,-250.46 127,-182.5 130.99,-178.65 135.5,-175.37 140.34,-172.59"/>
<polygon fill="midnightblue" stroke="midnightblue" points="42.91,-426.89 46.33,-436.91 49.91,-426.94 42.91,-426.89"/>
</g>
<!-- Node655 -->
<g id="node16" class="node">
<title>Node655</title>
<g id="a_node16"><a xlink:href="structDGtal_1_1UnorderedSetByBlock_1_1const__iterator.html" target="_top" xlink:title="Read iterator on set elements. Model of ForwardIterator.">
<polygon fill="white" stroke="black" points="128.5,-71.5 128.5,-123.5 314.5,-123.5 314.5,-71.5 128.5,-71.5"/>
<text text-anchor="start" x="136.5" y="-111.5" font-family="FreeSans" font-size="10.00">DGtal::UnorderedSetByBlock</text>
<text text-anchor="start" x="136.5" y="-100.5" font-family="FreeSans" font-size="10.00">&lt; Key, TSplitter, Hash,</text>
<text text-anchor="start" x="136.5" y="-89.5" font-family="FreeSans" font-size="10.00"> KeyEqual, UnorderedMapAllocator</text>
<text text-anchor="middle" x="221.5" y="-78.5" font-family="FreeSans" font-size="10.00"> &gt;::const_iterator</text>
</a>
</g>
</g>
<!-- Node640&#45;&gt;Node655 -->
<g id="edge15" class="edge">
<title>Node640&#45;&gt;Node655</title>
<path fill="none" stroke="midnightblue" d="M45.74,-426.62C44.76,-372.46 49.48,-220.56 127,-133.5 130.24,-129.86 133.89,-126.59 137.82,-123.65"/>
<polygon fill="midnightblue" stroke="midnightblue" points="42.25,-427 46.02,-436.9 49.25,-426.8 42.25,-427"/>
</g>
<!-- Node656 -->
<g id="node17" class="node">
<title>Node656</title>
<g id="a_node17"><a xlink:href="structDGtal_1_1UnorderedSetByBlock_1_1iterator.html" target="_top" xlink:title="Read&#45;write iterator on set elements. Model of ForwardIterator.">
<polygon fill="white" stroke="black" points="128.5,-0.5 128.5,-52.5 314.5,-52.5 314.5,-0.5 128.5,-0.5"/>
<text text-anchor="start" x="136.5" y="-40.5" font-family="FreeSans" font-size="10.00">DGtal::UnorderedSetByBlock</text>
<text text-anchor="start" x="136.5" y="-29.5" font-family="FreeSans" font-size="10.00">&lt; Key, TSplitter, Hash,</text>
<text text-anchor="start" x="136.5" y="-18.5" font-family="FreeSans" font-size="10.00"> KeyEqual, UnorderedMapAllocator</text>
<text text-anchor="middle" x="221.5" y="-7.5" font-family="FreeSans" font-size="10.00"> &gt;::iterator</text>
</a>
</g>
</g>
<!-- Node640&#45;&gt;Node656 -->
<g id="edge16" class="edge">
<title>Node640&#45;&gt;Node656</title>
<path fill="none" stroke="midnightblue" d="M48.17,-426.79C54.48,-356.43 79.02,-118.89 127,-62.5 130.04,-58.92 133.48,-55.7 137.21,-52.8"/>
<polygon fill="midnightblue" stroke="midnightblue" points="44.66,-426.65 47.28,-436.92 51.64,-427.26 44.66,-426.65"/>
</g>
</g>
</svg>
