<?xml version="1.0" encoding="UTF-8" standalone="no"?>
<!DOCTYPE svg PUBLIC "-//W3C//DTD SVG 1.1//EN"
 "http://www.w3.org/Graphics/SVG/1.1/DTD/svg11.dtd">
<!-- Generated by graphviz version 2.43.0 (0)
 -->
<!-- Title: Graphical Class Hierarchy Pages: 1 -->
<svg width="291pt" height="100pt"
 viewBox="0.00 0.00 291.00 99.50" xmlns="http://www.w3.org/2000/svg" xmlns:xlink="http://www.w3.org/1999/xlink">
<g id="graph0" class="graph" transform="scale(1 1) rotate(0) translate(4 95.5)">
<title>Graphical Class Hierarchy</title>
<polygon fill="white" stroke="transparent" points="-4,4 -4,-95.5 287,-95.5 287,4 -4,4"/>
<!-- Node657 -->
<g id="node1" class="node">
<title>Node657</title>
<g id="a_node1"><a xlink:title=" ">
<polygon fill="white" stroke="#bfbfbf" points="0,-33 0,-52 95,-52 95,-33 0,-33"/>
<text text-anchor="middle" x="47.5" y="-40" font-family="FreeSans" font-size="10.00">iterator_adaptor</text>
</a>
</g>
</g>
<!-- Node0 -->
<g id="node2" class="node">
<title>Node0</title>
<g id="a_node2"><a xlink:href="classDGtal_1_1ConstIteratorAdapter.html" target="_top" xlink:title="This class adapts any iterator so that operator* returns another element than the one pointed to by t...">
<polygon fill="white" stroke="black" points="131,-50 131,-91 283,-91 283,-50 131,-50"/>
<text text-anchor="start" x="139" y="-79" font-family="FreeSans" font-size="10.00">DGtal::ConstIteratorAdapter</text>
<text text-anchor="start" x="139" y="-68" font-family="FreeSans" font-size="10.00">&lt; TIterator, TLightFunctor,</text>
<text text-anchor="middle" x="207" y="-57" font-family="FreeSans" font-size="10.00"> TReturnType &gt;</text>
</a>
</g>
</g>
<!-- Node657&#45;&gt;Node0 -->
<g id="edge1" class="edge">
<title>Node657&#45;&gt;Node0</title>
<path fill="none" stroke="midnightblue" d="M105.23,-52.59C113.52,-54.06 122.15,-55.59 130.74,-57.12"/>
<polygon fill="midnightblue" stroke="midnightblue" points="105.79,-49.13 95.33,-50.83 104.56,-56.02 105.79,-49.13"/>
</g>
<!-- Node659 -->
<g id="node3" class="node">
<title>Node659</title>
<g id="a_node3"><a xlink:href="classDGtal_1_1ReverseIterator.html" target="_top" xlink:title="This class adapts any bidirectional iterator so that operator++ calls operator&#45;&#45; and vice versa.">
<polygon fill="white" stroke="black" points="144,-0.5 144,-30.5 270,-30.5 270,-0.5 144,-0.5"/>
<text text-anchor="start" x="152" y="-18.5" font-family="FreeSans" font-size="10.00">DGtal::ReverseIterator</text>
<text text-anchor="middle" x="207" y="-7.5" font-family="FreeSans" font-size="10.00">&lt; Iterator &gt;</text>
</a>
</g>
</g>
<!-- Node657&#45;&gt;Node659 -->
<g id="edge2" class="edge">
<title>Node657&#45;&gt;Node659</title>
<path fill="none" stroke="midnightblue" d="M105.2,-32.78C117.75,-30.63 131.13,-28.34 143.89,-26.15"/>
<polygon fill="midnightblue" stroke="midnightblue" points="104.59,-29.33 95.33,-34.47 105.78,-36.23 104.59,-29.33"/>
</g>
</g>
</svg>
