<?xml version="1.0" encoding="UTF-8" standalone="no"?>
<!DOCTYPE svg PUBLIC "-//W3C//DTD SVG 1.1//EN"
 "http://www.w3.org/Graphics/SVG/1.1/DTD/svg11.dtd">
<!-- Generated by graphviz version 2.43.0 (0)
 -->
<!-- Title: Graphical Class Hierarchy Pages: 1 -->
<svg width="319pt" height="310pt"
 viewBox="0.00 0.00 319.00 310.00" xmlns="http://www.w3.org/2000/svg" xmlns:xlink="http://www.w3.org/1999/xlink">
<g id="graph0" class="graph" transform="scale(1 1) rotate(0) translate(4 306)">
<title>Graphical Class Hierarchy</title>
<!-- Node0 -->
<g id="Node000000" class="node">
<title>Node0</title>
<g id="a_Node000000"><a xlink:href="classDGtal_1_1StarShaped2D.html" target="_top" xlink:title=" ">
<polygon fill="white" stroke="#666666" points="119,-165.5 0,-165.5 0,-135.5 119,-135.5 119,-165.5"/>
<text text-anchor="start" x="8" y="-153.5" font-family="FreeSans" font-size="10.00">DGtal::StarShaped2D</text>
<text text-anchor="middle" x="59.5" y="-142.5" font-family="FreeSans" font-size="10.00">&lt; TSpace &gt;</text>
</a>
</g>
</g>
<!-- Node1 -->
<g id="Node000001" class="node">
<title>Node1</title>
<g id="a_Node000001"><a xlink:href="classDGtal_1_1Astroid2D.html" target="_top" xlink:title=" ">
<polygon fill="white" stroke="#666666" points="308,-302 158,-302 158,-283 308,-283 308,-302"/>
<text text-anchor="middle" x="233" y="-290" font-family="FreeSans" font-size="10.00">DGtal::Astroid2D&lt; Space &gt;</text>
</a>
</g>
</g>
<!-- Node0&#45;&gt;Node1 -->
<g id="edge281_Node000000_Node000001" class="edge">
<title>Node0&#45;&gt;Node1</title>
<g id="a_edge281_Node000000_Node000001"><a xlink:title=" ">
<path fill="none" stroke="#63b8ff" d="M72.61,-174.8C87.9,-202.94 116.89,-248.6 155,-273.5 160.99,-277.42 167.73,-280.53 174.66,-282.99"/>
<polygon fill="#63b8ff" stroke="#63b8ff" points="75.54,-172.86 67.78,-165.64 69.35,-176.12 75.54,-172.86"/>
</a>
</g>
</g>
<!-- Node2 -->
<g id="Node000002" class="node">
<title>Node2</title>
<g id="a_Node000002"><a xlink:href="classDGtal_1_1AccFlower2D.html" target="_top" xlink:title="Aim: Model of the concept StarShaped represents any accelerated flower in the plane.">
<polygon fill="white" stroke="#666666" points="290,-264.5 176,-264.5 176,-234.5 290,-234.5 290,-264.5"/>
<text text-anchor="start" x="184" y="-252.5" font-family="FreeSans" font-size="10.00">DGtal::AccFlower2D</text>
<text text-anchor="middle" x="233" y="-241.5" font-family="FreeSans" font-size="10.00">&lt; TSpace &gt;</text>
</a>
</g>
</g>
<!-- Node0&#45;&gt;Node2 -->
<g id="edge282_Node000000_Node000002" class="edge">
<title>Node0&#45;&gt;Node2</title>
<g id="a_edge282_Node000000_Node000002"><a xlink:title=" ">
<path fill="none" stroke="#63b8ff" d="M83.64,-172.92C101.79,-189.45 128.35,-211.4 155,-225.5 161.56,-228.97 168.7,-232.03 175.91,-234.71"/>
<polygon fill="#63b8ff" stroke="#63b8ff" points="85.64,-170 75.93,-165.76 80.88,-175.13 85.64,-170"/>
</a>
</g>
</g>
<!-- Node3 -->
<g id="Node000003" class="node">
<title>Node3</title>
<g id="a_Node000003"><a xlink:href="classDGtal_1_1Astroid2D.html" target="_top" xlink:title="Aim: Model of the concept StarShaped represents an astroid.">
<polygon fill="white" stroke="#666666" points="311,-216 155,-216 155,-197 311,-197 311,-216"/>
<text text-anchor="middle" x="233" y="-204" font-family="FreeSans" font-size="10.00">DGtal::Astroid2D&lt; TSpace &gt;</text>
</a>
</g>
</g>
<!-- Node0&#45;&gt;Node3 -->
<g id="edge283_Node000000_Node000003" class="edge">
<title>Node0&#45;&gt;Node3</title>
<g id="a_edge283_Node000000_Node000003"><a xlink:title=" ">
<path fill="none" stroke="#63b8ff" d="M104.13,-169.66C119.96,-176.18 138.1,-183.16 155,-188.5 164.95,-191.64 175.78,-194.51 186.09,-196.98"/>
<polygon fill="#63b8ff" stroke="#63b8ff" points="105.18,-166.31 94.6,-165.68 102.48,-172.77 105.18,-166.31"/>
</a>
</g>
</g>
<!-- Node4 -->
<g id="Node000004" class="node">
<title>Node4</title>
<g id="a_Node000004"><a xlink:href="classDGtal_1_1Ball2D.html" target="_top" xlink:title="Aim: Model of the concept StarShaped represents any circle in the plane.">
<polygon fill="white" stroke="#666666" points="303,-179 163,-179 163,-160 303,-160 303,-179"/>
<text text-anchor="middle" x="233" y="-167" font-family="FreeSans" font-size="10.00">DGtal::Ball2D&lt; TSpace &gt;</text>
</a>
</g>
</g>
<!-- Node0&#45;&gt;Node4 -->
<g id="edge284_Node000000_Node000004" class="edge">
<title>Node0&#45;&gt;Node4</title>
<g id="a_edge284_Node000000_Node000004"><a xlink:title=" ">
<path fill="none" stroke="#63b8ff" d="M129.09,-158.1C140.18,-159.33 151.67,-160.6 162.78,-161.83"/>
<polygon fill="#63b8ff" stroke="#63b8ff" points="129.37,-154.61 119.04,-156.99 128.59,-161.57 129.37,-154.61"/>
</a>
</g>
</g>
<!-- Node5 -->
<g id="Node000005" class="node">
<title>Node5</title>
<g id="a_Node000005"><a xlink:href="classDGtal_1_1Ellipse2D.html" target="_top" xlink:title="Aim: Model of the concept StarShaped represents any ellipse in the plane.">
<polygon fill="white" stroke="#666666" points="310,-142 156,-142 156,-123 310,-123 310,-142"/>
<text text-anchor="middle" x="233" y="-130" font-family="FreeSans" font-size="10.00">DGtal::Ellipse2D&lt; TSpace &gt;</text>
</a>
</g>
</g>
<!-- Node0&#45;&gt;Node5 -->
<g id="edge285_Node000000_Node000005" class="edge">
<title>Node0&#45;&gt;Node5</title>
<g id="a_edge285_Node000000_Node000005"><a xlink:title=" ">
<path fill="none" stroke="#63b8ff" d="M129.19,-143.29C137.95,-142.37 146.96,-141.43 155.83,-140.49"/>
<polygon fill="#63b8ff" stroke="#63b8ff" points="128.62,-139.83 119.04,-144.36 129.35,-146.79 128.62,-139.83"/>
</a>
</g>
</g>
<!-- Node6 -->
<g id="Node000006" class="node">
<title>Node6</title>
<g id="a_Node000006"><a xlink:href="classDGtal_1_1Flower2D.html" target="_top" xlink:title="Aim: Model of the concept StarShaped represents any flower with k&#45;petals in the plane.">
<polygon fill="white" stroke="#666666" points="310.5,-105 155.5,-105 155.5,-86 310.5,-86 310.5,-105"/>
<text text-anchor="middle" x="233" y="-93" font-family="FreeSans" font-size="10.00">DGtal::Flower2D&lt; TSpace &gt;</text>
</a>
</g>
</g>
<!-- Node0&#45;&gt;Node6 -->
<g id="edge286_Node000000_Node000006" class="edge">
<title>Node0&#45;&gt;Node6</title>
<g id="a_edge286_Node000000_Node000006"><a xlink:title=" ">
<path fill="none" stroke="#63b8ff" d="M106.65,-131.63C121.91,-125.74 139.05,-119.48 155,-114.5 166.04,-111.05 178.12,-107.82 189.38,-105.03"/>
<polygon fill="#63b8ff" stroke="#63b8ff" points="104.97,-128.53 96.93,-135.43 107.52,-135.04 104.97,-128.53"/>
</a>
</g>
</g>
<!-- Node7 -->
<g id="Node000007" class="node">
<title>Node7</title>
<g id="a_Node000007"><a xlink:href="classDGtal_1_1Lemniscate2D.html" target="_top" xlink:title="Aim: Model of the concept StarShaped represents a lemniscate.">
<polygon fill="white" stroke="#666666" points="293,-67.5 173,-67.5 173,-37.5 293,-37.5 293,-67.5"/>
<text text-anchor="start" x="181" y="-55.5" font-family="FreeSans" font-size="10.00">DGtal::Lemniscate2D</text>
<text text-anchor="middle" x="233" y="-44.5" font-family="FreeSans" font-size="10.00">&lt; TSpace &gt;</text>
</a>
</g>
</g>
<!-- Node0&#45;&gt;Node7 -->
<g id="edge287_Node000000_Node000007" class="edge">
<title>Node0&#45;&gt;Node7</title>
<g id="a_edge287_Node000000_Node000007"><a xlink:title=" ">
<path fill="none" stroke="#63b8ff" d="M84.13,-128.51C102.34,-112.52 128.77,-91.35 155,-77.5 162.08,-73.76 169.83,-70.44 177.59,-67.55"/>
<polygon fill="#63b8ff" stroke="#63b8ff" points="81.49,-126.17 76.37,-135.44 86.16,-131.39 81.49,-126.17"/>
</a>
</g>
</g>
<!-- Node8 -->
<g id="Node000008" class="node">
<title>Node8</title>
<g id="a_Node000008"><a xlink:href="classDGtal_1_1NGon2D.html" target="_top" xlink:title="Aim: Model of the concept StarShaped represents any regular k&#45;gon in the plane.">
<polygon fill="white" stroke="#666666" points="307.5,-19 158.5,-19 158.5,0 307.5,0 307.5,-19"/>
<text text-anchor="middle" x="233" y="-7" font-family="FreeSans" font-size="10.00">DGtal::NGon2D&lt; TSpace &gt;</text>
</a>
</g>
</g>
<!-- Node0&#45;&gt;Node8 -->
<g id="edge288_Node000000_Node000008" class="edge">
<title>Node0&#45;&gt;Node8</title>
<g id="a_edge288_Node000000_Node000008"><a xlink:title=" ">
<path fill="none" stroke="#63b8ff" d="M72.66,-126.39C88,-98.49 117.03,-53.2 155,-28.5 161,-24.6 167.74,-21.49 174.67,-19.03"/>
<polygon fill="#63b8ff" stroke="#63b8ff" points="69.43,-125.01 67.81,-135.48 75.6,-128.3 69.43,-125.01"/>
</a>
</g>
</g>
</g>
</svg>
