<?xml version="1.0" encoding="UTF-8" standalone="no"?>
<!DOCTYPE svg PUBLIC "-//W3C//DTD SVG 1.1//EN"
 "http://www.w3.org/Graphics/SVG/1.1/DTD/svg11.dtd">
<!-- Generated by graphviz version 2.43.0 (0)
 -->
<!-- Title: Graphical Class Hierarchy Pages: 1 -->
<svg width="357pt" height="898pt"
 viewBox="0.00 0.00 357.00 898.00" xmlns="http://www.w3.org/2000/svg" xmlns:xlink="http://www.w3.org/1999/xlink">
<g id="graph0" class="graph" transform="scale(1 1) rotate(0) translate(4 894)">
<title>Graphical Class Hierarchy</title>
<!-- Node0 -->
<g id="Node000000" class="node">
<title>Node0</title>
<g id="a_Node000000"><a xlink:title=" ">
<polygon fill="#e0e0e0" stroke="#999999" points="124,-504 0,-504 0,-485 124,-485 124,-504"/>
<text text-anchor="middle" x="62" y="-492" font-family="FreeSans" font-size="10.00">boost::iterator_facade</text>
</a>
</g>
</g>
<!-- Node1 -->
<g id="Node000001" class="node">
<title>Node1</title>
<g id="a_Node000001"><a xlink:href="classDGtal_1_1ArithmeticalDSL_1_1ConstIterator.html" target="_top" xlink:title="Aim: This class aims at representing an iterator that provides a way to scan the points of a DSL....">
<polygon fill="white" stroke="#666666" points="329.5,-890 179.5,-890 179.5,-849 329.5,-849 329.5,-890"/>
<text text-anchor="start" x="187.5" y="-878" font-family="FreeSans" font-size="10.00">DGtal::ArithmeticalDSL</text>
<text text-anchor="start" x="187.5" y="-867" font-family="FreeSans" font-size="10.00">&lt; TCoordinate, TInteger,</text>
<text text-anchor="middle" x="254.5" y="-856" font-family="FreeSans" font-size="10.00"> adjacency &gt;::ConstIterator</text>
</a>
</g>
</g>
<!-- Node0&#45;&gt;Node1 -->
<g id="edge156_Node000000_Node000001" class="edge">
<title>Node0&#45;&gt;Node1</title>
<g id="a_edge156_Node000000_Node000001"><a xlink:title=" ">
<path fill="none" stroke="#63b8ff" d="M62.43,-514.12C61.84,-572.38 68.23,-746.18 160,-840.5 165.57,-846.23 172.25,-850.83 179.44,-854.52"/>
<polygon fill="#63b8ff" stroke="#63b8ff" points="65.93,-514.13 62.62,-504.07 58.93,-514 65.93,-514.13"/>
</a>
</g>
</g>
<!-- Node2 -->
<g id="Node000002" class="node">
<title>Node2</title>
<g id="a_Node000002"><a xlink:href="structDGtal_1_1CubicalComplex_1_1ConstIterator.html" target="_top" xlink:title=" ">
<polygon fill="white" stroke="#666666" points="328,-831 181,-831 181,-790 328,-790 328,-831"/>
<text text-anchor="start" x="189" y="-819" font-family="FreeSans" font-size="10.00">DGtal::CubicalComplex</text>
<text text-anchor="start" x="189" y="-808" font-family="FreeSans" font-size="10.00">&lt; TKSpace, TCellContainer</text>
<text text-anchor="middle" x="254.5" y="-797" font-family="FreeSans" font-size="10.00"> &gt;::ConstIterator</text>
</a>
</g>
</g>
<!-- Node0&#45;&gt;Node2 -->
<g id="edge157_Node000000_Node000002" class="edge">
<title>Node0&#45;&gt;Node2</title>
<g id="a_edge157_Node000000_Node000002"><a xlink:title=" ">
<path fill="none" stroke="#63b8ff" d="M63.76,-514.12C66.83,-565.58 82.28,-705.71 160,-781.5 165.96,-787.31 173.07,-791.96 180.66,-795.68"/>
<polygon fill="#63b8ff" stroke="#63b8ff" points="67.25,-513.84 63.25,-504.03 60.26,-514.19 67.25,-513.84"/>
</a>
</g>
</g>
<!-- Node3 -->
<g id="Node000003" class="node">
<title>Node3</title>
<g id="a_Node000003"><a xlink:href="structDGtal_1_1CubicalComplex_1_1Iterator.html" target="_top" xlink:title=" ">
<polygon fill="white" stroke="#666666" points="328,-772 181,-772 181,-731 328,-731 328,-772"/>
<text text-anchor="start" x="189" y="-760" font-family="FreeSans" font-size="10.00">DGtal::CubicalComplex</text>
<text text-anchor="start" x="189" y="-749" font-family="FreeSans" font-size="10.00">&lt; TKSpace, TCellContainer</text>
<text text-anchor="middle" x="254.5" y="-738" font-family="FreeSans" font-size="10.00"> &gt;::Iterator</text>
</a>
</g>
</g>
<!-- Node0&#45;&gt;Node3 -->
<g id="edge158_Node000000_Node000003" class="edge">
<title>Node0&#45;&gt;Node3</title>
<g id="a_edge158_Node000000_Node000003"><a xlink:title=" ">
<path fill="none" stroke="#63b8ff" d="M65.84,-514.3C73.16,-558.1 96.75,-663.89 160,-721.5 166.05,-727.01 173.12,-731.51 180.61,-735.18"/>
<polygon fill="#63b8ff" stroke="#63b8ff" points="69.28,-513.68 64.28,-504.34 62.37,-514.76 69.28,-513.68"/>
</a>
</g>
</g>
<!-- Node4 -->
<g id="Node000004" class="node">
<title>Node4</title>
<g id="a_Node000004"><a xlink:href="classDGtal_1_1HyperRectDomain__Iterator.html" target="_top" xlink:title="Iterator for HyperRectDomain.">
<polygon fill="white" stroke="#666666" points="324.5,-712.5 184.5,-712.5 184.5,-682.5 324.5,-682.5 324.5,-712.5"/>
<text text-anchor="start" x="192.5" y="-700.5" font-family="FreeSans" font-size="10.00">DGtal::HyperRectDomain</text>
<text text-anchor="middle" x="254.5" y="-689.5" font-family="FreeSans" font-size="10.00">_Iterator&lt; TPoint &gt;</text>
</a>
</g>
</g>
<!-- Node0&#45;&gt;Node4 -->
<g id="edge159_Node000000_Node000004" class="edge">
<title>Node0&#45;&gt;Node4</title>
<g id="a_edge159_Node000000_Node000004"><a xlink:title=" ">
<path fill="none" stroke="#63b8ff" d="M67.96,-514.04C78.39,-551.08 106.21,-631.52 160,-673.5 167.13,-679.07 175.42,-683.35 184.05,-686.65"/>
<polygon fill="#63b8ff" stroke="#63b8ff" points="71.24,-512.78 65.27,-504.03 64.48,-514.6 71.24,-512.78"/>
</a>
</g>
</g>
<!-- Node5 -->
<g id="Node000005" class="node">
<title>Node5</title>
<g id="a_Node000005"><a xlink:href="classDGtal_1_1HyperRectDomain__ReverseIterator.html" target="_top" xlink:title="Reverse iterator for HyperRectDomain.">
<polygon fill="white" stroke="#666666" points="335.5,-664.5 173.5,-664.5 173.5,-634.5 335.5,-634.5 335.5,-664.5"/>
<text text-anchor="start" x="181.5" y="-652.5" font-family="FreeSans" font-size="10.00">DGtal::HyperRectDomain</text>
<text text-anchor="middle" x="254.5" y="-641.5" font-family="FreeSans" font-size="10.00">_ReverseIterator&lt; TIterator &gt;</text>
</a>
</g>
</g>
<!-- Node0&#45;&gt;Node5 -->
<g id="edge160_Node000000_Node000005" class="edge">
<title>Node0&#45;&gt;Node5</title>
<g id="a_edge160_Node000000_Node000005"><a xlink:title=" ">
<path fill="none" stroke="#63b8ff" d="M71.78,-513.53C86.07,-542.32 117.13,-596.65 160,-625.5 165.14,-628.96 170.75,-631.92 176.59,-634.46"/>
<polygon fill="#63b8ff" stroke="#63b8ff" points="74.77,-511.67 67.28,-504.17 68.46,-514.7 74.77,-511.67"/>
</a>
</g>
</g>
<!-- Node6 -->
<g id="Node000006" class="node">
<title>Node6</title>
<g id="a_Node000006"><a xlink:href="classDGtal_1_1HyperRectDomain__subIterator.html" target="_top" xlink:title=" ">
<polygon fill="white" stroke="#666666" points="324.5,-616.5 184.5,-616.5 184.5,-586.5 324.5,-586.5 324.5,-616.5"/>
<text text-anchor="start" x="192.5" y="-604.5" font-family="FreeSans" font-size="10.00">DGtal::HyperRectDomain</text>
<text text-anchor="middle" x="254.5" y="-593.5" font-family="FreeSans" font-size="10.00">_subIterator&lt; TPoint &gt;</text>
</a>
</g>
</g>
<!-- Node0&#45;&gt;Node6 -->
<g id="edge161_Node000000_Node000006" class="edge">
<title>Node0&#45;&gt;Node6</title>
<g id="a_edge161_Node000000_Node000006"><a xlink:title=" ">
<path fill="none" stroke="#63b8ff" d="M78.31,-511.64C96.12,-530.53 127.28,-560.49 160,-577.5 167.58,-581.44 175.86,-584.77 184.24,-587.56"/>
<polygon fill="#63b8ff" stroke="#63b8ff" points="80.67,-509.04 71.32,-504.06 75.53,-513.78 80.67,-509.04"/>
</a>
</g>
</g>
<!-- Node7 -->
<g id="Node000007" class="node">
<title>Node7</title>
<g id="a_Node000007"><a xlink:href="classDGtal_1_1IntegerSequenceIterator.html" target="_top" xlink:title="Aim: It is a simple class that mimics a (non mutable) iterator over integers. You can increment it,...">
<polygon fill="white" stroke="#666666" points="338.5,-568.5 170.5,-568.5 170.5,-538.5 338.5,-538.5 338.5,-568.5"/>
<text text-anchor="start" x="178.5" y="-556.5" font-family="FreeSans" font-size="10.00">DGtal::IntegerSequenceIterator</text>
<text text-anchor="middle" x="254.5" y="-545.5" font-family="FreeSans" font-size="10.00">&lt; TInteger &gt;</text>
</a>
</g>
</g>
<!-- Node0&#45;&gt;Node7 -->
<g id="edge162_Node000000_Node000007" class="edge">
<title>Node0&#45;&gt;Node7</title>
<g id="a_edge162_Node000000_Node000007"><a xlink:title=" ">
<path fill="none" stroke="#63b8ff" d="M96.96,-507.65C115.45,-514.58 138.83,-522.98 160,-529.5 170.09,-532.61 180.88,-535.64 191.41,-538.44"/>
<polygon fill="#63b8ff" stroke="#63b8ff" points="98.09,-504.34 87.5,-504.07 95.62,-510.88 98.09,-504.34"/>
</a>
</g>
</g>
<!-- Node8 -->
<g id="Node000008" class="node">
<title>Node8</title>
<g id="a_Node000008"><a xlink:href="structDGtal_1_1UnorderedSetByBlock_1_1const__iterator.html" target="_top" xlink:title="Read iterator on set elements. Model of ForwardIterator.">
<polygon fill="white" stroke="#666666" points="347.5,-520.5 161.5,-520.5 161.5,-468.5 347.5,-468.5 347.5,-520.5"/>
<text text-anchor="start" x="169.5" y="-508.5" font-family="FreeSans" font-size="10.00">DGtal::UnorderedSetByBlock</text>
<text text-anchor="start" x="169.5" y="-497.5" font-family="FreeSans" font-size="10.00">&lt; Key, TSplitter, Hash,</text>
<text text-anchor="start" x="169.5" y="-486.5" font-family="FreeSans" font-size="10.00"> KeyEqual, UnorderedMapAllocator</text>
<text text-anchor="middle" x="254.5" y="-475.5" font-family="FreeSans" font-size="10.00"> &gt;::const_iterator</text>
</a>
</g>
</g>
<!-- Node0&#45;&gt;Node8 -->
<g id="edge163_Node000000_Node000008" class="edge">
<title>Node0&#45;&gt;Node8</title>
<g id="a_edge163_Node000000_Node000008"><a xlink:title=" ">
<path fill="none" stroke="#63b8ff" d="M134.24,-494.5C143.05,-494.5 152.15,-494.5 161.21,-494.5"/>
<polygon fill="#63b8ff" stroke="#63b8ff" points="134.06,-491 124.06,-494.5 134.06,-498 134.06,-491"/>
</a>
</g>
</g>
<!-- Node9 -->
<g id="Node000009" class="node">
<title>Node9</title>
<g id="a_Node000009"><a xlink:href="structDGtal_1_1UnorderedSetByBlock_1_1iterator.html" target="_top" xlink:title="Read&#45;write iterator on set elements. Model of ForwardIterator.">
<polygon fill="white" stroke="#666666" points="347.5,-450.5 161.5,-450.5 161.5,-398.5 347.5,-398.5 347.5,-450.5"/>
<text text-anchor="start" x="169.5" y="-438.5" font-family="FreeSans" font-size="10.00">DGtal::UnorderedSetByBlock</text>
<text text-anchor="start" x="169.5" y="-427.5" font-family="FreeSans" font-size="10.00">&lt; Key, TSplitter, Hash,</text>
<text text-anchor="start" x="169.5" y="-416.5" font-family="FreeSans" font-size="10.00"> KeyEqual, UnorderedMapAllocator</text>
<text text-anchor="middle" x="254.5" y="-405.5" font-family="FreeSans" font-size="10.00"> &gt;::iterator</text>
</a>
</g>
</g>
<!-- Node0&#45;&gt;Node9 -->
<g id="edge164_Node000000_Node000009" class="edge">
<title>Node0&#45;&gt;Node9</title>
<g id="a_edge164_Node000000_Node000009"><a xlink:title=" ">
<path fill="none" stroke="#63b8ff" d="M98.67,-481.39C122.28,-472.72 154.03,-461.05 182.65,-450.54"/>
<polygon fill="#63b8ff" stroke="#63b8ff" points="97.27,-478.18 89.09,-484.91 99.68,-484.75 97.27,-478.18"/>
</a>
</g>
</g>
<!-- Node10 -->
<g id="Node000010" class="node">
<title>Node10</title>
<g id="a_Node000010"><a xlink:href="classboost_1_1graph__traits_3_01DGtal_1_1DigitalSurface_3_01TDigitalSurfaceContainer_01_4_01_4_1_1adjacency__iterator.html" target="_top" xlink:title=" ">
<polygon fill="white" stroke="#666666" points="329.5,-380.5 179.5,-380.5 179.5,-328.5 329.5,-328.5 329.5,-380.5"/>
<text text-anchor="start" x="187.5" y="-368.5" font-family="FreeSans" font-size="10.00">boost::graph_traits</text>
<text text-anchor="start" x="187.5" y="-357.5" font-family="FreeSans" font-size="10.00">&lt; DGtal::DigitalSurface</text>
<text text-anchor="start" x="187.5" y="-346.5" font-family="FreeSans" font-size="10.00">&lt; TDigitalSurfaceContainer</text>
<text text-anchor="middle" x="254.5" y="-335.5" font-family="FreeSans" font-size="10.00"> &gt; &gt;::adjacency_iterator</text>
</a>
</g>
</g>
<!-- Node0&#45;&gt;Node10 -->
<g id="edge165_Node000000_Node000010" class="edge">
<title>Node0&#45;&gt;Node10</title>
<g id="a_edge165_Node000000_Node000010"><a xlink:title=" ">
<path fill="none" stroke="#63b8ff" d="M75.22,-476.81C91.93,-453.8 123.99,-413.69 160,-389.5 166.04,-385.44 172.62,-381.77 179.39,-378.47"/>
<polygon fill="#63b8ff" stroke="#63b8ff" points="72.34,-474.82 69.4,-484.99 78.05,-478.87 72.34,-474.82"/>
</a>
</g>
</g>
<!-- Node11 -->
<g id="Node000011" class="node">
<title>Node11</title>
<g id="a_Node000011"><a xlink:href="classboost_1_1graph__traits_3_01DGtal_1_1DigitalSurface_3_01TDigitalSurfaceContainer_01_4_01_4_1_1edge__iterator.html" target="_top" xlink:title=" ">
<polygon fill="white" stroke="#666666" points="329.5,-310.5 179.5,-310.5 179.5,-258.5 329.5,-258.5 329.5,-310.5"/>
<text text-anchor="start" x="187.5" y="-298.5" font-family="FreeSans" font-size="10.00">boost::graph_traits</text>
<text text-anchor="start" x="187.5" y="-287.5" font-family="FreeSans" font-size="10.00">&lt; DGtal::DigitalSurface</text>
<text text-anchor="start" x="187.5" y="-276.5" font-family="FreeSans" font-size="10.00">&lt; TDigitalSurfaceContainer</text>
<text text-anchor="middle" x="254.5" y="-265.5" font-family="FreeSans" font-size="10.00"> &gt; &gt;::edge_iterator</text>
</a>
</g>
</g>
<!-- Node0&#45;&gt;Node11 -->
<g id="edge166_Node000000_Node000011" class="edge">
<title>Node0&#45;&gt;Node11</title>
<g id="a_edge166_Node000000_Node000011"><a xlink:title=" ">
<path fill="none" stroke="#63b8ff" d="M68.83,-474.88C80.42,-439.09 109.69,-362.87 160,-319.5 165.78,-314.52 172.33,-310.22 179.22,-306.51"/>
<polygon fill="#63b8ff" stroke="#63b8ff" points="65.43,-474.03 65.79,-484.62 72.11,-476.11 65.43,-474.03"/>
</a>
</g>
</g>
<!-- Node12 -->
<g id="Node000012" class="node">
<title>Node12</title>
<g id="a_Node000012"><a xlink:href="classboost_1_1graph__traits_3_01DGtal_1_1DigitalSurface_3_01TDigitalSurfaceContainer_01_4_01_4_1_1out__edge__iterator.html" target="_top" xlink:title=" ">
<polygon fill="white" stroke="#666666" points="329.5,-240.5 179.5,-240.5 179.5,-188.5 329.5,-188.5 329.5,-240.5"/>
<text text-anchor="start" x="187.5" y="-228.5" font-family="FreeSans" font-size="10.00">boost::graph_traits</text>
<text text-anchor="start" x="187.5" y="-217.5" font-family="FreeSans" font-size="10.00">&lt; DGtal::DigitalSurface</text>
<text text-anchor="start" x="187.5" y="-206.5" font-family="FreeSans" font-size="10.00">&lt; TDigitalSurfaceContainer</text>
<text text-anchor="middle" x="254.5" y="-195.5" font-family="FreeSans" font-size="10.00"> &gt; &gt;::out_edge_iterator</text>
</a>
</g>
</g>
<!-- Node0&#45;&gt;Node12 -->
<g id="edge167_Node000000_Node000012" class="edge">
<title>Node0&#45;&gt;Node12</title>
<g id="a_edge167_Node000000_Node000012"><a xlink:title=" ">
<path fill="none" stroke="#63b8ff" d="M65.42,-474.33C72.01,-428.17 94.38,-313.9 160,-249.5 165.69,-243.92 172.35,-239.21 179.46,-235.24"/>
<polygon fill="#63b8ff" stroke="#63b8ff" points="61.92,-474.15 64.07,-484.53 68.86,-475.07 61.92,-474.15"/>
</a>
</g>
</g>
<!-- Node13 -->
<g id="Node000013" class="node">
<title>Node13</title>
<g id="a_Node000013"><a xlink:href="classboost_1_1graph__traits_3_01DGtal_1_1Object_3_01TDigitalTopology_00_01TDigitalSet_01_4_01_4_1_1adjacency__iterator.html" target="_top" xlink:title=" ">
<polygon fill="white" stroke="#666666" points="349,-170.5 160,-170.5 160,-118.5 349,-118.5 349,-170.5"/>
<text text-anchor="start" x="168" y="-158.5" font-family="FreeSans" font-size="10.00">boost::graph_traits</text>
<text text-anchor="start" x="168" y="-147.5" font-family="FreeSans" font-size="10.00">&lt; DGtal::Object&lt; TDigitalTopology,</text>
<text text-anchor="start" x="168" y="-136.5" font-family="FreeSans" font-size="10.00"> TDigitalSet &gt; &gt;::adjacency</text>
<text text-anchor="middle" x="254.5" y="-125.5" font-family="FreeSans" font-size="10.00">_iterator</text>
</a>
</g>
</g>
<!-- Node0&#45;&gt;Node13 -->
<g id="edge168_Node000000_Node000013" class="edge">
<title>Node0&#45;&gt;Node13</title>
<g id="a_edge168_Node000000_Node000013"><a xlink:title=" ">
<path fill="none" stroke="#63b8ff" d="M63.34,-474.72C65.33,-420.22 78.3,-266.2 160,-179.5 163.09,-176.22 166.52,-173.25 170.18,-170.55"/>
<polygon fill="#63b8ff" stroke="#63b8ff" points="59.84,-474.68 63.06,-484.78 66.83,-474.88 59.84,-474.68"/>
</a>
</g>
</g>
<!-- Node14 -->
<g id="Node000014" class="node">
<title>Node14</title>
<g id="a_Node000014"><a xlink:href="classboost_1_1graph__traits_3_01DGtal_1_1Object_3_01TDigitalTopology_00_01TDigitalSet_01_4_01_4_1_1edge__iterator.html" target="_top" xlink:title=" ">
<polygon fill="white" stroke="#666666" points="349,-100 160,-100 160,-59 349,-59 349,-100"/>
<text text-anchor="start" x="168" y="-88" font-family="FreeSans" font-size="10.00">boost::graph_traits</text>
<text text-anchor="start" x="168" y="-77" font-family="FreeSans" font-size="10.00">&lt; DGtal::Object&lt; TDigitalTopology,</text>
<text text-anchor="middle" x="254.5" y="-66" font-family="FreeSans" font-size="10.00"> TDigitalSet &gt; &gt;::edge_iterator</text>
</a>
</g>
</g>
<!-- Node0&#45;&gt;Node14 -->
<g id="edge169_Node000000_Node000014" class="edge">
<title>Node0&#45;&gt;Node14</title>
<g id="a_edge169_Node000000_Node000014"><a xlink:title=" ">
<path fill="none" stroke="#63b8ff" d="M65.45,-474.6C74.59,-403.62 108.73,-164.14 160,-109.5 163.27,-106.02 166.94,-102.94 170.88,-100.22"/>
<polygon fill="#63b8ff" stroke="#63b8ff" points="61.94,-474.47 64.16,-484.83 68.89,-475.35 61.94,-474.47"/>
</a>
</g>
</g>
<!-- Node15 -->
<g id="Node000015" class="node">
<title>Node15</title>
<g id="a_Node000015"><a xlink:href="classboost_1_1graph__traits_3_01DGtal_1_1Object_3_01TDigitalTopology_00_01TDigitalSet_01_4_01_4_1_1out__edge__iterator.html" target="_top" xlink:title=" ">
<polygon fill="white" stroke="#666666" points="349,-41 160,-41 160,0 349,0 349,-41"/>
<text text-anchor="start" x="168" y="-29" font-family="FreeSans" font-size="10.00">boost::graph_traits</text>
<text text-anchor="start" x="168" y="-18" font-family="FreeSans" font-size="10.00">&lt; DGtal::Object&lt; TDigitalTopology,</text>
<text text-anchor="middle" x="254.5" y="-7" font-family="FreeSans" font-size="10.00"> TDigitalSet &gt; &gt;::out_edge_iterator</text>
</a>
</g>
</g>
<!-- Node0&#45;&gt;Node15 -->
<g id="edge170_Node000000_Node000015" class="edge">
<title>Node0&#45;&gt;Node15</title>
<g id="a_edge170_Node000000_Node000015"><a xlink:title=" ">
<path fill="none" stroke="#63b8ff" d="M64.73,-474.65C71.89,-396.97 101.57,-114.78 160,-50.5 163.21,-46.97 166.84,-43.85 170.75,-41.1"/>
<polygon fill="#63b8ff" stroke="#63b8ff" points="61.22,-474.66 63.81,-484.94 68.19,-475.29 61.22,-474.66"/>
</a>
</g>
</g>
</g>
</svg>
