<?xml version="1.0" encoding="UTF-8" standalone="no"?>
<!DOCTYPE svg PUBLIC "-//W3C//DTD SVG 1.1//EN"
 "http://www.w3.org/Graphics/SVG/1.1/DTD/svg11.dtd">
<!-- Generated by graphviz version 2.43.0 (0)
 -->
<!-- Title: Graphical Class Hierarchy Pages: 1 -->
<svg width="310pt" height="296pt"
 viewBox="0.00 0.00 310.00 296.00" xmlns="http://www.w3.org/2000/svg" xmlns:xlink="http://www.w3.org/1999/xlink">
<g id="graph0" class="graph" transform="scale(1 1) rotate(0) translate(4 292)">
<title>Graphical Class Hierarchy</title>
<polygon fill="white" stroke="transparent" points="-4,4 -4,-292 306,-292 306,4 -4,4"/>
<!-- Node660 -->
<g id="node1" class="node">
<title>Node660</title>
<g id="a_node1"><a xlink:title=" ">
<polygon fill="white" stroke="#bfbfbf" points="0,-148 0,-167 53,-167 53,-148 0,-148"/>
<text text-anchor="middle" x="26.5" y="-155" font-family="FreeSans" font-size="10.00">iterator</text>
</a>
</g>
</g>
<!-- Node0 -->
<g id="node2" class="node">
<title>Node0</title>
<g id="a_node2"><a xlink:href="classDGtal_1_1DigitalSetInserter.html" target="_top" xlink:title="Aim: this output iterator class is designed to allow algorithms to insert points in the digital set....">
<polygon fill="white" stroke="black" points="127.5,-257.5 127.5,-287.5 263.5,-287.5 263.5,-257.5 127.5,-257.5"/>
<text text-anchor="start" x="135.5" y="-275.5" font-family="FreeSans" font-size="10.00">DGtal::DigitalSetInserter</text>
<text text-anchor="middle" x="195.5" y="-264.5" font-family="FreeSans" font-size="10.00">&lt; TDigitalSet &gt;</text>
</a>
</g>
</g>
<!-- Node660&#45;&gt;Node0 -->
<g id="edge1" class="edge">
<title>Node660&#45;&gt;Node0</title>
<path fill="none" stroke="midnightblue" d="M35.28,-176.72C44.78,-197.68 62.88,-230.63 89,-248.5 100.39,-256.3 113.94,-261.59 127.47,-265.19"/>
<polygon fill="midnightblue" stroke="midnightblue" points="38.37,-175.05 31.2,-167.25 31.94,-177.82 38.37,-175.05"/>
</g>
<!-- Node662 -->
<g id="node3" class="node">
<title>Node662</title>
<g id="a_node3"><a xlink:href="classDGtal_1_1FreemanChain_1_1ConstIterator.html" target="_top" xlink:title=" ">
<polygon fill="white" stroke="black" points="121,-208.5 121,-238.5 270,-238.5 270,-208.5 121,-208.5"/>
<text text-anchor="start" x="129" y="-226.5" font-family="FreeSans" font-size="10.00">DGtal::FreemanChain</text>
<text text-anchor="middle" x="195.5" y="-215.5" font-family="FreeSans" font-size="10.00">&lt; TInteger &gt;::ConstIterator</text>
</a>
</g>
</g>
<!-- Node660&#45;&gt;Node662 -->
<g id="edge2" class="edge">
<title>Node660&#45;&gt;Node662</title>
<path fill="none" stroke="midnightblue" d="M47.09,-173.19C58.68,-181.78 74,-191.97 89,-198.5 99.01,-202.86 109.9,-206.52 120.76,-209.58"/>
<polygon fill="midnightblue" stroke="midnightblue" points="49.09,-170.31 39.02,-167.02 44.84,-175.87 49.09,-170.31"/>
</g>
<!-- Node663 -->
<g id="node4" class="node">
<title>Node663</title>
<g id="a_node4"><a xlink:href="classDGtal_1_1OneItemOutputIterator.html" target="_top" xlink:title="Aim: model of output iterator, ie incrementable and writable iterator, which only stores in a variabl...">
<polygon fill="white" stroke="black" points="100.5,-170 100.5,-189 290.5,-189 290.5,-170 100.5,-170"/>
<text text-anchor="middle" x="195.5" y="-177" font-family="FreeSans" font-size="10.00">DGtal::OneItemOutputIterator&lt; T &gt;</text>
</a>
</g>
</g>
<!-- Node660&#45;&gt;Node663 -->
<g id="edge3" class="edge">
<title>Node660&#45;&gt;Node663</title>
<path fill="none" stroke="midnightblue" d="M63.37,-162.23C80.57,-164.49 101.82,-167.29 122.17,-169.97"/>
<polygon fill="midnightblue" stroke="midnightblue" points="63.6,-158.73 53.23,-160.89 62.68,-165.67 63.6,-158.73"/>
</g>
<!-- Node664 -->
<g id="node5" class="node">
<title>Node664</title>
<g id="a_node5"><a xlink:href="classDGtal_1_1OutputIteratorAdapter.html" target="_top" xlink:title="Aim: Adapts an output iterator i with a unary functor f, both given at construction,...">
<polygon fill="white" stroke="black" points="99,-120.5 99,-150.5 292,-150.5 292,-120.5 99,-120.5"/>
<text text-anchor="start" x="107" y="-138.5" font-family="FreeSans" font-size="10.00">DGtal::OutputIteratorAdapter</text>
<text text-anchor="middle" x="195.5" y="-127.5" font-family="FreeSans" font-size="10.00">&lt; TIterator, TFunctor, TInputValue &gt;</text>
</a>
</g>
</g>
<!-- Node660&#45;&gt;Node664 -->
<g id="edge4" class="edge">
<title>Node660&#45;&gt;Node664</title>
<path fill="none" stroke="midnightblue" d="M63.3,-152.78C73.94,-151.38 86.13,-149.78 98.7,-148.12"/>
<polygon fill="midnightblue" stroke="midnightblue" points="62.68,-149.33 53.23,-154.11 63.6,-156.27 62.68,-149.33"/>
</g>
<!-- Node665 -->
<g id="node6" class="node">
<title>Node665</title>
<g id="a_node6"><a xlink:href="classDGtal_1_1SetValueIterator.html" target="_top" xlink:title="Aim: implements an output iterator, which is able to write values in an underlying image,...">
<polygon fill="white" stroke="black" points="119.5,-71.5 119.5,-101.5 271.5,-101.5 271.5,-71.5 119.5,-71.5"/>
<text text-anchor="start" x="127.5" y="-89.5" font-family="FreeSans" font-size="10.00">DGtal::SetValueIterator</text>
<text text-anchor="middle" x="195.5" y="-78.5" font-family="FreeSans" font-size="10.00">&lt; TImage, TIteratorOnPts &gt;</text>
</a>
</g>
</g>
<!-- Node660&#45;&gt;Node665 -->
<g id="edge5" class="edge">
<title>Node660&#45;&gt;Node665</title>
<path fill="none" stroke="midnightblue" d="M45.17,-141.18C56.83,-131.24 72.87,-119.04 89,-111.5 98.55,-107.03 108.97,-103.33 119.42,-100.26"/>
<polygon fill="midnightblue" stroke="midnightblue" points="42.71,-138.68 37.52,-147.92 47.34,-143.93 42.71,-138.68"/>
</g>
<!-- Node666 -->
<g id="node7" class="node">
<title>Node666</title>
<g id="a_node7"><a xlink:href="classDGtal_1_1TiledImage_1_1TiledIterator.html" target="_top" xlink:title=" ">
<polygon fill="white" stroke="black" points="89,-0.5 89,-52.5 302,-52.5 302,-0.5 89,-0.5"/>
<text text-anchor="start" x="97" y="-40.5" font-family="FreeSans" font-size="10.00">DGtal::TiledImage&lt;</text>
<text text-anchor="start" x="97" y="-29.5" font-family="FreeSans" font-size="10.00"> TImageContainer, TImageFactory,</text>
<text text-anchor="start" x="97" y="-18.5" font-family="FreeSans" font-size="10.00"> TImageCacheReadPolicy, TImageCache</text>
<text text-anchor="middle" x="195.5" y="-7.5" font-family="FreeSans" font-size="10.00">WritePolicy &gt;::TiledIterator</text>
</a>
</g>
</g>
<!-- Node660&#45;&gt;Node666 -->
<g id="edge6" class="edge">
<title>Node660&#45;&gt;Node666</title>
<path fill="none" stroke="midnightblue" d="M35.15,-138.58C44.71,-117.2 63.04,-82.75 89,-62.5 93.65,-58.87 98.7,-55.59 103.97,-52.64"/>
<polygon fill="midnightblue" stroke="midnightblue" points="31.88,-137.33 31.17,-147.9 38.31,-140.08 31.88,-137.33"/>
</g>
</g>
</svg>
