<?xml version="1.0" encoding="UTF-8" standalone="no"?>
<!DOCTYPE svg PUBLIC "-//W3C//DTD SVG 1.1//EN"
 "http://www.w3.org/Graphics/SVG/1.1/DTD/svg11.dtd">
<!-- Generated by graphviz version 2.43.0 (0)
 -->
<!-- Title: Graphical Class Hierarchy Pages: 1 -->
<svg width="360pt" height="134pt"
 viewBox="0.00 0.00 360.00 134.00" xmlns="http://www.w3.org/2000/svg" xmlns:xlink="http://www.w3.org/1999/xlink">
<g id="graph0" class="graph" transform="scale(1 1) rotate(0) translate(4 130)">
<title>Graphical Class Hierarchy</title>
<!-- Node0 -->
<g id="Node000000" class="node">
<title>Node0</title>
<g id="a_Node000000"><a xlink:href="classDGtal_1_1CubicalComplex.html" target="_top" xlink:title="Aim: This class represents an arbitrary cubical complex living in some Khalimsky space....">
<polygon fill="white" stroke="#666666" points="158,-78 0,-78 0,-48 158,-48 158,-78"/>
<text text-anchor="start" x="8" y="-66" font-family="FreeSans" font-size="10.00">DGtal::CubicalComplex</text>
<text text-anchor="middle" x="79" y="-55" font-family="FreeSans" font-size="10.00">&lt; TKSpace, TCellContainer &gt;</text>
</a>
</g>
</g>
<!-- Node1 -->
<g id="Node000001" class="node">
<title>Node1</title>
<g id="a_Node000001"><a xlink:href="classDGtal_1_1VoxelComplex.html" target="_top" xlink:title=" ">
<polygon fill="white" stroke="#666666" points="333,-126 213,-126 213,-96 333,-96 333,-126"/>
<text text-anchor="start" x="221" y="-114" font-family="FreeSans" font-size="10.00">DGtal::VoxelComplex</text>
<text text-anchor="middle" x="273" y="-103" font-family="FreeSans" font-size="10.00">&lt; KSpace &gt;</text>
</a>
</g>
</g>
<!-- Node0&#45;&gt;Node1 -->
<g id="edge227_Node000000_Node000001" class="edge">
<title>Node0&#45;&gt;Node1</title>
<g id="a_edge227_Node000000_Node000001"><a xlink:title=" ">
<path fill="none" stroke="#63b8ff" d="M150.19,-80.55C170.8,-85.7 193.13,-91.28 212.98,-96.24"/>
<polygon fill="#63b8ff" stroke="#63b8ff" points="150.77,-77.09 140.22,-78.06 149.08,-83.88 150.77,-77.09"/>
</a>
</g>
</g>
<!-- Node2 -->
<g id="Node000002" class="node">
<title>Node2</title>
<g id="a_Node000002"><a xlink:href="classDGtal_1_1VoxelComplex.html" target="_top" xlink:title=" ">
<polygon fill="white" stroke="#666666" points="341,-78 205,-78 205,-48 341,-48 341,-78"/>
<text text-anchor="start" x="213" y="-66" font-family="FreeSans" font-size="10.00">DGtal::VoxelComplex</text>
<text text-anchor="middle" x="273" y="-55" font-family="FreeSans" font-size="10.00">&lt; KSpace, FixtureMap &gt;</text>
</a>
</g>
</g>
<!-- Node0&#45;&gt;Node2 -->
<g id="edge228_Node000000_Node000002" class="edge">
<title>Node0&#45;&gt;Node2</title>
<g id="a_edge228_Node000000_Node000002"><a xlink:title=" ">
<path fill="none" stroke="#63b8ff" d="M168.32,-63C180.56,-63 192.97,-63 204.75,-63"/>
<polygon fill="#63b8ff" stroke="#63b8ff" points="168.09,-59.5 158.09,-63 168.09,-66.5 168.09,-59.5"/>
</a>
</g>
</g>
<!-- Node3 -->
<g id="Node000003" class="node">
<title>Node3</title>
<g id="a_Node000003"><a xlink:href="classDGtal_1_1VoxelComplex.html" target="_top" xlink:title="This class represents a voxel complex living in some Khalimsky space. Voxel complexes are derived fro...">
<polygon fill="white" stroke="#666666" points="352,-30 194,-30 194,0 352,0 352,-30"/>
<text text-anchor="start" x="202" y="-18" font-family="FreeSans" font-size="10.00">DGtal::VoxelComplex</text>
<text text-anchor="middle" x="273" y="-7" font-family="FreeSans" font-size="10.00">&lt; TKSpace, TCellContainer &gt;</text>
</a>
</g>
</g>
<!-- Node0&#45;&gt;Node3 -->
<g id="edge229_Node000000_Node000003" class="edge">
<title>Node0&#45;&gt;Node3</title>
<g id="a_edge229_Node000000_Node000003"><a xlink:title=" ">
<path fill="none" stroke="#63b8ff" d="M150.04,-45.49C170.36,-40.41 192.35,-34.91 211.99,-30"/>
<polygon fill="#63b8ff" stroke="#63b8ff" points="149.08,-42.12 140.22,-47.94 150.77,-48.91 149.08,-42.12"/>
</a>
</g>
</g>
</g>
</svg>
