<?xml version="1.0" encoding="UTF-8" standalone="no"?>
<!DOCTYPE svg PUBLIC "-//W3C//DTD SVG 1.1//EN"
 "http://www.w3.org/Graphics/SVG/1.1/DTD/svg11.dtd">
<!-- Generated by graphviz version 2.43.0 (0)
 -->
<!-- Title: Graphical Class Hierarchy Pages: 1 -->
<svg width="405pt" height="285pt"
 viewBox="0.00 0.00 405.00 285.00" xmlns="http://www.w3.org/2000/svg" xmlns:xlink="http://www.w3.org/1999/xlink">
<g id="graph0" class="graph" transform="scale(1 1) rotate(0) translate(4 281)">
<title>Graphical Class Hierarchy</title>
<!-- Node0 -->
<g id="Node000000" class="node">
<title>Node0</title>
<g id="a_Node000000"><a xlink:href="structDGtal_1_1ConvexHullCommonKernel.html" target="_top" xlink:title="Aim: the common part of all geometric kernels for computing the convex hull or Delaunay triangulation...">
<polygon fill="white" stroke="#666666" points="182,-159 0,-159 0,-118 182,-118 182,-159"/>
<text text-anchor="start" x="8" y="-147" font-family="FreeSans" font-size="10.00">DGtal::ConvexHullCommonKernel</text>
<text text-anchor="start" x="8" y="-136" font-family="FreeSans" font-size="10.00">&lt; dim, TCoordinateInteger,</text>
<text text-anchor="middle" x="91" y="-125" font-family="FreeSans" font-size="10.00"> TInternalInteger &gt;</text>
</a>
</g>
</g>
<!-- Node1 -->
<g id="Node000001" class="node">
<title>Node1</title>
<g id="a_Node000001"><a xlink:href="structDGtal_1_1ConvexHullIntegralKernel.html" target="_top" xlink:title=" ">
<polygon fill="white" stroke="#666666" points="379.5,-277 235.5,-277 235.5,-236 379.5,-236 379.5,-277"/>
<text text-anchor="start" x="243.5" y="-265" font-family="FreeSans" font-size="10.00">DGtal::ConvexHullIntegral</text>
<text text-anchor="start" x="243.5" y="-254" font-family="FreeSans" font-size="10.00">Kernel&lt; dim, DGtal::int64</text>
<text text-anchor="middle" x="307.5" y="-243" font-family="FreeSans" font-size="10.00">_t, DGtal::int64_t &gt;</text>
</a>
</g>
</g>
<!-- Node0&#45;&gt;Node1 -->
<g id="edge222_Node000000_Node000001" class="edge">
<title>Node0&#45;&gt;Node1</title>
<g id="a_edge222_Node000000_Node000001"><a xlink:title=" ">
<path fill="none" stroke="#63b8ff" d="M124.52,-165.59C148.99,-184.92 184.03,-210.42 218,-227.5 224.07,-230.55 230.53,-233.38 237.08,-235.98"/>
<polygon fill="#63b8ff" stroke="#63b8ff" points="126.63,-162.8 116.64,-159.29 122.26,-168.26 126.63,-162.8"/>
</a>
</g>
</g>
<!-- Node2 -->
<g id="Node000002" class="node">
<title>Node2</title>
<g id="a_Node000002"><a xlink:href="structDGtal_1_1ConvexHullIntegralKernel.html" target="_top" xlink:title="Aim: a geometric kernel to compute the convex hull of digital points with integer&#45;only arithmetic.">
<polygon fill="white" stroke="#666666" points="397,-218 218,-218 218,-177 397,-177 397,-218"/>
<text text-anchor="start" x="226" y="-206" font-family="FreeSans" font-size="10.00">DGtal::ConvexHullIntegral</text>
<text text-anchor="start" x="226" y="-195" font-family="FreeSans" font-size="10.00">Kernel&lt; dim, TCoordinateInteger,</text>
<text text-anchor="middle" x="307.5" y="-184" font-family="FreeSans" font-size="10.00"> TInternalInteger &gt;</text>
</a>
</g>
</g>
<!-- Node0&#45;&gt;Node2 -->
<g id="edge223_Node000000_Node000002" class="edge">
<title>Node0&#45;&gt;Node2</title>
<g id="a_edge223_Node000000_Node000002"><a xlink:title=" ">
<path fill="none" stroke="#63b8ff" d="M176.45,-161.73C194.69,-166.75 213.85,-172.01 231.68,-176.92"/>
<polygon fill="#63b8ff" stroke="#63b8ff" points="177.29,-158.33 166.72,-159.05 175.43,-165.08 177.29,-158.33"/>
</a>
</g>
</g>
<!-- Node3 -->
<g id="Node000003" class="node">
<title>Node3</title>
<g id="a_Node000003"><a xlink:href="structDGtal_1_1ConvexHullRationalKernel.html" target="_top" xlink:title="Aim: a geometric kernel to compute the convex hull of floating points with integer&#45;only arithmetic....">
<polygon fill="white" stroke="#666666" points="397,-159 218,-159 218,-118 397,-118 397,-159"/>
<text text-anchor="start" x="226" y="-147" font-family="FreeSans" font-size="10.00">DGtal::ConvexHullRational</text>
<text text-anchor="start" x="226" y="-136" font-family="FreeSans" font-size="10.00">Kernel&lt; dim, TCoordinateInteger,</text>
<text text-anchor="middle" x="307.5" y="-125" font-family="FreeSans" font-size="10.00"> TInternalInteger &gt;</text>
</a>
</g>
</g>
<!-- Node0&#45;&gt;Node3 -->
<g id="edge224_Node000000_Node000003" class="edge">
<title>Node0&#45;&gt;Node3</title>
<g id="a_edge224_Node000000_Node000003"><a xlink:title=" ">
<path fill="none" stroke="#63b8ff" d="M192.05,-138.5C200.62,-138.5 209.25,-138.5 217.73,-138.5"/>
<polygon fill="#63b8ff" stroke="#63b8ff" points="192.04,-135 182.03,-138.5 192.03,-142 192.04,-135"/>
</a>
</g>
</g>
<!-- Node4 -->
<g id="Node000004" class="node">
<title>Node4</title>
<g id="a_Node000004"><a xlink:href="structDGtal_1_1DelaunayIntegralKernel.html" target="_top" xlink:title="Aim: a geometric kernel to compute the Delaunay triangulation of digital points with integer&#45;only ari...">
<polygon fill="white" stroke="#666666" points="390,-100 225,-100 225,-59 390,-59 390,-100"/>
<text text-anchor="start" x="233" y="-88" font-family="FreeSans" font-size="10.00">DGtal::DelaunayIntegralKernel</text>
<text text-anchor="start" x="233" y="-77" font-family="FreeSans" font-size="10.00">&lt; dim, TCoordinateInteger,</text>
<text text-anchor="middle" x="307.5" y="-66" font-family="FreeSans" font-size="10.00"> TInternalInteger &gt;</text>
</a>
</g>
</g>
<!-- Node0&#45;&gt;Node4 -->
<g id="edge225_Node000000_Node000004" class="edge">
<title>Node0&#45;&gt;Node4</title>
<g id="a_edge225_Node000000_Node000004"><a xlink:title=" ">
<path fill="none" stroke="#63b8ff" d="M176.45,-115.27C194.69,-110.25 213.85,-104.99 231.68,-100.08"/>
<polygon fill="#63b8ff" stroke="#63b8ff" points="175.43,-111.92 166.72,-117.95 177.29,-118.67 175.43,-111.92"/>
</a>
</g>
</g>
<!-- Node5 -->
<g id="Node000005" class="node">
<title>Node5</title>
<g id="a_Node000005"><a xlink:href="structDGtal_1_1DelaunayRationalKernel.html" target="_top" xlink:title="Aim: a geometric kernel to compute the Delaunay triangulation of a range of floating points with inte...">
<polygon fill="white" stroke="#666666" points="391.5,-41 223.5,-41 223.5,0 391.5,0 391.5,-41"/>
<text text-anchor="start" x="231.5" y="-29" font-family="FreeSans" font-size="10.00">DGtal::DelaunayRationalKernel</text>
<text text-anchor="start" x="231.5" y="-18" font-family="FreeSans" font-size="10.00">&lt; dim, TCoordinateInteger,</text>
<text text-anchor="middle" x="307.5" y="-7" font-family="FreeSans" font-size="10.00"> TInternalInteger &gt;</text>
</a>
</g>
</g>
<!-- Node0&#45;&gt;Node5 -->
<g id="edge226_Node000000_Node000005" class="edge">
<title>Node0&#45;&gt;Node5</title>
<g id="a_edge226_Node000000_Node000005"><a xlink:title=" ">
<path fill="none" stroke="#63b8ff" d="M125.08,-111.48C149.59,-92.47 184.41,-67.49 218,-50.5 224.66,-47.13 231.78,-44.01 238.99,-41.14"/>
<polygon fill="#63b8ff" stroke="#63b8ff" points="122.89,-108.75 117.18,-117.68 127.21,-114.26 122.89,-108.75"/>
</a>
</g>
</g>
</g>
</svg>
