<?xml version="1.0" encoding="UTF-8" standalone="no"?>
<!DOCTYPE svg PUBLIC "-//W3C//DTD SVG 1.1//EN"
 "http://www.w3.org/Graphics/SVG/1.1/DTD/svg11.dtd">
<!-- Generated by graphviz version 2.43.0 (0)
 -->
<!-- Title: Graphical Class Hierarchy Pages: 1 -->
<svg width="280pt" height="64pt"
 viewBox="0.00 0.00 280.00 64.00" xmlns="http://www.w3.org/2000/svg" xmlns:xlink="http://www.w3.org/1999/xlink">
<g id="graph0" class="graph" transform="scale(1 1) rotate(0) translate(4 60)">
<title>Graphical Class Hierarchy</title>
<!-- Node0 -->
<g id="Node000000" class="node">
<title>Node0</title>
<g id="a_Node000000"><a xlink:href="classDGtal_1_1TraceWriter.html" target="_top" xlink:title="Virtual Class to implement trace writers.">
<polygon fill="white" stroke="#666666" points="106,-37 0,-37 0,-18 106,-18 106,-37"/>
<text text-anchor="middle" x="53" y="-25" font-family="FreeSans" font-size="10.00">DGtal::TraceWriter</text>
</a>
</g>
</g>
<!-- Node1 -->
<g id="Node000001" class="node">
<title>Node1</title>
<g id="a_Node000001"><a xlink:href="classDGtal_1_1TraceWriterFile.html" target="_top" xlink:title=" ">
<polygon fill="white" stroke="#666666" points="268.5,-56 145.5,-56 145.5,-37 268.5,-37 268.5,-56"/>
<text text-anchor="middle" x="207" y="-44" font-family="FreeSans" font-size="10.00">DGtal::TraceWriterFile</text>
</a>
</g>
</g>
<!-- Node0&#45;&gt;Node1 -->
<g id="edge290_Node000000_Node000001" class="edge">
<title>Node0&#45;&gt;Node1</title>
<g id="a_edge290_Node000000_Node000001"><a xlink:title=" ">
<path fill="none" stroke="#63b8ff" d="M116.24,-35.28C125.9,-36.49 135.87,-37.73 145.49,-38.94"/>
<polygon fill="#63b8ff" stroke="#63b8ff" points="116.67,-31.81 106.31,-34.04 115.8,-38.75 116.67,-31.81"/>
</a>
</g>
</g>
<!-- Node2 -->
<g id="Node000002" class="node">
<title>Node2</title>
<g id="a_Node000002"><a xlink:href="classDGtal_1_1TraceWriterTerm.html" target="_top" xlink:title="Implements trace prefix for color terminals.">
<polygon fill="white" stroke="#666666" points="272,-19 142,-19 142,0 272,0 272,-19"/>
<text text-anchor="middle" x="207" y="-7" font-family="FreeSans" font-size="10.00">DGtal::TraceWriterTerm</text>
</a>
</g>
</g>
<!-- Node0&#45;&gt;Node2 -->
<g id="edge291_Node000000_Node000002" class="edge">
<title>Node0&#45;&gt;Node2</title>
<g id="a_edge291_Node000000_Node000002"><a xlink:title=" ">
<path fill="none" stroke="#63b8ff" d="M116.38,-20.11C124.76,-19.12 133.36,-18.1 141.77,-17.11"/>
<polygon fill="#63b8ff" stroke="#63b8ff" points="115.83,-16.65 106.31,-21.31 116.65,-23.61 115.83,-16.65"/>
</a>
</g>
</g>
</g>
</svg>
