<?xml version="1.0" encoding="UTF-8" standalone="no"?>
<!DOCTYPE svg PUBLIC "-//W3C//DTD SVG 1.1//EN"
 "http://www.w3.org/Graphics/SVG/1.1/DTD/svg11.dtd">
<!-- Generated by graphviz version 2.43.0 (0)
 -->
<!-- Title: Graphical Class Hierarchy Pages: 1 -->
<svg width="364pt" height="508pt"
 viewBox="0.00 0.00 364.00 508.00" xmlns="http://www.w3.org/2000/svg" xmlns:xlink="http://www.w3.org/1999/xlink">
<g id="graph0" class="graph" transform="scale(1 1) rotate(0) translate(4 504)">
<title>Graphical Class Hierarchy</title>
<!-- Node0 -->
<g id="Node000000" class="node">
<title>Node0</title>
<g id="a_Node000000"><a xlink:href="structDGtal_1_1DrawableWithBoard2D.html" target="_top" xlink:title=" ">
<polygon fill="white" stroke="#666666" points="161,-259 0,-259 0,-240 161,-240 161,-259"/>
<text text-anchor="middle" x="80.5" y="-247" font-family="FreeSans" font-size="10.00">DGtal::DrawableWithBoard2D</text>
</a>
</g>
</g>
<!-- Node1 -->
<g id="Node000001" class="node">
<title>Node1</title>
<g id="a_Node000001"><a xlink:href="structDGtal_1_1CustomColors.html" target="_top" xlink:title="Custom style class redefining the pen color and the fill color. You may use Board2D::Color::None for ...">
<polygon fill="white" stroke="#666666" points="336,-500 217,-500 217,-481 336,-481 336,-500"/>
<text text-anchor="middle" x="276.5" y="-488" font-family="FreeSans" font-size="10.00">DGtal::CustomColors</text>
</a>
</g>
</g>
<!-- Node0&#45;&gt;Node1 -->
<g id="edge244_Node000000_Node000001" class="edge">
<title>Node0&#45;&gt;Node1</title>
<g id="a_edge244_Node000000_Node000001"><a xlink:title=" ">
<path fill="none" stroke="#63b8ff" d="M85.83,-269.43C96.47,-313.43 128.2,-419.2 197,-472.5 202.86,-477.04 209.66,-480.47 216.75,-483.06"/>
<polygon fill="#63b8ff" stroke="#63b8ff" points="89.18,-268.37 83.52,-259.42 82.36,-269.95 89.18,-268.37"/>
</a>
</g>
</g>
<!-- Node2 -->
<g id="Node000002" class="node">
<title>Node2</title>
<g id="a_Node000002"><a xlink:href="structDGtal_1_1CustomFillColor.html" target="_top" xlink:title="Custom style class redefining the fill color. You may use Board2D::Color::None for transparent color.">
<polygon fill="white" stroke="#666666" points="340.5,-463 212.5,-463 212.5,-444 340.5,-444 340.5,-463"/>
<text text-anchor="middle" x="276.5" y="-451" font-family="FreeSans" font-size="10.00">DGtal::CustomFillColor</text>
</a>
</g>
</g>
<!-- Node0&#45;&gt;Node2 -->
<g id="edge245_Node000000_Node000002" class="edge">
<title>Node0&#45;&gt;Node2</title>
<g id="a_edge245_Node000000_Node000002"><a xlink:title=" ">
<path fill="none" stroke="#63b8ff" d="M87.82,-268.94C101.32,-307.25 136.76,-392.47 197,-435.5 201.78,-438.91 207.1,-441.69 212.66,-443.95"/>
<polygon fill="#63b8ff" stroke="#63b8ff" points="90.99,-267.4 84.46,-259.06 84.37,-269.65 90.99,-267.4"/>
</a>
</g>
</g>
<!-- Node3 -->
<g id="Node000003" class="node">
<title>Node3</title>
<g id="a_Node000003"><a xlink:href="structDGtal_1_1CustomPen.html" target="_top" xlink:title="Custom style class redefining the pen attributes. You may use Board2D::Color::None for transparent co...">
<polygon fill="white" stroke="#666666" points="329.5,-426 223.5,-426 223.5,-407 329.5,-407 329.5,-426"/>
<text text-anchor="middle" x="276.5" y="-414" font-family="FreeSans" font-size="10.00">DGtal::CustomPen</text>
</a>
</g>
</g>
<!-- Node0&#45;&gt;Node3 -->
<g id="edge246_Node000000_Node000003" class="edge">
<title>Node0&#45;&gt;Node3</title>
<g id="a_edge246_Node000000_Node000003"><a xlink:title=" ">
<path fill="none" stroke="#63b8ff" d="M90.72,-268.6C107.29,-300.76 145.23,-365.43 197,-398.5 204.9,-403.54 214.03,-407.18 223.23,-409.8"/>
<polygon fill="#63b8ff" stroke="#63b8ff" points="93.72,-266.76 86.11,-259.39 87.46,-269.89 93.72,-266.76"/>
</a>
</g>
</g>
<!-- Node4 -->
<g id="Node000004" class="node">
<title>Node4</title>
<g id="a_Node000004"><a xlink:href="structDGtal_1_1CustomPenColor.html" target="_top" xlink:title="Custom style class redefining the pen color. You may use Board2D::Color::None for transparent color.">
<polygon fill="white" stroke="#666666" points="342,-389 211,-389 211,-370 342,-370 342,-389"/>
<text text-anchor="middle" x="276.5" y="-377" font-family="FreeSans" font-size="10.00">DGtal::CustomPenColor</text>
</a>
</g>
</g>
<!-- Node0&#45;&gt;Node4 -->
<g id="edge247_Node000000_Node000004" class="edge">
<title>Node0&#45;&gt;Node4</title>
<g id="a_edge247_Node000000_Node000004"><a xlink:title=" ">
<path fill="none" stroke="#63b8ff" d="M94.63,-267.32C114.1,-292.38 153.06,-337.63 197,-361.5 203.27,-364.9 210.15,-367.67 217.16,-369.91"/>
<polygon fill="#63b8ff" stroke="#63b8ff" points="97.21,-264.92 88.37,-259.08 91.63,-269.16 97.21,-264.92"/>
</a>
</g>
</g>
<!-- Node5 -->
<g id="Node000005" class="node">
<title>Node5</title>
<g id="a_Node000005"><a xlink:href="structMyDomainStyleCustomRed.html" target="_top" xlink:title=" ">
<polygon fill="white" stroke="#666666" points="352,-352 201,-352 201,-333 352,-333 352,-352"/>
<text text-anchor="middle" x="276.5" y="-340" font-family="FreeSans" font-size="10.00">MyDomainStyleCustomRed</text>
</a>
</g>
</g>
<!-- Node0&#45;&gt;Node5 -->
<g id="edge248_Node000000_Node000005" class="edge">
<title>Node0&#45;&gt;Node5</title>
<g id="a_edge248_Node000000_Node000005"><a xlink:title=" ">
<path fill="none" stroke="#63b8ff" d="M101.1,-265.33C123.15,-282.38 160.66,-309.11 197,-324.5 204.98,-327.88 213.7,-330.68 222.34,-332.98"/>
<polygon fill="#63b8ff" stroke="#63b8ff" points="103.2,-262.53 93.18,-259.11 98.88,-268.04 103.2,-262.53"/>
</a>
</g>
</g>
<!-- Node6 -->
<g id="Node000006" class="node">
<title>Node6</title>
<g id="a_Node000006"><a xlink:href="structMyDrawStyleCustomBlue.html" target="_top" xlink:title=" ">
<polygon fill="white" stroke="#666666" points="347,-315 206,-315 206,-296 347,-296 347,-315"/>
<text text-anchor="middle" x="276.5" y="-303" font-family="FreeSans" font-size="10.00">MyDrawStyleCustomBlue</text>
</a>
</g>
</g>
<!-- Node0&#45;&gt;Node6 -->
<g id="edge249_Node000000_Node000006" class="edge">
<title>Node0&#45;&gt;Node6</title>
<g id="a_edge249_Node000000_Node000006"><a xlink:title=" ">
<path fill="none" stroke="#63b8ff" d="M117.89,-262.43C140.5,-270.22 170.25,-280.05 197,-287.5 207.78,-290.5 219.48,-293.38 230.49,-295.93"/>
<polygon fill="#63b8ff" stroke="#63b8ff" points="118.95,-259.09 108.35,-259.12 116.65,-265.71 118.95,-259.09"/>
</a>
</g>
</g>
<!-- Node7 -->
<g id="Node000007" class="node">
<title>Node7</title>
<g id="a_Node000007"><a xlink:href="structMyDrawStyleCustomColor.html" target="_top" xlink:title=" ">
<polygon fill="white" stroke="#666666" points="349,-278 204,-278 204,-259 349,-259 349,-278"/>
<text text-anchor="middle" x="276.5" y="-266" font-family="FreeSans" font-size="10.00">MyDrawStyleCustomColor</text>
</a>
</g>
</g>
<!-- Node0&#45;&gt;Node7 -->
<g id="edge250_Node000000_Node000007" class="edge">
<title>Node0&#45;&gt;Node7</title>
<g id="a_edge250_Node000000_Node000007"><a xlink:title=" ">
<path fill="none" stroke="#63b8ff" d="M171.23,-258.29C182.16,-259.36 193.22,-260.44 203.84,-261.48"/>
<polygon fill="#63b8ff" stroke="#63b8ff" points="171.54,-254.8 161.25,-257.31 170.86,-261.77 171.54,-254.8"/>
</a>
</g>
</g>
<!-- Node8 -->
<g id="Node000008" class="node">
<title>Node8</title>
<g id="a_Node000008"><a xlink:href="structMyDrawStyleCustomFillColor.html" target="_top" xlink:title=" ">
<polygon fill="white" stroke="#666666" points="356,-241 197,-241 197,-222 356,-222 356,-241"/>
<text text-anchor="middle" x="276.5" y="-229" font-family="FreeSans" font-size="10.00">MyDrawStyleCustomFillColor</text>
</a>
</g>
</g>
<!-- Node0&#45;&gt;Node8 -->
<g id="edge251_Node000000_Node000008" class="edge">
<title>Node0&#45;&gt;Node8</title>
<g id="a_edge251_Node000000_Node000008"><a xlink:title=" ">
<path fill="none" stroke="#63b8ff" d="M171.47,-241.15C179.89,-240.37 188.38,-239.58 196.69,-238.81"/>
<polygon fill="#63b8ff" stroke="#63b8ff" points="170.88,-237.69 161.25,-242.1 171.53,-244.66 170.88,-237.69"/>
</a>
</g>
</g>
<!-- Node9 -->
<g id="Node000009" class="node">
<title>Node9</title>
<g id="a_Node000009"><a xlink:href="structMyDrawStyleCustomGreen.html" target="_top" xlink:title=" ">
<polygon fill="white" stroke="#666666" points="351,-204 202,-204 202,-185 351,-185 351,-204"/>
<text text-anchor="middle" x="276.5" y="-192" font-family="FreeSans" font-size="10.00">MyDrawStyleCustomGreen</text>
</a>
</g>
</g>
<!-- Node0&#45;&gt;Node9 -->
<g id="edge252_Node000000_Node000009" class="edge">
<title>Node0&#45;&gt;Node9</title>
<g id="a_edge252_Node000000_Node000009"><a xlink:title=" ">
<path fill="none" stroke="#63b8ff" d="M120.09,-236.79C142.45,-229.59 171.19,-220.64 197,-213.5 208.89,-210.21 221.89,-206.94 233.82,-204.06"/>
<polygon fill="#63b8ff" stroke="#63b8ff" points="118.74,-233.55 110.3,-239.95 120.89,-240.21 118.74,-233.55"/>
</a>
</g>
</g>
<!-- Node10 -->
<g id="Node000010" class="node">
<title>Node10</title>
<g id="a_Node000010"><a xlink:href="structMyDrawStyleCustomRed.html" target="_top" xlink:title=" ">
<polygon fill="white" stroke="#666666" points="345.5,-167 207.5,-167 207.5,-148 345.5,-148 345.5,-167"/>
<text text-anchor="middle" x="276.5" y="-155" font-family="FreeSans" font-size="10.00">MyDrawStyleCustomRed</text>
</a>
</g>
</g>
<!-- Node0&#45;&gt;Node10 -->
<g id="edge253_Node000000_Node000010" class="edge">
<title>Node0&#45;&gt;Node10</title>
<g id="a_edge253_Node000000_Node000010"><a xlink:title=" ">
<path fill="none" stroke="#63b8ff" d="M101.57,-233.93C123.76,-217.43 161.13,-191.69 197,-176.5 205.91,-172.73 215.72,-169.61 225.3,-167.06"/>
<polygon fill="#63b8ff" stroke="#63b8ff" points="99.44,-231.15 93.57,-239.97 103.66,-236.74 99.44,-231.15"/>
</a>
</g>
</g>
<!-- Node11 -->
<g id="Node000011" class="node">
<title>Node11</title>
<g id="a_Node000011"><a xlink:href="structMyObjectStyleCustom.html" target="_top" xlink:title=" ">
<polygon fill="white" stroke="#666666" points="339,-130 214,-130 214,-111 339,-111 339,-130"/>
<text text-anchor="middle" x="276.5" y="-118" font-family="FreeSans" font-size="10.00">MyObjectStyleCustom</text>
</a>
</g>
</g>
<!-- Node0&#45;&gt;Node11 -->
<g id="edge254_Node000000_Node000011" class="edge">
<title>Node0&#45;&gt;Node11</title>
<g id="a_edge254_Node000000_Node000011"><a xlink:title=" ">
<path fill="none" stroke="#63b8ff" d="M95.04,-231.71C114.74,-207.12 153.7,-163.11 197,-139.5 204.14,-135.61 212.07,-132.5 220.08,-130.03"/>
<polygon fill="#63b8ff" stroke="#63b8ff" points="92.1,-229.79 88.68,-239.82 97.61,-234.11 92.1,-229.79"/>
</a>
</g>
</g>
<!-- Node12 -->
<g id="Node000012" class="node">
<title>Node12</title>
<g id="a_Node000012"><a xlink:href="structMyObjectStyleCustomRed.html" target="_top" xlink:title=" ">
<polygon fill="white" stroke="#666666" points="348.5,-93 204.5,-93 204.5,-74 348.5,-74 348.5,-93"/>
<text text-anchor="middle" x="276.5" y="-81" font-family="FreeSans" font-size="10.00">MyObjectStyleCustomRed</text>
</a>
</g>
</g>
<!-- Node0&#45;&gt;Node12 -->
<g id="edge255_Node000000_Node000012" class="edge">
<title>Node0&#45;&gt;Node12</title>
<g id="a_edge255_Node000000_Node000012"><a xlink:title=" ">
<path fill="none" stroke="#63b8ff" d="M90.84,-230.72C107.57,-199.09 145.75,-135.43 197,-102.5 203.02,-98.63 209.75,-95.55 216.68,-93.1"/>
<polygon fill="#63b8ff" stroke="#63b8ff" points="87.64,-229.29 86.17,-239.78 93.86,-232.49 87.64,-229.29"/>
</a>
</g>
</g>
<!-- Node13 -->
<g id="Node000013" class="node">
<title>Node13</title>
<g id="a_Node000013"><a xlink:href="structMyStyleCustom.html" target="_top" xlink:title=" ">
<polygon fill="white" stroke="#666666" points="323.5,-56 229.5,-56 229.5,-37 323.5,-37 323.5,-56"/>
<text text-anchor="middle" x="276.5" y="-44" font-family="FreeSans" font-size="10.00">MyStyleCustom</text>
</a>
</g>
</g>
<!-- Node0&#45;&gt;Node13 -->
<g id="edge256_Node000000_Node000013" class="edge">
<title>Node0&#45;&gt;Node13</title>
<g id="a_edge256_Node000000_Node000013"><a xlink:title=" ">
<path fill="none" stroke="#63b8ff" d="M88.12,-229.79C101.96,-191.75 137.65,-108.21 197,-65.5 206.45,-58.7 218.02,-54.31 229.35,-51.49"/>
<polygon fill="#63b8ff" stroke="#63b8ff" points="84.67,-229.05 84.66,-239.64 91.28,-231.37 84.67,-229.05"/>
</a>
</g>
</g>
<!-- Node14 -->
<g id="Node000014" class="node">
<title>Node14</title>
<g id="a_Node000014"><a xlink:href="structMyStyleCustomRed.html" target="_top" xlink:title=" ">
<polygon fill="white" stroke="#666666" points="333,-19 220,-19 220,0 333,0 333,-19"/>
<text text-anchor="middle" x="276.5" y="-7" font-family="FreeSans" font-size="10.00">MyStyleCustomRed</text>
</a>
</g>
</g>
<!-- Node0&#45;&gt;Node14 -->
<g id="edge257_Node000000_Node000014" class="edge">
<title>Node0&#45;&gt;Node14</title>
<g id="a_edge257_Node000000_Node000014"><a xlink:title=" ">
<path fill="none" stroke="#63b8ff" d="M85.93,-229.81C96.78,-186.32 128.91,-81.71 197,-28.5 203.74,-23.23 211.72,-19.4 219.98,-16.61"/>
<polygon fill="#63b8ff" stroke="#63b8ff" points="82.49,-229.16 83.57,-239.7 89.29,-230.79 82.49,-229.16"/>
</a>
</g>
</g>
</g>
</svg>
