<?xml version="1.0" encoding="UTF-8" standalone="no"?>
<!DOCTYPE svg PUBLIC "-//W3C//DTD SVG 1.1//EN"
 "http://www.w3.org/Graphics/SVG/1.1/DTD/svg11.dtd">
<!-- Generated by graphviz version 2.43.0 (0)
 -->
<!-- Title: Graphical Class Hierarchy Pages: 1 -->
<svg width="312pt" height="138pt"
 viewBox="0.00 0.00 312.00 138.00" xmlns="http://www.w3.org/2000/svg" xmlns:xlink="http://www.w3.org/1999/xlink">
<g id="graph0" class="graph" transform="scale(1 1) rotate(0) translate(4 134)">
<title>Graphical Class Hierarchy</title>
<!-- Node0 -->
<g id="Node000000" class="node">
<title>Node0</title>
<g id="a_Node000000"><a xlink:title=" ">
<polygon fill="#e0e0e0" stroke="#999999" points="121,-56 1,-56 1,-37 121,-37 121,-56"/>
<text text-anchor="middle" x="61" y="-44" font-family="FreeSans" font-size="10.00">adjacency_graph_tag</text>
</a>
</g>
</g>
<!-- Node1 -->
<g id="Node000001" class="node">
<title>Node1</title>
<g id="a_Node000001"><a xlink:href="structboost_1_1DigitalSurface__graph__traversal__category.html" target="_top" xlink:title=" ">
<polygon fill="white" stroke="#666666" points="304,-103.5 158,-103.5 158,-73.5 304,-73.5 304,-103.5"/>
<text text-anchor="start" x="166" y="-91.5" font-family="FreeSans" font-size="10.00">boost::DigitalSurface</text>
<text text-anchor="middle" x="231" y="-80.5" font-family="FreeSans" font-size="10.00">_graph_traversal_category</text>
</a>
</g>
</g>
<!-- Node0&#45;&gt;Node1 -->
<g id="edge2_Node000000_Node000001" class="edge">
<title>Node0&#45;&gt;Node1</title>
<g id="a_edge2_Node000000_Node000001"><a xlink:title=" ">
<path fill="none" stroke="#63b8ff" d="M109.89,-58.47C128.58,-63.15 150.23,-68.56 169.95,-73.49"/>
<polygon fill="#63b8ff" stroke="#63b8ff" points="110.67,-55.06 100.12,-56.03 108.97,-61.85 110.67,-55.06"/>
</a>
</g>
</g>
<!-- Node3 -->
<g id="Node000003" class="node">
<title>Node3</title>
<g id="a_Node000003"><a xlink:href="structboost_1_1Object__graph__traversal__category.html" target="_top" xlink:title=" ">
<polygon fill="white" stroke="#666666" points="288,-55.5 174,-55.5 174,-25.5 288,-25.5 288,-55.5"/>
<text text-anchor="start" x="182" y="-43.5" font-family="FreeSans" font-size="10.00">boost::Object_graph</text>
<text text-anchor="middle" x="231" y="-32.5" font-family="FreeSans" font-size="10.00">_traversal_category</text>
</a>
</g>
</g>
<!-- Node0&#45;&gt;Node3 -->
<g id="edge3_Node000000_Node000003" class="edge">
<title>Node0&#45;&gt;Node3</title>
<g id="a_edge3_Node000000_Node000003"><a xlink:title=" ">
<path fill="none" stroke="#63b8ff" d="M131.4,-44.02C145.53,-43.52 160.23,-42.99 173.84,-42.51"/>
<polygon fill="#63b8ff" stroke="#63b8ff" points="131.1,-40.53 121.23,-44.38 131.35,-47.53 131.1,-40.53"/>
</a>
</g>
</g>
<!-- Node2 -->
<g id="Node000002" class="node">
<title>Node2</title>
<g id="a_Node000002"><a xlink:title=" ">
<polygon fill="#e0e0e0" stroke="#999999" points="118.5,-19 3.5,-19 3.5,0 118.5,0 118.5,-19"/>
<text text-anchor="middle" x="61" y="-7" font-family="FreeSans" font-size="10.00">edge_list_graph_tag</text>
</a>
</g>
</g>
<!-- Node2&#45;&gt;Node1 -->
<g id="edge4_Node000002_Node000001" class="edge">
<title>Node2&#45;&gt;Node1</title>
<g id="a_edge4_Node000002_Node000001"><a xlink:title=" ">
<path fill="none" stroke="#63b8ff" d="M113.2,-22.86C116.25,-24.27 119.21,-25.81 122,-27.5 141.62,-39.4 138.57,-52.3 158,-64.5 163.36,-67.86 169.24,-70.81 175.25,-73.37"/>
<polygon fill="#63b8ff" stroke="#63b8ff" points="114.43,-19.58 103.85,-19.05 111.78,-26.06 114.43,-19.58"/>
</a>
</g>
</g>
<!-- Node2&#45;&gt;Node3 -->
<g id="edge5_Node000002_Node000003" class="edge">
<title>Node2&#45;&gt;Node3</title>
<g id="a_edge5_Node000002_Node000003"><a xlink:title=" ">
<path fill="none" stroke="#63b8ff" d="M123.77,-20.9C140.12,-23.92 157.68,-27.16 173.72,-30.12"/>
<polygon fill="#63b8ff" stroke="#63b8ff" points="124.25,-17.43 113.78,-19.05 122.98,-24.31 124.25,-17.43"/>
</a>
</g>
</g>
<!-- Node4 -->
<g id="Node000004" class="node">
<title>Node4</title>
<g id="a_Node000004"><a xlink:title=" ">
<polygon fill="#e0e0e0" stroke="#999999" points="119.5,-130 2.5,-130 2.5,-111 119.5,-111 119.5,-130"/>
<text text-anchor="middle" x="61" y="-118" font-family="FreeSans" font-size="10.00">incidence_graph_tag</text>
</a>
</g>
</g>
<!-- Node4&#45;&gt;Node1 -->
<g id="edge6_Node000004_Node000001" class="edge">
<title>Node4&#45;&gt;Node1</title>
<g id="a_edge6_Node000004_Node000001"><a xlink:title=" ">
<path fill="none" stroke="#63b8ff" d="M121.97,-109.08C133.59,-106.86 145.89,-104.52 157.86,-102.24"/>
<polygon fill="#63b8ff" stroke="#63b8ff" points="121.12,-105.68 111.95,-110.99 122.43,-112.55 121.12,-105.68"/>
</a>
</g>
</g>
<!-- Node4&#45;&gt;Node3 -->
<g id="edge7_Node000004_Node000003" class="edge">
<title>Node4&#45;&gt;Node3</title>
<g id="a_edge7_Node000004_Node000003"><a xlink:title=" ">
<path fill="none" stroke="#63b8ff" d="M113.66,-106.98C116.55,-105.62 119.35,-104.13 122,-102.5 141.81,-90.3 138.38,-77 158,-64.5 163.33,-61.1 169.2,-58.14 175.21,-55.56"/>
<polygon fill="#63b8ff" stroke="#63b8ff" points="112.1,-103.84 104.2,-110.9 114.78,-110.31 112.1,-103.84"/>
</a>
</g>
</g>
<!-- Node5 -->
<g id="Node000005" class="node">
<title>Node5</title>
<g id="a_Node000005"><a xlink:title=" ">
<polygon fill="#e0e0e0" stroke="#999999" points="122,-93 0,-93 0,-74 122,-74 122,-93"/>
<text text-anchor="middle" x="61" y="-81" font-family="FreeSans" font-size="10.00">vertex_list_graph_tag</text>
</a>
</g>
</g>
<!-- Node5&#45;&gt;Node1 -->
<g id="edge8_Node000005_Node000001" class="edge">
<title>Node5&#45;&gt;Node1</title>
<g id="a_edge8_Node000005_Node000001"><a xlink:title=" ">
<path fill="none" stroke="#63b8ff" d="M132.36,-85.59C140.81,-85.85 149.44,-86.1 157.91,-86.35"/>
<polygon fill="#63b8ff" stroke="#63b8ff" points="132.28,-82.09 122.18,-85.29 132.07,-89.09 132.28,-82.09"/>
</a>
</g>
</g>
<!-- Node5&#45;&gt;Node3 -->
<g id="edge9_Node000005_Node000003" class="edge">
<title>Node5&#45;&gt;Node3</title>
<g id="a_edge9_Node000005_Node000003"><a xlink:title=" ">
<path fill="none" stroke="#63b8ff" d="M109.16,-71.43C129.3,-66.27 152.96,-60.22 173.98,-54.84"/>
<polygon fill="#63b8ff" stroke="#63b8ff" points="108.1,-68.09 99.28,-73.96 109.84,-74.87 108.1,-68.09"/>
</a>
</g>
</g>
</g>
</svg>
