<?xml version="1.0" encoding="UTF-8" standalone="no"?>
<!DOCTYPE svg PUBLIC "-//W3C//DTD SVG 1.1//EN"
 "http://www.w3.org/Graphics/SVG/1.1/DTD/svg11.dtd">
<!-- Generated by graphviz version 2.43.0 (0)
 -->
<!-- Title: Graphical Class Hierarchy Pages: 1 -->
<svg width="470pt" height="176pt"
 viewBox="0.00 0.00 470.00 176.00" xmlns="http://www.w3.org/2000/svg" xmlns:xlink="http://www.w3.org/1999/xlink">
<g id="graph0" class="graph" transform="scale(1 1) rotate(0) translate(4 172)">
<title>Graphical Class Hierarchy</title>
<polygon fill="white" stroke="transparent" points="-4,4 -4,-172 466,-172 466,4 -4,4"/>
<!-- Node995 -->
<g id="node1" class="node">
<title>Node995</title>
<g id="a_node1"><a xlink:href="classDGtal_1_1Display3D.html" target="_top" xlink:title="Aim: This semi abstract class defines the stream mechanism to display 3d primitive (like BallVector,...">
<polygon fill="white" stroke="black" points="34.5,-137.5 34.5,-167.5 178.5,-167.5 178.5,-137.5 34.5,-137.5"/>
<text text-anchor="start" x="42.5" y="-155.5" font-family="FreeSans" font-size="10.00">DGtal::Display3D&lt; Space,</text>
<text text-anchor="middle" x="106.5" y="-144.5" font-family="FreeSans" font-size="10.00"> KSpace &gt;</text>
</a>
</g>
</g>
<!-- Node333 -->
<g id="node2" class="node">
<title>Node333</title>
<g id="a_node2"><a xlink:href="classDGtal_1_1Viewer3D.html" target="_top" xlink:title=" ">
<polygon fill="white" stroke="black" points="285,-132.5 285,-162.5 426,-162.5 426,-132.5 285,-132.5"/>
<text text-anchor="start" x="293" y="-150.5" font-family="FreeSans" font-size="10.00">DGtal::Viewer3D&lt; Space,</text>
<text text-anchor="middle" x="355.5" y="-139.5" font-family="FreeSans" font-size="10.00"> KSpace &gt;</text>
</a>
</g>
</g>
<!-- Node995&#45;&gt;Node333 -->
<g id="edge1" class="edge">
<title>Node995&#45;&gt;Node333</title>
<path fill="none" stroke="midnightblue" d="M188.95,-150.85C219.94,-150.22 254.93,-149.52 284.74,-148.91"/>
<polygon fill="midnightblue" stroke="midnightblue" points="188.54,-147.36 178.61,-151.06 188.68,-154.36 188.54,-147.36"/>
</g>
<!-- Node994 -->
<g id="node3" class="node">
<title>Node994</title>
<g id="a_node3"><a xlink:href="classDGtal_1_1Display3D.html" target="_top" xlink:title=" ">
<polygon fill="white" stroke="black" points="0,-49.5 0,-79.5 213,-79.5 213,-49.5 0,-49.5"/>
<text text-anchor="start" x="8" y="-67.5" font-family="FreeSans" font-size="10.00">DGtal::Display3D&lt; DGtal</text>
<text text-anchor="middle" x="106.5" y="-56.5" font-family="FreeSans" font-size="10.00">::SpaceND, DGtal::KhalimskySpaceND &gt;</text>
</a>
</g>
</g>
<!-- Node332 -->
<g id="node4" class="node">
<title>Node332</title>
<g id="a_node4"><a xlink:href="classDGtal_1_1Viewer3D.html" target="_top" xlink:title=" ">
<polygon fill="white" stroke="black" points="249,-78.5 249,-108.5 462,-108.5 462,-78.5 249,-78.5"/>
<text text-anchor="start" x="257" y="-96.5" font-family="FreeSans" font-size="10.00">DGtal::Viewer3D&lt; DGtal</text>
<text text-anchor="middle" x="355.5" y="-85.5" font-family="FreeSans" font-size="10.00">::SpaceND, DGtal::KhalimskySpaceND &gt;</text>
</a>
</g>
</g>
<!-- Node994&#45;&gt;Node332 -->
<g id="edge2" class="edge">
<title>Node994&#45;&gt;Node332</title>
<path fill="none" stroke="midnightblue" d="M223.31,-78.1C231.84,-79.1 240.43,-80.11 248.89,-81.1"/>
<polygon fill="midnightblue" stroke="midnightblue" points="223.67,-74.61 213.33,-76.92 222.85,-81.57 223.67,-74.61"/>
</g>
<!-- Node991 -->
<g id="node5" class="node">
<title>Node991</title>
<g id="a_node5"><a xlink:href="classDGtal_1_1Display3D.html" target="_top" xlink:title=" ">
<polygon fill="white" stroke="black" points="13.5,-0.5 13.5,-30.5 199.5,-30.5 199.5,-0.5 13.5,-0.5"/>
<text text-anchor="start" x="21.5" y="-18.5" font-family="FreeSans" font-size="10.00">DGtal::Display3D&lt; SpaceND</text>
<text text-anchor="middle" x="106.5" y="-7.5" font-family="FreeSans" font-size="10.00">&lt; 3 &gt;, KhalimskySpaceND&lt; 3 &gt; &gt;</text>
</a>
</g>
</g>
<!-- Node0 -->
<g id="node6" class="node">
<title>Node0</title>
<g id="a_node6"><a xlink:href="classDGtal_1_1Viewer3D.html" target="_top" xlink:title=" ">
<polygon fill="white" stroke="black" points="282,-19.5 282,-49.5 429,-49.5 429,-19.5 282,-19.5"/>
<text text-anchor="start" x="290" y="-37.5" font-family="FreeSans" font-size="10.00">DGtal::Viewer3D&lt; TSpace,</text>
<text text-anchor="middle" x="355.5" y="-26.5" font-family="FreeSans" font-size="10.00"> TKSpace &gt;</text>
</a>
</g>
</g>
<!-- Node991&#45;&gt;Node0 -->
<g id="edge3" class="edge">
<title>Node991&#45;&gt;Node0</title>
<path fill="none" stroke="midnightblue" d="M210.09,-23.39C234.22,-25.25 259.45,-27.19 281.94,-28.92"/>
<polygon fill="midnightblue" stroke="midnightblue" points="210.06,-19.88 199.82,-22.6 209.53,-26.86 210.06,-19.88"/>
</g>
<!-- Node330 -->
<g id="node7" class="node">
<title>Node330</title>
<g id="a_node7"><a xlink:title=" ">
<polygon fill="white" stroke="#bfbfbf" points="71.5,-99 71.5,-118 141.5,-118 141.5,-99 71.5,-99"/>
<text text-anchor="middle" x="106.5" y="-106" font-family="FreeSans" font-size="10.00">QGLViewer</text>
</a>
</g>
</g>
<!-- Node330&#45;&gt;Node333 -->
<g id="edge6" class="edge">
<title>Node330&#45;&gt;Node333</title>
<path fill="none" stroke="midnightblue" d="M151.55,-115.46C188.53,-121.29 242.01,-129.74 284.79,-136.49"/>
<polygon fill="midnightblue" stroke="midnightblue" points="152.01,-111.98 141.58,-113.88 150.92,-118.9 152.01,-111.98"/>
</g>
<!-- Node330&#45;&gt;Node332 -->
<g id="edge5" class="edge">
<title>Node330&#45;&gt;Node332</title>
<path fill="none" stroke="midnightblue" d="M151.89,-105.8C179.01,-104.16 214.9,-101.98 248.94,-99.91"/>
<polygon fill="midnightblue" stroke="midnightblue" points="151.35,-102.33 141.58,-106.43 151.78,-109.32 151.35,-102.33"/>
</g>
<!-- Node330&#45;&gt;Node0 -->
<g id="edge4" class="edge">
<title>Node330&#45;&gt;Node0</title>
<path fill="none" stroke="midnightblue" d="M151.95,-103.8C171.11,-100.94 193.54,-96.44 213,-89.5 230.24,-83.35 232.24,-76.86 249,-69.5 266.14,-61.97 285.44,-55.13 302.8,-49.52"/>
<polygon fill="midnightblue" stroke="midnightblue" points="151.39,-100.35 141.97,-105.19 152.36,-107.28 151.39,-100.35"/>
</g>
</g>
</svg>
