<?xml version="1.0" encoding="UTF-8" standalone="no"?>
<!DOCTYPE svg PUBLIC "-//W3C//DTD SVG 1.1//EN"
 "http://www.w3.org/Graphics/SVG/1.1/DTD/svg11.dtd">
<!-- Generated by graphviz version 2.43.0 (0)
 -->
<!-- Title: Graphical Class Hierarchy Pages: 1 -->
<svg width="352pt" height="179pt"
 viewBox="0.00 0.00 352.00 179.00" xmlns="http://www.w3.org/2000/svg" xmlns:xlink="http://www.w3.org/1999/xlink">
<g id="graph0" class="graph" transform="scale(1 1) rotate(0) translate(4 175)">
<title>Graphical Class Hierarchy</title>
<!-- Node0 -->
<g id="Node000000" class="node">
<title>Node0</title>
<g id="a_Node000000"><a xlink:title=" ">
<polygon fill="#e0e0e0" stroke="#999999" points="84,-95 0,-95 0,-76 84,-76 84,-95"/>
<text text-anchor="middle" x="42" y="-83" font-family="FreeSans" font-size="10.00">std::true_type</text>
</a>
</g>
</g>
<!-- Node1 -->
<g id="Node000001" class="node">
<title>Node1</title>
<g id="a_Node000001"><a xlink:href="structDGtal_1_1IsAPointVector_3_01PointVector_3_01dim_00_01TEuclideanRing_00_01TContainer_01_4_01_4.html" target="_top" xlink:title="Specialization of IsAPointVector for a PointVector.">
<polygon fill="white" stroke="#666666" points="318.5,-171 145.5,-171 145.5,-130 318.5,-130 318.5,-171"/>
<text text-anchor="start" x="153.5" y="-159" font-family="FreeSans" font-size="10.00">DGtal::IsAPointVector</text>
<text text-anchor="start" x="153.5" y="-148" font-family="FreeSans" font-size="10.00">&lt; PointVector&lt; dim, TEuclidean</text>
<text text-anchor="middle" x="232" y="-137" font-family="FreeSans" font-size="10.00">Ring, TContainer &gt; &gt;</text>
</a>
</g>
</g>
<!-- Node0&#45;&gt;Node1 -->
<g id="edge330_Node000000_Node000001" class="edge">
<title>Node0&#45;&gt;Node1</title>
<g id="a_edge330_Node000000_Node000001"><a xlink:title=" ">
<path fill="none" stroke="#63b8ff" d="M70.98,-99.55C85.39,-106.44 103.38,-114.52 120,-120.5 129.3,-123.84 139.15,-127.02 149,-129.96"/>
<polygon fill="#63b8ff" stroke="#63b8ff" points="72.16,-96.23 61.63,-95 69.1,-102.52 72.16,-96.23"/>
</a>
</g>
</g>
<!-- Node2 -->
<g id="Node000002" class="node">
<title>Node2</title>
<g id="a_Node000002"><a xlink:href="structDGtal_1_1IsArithmeticConversionValid_3_01T_00_01U_00_01typename_01std_1_1conditional_3_01f3d12afaad57391e67b8a4fff74de6483.html" target="_top" xlink:title="Specialization when arithmetic operation between the two given type is valid.">
<polygon fill="white" stroke="#666666" points="344,-111.5 120,-111.5 120,-59.5 344,-59.5 344,-111.5"/>
<text text-anchor="start" x="128" y="-99.5" font-family="FreeSans" font-size="10.00">DGtal::IsArithmeticConversion</text>
<text text-anchor="start" x="128" y="-88.5" font-family="FreeSans" font-size="10.00">Valid&lt; T, U, typename std</text>
<text text-anchor="start" x="128" y="-77.5" font-family="FreeSans" font-size="10.00">::conditional&lt; false, ArithmeticConversion</text>
<text text-anchor="middle" x="232" y="-66.5" font-family="FreeSans" font-size="10.00">Type&lt; T, U &gt;, void &gt;::type &gt;</text>
</a>
</g>
</g>
<!-- Node0&#45;&gt;Node2 -->
<g id="edge331_Node000000_Node000002" class="edge">
<title>Node0&#45;&gt;Node2</title>
<g id="a_edge331_Node000000_Node000002"><a xlink:title=" ">
<path fill="none" stroke="#63b8ff" d="M94.49,-85.5C102.53,-85.5 111.09,-85.5 119.86,-85.5"/>
<polygon fill="#63b8ff" stroke="#63b8ff" points="94.26,-82 84.26,-85.5 94.26,-89 94.26,-82"/>
</a>
</g>
</g>
<!-- Node3 -->
<g id="Node000003" class="node">
<title>Node3</title>
<g id="a_Node000003"><a xlink:href="structDGtal_1_1Shortcuts_1_1is__double__nested__container_3_01C_3_01D_3_01T_01_4_01_4_01_4.html" target="_top" xlink:title=" ">
<polygon fill="white" stroke="#666666" points="317,-41 147,-41 147,0 317,0 317,-41"/>
<text text-anchor="start" x="155" y="-29" font-family="FreeSans" font-size="10.00">DGtal::Shortcuts&lt; TKSpace</text>
<text text-anchor="start" x="155" y="-18" font-family="FreeSans" font-size="10.00"> &gt;::is_double_nested_container</text>
<text text-anchor="middle" x="232" y="-7" font-family="FreeSans" font-size="10.00">&lt; C&lt; D&lt; T &gt; &gt; &gt;</text>
</a>
</g>
</g>
<!-- Node0&#45;&gt;Node3 -->
<g id="edge332_Node000000_Node000003" class="edge">
<title>Node0&#45;&gt;Node3</title>
<g id="a_edge332_Node000000_Node000003"><a xlink:title=" ">
<path fill="none" stroke="#63b8ff" d="M70.98,-71.45C85.39,-64.56 103.38,-56.48 120,-50.5 129.3,-47.16 139.15,-43.98 149,-41.04"/>
<polygon fill="#63b8ff" stroke="#63b8ff" points="69.1,-68.48 61.63,-76 72.16,-74.77 69.1,-68.48"/>
</a>
</g>
</g>
</g>
</svg>
