<?xml version="1.0" encoding="UTF-8" standalone="no"?>
<!DOCTYPE svg PUBLIC "-//W3C//DTD SVG 1.1//EN"
 "http://www.w3.org/Graphics/SVG/1.1/DTD/svg11.dtd">
<!-- Generated by graphviz version 2.43.0 (0)
 -->
<!-- Title: Graphical Class Hierarchy Pages: 1 -->
<svg width="1171pt" height="78pt"
 viewBox="0.00 0.00 1171.00 77.50" xmlns="http://www.w3.org/2000/svg" xmlns:xlink="http://www.w3.org/1999/xlink">
<g id="graph0" class="graph" transform="scale(1 1) rotate(0) translate(4 73.5)">
<title>Graphical Class Hierarchy</title>
<polygon fill="white" stroke="transparent" points="-4,4 -4,-73.5 1167,-73.5 1167,4 -4,4"/>
<!-- Node0 -->
<g id="node1" class="node">
<title>Node0</title>
<g id="a_node1"><a xlink:href="structboost_1_1Assignable.html" target="_top" xlink:title=" ">
<polygon fill="white" stroke="black" points="0,-28 0,-47 128,-47 128,-28 0,-28"/>
<text text-anchor="middle" x="64" y="-35" font-family="FreeSans" font-size="10.00">boost::Assignable&lt; I &gt;</text>
</a>
</g>
</g>
<!-- Node1 -->
<g id="node2" class="node">
<title>Node1</title>
<g id="a_node2"><a xlink:href="structDGtal_1_1concepts_1_1CUnaryFunctor.html" target="_top" xlink:title=" ">
<polygon fill="white" stroke="black" points="164,-22.5 164,-52.5 336,-52.5 336,-22.5 164,-22.5"/>
<text text-anchor="start" x="172" y="-40.5" font-family="FreeSans" font-size="10.00">DGtal::concepts::CUnaryFunctor</text>
<text text-anchor="middle" x="250" y="-29.5" font-family="FreeSans" font-size="10.00">&lt; I, I ::Point, I ::Value &gt;</text>
</a>
</g>
</g>
<!-- Node0&#45;&gt;Node1 -->
<g id="edge1" class="edge">
<title>Node0&#45;&gt;Node1</title>
<path fill="none" stroke="midnightblue" d="M138.23,-37.5C146.67,-37.5 155.32,-37.5 163.9,-37.5"/>
<polygon fill="midnightblue" stroke="midnightblue" points="138.06,-34 128.06,-37.5 138.06,-41 138.06,-34"/>
</g>
<!-- Node2 -->
<g id="node3" class="node">
<title>Node2</title>
<g id="a_node3"><a xlink:href="structDGtal_1_1concepts_1_1CPointFunctor.html" target="_top" xlink:title=" ">
<polygon fill="white" stroke="black" points="372,-28 372,-47 565,-47 565,-28 372,-28"/>
<text text-anchor="middle" x="468.5" y="-35" font-family="FreeSans" font-size="10.00">DGtal::concepts::CPointFunctor&lt; I &gt;</text>
</a>
</g>
</g>
<!-- Node1&#45;&gt;Node2 -->
<g id="edge2" class="edge">
<title>Node1&#45;&gt;Node2</title>
<path fill="none" stroke="midnightblue" d="M346.49,-37.5C354.94,-37.5 363.5,-37.5 371.95,-37.5"/>
<polygon fill="midnightblue" stroke="midnightblue" points="346.26,-34 336.26,-37.5 346.26,-41 346.26,-34"/>
</g>
<!-- Node3 -->
<g id="node4" class="node">
<title>Node3</title>
<g id="a_node4"><a xlink:href="structDGtal_1_1concepts_1_1CTrivialConstImage.html" target="_top" xlink:title="Aim: Defines the concept describing a read&#45;only image, which is a refinement of CPointFunctor.">
<polygon fill="white" stroke="black" points="601,-22.5 601,-52.5 737,-52.5 737,-22.5 601,-22.5"/>
<text text-anchor="start" x="609" y="-40.5" font-family="FreeSans" font-size="10.00">DGtal::concepts::CTrivial</text>
<text text-anchor="middle" x="669" y="-29.5" font-family="FreeSans" font-size="10.00">ConstImage&lt; I &gt;</text>
</a>
</g>
</g>
<!-- Node2&#45;&gt;Node3 -->
<g id="edge3" class="edge">
<title>Node2&#45;&gt;Node3</title>
<path fill="none" stroke="midnightblue" d="M575.38,-37.5C583.99,-37.5 592.54,-37.5 600.75,-37.5"/>
<polygon fill="midnightblue" stroke="midnightblue" points="575.26,-34 565.26,-37.5 575.26,-41 575.26,-34"/>
</g>
<!-- Node4 -->
<g id="node5" class="node">
<title>Node4</title>
<g id="a_node5"><a xlink:href="structDGtal_1_1concepts_1_1CConstImage.html" target="_top" xlink:title="Aim: Defines the concept describing a read&#45;only image, which is a refinement of CPointFunctor.">
<polygon fill="white" stroke="black" points="773,-50 773,-69 964,-69 964,-50 773,-50"/>
<text text-anchor="middle" x="868.5" y="-57" font-family="FreeSans" font-size="10.00">DGtal::concepts::CConstImage&lt; I &gt;</text>
</a>
</g>
</g>
<!-- Node3&#45;&gt;Node4 -->
<g id="edge4" class="edge">
<title>Node3&#45;&gt;Node4</title>
<path fill="none" stroke="midnightblue" d="M747.08,-46.09C758.54,-47.36 770.4,-48.68 782.01,-49.98"/>
<polygon fill="midnightblue" stroke="midnightblue" points="747.47,-42.61 737.14,-44.98 746.69,-49.56 747.47,-42.61"/>
</g>
<!-- Node6 -->
<g id="node7" class="node">
<title>Node6</title>
<g id="a_node7"><a xlink:href="structDGtal_1_1concepts_1_1CTrivialImage.html" target="_top" xlink:title="Aim: Defines the concept describing an image without extra ranges, which is a refinement of CTrivialC...">
<polygon fill="white" stroke="black" points="800.5,-0.5 800.5,-30.5 936.5,-30.5 936.5,-0.5 800.5,-0.5"/>
<text text-anchor="start" x="808.5" y="-18.5" font-family="FreeSans" font-size="10.00">DGtal::concepts::CTrivial</text>
<text text-anchor="middle" x="868.5" y="-7.5" font-family="FreeSans" font-size="10.00">Image&lt; I &gt;</text>
</a>
</g>
</g>
<!-- Node3&#45;&gt;Node6 -->
<g id="edge6" class="edge">
<title>Node3&#45;&gt;Node6</title>
<path fill="none" stroke="midnightblue" d="M747.3,-28.89C764.77,-26.94 783.19,-24.89 800.21,-23"/>
<polygon fill="midnightblue" stroke="midnightblue" points="746.69,-25.44 737.14,-30.02 747.47,-32.39 746.69,-25.44"/>
</g>
<!-- Node5 -->
<g id="node6" class="node">
<title>Node5</title>
<g id="a_node6"><a xlink:href="structDGtal_1_1concepts_1_1CImage.html" target="_top" xlink:title="Aim: Defines the concept describing a read/write image, having an output iterator.">
<polygon fill="white" stroke="black" points="1000,-28 1000,-47 1163,-47 1163,-28 1000,-28"/>
<text text-anchor="middle" x="1081.5" y="-35" font-family="FreeSans" font-size="10.00">DGtal::concepts::CImage&lt; I &gt;</text>
</a>
</g>
</g>
<!-- Node4&#45;&gt;Node5 -->
<g id="edge5" class="edge">
<title>Node4&#45;&gt;Node5</title>
<path fill="none" stroke="midnightblue" d="M970.94,-48.92C980.69,-47.91 990.48,-46.89 999.98,-45.9"/>
<polygon fill="midnightblue" stroke="midnightblue" points="970.4,-45.46 960.82,-49.98 971.13,-52.42 970.4,-45.46"/>
</g>
<!-- Node6&#45;&gt;Node5 -->
<g id="edge7" class="edge">
<title>Node6&#45;&gt;Node5</title>
<path fill="none" stroke="midnightblue" d="M946.63,-23.54C963.99,-25.35 982.46,-27.28 999.95,-29.1"/>
<polygon fill="midnightblue" stroke="midnightblue" points="946.86,-20.05 936.55,-22.49 946.13,-27.01 946.86,-20.05"/>
</g>
</g>
</svg>
