<?xml version="1.0" encoding="UTF-8" standalone="no"?>
<!DOCTYPE svg PUBLIC "-//W3C//DTD SVG 1.1//EN"
 "http://www.w3.org/Graphics/SVG/1.1/DTD/svg11.dtd">
<!-- Generated by graphviz version 2.43.0 (0)
 -->
<!-- Title: Graphical Class Hierarchy Pages: 1 -->
<svg width="301pt" height="175pt"
 viewBox="0.00 0.00 301.00 175.00" xmlns="http://www.w3.org/2000/svg" xmlns:xlink="http://www.w3.org/1999/xlink">
<g id="graph0" class="graph" transform="scale(1 1) rotate(0) translate(4 171)">
<title>Graphical Class Hierarchy</title>
<!-- Node0 -->
<g id="Node000000" class="node">
<title>Node0</title>
<g id="a_Node000000"><a xlink:title=" ">
<polygon fill="#e0e0e0" stroke="#999999" points="86,-93 0,-93 0,-74 86,-74 86,-93"/>
<text text-anchor="middle" x="43" y="-81" font-family="FreeSans" font-size="10.00">std::exception</text>
</a>
</g>
</g>
<!-- Node1 -->
<g id="Node000001" class="node">
<title>Node1</title>
<g id="a_Node000001"><a xlink:href="classDGtal_1_1ConnectivityException.html" target="_top" xlink:title=" ">
<polygon fill="white" stroke="#666666" points="287.5,-167 127.5,-167 127.5,-148 287.5,-148 287.5,-167"/>
<text text-anchor="middle" x="207.5" y="-155" font-family="FreeSans" font-size="10.00">DGtal::ConnectivityException</text>
</a>
</g>
</g>
<!-- Node0&#45;&gt;Node1 -->
<g id="edge319_Node000000_Node000001" class="edge">
<title>Node0&#45;&gt;Node1</title>
<g id="a_edge319_Node000000_Node000001"><a xlink:title=" ">
<path fill="none" stroke="#63b8ff" d="M62.15,-99.89C77.16,-112.57 99.57,-129.58 122,-139.5 129.68,-142.9 138.05,-145.67 146.43,-147.93"/>
<polygon fill="#63b8ff" stroke="#63b8ff" points="64.08,-96.92 54.23,-93.01 59.49,-102.21 64.08,-96.92"/>
</a>
</g>
</g>
<!-- Node2 -->
<g id="Node000002" class="node">
<title>Node2</title>
<g id="a_Node000002"><a xlink:href="classDGtal_1_1IOException.html" target="_top" xlink:title=" ">
<polygon fill="white" stroke="#666666" points="262,-130 153,-130 153,-111 262,-111 262,-130"/>
<text text-anchor="middle" x="207.5" y="-118" font-family="FreeSans" font-size="10.00">DGtal::IOException</text>
</a>
</g>
</g>
<!-- Node0&#45;&gt;Node2 -->
<g id="edge320_Node000000_Node000002" class="edge">
<title>Node0&#45;&gt;Node2</title>
<g id="a_edge320_Node000000_Node000002"><a xlink:title=" ">
<path fill="none" stroke="#63b8ff" d="M92.42,-95.53C102.2,-97.89 112.42,-100.31 122,-102.5 134.43,-105.34 147.92,-108.27 160.4,-110.93"/>
<polygon fill="#63b8ff" stroke="#63b8ff" points="92.97,-92.06 82.43,-93.1 91.32,-98.86 92.97,-92.06"/>
</a>
</g>
</g>
<!-- Node3 -->
<g id="Node000003" class="node">
<title>Node3</title>
<g id="a_Node000003"><a xlink:href="classDGtal_1_1InfiniteNumberException.html" target="_top" xlink:title=" ">
<polygon fill="white" stroke="#666666" points="293,-93 122,-93 122,-74 293,-74 293,-93"/>
<text text-anchor="middle" x="207.5" y="-81" font-family="FreeSans" font-size="10.00">DGtal::InfiniteNumberException</text>
</a>
</g>
</g>
<!-- Node0&#45;&gt;Node3 -->
<g id="edge321_Node000000_Node000003" class="edge">
<title>Node0&#45;&gt;Node3</title>
<g id="a_edge321_Node000000_Node000003"><a xlink:title=" ">
<path fill="none" stroke="#63b8ff" d="M96.37,-83.5C104.56,-83.5 113.19,-83.5 121.88,-83.5"/>
<polygon fill="#63b8ff" stroke="#63b8ff" points="96.27,-80 86.27,-83.5 96.27,-87 96.27,-80"/>
</a>
</g>
</g>
<!-- Node4 -->
<g id="Node000004" class="node">
<title>Node4</title>
<g id="a_Node000004"><a xlink:href="classDGtal_1_1InputException.html" target="_top" xlink:title=" ">
<polygon fill="white" stroke="#666666" points="269,-56 146,-56 146,-37 269,-37 269,-56"/>
<text text-anchor="middle" x="207.5" y="-44" font-family="FreeSans" font-size="10.00">DGtal::InputException</text>
</a>
</g>
</g>
<!-- Node0&#45;&gt;Node4 -->
<g id="edge322_Node000000_Node000004" class="edge">
<title>Node0&#45;&gt;Node4</title>
<g id="a_edge322_Node000000_Node000004"><a xlink:title=" ">
<path fill="none" stroke="#63b8ff" d="M95.2,-71.64C104.13,-69.58 113.34,-67.47 122,-65.5 135.63,-62.39 150.51,-59.04 163.94,-56.02"/>
<polygon fill="#63b8ff" stroke="#63b8ff" points="94.24,-68.27 85.28,-73.93 95.81,-75.09 94.24,-68.27"/>
</a>
</g>
</g>
<!-- Node5 -->
<g id="Node000005" class="node">
<title>Node5</title>
<g id="a_Node000005"><a xlink:href="classDGtal_1_1MemoryException.html" target="_top" xlink:title=" ">
<polygon fill="white" stroke="#666666" points="277,-19 138,-19 138,0 277,0 277,-19"/>
<text text-anchor="middle" x="207.5" y="-7" font-family="FreeSans" font-size="10.00">DGtal::MemoryException</text>
</a>
</g>
</g>
<!-- Node0&#45;&gt;Node5 -->
<g id="edge323_Node000000_Node000005" class="edge">
<title>Node0&#45;&gt;Node5</title>
<g id="a_edge323_Node000000_Node000005"><a xlink:title=" ">
<path fill="none" stroke="#63b8ff" d="M62.75,-67.06C77.79,-54.7 99.97,-38.28 122,-28.5 130.66,-24.66 140.17,-21.56 149.6,-19.06"/>
<polygon fill="#63b8ff" stroke="#63b8ff" points="60.16,-64.66 54.77,-73.79 64.67,-70.02 60.16,-64.66"/>
</a>
</g>
</g>
</g>
</svg>
