<?xml version="1.0" encoding="UTF-8" standalone="no"?>
<!DOCTYPE svg PUBLIC "-//W3C//DTD SVG 1.1//EN"
 "http://www.w3.org/Graphics/SVG/1.1/DTD/svg11.dtd">
<!-- Generated by graphviz version 2.43.0 (0)
 -->
<!-- Title: Graphical Class Hierarchy Pages: 1 -->
<svg width="350pt" height="86pt"
 viewBox="0.00 0.00 350.00 86.00" xmlns="http://www.w3.org/2000/svg" xmlns:xlink="http://www.w3.org/1999/xlink">
<g id="graph0" class="graph" transform="scale(1 1) rotate(0) translate(4 82)">
<title>Graphical Class Hierarchy</title>
<!-- Node0 -->
<g id="Node000000" class="node">
<title>Node0</title>
<g id="a_Node000000"><a xlink:href="classDGtal_1_1ArithmeticalDSL.html" target="_top" xlink:title="Aim: This class represents a naive (resp. standard) digital straight line (DSL), ie....">
<polygon fill="white" stroke="#666666" points="136,-59.5 0,-59.5 0,-18.5 136,-18.5 136,-59.5"/>
<text text-anchor="start" x="8" y="-47.5" font-family="FreeSans" font-size="10.00">DGtal::ArithmeticalDSL</text>
<text text-anchor="start" x="8" y="-36.5" font-family="FreeSans" font-size="10.00">&lt; TCoordinate, TInteger,</text>
<text text-anchor="middle" x="68" y="-25.5" font-family="FreeSans" font-size="10.00"> adjacency &gt;</text>
</a>
</g>
</g>
<!-- Node1 -->
<g id="Node000001" class="node">
<title>Node1</title>
<g id="a_Node000001"><a xlink:href="classDGtal_1_1NaiveDSL.html" target="_top" xlink:title="Aim: This class is an alias of ArithmeticalDSS for naive DSL. It represents a naive digital straight ...">
<polygon fill="white" stroke="#666666" points="342,-78 172,-78 172,-48 342,-48 342,-78"/>
<text text-anchor="start" x="180" y="-66" font-family="FreeSans" font-size="10.00">DGtal::NaiveDSL&lt; TCoordinate,</text>
<text text-anchor="middle" x="257" y="-55" font-family="FreeSans" font-size="10.00"> TInteger &gt;</text>
</a>
</g>
</g>
<!-- Node0&#45;&gt;Node1 -->
<g id="edge181_Node000000_Node000001" class="edge">
<title>Node0&#45;&gt;Node1</title>
<g id="a_edge181_Node000000_Node000001"><a xlink:title=" ">
<path fill="none" stroke="#63b8ff" d="M146.36,-48.93C154.74,-50 163.3,-51.1 171.76,-52.19"/>
<polygon fill="#63b8ff" stroke="#63b8ff" points="146.61,-45.43 136.25,-47.63 145.72,-52.38 146.61,-45.43"/>
</a>
</g>
</g>
<!-- Node2 -->
<g id="Node000002" class="node">
<title>Node2</title>
<g id="a_Node000002"><a xlink:href="classDGtal_1_1StandardDSL.html" target="_top" xlink:title="Aim: This class is an alias of ArithmeticalDSS for standard DSL. It represents a standard digital str...">
<polygon fill="white" stroke="#666666" points="329,-30 185,-30 185,0 329,0 329,-30"/>
<text text-anchor="start" x="193" y="-18" font-family="FreeSans" font-size="10.00">DGtal::StandardDSL</text>
<text text-anchor="middle" x="257" y="-7" font-family="FreeSans" font-size="10.00">&lt; TCoordinate, TInteger &gt;</text>
</a>
</g>
</g>
<!-- Node0&#45;&gt;Node2 -->
<g id="edge182_Node000000_Node000002" class="edge">
<title>Node0&#45;&gt;Node2</title>
<g id="a_edge182_Node000000_Node000002"><a xlink:title=" ">
<path fill="none" stroke="#63b8ff" d="M146.38,-29.07C159.15,-27.43 172.33,-25.74 184.93,-24.12"/>
<polygon fill="#63b8ff" stroke="#63b8ff" points="145.72,-25.62 136.25,-30.37 146.61,-32.57 145.72,-25.62"/>
</a>
</g>
</g>
</g>
</svg>
