<?xml version="1.0" encoding="UTF-8" standalone="no"?>
<!DOCTYPE svg PUBLIC "-//W3C//DTD SVG 1.1//EN"
 "http://www.w3.org/Graphics/SVG/1.1/DTD/svg11.dtd">
<!-- Generated by graphviz version 2.43.0 (0)
 -->
<!-- Title: Graphical Class Hierarchy Pages: 1 -->
<svg width="403pt" height="78pt"
 viewBox="0.00 0.00 403.00 77.50" xmlns="http://www.w3.org/2000/svg" xmlns:xlink="http://www.w3.org/1999/xlink">
<g id="graph0" class="graph" transform="scale(1 1) rotate(0) translate(4 73.5)">
<title>Graphical Class Hierarchy</title>
<polygon fill="white" stroke="transparent" points="-4,4 -4,-73.5 399,-73.5 399,4 -4,4"/>
<!-- Node863 -->
<g id="node1" class="node">
<title>Node863</title>
<g id="a_node1"><a xlink:title=" ">
<polygon fill="white" stroke="#bfbfbf" points="0,-22.5 0,-41.5 149,-41.5 149,-22.5 0,-22.5"/>
<text text-anchor="middle" x="74.5" y="-29.5" font-family="FreeSans" font-size="10.00">forward_iterator_archetype</text>
</a>
</g>
</g>
<!-- Node0 -->
<g id="node2" class="node">
<title>Node0</title>
<g id="a_node2"><a xlink:href="structDGtal_1_1CForwardIteratorArchetype.html" target="_top" xlink:title=" ">
<polygon fill="white" stroke="black" points="199,-39 199,-69 381,-69 381,-39 199,-39"/>
<text text-anchor="start" x="207" y="-57" font-family="FreeSans" font-size="10.00">DGtal::CForwardIteratorArchetype</text>
<text text-anchor="middle" x="290" y="-46" font-family="FreeSans" font-size="10.00">&lt; Point &gt;</text>
</a>
</g>
</g>
<!-- Node863&#45;&gt;Node0 -->
<g id="edge1" class="edge">
<title>Node863&#45;&gt;Node0</title>
<path fill="none" stroke="midnightblue" d="M159.47,-40.65C172.33,-41.98 185.65,-43.35 198.64,-44.69"/>
<polygon fill="midnightblue" stroke="midnightblue" points="159.58,-37.15 149.27,-39.6 158.86,-44.11 159.58,-37.15"/>
</g>
<!-- Node865 -->
<g id="node3" class="node">
<title>Node865</title>
<g id="a_node3"><a xlink:href="structDGtal_1_1CForwardIteratorArchetype.html" target="_top" xlink:title="An archetype of ForwardIterator.">
<polygon fill="white" stroke="black" points="185,-0.5 185,-19.5 395,-19.5 395,-0.5 185,-0.5"/>
<text text-anchor="middle" x="290" y="-7.5" font-family="FreeSans" font-size="10.00">DGtal::CForwardIteratorArchetype&lt; T &gt;</text>
</a>
</g>
</g>
<!-- Node863&#45;&gt;Node865 -->
<g id="edge2" class="edge">
<title>Node863&#45;&gt;Node865</title>
<path fill="none" stroke="midnightblue" d="M159.45,-23.35C171.7,-22.09 184.36,-20.78 196.77,-19.5"/>
<polygon fill="midnightblue" stroke="midnightblue" points="158.86,-19.89 149.27,-24.4 159.58,-26.85 158.86,-19.89"/>
</g>
</g>
</svg>
