<?xml version="1.0" encoding="UTF-8" standalone="no"?>
<!DOCTYPE svg PUBLIC "-//W3C//DTD SVG 1.1//EN"
 "http://www.w3.org/Graphics/SVG/1.1/DTD/svg11.dtd">
<!-- Generated by graphviz version 2.43.0 (0)
 -->
<!-- Title: Graphical Class Hierarchy Pages: 1 -->
<svg width="539pt" height="27pt"
 viewBox="0.00 0.00 539.00 27.00" xmlns="http://www.w3.org/2000/svg" xmlns:xlink="http://www.w3.org/1999/xlink">
<g id="graph0" class="graph" transform="scale(1 1) rotate(0) translate(4 23)">
<title>Graphical Class Hierarchy</title>
<!-- Node0 -->
<g id="Node000000" class="node">
<title>Node0</title>
<g id="a_Node000000"><a xlink:href="structDGtal_1_1ForwardCategory.html" target="_top" xlink:title=" ">
<polygon fill="white" stroke="#666666" points="134,-19 0,-19 0,0 134,0 134,-19"/>
<text text-anchor="middle" x="67" y="-7" font-family="FreeSans" font-size="10.00">DGtal::ForwardCategory</text>
</a>
</g>
</g>
<!-- Node1 -->
<g id="Node000001" class="node">
<title>Node1</title>
<g id="a_Node000001"><a xlink:href="structDGtal_1_1BidirectionalCategory.html" target="_top" xlink:title=" ">
<polygon fill="white" stroke="#666666" points="326,-19 170,-19 170,0 326,0 326,-19"/>
<text text-anchor="middle" x="248" y="-7" font-family="FreeSans" font-size="10.00">DGtal::BidirectionalCategory</text>
</a>
</g>
</g>
<!-- Node0&#45;&gt;Node1 -->
<g id="edge260_Node000000_Node000001" class="edge">
<title>Node0&#45;&gt;Node1</title>
<g id="a_edge260_Node000000_Node000001"><a xlink:title=" ">
<path fill="none" stroke="#63b8ff" d="M144.37,-9.5C152.84,-9.5 161.46,-9.5 169.94,-9.5"/>
<polygon fill="#63b8ff" stroke="#63b8ff" points="144.14,-6 134.14,-9.5 144.14,-13 144.14,-6"/>
</a>
</g>
</g>
<!-- Node2 -->
<g id="Node000002" class="node">
<title>Node2</title>
<g id="a_Node000002"><a xlink:href="structDGtal_1_1RandomAccessCategory.html" target="_top" xlink:title=" ">
<polygon fill="white" stroke="#666666" points="531,-19 362,-19 362,0 531,0 531,-19"/>
<text text-anchor="middle" x="446.5" y="-7" font-family="FreeSans" font-size="10.00">DGtal::RandomAccessCategory</text>
</a>
</g>
</g>
<!-- Node1&#45;&gt;Node2 -->
<g id="edge261_Node000001_Node000002" class="edge">
<title>Node1&#45;&gt;Node2</title>
<g id="a_edge261_Node000001_Node000002"><a xlink:title=" ">
<path fill="none" stroke="#63b8ff" d="M336.35,-9.5C344.81,-9.5 353.39,-9.5 361.81,-9.5"/>
<polygon fill="#63b8ff" stroke="#63b8ff" points="336.1,-6 326.1,-9.5 336.1,-13 336.1,-6"/>
</a>
</g>
</g>
</g>
</svg>
