<?xml version="1.0" encoding="UTF-8" standalone="no"?>
<!DOCTYPE svg PUBLIC "-//W3C//DTD SVG 1.1//EN"
 "http://www.w3.org/Graphics/SVG/1.1/DTD/svg11.dtd">
<!-- Generated by graphviz version 2.43.0 (0)
 -->
<!-- Title: Graphical Class Hierarchy Pages: 1 -->
<svg width="405pt" height="226pt"
 viewBox="0.00 0.00 405.00 226.00" xmlns="http://www.w3.org/2000/svg" xmlns:xlink="http://www.w3.org/1999/xlink">
<g id="graph0" class="graph" transform="scale(1 1) rotate(0) translate(4 222)">
<title>Graphical Class Hierarchy</title>
<!-- Node0 -->
<g id="Node000000" class="node">
<title>Node0</title>
<g id="a_Node000000"><a xlink:href="structDGtal_1_1ConvexHullCommonKernel.html" target="_top" xlink:title="Aim: the common part of all geometric kernels for computing the convex hull or Delaunay triangulation...">
<polygon fill="white" stroke="#666666" points="182,-129 0,-129 0,-88 182,-88 182,-129"/>
<text text-anchor="start" x="8" y="-117" font-family="FreeSans" font-size="10.00">DGtal::ConvexHullCommonKernel</text>
<text text-anchor="start" x="8" y="-106" font-family="FreeSans" font-size="10.00">&lt; dim, TCoordinateInteger,</text>
<text text-anchor="middle" x="91" y="-95" font-family="FreeSans" font-size="10.00"> TInternalInteger &gt;</text>
</a>
</g>
</g>
<!-- Node1 -->
<g id="Node000001" class="node">
<title>Node1</title>
<g id="a_Node000001"><a xlink:href="structDGtal_1_1ConvexHullIntegralKernel.html" target="_top" xlink:title="Aim: a geometric kernel to compute the convex hull of digital points with integer&#45;only arithmetic.">
<polygon fill="white" stroke="#666666" points="397,-218 218,-218 218,-177 397,-177 397,-218"/>
<text text-anchor="start" x="226" y="-206" font-family="FreeSans" font-size="10.00">DGtal::ConvexHullIntegral</text>
<text text-anchor="start" x="226" y="-195" font-family="FreeSans" font-size="10.00">Kernel&lt; dim, TCoordinateInteger,</text>
<text text-anchor="middle" x="307.5" y="-184" font-family="FreeSans" font-size="10.00"> TInternalInteger &gt;</text>
</a>
</g>
</g>
<!-- Node0&#45;&gt;Node1 -->
<g id="edge222_Node000000_Node000001" class="edge">
<title>Node0&#45;&gt;Node1</title>
<g id="a_edge222_Node000000_Node000001"><a xlink:title=" ">
<path fill="none" stroke="#63b8ff" d="M140.94,-133.6C164.01,-144.96 192.1,-158.14 218,-168.5 225.21,-171.38 232.82,-174.2 240.44,-176.89"/>
<polygon fill="#63b8ff" stroke="#63b8ff" points="142.22,-130.32 131.71,-129.01 139.11,-136.59 142.22,-130.32"/>
</a>
</g>
</g>
<!-- Node2 -->
<g id="Node000002" class="node">
<title>Node2</title>
<g id="a_Node000002"><a xlink:href="structDGtal_1_1ConvexHullRationalKernel.html" target="_top" xlink:title="Aim: a geometric kernel to compute the convex hull of floating points with integer&#45;only arithmetic....">
<polygon fill="white" stroke="#666666" points="397,-159 218,-159 218,-118 397,-118 397,-159"/>
<text text-anchor="start" x="226" y="-147" font-family="FreeSans" font-size="10.00">DGtal::ConvexHullRational</text>
<text text-anchor="start" x="226" y="-136" font-family="FreeSans" font-size="10.00">Kernel&lt; dim, TCoordinateInteger,</text>
<text text-anchor="middle" x="307.5" y="-125" font-family="FreeSans" font-size="10.00"> TInternalInteger &gt;</text>
</a>
</g>
</g>
<!-- Node0&#45;&gt;Node2 -->
<g id="edge223_Node000000_Node000002" class="edge">
<title>Node0&#45;&gt;Node2</title>
<g id="a_edge223_Node000000_Node000002"><a xlink:title=" ">
<path fill="none" stroke="#63b8ff" d="M192.05,-122.49C200.62,-123.69 209.25,-124.9 217.73,-126.08"/>
<polygon fill="#63b8ff" stroke="#63b8ff" points="192.42,-119.01 182.03,-121.09 191.45,-125.94 192.42,-119.01"/>
</a>
</g>
</g>
<!-- Node3 -->
<g id="Node000003" class="node">
<title>Node3</title>
<g id="a_Node000003"><a xlink:href="structDGtal_1_1DelaunayIntegralKernel.html" target="_top" xlink:title="Aim: a geometric kernel to compute the Delaunay triangulation of digital points with integer&#45;only ari...">
<polygon fill="white" stroke="#666666" points="390,-100 225,-100 225,-59 390,-59 390,-100"/>
<text text-anchor="start" x="233" y="-88" font-family="FreeSans" font-size="10.00">DGtal::DelaunayIntegralKernel</text>
<text text-anchor="start" x="233" y="-77" font-family="FreeSans" font-size="10.00">&lt; dim, TCoordinateInteger,</text>
<text text-anchor="middle" x="307.5" y="-66" font-family="FreeSans" font-size="10.00"> TInternalInteger &gt;</text>
</a>
</g>
</g>
<!-- Node0&#45;&gt;Node3 -->
<g id="edge224_Node000000_Node000003" class="edge">
<title>Node0&#45;&gt;Node3</title>
<g id="a_edge224_Node000000_Node000003"><a xlink:title=" ">
<path fill="none" stroke="#63b8ff" d="M192.09,-94.97C203.08,-93.48 214.17,-91.98 224.89,-90.53"/>
<polygon fill="#63b8ff" stroke="#63b8ff" points="191.48,-91.52 182.03,-96.33 192.41,-98.46 191.48,-91.52"/>
</a>
</g>
</g>
<!-- Node4 -->
<g id="Node000004" class="node">
<title>Node4</title>
<g id="a_Node000004"><a xlink:href="structDGtal_1_1DelaunayRationalKernel.html" target="_top" xlink:title="Aim: a geometric kernel to compute the Delaunay triangulation of a range of floating points with inte...">
<polygon fill="white" stroke="#666666" points="391.5,-41 223.5,-41 223.5,0 391.5,0 391.5,-41"/>
<text text-anchor="start" x="231.5" y="-29" font-family="FreeSans" font-size="10.00">DGtal::DelaunayRationalKernel</text>
<text text-anchor="start" x="231.5" y="-18" font-family="FreeSans" font-size="10.00">&lt; dim, TCoordinateInteger,</text>
<text text-anchor="middle" x="307.5" y="-7" font-family="FreeSans" font-size="10.00"> TInternalInteger &gt;</text>
</a>
</g>
</g>
<!-- Node0&#45;&gt;Node4 -->
<g id="edge225_Node000000_Node000004" class="edge">
<title>Node0&#45;&gt;Node4</title>
<g id="a_edge225_Node000000_Node000004"><a xlink:title=" ">
<path fill="none" stroke="#63b8ff" d="M142.93,-83.58C165.67,-72.84 192.93,-60.49 218,-50.5 226.14,-47.26 234.78,-44.05 243.35,-41"/>
<polygon fill="#63b8ff" stroke="#63b8ff" points="141.34,-80.46 133.81,-87.92 144.34,-86.79 141.34,-80.46"/>
</a>
</g>
</g>
</g>
</svg>
