<?xml version="1.0" encoding="UTF-8" standalone="no"?>
<!DOCTYPE svg PUBLIC "-//W3C//DTD SVG 1.1//EN"
 "http://www.w3.org/Graphics/SVG/1.1/DTD/svg11.dtd">
<!-- Generated by graphviz version 2.43.0 (0)
 -->
<!-- Title: Graphical Class Hierarchy Pages: 1 -->
<svg width="276pt" height="78pt"
 viewBox="0.00 0.00 276.00 77.50" xmlns="http://www.w3.org/2000/svg" xmlns:xlink="http://www.w3.org/1999/xlink">
<g id="graph0" class="graph" transform="scale(1 1) rotate(0) translate(4 73.5)">
<title>Graphical Class Hierarchy</title>
<polygon fill="white" stroke="transparent" points="-4,4 -4,-73.5 272,-73.5 272,4 -4,4"/>
<!-- Node878 -->
<g id="node1" class="node">
<title>Node878</title>
<g id="a_node1"><a xlink:title=" ">
<polygon fill="white" stroke="#bfbfbf" points="0,-28 0,-47 68,-47 68,-28 0,-28"/>
<text text-anchor="middle" x="34" y="-35" font-family="FreeSans" font-size="10.00">false_type</text>
</a>
</g>
</g>
<!-- Node0 -->
<g id="node2" class="node">
<title>Node0</title>
<g id="a_node2"><a xlink:href="structDGtal_1_1IsAPointVector.html" target="_top" xlink:title="Type trait to check if a given type is a PointVector.">
<polygon fill="white" stroke="black" points="111.5,-50 111.5,-69 260.5,-69 260.5,-50 111.5,-50"/>
<text text-anchor="middle" x="186" y="-57" font-family="FreeSans" font-size="10.00">DGtal::IsAPointVector&lt; T &gt;</text>
</a>
</g>
</g>
<!-- Node878&#45;&gt;Node0 -->
<g id="edge1" class="edge">
<title>Node878&#45;&gt;Node0</title>
<path fill="none" stroke="midnightblue" d="M78.37,-43.86C91.41,-45.77 106,-47.91 120.11,-49.98"/>
<polygon fill="midnightblue" stroke="midnightblue" points="78.69,-40.37 68.29,-42.38 77.68,-47.3 78.69,-40.37"/>
</g>
<!-- Node880 -->
<g id="node3" class="node">
<title>Node880</title>
<g id="a_node3"><a xlink:href="structDGtal_1_1IsArithmeticConversionValid.html" target="_top" xlink:title="Helper to determine if an arithmetic operation between two given types has a valid result type (ie is...">
<polygon fill="white" stroke="black" points="104,-0.5 104,-30.5 268,-30.5 268,-0.5 104,-0.5"/>
<text text-anchor="start" x="112" y="-18.5" font-family="FreeSans" font-size="10.00">DGtal::IsArithmeticConversion</text>
<text text-anchor="middle" x="186" y="-7.5" font-family="FreeSans" font-size="10.00">Valid&lt; T, U, Enable &gt;</text>
</a>
</g>
</g>
<!-- Node878&#45;&gt;Node880 -->
<g id="edge2" class="edge">
<title>Node878&#45;&gt;Node880</title>
<path fill="none" stroke="midnightblue" d="M78.22,-31.16C86.35,-29.97 95.1,-28.69 103.95,-27.39"/>
<polygon fill="midnightblue" stroke="midnightblue" points="77.68,-27.7 68.29,-32.62 78.69,-34.63 77.68,-27.7"/>
</g>
</g>
</svg>
