<?xml version="1.0" encoding="UTF-8" standalone="no"?>
<!DOCTYPE svg PUBLIC "-//W3C//DTD SVG 1.1//EN"
 "http://www.w3.org/Graphics/SVG/1.1/DTD/svg11.dtd">
<!-- Generated by graphviz version 2.43.0 (0)
 -->
<!-- Title: Graphical Class Hierarchy Pages: 1 -->
<svg width="331pt" height="124pt"
 viewBox="0.00 0.00 331.00 123.50" xmlns="http://www.w3.org/2000/svg" xmlns:xlink="http://www.w3.org/1999/xlink">
<g id="graph0" class="graph" transform="scale(1 1) rotate(0) translate(4 119.5)">
<title>Graphical Class Hierarchy</title>
<!-- Node0 -->
<g id="Node000000" class="node">
<title>Node0</title>
<g id="a_Node000000"><a xlink:title=" ">
<polygon fill="#e0e0e0" stroke="#999999" points="89,-72.5 0,-72.5 0,-53.5 89,-53.5 89,-72.5"/>
<text text-anchor="middle" x="44.5" y="-60.5" font-family="FreeSans" font-size="10.00">std::false_type</text>
</a>
</g>
</g>
<!-- Node1 -->
<g id="Node000001" class="node">
<title>Node1</title>
<g id="a_Node000001"><a xlink:href="structDGtal_1_1IsAPointVector.html" target="_top" xlink:title="Type trait to check if a given type is a PointVector.">
<polygon fill="white" stroke="#666666" points="298.5,-115.5 149.5,-115.5 149.5,-96.5 298.5,-96.5 298.5,-115.5"/>
<text text-anchor="middle" x="224" y="-103.5" font-family="FreeSans" font-size="10.00">DGtal::IsAPointVector&lt; T &gt;</text>
</a>
</g>
</g>
<!-- Node0&#45;&gt;Node1 -->
<g id="edge324_Node000000_Node000001" class="edge">
<title>Node0&#45;&gt;Node1</title>
<g id="a_edge324_Node000000_Node000001"><a xlink:title=" ">
<path fill="none" stroke="#63b8ff" d="M84.63,-75.68C97.42,-79.59 111.75,-83.72 125,-87 139.05,-90.47 154.36,-93.7 168.61,-96.48"/>
<polygon fill="#63b8ff" stroke="#63b8ff" points="85.34,-72.23 74.75,-72.61 83.26,-78.92 85.34,-72.23"/>
</a>
</g>
</g>
<!-- Node2 -->
<g id="Node000002" class="node">
<title>Node2</title>
<g id="a_Node000002"><a xlink:href="structDGtal_1_1IsArithmeticConversionValid.html" target="_top" xlink:title="Helper to determine if an arithmetic operation between two given types has a valid result type (ie is...">
<polygon fill="white" stroke="#666666" points="306,-78 142,-78 142,-48 306,-48 306,-78"/>
<text text-anchor="start" x="150" y="-66" font-family="FreeSans" font-size="10.00">DGtal::IsArithmeticConversion</text>
<text text-anchor="middle" x="224" y="-55" font-family="FreeSans" font-size="10.00">Valid&lt; T, U, Enable &gt;</text>
</a>
</g>
</g>
<!-- Node0&#45;&gt;Node2 -->
<g id="edge325_Node000000_Node000002" class="edge">
<title>Node0&#45;&gt;Node2</title>
<g id="a_edge325_Node000000_Node000002"><a xlink:title=" ">
<path fill="none" stroke="#63b8ff" d="M99.77,-63C113.08,-63 127.63,-63 141.91,-63"/>
<polygon fill="#63b8ff" stroke="#63b8ff" points="99.38,-59.5 89.38,-63 99.38,-66.5 99.38,-59.5"/>
</a>
</g>
</g>
<!-- Node3 -->
<g id="Node000003" class="node">
<title>Node3</title>
<g id="a_Node000003"><a xlink:href="structDGtal_1_1Shortcuts_1_1is__double__nested__container.html" target="_top" xlink:title=" ">
<polygon fill="white" stroke="#666666" points="323,-30 125,-30 125,0 323,0 323,-30"/>
<text text-anchor="start" x="133" y="-18" font-family="FreeSans" font-size="10.00">DGtal::Shortcuts&lt; TKSpace</text>
<text text-anchor="middle" x="224" y="-7" font-family="FreeSans" font-size="10.00"> &gt;::is_double_nested_container&lt; T &gt;</text>
</a>
</g>
</g>
<!-- Node0&#45;&gt;Node3 -->
<g id="edge326_Node000000_Node000003" class="edge">
<title>Node0&#45;&gt;Node3</title>
<g id="a_edge326_Node000000_Node000003"><a xlink:title=" ">
<path fill="none" stroke="#63b8ff" d="M85.69,-50.41C98.24,-46.61 112.16,-42.51 125,-39 136.15,-35.95 148.07,-32.88 159.61,-30"/>
<polygon fill="#63b8ff" stroke="#63b8ff" points="84.51,-47.12 75.97,-53.39 86.56,-53.81 84.51,-47.12"/>
</a>
</g>
</g>
</g>
</svg>
