<?xml version="1.0" encoding="UTF-8" standalone="no"?>
<!DOCTYPE svg PUBLIC "-//W3C//DTD SVG 1.1//EN"
 "http://www.w3.org/Graphics/SVG/1.1/DTD/svg11.dtd">
<!-- Generated by graphviz version 2.43.0 (0)
 -->
<!-- Title: Graphical Class Hierarchy Pages: 1 -->
<svg width="322pt" height="39pt"
 viewBox="0.00 0.00 322.00 39.00" xmlns="http://www.w3.org/2000/svg" xmlns:xlink="http://www.w3.org/1999/xlink">
<g id="graph0" class="graph" transform="scale(1 1) rotate(0) translate(4 35)">
<title>Graphical Class Hierarchy</title>
<polygon fill="white" stroke="transparent" points="-4,4 -4,-35 318,-35 318,4 -4,4"/>
<!-- Node484 -->
<g id="node1" class="node">
<title>Node484</title>
<g id="a_node1"><a xlink:title=" ">
<polygon fill="white" stroke="#bfbfbf" points="0,-0.5 0,-30.5 123,-30.5 123,-0.5 0,-0.5"/>
<text text-anchor="start" x="8" y="-18.5" font-family="FreeSans" font-size="10.00">mutable_bidirectional</text>
<text text-anchor="middle" x="61.5" y="-7.5" font-family="FreeSans" font-size="10.00">_iterator_archetype</text>
</a>
</g>
</g>
<!-- Node0 -->
<g id="node2" class="node">
<title>Node0</title>
<g id="a_node2"><a xlink:href="structDGtal_1_1CBidirectionalIteratorArchetype.html" target="_top" xlink:title="An archetype of BidirectionalIterator.">
<polygon fill="white" stroke="black" points="159,-0.5 159,-30.5 314,-30.5 314,-0.5 159,-0.5"/>
<text text-anchor="start" x="167" y="-18.5" font-family="FreeSans" font-size="10.00">DGtal::CBidirectionalIterator</text>
<text text-anchor="middle" x="236.5" y="-7.5" font-family="FreeSans" font-size="10.00">Archetype&lt; T &gt;</text>
</a>
</g>
</g>
<!-- Node484&#45;&gt;Node0 -->
<g id="edge1" class="edge">
<title>Node484&#45;&gt;Node0</title>
<path fill="none" stroke="midnightblue" d="M133.21,-15.5C141.68,-15.5 150.36,-15.5 158.91,-15.5"/>
<polygon fill="midnightblue" stroke="midnightblue" points="133.01,-12 123.01,-15.5 133.01,-19 133.01,-12"/>
</g>
</g>
</svg>
