<?xml version="1.0" encoding="UTF-8" standalone="no"?>
<!DOCTYPE svg PUBLIC "-//W3C//DTD SVG 1.1//EN"
 "http://www.w3.org/Graphics/SVG/1.1/DTD/svg11.dtd">
<!-- Generated by graphviz version 2.43.0 (0)
 -->
<!-- Title: Graphical Class Hierarchy Pages: 1 -->
<svg width="256pt" height="50pt"
 viewBox="0.00 0.00 256.00 50.00" xmlns="http://www.w3.org/2000/svg" xmlns:xlink="http://www.w3.org/1999/xlink">
<g id="graph0" class="graph" transform="scale(1 1) rotate(0) translate(4 46)">
<title>Graphical Class Hierarchy</title>
<polygon fill="white" stroke="transparent" points="-4,4 -4,-46 252,-46 252,4 -4,4"/>
<!-- Node429 -->
<g id="node1" class="node">
<title>Node429</title>
<g id="a_node1"><a xlink:title=" ">
<polygon fill="white" stroke="#bfbfbf" points="0,-11.5 0,-30.5 35,-30.5 35,-11.5 0,-11.5"/>
<text text-anchor="middle" x="17.5" y="-18.5" font-family="FreeSans" font-size="10.00">pair</text>
</a>
</g>
</g>
<!-- Node0 -->
<g id="node2" class="node">
<title>Node0</title>
<g id="a_node2"><a xlink:href="structDGtal_1_1DistanceBreadthFirstVisitor_1_1Node.html" target="_top" xlink:title=" ">
<polygon fill="white" stroke="black" points="71,-0.5 71,-41.5 248,-41.5 248,-0.5 71,-0.5"/>
<text text-anchor="start" x="79" y="-29.5" font-family="FreeSans" font-size="10.00">DGtal::DistanceBreadthFirst</text>
<text text-anchor="start" x="79" y="-18.5" font-family="FreeSans" font-size="10.00">Visitor&lt; TGraph, TVertexFunctor,</text>
<text text-anchor="middle" x="159.5" y="-7.5" font-family="FreeSans" font-size="10.00"> TMarkSet &gt;::Node</text>
</a>
</g>
</g>
<!-- Node429&#45;&gt;Node0 -->
<g id="edge1" class="edge">
<title>Node429&#45;&gt;Node0</title>
<path fill="none" stroke="midnightblue" d="M45.14,-21C52.84,-21 61.69,-21 70.97,-21"/>
<polygon fill="midnightblue" stroke="midnightblue" points="45.11,-17.5 35.11,-21 45.11,-24.5 45.11,-17.5"/>
</g>
</g>
</svg>
