<?xml version="1.0" encoding="UTF-8" standalone="no"?>
<!DOCTYPE svg PUBLIC "-//W3C//DTD SVG 1.1//EN"
 "http://www.w3.org/Graphics/SVG/1.1/DTD/svg11.dtd">
<!-- Generated by graphviz version 2.43.0 (0)
 -->
<!-- Title: Graphical Class Hierarchy Pages: 1 -->
<svg width="275pt" height="50pt"
 viewBox="0.00 0.00 275.00 50.00" xmlns="http://www.w3.org/2000/svg" xmlns:xlink="http://www.w3.org/1999/xlink">
<g id="graph0" class="graph" transform="scale(1 1) rotate(0) translate(4 46)">
<title>Graphical Class Hierarchy</title>
<polygon fill="white" stroke="transparent" points="-4,4 -4,-46 271,-46 271,4 -4,4"/>
<!-- Node88 -->
<g id="node1" class="node">
<title>Node88</title>
<g id="a_node1"><a xlink:title=" ">
<polygon fill="white" stroke="#bfbfbf" points="0,-11.5 0,-30.5 106,-30.5 106,-11.5 0,-11.5"/>
<text text-anchor="middle" x="53" y="-18.5" font-family="FreeSans" font-size="10.00">transform_iterator</text>
</a>
</g>
</g>
<!-- Node0 -->
<g id="node2" class="node">
<title>Node0</title>
<g id="a_node2"><a xlink:href="classDGtal_1_1IteratorAdapter.html" target="_top" xlink:title="This class adapts any lvalue iterator so that operator* returns a member on the element pointed to by...">
<polygon fill="white" stroke="black" points="142,-0.5 142,-41.5 267,-41.5 267,-0.5 142,-0.5"/>
<text text-anchor="start" x="150" y="-29.5" font-family="FreeSans" font-size="10.00">DGtal::IteratorAdapter</text>
<text text-anchor="start" x="150" y="-18.5" font-family="FreeSans" font-size="10.00">&lt; TIterator, TFunctor,</text>
<text text-anchor="middle" x="204.5" y="-7.5" font-family="FreeSans" font-size="10.00"> TReturnType &gt;</text>
</a>
</g>
</g>
<!-- Node88&#45;&gt;Node0 -->
<g id="edge1" class="edge">
<title>Node88&#45;&gt;Node0</title>
<path fill="none" stroke="midnightblue" d="M116.38,-21C124.77,-21 133.37,-21 141.75,-21"/>
<polygon fill="midnightblue" stroke="midnightblue" points="116.29,-17.5 106.29,-21 116.29,-24.5 116.29,-17.5"/>
</g>
</g>
</svg>
