<?xml version="1.0" encoding="UTF-8" standalone="no"?>
<!DOCTYPE svg PUBLIC "-//W3C//DTD SVG 1.1//EN"
 "http://www.w3.org/Graphics/SVG/1.1/DTD/svg11.dtd">
<!-- Generated by graphviz version 2.43.0 (0)
 -->
<!-- Title: DGtal::ContainerCategory Pages: 1 -->
<!--zoomable 353 -->

<svg id="main" version="1.1" xmlns="http://www.w3.org/2000/svg" xmlns:xlink="http://www.w3.org/1999/xlink" xml:space="preserve" onload="init(evt)">
<style type="text/css"><![CDATA[
.node, .edge {opacity: 0.7;}
.node.selected, .edge.selected {opacity: 1;}
.edge:hover path { stroke: red; }
.edge:hover polygon { stroke: red; fill: red; }
]]></style>

<defs>
  <circle id="rim" cx="0" cy="0" r="7"/>
  <circle id="rim2" cx="0" cy="0" r="3.5"/>
  <g id="zoomPlus">
    <use xlink:href="#rim" fill="#404040"><set attributeName="fill" to="#808080" begin="zoomplus.mouseover" end="zoomplus.mouseout"/></use>
    <path d="M-4,0h8M0,-4v8" fill="none" stroke="white" stroke-width="1.5" pointer-events="none"/>
  </g>
  <g id="zoomMin">
    <use xlink:href="#rim" fill="#404040"><set attributeName="fill" to="#808080" begin="zoomminus.mouseover" end="zoomminus.mouseout"/></use>
    <path d="M-4,0h8" fill="none" stroke="white" stroke-width="1.5" pointer-events="none"/>
  </g>
  <g id="arrowUp" transform="translate(30 24)">
    <use xlink:href="#rim"/>
    <path pointer-events="none" fill="none" stroke="white" stroke-width="1.5" d="M0,-3.0v7 M-2.5,-0.5L0,-3.0L2.5,-0.5"/>
  </g>
  <g id="arrowRight" transform="rotate(90) translate(36 -43)">
    <use xlink:href="#rim"/>
    <path pointer-events="none" fill="none" stroke="white" stroke-width="1.5" d="M0,-3.0v7 M-2.5,-0.5L0,-3.0L2.5,-0.5"/>
  </g>
  <g id="arrowDown" transform="rotate(180) translate(-30 -48)">
    <use xlink:href="#rim"/>
    <path pointer-events="none" fill="none" stroke="white" stroke-width="1.5" d="M0,-3.0v7 M-2.5,-0.5L0,-3.0L2.5,-0.5"/>
  </g>
  <g id="arrowLeft" transform="rotate(270) translate(-36 17)">
    <use xlink:href="#rim"/>
    <path pointer-events="none" fill="none" stroke="white" stroke-width="1.5" d="M0,-3.0v7 M-2.5,-0.5L0,-3.0L2.5,-0.5"/>
  </g>
  <g id="resetDef">
    <use xlink:href="#rim2" fill="#404040"><set attributeName="fill" to="#808080" begin="reset.mouseover" end="reset.mouseout"/></use>
  </g>
</defs>
<script type="application/ecmascript">
var viewWidth = 757;
var viewHeight = 353;
var sectionId = 'dynsection-0';
</script>
<script type="application/ecmascript" xlink:href="svg.min.js"/>
<svg id="graph" class="graph">
<g id="viewport">
<title>DGtal::ContainerCategory</title>
<!-- Node1 -->
<g id="Node000001" class="node">
<title>Node1</title>
<g id="a_Node000001"><a xlink:title=" ">
<polygon fill="#999999" stroke="#666666" points="142,-164.5 0,-164.5 0,-145.5 142,-145.5 142,-164.5"/>
<text text-anchor="middle" x="71" y="-152.5" font-family="FreeSans" font-size="10.00">DGtal::ContainerCategory</text>
</a>
</g>
</g>
<!-- Node2 -->
<g id="Node000002" class="node">
<title>Node2</title>
<g id="a_Node000002"><a xlink:href="structDGtal_1_1AssociativeCategory.html" target="_top" xlink:title=" ">
<polygon fill="white" stroke="#666666" points="329,-183.5 178,-183.5 178,-164.5 329,-164.5 329,-183.5"/>
<text text-anchor="middle" x="253.5" y="-171.5" font-family="FreeSans" font-size="10.00">DGtal::AssociativeCategory</text>
</a>
</g>
</g>
<!-- Node1&#45;&gt;Node2 -->
<g id="edge1_Node000001_Node000002" class="edge">
<title>Node1&#45;&gt;Node2</title>
<g id="a_edge1_Node000001_Node000002"><a xlink:title=" ">
<path fill="none" stroke="#63b8ff" d="M152.01,-163.42C160.55,-164.32 169.23,-165.23 177.71,-166.13"/>
<polygon fill="#63b8ff" stroke="#63b8ff" points="152.36,-159.94 142.04,-162.37 151.62,-166.9 152.36,-159.94"/>
</a>
</g>
</g>
<!-- Node17 -->
<g id="Node000017" class="node">
<title>Node17</title>
<g id="a_Node000017"><a xlink:href="structDGtal_1_1SequenceCategory.html" target="_top" xlink:title=" ">
<polygon fill="white" stroke="#666666" points="324.5,-146.5 182.5,-146.5 182.5,-127.5 324.5,-127.5 324.5,-146.5"/>
<text text-anchor="middle" x="253.5" y="-134.5" font-family="FreeSans" font-size="10.00">DGtal::SequenceCategory</text>
</a>
</g>
</g>
<!-- Node1&#45;&gt;Node17 -->
<g id="edge32_Node000001_Node000017" class="edge">
<title>Node1&#45;&gt;Node17</title>
<g id="a_edge32_Node000001_Node000017"><a xlink:title=" ">
<path fill="none" stroke="#63b8ff" d="M152.1,-147.01C162.23,-146 172.54,-144.97 182.5,-143.98"/>
<polygon fill="#63b8ff" stroke="#63b8ff" points="151.65,-143.54 142.04,-148.01 152.34,-150.51 151.65,-143.54"/>
</a>
</g>
</g>
<!-- Node3 -->
<g id="Node000003" class="node">
<title>Node3</title>
<g id="a_Node000003"><a xlink:href="structDGtal_1_1MultipleAssociativeCategory.html" target="_top" xlink:title=" ">
<polygon fill="white" stroke="#666666" points="522.5,-302 376.5,-302 376.5,-272 522.5,-272 522.5,-302"/>
<text text-anchor="start" x="384.5" y="-290" font-family="FreeSans" font-size="10.00">DGtal::MultipleAssociative</text>
<text text-anchor="middle" x="449.5" y="-279" font-family="FreeSans" font-size="10.00">Category</text>
</a>
</g>
</g>
<!-- Node2&#45;&gt;Node3 -->
<g id="edge2_Node000002_Node000003" class="edge">
<title>Node2&#45;&gt;Node3</title>
<g id="a_edge2_Node000002_Node000003"><a xlink:title=" ">
<path fill="none" stroke="#63b8ff" d="M270.81,-190.72C291.14,-210.64 327.75,-243.66 365,-263 371.56,-266.41 378.67,-269.39 385.87,-271.98"/>
<polygon fill="#63b8ff" stroke="#63b8ff" points="273.17,-188.12 263.62,-183.54 268.22,-193.08 273.17,-188.12"/>
</a>
</g>
</g>
<!-- Node8 -->
<g id="Node000008" class="node">
<title>Node8</title>
<g id="a_Node000008"><a xlink:href="structDGtal_1_1OrderedAssociativeCategory.html" target="_top" xlink:title=" ">
<polygon fill="white" stroke="#666666" points="522.5,-254 376.5,-254 376.5,-224 522.5,-224 522.5,-254"/>
<text text-anchor="start" x="384.5" y="-242" font-family="FreeSans" font-size="10.00">DGtal::OrderedAssociative</text>
<text text-anchor="middle" x="449.5" y="-231" font-family="FreeSans" font-size="10.00">Category</text>
</a>
</g>
</g>
<!-- Node2&#45;&gt;Node8 -->
<g id="edge7_Node000002_Node000008" class="edge">
<title>Node2&#45;&gt;Node8</title>
<g id="a_edge7_Node000002_Node000008"><a xlink:title=" ">
<path fill="none" stroke="#63b8ff" d="M288.34,-187.31C310.09,-195.68 339.04,-206.47 365,-215 374.31,-218.06 384.28,-221.12 393.97,-223.97"/>
<polygon fill="#63b8ff" stroke="#63b8ff" points="289.48,-184 278.89,-183.65 286.95,-190.53 289.48,-184"/>
</a>
</g>
</g>
<!-- Node11 -->
<g id="Node000011" class="node">
<title>Node11</title>
<g id="a_Node000011"><a xlink:href="structDGtal_1_1PairAssociativeCategory.html" target="_top" xlink:title=" ">
<polygon fill="white" stroke="#666666" points="534,-205.5 365,-205.5 365,-186.5 534,-186.5 534,-205.5"/>
<text text-anchor="middle" x="449.5" y="-193.5" font-family="FreeSans" font-size="10.00">DGtal::PairAssociativeCategory</text>
</a>
</g>
</g>
<!-- Node2&#45;&gt;Node11 -->
<g id="edge12_Node000002_Node000011" class="edge">
<title>Node2&#45;&gt;Node11</title>
<g id="a_edge12_Node000002_Node000011"><a xlink:title=" ">
<path fill="none" stroke="#63b8ff" d="M339.41,-183.63C347.83,-184.58 356.37,-185.55 364.77,-186.5"/>
<polygon fill="#63b8ff" stroke="#63b8ff" points="339.56,-180.12 329.23,-182.47 338.77,-187.08 339.56,-180.12"/>
</a>
</g>
</g>
<!-- Node13 -->
<g id="Node000013" class="node">
<title>Node13</title>
<g id="a_Node000013"><a xlink:href="structDGtal_1_1SimpleAssociativeCategory.html" target="_top" xlink:title=" ">
<polygon fill="white" stroke="#666666" points="519.5,-168 379.5,-168 379.5,-138 519.5,-138 519.5,-168"/>
<text text-anchor="start" x="387.5" y="-156" font-family="FreeSans" font-size="10.00">DGtal::SimpleAssociative</text>
<text text-anchor="middle" x="449.5" y="-145" font-family="FreeSans" font-size="10.00">Category</text>
</a>
</g>
</g>
<!-- Node2&#45;&gt;Node13 -->
<g id="edge17_Node000002_Node000013" class="edge">
<title>Node2&#45;&gt;Node13</title>
<g id="a_edge17_Node000002_Node000013"><a xlink:title=" ">
<path fill="none" stroke="#63b8ff" d="M339.34,-164.82C352.66,-163.37 366.3,-161.9 379.22,-160.5"/>
<polygon fill="#63b8ff" stroke="#63b8ff" points="338.79,-161.35 329.23,-165.91 339.55,-168.31 338.79,-161.35"/>
</a>
</g>
</g>
<!-- Node15 -->
<g id="Node000015" class="node">
<title>Node15</title>
<g id="a_Node000015"><a xlink:href="structDGtal_1_1UniqueAssociativeCategory.html" target="_top" xlink:title=" ">
<polygon fill="white" stroke="#666666" points="520,-72 379,-72 379,-42 520,-42 520,-72"/>
<text text-anchor="start" x="387" y="-60" font-family="FreeSans" font-size="10.00">DGtal::UniqueAssociative</text>
<text text-anchor="middle" x="449.5" y="-49" font-family="FreeSans" font-size="10.00">Category</text>
</a>
</g>
</g>
<!-- Node2&#45;&gt;Node15 -->
<g id="edge22_Node000002_Node000015" class="edge">
<title>Node2&#45;&gt;Node15</title>
<g id="a_edge22_Node000002_Node000015"><a xlink:title=" ">
<path fill="none" stroke="#63b8ff" d="M324.01,-159.6C325.74,-158.48 327.41,-157.29 329,-156 357.75,-132.75 336.76,-104.86 365,-81 369.15,-77.5 373.78,-74.5 378.68,-71.94"/>
<polygon fill="#63b8ff" stroke="#63b8ff" points="322.05,-156.68 314.9,-164.5 325.37,-162.84 322.05,-156.68"/>
</a>
</g>
</g>
<!-- Node16 -->
<g id="Node000016" class="node">
<title>Node16</title>
<g id="a_Node000016"><a xlink:href="structDGtal_1_1UnorderedAssociativeCategory.html" target="_top" xlink:title=" ">
<polygon fill="white" stroke="#666666" points="528.5,-120 370.5,-120 370.5,-90 528.5,-90 528.5,-120"/>
<text text-anchor="start" x="378.5" y="-108" font-family="FreeSans" font-size="10.00">DGtal::UnorderedAssociative</text>
<text text-anchor="middle" x="449.5" y="-97" font-family="FreeSans" font-size="10.00">Category</text>
</a>
</g>
</g>
<!-- Node2&#45;&gt;Node16 -->
<g id="edge27_Node000002_Node000016" class="edge">
<title>Node2&#45;&gt;Node16</title>
<g id="a_edge27_Node000002_Node000016"><a xlink:title=" ">
<path fill="none" stroke="#63b8ff" d="M315.54,-161.44C320.17,-159.83 324.71,-158.02 329,-156 347.09,-147.48 347.09,-137.91 365,-129 371.75,-125.64 379.05,-122.68 386.43,-120.08"/>
<polygon fill="#63b8ff" stroke="#63b8ff" points="314.41,-158.13 305.94,-164.49 316.53,-164.8 314.41,-158.13"/>
</a>
</g>
</g>
<!-- Node4 -->
<g id="Node000004" class="node">
<title>Node4</title>
<g id="a_Node000004"><a xlink:href="structDGtal_1_1MultimapAssociativeCategory.html" target="_top" xlink:title=" ">
<polygon fill="white" stroke="#666666" points="736,-345 583,-345 583,-315 736,-315 736,-345"/>
<text text-anchor="start" x="591" y="-333" font-family="FreeSans" font-size="10.00">DGtal::MultimapAssociative</text>
<text text-anchor="middle" x="659.5" y="-322" font-family="FreeSans" font-size="10.00">Category</text>
</a>
</g>
</g>
<!-- Node3&#45;&gt;Node4 -->
<g id="edge3_Node000003_Node000004" class="edge">
<title>Node3&#45;&gt;Node4</title>
<g id="a_edge3_Node000003_Node000004"><a xlink:title=" ">
<path fill="none" stroke="#63b8ff" d="M532.84,-304.02C550.33,-307.64 568.66,-311.43 585.76,-314.96"/>
<polygon fill="#63b8ff" stroke="#63b8ff" points="533.17,-300.52 522.66,-301.92 531.75,-307.37 533.17,-300.52"/>
</a>
</g>
</g>
<!-- Node5 -->
<g id="Node000005" class="node">
<title>Node5</title>
<g id="a_Node000005"><a xlink:href="structDGtal_1_1MultisetAssociativeCategory.html" target="_top" xlink:title=" ">
<polygon fill="white" stroke="#666666" points="732.5,-297 586.5,-297 586.5,-267 732.5,-267 732.5,-297"/>
<text text-anchor="start" x="594.5" y="-285" font-family="FreeSans" font-size="10.00">DGtal::MultisetAssociative</text>
<text text-anchor="middle" x="659.5" y="-274" font-family="FreeSans" font-size="10.00">Category</text>
</a>
</g>
</g>
<!-- Node3&#45;&gt;Node5 -->
<g id="edge4_Node000003_Node000005" class="edge">
<title>Node3&#45;&gt;Node5</title>
<g id="a_edge4_Node000003_Node000005"><a xlink:title=" ">
<path fill="none" stroke="#63b8ff" d="M532.96,-285.02C550.65,-284.59 569.21,-284.15 586.46,-283.73"/>
<polygon fill="#63b8ff" stroke="#63b8ff" points="532.58,-281.53 522.66,-285.27 532.75,-288.52 532.58,-281.53"/>
</a>
</g>
</g>
<!-- Node6 -->
<g id="Node000006" class="node">
<title>Node6</title>
<g id="a_Node000006"><a xlink:href="structDGtal_1_1UnorderedMultimapAssociativeCategory.html" target="_top" xlink:title=" ">
<polygon fill="white" stroke="#666666" points="733.5,-249 585.5,-249 585.5,-219 733.5,-219 733.5,-249"/>
<text text-anchor="start" x="593.5" y="-237" font-family="FreeSans" font-size="10.00">DGtal::UnorderedMultimap</text>
<text text-anchor="middle" x="659.5" y="-226" font-family="FreeSans" font-size="10.00">AssociativeCategory</text>
</a>
</g>
</g>
<!-- Node3&#45;&gt;Node6 -->
<g id="edge5_Node000003_Node000006" class="edge">
<title>Node3&#45;&gt;Node6</title>
<g id="a_edge5_Node000003_Node000006"><a xlink:title=" ">
<path fill="none" stroke="#63b8ff" d="M519.29,-269.47C545.18,-262.87 574.37,-255.44 599.3,-249.08"/>
<polygon fill="#63b8ff" stroke="#63b8ff" points="518.37,-266.09 509.55,-271.95 520.1,-272.88 518.37,-266.09"/>
</a>
</g>
</g>
<!-- Node7 -->
<g id="Node000007" class="node">
<title>Node7</title>
<g id="a_Node000007"><a xlink:href="structDGtal_1_1UnorderedMultisetAssociativeCategory.html" target="_top" xlink:title=" ">
<polygon fill="white" stroke="#666666" points="730,-201 589,-201 589,-171 730,-171 730,-201"/>
<text text-anchor="start" x="597" y="-189" font-family="FreeSans" font-size="10.00">DGtal::UnorderedMultiset</text>
<text text-anchor="middle" x="659.5" y="-178" font-family="FreeSans" font-size="10.00">AssociativeCategory</text>
</a>
</g>
</g>
<!-- Node3&#45;&gt;Node7 -->
<g id="edge6_Node000003_Node000007" class="edge">
<title>Node3&#45;&gt;Node7</title>
<g id="a_edge6_Node000003_Node000007"><a xlink:title=" ">
<path fill="none" stroke="#63b8ff" d="M527.49,-267.25C529.74,-265.93 531.92,-264.51 534,-263 557.06,-246.29 546.82,-226.53 570,-210 575.7,-205.93 582.06,-202.56 588.68,-199.75"/>
<polygon fill="#63b8ff" stroke="#63b8ff" points="525.75,-264.21 518.51,-271.94 528.99,-270.42 525.75,-264.21"/>
</a>
</g>
</g>
<!-- Node8&#45;&gt;Node4 -->
<g id="edge9_Node000008_Node000004" class="edge">
<title>Node8&#45;&gt;Node4</title>
<g id="a_edge9_Node000008_Node000004"><a xlink:title=" ">
<path fill="none" stroke="#63b8ff" d="M525.96,-258.32C528.74,-259.77 531.43,-261.33 534,-263 554.89,-276.59 549.01,-292.56 570,-306 575.36,-309.43 581.21,-312.38 587.26,-314.91"/>
<polygon fill="#63b8ff" stroke="#63b8ff" points="527.4,-255.12 516.86,-254.03 524.42,-261.46 527.4,-255.12"/>
</a>
</g>
</g>
<!-- Node8&#45;&gt;Node5 -->
<g id="edge10_Node000008_Node000005" class="edge">
<title>Node8&#45;&gt;Node5</title>
<g id="a_edge10_Node000008_Node000005"><a xlink:title=" ">
<path fill="none" stroke="#63b8ff" d="M532.47,-255.94C550.3,-259.63 569.05,-263.51 586.46,-267.11"/>
<polygon fill="#63b8ff" stroke="#63b8ff" points="533.17,-252.52 522.66,-253.92 531.75,-259.37 533.17,-252.52"/>
</a>
</g>
</g>
<!-- Node9 -->
<g id="Node000009" class="node">
<title>Node9</title>
<g id="a_Node000009"><a xlink:href="structDGtal_1_1MapAssociativeCategory.html" target="_top" xlink:title=" ">
<polygon fill="white" stroke="#666666" points="745.5,-152.5 573.5,-152.5 573.5,-133.5 745.5,-133.5 745.5,-152.5"/>
<text text-anchor="middle" x="659.5" y="-140.5" font-family="FreeSans" font-size="10.00">DGtal::MapAssociativeCategory</text>
</a>
</g>
</g>
<!-- Node8&#45;&gt;Node9 -->
<g id="edge8_Node000008_Node000009" class="edge">
<title>Node8&#45;&gt;Node9</title>
<g id="a_edge8_Node000008_Node000009"><a xlink:title=" ">
<path fill="none" stroke="#63b8ff" d="M527.49,-219.25C529.74,-217.93 531.92,-216.51 534,-215 557.06,-198.29 546.38,-177.91 570,-162 575.73,-158.14 582.11,-155.04 588.74,-152.56"/>
<polygon fill="#63b8ff" stroke="#63b8ff" points="525.75,-216.21 518.51,-223.94 528.99,-222.42 525.75,-216.21"/>
</a>
</g>
</g>
<!-- Node10 -->
<g id="Node000010" class="node">
<title>Node10</title>
<g id="a_Node000010"><a xlink:href="structDGtal_1_1SetAssociativeCategory.html" target="_top" xlink:title=" ">
<polygon fill="white" stroke="#666666" points="743,-115.5 576,-115.5 576,-96.5 743,-96.5 743,-115.5"/>
<text text-anchor="middle" x="659.5" y="-103.5" font-family="FreeSans" font-size="10.00">DGtal::SetAssociativeCategory</text>
</a>
</g>
</g>
<!-- Node8&#45;&gt;Node10 -->
<g id="edge11_Node000008_Node000010" class="edge">
<title>Node8&#45;&gt;Node10</title>
<g id="a_edge11_Node000008_Node000010"><a xlink:title=" ">
<path fill="none" stroke="#63b8ff" d="M529.92,-218.38C531.33,-217.31 532.69,-216.18 534,-215 565.96,-186.11 537.07,-152.78 570,-125 574.44,-121.25 579.45,-118.19 584.77,-115.69"/>
<polygon fill="#63b8ff" stroke="#63b8ff" points="527.87,-215.53 521.39,-223.92 531.68,-221.4 527.87,-215.53"/>
</a>
</g>
</g>
<!-- Node11&#45;&gt;Node4 -->
<g id="edge14_Node000011_Node000004" class="edge">
<title>Node11&#45;&gt;Node4</title>
<g id="a_edge14_Node000011_Node000004"><a xlink:title=" ">
<path fill="none" stroke="#63b8ff" d="M528.36,-210.74C530.33,-212.05 532.21,-213.47 534,-215 567.02,-243.32 537.57,-277.01 570,-306 573.92,-309.5 578.29,-312.5 582.95,-315.06"/>
<polygon fill="#63b8ff" stroke="#63b8ff" points="529.73,-207.5 519.29,-205.67 526.31,-213.61 529.73,-207.5"/>
</a>
</g>
</g>
<!-- Node11&#45;&gt;Node6 -->
<g id="edge16_Node000011_Node000006" class="edge">
<title>Node11&#45;&gt;Node6</title>
<g id="a_edge16_Node000011_Node000006"><a xlink:title=" ">
<path fill="none" stroke="#63b8ff" d="M512.65,-207.35C535.54,-211.54 561.67,-216.31 585.43,-220.65"/>
<polygon fill="#63b8ff" stroke="#63b8ff" points="513.18,-203.89 502.72,-205.54 511.93,-210.78 513.18,-203.89"/>
</a>
</g>
</g>
<!-- Node11&#45;&gt;Node9 -->
<g id="edge13_Node000011_Node000009" class="edge">
<title>Node11&#45;&gt;Node9</title>
<g id="a_edge13_Node000011_Node000009"><a xlink:title=" ">
<path fill="none" stroke="#63b8ff" d="M508.89,-184.06C517.38,-181.93 525.96,-179.57 534,-177 550.51,-171.72 553.46,-167.17 570,-162 581.55,-158.39 594.16,-155.23 606.14,-152.58"/>
<polygon fill="#63b8ff" stroke="#63b8ff" points="507.91,-180.69 499.01,-186.44 509.55,-187.5 507.91,-180.69"/>
</a>
</g>
</g>
<!-- Node12 -->
<g id="Node000012" class="node">
<title>Node12</title>
<g id="a_Node000012"><a xlink:href="structDGtal_1_1UnorderedMapAssociativeCategory.html" target="_top" xlink:title=" ">
<polygon fill="white" stroke="#666666" points="749,-78 570,-78 570,-48 749,-48 749,-78"/>
<text text-anchor="start" x="578" y="-66" font-family="FreeSans" font-size="10.00">DGtal::UnorderedMapAssociative</text>
<text text-anchor="middle" x="659.5" y="-55" font-family="FreeSans" font-size="10.00">Category</text>
</a>
</g>
</g>
<!-- Node11&#45;&gt;Node12 -->
<g id="edge15_Node000011_Node000012" class="edge">
<title>Node11&#45;&gt;Node12</title>
<g id="a_edge15_Node000011_Node000012"><a xlink:title=" ">
<path fill="none" stroke="#63b8ff" d="M527.72,-181.64C529.92,-180.23 532.02,-178.69 534,-177 566.5,-149.35 538.23,-116.48 570,-88 574.28,-84.16 579.11,-80.91 584.24,-78.16"/>
<polygon fill="#63b8ff" stroke="#63b8ff" points="525.96,-178.62 518.85,-186.48 529.3,-184.77 525.96,-178.62"/>
</a>
</g>
</g>
<!-- Node13&#45;&gt;Node5 -->
<g id="edge18_Node000013_Node000005" class="edge">
<title>Node13&#45;&gt;Node5</title>
<g id="a_edge18_Node000013_Node000005"><a xlink:title=" ">
<path fill="none" stroke="#63b8ff" d="M527.86,-173.24C530,-174.71 532.06,-176.3 534,-178 563.33,-203.69 540.34,-232.69 570,-258 574.84,-262.13 580.34,-265.56 586.15,-268.4"/>
<polygon fill="#63b8ff" stroke="#63b8ff" points="529.59,-170.19 519.21,-168.05 525.99,-176.19 529.59,-170.19"/>
</a>
</g>
</g>
<!-- Node13&#45;&gt;Node7 -->
<g id="edge20_Node000013_Node000007" class="edge">
<title>Node13&#45;&gt;Node7</title>
<g id="a_edge20_Node000013_Node000007"><a xlink:title=" ">
<path fill="none" stroke="#63b8ff" d="M529.8,-165.58C549.23,-168.66 569.89,-171.94 588.83,-174.95"/>
<polygon fill="#63b8ff" stroke="#63b8ff" points="530.19,-162.1 519.76,-163.99 529.09,-169.01 530.19,-162.1"/>
</a>
</g>
</g>
<!-- Node13&#45;&gt;Node10 -->
<g id="edge19_Node000013_Node000010" class="edge">
<title>Node13&#45;&gt;Node10</title>
<g id="a_edge19_Node000013_Node000010"><a xlink:title=" ">
<path fill="none" stroke="#63b8ff" d="M523.64,-135.63C538.95,-132.06 554.99,-128.37 570,-125 584.11,-121.83 599.5,-118.49 613.44,-115.5"/>
<polygon fill="#63b8ff" stroke="#63b8ff" points="522.65,-132.27 513.71,-137.96 524.24,-139.09 522.65,-132.27"/>
</a>
</g>
</g>
<!-- Node14 -->
<g id="Node000014" class="node">
<title>Node14</title>
<g id="a_Node000014"><a xlink:href="structDGtal_1_1UnorderedSetAssociativeCategory.html" target="_top" xlink:title=" ">
<polygon fill="white" stroke="#666666" points="746,-30 573,-30 573,0 746,0 746,-30"/>
<text text-anchor="start" x="581" y="-18" font-family="FreeSans" font-size="10.00">DGtal::UnorderedSetAssociative</text>
<text text-anchor="middle" x="659.5" y="-7" font-family="FreeSans" font-size="10.00">Category</text>
</a>
</g>
</g>
<!-- Node13&#45;&gt;Node14 -->
<g id="edge21_Node000013_Node000014" class="edge">
<title>Node13&#45;&gt;Node14</title>
<g id="a_edge21_Node000013_Node000014"><a xlink:title=" ">
<path fill="none" stroke="#63b8ff" d="M528.55,-133.39C530.45,-132.02 532.27,-130.56 534,-129 565.96,-100.11 537.83,-67.65 570,-39 573.8,-35.61 578.04,-32.7 582.54,-30.19"/>
<polygon fill="#63b8ff" stroke="#63b8ff" points="526.46,-130.57 519.78,-138.79 530.13,-136.53 526.46,-130.57"/>
</a>
</g>
</g>
<!-- Node15&#45;&gt;Node9 -->
<g id="edge23_Node000015_Node000009" class="edge">
<title>Node15&#45;&gt;Node9</title>
<g id="a_edge23_Node000015_Node000009"><a xlink:title=" ">
<path fill="none" stroke="#63b8ff" d="M526.45,-76.52C529.05,-77.91 531.58,-79.41 534,-81 555.1,-94.9 548.37,-111.95 570,-125 575.64,-128.4 581.81,-131.17 588.19,-133.43"/>
<polygon fill="#63b8ff" stroke="#63b8ff" points="527.86,-73.32 517.33,-72.15 524.84,-79.63 527.86,-73.32"/>
</a>
</g>
</g>
<!-- Node15&#45;&gt;Node10 -->
<g id="edge24_Node000015_Node000010" class="edge">
<title>Node15&#45;&gt;Node10</title>
<g id="a_edge24_Node000015_Node000010"><a xlink:title=" ">
<path fill="none" stroke="#63b8ff" d="M518.49,-74.5C535.3,-78.71 553.28,-83.11 570,-87 583.77,-90.21 598.8,-93.51 612.5,-96.44"/>
<polygon fill="#63b8ff" stroke="#63b8ff" points="519.3,-71.1 508.75,-72.05 517.6,-77.88 519.3,-71.1"/>
</a>
</g>
</g>
<!-- Node15&#45;&gt;Node12 -->
<g id="edge25_Node000015_Node000012" class="edge">
<title>Node15&#45;&gt;Node12</title>
<g id="a_edge25_Node000015_Node000012"><a xlink:title=" ">
<path fill="none" stroke="#63b8ff" d="M530.29,-59.3C543.21,-59.67 556.66,-60.06 569.78,-60.44"/>
<polygon fill="#63b8ff" stroke="#63b8ff" points="530.15,-55.8 520.05,-59.01 529.95,-62.79 530.15,-55.8"/>
</a>
</g>
</g>
<!-- Node15&#45;&gt;Node14 -->
<g id="edge26_Node000015_Node000014" class="edge">
<title>Node15&#45;&gt;Node14</title>
<g id="a_edge26_Node000015_Node000014"><a xlink:title=" ">
<path fill="none" stroke="#63b8ff" d="M530.31,-40.88C547.96,-37.32 566.59,-33.56 584.02,-30.04"/>
<polygon fill="#63b8ff" stroke="#63b8ff" points="529.16,-37.55 520.05,-42.96 530.55,-44.41 529.16,-37.55"/>
</a>
</g>
</g>
<!-- Node16&#45;&gt;Node6 -->
<g id="edge29_Node000016_Node000006" class="edge">
<title>Node16&#45;&gt;Node6</title>
<g id="a_edge29_Node000016_Node000006"><a xlink:title=" ">
<path fill="none" stroke="#63b8ff" d="M529.73,-125.6C531.21,-126.68 532.63,-127.81 534,-129 563.72,-154.86 540.09,-184.36 570,-210 574.59,-213.94 579.77,-217.23 585.26,-219.99"/>
<polygon fill="#63b8ff" stroke="#63b8ff" points="531.17,-122.37 520.84,-120.03 527.46,-128.3 531.17,-122.37"/>
</a>
</g>
</g>
<!-- Node16&#45;&gt;Node7 -->
<g id="edge30_Node000016_Node000007" class="edge">
<title>Node16&#45;&gt;Node7</title>
<g id="a_edge30_Node000016_Node000007"><a xlink:title=" ">
<path fill="none" stroke="#63b8ff" d="M523.97,-123.96C527.42,-125.52 530.78,-127.2 534,-129 552.93,-139.61 550.99,-151.53 570,-162 576.14,-165.38 582.78,-168.31 589.57,-170.84"/>
<polygon fill="#63b8ff" stroke="#63b8ff" points="525.24,-120.7 514.66,-120.1 522.56,-127.17 525.24,-120.7"/>
</a>
</g>
</g>
<!-- Node16&#45;&gt;Node12 -->
<g id="edge28_Node000016_Node000012" class="edge">
<title>Node16&#45;&gt;Node12</title>
<g id="a_edge28_Node000016_Node000012"><a xlink:title=" ">
<path fill="none" stroke="#63b8ff" d="M535.04,-87.93C551.31,-84.64 568.24,-81.22 584.17,-78.01"/>
<polygon fill="#63b8ff" stroke="#63b8ff" points="534.11,-84.55 525.01,-89.96 535.5,-91.41 534.11,-84.55"/>
</a>
</g>
</g>
<!-- Node16&#45;&gt;Node14 -->
<g id="edge31_Node000016_Node000014" class="edge">
<title>Node16&#45;&gt;Node14</title>
<g id="a_edge31_Node000016_Node000014"><a xlink:title=" ">
<path fill="none" stroke="#63b8ff" d="M525.94,-85.65C528.72,-84.21 531.42,-82.66 534,-81 554.68,-67.71 549.22,-52.13 570,-39 575.38,-35.6 581.24,-32.67 587.3,-30.16"/>
<polygon fill="#63b8ff" stroke="#63b8ff" points="524.4,-82.5 516.82,-89.9 527.36,-88.84 524.4,-82.5"/>
</a>
</g>
</g>
</g>
</svg>

<g id="navigator" transform="translate(0 0)" fill="#404254">
  <rect fill="#f2f5e9" fill-opacity="0.5" stroke="#606060" stroke-width=".5" x="0" y="0" width="60" height="60"/>
  <use id="zoomplus" xlink:href="#zoomPlus" x="17" y="9" onmousedown="handleZoom(evt,'in')"/>
  <use id="zoomminus" xlink:href="#zoomMin" x="42" y="9" onmousedown="handleZoom(evt,'out')"/>
  <use id="reset" xlink:href="#resetDef" x="30" y="36" onmousedown="handleReset()"/>
   <use id="arrowup" xlink:href="#arrowUp" x="0" y="0" onmousedown="handlePan(0,-1)"/>
  <use id="arrowright" xlink:href="#arrowRight" x="0" y="0" onmousedown="handlePan(1,0)"/>
  <use id="arrowdown" xlink:href="#arrowDown" x="0" y="0" onmousedown="handlePan(0,1)"/>
  <use id="arrowleft" xlink:href="#arrowLeft" x="0" y="0" onmousedown="handlePan(-1,0)"/>
</g>
<svg viewBox="0 0 15 15" width="100%" height="30px" preserveAspectRatio="xMaxYMin meet">
 <g id="arrow_out" transform="scale(0.3 0.3)">
  <a xlink:href="structDGtal_1_1ContainerCategory__inherit__graph_org.svg" target="_base">
   <rect id="button" ry="5" rx="5" y="6" x="6" height="38" width="38"
        fill="#f2f5e9" fill-opacity="0.5" stroke="#606060" stroke-width="1.0"/>
   <path id="arrow"
     d="M 11.500037,31.436501 C 11.940474,20.09759 22.043105,11.32322 32.158766,21.979434 L 37.068811,17.246167 C 37.068811,17.246167 37.088388,32 37.088388,32 L 22.160133,31.978069 C 22.160133,31.978069 26.997745,27.140456 26.997745,27.140456 C 18.528582,18.264221 13.291696,25.230495 11.500037,31.436501 z"
     style="fill:#404040;"/>
  </a>
 </g>
</svg>

<style type='text/css'>
<![CDATA[
[data-mouse-over-selected='false'] { opacity: 0.7; }
[data-mouse-over-selected='true']  { opacity: 1.0; }
]]>
</style>
<script type="application/ecmascript"><![CDATA[
document.addEventListener('DOMContentLoaded', (event) => {
  highlightEdges();
  highlightAdjacentNodes();
});
]]></script>
</svg>
