<?xml version="1.0" encoding="UTF-8" standalone="no"?>
<!DOCTYPE svg PUBLIC "-//W3C//DTD SVG 1.1//EN"
 "http://www.w3.org/Graphics/SVG/1.1/DTD/svg11.dtd">
<!-- Generated by graphviz version 2.43.0 (0)
 -->
<!-- Title: DGtal::concepts::CPointPredicate&lt; T &gt; Pages: 1 -->
<svg width="1799pt" height="119pt"
 viewBox="0.00 0.00 1799.00 119.00" xmlns="http://www.w3.org/2000/svg" xmlns:xlink="http://www.w3.org/1999/xlink">
<g id="graph0" class="graph" transform="scale(1 1) rotate(0) translate(4 115)">
<title>DGtal::concepts::CPointPredicate&lt; T &gt;</title>
<!-- Node1 -->
<g id="Node000001" class="node">
<title>Node1</title>
<g id="a_Node000001"><a xlink:title="Aim: Defines a predicate on a point.">
<polygon fill="#999999" stroke="#666666" points="1615,-40.5 1409,-40.5 1409,-21.5 1615,-21.5 1615,-40.5"/>
<text text-anchor="middle" x="1512" y="-28.5" font-family="FreeSans" font-size="10.00">DGtal::concepts::CPointPredicate&lt; T &gt;</text>
</a>
</g>
</g>
<!-- Node10 -->
<g id="Node000010" class="node">
<title>Node10</title>
<g id="a_Node000010"><a xlink:href="structDGtal_1_1concepts_1_1CDigitalSet.html" target="_top" xlink:title="Aim: Represents a set of points within the given domain. This set of points is modifiable by the user...">
<polygon fill="white" stroke="#666666" points="1791,-46 1652,-46 1652,-16 1791,-16 1791,-46"/>
<text text-anchor="start" x="1660" y="-34" font-family="FreeSans" font-size="10.00">DGtal::concepts::CDigital</text>
<text text-anchor="middle" x="1721.5" y="-23" font-family="FreeSans" font-size="10.00">Set&lt; T &gt;</text>
</a>
</g>
</g>
<!-- Node1&#45;&gt;Node10 -->
<g id="edge10_Node000001_Node000010" class="edge">
<title>Node1&#45;&gt;Node10</title>
<g id="a_edge10_Node000001_Node000010"><a xlink:title=" ">
<path fill="none" stroke="#63b8ff" d="M1625.38,-31C1634.34,-31 1643.22,-31 1651.75,-31"/>
<polygon fill="#63b8ff" stroke="#63b8ff" points="1625.23,-27.5 1615.23,-31 1625.23,-34.5 1625.23,-27.5"/>
</a>
</g>
</g>
<!-- Node2 -->
<g id="Node000002" class="node">
<title>Node2</title>
<g id="a_Node000002"><a xlink:href="structDGtal_1_1concepts_1_1CPredicate.html" target="_top" xlink:title=" ">
<polygon fill="white" stroke="#666666" points="1372,-46 1220,-46 1220,-16 1372,-16 1372,-46"/>
<text text-anchor="start" x="1228" y="-34" font-family="FreeSans" font-size="10.00">DGtal::concepts::CPredicate</text>
<text text-anchor="middle" x="1296" y="-23" font-family="FreeSans" font-size="10.00">&lt; T, T::Point &gt;</text>
</a>
</g>
</g>
<!-- Node2&#45;&gt;Node1 -->
<g id="edge1_Node000001_Node000002" class="edge">
<title>Node2&#45;&gt;Node1</title>
<g id="a_edge1_Node000001_Node000002"><a xlink:title=" ">
<path fill="none" stroke="#63b8ff" d="M1382.33,-31C1391.1,-31 1400.07,-31 1408.99,-31"/>
<polygon fill="#63b8ff" stroke="#63b8ff" points="1382.15,-27.5 1372.15,-31 1382.15,-34.5 1382.15,-27.5"/>
</a>
</g>
</g>
<!-- Node3 -->
<g id="Node000003" class="node">
<title>Node3</title>
<g id="a_Node000003"><a xlink:href="structDGtal_1_1concepts_1_1CUnaryFunctor.html" target="_top" xlink:title="Aim: Defines a unary functor, which associates arguments to results.">
<polygon fill="white" stroke="#666666" points="731,-30 559,-30 559,0 731,0 731,-30"/>
<text text-anchor="start" x="567" y="-18" font-family="FreeSans" font-size="10.00">DGtal::concepts::CUnaryFunctor</text>
<text text-anchor="middle" x="645" y="-7" font-family="FreeSans" font-size="10.00">&lt; X, A, R &gt;</text>
</a>
</g>
</g>
<!-- Node3&#45;&gt;Node2 -->
<g id="edge2_Node000002_Node000003" class="edge">
<title>Node3&#45;&gt;Node2</title>
<g id="a_edge2_Node000002_Node000003"><a xlink:title=" ">
<path fill="none" stroke="#63b8ff" d="M741.51,-17.35C871.47,-20.56 1101.34,-26.23 1219.79,-29.15"/>
<polygon fill="#63b8ff" stroke="#63b8ff" points="741.26,-13.85 731.18,-17.1 741.09,-20.85 741.26,-13.85"/>
</a>
</g>
</g>
<!-- Node4 -->
<g id="Node000004" class="node">
<title>Node4</title>
<g id="a_Node000004"><a xlink:href="structboost_1_1Assignable.html" target="_top" xlink:title=" ">
<polygon fill="white" stroke="#666666" points="332,-36.5 200,-36.5 200,-17.5 332,-17.5 332,-36.5"/>
<text text-anchor="middle" x="266" y="-24.5" font-family="FreeSans" font-size="10.00">boost::Assignable&lt; X &gt;</text>
</a>
</g>
</g>
<!-- Node4&#45;&gt;Node3 -->
<g id="edge3_Node000003_Node000004" class="edge">
<title>Node4&#45;&gt;Node3</title>
<g id="a_edge3_Node000003_Node000004"><a xlink:title=" ">
<path fill="none" stroke="#63b8ff" d="M342.42,-24.6C404.89,-22.61 493.65,-19.79 558.7,-17.71"/>
<polygon fill="#63b8ff" stroke="#63b8ff" points="342.12,-21.11 332.24,-24.92 342.34,-28.1 342.12,-21.11"/>
</a>
</g>
</g>
<!-- Node9 -->
<g id="Node000009" class="node">
<title>Node9</title>
<g id="a_Node000009"><a xlink:href="structDGtal_1_1concepts_1_1CUnaryFunctor.html" target="_top" xlink:title="Aim: Defines a unary functor, which associates arguments to results.">
<polygon fill="white" stroke="#666666" points="541,-111 369,-111 369,-81 541,-81 541,-111"/>
<text text-anchor="start" x="377" y="-99" font-family="FreeSans" font-size="10.00">DGtal::concepts::CUnaryFunctor</text>
<text text-anchor="middle" x="455" y="-88" font-family="FreeSans" font-size="10.00">&lt; X, A, R &gt;</text>
</a>
</g>
</g>
<!-- Node4&#45;&gt;Node9 -->
<g id="edge9_Node000009_Node000004" class="edge">
<title>Node4&#45;&gt;Node9</title>
<g id="a_edge9_Node000009_Node000004"><a xlink:title=" ">
<path fill="none" stroke="#63b8ff" d="M295.86,-41.03C316.05,-50.52 343.8,-62.93 369,-72 377.8,-75.17 387.23,-78.19 396.5,-80.95"/>
<polygon fill="#63b8ff" stroke="#63b8ff" points="297.13,-37.76 286.6,-36.63 294.13,-44.09 297.13,-37.76"/>
</a>
</g>
</g>
<!-- Node5 -->
<g id="Node000005" class="node">
<title>Node5</title>
<g id="a_Node000005"><a xlink:href="structboost_1_1Assignable.html" target="_top" xlink:title="Go to http://www.sgi.com/tech/stl/Assignable.html.">
<polygon fill="white" stroke="#666666" points="131,-36.5 0,-36.5 0,-17.5 131,-17.5 131,-36.5"/>
<text text-anchor="middle" x="65.5" y="-24.5" font-family="FreeSans" font-size="10.00">boost::Assignable&lt; T &gt;</text>
</a>
</g>
</g>
<!-- Node5&#45;&gt;Node4 -->
<g id="edge4_Node000004_Node000005" class="edge">
<title>Node5&#45;&gt;Node4</title>
<g id="a_edge4_Node000004_Node000005"><a xlink:title=" ">
<path fill="none" stroke="orange" stroke-dasharray="5,2" d="M141.41,-27C160.58,-27 181.04,-27 199.69,-27"/>
<polygon fill="orange" stroke="orange" points="141.22,-23.5 131.22,-27 141.22,-30.5 141.22,-23.5"/>
</a>
</g>
<text text-anchor="middle" x="165.5" y="-30" font-family="FreeSans" font-size="10.00" fill="grey"> &lt; X &gt;</text>
</g>
<!-- Node6 -->
<g id="Node000006" class="node">
<title>Node6</title>
<g id="a_Node000006"><a xlink:href="structDGtal_1_1concepts_1_1CPredicate.html" target="_top" xlink:title="Aim: Defines a predicate function, ie. a functor mapping a domain into the set of booleans.">
<polygon fill="white" stroke="#666666" points="1110,-73 958,-73 958,-43 1110,-43 1110,-73"/>
<text text-anchor="start" x="966" y="-61" font-family="FreeSans" font-size="10.00">DGtal::concepts::CPredicate</text>
<text text-anchor="middle" x="1034" y="-50" font-family="FreeSans" font-size="10.00">&lt; T, TElement &gt;</text>
</a>
</g>
</g>
<!-- Node6&#45;&gt;Node2 -->
<g id="edge5_Node000002_Node000006" class="edge">
<title>Node6&#45;&gt;Node2</title>
<g id="a_edge5_Node000002_Node000006"><a xlink:title=" ">
<path fill="none" stroke="orange" stroke-dasharray="5,2" d="M1120.48,-49.12C1152.6,-45.79 1188.86,-42.02 1219.97,-38.79"/>
<polygon fill="orange" stroke="orange" points="1119.79,-45.68 1110.2,-50.19 1120.51,-52.64 1119.79,-45.68"/>
</a>
</g>
<text text-anchor="middle" x="1165" y="-51" font-family="FreeSans" font-size="10.00" fill="grey"> &lt; T, T::Point &gt;</text>
</g>
<!-- Node7 -->
<g id="Node000007" class="node">
<title>Node7</title>
<g id="a_Node000007"><a xlink:href="structDGtal_1_1concepts_1_1CUnaryFunctor.html" target="_top" xlink:title=" ">
<polygon fill="white" stroke="#666666" points="921,-73 749,-73 749,-43 921,-43 921,-73"/>
<text text-anchor="start" x="757" y="-61" font-family="FreeSans" font-size="10.00">DGtal::concepts::CUnaryFunctor</text>
<text text-anchor="middle" x="835" y="-50" font-family="FreeSans" font-size="10.00">&lt; T, TElement, bool &gt;</text>
</a>
</g>
</g>
<!-- Node7&#45;&gt;Node6 -->
<g id="edge6_Node000006_Node000007" class="edge">
<title>Node7&#45;&gt;Node6</title>
<g id="a_edge6_Node000006_Node000007"><a xlink:title=" ">
<path fill="none" stroke="#63b8ff" d="M931.29,-58C940.2,-58 949.14,-58 957.82,-58"/>
<polygon fill="#63b8ff" stroke="#63b8ff" points="931.26,-54.5 921.26,-58 931.26,-61.5 931.26,-54.5"/>
</a>
</g>
</g>
<!-- Node8 -->
<g id="Node000008" class="node">
<title>Node8</title>
<g id="a_Node000008"><a xlink:href="structboost_1_1Assignable.html" target="_top" xlink:title="Go to http://www.sgi.com/tech/stl/Assignable.html.">
<polygon fill="white" stroke="#666666" points="520.5,-62.5 389.5,-62.5 389.5,-43.5 520.5,-43.5 520.5,-62.5"/>
<text text-anchor="middle" x="455" y="-50.5" font-family="FreeSans" font-size="10.00">boost::Assignable&lt; T &gt;</text>
</a>
</g>
</g>
<!-- Node8&#45;&gt;Node7 -->
<g id="edge7_Node000007_Node000008" class="edge">
<title>Node8&#45;&gt;Node7</title>
<g id="a_edge7_Node000007_Node000008"><a xlink:title=" ">
<path fill="none" stroke="#63b8ff" d="M530.78,-53.99C593.55,-54.82 683.23,-56.01 748.78,-56.87"/>
<polygon fill="#63b8ff" stroke="#63b8ff" points="530.6,-50.49 520.55,-53.85 530.5,-57.49 530.6,-50.49"/>
</a>
</g>
</g>
<!-- Node9&#45;&gt;Node7 -->
<g id="edge8_Node000007_Node000009" class="edge">
<title>Node9&#45;&gt;Node7</title>
<g id="a_edge8_Node000007_Node000009"><a xlink:title=" ">
<path fill="none" stroke="orange" stroke-dasharray="5,2" d="M551.24,-86.85C604.19,-81.71 671.26,-75.12 731,-69 736.81,-68.4 742.81,-67.78 748.85,-67.15"/>
<polygon fill="orange" stroke="orange" points="550.8,-83.38 541.18,-87.83 551.48,-90.34 550.8,-83.38"/>
</a>
</g>
<text text-anchor="middle" x="645" y="-88" font-family="FreeSans" font-size="10.00" fill="grey"> &lt; T, TElement, bool &gt;</text>
</g>
</g>
</svg>
