<?xml version="1.0" encoding="UTF-8" standalone="no"?>
<!DOCTYPE svg PUBLIC "-//W3C//DTD SVG 1.1//EN"
 "http://www.w3.org/Graphics/SVG/1.1/DTD/svg11.dtd">
<!-- Generated by graphviz version 2.43.0 (0)
 -->
<!-- Title: DGtal::concepts::CTrivialImage&lt; I &gt; Pages: 1 -->
<svg width="2039pt" height="109pt"
 viewBox="0.00 0.00 2039.00 108.50" xmlns="http://www.w3.org/2000/svg" xmlns:xlink="http://www.w3.org/1999/xlink">
<g id="graph0" class="graph" transform="scale(1 1) rotate(0) translate(4 104.5)">
<title>DGtal::concepts::CTrivialImage&lt; I &gt;</title>
<polygon fill="white" stroke="transparent" points="-4,4 -4,-104.5 2035,-104.5 2035,4 -4,4"/>
<!-- Node1 -->
<g id="node1" class="node">
<title>Node1</title>
<g id="a_node1"><a xlink:title="Aim: Defines the concept describing an image without extra ranges, which is a refinement of CTrivialC...">
<polygon fill="#bfbfbf" stroke="black" points="1695,-28.5 1695,-58.5 1831,-58.5 1831,-28.5 1695,-28.5"/>
<text text-anchor="start" x="1703" y="-46.5" font-family="FreeSans" font-size="10.00">DGtal::concepts::CTrivial</text>
<text text-anchor="middle" x="1763" y="-35.5" font-family="FreeSans" font-size="10.00">Image&lt; I &gt;</text>
</a>
</g>
</g>
<!-- Node11 -->
<g id="node11" class="node">
<title>Node11</title>
<g id="a_node11"><a xlink:href="structDGtal_1_1concepts_1_1CImage.html" target="_top" xlink:title="Aim: Defines the concept describing a read/write image, having an output iterator.">
<polygon fill="white" stroke="black" points="1868,-34 1868,-53 2031,-53 2031,-34 1868,-34"/>
<text text-anchor="middle" x="1949.5" y="-41" font-family="FreeSans" font-size="10.00">DGtal::concepts::CImage&lt; I &gt;</text>
</a>
</g>
</g>
<!-- Node1&#45;&gt;Node11 -->
<g id="edge13" class="edge">
<title>Node1&#45;&gt;Node11</title>
<path fill="none" stroke="midnightblue" d="M1841.34,-43.5C1850.13,-43.5 1859.1,-43.5 1867.92,-43.5"/>
<polygon fill="midnightblue" stroke="midnightblue" points="1841.13,-40 1831.13,-43.5 1841.13,-47 1841.13,-40"/>
</g>
<!-- Node2 -->
<g id="node2" class="node">
<title>Node2</title>
<g id="a_node2"><a xlink:href="structDGtal_1_1concepts_1_1CTrivialConstImage.html" target="_top" xlink:title="Aim: Defines the concept describing a read&#45;only image, which is a refinement of CPointFunctor.">
<polygon fill="white" stroke="black" points="1522,-28.5 1522,-58.5 1658,-58.5 1658,-28.5 1522,-28.5"/>
<text text-anchor="start" x="1530" y="-46.5" font-family="FreeSans" font-size="10.00">DGtal::concepts::CTrivial</text>
<text text-anchor="middle" x="1590" y="-35.5" font-family="FreeSans" font-size="10.00">ConstImage&lt; I &gt;</text>
</a>
</g>
</g>
<!-- Node2&#45;&gt;Node1 -->
<g id="edge1" class="edge">
<title>Node2&#45;&gt;Node1</title>
<path fill="none" stroke="midnightblue" d="M1668.38,-43.5C1677.2,-43.5 1686.14,-43.5 1694.82,-43.5"/>
<polygon fill="midnightblue" stroke="midnightblue" points="1668.09,-40 1658.09,-43.5 1668.09,-47 1668.09,-40"/>
</g>
<!-- Node3 -->
<g id="node3" class="node">
<title>Node3</title>
<g id="a_node3"><a xlink:href="structDGtal_1_1concepts_1_1CPointFunctor.html" target="_top" xlink:title=" ">
<polygon fill="white" stroke="black" points="1292,-34 1292,-53 1485,-53 1485,-34 1292,-34"/>
<text text-anchor="middle" x="1388.5" y="-41" font-family="FreeSans" font-size="10.00">DGtal::concepts::CPointFunctor&lt; I &gt;</text>
</a>
</g>
</g>
<!-- Node3&#45;&gt;Node2 -->
<g id="edge2" class="edge">
<title>Node3&#45;&gt;Node2</title>
<path fill="none" stroke="midnightblue" d="M1495.33,-43.5C1504.34,-43.5 1513.27,-43.5 1521.85,-43.5"/>
<polygon fill="midnightblue" stroke="midnightblue" points="1495.16,-40 1485.16,-43.5 1495.16,-47 1495.16,-40"/>
</g>
<!-- Node4 -->
<g id="node4" class="node">
<title>Node4</title>
<g id="a_node4"><a xlink:href="structDGtal_1_1concepts_1_1CUnaryFunctor.html" target="_top" xlink:title=" ">
<polygon fill="white" stroke="black" points="822,-49.5 822,-79.5 994,-79.5 994,-49.5 822,-49.5"/>
<text text-anchor="start" x="830" y="-67.5" font-family="FreeSans" font-size="10.00">DGtal::concepts::CUnaryFunctor</text>
<text text-anchor="middle" x="908" y="-56.5" font-family="FreeSans" font-size="10.00">&lt; I, I ::Point, I ::Value &gt;</text>
</a>
</g>
</g>
<!-- Node4&#45;&gt;Node3 -->
<g id="edge3" class="edge">
<title>Node4&#45;&gt;Node3</title>
<path fill="none" stroke="midnightblue" d="M1004.36,-60.33C1078.01,-57.1 1182.46,-52.52 1274,-48.5 1279.81,-48.24 1285.79,-47.98 1291.83,-47.72"/>
<polygon fill="midnightblue" stroke="midnightblue" points="1004.02,-56.84 994.18,-60.77 1004.33,-63.83 1004.02,-56.84"/>
</g>
<!-- Node5 -->
<g id="node5" class="node">
<title>Node5</title>
<g id="a_node5"><a xlink:href="structboost_1_1Assignable.html" target="_top" xlink:title=" ">
<polygon fill="white" stroke="black" points="350,-81 350,-100 478,-100 478,-81 350,-81"/>
<text text-anchor="middle" x="414" y="-88" font-family="FreeSans" font-size="10.00">boost::Assignable&lt; I &gt;</text>
</a>
</g>
</g>
<!-- Node5&#45;&gt;Node4 -->
<g id="edge4" class="edge">
<title>Node5&#45;&gt;Node4</title>
<path fill="none" stroke="midnightblue" d="M488.39,-91.41C566.71,-91.74 694.37,-90.38 804,-80.5 809.86,-79.97 815.89,-79.32 821.95,-78.58"/>
<polygon fill="midnightblue" stroke="midnightblue" points="488.16,-87.91 478.14,-91.36 488.12,-94.91 488.16,-87.91"/>
</g>
<!-- Node6 -->
<g id="node6" class="node">
<title>Node6</title>
<g id="a_node6"><a xlink:href="structboost_1_1Assignable.html" target="_top" xlink:title="Go to http://www.sgi.com/tech/stl/Assignable.html.">
<polygon fill="white" stroke="black" points="0,-33 0,-52 131,-52 131,-33 0,-33"/>
<text text-anchor="middle" x="65.5" y="-40" font-family="FreeSans" font-size="10.00">boost::Assignable&lt; T &gt;</text>
</a>
</g>
</g>
<!-- Node6&#45;&gt;Node5 -->
<g id="edge5" class="edge">
<title>Node6&#45;&gt;Node5</title>
<path fill="none" stroke="orange" stroke-dasharray="5,2" d="M126.47,-53.81C134.05,-55.12 141.7,-56.38 149,-57.5 217.49,-68 296.35,-77.52 349.92,-83.61"/>
<polygon fill="orange" stroke="orange" points="127.05,-50.35 116.6,-52.07 125.84,-57.25 127.05,-50.35"/>
<text text-anchor="middle" x="165.5" y="-64.5" font-family="FreeSans" font-size="10.00"> &lt; I &gt;</text>
</g>
<!-- Node8 -->
<g id="node8" class="node">
<title>Node8</title>
<g id="a_node8"><a xlink:href="structboost_1_1Assignable.html" target="_top" xlink:title=" ">
<polygon fill="white" stroke="black" points="200,-33 200,-52 332,-52 332,-33 200,-33"/>
<text text-anchor="middle" x="266" y="-40" font-family="FreeSans" font-size="10.00">boost::Assignable&lt; X &gt;</text>
</a>
</g>
</g>
<!-- Node6&#45;&gt;Node8 -->
<g id="edge8" class="edge">
<title>Node6&#45;&gt;Node8</title>
<path fill="none" stroke="orange" stroke-dasharray="5,2" d="M141.41,-42.5C160.58,-42.5 181.04,-42.5 199.69,-42.5"/>
<polygon fill="orange" stroke="orange" points="141.22,-39 131.22,-42.5 141.22,-46 141.22,-39"/>
<text text-anchor="middle" x="165.5" y="-45.5" font-family="FreeSans" font-size="10.00"> &lt; X &gt;</text>
</g>
<!-- Node10 -->
<g id="node10" class="node">
<title>Node10</title>
<g id="a_node10"><a xlink:href="structDGtal_1_1concepts_1_1CUnaryFunctor.html" target="_top" xlink:title=" ">
<polygon fill="white" stroke="black" points="822,-0.5 822,-30.5 994,-30.5 994,-0.5 822,-0.5"/>
<text text-anchor="start" x="830" y="-18.5" font-family="FreeSans" font-size="10.00">DGtal::concepts::CUnaryFunctor</text>
<text text-anchor="middle" x="908" y="-7.5" font-family="FreeSans" font-size="10.00">&lt; T, T::Point, T::Value &gt;</text>
</a>
</g>
</g>
<!-- Node6&#45;&gt;Node10 -->
<g id="edge11" class="edge">
<title>Node6&#45;&gt;Node10</title>
<path fill="none" stroke="midnightblue" d="M132.51,-31.49C153.97,-28.34 177.94,-25.29 200,-23.5 423.9,-5.36 688.97,-9.07 821.94,-12.66"/>
<polygon fill="midnightblue" stroke="midnightblue" points="131.89,-28.04 122.52,-32.99 132.93,-34.97 131.89,-28.04"/>
</g>
<!-- Node7 -->
<g id="node7" class="node">
<title>Node7</title>
<g id="a_node7"><a xlink:href="structDGtal_1_1concepts_1_1CUnaryFunctor.html" target="_top" xlink:title="Aim: Defines a unary functor, which associates arguments to results.">
<polygon fill="white" stroke="black" points="496,-27.5 496,-57.5 668,-57.5 668,-27.5 496,-27.5"/>
<text text-anchor="start" x="504" y="-45.5" font-family="FreeSans" font-size="10.00">DGtal::concepts::CUnaryFunctor</text>
<text text-anchor="middle" x="582" y="-34.5" font-family="FreeSans" font-size="10.00">&lt; X, A, R &gt;</text>
</a>
</g>
</g>
<!-- Node7&#45;&gt;Node4 -->
<g id="edge6" class="edge">
<title>Node7&#45;&gt;Node4</title>
<path fill="none" stroke="orange" stroke-dasharray="5,2" d="M678.29,-48.97C723.79,-52.06 777.78,-55.73 821.88,-58.72"/>
<polygon fill="orange" stroke="orange" points="678.34,-45.47 668.13,-48.28 677.87,-52.45 678.34,-45.47"/>
<text text-anchor="start" x="708.5" y="-70.5" font-family="FreeSans" font-size="10.00"> &lt; I, I ::Point, I </text>
<text text-anchor="middle" x="745" y="-59.5" font-family="FreeSans" font-size="10.00">::Value &gt;</text>
</g>
<!-- Node7&#45;&gt;Node10 -->
<g id="edge12" class="edge">
<title>Node7&#45;&gt;Node10</title>
<path fill="none" stroke="orange" stroke-dasharray="5,2" d="M678.29,-34.56C723.79,-30.77 777.78,-26.27 821.88,-22.59"/>
<polygon fill="orange" stroke="orange" points="677.8,-31.09 668.13,-35.41 678.38,-38.06 677.8,-31.09"/>
<text text-anchor="middle" x="745" y="-37.5" font-family="FreeSans" font-size="10.00"> &lt; T, T::Point, T::Value &gt;</text>
</g>
<!-- Node8&#45;&gt;Node7 -->
<g id="edge7" class="edge">
<title>Node8&#45;&gt;Node7</title>
<path fill="none" stroke="midnightblue" d="M342.31,-42.5C388.52,-42.5 447.81,-42.5 495.74,-42.5"/>
<polygon fill="midnightblue" stroke="midnightblue" points="342.06,-39 332.06,-42.5 342.06,-46 342.06,-39"/>
</g>
<!-- Node9 -->
<g id="node9" class="node">
<title>Node9</title>
<g id="a_node9"><a xlink:href="structDGtal_1_1concepts_1_1CPointFunctor.html" target="_top" xlink:title="Aim: Defines a functor on points.">
<polygon fill="white" stroke="black" points="1031,-14 1031,-33 1227,-33 1227,-14 1031,-14"/>
<text text-anchor="middle" x="1129" y="-21" font-family="FreeSans" font-size="10.00">DGtal::concepts::CPointFunctor&lt; T &gt;</text>
</a>
</g>
</g>
<!-- Node9&#45;&gt;Node3 -->
<g id="edge9" class="edge">
<title>Node9&#45;&gt;Node3</title>
<path fill="none" stroke="orange" stroke-dasharray="5,2" d="M1237.56,-31.85C1255.53,-33.25 1274.07,-34.69 1291.72,-36.06"/>
<polygon fill="orange" stroke="orange" points="1237.59,-28.35 1227.35,-31.06 1237.05,-35.33 1237.59,-28.35"/>
<text text-anchor="middle" x="1259.5" y="-37.5" font-family="FreeSans" font-size="10.00"> &lt; I &gt;</text>
</g>
<!-- Node10&#45;&gt;Node9 -->
<g id="edge10" class="edge">
<title>Node10&#45;&gt;Node9</title>
<path fill="none" stroke="midnightblue" d="M1004.51,-18.99C1013.28,-19.31 1022.16,-19.63 1030.94,-19.95"/>
<polygon fill="midnightblue" stroke="midnightblue" points="1004.42,-15.48 994.3,-18.62 1004.16,-22.48 1004.42,-15.48"/>
</g>
</g>
</svg>
