<?xml version="1.0" encoding="UTF-8" standalone="no"?>
<!DOCTYPE svg PUBLIC "-//W3C//DTD SVG 1.1//EN"
 "http://www.w3.org/Graphics/SVG/1.1/DTD/svg11.dtd">
<!-- Generated by graphviz version 2.43.0 (0)
 -->
<!-- Title: DGtal::MultisetAssociativeCategory Pages: 1 -->
<svg width="701pt" height="134pt"
 viewBox="0.00 0.00 701.00 134.00" xmlns="http://www.w3.org/2000/svg" xmlns:xlink="http://www.w3.org/1999/xlink">
<g id="graph0" class="graph" transform="scale(1 1) rotate(0) translate(4 130)">
<title>DGtal::MultisetAssociativeCategory</title>
<!-- Node1 -->
<g id="Node000001" class="node">
<title>Node1</title>
<g id="a_Node000001"><a xlink:title=" ">
<polygon fill="#999999" stroke="#666666" points="693,-78 547,-78 547,-48 693,-48 693,-78"/>
<text text-anchor="start" x="555" y="-66" font-family="FreeSans" font-size="10.00">DGtal::MultisetAssociative</text>
<text text-anchor="middle" x="620" y="-55" font-family="FreeSans" font-size="10.00">Category</text>
</a>
</g>
</g>
<!-- Node2 -->
<g id="Node000002" class="node">
<title>Node2</title>
<g id="a_Node000002"><a xlink:href="structDGtal_1_1OrderedAssociativeCategory.html" target="_top" xlink:title=" ">
<polygon fill="white" stroke="#666666" points="511,-126 365,-126 365,-96 511,-96 511,-126"/>
<text text-anchor="start" x="373" y="-114" font-family="FreeSans" font-size="10.00">DGtal::OrderedAssociative</text>
<text text-anchor="middle" x="438" y="-103" font-family="FreeSans" font-size="10.00">Category</text>
</a>
</g>
</g>
<!-- Node2&#45;&gt;Node1 -->
<g id="edge1_Node000001_Node000002" class="edge">
<title>Node2&#45;&gt;Node1</title>
<g id="a_edge1_Node000001_Node000002"><a xlink:title=" ">
<path fill="none" stroke="#63b8ff" d="M505.19,-93.35C524.09,-88.31 544.49,-82.87 562.74,-78"/>
<polygon fill="#63b8ff" stroke="#63b8ff" points="504.22,-89.99 495.46,-95.94 506.02,-96.75 504.22,-89.99"/>
</a>
</g>
</g>
<!-- Node3 -->
<g id="Node000003" class="node">
<title>Node3</title>
<g id="a_Node000003"><a xlink:href="structDGtal_1_1AssociativeCategory.html" target="_top" xlink:title=" ">
<polygon fill="white" stroke="#666666" points="329,-72.5 178,-72.5 178,-53.5 329,-53.5 329,-72.5"/>
<text text-anchor="middle" x="253.5" y="-60.5" font-family="FreeSans" font-size="10.00">DGtal::AssociativeCategory</text>
</a>
</g>
</g>
<!-- Node3&#45;&gt;Node2 -->
<g id="edge2_Node000002_Node000003" class="edge">
<title>Node3&#45;&gt;Node2</title>
<g id="a_edge2_Node000002_Node000003"><a xlink:title=" ">
<path fill="none" stroke="#63b8ff" d="M300.9,-75.2C324.88,-81.51 354.35,-89.26 379.73,-95.94"/>
<polygon fill="#63b8ff" stroke="#63b8ff" points="301.55,-71.76 290.99,-72.6 299.77,-78.53 301.55,-71.76"/>
</a>
</g>
</g>
<!-- Node5 -->
<g id="Node000005" class="node">
<title>Node5</title>
<g id="a_Node000005"><a xlink:href="structDGtal_1_1SimpleAssociativeCategory.html" target="_top" xlink:title=" ">
<polygon fill="white" stroke="#666666" points="508,-78 368,-78 368,-48 508,-48 508,-78"/>
<text text-anchor="start" x="376" y="-66" font-family="FreeSans" font-size="10.00">DGtal::SimpleAssociative</text>
<text text-anchor="middle" x="438" y="-55" font-family="FreeSans" font-size="10.00">Category</text>
</a>
</g>
</g>
<!-- Node3&#45;&gt;Node5 -->
<g id="edge5_Node000005_Node000003" class="edge">
<title>Node3&#45;&gt;Node5</title>
<g id="a_edge5_Node000005_Node000003"><a xlink:title=" ">
<path fill="none" stroke="#63b8ff" d="M339.53,-63C349.05,-63 358.66,-63 367.94,-63"/>
<polygon fill="#63b8ff" stroke="#63b8ff" points="339.26,-59.5 329.26,-63 339.26,-66.5 339.26,-59.5"/>
</a>
</g>
</g>
<!-- Node6 -->
<g id="Node000006" class="node">
<title>Node6</title>
<g id="a_Node000006"><a xlink:href="structDGtal_1_1MultipleAssociativeCategory.html" target="_top" xlink:title=" ">
<polygon fill="white" stroke="#666666" points="511,-30 365,-30 365,0 511,0 511,-30"/>
<text text-anchor="start" x="373" y="-18" font-family="FreeSans" font-size="10.00">DGtal::MultipleAssociative</text>
<text text-anchor="middle" x="438" y="-7" font-family="FreeSans" font-size="10.00">Category</text>
</a>
</g>
</g>
<!-- Node3&#45;&gt;Node6 -->
<g id="edge7_Node000006_Node000003" class="edge">
<title>Node3&#45;&gt;Node6</title>
<g id="a_edge7_Node000006_Node000003"><a xlink:title=" ">
<path fill="none" stroke="#63b8ff" d="M300.9,-50.8C324.88,-44.49 354.35,-36.74 379.73,-30.06"/>
<polygon fill="#63b8ff" stroke="#63b8ff" points="299.77,-47.47 290.99,-53.4 301.55,-54.24 299.77,-47.47"/>
</a>
</g>
</g>
<!-- Node4 -->
<g id="Node000004" class="node">
<title>Node4</title>
<g id="a_Node000004"><a xlink:href="structDGtal_1_1ContainerCategory.html" target="_top" xlink:title=" ">
<polygon fill="white" stroke="#666666" points="142,-72.5 0,-72.5 0,-53.5 142,-53.5 142,-72.5"/>
<text text-anchor="middle" x="71" y="-60.5" font-family="FreeSans" font-size="10.00">DGtal::ContainerCategory</text>
</a>
</g>
</g>
<!-- Node4&#45;&gt;Node3 -->
<g id="edge3_Node000003_Node000004" class="edge">
<title>Node4&#45;&gt;Node3</title>
<g id="a_edge3_Node000003_Node000004"><a xlink:title=" ">
<path fill="none" stroke="#63b8ff" d="M152.28,-63C160.74,-63 169.32,-63 177.71,-63"/>
<polygon fill="#63b8ff" stroke="#63b8ff" points="152.04,-59.5 142.04,-63 152.04,-66.5 152.04,-59.5"/>
</a>
</g>
</g>
<!-- Node5&#45;&gt;Node1 -->
<g id="edge4_Node000001_Node000005" class="edge">
<title>Node5&#45;&gt;Node1</title>
<g id="a_edge4_Node000001_Node000005"><a xlink:title=" ">
<path fill="none" stroke="#63b8ff" d="M518.29,-63C527.79,-63 537.44,-63 546.82,-63"/>
<polygon fill="#63b8ff" stroke="#63b8ff" points="518.08,-59.5 508.08,-63 518.08,-66.5 518.08,-59.5"/>
</a>
</g>
</g>
<!-- Node6&#45;&gt;Node1 -->
<g id="edge6_Node000001_Node000006" class="edge">
<title>Node6&#45;&gt;Node1</title>
<g id="a_edge6_Node000001_Node000006"><a xlink:title=" ">
<path fill="none" stroke="#63b8ff" d="M505.19,-32.65C524.09,-37.69 544.49,-43.13 562.74,-48"/>
<polygon fill="#63b8ff" stroke="#63b8ff" points="506.02,-29.25 495.46,-30.06 504.22,-36.01 506.02,-29.25"/>
</a>
</g>
</g>
</g>
</svg>
