<?xml version="1.0" encoding="UTF-8" standalone="no"?>
<!DOCTYPE svg PUBLIC "-//W3C//DTD SVG 1.1//EN"
 "http://www.w3.org/Graphics/SVG/1.1/DTD/svg11.dtd">
<!-- Generated by graphviz version 2.43.0 (0)
 -->
<!-- Title: DGtal::CForwardIteratorArchetype&lt; T &gt; Pages: 1 -->
<svg width="218pt" height="171pt"
 viewBox="0.00 0.00 218.00 171.00" xmlns="http://www.w3.org/2000/svg" xmlns:xlink="http://www.w3.org/1999/xlink">
<g id="graph0" class="graph" transform="scale(1 1) rotate(0) translate(4 167)">
<title>DGtal::CForwardIteratorArchetype&lt; T &gt;</title>
<!-- Node1 -->
<g id="Node000001" class="node">
<title>Node1</title>
<g id="a_Node000001"><a xlink:title="An archetype of ForwardIterator.">
<polygon fill="#999999" stroke="#666666" points="210,-96 0,-96 0,-77 210,-77 210,-96"/>
<text text-anchor="middle" x="105" y="-84" font-family="FreeSans" font-size="10.00">DGtal::CForwardIteratorArchetype&lt; T &gt;</text>
</a>
</g>
</g>
<!-- Node3 -->
<g id="Node000003" class="node">
<title>Node3</title>
<g id="a_Node000003"><a xlink:href="structDGtal_1_1CForwardIteratorArchetype.html" target="_top" xlink:title=" ">
<polygon fill="white" stroke="#666666" points="196,-30 14,-30 14,0 196,0 196,-30"/>
<text text-anchor="start" x="22" y="-18" font-family="FreeSans" font-size="10.00">DGtal::CForwardIteratorArchetype</text>
<text text-anchor="middle" x="105" y="-7" font-family="FreeSans" font-size="10.00">&lt; Point &gt;</text>
</a>
</g>
</g>
<!-- Node1&#45;&gt;Node3 -->
<g id="edge2_Node000001_Node000003" class="edge">
<title>Node1&#45;&gt;Node3</title>
<g id="a_edge2_Node000001_Node000003"><a xlink:title=" ">
<path fill="none" stroke="orange" stroke-dasharray="5,2" d="M105,-66.71C105,-55.19 105,-40.68 105,-30.14"/>
<polygon fill="orange" stroke="orange" points="101.5,-66.98 105,-76.98 108.5,-66.98 101.5,-66.98"/>
</a>
</g>
<text text-anchor="middle" x="130.5" y="-51" font-family="FreeSans" font-size="10.00" fill="grey"> &lt; Point &gt;</text>
</g>
<!-- Node2 -->
<g id="Node000002" class="node">
<title>Node2</title>
<g id="a_Node000002"><a xlink:title=" ">
<polygon fill="white" stroke="#666666" points="169,-163 41,-163 41,-133 169,-133 169,-163"/>
<text text-anchor="start" x="49" y="-151" font-family="FreeSans" font-size="10.00">boost::forward_iterator</text>
<text text-anchor="middle" x="105" y="-140" font-family="FreeSans" font-size="10.00">_archetype&lt; T &gt;</text>
</a>
</g>
</g>
<!-- Node2&#45;&gt;Node1 -->
<g id="edge1_Node000001_Node000002" class="edge">
<title>Node2&#45;&gt;Node1</title>
<g id="a_edge1_Node000001_Node000002"><a xlink:title=" ">
<path fill="none" stroke="#63b8ff" d="M105,-122.79C105,-113.36 105,-103.15 105,-96.16"/>
<polygon fill="#63b8ff" stroke="#63b8ff" points="101.5,-122.9 105,-132.9 108.5,-122.9 101.5,-122.9"/>
</a>
</g>
</g>
</g>
</svg>
