<?xml version="1.0" encoding="UTF-8" standalone="no"?>
<!DOCTYPE svg PUBLIC "-//W3C//DTD SVG 1.1//EN"
 "http://www.w3.org/Graphics/SVG/1.1/DTD/svg11.dtd">
<!-- Generated by graphviz version 2.43.0 (0)
 -->
<!-- Title: DGtal::concepts::CPointEmbedder&lt; T &gt; Pages: 1 -->
<svg width="353pt" height="293pt"
 viewBox="0.00 0.00 352.50 293.00" xmlns="http://www.w3.org/2000/svg" xmlns:xlink="http://www.w3.org/1999/xlink">
<g id="graph0" class="graph" transform="scale(1 1) rotate(0) translate(4 289)">
<title>DGtal::concepts::CPointEmbedder&lt; T &gt;</title>
<!-- Node1 -->
<g id="Node000001" class="node">
<title>Node1</title>
<g id="a_Node000001"><a xlink:title="Aim: A point embedder is a mapping from digital points to Euclidean points. It adds inner types to fu...">
<polygon fill="#999999" stroke="#666666" points="209,-19 0,-19 0,0 209,0 209,-19"/>
<text text-anchor="middle" x="104.5" y="-7" font-family="FreeSans" font-size="10.00">DGtal::concepts::CPointEmbedder&lt; T &gt;</text>
</a>
</g>
</g>
<!-- Node2 -->
<g id="Node000002" class="node">
<title>Node2</title>
<g id="a_Node000002"><a xlink:href="structDGtal_1_1concepts_1_1CUnaryFunctor.html" target="_top" xlink:title=" ">
<polygon fill="white" stroke="#666666" points="190.5,-86 18.5,-86 18.5,-56 190.5,-56 190.5,-86"/>
<text text-anchor="start" x="26.5" y="-74" font-family="FreeSans" font-size="10.00">DGtal::concepts::CUnaryFunctor</text>
<text text-anchor="middle" x="104.5" y="-63" font-family="FreeSans" font-size="10.00">&lt; T, T::Point, T::RealPoint &gt;</text>
</a>
</g>
</g>
<!-- Node2&#45;&gt;Node1 -->
<g id="edge1_Node000001_Node000002" class="edge">
<title>Node2&#45;&gt;Node1</title>
<g id="a_edge1_Node000001_Node000002"><a xlink:title=" ">
<path fill="none" stroke="#63b8ff" d="M104.5,-45.79C104.5,-36.36 104.5,-26.15 104.5,-19.16"/>
<polygon fill="#63b8ff" stroke="#63b8ff" points="101,-45.9 104.5,-55.9 108,-45.9 101,-45.9"/>
</a>
</g>
</g>
<!-- Node3 -->
<g id="Node000003" class="node">
<title>Node3</title>
<g id="a_Node000003"><a xlink:href="structboost_1_1Assignable.html" target="_top" xlink:title="Go to http://www.sgi.com/tech/stl/Assignable.html.">
<polygon fill="white" stroke="#666666" points="154,-157.5 23,-157.5 23,-138.5 154,-138.5 154,-157.5"/>
<text text-anchor="middle" x="88.5" y="-145.5" font-family="FreeSans" font-size="10.00">boost::Assignable&lt; T &gt;</text>
</a>
</g>
</g>
<!-- Node3&#45;&gt;Node2 -->
<g id="edge2_Node000002_Node000003" class="edge">
<title>Node3&#45;&gt;Node2</title>
<g id="a_edge2_Node000002_Node000003"><a xlink:title=" ">
<path fill="none" stroke="#63b8ff" d="M92.43,-128.59C95.22,-115.49 98.93,-98.13 101.49,-86.11"/>
<polygon fill="#63b8ff" stroke="#63b8ff" points="89,-127.89 90.34,-138.4 95.84,-129.35 89,-127.89"/>
</a>
</g>
</g>
<!-- Node4 -->
<g id="Node000004" class="node">
<title>Node4</title>
<g id="a_Node000004"><a xlink:href="structDGtal_1_1concepts_1_1CUnaryFunctor.html" target="_top" xlink:title="Aim: Defines a unary functor, which associates arguments to results.">
<polygon fill="white" stroke="#666666" points="344.5,-163 172.5,-163 172.5,-133 344.5,-133 344.5,-163"/>
<text text-anchor="start" x="180.5" y="-151" font-family="FreeSans" font-size="10.00">DGtal::concepts::CUnaryFunctor</text>
<text text-anchor="middle" x="258.5" y="-140" font-family="FreeSans" font-size="10.00">&lt; X, A, R &gt;</text>
</a>
</g>
</g>
<!-- Node4&#45;&gt;Node2 -->
<g id="edge3_Node000002_Node000004" class="edge">
<title>Node4&#45;&gt;Node2</title>
<g id="a_edge3_Node000002_Node000004"><a xlink:title=" ">
<path fill="none" stroke="orange" stroke-dasharray="5,2" d="M220.4,-128.44C193.47,-115.33 157.93,-98.02 133.34,-86.04"/>
<polygon fill="orange" stroke="orange" points="219.01,-131.66 229.53,-132.89 222.08,-125.37 219.01,-131.66"/>
</a>
</g>
<text text-anchor="middle" x="259.5" y="-107" font-family="FreeSans" font-size="10.00" fill="grey"> &lt; T, T::Point, T::RealPoint &gt;</text>
</g>
<!-- Node5 -->
<g id="Node000005" class="node">
<title>Node5</title>
<g id="a_Node000005"><a xlink:href="structboost_1_1Assignable.html" target="_top" xlink:title=" ">
<polygon fill="white" stroke="#666666" points="324.5,-219 192.5,-219 192.5,-200 324.5,-200 324.5,-219"/>
<text text-anchor="middle" x="258.5" y="-207" font-family="FreeSans" font-size="10.00">boost::Assignable&lt; X &gt;</text>
</a>
</g>
</g>
<!-- Node5&#45;&gt;Node4 -->
<g id="edge4_Node000004_Node000005" class="edge">
<title>Node5&#45;&gt;Node4</title>
<g id="a_edge4_Node000004_Node000005"><a xlink:title=" ">
<path fill="none" stroke="#63b8ff" d="M258.5,-189.73C258.5,-181.09 258.5,-171 258.5,-163.02"/>
<polygon fill="#63b8ff" stroke="#63b8ff" points="255,-189.98 258.5,-199.98 262,-189.98 255,-189.98"/>
</a>
</g>
</g>
<!-- Node6 -->
<g id="Node000006" class="node">
<title>Node6</title>
<g id="a_Node000006"><a xlink:href="structboost_1_1Assignable.html" target="_top" xlink:title="Go to http://www.sgi.com/tech/stl/Assignable.html.">
<polygon fill="white" stroke="#666666" points="324,-285 193,-285 193,-266 324,-266 324,-285"/>
<text text-anchor="middle" x="258.5" y="-273" font-family="FreeSans" font-size="10.00">boost::Assignable&lt; T &gt;</text>
</a>
</g>
</g>
<!-- Node6&#45;&gt;Node5 -->
<g id="edge5_Node000005_Node000006" class="edge">
<title>Node6&#45;&gt;Node5</title>
<g id="a_edge5_Node000005_Node000006"><a xlink:title=" ">
<path fill="none" stroke="orange" stroke-dasharray="5,2" d="M258.5,-255.58C258.5,-243.63 258.5,-228.72 258.5,-219.41"/>
<polygon fill="orange" stroke="orange" points="255,-255.87 258.5,-265.87 262,-255.87 255,-255.87"/>
</a>
</g>
<text text-anchor="middle" x="275" y="-240" font-family="FreeSans" font-size="10.00" fill="grey"> &lt; X &gt;</text>
</g>
</g>
</svg>
