<?xml version="1.0" encoding="UTF-8" standalone="no"?>
<!DOCTYPE svg PUBLIC "-//W3C//DTD SVG 1.1//EN"
 "http://www.w3.org/Graphics/SVG/1.1/DTD/svg11.dtd">
<!-- Generated by graphviz version 2.43.0 (0)
 -->
<!-- Title: DGtal::NumberTraitsImpl&lt; T, Enable &gt; Pages: 1 -->
<svg width="980pt" height="143pt"
 viewBox="0.00 0.00 980.00 143.00" xmlns="http://www.w3.org/2000/svg" xmlns:xlink="http://www.w3.org/1999/xlink">
<g id="graph0" class="graph" transform="scale(1 1) rotate(0) translate(4 139)">
<title>DGtal::NumberTraitsImpl&lt; T, Enable &gt;</title>
<polygon fill="white" stroke="transparent" points="-4,4 -4,-139 976,-139 976,4 -4,4"/>
<!-- Node1 -->
<g id="node1" class="node">
<title>Node1</title>
<g id="a_node1"><a xlink:title="Aim: The traits class for all models of Cinteger (implementation)">
<polygon fill="#bfbfbf" stroke="black" points="0,-53 0,-83 137,-83 137,-53 0,-53"/>
<text text-anchor="start" x="8" y="-71" font-family="FreeSans" font-size="10.00">DGtal::NumberTraitsImpl</text>
<text text-anchor="middle" x="68.5" y="-60" font-family="FreeSans" font-size="10.00">&lt; T, Enable &gt;</text>
</a>
</g>
</g>
<!-- Node2 -->
<g id="node2" class="node">
<title>Node2</title>
<g id="a_node2"><a xlink:href="structDGtal_1_1NumberTraitsImpl.html" target="_top" xlink:title=" ">
<polygon fill="white" stroke="black" points="454,-93.5 454,-134.5 591,-134.5 591,-93.5 454,-93.5"/>
<text text-anchor="start" x="462" y="-122.5" font-family="FreeSans" font-size="10.00">DGtal::NumberTraitsImpl</text>
<text text-anchor="start" x="462" y="-111.5" font-family="FreeSans" font-size="10.00">&lt; std::decay&lt; Integer</text>
<text text-anchor="middle" x="522.5" y="-100.5" font-family="FreeSans" font-size="10.00"> &gt;::type &gt;</text>
</a>
</g>
</g>
<!-- Node1&#45;&gt;Node2 -->
<g id="edge1" class="edge">
<title>Node1&#45;&gt;Node2</title>
<path fill="none" stroke="orange" stroke-dasharray="5,2" d="M125.99,-85.68C135.59,-88.16 145.52,-90.4 155,-92 258.24,-109.38 379.88,-113.52 453.8,-114.25"/>
<polygon fill="orange" stroke="orange" points="126.7,-82.25 116.13,-83.03 124.88,-89.01 126.7,-82.25"/>
<text text-anchor="start" x="158" y="-119" font-family="FreeSans" font-size="10.00"> &lt; std::decay&lt; Integer</text>
<text text-anchor="middle" x="213.5" y="-108" font-family="FreeSans" font-size="10.00"> &gt;::type &gt;</text>
</g>
<!-- Node4 -->
<g id="node4" class="node">
<title>Node4</title>
<g id="a_node4"><a xlink:href="structDGtal_1_1NumberTraitsImpl.html" target="_top" xlink:title=" ">
<polygon fill="white" stroke="black" points="290,-53 290,-83 436,-83 436,-53 290,-53"/>
<text text-anchor="start" x="298" y="-71" font-family="FreeSans" font-size="10.00">DGtal::NumberTraitsImpl</text>
<text text-anchor="middle" x="363" y="-60" font-family="FreeSans" font-size="10.00">&lt; std::decay&lt; T &gt;::type &gt;</text>
</a>
</g>
</g>
<!-- Node1&#45;&gt;Node4 -->
<g id="edge3" class="edge">
<title>Node1&#45;&gt;Node4</title>
<path fill="none" stroke="orange" stroke-dasharray="5,2" d="M147.47,-68C191.71,-68 246.7,-68 289.93,-68"/>
<polygon fill="orange" stroke="orange" points="147.34,-64.5 137.34,-68 147.34,-71.5 147.34,-64.5"/>
<text text-anchor="start" x="163.5" y="-82" font-family="FreeSans" font-size="10.00"> &lt; std::decay&lt; T &gt;::</text>
<text text-anchor="middle" x="213.5" y="-71" font-family="FreeSans" font-size="10.00">type &gt;</text>
</g>
<!-- Node7 -->
<g id="node7" class="node">
<title>Node7</title>
<g id="a_node7"><a xlink:href="structDGtal_1_1NumberTraitsImpl.html" target="_top" xlink:title=" ">
<polygon fill="white" stroke="black" points="454,-0.5 454,-41.5 591,-41.5 591,-0.5 454,-0.5"/>
<text text-anchor="start" x="462" y="-29.5" font-family="FreeSans" font-size="10.00">DGtal::NumberTraitsImpl</text>
<text text-anchor="start" x="462" y="-18.5" font-family="FreeSans" font-size="10.00">&lt; std::decay&lt; TInteger</text>
<text text-anchor="middle" x="522.5" y="-7.5" font-family="FreeSans" font-size="10.00"> &gt;::type &gt;</text>
</a>
</g>
</g>
<!-- Node1&#45;&gt;Node7 -->
<g id="edge7" class="edge">
<title>Node1&#45;&gt;Node7</title>
<path fill="none" stroke="orange" stroke-dasharray="5,2" d="M121.83,-49.94C132.68,-46.81 144.12,-43.94 155,-42 258.06,-23.65 379.74,-20.2 453.73,-20.09"/>
<polygon fill="orange" stroke="orange" points="120.64,-46.65 112.07,-52.88 122.65,-53.35 120.64,-46.65"/>
<text text-anchor="start" x="155" y="-56" font-family="FreeSans" font-size="10.00"> &lt; std::decay&lt; TInteger</text>
<text text-anchor="middle" x="213.5" y="-45" font-family="FreeSans" font-size="10.00"> &gt;::type &gt;</text>
</g>
<!-- Node3 -->
<g id="node3" class="node">
<title>Node3</title>
<g id="a_node3"><a xlink:href="structDGtal_1_1NumberTraits.html" target="_top" xlink:title=" ">
<polygon fill="white" stroke="black" points="856,-85 856,-115 972,-115 972,-85 856,-85"/>
<text text-anchor="start" x="864" y="-103" font-family="FreeSans" font-size="10.00">DGtal::NumberTraits</text>
<text text-anchor="middle" x="914" y="-92" font-family="FreeSans" font-size="10.00">&lt; Integer &gt;</text>
</a>
</g>
</g>
<!-- Node2&#45;&gt;Node3 -->
<g id="edge2" class="edge">
<title>Node2&#45;&gt;Node3</title>
<path fill="none" stroke="midnightblue" d="M601.7,-111.19C676.82,-108.49 788.56,-104.47 855.74,-102.06"/>
<polygon fill="midnightblue" stroke="midnightblue" points="601.21,-107.7 591.35,-111.56 601.47,-114.7 601.21,-107.7"/>
</g>
<!-- Node5 -->
<g id="node5" class="node">
<title>Node5</title>
<g id="a_node5"><a xlink:href="structDGtal_1_1NumberTraits.html" target="_top" xlink:title="Aim: The traits class for all models of Cinteger.">
<polygon fill="white" stroke="black" points="609,-58.5 609,-77.5 753,-77.5 753,-58.5 609,-58.5"/>
<text text-anchor="middle" x="681" y="-65.5" font-family="FreeSans" font-size="10.00">DGtal::NumberTraits&lt; T &gt;</text>
</a>
</g>
</g>
<!-- Node4&#45;&gt;Node5 -->
<g id="edge4" class="edge">
<title>Node4&#45;&gt;Node5</title>
<path fill="none" stroke="midnightblue" d="M446.31,-68C496.7,-68 560.54,-68 608.75,-68"/>
<polygon fill="midnightblue" stroke="midnightblue" points="446.1,-64.5 436.1,-68 446.1,-71.5 446.1,-64.5"/>
</g>
<!-- Node5&#45;&gt;Node3 -->
<g id="edge6" class="edge">
<title>Node5&#45;&gt;Node3</title>
<path fill="none" stroke="orange" stroke-dasharray="5,2" d="M763.24,-78.75C787.32,-81.99 813.73,-85.59 838,-89 843.73,-89.81 849.71,-90.66 855.68,-91.52"/>
<polygon fill="orange" stroke="orange" points="763.46,-75.25 753.08,-77.39 762.53,-82.19 763.46,-75.25"/>
<text text-anchor="middle" x="804.5" y="-92" font-family="FreeSans" font-size="10.00"> &lt; Integer &gt;</text>
</g>
<!-- Node6 -->
<g id="node6" class="node">
<title>Node6</title>
<g id="a_node6"><a xlink:href="structDGtal_1_1NumberTraits.html" target="_top" xlink:title=" ">
<polygon fill="white" stroke="black" points="856,-27 856,-57 972,-57 972,-27 856,-27"/>
<text text-anchor="start" x="864" y="-45" font-family="FreeSans" font-size="10.00">DGtal::NumberTraits</text>
<text text-anchor="middle" x="914" y="-34" font-family="FreeSans" font-size="10.00">&lt; TInteger &gt;</text>
</a>
</g>
</g>
<!-- Node5&#45;&gt;Node6 -->
<g id="edge5" class="edge">
<title>Node5&#45;&gt;Node6</title>
<path fill="none" stroke="orange" stroke-dasharray="5,2" d="M754.33,-57.1C759.97,-56.36 765.57,-55.64 771,-55 798.9,-51.69 829.98,-48.76 855.92,-46.52"/>
<polygon fill="orange" stroke="orange" points="753.62,-53.67 744.19,-58.48 754.57,-60.6 753.62,-53.67"/>
<text text-anchor="middle" x="804.5" y="-58" font-family="FreeSans" font-size="10.00"> &lt; TInteger &gt;</text>
</g>
<!-- Node7&#45;&gt;Node6 -->
<g id="edge8" class="edge">
<title>Node7&#45;&gt;Node6</title>
<path fill="none" stroke="midnightblue" d="M601.7,-25.22C676.82,-29.27 788.56,-35.29 855.74,-38.91"/>
<polygon fill="midnightblue" stroke="midnightblue" points="601.52,-21.7 591.35,-24.66 601.14,-28.69 601.52,-21.7"/>
</g>
</g>
</svg>
