<?xml version="1.0" encoding="UTF-8" standalone="no"?>
<!DOCTYPE svg PUBLIC "-//W3C//DTD SVG 1.1//EN"
 "http://www.w3.org/Graphics/SVG/1.1/DTD/svg11.dtd">
<!-- Generated by graphviz version 2.43.0 (0)
 -->
<!-- Title: DGtal::DrawableWithBoard2D Pages: 1 -->
<svg width="364pt" height="508pt"
 viewBox="0.00 0.00 364.00 508.00" xmlns="http://www.w3.org/2000/svg" xmlns:xlink="http://www.w3.org/1999/xlink">
<g id="graph0" class="graph" transform="scale(1 1) rotate(0) translate(4 504)">
<title>DGtal::DrawableWithBoard2D</title>
<!-- Node1 -->
<g id="Node000001" class="node">
<title>Node1</title>
<g id="a_Node000001"><a xlink:title=" ">
<polygon fill="#999999" stroke="#666666" points="161,-222 0,-222 0,-203 161,-203 161,-222"/>
<text text-anchor="middle" x="80.5" y="-210" font-family="FreeSans" font-size="10.00">DGtal::DrawableWithBoard2D</text>
</a>
</g>
</g>
<!-- Node2 -->
<g id="Node000002" class="node">
<title>Node2</title>
<g id="a_Node000002"><a xlink:href="structDGtal_1_1CustomColors.html" target="_top" xlink:title="Custom style class redefining the pen color and the fill color. You may use Board2D::Color::None for ...">
<polygon fill="white" stroke="#666666" points="336,-500 217,-500 217,-481 336,-481 336,-500"/>
<text text-anchor="middle" x="276.5" y="-488" font-family="FreeSans" font-size="10.00">DGtal::CustomColors</text>
</a>
</g>
</g>
<!-- Node1&#45;&gt;Node2 -->
<g id="edge1_Node000001_Node000002" class="edge">
<title>Node1&#45;&gt;Node2</title>
<g id="a_edge1_Node000001_Node000002"><a xlink:title=" ">
<path fill="none" stroke="#63b8ff" d="M84.22,-232.3C92.03,-281.2 119.18,-408.39 197,-472.5 202.83,-477.3 209.69,-480.88 216.89,-483.53"/>
<polygon fill="#63b8ff" stroke="#63b8ff" points="87.64,-231.49 82.7,-222.12 80.71,-232.53 87.64,-231.49"/>
</a>
</g>
</g>
<!-- Node3 -->
<g id="Node000003" class="node">
<title>Node3</title>
<g id="a_Node000003"><a xlink:href="structDGtal_1_1CustomFillColor.html" target="_top" xlink:title="Custom style class redefining the fill color. You may use Board2D::Color::None for transparent color.">
<polygon fill="white" stroke="#666666" points="340.5,-463 212.5,-463 212.5,-444 340.5,-444 340.5,-463"/>
<text text-anchor="middle" x="276.5" y="-451" font-family="FreeSans" font-size="10.00">DGtal::CustomFillColor</text>
</a>
</g>
</g>
<!-- Node1&#45;&gt;Node3 -->
<g id="edge2_Node000001_Node000003" class="edge">
<title>Node1&#45;&gt;Node3</title>
<g id="a_edge2_Node000001_Node000003"><a xlink:title=" ">
<path fill="none" stroke="#63b8ff" d="M85.83,-232.43C96.47,-276.43 128.2,-382.2 197,-435.5 201.64,-439.1 206.87,-442 212.38,-444.33"/>
<polygon fill="#63b8ff" stroke="#63b8ff" points="89.18,-231.37 83.52,-222.42 82.36,-232.95 89.18,-231.37"/>
</a>
</g>
</g>
<!-- Node4 -->
<g id="Node000004" class="node">
<title>Node4</title>
<g id="a_Node000004"><a xlink:href="structDGtal_1_1CustomPen.html" target="_top" xlink:title="Custom style class redefining the pen attributes. You may use Board2D::Color::None for transparent co...">
<polygon fill="white" stroke="#666666" points="329.5,-426 223.5,-426 223.5,-407 329.5,-407 329.5,-426"/>
<text text-anchor="middle" x="276.5" y="-414" font-family="FreeSans" font-size="10.00">DGtal::CustomPen</text>
</a>
</g>
</g>
<!-- Node1&#45;&gt;Node4 -->
<g id="edge3_Node000001_Node000004" class="edge">
<title>Node1&#45;&gt;Node4</title>
<g id="a_edge3_Node000001_Node000004"><a xlink:title=" ">
<path fill="none" stroke="#63b8ff" d="M87.82,-231.94C101.32,-270.25 136.76,-355.47 197,-398.5 204.74,-404.03 213.9,-407.89 223.19,-410.58"/>
<polygon fill="#63b8ff" stroke="#63b8ff" points="90.99,-230.4 84.46,-222.06 84.37,-232.65 90.99,-230.4"/>
</a>
</g>
</g>
<!-- Node5 -->
<g id="Node000005" class="node">
<title>Node5</title>
<g id="a_Node000005"><a xlink:href="structDGtal_1_1CustomPenColor.html" target="_top" xlink:title="Custom style class redefining the pen color. You may use Board2D::Color::None for transparent color.">
<polygon fill="white" stroke="#666666" points="342,-389 211,-389 211,-370 342,-370 342,-389"/>
<text text-anchor="middle" x="276.5" y="-377" font-family="FreeSans" font-size="10.00">DGtal::CustomPenColor</text>
</a>
</g>
</g>
<!-- Node1&#45;&gt;Node5 -->
<g id="edge4_Node000001_Node000005" class="edge">
<title>Node1&#45;&gt;Node5</title>
<g id="a_edge4_Node000001_Node000005"><a xlink:title=" ">
<path fill="none" stroke="#63b8ff" d="M90.72,-231.6C107.29,-263.76 145.23,-328.43 197,-361.5 202.3,-364.89 208.17,-367.64 214.23,-369.88"/>
<polygon fill="#63b8ff" stroke="#63b8ff" points="93.72,-229.76 86.11,-222.39 87.46,-232.89 93.72,-229.76"/>
</a>
</g>
</g>
<!-- Node6 -->
<g id="Node000006" class="node">
<title>Node6</title>
<g id="a_Node000006"><a xlink:href="structMyDomainStyleCustomRed.html" target="_top" xlink:title=" ">
<polygon fill="white" stroke="#666666" points="352,-352 201,-352 201,-333 352,-333 352,-352"/>
<text text-anchor="middle" x="276.5" y="-340" font-family="FreeSans" font-size="10.00">MyDomainStyleCustomRed</text>
</a>
</g>
</g>
<!-- Node1&#45;&gt;Node6 -->
<g id="edge5_Node000001_Node000006" class="edge">
<title>Node1&#45;&gt;Node6</title>
<g id="a_edge5_Node000001_Node000006"><a xlink:title=" ">
<path fill="none" stroke="#63b8ff" d="M94.63,-230.32C114.1,-255.38 153.06,-300.63 197,-324.5 203.27,-327.9 210.15,-330.67 217.16,-332.91"/>
<polygon fill="#63b8ff" stroke="#63b8ff" points="97.21,-227.92 88.37,-222.08 91.63,-232.16 97.21,-227.92"/>
</a>
</g>
</g>
<!-- Node7 -->
<g id="Node000007" class="node">
<title>Node7</title>
<g id="a_Node000007"><a xlink:href="structMyDrawStyleCustomBlue.html" target="_top" xlink:title=" ">
<polygon fill="white" stroke="#666666" points="347,-315 206,-315 206,-296 347,-296 347,-315"/>
<text text-anchor="middle" x="276.5" y="-303" font-family="FreeSans" font-size="10.00">MyDrawStyleCustomBlue</text>
</a>
</g>
</g>
<!-- Node1&#45;&gt;Node7 -->
<g id="edge6_Node000001_Node000007" class="edge">
<title>Node1&#45;&gt;Node7</title>
<g id="a_edge6_Node000001_Node000007"><a xlink:title=" ">
<path fill="none" stroke="#63b8ff" d="M101.1,-228.33C123.15,-245.38 160.66,-272.11 197,-287.5 204.98,-290.88 213.7,-293.68 222.34,-295.98"/>
<polygon fill="#63b8ff" stroke="#63b8ff" points="103.2,-225.53 93.18,-222.11 98.88,-231.04 103.2,-225.53"/>
</a>
</g>
</g>
<!-- Node8 -->
<g id="Node000008" class="node">
<title>Node8</title>
<g id="a_Node000008"><a xlink:href="structMyDrawStyleCustomColor.html" target="_top" xlink:title=" ">
<polygon fill="white" stroke="#666666" points="349,-278 204,-278 204,-259 349,-259 349,-278"/>
<text text-anchor="middle" x="276.5" y="-266" font-family="FreeSans" font-size="10.00">MyDrawStyleCustomColor</text>
</a>
</g>
</g>
<!-- Node1&#45;&gt;Node8 -->
<g id="edge7_Node000001_Node000008" class="edge">
<title>Node1&#45;&gt;Node8</title>
<g id="a_edge7_Node000001_Node000008"><a xlink:title=" ">
<path fill="none" stroke="#63b8ff" d="M117.89,-225.43C140.5,-233.22 170.25,-243.05 197,-250.5 207.78,-253.5 219.48,-256.38 230.49,-258.93"/>
<polygon fill="#63b8ff" stroke="#63b8ff" points="118.95,-222.09 108.35,-222.12 116.65,-228.71 118.95,-222.09"/>
</a>
</g>
</g>
<!-- Node9 -->
<g id="Node000009" class="node">
<title>Node9</title>
<g id="a_Node000009"><a xlink:href="structMyDrawStyleCustomFillColor.html" target="_top" xlink:title=" ">
<polygon fill="white" stroke="#666666" points="356,-241 197,-241 197,-222 356,-222 356,-241"/>
<text text-anchor="middle" x="276.5" y="-229" font-family="FreeSans" font-size="10.00">MyDrawStyleCustomFillColor</text>
</a>
</g>
</g>
<!-- Node1&#45;&gt;Node9 -->
<g id="edge8_Node000001_Node000009" class="edge">
<title>Node1&#45;&gt;Node9</title>
<g id="a_edge8_Node000001_Node000009"><a xlink:title=" ">
<path fill="none" stroke="#63b8ff" d="M171.47,-221.31C179.89,-222.14 188.38,-222.97 196.69,-223.78"/>
<polygon fill="#63b8ff" stroke="#63b8ff" points="171.54,-217.8 161.25,-220.31 170.86,-224.77 171.54,-217.8"/>
</a>
</g>
</g>
<!-- Node10 -->
<g id="Node000010" class="node">
<title>Node10</title>
<g id="a_Node000010"><a xlink:href="structMyDrawStyleCustomGreen.html" target="_top" xlink:title=" ">
<polygon fill="white" stroke="#666666" points="351,-204 202,-204 202,-185 351,-185 351,-204"/>
<text text-anchor="middle" x="276.5" y="-192" font-family="FreeSans" font-size="10.00">MyDrawStyleCustomGreen</text>
</a>
</g>
</g>
<!-- Node1&#45;&gt;Node10 -->
<g id="edge9_Node000001_Node000010" class="edge">
<title>Node1&#45;&gt;Node10</title>
<g id="a_edge9_Node000001_Node000010"><a xlink:title=" ">
<path fill="none" stroke="#63b8ff" d="M133.14,-201.66C154.2,-199 178.95,-196.53 201.85,-194.76"/>
<polygon fill="#63b8ff" stroke="#63b8ff" points="132.58,-198.21 123.12,-202.98 133.49,-205.15 132.58,-198.21"/>
</a>
</g>
</g>
<!-- Node1&#45;&gt;Node10 -->
<g id="edge10_Node000001_Node000010" class="edge">
<title>Node1&#45;&gt;Node10</title>
<g id="a_edge10_Node000001_Node000010"><a xlink:title=" ">
<path fill="none" stroke="#63b8ff" d="M171.27,-210.9C193.18,-208.97 215.6,-206.53 234,-204"/>
<polygon fill="#63b8ff" stroke="#63b8ff" points="170.92,-207.42 161.25,-211.75 171.51,-214.4 170.92,-207.42"/>
</a>
</g>
</g>
<!-- Node11 -->
<g id="Node000011" class="node">
<title>Node11</title>
<g id="a_Node000011"><a xlink:href="structMyDrawStyleCustomRed.html" target="_top" xlink:title=" ">
<polygon fill="white" stroke="#666666" points="345.5,-167 207.5,-167 207.5,-148 345.5,-148 345.5,-167"/>
<text text-anchor="middle" x="276.5" y="-155" font-family="FreeSans" font-size="10.00">MyDrawStyleCustomRed</text>
</a>
</g>
</g>
<!-- Node1&#45;&gt;Node11 -->
<g id="edge11_Node000001_Node000011" class="edge">
<title>Node1&#45;&gt;Node11</title>
<g id="a_edge11_Node000001_Node000011"><a xlink:title=" ">
<path fill="none" stroke="#63b8ff" d="M103.13,-198.62C126.25,-188.71 164.02,-176.62 197,-167.5 200.38,-166.57 203.85,-165.63 207.35,-164.72"/>
<polygon fill="#63b8ff" stroke="#63b8ff" points="101.53,-195.5 93.9,-202.85 104.45,-201.86 101.53,-195.5"/>
</a>
</g>
</g>
<!-- Node1&#45;&gt;Node11 -->
<g id="edge12_Node000001_Node000011" class="edge">
<title>Node1&#45;&gt;Node11</title>
<g id="a_edge12_Node000001_Node000011"><a xlink:title=" ">
<path fill="none" stroke="#63b8ff" d="M146.8,-200.06C163.13,-195.27 180.65,-190.02 197,-185.5 219.57,-179.26 246.1,-173.07 261.82,-167.03"/>
<polygon fill="#63b8ff" stroke="#63b8ff" points="145.42,-196.81 136.8,-202.97 147.38,-203.53 145.42,-196.81"/>
</a>
</g>
</g>
<!-- Node12 -->
<g id="Node000012" class="node">
<title>Node12</title>
<g id="a_Node000012"><a xlink:href="structMyObjectStyleCustom.html" target="_top" xlink:title=" ">
<polygon fill="white" stroke="#666666" points="339,-130 214,-130 214,-111 339,-111 339,-130"/>
<text text-anchor="middle" x="276.5" y="-118" font-family="FreeSans" font-size="10.00">MyObjectStyleCustom</text>
</a>
</g>
</g>
<!-- Node1&#45;&gt;Node12 -->
<g id="edge13_Node000001_Node000012" class="edge">
<title>Node1&#45;&gt;Node12</title>
<g id="a_edge13_Node000001_Node000012"><a xlink:title=" ">
<path fill="none" stroke="#63b8ff" d="M101.57,-196.93C123.76,-180.43 161.13,-154.69 197,-139.5 205.91,-135.73 215.72,-132.61 225.3,-130.06"/>
<polygon fill="#63b8ff" stroke="#63b8ff" points="99.44,-194.15 93.57,-202.97 103.66,-199.74 99.44,-194.15"/>
</a>
</g>
</g>
<!-- Node13 -->
<g id="Node000013" class="node">
<title>Node13</title>
<g id="a_Node000013"><a xlink:href="structMyObjectStyleCustomRed.html" target="_top" xlink:title=" ">
<polygon fill="white" stroke="#666666" points="348.5,-93 204.5,-93 204.5,-74 348.5,-74 348.5,-93"/>
<text text-anchor="middle" x="276.5" y="-81" font-family="FreeSans" font-size="10.00">MyObjectStyleCustomRed</text>
</a>
</g>
</g>
<!-- Node1&#45;&gt;Node13 -->
<g id="edge14_Node000001_Node000013" class="edge">
<title>Node1&#45;&gt;Node13</title>
<g id="a_edge14_Node000001_Node000013"><a xlink:title=" ">
<path fill="none" stroke="#63b8ff" d="M95.04,-194.71C114.74,-170.12 153.7,-126.11 197,-102.5 204.14,-98.61 212.07,-95.5 220.08,-93.03"/>
<polygon fill="#63b8ff" stroke="#63b8ff" points="92.1,-192.79 88.68,-202.82 97.61,-197.11 92.1,-192.79"/>
</a>
</g>
</g>
<!-- Node14 -->
<g id="Node000014" class="node">
<title>Node14</title>
<g id="a_Node000014"><a xlink:href="structMyStyleCustom.html" target="_top" xlink:title=" ">
<polygon fill="white" stroke="#666666" points="323.5,-56 229.5,-56 229.5,-37 323.5,-37 323.5,-56"/>
<text text-anchor="middle" x="276.5" y="-44" font-family="FreeSans" font-size="10.00">MyStyleCustom</text>
</a>
</g>
</g>
<!-- Node1&#45;&gt;Node14 -->
<g id="edge15_Node000001_Node000014" class="edge">
<title>Node1&#45;&gt;Node14</title>
<g id="a_edge15_Node000001_Node000014"><a xlink:title=" ">
<path fill="none" stroke="#63b8ff" d="M90.84,-193.72C107.57,-162.09 145.75,-98.43 197,-65.5 206.67,-59.28 218.2,-55.1 229.41,-52.29"/>
<polygon fill="#63b8ff" stroke="#63b8ff" points="87.64,-192.29 86.17,-202.78 93.86,-195.49 87.64,-192.29"/>
</a>
</g>
</g>
<!-- Node15 -->
<g id="Node000015" class="node">
<title>Node15</title>
<g id="a_Node000015"><a xlink:href="structMyStyleCustomRed.html" target="_top" xlink:title=" ">
<polygon fill="white" stroke="#666666" points="333,-19 220,-19 220,0 333,0 333,-19"/>
<text text-anchor="middle" x="276.5" y="-7" font-family="FreeSans" font-size="10.00">MyStyleCustomRed</text>
</a>
</g>
</g>
<!-- Node1&#45;&gt;Node15 -->
<g id="edge16_Node000001_Node000015" class="edge">
<title>Node1&#45;&gt;Node15</title>
<g id="a_edge16_Node000001_Node000015"><a xlink:title=" ">
<path fill="none" stroke="#63b8ff" d="M88.12,-192.79C101.96,-154.75 137.65,-71.21 197,-28.5 203.83,-23.59 211.77,-19.93 219.92,-17.22"/>
<polygon fill="#63b8ff" stroke="#63b8ff" points="84.67,-192.05 84.66,-202.64 91.28,-194.37 84.67,-192.05"/>
</a>
</g>
</g>
</g>
</svg>
