<?xml version="1.0" encoding="UTF-8" standalone="no"?>
<!DOCTYPE svg PUBLIC "-//W3C//DTD SVG 1.1//EN"
 "http://www.w3.org/Graphics/SVG/1.1/DTD/svg11.dtd">
<!-- Generated by graphviz version 2.43.0 (0)
 -->
<!-- Title: DGtal::concepts::CVector&lt; T &gt; Pages: 1 -->
<svg width="747pt" height="124pt"
 viewBox="0.00 0.00 747.00 123.50" xmlns="http://www.w3.org/2000/svg" xmlns:xlink="http://www.w3.org/1999/xlink">
<g id="graph0" class="graph" transform="scale(1 1) rotate(0) translate(4 119.5)">
<title>DGtal::concepts::CVector&lt; T &gt;</title>
<!-- Node1 -->
<g id="Node000001" class="node">
<title>Node1</title>
<g id="a_Node000001"><a xlink:title="Aim: Represent any static or dynamic sized column vector having sparse or dense representation.">
<polygon fill="#999999" stroke="#666666" points="506,-72.5 340,-72.5 340,-53.5 506,-53.5 506,-72.5"/>
<text text-anchor="middle" x="423" y="-60.5" font-family="FreeSans" font-size="10.00">DGtal::concepts::CVector&lt; T &gt;</text>
</a>
</g>
</g>
<!-- Node4 -->
<g id="Node000004" class="node">
<title>Node4</title>
<g id="a_Node000004"><a xlink:href="structDGtal_1_1concepts_1_1CDenseVector.html" target="_top" xlink:title="Aim: Represent any dynamic or static sized matrix having dense representation.">
<polygon fill="white" stroke="#666666" points="739,-115.5 542,-115.5 542,-96.5 739,-96.5 739,-115.5"/>
<text text-anchor="middle" x="640.5" y="-103.5" font-family="FreeSans" font-size="10.00">DGtal::concepts::CDenseVector&lt; T &gt;</text>
</a>
</g>
</g>
<!-- Node1&#45;&gt;Node4 -->
<g id="edge3_Node000001_Node000004" class="edge">
<title>Node1&#45;&gt;Node4</title>
<g id="a_edge3_Node000001_Node000004"><a xlink:title=" ">
<path fill="none" stroke="#63b8ff" d="M480.44,-74.58C499.94,-78.55 521.92,-83 542,-87 557.56,-90.1 574.53,-93.42 589.88,-96.41"/>
<polygon fill="#63b8ff" stroke="#63b8ff" points="481,-71.12 470.5,-72.55 479.6,-77.98 481,-71.12"/>
</a>
</g>
</g>
<!-- Node5 -->
<g id="Node000005" class="node">
<title>Node5</title>
<g id="a_Node000005"><a xlink:href="structDGtal_1_1concepts_1_1CDynamicVector.html" target="_top" xlink:title="Aim: Represent any dynamic sized column vector having sparse or dense representation.">
<polygon fill="white" stroke="#666666" points="715.5,-78 565.5,-78 565.5,-48 715.5,-48 715.5,-78"/>
<text text-anchor="start" x="573.5" y="-66" font-family="FreeSans" font-size="10.00">DGtal::concepts::CDynamic</text>
<text text-anchor="middle" x="640.5" y="-55" font-family="FreeSans" font-size="10.00">Vector&lt; T &gt;</text>
</a>
</g>
</g>
<!-- Node1&#45;&gt;Node5 -->
<g id="edge4_Node000001_Node000005" class="edge">
<title>Node1&#45;&gt;Node5</title>
<g id="a_edge4_Node000001_Node000005"><a xlink:title=" ">
<path fill="none" stroke="#63b8ff" d="M516.24,-63C532.66,-63 549.58,-63 565.42,-63"/>
<polygon fill="#63b8ff" stroke="#63b8ff" points="516.09,-59.5 506.09,-63 516.09,-66.5 516.09,-59.5"/>
</a>
</g>
</g>
<!-- Node6 -->
<g id="Node000006" class="node">
<title>Node6</title>
<g id="a_Node000006"><a xlink:href="structDGtal_1_1concepts_1_1CStaticVector.html" target="_top" xlink:title="Aim: Represent any static sized column vector having sparse or dense representation.">
<polygon fill="white" stroke="#666666" points="707.5,-30 573.5,-30 573.5,0 707.5,0 707.5,-30"/>
<text text-anchor="start" x="581.5" y="-18" font-family="FreeSans" font-size="10.00">DGtal::concepts::CStatic</text>
<text text-anchor="middle" x="640.5" y="-7" font-family="FreeSans" font-size="10.00">Vector&lt; T &gt;</text>
</a>
</g>
</g>
<!-- Node1&#45;&gt;Node6 -->
<g id="edge5_Node000001_Node000006" class="edge">
<title>Node1&#45;&gt;Node6</title>
<g id="a_edge5_Node000001_Node000006"><a xlink:title=" ">
<path fill="none" stroke="#63b8ff" d="M476.81,-51.24C505.95,-44.75 542.39,-36.63 573.4,-29.72"/>
<polygon fill="#63b8ff" stroke="#63b8ff" points="475.83,-47.87 466.83,-53.46 477.36,-54.7 475.83,-47.87"/>
</a>
</g>
</g>
<!-- Node2 -->
<g id="Node000002" class="node">
<title>Node2</title>
<g id="a_Node000002"><a xlink:href="structDGtal_1_1concepts_1_1CVectorSpace.html" target="_top" xlink:title="Aim: Base concept for vector space structure.">
<polygon fill="white" stroke="#666666" points="304,-78 167,-78 167,-48 304,-48 304,-78"/>
<text text-anchor="start" x="175" y="-66" font-family="FreeSans" font-size="10.00">DGtal::concepts::CVector</text>
<text text-anchor="middle" x="235.5" y="-55" font-family="FreeSans" font-size="10.00">Space&lt; T &gt;</text>
</a>
</g>
</g>
<!-- Node2&#45;&gt;Node1 -->
<g id="edge1_Node000001_Node000002" class="edge">
<title>Node2&#45;&gt;Node1</title>
<g id="a_edge1_Node000001_Node000002"><a xlink:title=" ">
<path fill="none" stroke="#63b8ff" d="M314.43,-63C322.86,-63 331.45,-63 339.92,-63"/>
<polygon fill="#63b8ff" stroke="#63b8ff" points="314.26,-59.5 304.26,-63 314.26,-66.5 314.26,-59.5"/>
</a>
</g>
</g>
<!-- Node3 -->
<g id="Node000003" class="node">
<title>Node3</title>
<g id="a_Node000003"><a xlink:href="structboost_1_1Assignable.html" target="_top" xlink:title="Go to http://www.sgi.com/tech/stl/Assignable.html.">
<polygon fill="white" stroke="#666666" points="131,-72.5 0,-72.5 0,-53.5 131,-53.5 131,-72.5"/>
<text text-anchor="middle" x="65.5" y="-60.5" font-family="FreeSans" font-size="10.00">boost::Assignable&lt; T &gt;</text>
</a>
</g>
</g>
<!-- Node3&#45;&gt;Node2 -->
<g id="edge2_Node000002_Node000003" class="edge">
<title>Node3&#45;&gt;Node2</title>
<g id="a_edge2_Node000002_Node000003"><a xlink:title=" ">
<path fill="none" stroke="#63b8ff" d="M141.65,-63C150.07,-63 158.62,-63 166.94,-63"/>
<polygon fill="#63b8ff" stroke="#63b8ff" points="141.45,-59.5 131.45,-63 141.45,-66.5 141.45,-59.5"/>
</a>
</g>
</g>
</g>
</svg>
