<?xml version="1.0" encoding="UTF-8" standalone="no"?>
<!DOCTYPE svg PUBLIC "-//W3C//DTD SVG 1.1//EN"
 "http://www.w3.org/Graphics/SVG/1.1/DTD/svg11.dtd">
<!-- Generated by graphviz version 2.43.0 (0)
 -->
<!-- Title: DGtal::Splitter&lt; TElement, TWord &gt; Pages: 1 -->
<svg width="451pt" height="116pt"
 viewBox="0.00 0.00 451.00 115.50" xmlns="http://www.w3.org/2000/svg" xmlns:xlink="http://www.w3.org/1999/xlink">
<g id="graph0" class="graph" transform="scale(1 1) rotate(0) translate(4 111.5)">
<title>DGtal::Splitter&lt; TElement, TWord &gt;</title>
<polygon fill="white" stroke="transparent" points="-4,4 -4,-111.5 447,-111.5 447,4 -4,4"/>
<!-- Node1 -->
<g id="node1" class="node">
<title>Node1</title>
<g id="a_node1"><a xlink:title=" ">
<polygon fill="#bfbfbf" stroke="black" points="0,-33 0,-63 146,-63 146,-33 0,-33"/>
<text text-anchor="start" x="8" y="-51" font-family="FreeSans" font-size="10.00">DGtal::Splitter&lt; TElement,</text>
<text text-anchor="middle" x="73" y="-40" font-family="FreeSans" font-size="10.00"> TWord &gt;</text>
</a>
</g>
</g>
<!-- Node2 -->
<g id="node2" class="node">
<title>Node2</title>
<g id="a_node2"><a xlink:href="structDGtal_1_1Splitter.html" target="_top" xlink:title=" ">
<polygon fill="white" stroke="black" points="288,-77 288,-107 443,-107 443,-77 288,-77"/>
<text text-anchor="start" x="296" y="-95" font-family="FreeSans" font-size="10.00">DGtal::Splitter&lt; PointVector</text>
<text text-anchor="middle" x="365.5" y="-84" font-family="FreeSans" font-size="10.00">&lt; dim, Integer &gt;, uint64_t &gt;</text>
</a>
</g>
</g>
<!-- Node1&#45;&gt;Node2 -->
<g id="edge1" class="edge">
<title>Node1&#45;&gt;Node2</title>
<path fill="none" stroke="orange" stroke-dasharray="5,2" d="M156.3,-61.79C158.89,-62.2 161.47,-62.61 164,-63 204.83,-69.36 250.42,-75.99 287.8,-81.3"/>
<polygon fill="orange" stroke="orange" points="156.62,-58.3 146.19,-60.17 155.51,-65.21 156.62,-58.3"/>
<text text-anchor="start" x="164" y="-92" font-family="FreeSans" font-size="10.00"> &lt; PointVector&lt; dim,</text>
<text text-anchor="middle" x="217" y="-81" font-family="FreeSans" font-size="10.00"> Integer &gt;, uint64_t &gt;</text>
</g>
<!-- Node3 -->
<g id="node3" class="node">
<title>Node3</title>
<g id="a_node3"><a xlink:href="structDGtal_1_1Splitter.html" target="_top" xlink:title=" ">
<polygon fill="white" stroke="black" points="302.5,-38.5 302.5,-57.5 428.5,-57.5 428.5,-38.5 302.5,-38.5"/>
<text text-anchor="middle" x="365.5" y="-45.5" font-family="FreeSans" font-size="10.00">DGtal::Splitter&lt; Key &gt;</text>
</a>
</g>
</g>
<!-- Node1&#45;&gt;Node3 -->
<g id="edge2" class="edge">
<title>Node1&#45;&gt;Node3</title>
<path fill="none" stroke="orange" stroke-dasharray="5,2" d="M156.19,-48C202.5,-48 259.42,-48 302.05,-48"/>
<polygon fill="orange" stroke="orange" points="156.18,-44.5 146.18,-48 156.18,-51.5 156.18,-44.5"/>
<text text-anchor="middle" x="217" y="-51" font-family="FreeSans" font-size="10.00"> &lt; Key &gt;</text>
</g>
<!-- Node4 -->
<g id="node4" class="node">
<title>Node4</title>
<g id="a_node4"><a xlink:href="structDGtal_1_1Splitter.html" target="_top" xlink:title=" ">
<polygon fill="white" stroke="black" points="299,-0.5 299,-19.5 432,-19.5 432,-0.5 299,-0.5"/>
<text text-anchor="middle" x="365.5" y="-7.5" font-family="FreeSans" font-size="10.00">DGtal::Splitter&lt; Point &gt;</text>
</a>
</g>
</g>
<!-- Node1&#45;&gt;Node4 -->
<g id="edge3" class="edge">
<title>Node1&#45;&gt;Node4</title>
<path fill="none" stroke="orange" stroke-dasharray="5,2" d="M156.28,-34.11C158.88,-33.73 161.46,-33.36 164,-33 208.93,-26.68 259.71,-20.87 298.93,-16.67"/>
<polygon fill="orange" stroke="orange" points="155.53,-30.69 146.16,-35.64 156.57,-37.61 155.53,-30.69"/>
<text text-anchor="middle" x="217" y="-36" font-family="FreeSans" font-size="10.00"> &lt; Point &gt;</text>
</g>
</g>
</svg>
