<?xml version="1.0" encoding="UTF-8" standalone="no"?>
<!DOCTYPE svg PUBLIC "-//W3C//DTD SVG 1.1//EN"
 "http://www.w3.org/Graphics/SVG/1.1/DTD/svg11.dtd">
<!-- Generated by graphviz version 2.43.0 (0)
 -->
<!-- Title: DGtal::NumberTraitsImpl&lt; T, Enable &gt; Pages: 1 -->
<svg width="844pt" height="230pt"
 viewBox="0.00 0.00 844.00 229.50" xmlns="http://www.w3.org/2000/svg" xmlns:xlink="http://www.w3.org/1999/xlink">
<g id="graph0" class="graph" transform="scale(1 1) rotate(0) translate(4 225.5)">
<title>DGtal::NumberTraitsImpl&lt; T, Enable &gt;</title>
<!-- Node1 -->
<g id="Node000001" class="node">
<title>Node1</title>
<g id="a_Node000001"><a xlink:title="Aim: The traits class for all models of Cinteger (implementation)">
<polygon fill="#999999" stroke="#666666" points="137,-143.5 0,-143.5 0,-113.5 137,-113.5 137,-143.5"/>
<text text-anchor="start" x="8" y="-131.5" font-family="FreeSans" font-size="10.00">DGtal::NumberTraitsImpl</text>
<text text-anchor="middle" x="68.5" y="-120.5" font-family="FreeSans" font-size="10.00">&lt; T, Enable &gt;</text>
</a>
</g>
</g>
<!-- Node2 -->
<g id="Node000002" class="node">
<title>Node2</title>
<g id="a_Node000002"><a xlink:href="structDGtal_1_1NumberTraits.html" target="_top" xlink:title=" ">
<polygon fill="white" stroke="#666666" points="836,-221.5 720,-221.5 720,-191.5 836,-191.5 836,-221.5"/>
<text text-anchor="start" x="728" y="-209.5" font-family="FreeSans" font-size="10.00">DGtal::NumberTraits</text>
<text text-anchor="middle" x="778" y="-198.5" font-family="FreeSans" font-size="10.00">&lt; Integer &gt;</text>
</a>
</g>
</g>
<!-- Node1&#45;&gt;Node2 -->
<g id="edge1_Node000001_Node000002" class="edge">
<title>Node1&#45;&gt;Node2</title>
<g id="a_edge1_Node000001_Node000002"><a xlink:title=" ">
<path fill="none" stroke="#63b8ff" d="M94.66,-149.84C110.81,-162.25 132.85,-176.9 155,-184.5 209.6,-203.24 445.82,-204.21 635,-207.5 662.98,-207.99 694.06,-207.84 719.99,-207.54"/>
<polygon fill="#63b8ff" stroke="#63b8ff" points="96.79,-147.06 86.78,-143.6 92.45,-152.55 96.79,-147.06"/>
</a>
</g>
</g>
<!-- Node3 -->
<g id="Node000003" class="node">
<title>Node3</title>
<g id="a_Node000003"><a xlink:href="structDGtal_1_1NumberTraits.html" target="_top" xlink:title=" ">
<polygon fill="white" stroke="#666666" points="836,-164.5 720,-164.5 720,-134.5 836,-134.5 836,-164.5"/>
<text text-anchor="start" x="728" y="-152.5" font-family="FreeSans" font-size="10.00">DGtal::NumberTraits</text>
<text text-anchor="middle" x="778" y="-141.5" font-family="FreeSans" font-size="10.00">&lt; TInteger &gt;</text>
</a>
</g>
</g>
<!-- Node1&#45;&gt;Node3 -->
<g id="edge2_Node000001_Node000003" class="edge">
<title>Node1&#45;&gt;Node3</title>
<g id="a_edge2_Node000001_Node000003"><a xlink:title=" ">
<path fill="none" stroke="#63b8ff" d="M147.05,-130.8C290.35,-135.06 593.46,-144.05 719.82,-147.8"/>
<polygon fill="#63b8ff" stroke="#63b8ff" points="147.12,-127.3 137.02,-130.5 146.91,-134.3 147.12,-127.3"/>
</a>
</g>
</g>
<!-- Node4 -->
<g id="Node000004" class="node">
<title>Node4</title>
<g id="a_Node000004"><a xlink:href="structDGtal_1_1NumberTraitsImpl.html" target="_top" xlink:title=" ">
<polygon fill="white" stroke="#666666" points="436,-186.5 290,-186.5 290,-156.5 436,-156.5 436,-186.5"/>
<text text-anchor="start" x="298" y="-174.5" font-family="FreeSans" font-size="10.00">DGtal::NumberTraitsImpl</text>
<text text-anchor="middle" x="363" y="-163.5" font-family="FreeSans" font-size="10.00">&lt; std::decay&lt; T &gt;::type &gt;</text>
</a>
</g>
</g>
<!-- Node1&#45;&gt;Node4 -->
<g id="edge3_Node000001_Node000004" class="edge">
<title>Node1&#45;&gt;Node4</title>
<g id="a_edge3_Node000001_Node000004"><a xlink:title=" ">
<path fill="none" stroke="orange" stroke-dasharray="5,2" d="M147.28,-141.31C149.88,-141.72 152.46,-142.11 155,-142.5 199.67,-149.28 249.85,-156.33 289.61,-161.78"/>
<polygon fill="orange" stroke="orange" points="147.57,-137.82 137.15,-139.73 146.49,-144.73 147.57,-137.82"/>
</a>
</g>
<text text-anchor="start" x="163.5" y="-172.5" font-family="FreeSans" font-size="10.00" fill="grey"> &lt; std::decay&lt; T &gt;::</text>
<text text-anchor="middle" x="213.5" y="-161.5" font-family="FreeSans" font-size="10.00" fill="grey">type &gt;</text>
</g>
<!-- Node6 -->
<g id="Node000006" class="node">
<title>Node6</title>
<g id="a_Node000006"><a xlink:href="structDGtal_1_1NumberTraitsImpl.html" target="_top" xlink:title=" ">
<polygon fill="white" stroke="#666666" points="431.5,-100 294.5,-100 294.5,-59 431.5,-59 431.5,-100"/>
<text text-anchor="start" x="302.5" y="-88" font-family="FreeSans" font-size="10.00">DGtal::NumberTraitsImpl</text>
<text text-anchor="start" x="302.5" y="-77" font-family="FreeSans" font-size="10.00">&lt; std::decay&lt; Integer</text>
<text text-anchor="middle" x="363" y="-66" font-family="FreeSans" font-size="10.00"> &gt;::type &gt;</text>
</a>
</g>
</g>
<!-- Node1&#45;&gt;Node6 -->
<g id="edge7_Node000001_Node000006" class="edge">
<title>Node1&#45;&gt;Node6</title>
<g id="a_edge7_Node000001_Node000006"><a xlink:title=" ">
<path fill="none" stroke="orange" stroke-dasharray="5,2" d="M107.5,-109.27C122.01,-102.8 138.92,-96.27 155,-92.5 200.57,-81.8 253.24,-78.61 294.04,-78.07"/>
<polygon fill="orange" stroke="orange" points="105.98,-106.12 98.36,-113.48 108.9,-112.48 105.98,-106.12"/>
</a>
</g>
<text text-anchor="start" x="158" y="-106.5" font-family="FreeSans" font-size="10.00" fill="grey"> &lt; std::decay&lt; Integer</text>
<text text-anchor="middle" x="213.5" y="-95.5" font-family="FreeSans" font-size="10.00" fill="grey"> &gt;::type &gt;</text>
</g>
<!-- Node7 -->
<g id="Node000007" class="node">
<title>Node7</title>
<g id="a_Node000007"><a xlink:href="structDGtal_1_1NumberTraitsImpl.html" target="_top" xlink:title=" ">
<polygon fill="white" stroke="#666666" points="431.5,-41 294.5,-41 294.5,0 431.5,0 431.5,-41"/>
<text text-anchor="start" x="302.5" y="-29" font-family="FreeSans" font-size="10.00">DGtal::NumberTraitsImpl</text>
<text text-anchor="start" x="302.5" y="-18" font-family="FreeSans" font-size="10.00">&lt; std::decay&lt; TInteger</text>
<text text-anchor="middle" x="363" y="-7" font-family="FreeSans" font-size="10.00"> &gt;::type &gt;</text>
</a>
</g>
</g>
<!-- Node1&#45;&gt;Node7 -->
<g id="edge8_Node000001_Node000007" class="edge">
<title>Node1&#45;&gt;Node7</title>
<g id="a_edge8_Node000001_Node000007"><a xlink:title=" ">
<path fill="none" stroke="orange" stroke-dasharray="5,2" d="M88.3,-105.81C104.18,-88.28 128.51,-64.97 155,-52.5 198.59,-31.98 252.51,-24.13 294.39,-21.33"/>
<polygon fill="orange" stroke="orange" points="85.6,-103.58 81.62,-113.4 90.86,-108.21 85.6,-103.58"/>
</a>
</g>
<text text-anchor="start" x="155" y="-66.5" font-family="FreeSans" font-size="10.00" fill="grey"> &lt; std::decay&lt; TInteger</text>
<text text-anchor="middle" x="213.5" y="-55.5" font-family="FreeSans" font-size="10.00" fill="grey"> &gt;::type &gt;</text>
</g>
<!-- Node5 -->
<g id="Node000005" class="node">
<title>Node5</title>
<g id="a_Node000005"><a xlink:href="structDGtal_1_1NumberTraits.html" target="_top" xlink:title="Aim: The traits class for all models of Cinteger.">
<polygon fill="white" stroke="#666666" points="617,-181 473,-181 473,-162 617,-162 617,-181"/>
<text text-anchor="middle" x="545" y="-169" font-family="FreeSans" font-size="10.00">DGtal::NumberTraits&lt; T &gt;</text>
</a>
</g>
</g>
<!-- Node4&#45;&gt;Node5 -->
<g id="edge4_Node000004_Node000005" class="edge">
<title>Node4&#45;&gt;Node5</title>
<g id="a_edge4_Node000004_Node000005"><a xlink:title=" ">
<path fill="none" stroke="#63b8ff" d="M446.21,-171.5C455.15,-171.5 464.19,-171.5 472.98,-171.5"/>
<polygon fill="#63b8ff" stroke="#63b8ff" points="446.18,-168 436.18,-171.5 446.18,-175 446.18,-168"/>
</a>
</g>
</g>
<!-- Node5&#45;&gt;Node2 -->
<g id="edge5_Node000005_Node000002" class="edge">
<title>Node5&#45;&gt;Node2</title>
<g id="a_edge5_Node000005_Node000002"><a xlink:title=" ">
<path fill="none" stroke="orange" stroke-dasharray="5,2" d="M618.75,-182.52C651.33,-187.46 689.21,-193.2 719.73,-197.82"/>
<polygon fill="orange" stroke="orange" points="619.23,-179.06 608.82,-181.02 618.18,-185.98 619.23,-179.06"/>
</a>
</g>
<text text-anchor="middle" x="668.5" y="-196.5" font-family="FreeSans" font-size="10.00" fill="grey"> &lt; Integer &gt;</text>
</g>
<!-- Node5&#45;&gt;Node3 -->
<g id="edge6_Node000005_Node000003" class="edge">
<title>Node5&#45;&gt;Node3</title>
<g id="a_edge6_Node000005_Node000003"><a xlink:title=" ">
<path fill="none" stroke="orange" stroke-dasharray="5,2" d="M627.39,-163.24C629.96,-162.99 632.5,-162.74 635,-162.5 662.97,-159.81 694.05,-156.95 719.99,-154.6"/>
<polygon fill="orange" stroke="orange" points="627.01,-159.76 617.4,-164.22 627.7,-166.72 627.01,-159.76"/>
</a>
</g>
<text text-anchor="middle" x="668.5" y="-165.5" font-family="FreeSans" font-size="10.00" fill="grey"> &lt; TInteger &gt;</text>
</g>
</g>
</svg>
