<?xml version="1.0" encoding="UTF-8" standalone="no"?>
<!DOCTYPE svg PUBLIC "-//W3C//DTD SVG 1.1//EN"
 "http://www.w3.org/Graphics/SVG/1.1/DTD/svg11.dtd">
<!-- Generated by graphviz version 2.43.0 (0)
 -->
<!-- Title: DGtal::concepts::CVectorSpace&lt; T &gt; Pages: 1 -->
<svg width="766pt" height="306pt"
 viewBox="0.00 0.00 766.00 305.50" xmlns="http://www.w3.org/2000/svg" xmlns:xlink="http://www.w3.org/1999/xlink">
<g id="graph0" class="graph" transform="scale(1 1) rotate(0) translate(4 301.5)">
<title>DGtal::concepts::CVectorSpace&lt; T &gt;</title>
<!-- Node1 -->
<g id="Node000001" class="node">
<title>Node1</title>
<g id="a_Node000001"><a xlink:title="Aim: Base concept for vector space structure.">
<polygon fill="#999999" stroke="#666666" points="304,-212 167,-212 167,-182 304,-182 304,-212"/>
<text text-anchor="start" x="175" y="-200" font-family="FreeSans" font-size="10.00">DGtal::concepts::CVector</text>
<text text-anchor="middle" x="235.5" y="-189" font-family="FreeSans" font-size="10.00">Space&lt; T &gt;</text>
</a>
</g>
</g>
<!-- Node3 -->
<g id="Node000003" class="node">
<title>Node3</title>
<g id="a_Node000003"><a xlink:href="structDGtal_1_1concepts_1_1CDiscreteExteriorCalculusVectorSpace.html" target="_top" xlink:title="Aim: Lift linear algebra container concept into the dec package.">
<polygon fill="white" stroke="#666666" points="525,-255 340,-255 340,-225 525,-225 525,-255"/>
<text text-anchor="start" x="348" y="-243" font-family="FreeSans" font-size="10.00">DGtal::concepts::CDiscrete</text>
<text text-anchor="middle" x="432.5" y="-232" font-family="FreeSans" font-size="10.00">ExteriorCalculusVectorSpace&lt; T &gt;</text>
</a>
</g>
</g>
<!-- Node1&#45;&gt;Node3 -->
<g id="edge2_Node000001_Node000003" class="edge">
<title>Node1&#45;&gt;Node3</title>
<g id="a_edge2_Node000001_Node000003"><a xlink:title=" ">
<path fill="none" stroke="#63b8ff" d="M314.16,-214.12C330.41,-217.71 347.43,-221.46 363.3,-224.96"/>
<polygon fill="#63b8ff" stroke="#63b8ff" points="314.67,-210.65 304.15,-211.92 313.17,-217.49 314.67,-210.65"/>
</a>
</g>
</g>
<!-- Node4 -->
<g id="Node000004" class="node">
<title>Node4</title>
<g id="a_Node000004"><a xlink:href="structDGtal_1_1concepts_1_1CMatrix.html" target="_top" xlink:title="Aim: Represent any static or dynamic sized matrix having sparse or dense representation.">
<polygon fill="white" stroke="#666666" points="516,-206.5 349,-206.5 349,-187.5 516,-187.5 516,-206.5"/>
<text text-anchor="middle" x="432.5" y="-194.5" font-family="FreeSans" font-size="10.00">DGtal::concepts::CMatrix&lt; T &gt;</text>
</a>
</g>
</g>
<!-- Node1&#45;&gt;Node4 -->
<g id="edge3_Node000001_Node000004" class="edge">
<title>Node1&#45;&gt;Node4</title>
<g id="a_edge3_Node000001_Node000004"><a xlink:title=" ">
<path fill="none" stroke="#63b8ff" d="M314.43,-197C325.74,-197 337.43,-197 348.84,-197"/>
<polygon fill="#63b8ff" stroke="#63b8ff" points="314.15,-193.5 304.15,-197 314.15,-200.5 314.15,-193.5"/>
</a>
</g>
</g>
<!-- Node9 -->
<g id="Node000009" class="node">
<title>Node9</title>
<g id="a_Node000009"><a xlink:href="structDGtal_1_1concepts_1_1CVector.html" target="_top" xlink:title="Aim: Represent any static or dynamic sized column vector having sparse or dense representation.">
<polygon fill="white" stroke="#666666" points="515.5,-94.5 349.5,-94.5 349.5,-75.5 515.5,-75.5 515.5,-94.5"/>
<text text-anchor="middle" x="432.5" y="-82.5" font-family="FreeSans" font-size="10.00">DGtal::concepts::CVector&lt; T &gt;</text>
</a>
</g>
</g>
<!-- Node1&#45;&gt;Node9 -->
<g id="edge8_Node000001_Node000009" class="edge">
<title>Node1&#45;&gt;Node9</title>
<g id="a_edge8_Node000001_Node000009"><a xlink:title=" ">
<path fill="none" stroke="#63b8ff" d="M271.64,-176.82C313.91,-152.54 383.11,-112.79 414.76,-94.62"/>
<polygon fill="#63b8ff" stroke="#63b8ff" points="269.73,-173.88 262.8,-181.9 273.21,-179.95 269.73,-173.88"/>
</a>
</g>
</g>
<!-- Node2 -->
<g id="Node000002" class="node">
<title>Node2</title>
<g id="a_Node000002"><a xlink:href="structboost_1_1Assignable.html" target="_top" xlink:title="Go to http://www.sgi.com/tech/stl/Assignable.html.">
<polygon fill="white" stroke="#666666" points="131,-206.5 0,-206.5 0,-187.5 131,-187.5 131,-206.5"/>
<text text-anchor="middle" x="65.5" y="-194.5" font-family="FreeSans" font-size="10.00">boost::Assignable&lt; T &gt;</text>
</a>
</g>
</g>
<!-- Node2&#45;&gt;Node1 -->
<g id="edge1_Node000001_Node000002" class="edge">
<title>Node2&#45;&gt;Node1</title>
<g id="a_edge1_Node000001_Node000002"><a xlink:title=" ">
<path fill="none" stroke="#63b8ff" d="M141.65,-197C150.07,-197 158.62,-197 166.94,-197"/>
<polygon fill="#63b8ff" stroke="#63b8ff" points="141.45,-193.5 131.45,-197 141.45,-200.5 141.45,-193.5"/>
</a>
</g>
</g>
<!-- Node5 -->
<g id="Node000005" class="node">
<title>Node5</title>
<g id="a_Node000005"><a xlink:href="structDGtal_1_1concepts_1_1CDenseMatrix.html" target="_top" xlink:title="Aim: Represent any dynamic or static sized matrix having dense representation.">
<polygon fill="white" stroke="#666666" points="758,-297.5 561,-297.5 561,-278.5 758,-278.5 758,-297.5"/>
<text text-anchor="middle" x="659.5" y="-285.5" font-family="FreeSans" font-size="10.00">DGtal::concepts::CDenseMatrix&lt; T &gt;</text>
</a>
</g>
</g>
<!-- Node4&#45;&gt;Node5 -->
<g id="edge4_Node000004_Node000005" class="edge">
<title>Node4&#45;&gt;Node5</title>
<g id="a_edge4_Node000004_Node000005"><a xlink:title=" ">
<path fill="none" stroke="#63b8ff" d="M515.28,-210.45C518.66,-212.1 521.92,-213.94 525,-216 548.67,-231.83 537.23,-253.32 561,-269 566.76,-272.8 573.1,-275.88 579.69,-278.36"/>
<polygon fill="#63b8ff" stroke="#63b8ff" points="516.65,-207.23 506.08,-206.52 513.9,-213.66 516.65,-207.23"/>
</a>
</g>
</g>
<!-- Node6 -->
<g id="Node000006" class="node">
<title>Node6</title>
<g id="a_Node000006"><a xlink:href="structDGtal_1_1concepts_1_1CDynamicMatrix.html" target="_top" xlink:title="Aim: Represent any dynamic sized matrix having sparse or dense representation.">
<polygon fill="white" stroke="#666666" points="734.5,-260 584.5,-260 584.5,-230 734.5,-230 734.5,-260"/>
<text text-anchor="start" x="592.5" y="-248" font-family="FreeSans" font-size="10.00">DGtal::concepts::CDynamic</text>
<text text-anchor="middle" x="659.5" y="-237" font-family="FreeSans" font-size="10.00">Matrix&lt; T &gt;</text>
</a>
</g>
</g>
<!-- Node4&#45;&gt;Node6 -->
<g id="edge5_Node000004_Node000006" class="edge">
<title>Node4&#45;&gt;Node6</title>
<g id="a_edge5_Node000004_Node000006"><a xlink:title=" ">
<path fill="none" stroke="#63b8ff" d="M490.06,-208.66C501.62,-211.07 513.71,-213.6 525,-216 546.11,-220.48 569.08,-225.45 589.92,-229.98"/>
<polygon fill="#63b8ff" stroke="#63b8ff" points="490.57,-205.19 480.07,-206.58 489.14,-212.04 490.57,-205.19"/>
</a>
</g>
</g>
<!-- Node7 -->
<g id="Node000007" class="node">
<title>Node7</title>
<g id="a_Node000007"><a xlink:href="structDGtal_1_1concepts_1_1CSparseMatrix.html" target="_top" xlink:title="Aim: Represent any dynamic or static sized matrix having sparse representation.">
<polygon fill="white" stroke="#666666" points="737,-212 582,-212 582,-182 737,-182 737,-212"/>
<text text-anchor="start" x="590" y="-200" font-family="FreeSans" font-size="10.00">DGtal::concepts::CSparse</text>
<text text-anchor="middle" x="659.5" y="-189" font-family="FreeSans" font-size="10.00">Matrix&lt; T, TripletInterator &gt;</text>
</a>
</g>
</g>
<!-- Node4&#45;&gt;Node7 -->
<g id="edge6_Node000004_Node000007" class="edge">
<title>Node4&#45;&gt;Node7</title>
<g id="a_edge6_Node000004_Node000007"><a xlink:title=" ">
<path fill="none" stroke="#63b8ff" d="M526.22,-197C544.77,-197 564.06,-197 581.98,-197"/>
<polygon fill="#63b8ff" stroke="#63b8ff" points="526,-193.5 516,-197 526,-200.5 526,-193.5"/>
</a>
</g>
</g>
<!-- Node8 -->
<g id="Node000008" class="node">
<title>Node8</title>
<g id="a_Node000008"><a xlink:href="structDGtal_1_1concepts_1_1CStaticMatrix.html" target="_top" xlink:title="Aim: Represent any static sized matrix having sparse or dense representation.">
<polygon fill="white" stroke="#666666" points="726.5,-164 592.5,-164 592.5,-134 726.5,-134 726.5,-164"/>
<text text-anchor="start" x="600.5" y="-152" font-family="FreeSans" font-size="10.00">DGtal::concepts::CStatic</text>
<text text-anchor="middle" x="659.5" y="-141" font-family="FreeSans" font-size="10.00">Matrix&lt; T &gt;</text>
</a>
</g>
</g>
<!-- Node4&#45;&gt;Node8 -->
<g id="edge7_Node000004_Node000008" class="edge">
<title>Node4&#45;&gt;Node8</title>
<g id="a_edge7_Node000004_Node000008"><a xlink:title=" ">
<path fill="none" stroke="#63b8ff" d="M488.09,-185.36C519.41,-178.67 558.98,-170.23 592.1,-163.16"/>
<polygon fill="#63b8ff" stroke="#63b8ff" points="487.27,-181.95 478.22,-187.46 488.73,-188.8 487.27,-181.95"/>
</a>
</g>
</g>
<!-- Node10 -->
<g id="Node000010" class="node">
<title>Node10</title>
<g id="a_Node000010"><a xlink:href="structDGtal_1_1concepts_1_1CDenseVector.html" target="_top" xlink:title="Aim: Represent any dynamic or static sized matrix having dense representation.">
<polygon fill="white" stroke="#666666" points="758,-115.5 561,-115.5 561,-96.5 758,-96.5 758,-115.5"/>
<text text-anchor="middle" x="659.5" y="-103.5" font-family="FreeSans" font-size="10.00">DGtal::concepts::CDenseVector&lt; T &gt;</text>
</a>
</g>
</g>
<!-- Node9&#45;&gt;Node10 -->
<g id="edge9_Node000009_Node000010" class="edge">
<title>Node9&#45;&gt;Node10</title>
<g id="a_edge9_Node000009_Node000010"><a xlink:title=" ">
<path fill="none" stroke="#63b8ff" d="M525.77,-93.61C537.35,-94.69 549.22,-95.8 560.88,-96.89"/>
<polygon fill="#63b8ff" stroke="#63b8ff" points="525.97,-90.12 515.69,-92.67 525.32,-97.08 525.97,-90.12"/>
</a>
</g>
</g>
<!-- Node11 -->
<g id="Node000011" class="node">
<title>Node11</title>
<g id="a_Node000011"><a xlink:href="structDGtal_1_1concepts_1_1CDynamicVector.html" target="_top" xlink:title="Aim: Represent any dynamic sized column vector having sparse or dense representation.">
<polygon fill="white" stroke="#666666" points="734.5,-78 584.5,-78 584.5,-48 734.5,-48 734.5,-78"/>
<text text-anchor="start" x="592.5" y="-66" font-family="FreeSans" font-size="10.00">DGtal::concepts::CDynamic</text>
<text text-anchor="middle" x="659.5" y="-55" font-family="FreeSans" font-size="10.00">Vector&lt; T &gt;</text>
</a>
</g>
</g>
<!-- Node9&#45;&gt;Node11 -->
<g id="edge10_Node000009_Node000011" class="edge">
<title>Node9&#45;&gt;Node11</title>
<g id="a_edge10_Node000009_Node000011"><a xlink:title=" ">
<path fill="none" stroke="#63b8ff" d="M525.79,-75.98C545.3,-74.07 565.64,-72.08 584.36,-70.25"/>
<polygon fill="#63b8ff" stroke="#63b8ff" points="525.3,-72.51 515.69,-76.96 525.98,-79.47 525.3,-72.51"/>
</a>
</g>
</g>
<!-- Node12 -->
<g id="Node000012" class="node">
<title>Node12</title>
<g id="a_Node000012"><a xlink:href="structDGtal_1_1concepts_1_1CStaticVector.html" target="_top" xlink:title="Aim: Represent any static sized column vector having sparse or dense representation.">
<polygon fill="white" stroke="#666666" points="726.5,-30 592.5,-30 592.5,0 726.5,0 726.5,-30"/>
<text text-anchor="start" x="600.5" y="-18" font-family="FreeSans" font-size="10.00">DGtal::concepts::CStatic</text>
<text text-anchor="middle" x="659.5" y="-7" font-family="FreeSans" font-size="10.00">Vector&lt; T &gt;</text>
</a>
</g>
</g>
<!-- Node9&#45;&gt;Node12 -->
<g id="edge11_Node000009_Node000012" class="edge">
<title>Node9&#45;&gt;Node12</title>
<g id="a_edge11_Node000009_Node000012"><a xlink:title=" ">
<path fill="none" stroke="#63b8ff" d="M467.26,-71.72C492.77,-61.96 528.79,-48.75 561,-39 571.34,-35.87 582.4,-32.85 593.21,-30.07"/>
<polygon fill="#63b8ff" stroke="#63b8ff" points="465.76,-68.55 457.69,-75.41 468.28,-75.08 465.76,-68.55"/>
</a>
</g>
</g>
</g>
</svg>
