<?xml version="1.0" encoding="UTF-8" standalone="no"?>
<!DOCTYPE svg PUBLIC "-//W3C//DTD SVG 1.1//EN"
 "http://www.w3.org/Graphics/SVG/1.1/DTD/svg11.dtd">
<!-- Generated by graphviz version 2.43.0 (0)
 -->
<!-- Title: DGtal::concepts::CTrivialConstImage&lt; I &gt; Pages: 1 -->
<svg width="2021pt" height="124pt"
 viewBox="0.00 0.00 2021.00 124.00" xmlns="http://www.w3.org/2000/svg" xmlns:xlink="http://www.w3.org/1999/xlink">
<g id="graph0" class="graph" transform="scale(1 1) rotate(0) translate(4 120)">
<title>DGtal::concepts::CTrivialConstImage&lt; I &gt;</title>
<!-- Node1 -->
<g id="Node000001" class="node">
<title>Node1</title>
<g id="a_Node000001"><a xlink:title="Aim: Defines the concept describing a read&#45;only image, which is a refinement of CPointFunctor.">
<polygon fill="#999999" stroke="#666666" points="1585,-51 1449,-51 1449,-21 1585,-21 1585,-51"/>
<text text-anchor="start" x="1457" y="-39" font-family="FreeSans" font-size="10.00">DGtal::concepts::CTrivial</text>
<text text-anchor="middle" x="1517" y="-28" font-family="FreeSans" font-size="10.00">ConstImage&lt; I &gt;</text>
</a>
</g>
</g>
<!-- Node10 -->
<g id="Node000010" class="node">
<title>Node10</title>
<g id="a_Node000010"><a xlink:href="structDGtal_1_1concepts_1_1CConstImage.html" target="_top" xlink:title="Aim: Defines the concept describing a read&#45;only image, which is a refinement of CPointFunctor.">
<polygon fill="white" stroke="#666666" points="1813,-67.5 1622,-67.5 1622,-48.5 1813,-48.5 1813,-67.5"/>
<text text-anchor="middle" x="1717.5" y="-55.5" font-family="FreeSans" font-size="10.00">DGtal::concepts::CConstImage&lt; I &gt;</text>
</a>
</g>
</g>
<!-- Node1&#45;&gt;Node10 -->
<g id="edge10_Node000001_Node000010" class="edge">
<title>Node1&#45;&gt;Node10</title>
<g id="a_edge10_Node000001_Node000010"><a xlink:title=" ">
<path fill="none" stroke="#63b8ff" d="M1595.28,-44.57C1606.9,-45.85 1618.94,-47.19 1630.72,-48.49"/>
<polygon fill="#63b8ff" stroke="#63b8ff" points="1595.53,-41.07 1585.2,-43.45 1594.76,-48.03 1595.53,-41.07"/>
</a>
</g>
</g>
<!-- Node12 -->
<g id="Node000012" class="node">
<title>Node12</title>
<g id="a_Node000012"><a xlink:href="structDGtal_1_1concepts_1_1CTrivialImage.html" target="_top" xlink:title="Aim: Defines the concept describing an image without extra ranges, which is a refinement of CTrivialC...">
<polygon fill="white" stroke="#666666" points="1785.5,-30 1649.5,-30 1649.5,0 1785.5,0 1785.5,-30"/>
<text text-anchor="start" x="1657.5" y="-18" font-family="FreeSans" font-size="10.00">DGtal::concepts::CTrivial</text>
<text text-anchor="middle" x="1717.5" y="-7" font-family="FreeSans" font-size="10.00">Image&lt; I &gt;</text>
</a>
</g>
</g>
<!-- Node1&#45;&gt;Node12 -->
<g id="edge12_Node000001_Node000012" class="edge">
<title>Node1&#45;&gt;Node12</title>
<g id="a_edge12_Node000001_Node000012"><a xlink:title=" ">
<path fill="none" stroke="#63b8ff" d="M1595.54,-27.8C1613.32,-25.92 1632.07,-23.93 1649.37,-22.1"/>
<polygon fill="#63b8ff" stroke="#63b8ff" points="1594.78,-24.36 1585.2,-28.89 1595.52,-31.32 1594.78,-24.36"/>
</a>
</g>
</g>
<!-- Node2 -->
<g id="Node000002" class="node">
<title>Node2</title>
<g id="a_Node000002"><a xlink:href="structDGtal_1_1concepts_1_1CPointFunctor.html" target="_top" xlink:title=" ">
<polygon fill="white" stroke="#666666" points="1412,-45.5 1219,-45.5 1219,-26.5 1412,-26.5 1412,-45.5"/>
<text text-anchor="middle" x="1315.5" y="-33.5" font-family="FreeSans" font-size="10.00">DGtal::concepts::CPointFunctor&lt; I &gt;</text>
</a>
</g>
</g>
<!-- Node2&#45;&gt;Node1 -->
<g id="edge1_Node000001_Node000002" class="edge">
<title>Node2&#45;&gt;Node1</title>
<g id="a_edge1_Node000001_Node000002"><a xlink:title=" ">
<path fill="none" stroke="#63b8ff" d="M1422.33,-36C1431.34,-36 1440.27,-36 1448.85,-36"/>
<polygon fill="#63b8ff" stroke="#63b8ff" points="1422.16,-32.5 1412.16,-36 1422.16,-39.5 1422.16,-32.5"/>
</a>
</g>
</g>
<!-- Node3 -->
<g id="Node000003" class="node">
<title>Node3</title>
<g id="a_Node000003"><a xlink:href="structDGtal_1_1concepts_1_1CUnaryFunctor.html" target="_top" xlink:title="Aim: Defines a unary functor, which associates arguments to results.">
<polygon fill="white" stroke="#666666" points="731,-35 559,-35 559,-5 731,-5 731,-35"/>
<text text-anchor="start" x="567" y="-23" font-family="FreeSans" font-size="10.00">DGtal::concepts::CUnaryFunctor</text>
<text text-anchor="middle" x="645" y="-12" font-family="FreeSans" font-size="10.00">&lt; X, A, R &gt;</text>
</a>
</g>
</g>
<!-- Node3&#45;&gt;Node2 -->
<g id="edge2_Node000002_Node000003" class="edge">
<title>Node3&#45;&gt;Node2</title>
<g id="a_edge2_Node000002_Node000003"><a xlink:title=" ">
<path fill="none" stroke="#63b8ff" d="M741.1,-22.28C868.02,-25.31 1091.53,-30.66 1218.77,-33.71"/>
<polygon fill="#63b8ff" stroke="#63b8ff" points="741.09,-18.77 731.01,-22.03 740.92,-25.77 741.09,-18.77"/>
</a>
</g>
</g>
<!-- Node4 -->
<g id="Node000004" class="node">
<title>Node4</title>
<g id="a_Node000004"><a xlink:href="structboost_1_1Assignable.html" target="_top" xlink:title=" ">
<polygon fill="white" stroke="#666666" points="332,-41.5 200,-41.5 200,-22.5 332,-22.5 332,-41.5"/>
<text text-anchor="middle" x="266" y="-29.5" font-family="FreeSans" font-size="10.00">boost::Assignable&lt; X &gt;</text>
</a>
</g>
</g>
<!-- Node4&#45;&gt;Node3 -->
<g id="edge3_Node000003_Node000004" class="edge">
<title>Node4&#45;&gt;Node3</title>
<g id="a_edge3_Node000003_Node000004"><a xlink:title=" ">
<path fill="none" stroke="#63b8ff" d="M342.42,-29.6C404.89,-27.61 493.65,-24.79 558.7,-22.71"/>
<polygon fill="#63b8ff" stroke="#63b8ff" points="342.12,-26.11 332.24,-29.92 342.34,-33.1 342.12,-26.11"/>
</a>
</g>
</g>
<!-- Node9 -->
<g id="Node000009" class="node">
<title>Node9</title>
<g id="a_Node000009"><a xlink:href="structDGtal_1_1concepts_1_1CUnaryFunctor.html" target="_top" xlink:title="Aim: Defines a unary functor, which associates arguments to results.">
<polygon fill="white" stroke="#666666" points="541,-116 369,-116 369,-86 541,-86 541,-116"/>
<text text-anchor="start" x="377" y="-104" font-family="FreeSans" font-size="10.00">DGtal::concepts::CUnaryFunctor</text>
<text text-anchor="middle" x="455" y="-93" font-family="FreeSans" font-size="10.00">&lt; X, A, R &gt;</text>
</a>
</g>
</g>
<!-- Node4&#45;&gt;Node9 -->
<g id="edge9_Node000009_Node000004" class="edge">
<title>Node4&#45;&gt;Node9</title>
<g id="a_edge9_Node000009_Node000004"><a xlink:title=" ">
<path fill="none" stroke="#63b8ff" d="M295.86,-46.03C316.05,-55.52 343.8,-67.93 369,-77 377.8,-80.17 387.23,-83.19 396.5,-85.95"/>
<polygon fill="#63b8ff" stroke="#63b8ff" points="297.13,-42.76 286.6,-41.63 294.13,-49.09 297.13,-42.76"/>
</a>
</g>
</g>
<!-- Node5 -->
<g id="Node000005" class="node">
<title>Node5</title>
<g id="a_Node000005"><a xlink:href="structboost_1_1Assignable.html" target="_top" xlink:title="Go to http://www.sgi.com/tech/stl/Assignable.html.">
<polygon fill="white" stroke="#666666" points="131,-41.5 0,-41.5 0,-22.5 131,-22.5 131,-41.5"/>
<text text-anchor="middle" x="65.5" y="-29.5" font-family="FreeSans" font-size="10.00">boost::Assignable&lt; T &gt;</text>
</a>
</g>
</g>
<!-- Node5&#45;&gt;Node4 -->
<g id="edge4_Node000004_Node000005" class="edge">
<title>Node5&#45;&gt;Node4</title>
<g id="a_edge4_Node000004_Node000005"><a xlink:title=" ">
<path fill="none" stroke="orange" stroke-dasharray="5,2" d="M141.41,-32C160.58,-32 181.04,-32 199.69,-32"/>
<polygon fill="orange" stroke="orange" points="141.22,-28.5 131.22,-32 141.22,-35.5 141.22,-28.5"/>
</a>
</g>
<text text-anchor="middle" x="165.5" y="-35" font-family="FreeSans" font-size="10.00" fill="grey"> &lt; X &gt;</text>
</g>
<!-- Node6 -->
<g id="Node000006" class="node">
<title>Node6</title>
<g id="a_Node000006"><a xlink:href="structDGtal_1_1concepts_1_1CPointFunctor.html" target="_top" xlink:title="Aim: Defines a functor on points.">
<polygon fill="white" stroke="#666666" points="1154,-69.5 958,-69.5 958,-50.5 1154,-50.5 1154,-69.5"/>
<text text-anchor="middle" x="1056" y="-57.5" font-family="FreeSans" font-size="10.00">DGtal::concepts::CPointFunctor&lt; T &gt;</text>
</a>
</g>
</g>
<!-- Node6&#45;&gt;Node2 -->
<g id="edge5_Node000002_Node000006" class="edge">
<title>Node6&#45;&gt;Node2</title>
<g id="a_edge5_Node000002_Node000006"><a xlink:title=" ">
<path fill="none" stroke="orange" stroke-dasharray="5,2" d="M1164.31,-50C1182.36,-48.32 1200.99,-46.58 1218.72,-44.93"/>
<polygon fill="orange" stroke="orange" points="1163.98,-46.51 1154.35,-50.93 1164.63,-53.48 1163.98,-46.51"/>
</a>
</g>
<text text-anchor="middle" x="1186.5" y="-52" font-family="FreeSans" font-size="10.00" fill="grey"> &lt; I &gt;</text>
</g>
<!-- Node7 -->
<g id="Node000007" class="node">
<title>Node7</title>
<g id="a_Node000007"><a xlink:href="structDGtal_1_1concepts_1_1CUnaryFunctor.html" target="_top" xlink:title=" ">
<polygon fill="white" stroke="#666666" points="921,-78 749,-78 749,-48 921,-48 921,-78"/>
<text text-anchor="start" x="757" y="-66" font-family="FreeSans" font-size="10.00">DGtal::concepts::CUnaryFunctor</text>
<text text-anchor="middle" x="835" y="-55" font-family="FreeSans" font-size="10.00">&lt; T, T::Point, T::Value &gt;</text>
</a>
</g>
</g>
<!-- Node7&#45;&gt;Node6 -->
<g id="edge6_Node000006_Node000007" class="edge">
<title>Node7&#45;&gt;Node6</title>
<g id="a_edge6_Node000006_Node000007"><a xlink:title=" ">
<path fill="none" stroke="#63b8ff" d="M931.51,-61.69C940.28,-61.57 949.16,-61.45 957.94,-61.33"/>
<polygon fill="#63b8ff" stroke="#63b8ff" points="931.25,-58.19 921.3,-61.83 931.35,-65.19 931.25,-58.19"/>
</a>
</g>
</g>
<!-- Node8 -->
<g id="Node000008" class="node">
<title>Node8</title>
<g id="a_Node000008"><a xlink:href="structboost_1_1Assignable.html" target="_top" xlink:title="Go to http://www.sgi.com/tech/stl/Assignable.html.">
<polygon fill="white" stroke="#666666" points="520.5,-67.5 389.5,-67.5 389.5,-48.5 520.5,-48.5 520.5,-67.5"/>
<text text-anchor="middle" x="455" y="-55.5" font-family="FreeSans" font-size="10.00">boost::Assignable&lt; T &gt;</text>
</a>
</g>
</g>
<!-- Node8&#45;&gt;Node7 -->
<g id="edge7_Node000007_Node000008" class="edge">
<title>Node8&#45;&gt;Node7</title>
<g id="a_edge7_Node000007_Node000008"><a xlink:title=" ">
<path fill="none" stroke="#63b8ff" d="M530.78,-58.99C593.55,-59.82 683.23,-61.01 748.78,-61.87"/>
<polygon fill="#63b8ff" stroke="#63b8ff" points="530.6,-55.49 520.55,-58.85 530.5,-62.49 530.6,-55.49"/>
</a>
</g>
</g>
<!-- Node9&#45;&gt;Node7 -->
<g id="edge8_Node000007_Node000009" class="edge">
<title>Node9&#45;&gt;Node7</title>
<g id="a_edge8_Node000007_Node000009"><a xlink:title=" ">
<path fill="none" stroke="orange" stroke-dasharray="5,2" d="M551.24,-91.85C604.19,-86.71 671.26,-80.12 731,-74 736.81,-73.4 742.81,-72.78 748.85,-72.15"/>
<polygon fill="orange" stroke="orange" points="550.8,-88.38 541.18,-92.83 551.48,-95.34 550.8,-88.38"/>
</a>
</g>
<text text-anchor="middle" x="645" y="-93" font-family="FreeSans" font-size="10.00" fill="grey"> &lt; T, T::Point, T::Value &gt;</text>
</g>
<!-- Node11 -->
<g id="Node000011" class="node">
<title>Node11</title>
<g id="a_Node000011"><a xlink:href="structDGtal_1_1concepts_1_1CImage.html" target="_top" xlink:title="Aim: Defines the concept describing a read/write image, having an output iterator.">
<polygon fill="white" stroke="#666666" points="2013,-45.5 1850,-45.5 1850,-26.5 2013,-26.5 2013,-45.5"/>
<text text-anchor="middle" x="1931.5" y="-33.5" font-family="FreeSans" font-size="10.00">DGtal::concepts::CImage&lt; I &gt;</text>
</a>
</g>
</g>
<!-- Node10&#45;&gt;Node11 -->
<g id="edge11_Node000010_Node000011" class="edge">
<title>Node10&#45;&gt;Node11</title>
<g id="a_edge11_Node000010_Node000011"><a xlink:title=" ">
<path fill="none" stroke="#63b8ff" d="M1820.2,-47.45C1830.18,-46.41 1840.2,-45.37 1849.93,-44.36"/>
<polygon fill="#63b8ff" stroke="#63b8ff" points="1819.84,-43.96 1810.25,-48.48 1820.56,-50.93 1819.84,-43.96"/>
</a>
</g>
</g>
<!-- Node12&#45;&gt;Node11 -->
<g id="edge13_Node000012_Node000011" class="edge">
<title>Node12&#45;&gt;Node11</title>
<g id="a_edge13_Node000012_Node000011"><a xlink:title=" ">
<path fill="none" stroke="#63b8ff" d="M1795.77,-22.65C1813.34,-24.39 1832.04,-26.25 1849.75,-28"/>
<polygon fill="#63b8ff" stroke="#63b8ff" points="1795.87,-19.15 1785.58,-21.64 1795.18,-26.11 1795.87,-19.15"/>
</a>
</g>
</g>
</g>
</svg>
