<?xml version="1.0" encoding="UTF-8" standalone="no"?>
<!DOCTYPE svg PUBLIC "-//W3C//DTD SVG 1.1//EN"
 "http://www.w3.org/Graphics/SVG/1.1/DTD/svg11.dtd">
<!-- Generated by graphviz version 2.43.0 (0)
 -->
<!-- Title: DGtal::concepts::CDigitalSurfaceLocalEstimator&lt; T &gt; Pages: 1 -->
<svg width="549pt" height="101pt"
 viewBox="0.00 0.00 549.00 101.00" xmlns="http://www.w3.org/2000/svg" xmlns:xlink="http://www.w3.org/1999/xlink">
<g id="graph0" class="graph" transform="scale(1 1) rotate(0) translate(4 97)">
<title>DGtal::concepts::CDigitalSurfaceLocalEstimator&lt; T &gt;</title>
<!-- Node1 -->
<g id="Node000001" class="node">
<title>Node1</title>
<g id="a_Node000001"><a xlink:title="Aim: This concept describes an object that can process a range over some generic digital surface so a...">
<polygon fill="#999999" stroke="#666666" points="541,-61.5 386,-61.5 386,-31.5 541,-31.5 541,-61.5"/>
<text text-anchor="start" x="394" y="-49.5" font-family="FreeSans" font-size="10.00">DGtal::concepts::CDigital</text>
<text text-anchor="middle" x="463.5" y="-38.5" font-family="FreeSans" font-size="10.00">SurfaceLocalEstimator&lt; T &gt;</text>
</a>
</g>
</g>
<!-- Node2 -->
<g id="Node000002" class="node">
<title>Node2</title>
<g id="a_Node000002"><a xlink:href="structDGtal_1_1concepts_1_1CSurfelLocalEstimator.html" target="_top" xlink:title="Aim: This concept describes an object that can process a range of surfels (that are supposed to belon...">
<polygon fill="white" stroke="#666666" points="350,-61.5 215,-61.5 215,-31.5 350,-31.5 350,-61.5"/>
<text text-anchor="start" x="223" y="-49.5" font-family="FreeSans" font-size="10.00">DGtal::concepts::CSurfel</text>
<text text-anchor="middle" x="282.5" y="-38.5" font-family="FreeSans" font-size="10.00">LocalEstimator&lt; T &gt;</text>
</a>
</g>
</g>
<!-- Node2&#45;&gt;Node1 -->
<g id="edge1_Node000001_Node000002" class="edge">
<title>Node2&#45;&gt;Node1</title>
<g id="a_edge1_Node000001_Node000002"><a xlink:title=" ">
<path fill="none" stroke="#63b8ff" d="M360.36,-46.5C368.8,-46.5 377.4,-46.5 385.84,-46.5"/>
<polygon fill="#63b8ff" stroke="#63b8ff" points="360.15,-43 350.15,-46.5 360.15,-50 360.15,-43"/>
</a>
</g>
</g>
<!-- Node3 -->
<g id="Node000003" class="node">
<title>Node3</title>
<g id="a_Node000003"><a xlink:href="structboost_1_1DefaultConstructible.html" target="_top" xlink:title="Go to http://www.sgi.com/tech/stl/DefaultConstructible.html.">
<polygon fill="white" stroke="#666666" points="179,-93 0,-93 0,-74 179,-74 179,-93"/>
<text text-anchor="middle" x="89.5" y="-81" font-family="FreeSans" font-size="10.00">boost::DefaultConstructible&lt; T &gt;</text>
</a>
</g>
</g>
<!-- Node3&#45;&gt;Node2 -->
<g id="edge2_Node000002_Node000003" class="edge">
<title>Node3&#45;&gt;Node2</title>
<g id="a_edge2_Node000002_Node000003"><a xlink:title=" ">
<path fill="none" stroke="#63b8ff" d="M149.6,-72.05C170.26,-68.05 193.6,-63.53 214.84,-59.41"/>
<polygon fill="#63b8ff" stroke="#63b8ff" points="148.84,-68.63 139.69,-73.97 150.17,-75.51 148.84,-68.63"/>
</a>
</g>
</g>
<!-- Node4 -->
<g id="Node000004" class="node">
<title>Node4</title>
<g id="a_Node000004"><a xlink:href="structboost_1_1CopyConstructible.html" target="_top" xlink:title="Go to http://www.sgi.com/tech/stl/CopyConstructible.html.">
<polygon fill="white" stroke="#666666" points="173,-56 6,-56 6,-37 173,-37 173,-56"/>
<text text-anchor="middle" x="89.5" y="-44" font-family="FreeSans" font-size="10.00">boost::CopyConstructible&lt; T &gt;</text>
</a>
</g>
</g>
<!-- Node4&#45;&gt;Node2 -->
<g id="edge3_Node000002_Node000004" class="edge">
<title>Node4&#45;&gt;Node2</title>
<g id="a_edge3_Node000002_Node000004"><a xlink:title=" ">
<path fill="none" stroke="#63b8ff" d="M183.32,-46.5C193.95,-46.5 204.62,-46.5 214.8,-46.5"/>
<polygon fill="#63b8ff" stroke="#63b8ff" points="183.16,-43 173.16,-46.5 183.16,-50 183.16,-43"/>
</a>
</g>
</g>
<!-- Node5 -->
<g id="Node000005" class="node">
<title>Node5</title>
<g id="a_Node000005"><a xlink:href="structboost_1_1Assignable.html" target="_top" xlink:title="Go to http://www.sgi.com/tech/stl/Assignable.html.">
<polygon fill="white" stroke="#666666" points="155,-19 24,-19 24,0 155,0 155,-19"/>
<text text-anchor="middle" x="89.5" y="-7" font-family="FreeSans" font-size="10.00">boost::Assignable&lt; T &gt;</text>
</a>
</g>
</g>
<!-- Node5&#45;&gt;Node2 -->
<g id="edge4_Node000002_Node000005" class="edge">
<title>Node5&#45;&gt;Node2</title>
<g id="a_edge4_Node000002_Node000005"><a xlink:title=" ">
<path fill="none" stroke="#63b8ff" d="M149.6,-20.95C170.26,-24.95 193.6,-29.47 214.84,-33.59"/>
<polygon fill="#63b8ff" stroke="#63b8ff" points="150.17,-17.49 139.69,-19.03 148.84,-24.37 150.17,-17.49"/>
</a>
</g>
</g>
</g>
</svg>
