<?xml version="1.0" encoding="UTF-8" standalone="no"?>
<!DOCTYPE svg PUBLIC "-//W3C//DTD SVG 1.1//EN"
 "http://www.w3.org/Graphics/SVG/1.1/DTD/svg11.dtd">
<!-- Generated by graphviz version 2.43.0 (0)
 -->
<!-- Title: DGtal::UniqueAssociativeCategory Pages: 1 -->
<svg width="729pt" height="161pt"
 viewBox="0.00 0.00 729.00 160.50" xmlns="http://www.w3.org/2000/svg" xmlns:xlink="http://www.w3.org/1999/xlink">
<g id="graph0" class="graph" transform="scale(1 1) rotate(0) translate(4 156.5)">
<title>DGtal::UniqueAssociativeCategory</title>
<!-- Node1 -->
<g id="Node000001" class="node">
<title>Node1</title>
<g id="a_Node000001"><a xlink:title=" ">
<polygon fill="#999999" stroke="#666666" points="506,-99 365,-99 365,-69 506,-69 506,-99"/>
<text text-anchor="start" x="373" y="-87" font-family="FreeSans" font-size="10.00">DGtal::UniqueAssociative</text>
<text text-anchor="middle" x="435.5" y="-76" font-family="FreeSans" font-size="10.00">Category</text>
</a>
</g>
</g>
<!-- Node4 -->
<g id="Node000004" class="node">
<title>Node4</title>
<g id="a_Node000004"><a xlink:href="structDGtal_1_1MapAssociativeCategory.html" target="_top" xlink:title=" ">
<polygon fill="white" stroke="#666666" points="717.5,-152.5 545.5,-152.5 545.5,-133.5 717.5,-133.5 717.5,-152.5"/>
<text text-anchor="middle" x="631.5" y="-140.5" font-family="FreeSans" font-size="10.00">DGtal::MapAssociativeCategory</text>
</a>
</g>
</g>
<!-- Node1&#45;&gt;Node4 -->
<g id="edge3_Node000001_Node000004" class="edge">
<title>Node1&#45;&gt;Node4</title>
<g id="a_edge3_Node000001_Node000004"><a xlink:title=" ">
<path fill="none" stroke="#63b8ff" d="M480.58,-103.06C499.27,-110.64 521.45,-118.96 542,-125 552.83,-128.18 564.57,-131 575.85,-133.4"/>
<polygon fill="#63b8ff" stroke="#63b8ff" points="481.73,-99.75 471.15,-99.18 479.07,-106.22 481.73,-99.75"/>
</a>
</g>
</g>
<!-- Node5 -->
<g id="Node000005" class="node">
<title>Node5</title>
<g id="a_Node000005"><a xlink:href="structDGtal_1_1SetAssociativeCategory.html" target="_top" xlink:title=" ">
<polygon fill="white" stroke="#666666" points="715,-115.5 548,-115.5 548,-96.5 715,-96.5 715,-115.5"/>
<text text-anchor="middle" x="631.5" y="-103.5" font-family="FreeSans" font-size="10.00">DGtal::SetAssociativeCategory</text>
</a>
</g>
</g>
<!-- Node1&#45;&gt;Node5 -->
<g id="edge4_Node000001_Node000005" class="edge">
<title>Node1&#45;&gt;Node5</title>
<g id="a_edge4_Node000001_Node000005"><a xlink:title=" ">
<path fill="none" stroke="#63b8ff" d="M516.49,-93.07C526.83,-94.24 537.43,-95.45 547.8,-96.62"/>
<polygon fill="#63b8ff" stroke="#63b8ff" points="516.6,-89.56 506.26,-91.91 515.81,-96.52 516.6,-89.56"/>
</a>
</g>
</g>
<!-- Node6 -->
<g id="Node000006" class="node">
<title>Node6</title>
<g id="a_Node000006"><a xlink:href="structDGtal_1_1UnorderedMapAssociativeCategory.html" target="_top" xlink:title=" ">
<polygon fill="white" stroke="#666666" points="721,-78 542,-78 542,-48 721,-48 721,-78"/>
<text text-anchor="start" x="550" y="-66" font-family="FreeSans" font-size="10.00">DGtal::UnorderedMapAssociative</text>
<text text-anchor="middle" x="631.5" y="-55" font-family="FreeSans" font-size="10.00">Category</text>
</a>
</g>
</g>
<!-- Node1&#45;&gt;Node6 -->
<g id="edge5_Node000001_Node000006" class="edge">
<title>Node1&#45;&gt;Node6</title>
<g id="a_edge5_Node000001_Node000006"><a xlink:title=" ">
<path fill="none" stroke="#63b8ff" d="M516.37,-75.35C524.74,-74.45 533.29,-73.52 541.76,-72.61"/>
<polygon fill="#63b8ff" stroke="#63b8ff" points="515.83,-71.89 506.26,-76.45 516.58,-78.85 515.83,-71.89"/>
</a>
</g>
</g>
<!-- Node7 -->
<g id="Node000007" class="node">
<title>Node7</title>
<g id="a_Node000007"><a xlink:href="structDGtal_1_1UnorderedSetAssociativeCategory.html" target="_top" xlink:title=" ">
<polygon fill="white" stroke="#666666" points="718,-30 545,-30 545,0 718,0 718,-30"/>
<text text-anchor="start" x="553" y="-18" font-family="FreeSans" font-size="10.00">DGtal::UnorderedSetAssociative</text>
<text text-anchor="middle" x="631.5" y="-7" font-family="FreeSans" font-size="10.00">Category</text>
</a>
</g>
</g>
<!-- Node1&#45;&gt;Node7 -->
<g id="edge6_Node000001_Node000007" class="edge">
<title>Node1&#45;&gt;Node7</title>
<g id="a_edge6_Node000001_Node000007"><a xlink:title=" ">
<path fill="none" stroke="#63b8ff" d="M478.19,-64.64C497.38,-56.14 520.6,-46.43 542,-39 551.17,-35.82 561,-32.79 570.65,-30.02"/>
<polygon fill="#63b8ff" stroke="#63b8ff" points="476.53,-61.55 468.83,-68.83 479.39,-67.94 476.53,-61.55"/>
</a>
</g>
</g>
<!-- Node2 -->
<g id="Node000002" class="node">
<title>Node2</title>
<g id="a_Node000002"><a xlink:href="structDGtal_1_1AssociativeCategory.html" target="_top" xlink:title=" ">
<polygon fill="white" stroke="#666666" points="329,-93.5 178,-93.5 178,-74.5 329,-74.5 329,-93.5"/>
<text text-anchor="middle" x="253.5" y="-81.5" font-family="FreeSans" font-size="10.00">DGtal::AssociativeCategory</text>
</a>
</g>
</g>
<!-- Node2&#45;&gt;Node1 -->
<g id="edge1_Node000001_Node000002" class="edge">
<title>Node2&#45;&gt;Node1</title>
<g id="a_edge1_Node000001_Node000002"><a xlink:title=" ">
<path fill="none" stroke="#63b8ff" d="M339.12,-84C347.77,-84 356.49,-84 364.95,-84"/>
<polygon fill="#63b8ff" stroke="#63b8ff" points="339.01,-80.5 329.01,-84 339.01,-87.5 339.01,-80.5"/>
</a>
</g>
</g>
<!-- Node3 -->
<g id="Node000003" class="node">
<title>Node3</title>
<g id="a_Node000003"><a xlink:href="structDGtal_1_1ContainerCategory.html" target="_top" xlink:title=" ">
<polygon fill="white" stroke="#666666" points="142,-93.5 0,-93.5 0,-74.5 142,-74.5 142,-93.5"/>
<text text-anchor="middle" x="71" y="-81.5" font-family="FreeSans" font-size="10.00">DGtal::ContainerCategory</text>
</a>
</g>
</g>
<!-- Node3&#45;&gt;Node2 -->
<g id="edge2_Node000002_Node000003" class="edge">
<title>Node3&#45;&gt;Node2</title>
<g id="a_edge2_Node000002_Node000003"><a xlink:title=" ">
<path fill="none" stroke="#63b8ff" d="M152.28,-84C160.74,-84 169.32,-84 177.71,-84"/>
<polygon fill="#63b8ff" stroke="#63b8ff" points="152.04,-80.5 142.04,-84 152.04,-87.5 152.04,-80.5"/>
</a>
</g>
</g>
</g>
</svg>
