<?xml version="1.0" encoding="UTF-8" standalone="no"?>
<!DOCTYPE svg PUBLIC "-//W3C//DTD SVG 1.1//EN"
 "http://www.w3.org/Graphics/SVG/1.1/DTD/svg11.dtd">
<!-- Generated by graphviz version 2.43.0 (0)
 -->
<!-- Title: DGtal::concepts::CPredicate&lt; T, TElement &gt; Pages: 1 -->
<!--zoomable 134 -->

<svg id="main" version="1.1" xmlns="http://www.w3.org/2000/svg" xmlns:xlink="http://www.w3.org/1999/xlink" xml:space="preserve" onload="init(evt)">
<style type="text/css"><![CDATA[
.node, .edge {opacity: 0.7;}
.node.selected, .edge.selected {opacity: 1;}
.edge:hover path { stroke: red; }
.edge:hover polygon { stroke: red; fill: red; }
]]></style>

<defs>
  <circle id="rim" cx="0" cy="0" r="7"/>
  <circle id="rim2" cx="0" cy="0" r="3.5"/>
  <g id="zoomPlus">
    <use xlink:href="#rim" fill="#404040"><set attributeName="fill" to="#808080" begin="zoomplus.mouseover" end="zoomplus.mouseout"/></use>
    <path d="M-4,0h8M0,-4v8" fill="none" stroke="white" stroke-width="1.5" pointer-events="none"/>
  </g>
  <g id="zoomMin">
    <use xlink:href="#rim" fill="#404040"><set attributeName="fill" to="#808080" begin="zoomminus.mouseover" end="zoomminus.mouseout"/></use>
    <path d="M-4,0h8" fill="none" stroke="white" stroke-width="1.5" pointer-events="none"/>
  </g>
  <g id="arrowUp" transform="translate(30 24)">
    <use xlink:href="#rim"/>
    <path pointer-events="none" fill="none" stroke="white" stroke-width="1.5" d="M0,-3.0v7 M-2.5,-0.5L0,-3.0L2.5,-0.5"/>
  </g>
  <g id="arrowRight" transform="rotate(90) translate(36 -43)">
    <use xlink:href="#rim"/>
    <path pointer-events="none" fill="none" stroke="white" stroke-width="1.5" d="M0,-3.0v7 M-2.5,-0.5L0,-3.0L2.5,-0.5"/>
  </g>
  <g id="arrowDown" transform="rotate(180) translate(-30 -48)">
    <use xlink:href="#rim"/>
    <path pointer-events="none" fill="none" stroke="white" stroke-width="1.5" d="M0,-3.0v7 M-2.5,-0.5L0,-3.0L2.5,-0.5"/>
  </g>
  <g id="arrowLeft" transform="rotate(270) translate(-36 17)">
    <use xlink:href="#rim"/>
    <path pointer-events="none" fill="none" stroke="white" stroke-width="1.5" d="M0,-3.0v7 M-2.5,-0.5L0,-3.0L2.5,-0.5"/>
  </g>
  <g id="resetDef">
    <use xlink:href="#rim2" fill="#404040"><set attributeName="fill" to="#808080" begin="reset.mouseover" end="reset.mouseout"/></use>
  </g>
</defs>
<script type="application/ecmascript">
var viewWidth = 1746;
var viewHeight = 134;
var sectionId = 'dynsection-0';
</script>
<script type="application/ecmascript" xlink:href="svg.min.js"/>
<svg id="graph" class="graph">
<g id="viewport">
<title>DGtal::concepts::CPredicate&lt; T, TElement &gt;</title>
<!-- Node1 -->
<g id="Node000001" class="node">
<title>Node1</title>
<g id="a_Node000001"><a xlink:title="Aim: Defines a predicate function, ie. a functor mapping a domain into the set of booleans.">
<polygon fill="#999999" stroke="#666666" points="1050,-78 898,-78 898,-48 1050,-48 1050,-78"/>
<text text-anchor="start" x="906" y="-66" font-family="FreeSans" font-size="10.00">DGtal::concepts::CPredicate</text>
<text text-anchor="middle" x="974" y="-55" font-family="FreeSans" font-size="10.00">&lt; T, TElement &gt;</text>
</a>
</g>
</g>
<!-- Node7 -->
<g id="Node000007" class="node">
<title>Node7</title>
<g id="a_Node000007"><a xlink:href="structDGtal_1_1concepts_1_1CPredicate.html" target="_top" xlink:title=" ">
<polygon fill="white" stroke="#666666" points="1319,-126 1167,-126 1167,-96 1319,-96 1319,-126"/>
<text text-anchor="start" x="1175" y="-114" font-family="FreeSans" font-size="10.00">DGtal::concepts::CPredicate</text>
<text text-anchor="middle" x="1243" y="-103" font-family="FreeSans" font-size="10.00">&lt; T, T::Point &gt;</text>
</a>
</g>
</g>
<!-- Node1&#45;&gt;Node7 -->
<g id="edge6_Node000001_Node000007" class="edge">
<title>Node1&#45;&gt;Node7</title>
<g id="a_edge6_Node000001_Node000007"><a xlink:title=" ">
<path fill="none" stroke="orange" stroke-dasharray="5,2" d="M1060.06,-78.29C1094.27,-84.44 1133.38,-91.47 1166.55,-97.44"/>
<polygon fill="orange" stroke="orange" points="1060.55,-74.82 1050.08,-76.5 1059.31,-81.71 1060.55,-74.82"/>
</a>
</g>
<text text-anchor="middle" x="1108.5" y="-97" font-family="FreeSans" font-size="10.00" fill="grey"> &lt; T, T::Point &gt;</text>
</g>
<!-- Node10 -->
<g id="Node000010" class="node">
<title>Node10</title>
<g id="a_Node000010"><a xlink:href="structDGtal_1_1concepts_1_1CPredicate.html" target="_top" xlink:title=" ">
<polygon fill="white" stroke="#666666" points="1319,-78 1167,-78 1167,-48 1319,-48 1319,-78"/>
<text text-anchor="start" x="1175" y="-66" font-family="FreeSans" font-size="10.00">DGtal::concepts::CPredicate</text>
<text text-anchor="middle" x="1243" y="-55" font-family="FreeSans" font-size="10.00">&lt; T, T::Surfel &gt;</text>
</a>
</g>
</g>
<!-- Node1&#45;&gt;Node10 -->
<g id="edge9_Node000001_Node000010" class="edge">
<title>Node1&#45;&gt;Node10</title>
<g id="a_edge9_Node000001_Node000010"><a xlink:title=" ">
<path fill="none" stroke="orange" stroke-dasharray="5,2" d="M1060.5,-63C1094.6,-63 1133.52,-63 1166.55,-63"/>
<polygon fill="orange" stroke="orange" points="1060.08,-59.5 1050.08,-63 1060.08,-66.5 1060.08,-59.5"/>
</a>
</g>
<text text-anchor="middle" x="1108.5" y="-66" font-family="FreeSans" font-size="10.00" fill="grey"> &lt; T, T::Surfel &gt;</text>
</g>
<!-- Node12 -->
<g id="Node000012" class="node">
<title>Node12</title>
<g id="a_Node000012"><a xlink:href="structDGtal_1_1concepts_1_1CPredicate.html" target="_top" xlink:title=" ">
<polygon fill="white" stroke="#666666" points="1319,-30 1167,-30 1167,0 1319,0 1319,-30"/>
<text text-anchor="start" x="1175" y="-18" font-family="FreeSans" font-size="10.00">DGtal::concepts::CPredicate</text>
<text text-anchor="middle" x="1243" y="-7" font-family="FreeSans" font-size="10.00">&lt; T, T::Vertex &gt;</text>
</a>
</g>
</g>
<!-- Node1&#45;&gt;Node12 -->
<g id="edge11_Node000001_Node000012" class="edge">
<title>Node1&#45;&gt;Node12</title>
<g id="a_edge11_Node000001_Node000012"><a xlink:title=" ">
<path fill="none" stroke="orange" stroke-dasharray="5,2" d="M1060.06,-47.71C1094.27,-41.56 1133.38,-34.53 1166.55,-28.56"/>
<polygon fill="orange" stroke="orange" points="1059.31,-44.29 1050.08,-49.5 1060.55,-51.18 1059.31,-44.29"/>
</a>
</g>
<text text-anchor="middle" x="1108.5" y="-50" font-family="FreeSans" font-size="10.00" fill="grey"> &lt; T, T::Vertex &gt;</text>
</g>
<!-- Node2 -->
<g id="Node000002" class="node">
<title>Node2</title>
<g id="a_Node000002"><a xlink:href="structDGtal_1_1concepts_1_1CUnaryFunctor.html" target="_top" xlink:title=" ">
<polygon fill="white" stroke="#666666" points="861,-78 689,-78 689,-48 861,-48 861,-78"/>
<text text-anchor="start" x="697" y="-66" font-family="FreeSans" font-size="10.00">DGtal::concepts::CUnaryFunctor</text>
<text text-anchor="middle" x="775" y="-55" font-family="FreeSans" font-size="10.00">&lt; T, TElement, bool &gt;</text>
</a>
</g>
</g>
<!-- Node2&#45;&gt;Node1 -->
<g id="edge1_Node000001_Node000002" class="edge">
<title>Node2&#45;&gt;Node1</title>
<g id="a_edge1_Node000001_Node000002"><a xlink:title=" ">
<path fill="none" stroke="#63b8ff" d="M871.29,-63C880.2,-63 889.14,-63 897.82,-63"/>
<polygon fill="#63b8ff" stroke="#63b8ff" points="871.26,-59.5 861.26,-63 871.26,-66.5 871.26,-59.5"/>
</a>
</g>
</g>
<!-- Node3 -->
<g id="Node000003" class="node">
<title>Node3</title>
<g id="a_Node000003"><a xlink:href="structboost_1_1Assignable.html" target="_top" xlink:title="Go to http://www.sgi.com/tech/stl/Assignable.html.">
<polygon fill="white" stroke="#666666" points="520.5,-93.5 389.5,-93.5 389.5,-74.5 520.5,-74.5 520.5,-93.5"/>
<text text-anchor="middle" x="455" y="-81.5" font-family="FreeSans" font-size="10.00">boost::Assignable&lt; T &gt;</text>
</a>
</g>
</g>
<!-- Node3&#45;&gt;Node2 -->
<g id="edge2_Node000002_Node000003" class="edge">
<title>Node3&#45;&gt;Node2</title>
<g id="a_edge2_Node000002_Node000003"><a xlink:title=" ">
<path fill="none" stroke="#63b8ff" d="M530.93,-79.05C578.29,-75.92 639.62,-71.87 688.83,-68.62"/>
<polygon fill="#63b8ff" stroke="#63b8ff" points="530.48,-75.57 520.74,-79.73 530.94,-82.56 530.48,-75.57"/>
</a>
</g>
</g>
<!-- Node4 -->
<g id="Node000004" class="node">
<title>Node4</title>
<g id="a_Node000004"><a xlink:href="structDGtal_1_1concepts_1_1CUnaryFunctor.html" target="_top" xlink:title="Aim: Defines a unary functor, which associates arguments to results.">
<polygon fill="white" stroke="#666666" points="541,-56 369,-56 369,-26 541,-26 541,-56"/>
<text text-anchor="start" x="377" y="-44" font-family="FreeSans" font-size="10.00">DGtal::concepts::CUnaryFunctor</text>
<text text-anchor="middle" x="455" y="-33" font-family="FreeSans" font-size="10.00">&lt; X, A, R &gt;</text>
</a>
</g>
</g>
<!-- Node4&#45;&gt;Node2 -->
<g id="edge3_Node000002_Node000004" class="edge">
<title>Node4&#45;&gt;Node2</title>
<g id="a_edge3_Node000002_Node000004"><a xlink:title=" ">
<path fill="none" stroke="orange" stroke-dasharray="5,2" d="M551.39,-46.95C588.71,-49.35 631.87,-52.21 671,-55 676.81,-55.42 682.81,-55.85 688.85,-56.3"/>
<polygon fill="orange" stroke="orange" points="551.23,-43.44 541.03,-46.29 550.79,-50.42 551.23,-43.44"/>
</a>
</g>
<text text-anchor="middle" x="615" y="-58" font-family="FreeSans" font-size="10.00" fill="grey"> &lt; T, TElement, bool &gt;</text>
</g>
<!-- Node5 -->
<g id="Node000005" class="node">
<title>Node5</title>
<g id="a_Node000005"><a xlink:href="structboost_1_1Assignable.html" target="_top" xlink:title=" ">
<polygon fill="white" stroke="#666666" points="332,-50.5 200,-50.5 200,-31.5 332,-31.5 332,-50.5"/>
<text text-anchor="middle" x="266" y="-38.5" font-family="FreeSans" font-size="10.00">boost::Assignable&lt; X &gt;</text>
</a>
</g>
</g>
<!-- Node5&#45;&gt;Node4 -->
<g id="edge4_Node000004_Node000005" class="edge">
<title>Node5&#45;&gt;Node4</title>
<g id="a_edge4_Node000004_Node000005"><a xlink:title=" ">
<path fill="none" stroke="#63b8ff" d="M342.24,-41C350.95,-41 359.87,-41 368.7,-41"/>
<polygon fill="#63b8ff" stroke="#63b8ff" points="342.14,-37.5 332.14,-41 342.14,-44.5 342.14,-37.5"/>
</a>
</g>
</g>
<!-- Node6 -->
<g id="Node000006" class="node">
<title>Node6</title>
<g id="a_Node000006"><a xlink:href="structboost_1_1Assignable.html" target="_top" xlink:title="Go to http://www.sgi.com/tech/stl/Assignable.html.">
<polygon fill="white" stroke="#666666" points="131,-50.5 0,-50.5 0,-31.5 131,-31.5 131,-50.5"/>
<text text-anchor="middle" x="65.5" y="-38.5" font-family="FreeSans" font-size="10.00">boost::Assignable&lt; T &gt;</text>
</a>
</g>
</g>
<!-- Node6&#45;&gt;Node5 -->
<g id="edge5_Node000005_Node000006" class="edge">
<title>Node6&#45;&gt;Node5</title>
<g id="a_edge5_Node000005_Node000006"><a xlink:title=" ">
<path fill="none" stroke="orange" stroke-dasharray="5,2" d="M141.41,-41C160.58,-41 181.04,-41 199.69,-41"/>
<polygon fill="orange" stroke="orange" points="141.22,-37.5 131.22,-41 141.22,-44.5 141.22,-37.5"/>
</a>
</g>
<text text-anchor="middle" x="165.5" y="-44" font-family="FreeSans" font-size="10.00" fill="grey"> &lt; X &gt;</text>
</g>
<!-- Node8 -->
<g id="Node000008" class="node">
<title>Node8</title>
<g id="a_Node000008"><a xlink:href="structDGtal_1_1concepts_1_1CPointPredicate.html" target="_top" xlink:title="Aim: Defines a predicate on a point.">
<polygon fill="white" stroke="#666666" points="1562,-120.5 1356,-120.5 1356,-101.5 1562,-101.5 1562,-120.5"/>
<text text-anchor="middle" x="1459" y="-108.5" font-family="FreeSans" font-size="10.00">DGtal::concepts::CPointPredicate&lt; T &gt;</text>
</a>
</g>
</g>
<!-- Node7&#45;&gt;Node8 -->
<g id="edge7_Node000007_Node000008" class="edge">
<title>Node7&#45;&gt;Node8</title>
<g id="a_edge7_Node000007_Node000008"><a xlink:title=" ">
<path fill="none" stroke="#63b8ff" d="M1329.33,-111C1338.1,-111 1347.07,-111 1355.99,-111"/>
<polygon fill="#63b8ff" stroke="#63b8ff" points="1329.15,-107.5 1319.15,-111 1329.15,-114.5 1329.15,-107.5"/>
</a>
</g>
</g>
<!-- Node9 -->
<g id="Node000009" class="node">
<title>Node9</title>
<g id="a_Node000009"><a xlink:href="structDGtal_1_1concepts_1_1CDigitalSet.html" target="_top" xlink:title="Aim: Represents a set of points within the given domain. This set of points is modifiable by the user...">
<polygon fill="white" stroke="#666666" points="1738,-126 1599,-126 1599,-96 1738,-96 1738,-126"/>
<text text-anchor="start" x="1607" y="-114" font-family="FreeSans" font-size="10.00">DGtal::concepts::CDigital</text>
<text text-anchor="middle" x="1668.5" y="-103" font-family="FreeSans" font-size="10.00">Set&lt; T &gt;</text>
</a>
</g>
</g>
<!-- Node8&#45;&gt;Node9 -->
<g id="edge8_Node000008_Node000009" class="edge">
<title>Node8&#45;&gt;Node9</title>
<g id="a_edge8_Node000008_Node000009"><a xlink:title=" ">
<path fill="none" stroke="#63b8ff" d="M1572.38,-111C1581.34,-111 1590.22,-111 1598.75,-111"/>
<polygon fill="#63b8ff" stroke="#63b8ff" points="1572.23,-107.5 1562.23,-111 1572.23,-114.5 1572.23,-107.5"/>
</a>
</g>
</g>
<!-- Node11 -->
<g id="Node000011" class="node">
<title>Node11</title>
<g id="a_Node000011"><a xlink:href="structDGtal_1_1concepts_1_1CSurfelPredicate.html" target="_top" xlink:title="Aim: Defines a predicate on a surfel.">
<polygon fill="white" stroke="#666666" points="1526.5,-78 1391.5,-78 1391.5,-48 1526.5,-48 1526.5,-78"/>
<text text-anchor="start" x="1399.5" y="-66" font-family="FreeSans" font-size="10.00">DGtal::concepts::CSurfel</text>
<text text-anchor="middle" x="1459" y="-55" font-family="FreeSans" font-size="10.00">Predicate&lt; T &gt;</text>
</a>
</g>
</g>
<!-- Node10&#45;&gt;Node11 -->
<g id="edge10_Node000010_Node000011" class="edge">
<title>Node10&#45;&gt;Node11</title>
<g id="a_edge10_Node000010_Node000011"><a xlink:title=" ">
<path fill="none" stroke="#63b8ff" d="M1329.17,-63C1349.81,-63 1371.58,-63 1391.24,-63"/>
<polygon fill="#63b8ff" stroke="#63b8ff" points="1329.15,-59.5 1319.15,-63 1329.15,-66.5 1329.15,-59.5"/>
</a>
</g>
</g>
<!-- Node13 -->
<g id="Node000013" class="node">
<title>Node13</title>
<g id="a_Node000013"><a xlink:href="structDGtal_1_1concepts_1_1CVertexPredicate.html" target="_top" xlink:title="Aim: Defines a predicate on a vertex.">
<polygon fill="white" stroke="#666666" points="1528,-30 1390,-30 1390,0 1528,0 1528,-30"/>
<text text-anchor="start" x="1398" y="-18" font-family="FreeSans" font-size="10.00">DGtal::concepts::CVertex</text>
<text text-anchor="middle" x="1459" y="-7" font-family="FreeSans" font-size="10.00">Predicate&lt; T &gt;</text>
</a>
</g>
</g>
<!-- Node12&#45;&gt;Node13 -->
<g id="edge12_Node000012_Node000013" class="edge">
<title>Node12&#45;&gt;Node13</title>
<g id="a_edge12_Node000012_Node000013"><a xlink:title=" ">
<path fill="none" stroke="#63b8ff" d="M1329.24,-15C1349.37,-15 1370.57,-15 1389.83,-15"/>
<polygon fill="#63b8ff" stroke="#63b8ff" points="1329.15,-11.5 1319.15,-15 1329.15,-18.5 1329.15,-11.5"/>
</a>
</g>
</g>
</g>
</svg>

<g id="navigator" transform="translate(0 0)" fill="#404254">
  <rect fill="#f2f5e9" fill-opacity="0.5" stroke="#606060" stroke-width=".5" x="0" y="0" width="60" height="60"/>
  <use id="zoomplus" xlink:href="#zoomPlus" x="17" y="9" onmousedown="handleZoom(evt,'in')"/>
  <use id="zoomminus" xlink:href="#zoomMin" x="42" y="9" onmousedown="handleZoom(evt,'out')"/>
  <use id="reset" xlink:href="#resetDef" x="30" y="36" onmousedown="handleReset()"/>
   <use id="arrowup" xlink:href="#arrowUp" x="0" y="0" onmousedown="handlePan(0,-1)"/>
  <use id="arrowright" xlink:href="#arrowRight" x="0" y="0" onmousedown="handlePan(1,0)"/>
  <use id="arrowdown" xlink:href="#arrowDown" x="0" y="0" onmousedown="handlePan(0,1)"/>
  <use id="arrowleft" xlink:href="#arrowLeft" x="0" y="0" onmousedown="handlePan(-1,0)"/>
</g>
<svg viewBox="0 0 15 15" width="100%" height="30px" preserveAspectRatio="xMaxYMin meet">
 <g id="arrow_out" transform="scale(0.3 0.3)">
  <a xlink:href="structDGtal_1_1concepts_1_1CPredicate__inherit__graph_org.svg" target="_base">
   <rect id="button" ry="5" rx="5" y="6" x="6" height="38" width="38"
        fill="#f2f5e9" fill-opacity="0.5" stroke="#606060" stroke-width="1.0"/>
   <path id="arrow"
     d="M 11.500037,31.436501 C 11.940474,20.09759 22.043105,11.32322 32.158766,21.979434 L 37.068811,17.246167 C 37.068811,17.246167 37.088388,32 37.088388,32 L 22.160133,31.978069 C 22.160133,31.978069 26.997745,27.140456 26.997745,27.140456 C 18.528582,18.264221 13.291696,25.230495 11.500037,31.436501 z"
     style="fill:#404040;"/>
  </a>
 </g>
</svg>

<style type='text/css'>
<![CDATA[
[data-mouse-over-selected='false'] { opacity: 0.7; }
[data-mouse-over-selected='true']  { opacity: 1.0; }
]]>
</style>
<script type="application/ecmascript"><![CDATA[
document.addEventListener('DOMContentLoaded', (event) => {
  highlightEdges();
  highlightAdjacentNodes();
});
]]></script>
</svg>
