<?xml version="1.0" encoding="UTF-8" standalone="no"?>
<!DOCTYPE svg PUBLIC "-//W3C//DTD SVG 1.1//EN"
 "http://www.w3.org/Graphics/SVG/1.1/DTD/svg11.dtd">
<!-- Generated by graphviz version 2.43.0 (0)
 -->
<!-- Title: DGtal::concepts::CForwardSegmentComputer&lt; T &gt; Pages: 1 -->
<svg width="1409pt" height="138pt"
 viewBox="0.00 0.00 1409.00 138.00" xmlns="http://www.w3.org/2000/svg" xmlns:xlink="http://www.w3.org/1999/xlink">
<g id="graph0" class="graph" transform="scale(1 1) rotate(0) translate(4 134)">
<title>DGtal::concepts::CForwardSegmentComputer&lt; T &gt;</title>
<!-- Node1 -->
<g id="Node000001" class="node">
<title>Node1</title>
<g id="a_Node000001"><a xlink:title="Aim: Defines the concept describing a forward segment computer. Like any model of CIncrementalSegment...">
<polygon fill="#999999" stroke="#666666" points="963,-79.5 817,-79.5 817,-49.5 963,-49.5 963,-79.5"/>
<text text-anchor="start" x="825" y="-67.5" font-family="FreeSans" font-size="10.00">DGtal::concepts::CForward</text>
<text text-anchor="middle" x="890" y="-56.5" font-family="FreeSans" font-size="10.00">SegmentComputer&lt; T &gt;</text>
</a>
</g>
</g>
<!-- Node9 -->
<g id="Node000009" class="node">
<title>Node9</title>
<g id="a_Node000009"><a xlink:href="structDGtal_1_1concepts_1_1CBidirectionalSegmentComputer.html" target="_top" xlink:title="Aim: Defines the concept describing a bidirectional segment computer, &#160;&#160;ie. a model of concepts::CSeg...">
<polygon fill="white" stroke="#666666" points="1167,-103.5 999,-103.5 999,-73.5 1167,-73.5 1167,-103.5"/>
<text text-anchor="start" x="1007" y="-91.5" font-family="FreeSans" font-size="10.00">DGtal::concepts::CBidirectional</text>
<text text-anchor="middle" x="1083" y="-80.5" font-family="FreeSans" font-size="10.00">SegmentComputer&lt; T &gt;</text>
</a>
</g>
</g>
<!-- Node1&#45;&gt;Node9 -->
<g id="edge8_Node000001_Node000009" class="edge">
<title>Node1&#45;&gt;Node9</title>
<g id="a_edge8_Node000001_Node000009"><a xlink:title=" ">
<path fill="none" stroke="#63b8ff" d="M973.39,-74.85C981.81,-75.91 990.37,-76.99 998.79,-78.04"/>
<polygon fill="#63b8ff" stroke="#63b8ff" points="973.57,-71.35 963.21,-73.57 972.69,-78.29 973.57,-71.35"/>
</a>
</g>
</g>
<!-- Node11 -->
<g id="Node000011" class="node">
<title>Node11</title>
<g id="a_Node000011"><a xlink:href="structDGtal_1_1concepts_1_1CDynamicSegmentComputer.html" target="_top" xlink:title="Aim: Defines the concept describing a dynamic segment computer, &#160;&#160;ie. a model of CSegment that can ex...">
<polygon fill="white" stroke="#666666" points="1158,-55.5 1008,-55.5 1008,-25.5 1158,-25.5 1158,-55.5"/>
<text text-anchor="start" x="1016" y="-43.5" font-family="FreeSans" font-size="10.00">DGtal::concepts::CDynamic</text>
<text text-anchor="middle" x="1083" y="-32.5" font-family="FreeSans" font-size="10.00">SegmentComputer&lt; T &gt;</text>
</a>
</g>
</g>
<!-- Node1&#45;&gt;Node11 -->
<g id="edge10_Node000001_Node000011" class="edge">
<title>Node1&#45;&gt;Node11</title>
<g id="a_edge10_Node000001_Node000011"><a xlink:title=" ">
<path fill="none" stroke="#63b8ff" d="M973.22,-54.17C984.71,-52.73 996.46,-51.25 1007.78,-49.83"/>
<polygon fill="#63b8ff" stroke="#63b8ff" points="972.69,-50.71 963.21,-55.43 973.57,-57.65 972.69,-50.71"/>
</a>
</g>
</g>
<!-- Node2 -->
<g id="Node000002" class="node">
<title>Node2</title>
<g id="a_Node000002"><a xlink:href="structDGtal_1_1concepts_1_1CIncrementalSegmentComputer.html" target="_top" xlink:title="Aim: Defines the concept describing an incremental segment computer, &#160;&#160;ie. a model of CSegmentFactory...">
<polygon fill="white" stroke="#666666" points="781,-79.5 616,-79.5 616,-49.5 781,-49.5 781,-79.5"/>
<text text-anchor="start" x="624" y="-67.5" font-family="FreeSans" font-size="10.00">DGtal::concepts::CIncremental</text>
<text text-anchor="middle" x="698.5" y="-56.5" font-family="FreeSans" font-size="10.00">SegmentComputer&lt; T &gt;</text>
</a>
</g>
</g>
<!-- Node2&#45;&gt;Node1 -->
<g id="edge1_Node000001_Node000002" class="edge">
<title>Node2&#45;&gt;Node1</title>
<g id="a_edge1_Node000001_Node000002"><a xlink:title=" ">
<path fill="none" stroke="#63b8ff" d="M791.26,-64.5C799.83,-64.5 808.42,-64.5 816.77,-64.5"/>
<polygon fill="#63b8ff" stroke="#63b8ff" points="791.24,-61 781.24,-64.5 791.24,-68 791.24,-61"/>
</a>
</g>
</g>
<!-- Node3 -->
<g id="Node000003" class="node">
<title>Node3</title>
<g id="a_Node000003"><a xlink:href="structDGtal_1_1concepts_1_1CSegmentFactory.html" target="_top" xlink:title="Aim: Defines the concept describing a segment ie. a valid and not empty subrange, which can construct...">
<polygon fill="white" stroke="#666666" points="580,-79.5 430,-79.5 430,-49.5 580,-49.5 580,-79.5"/>
<text text-anchor="start" x="438" y="-67.5" font-family="FreeSans" font-size="10.00">DGtal::concepts::CSegment</text>
<text text-anchor="middle" x="505" y="-56.5" font-family="FreeSans" font-size="10.00">Factory&lt; T &gt;</text>
</a>
</g>
</g>
<!-- Node3&#45;&gt;Node2 -->
<g id="edge2_Node000002_Node000003" class="edge">
<title>Node3&#45;&gt;Node2</title>
<g id="a_edge2_Node000002_Node000003"><a xlink:title=" ">
<path fill="none" stroke="#63b8ff" d="M590.27,-64.5C598.71,-64.5 607.28,-64.5 615.71,-64.5"/>
<polygon fill="#63b8ff" stroke="#63b8ff" points="590.04,-61 580.04,-64.5 590.04,-68 590.04,-61"/>
</a>
</g>
</g>
<!-- Node4 -->
<g id="Node000004" class="node">
<title>Node4</title>
<g id="a_Node000004"><a xlink:href="structDGtal_1_1concepts_1_1CSegment.html" target="_top" xlink:title="Aim: Defines the concept describing a segment, ie. a valid and not empty range.">
<polygon fill="white" stroke="#666666" points="394,-74 215,-74 215,-55 394,-55 394,-74"/>
<text text-anchor="middle" x="304.5" y="-62" font-family="FreeSans" font-size="10.00">DGtal::concepts::CSegment&lt; T &gt;</text>
</a>
</g>
</g>
<!-- Node4&#45;&gt;Node3 -->
<g id="edge3_Node000003_Node000004" class="edge">
<title>Node4&#45;&gt;Node3</title>
<g id="a_edge3_Node000003_Node000004"><a xlink:title=" ">
<path fill="none" stroke="#63b8ff" d="M404.16,-64.5C412.83,-64.5 421.5,-64.5 429.91,-64.5"/>
<polygon fill="#63b8ff" stroke="#63b8ff" points="404.01,-61 394.01,-64.5 404.01,-68 404.01,-61"/>
</a>
</g>
</g>
<!-- Node5 -->
<g id="Node000005" class="node">
<title>Node5</title>
<g id="a_Node000005"><a xlink:href="structboost_1_1DefaultConstructible.html" target="_top" xlink:title="Go to http://www.sgi.com/tech/stl/DefaultConstructible.html.">
<polygon fill="white" stroke="#666666" points="179,-130 0,-130 0,-111 179,-111 179,-130"/>
<text text-anchor="middle" x="89.5" y="-118" font-family="FreeSans" font-size="10.00">boost::DefaultConstructible&lt; T &gt;</text>
</a>
</g>
</g>
<!-- Node5&#45;&gt;Node4 -->
<g id="edge4_Node000004_Node000005" class="edge">
<title>Node5&#45;&gt;Node4</title>
<g id="a_edge4_Node000004_Node000005"><a xlink:title=" ">
<path fill="none" stroke="#63b8ff" d="M151.6,-108.87C160.82,-106.88 170.18,-104.74 179,-102.5 212.3,-94.05 249.94,-82.24 275.04,-74.04"/>
<polygon fill="#63b8ff" stroke="#63b8ff" points="150.76,-105.47 141.7,-110.95 152.21,-112.32 150.76,-105.47"/>
</a>
</g>
</g>
<!-- Node6 -->
<g id="Node000006" class="node">
<title>Node6</title>
<g id="a_Node000006"><a xlink:href="structboost_1_1CopyConstructible.html" target="_top" xlink:title="Go to http://www.sgi.com/tech/stl/CopyConstructible.html.">
<polygon fill="white" stroke="#666666" points="173,-93 6,-93 6,-74 173,-74 173,-93"/>
<text text-anchor="middle" x="89.5" y="-81" font-family="FreeSans" font-size="10.00">boost::CopyConstructible&lt; T &gt;</text>
</a>
</g>
</g>
<!-- Node6&#45;&gt;Node4 -->
<g id="edge5_Node000004_Node000006" class="edge">
<title>Node6&#45;&gt;Node4</title>
<g id="a_edge5_Node000004_Node000006"><a xlink:title=" ">
<path fill="none" stroke="#63b8ff" d="M183.18,-75.23C193.71,-74.29 204.42,-73.34 214.89,-72.4"/>
<polygon fill="#63b8ff" stroke="#63b8ff" points="182.81,-71.75 173.16,-76.13 183.43,-78.72 182.81,-71.75"/>
</a>
</g>
</g>
<!-- Node7 -->
<g id="Node000007" class="node">
<title>Node7</title>
<g id="a_Node000007"><a xlink:href="structboost_1_1Assignable.html" target="_top" xlink:title="Go to http://www.sgi.com/tech/stl/Assignable.html.">
<polygon fill="white" stroke="#666666" points="155,-56 24,-56 24,-37 155,-37 155,-56"/>
<text text-anchor="middle" x="89.5" y="-44" font-family="FreeSans" font-size="10.00">boost::Assignable&lt; T &gt;</text>
</a>
</g>
</g>
<!-- Node7&#45;&gt;Node4 -->
<g id="edge6_Node000004_Node000007" class="edge">
<title>Node7&#45;&gt;Node4</title>
<g id="a_edge6_Node000004_Node000007"><a xlink:title=" ">
<path fill="none" stroke="#63b8ff" d="M165.55,-52.84C181.44,-54.18 198.35,-55.61 214.69,-57"/>
<polygon fill="#63b8ff" stroke="#63b8ff" points="165.53,-49.33 155.27,-51.97 164.94,-56.3 165.53,-49.33"/>
</a>
</g>
</g>
<!-- Node8 -->
<g id="Node000008" class="node">
<title>Node8</title>
<g id="a_Node000008"><a xlink:href="structboost_1_1EqualityComparable.html" target="_top" xlink:title="Go to http://www.sgi.com/tech/stl/EqualityComparable.html.">
<polygon fill="white" stroke="#666666" points="178,-19 1,-19 1,0 178,0 178,-19"/>
<text text-anchor="middle" x="89.5" y="-7" font-family="FreeSans" font-size="10.00">boost::EqualityComparable&lt; T &gt;</text>
</a>
</g>
</g>
<!-- Node8&#45;&gt;Node4 -->
<g id="edge7_Node000004_Node000008" class="edge">
<title>Node8&#45;&gt;Node4</title>
<g id="a_edge7_Node000004_Node000008"><a xlink:title=" ">
<path fill="none" stroke="#63b8ff" d="M147.8,-21.19C158.21,-23.49 168.95,-25.97 179,-28.5 211.18,-36.6 247.61,-47.31 272.71,-54.95"/>
<polygon fill="#63b8ff" stroke="#63b8ff" points="148.46,-17.75 137.95,-19.05 146.98,-24.59 148.46,-17.75"/>
</a>
</g>
</g>
<!-- Node10 -->
<g id="Node000010" class="node">
<title>Node10</title>
<g id="a_Node000010"><a xlink:href="structDGtal_1_1concepts_1_1CDynamicBidirectionalSegmentComputer.html" target="_top" xlink:title="Aim: Defines the concept describing a dynamic and bidirectional segment computer, ie....">
<polygon fill="white" stroke="#666666" points="1401,-79.5 1203,-79.5 1203,-49.5 1401,-49.5 1401,-79.5"/>
<text text-anchor="start" x="1211" y="-67.5" font-family="FreeSans" font-size="10.00">DGtal::concepts::CDynamic</text>
<text text-anchor="middle" x="1302" y="-56.5" font-family="FreeSans" font-size="10.00">BidirectionalSegmentComputer&lt; T &gt;</text>
</a>
</g>
</g>
<!-- Node9&#45;&gt;Node10 -->
<g id="edge9_Node000009_Node000010" class="edge">
<title>Node9&#45;&gt;Node10</title>
<g id="a_edge9_Node000009_Node000010"><a xlink:title=" ">
<path fill="none" stroke="#63b8ff" d="M1177.42,-78.17C1185.79,-77.24 1194.29,-76.3 1202.71,-75.37"/>
<polygon fill="#63b8ff" stroke="#63b8ff" points="1176.83,-74.71 1167.28,-79.29 1177.6,-81.67 1176.83,-74.71"/>
</a>
</g>
</g>
<!-- Node11&#45;&gt;Node10 -->
<g id="edge11_Node000011_Node000010" class="edge">
<title>Node11&#45;&gt;Node10</title>
<g id="a_edge11_Node000011_Node000010"><a xlink:title=" ">
<path fill="none" stroke="#63b8ff" d="M1168.31,-49.82C1179.58,-51.07 1191.22,-52.36 1202.7,-53.63"/>
<polygon fill="#63b8ff" stroke="#63b8ff" points="1168.4,-46.31 1158.07,-48.69 1167.63,-53.27 1168.4,-46.31"/>
</a>
</g>
</g>
</g>
</svg>
