<?xml version="1.0" encoding="UTF-8" standalone="no"?>
<!DOCTYPE svg PUBLIC "-//W3C//DTD SVG 1.1//EN"
 "http://www.w3.org/Graphics/SVG/1.1/DTD/svg11.dtd">
<!-- Generated by graphviz version 2.43.0 (0)
 -->
<!-- Title: DGtal::CanonicSCellEmbedder&lt; TKSpace &gt; Pages: 1 -->
<svg width="531pt" height="182pt"
 viewBox="0.00 0.00 531.00 182.00" xmlns="http://www.w3.org/2000/svg" xmlns:xlink="http://www.w3.org/1999/xlink">
<g id="graph0" class="graph" transform="scale(1 1) rotate(0) translate(4 178)">
<title>DGtal::CanonicSCellEmbedder&lt; TKSpace &gt;</title>
<!-- Node1 -->
<g id="Node000001" class="node">
<title>Node1</title>
<g id="a_Node000001"><a xlink:title="Aim: A trivial embedder for signed cell, which corresponds to the canonic injection of cell centroids...">
<polygon fill="#999999" stroke="#666666" points="164,-102 0,-102 0,-72 164,-72 164,-102"/>
<text text-anchor="start" x="8" y="-90" font-family="FreeSans" font-size="10.00">DGtal::CanonicSCellEmbedder</text>
<text text-anchor="middle" x="82" y="-79" font-family="FreeSans" font-size="10.00">&lt; TKSpace &gt;</text>
</a>
</g>
</g>
<!-- Node2 -->
<g id="Node000002" class="node">
<title>Node2</title>
<g id="a_Node000002"><a xlink:href="structDGtal_1_1CanonicSCellEmbedder.html" target="_top" xlink:title=" ">
<polygon fill="white" stroke="#666666" points="521,-174 357,-174 357,-144 521,-144 521,-174"/>
<text text-anchor="start" x="365" y="-162" font-family="FreeSans" font-size="10.00">DGtal::CanonicSCellEmbedder</text>
<text text-anchor="middle" x="439" y="-151" font-family="FreeSans" font-size="10.00">&lt; Z3i::KSpace &gt;</text>
</a>
</g>
</g>
<!-- Node1&#45;&gt;Node2 -->
<g id="edge1_Node000001_Node000002" class="edge">
<title>Node1&#45;&gt;Node2</title>
<g id="a_edge1_Node000001_Node000002"><a xlink:title=" ">
<path fill="none" stroke="orange" stroke-dasharray="5,2" d="M136.4,-105.27C151.06,-109.86 167.04,-114.48 182,-118 239.94,-131.64 306.34,-142.13 356.99,-149.08"/>
<polygon fill="orange" stroke="orange" points="137.08,-101.81 126.48,-102.11 134.95,-108.48 137.08,-101.81"/>
</a>
</g>
<text text-anchor="middle" x="259.5" y="-148" font-family="FreeSans" font-size="10.00" fill="grey"> &lt; Z3i::KSpace &gt;</text>
</g>
<!-- Node3 -->
<g id="Node000003" class="node">
<title>Node3</title>
<g id="a_Node000003"><a xlink:href="structDGtal_1_1CanonicSCellEmbedder.html" target="_top" xlink:title=" ">
<polygon fill="white" stroke="#666666" points="521,-126 357,-126 357,-96 521,-96 521,-126"/>
<text text-anchor="start" x="365" y="-114" font-family="FreeSans" font-size="10.00">DGtal::CanonicSCellEmbedder</text>
<text text-anchor="middle" x="439" y="-103" font-family="FreeSans" font-size="10.00">&lt; KSpace &gt;</text>
</a>
</g>
</g>
<!-- Node1&#45;&gt;Node3 -->
<g id="edge2_Node000001_Node000003" class="edge">
<title>Node1&#45;&gt;Node3</title>
<g id="a_edge2_Node000001_Node000003"><a xlink:title=" ">
<path fill="none" stroke="orange" stroke-dasharray="5,2" d="M174.43,-93.18C230.84,-97 302.56,-101.84 356.93,-105.52"/>
<polygon fill="orange" stroke="orange" points="174.66,-89.69 164.44,-92.51 174.19,-96.67 174.66,-89.69"/>
</a>
</g>
<text text-anchor="middle" x="259.5" y="-106" font-family="FreeSans" font-size="10.00" fill="grey"> &lt; KSpace &gt;</text>
</g>
<!-- Node4 -->
<g id="Node000004" class="node">
<title>Node4</title>
<g id="a_Node000004"><a xlink:href="structDGtal_1_1CanonicSCellEmbedder.html" target="_top" xlink:title=" ">
<polygon fill="white" stroke="#666666" points="523,-78 355,-78 355,-48 523,-48 523,-78"/>
<text text-anchor="start" x="363" y="-66" font-family="FreeSans" font-size="10.00">DGtal::CanonicSCellEmbedder</text>
<text text-anchor="middle" x="439" y="-55" font-family="FreeSans" font-size="10.00">&lt; DGtal::KhalimskySpaceND &gt;</text>
</a>
</g>
</g>
<!-- Node1&#45;&gt;Node4 -->
<g id="edge3_Node000001_Node000004" class="edge">
<title>Node1&#45;&gt;Node4</title>
<g id="a_edge3_Node000001_Node000004"><a xlink:title=" ">
<path fill="none" stroke="orange" stroke-dasharray="5,2" d="M174.23,-79.57C176.85,-79.37 179.44,-79.18 182,-79 239.74,-74.86 304.86,-70.8 354.96,-67.81"/>
<polygon fill="orange" stroke="orange" points="173.74,-76.09 164.03,-80.33 174.27,-83.07 173.74,-76.09"/>
</a>
</g>
<text text-anchor="middle" x="259.5" y="-82" font-family="FreeSans" font-size="10.00" fill="grey"> &lt; DGtal::KhalimskySpaceND &gt;</text>
</g>
<!-- Node5 -->
<g id="Node000005" class="node">
<title>Node5</title>
<g id="a_Node000005"><a xlink:href="structDGtal_1_1CanonicSCellEmbedder.html" target="_top" xlink:title=" ">
<polygon fill="white" stroke="#666666" points="521,-30 357,-30 357,0 521,0 521,-30"/>
<text text-anchor="start" x="365" y="-18" font-family="FreeSans" font-size="10.00">DGtal::CanonicSCellEmbedder</text>
<text text-anchor="middle" x="439" y="-7" font-family="FreeSans" font-size="10.00">&lt; KSp &gt;</text>
</a>
</g>
</g>
<!-- Node1&#45;&gt;Node5 -->
<g id="edge4_Node000001_Node000005" class="edge">
<title>Node1&#45;&gt;Node5</title>
<g id="a_edge4_Node000001_Node000005"><a xlink:title=" ">
<path fill="none" stroke="orange" stroke-dasharray="5,2" d="M132.5,-68.66C148.17,-63.35 165.66,-57.94 182,-54 239.8,-40.07 306.2,-30.13 356.89,-23.76"/>
<polygon fill="orange" stroke="orange" points="131.32,-65.36 123.01,-71.93 133.6,-71.98 131.32,-65.36"/>
</a>
</g>
<text text-anchor="middle" x="259.5" y="-57" font-family="FreeSans" font-size="10.00" fill="grey"> &lt; KSp &gt;</text>
</g>
</g>
</svg>
