<?xml version="1.0" encoding="UTF-8" standalone="no"?>
<!DOCTYPE svg PUBLIC "-//W3C//DTD SVG 1.1//EN"
 "http://www.w3.org/Graphics/SVG/1.1/DTD/svg11.dtd">
<!-- Generated by graphviz version 2.43.0 (0)
 -->
<!-- Title: DGtal::ConvexHullCommonKernel&lt; dim, TCoordinateInteger, TInternalInteger &gt; Pages: 1 -->
<!--zoomable 372 -->

<svg id="main" version="1.1" xmlns="http://www.w3.org/2000/svg" xmlns:xlink="http://www.w3.org/1999/xlink" xml:space="preserve" onload="init(evt)">
<style type="text/css"><![CDATA[
.node, .edge {opacity: 0.7;}
.node.selected, .edge.selected {opacity: 1;}
.edge:hover path { stroke: red; }
.edge:hover polygon { stroke: red; fill: red; }
]]></style>

<defs>
  <circle id="rim" cx="0" cy="0" r="7"/>
  <circle id="rim2" cx="0" cy="0" r="3.5"/>
  <g id="zoomPlus">
    <use xlink:href="#rim" fill="#404040"><set attributeName="fill" to="#808080" begin="zoomplus.mouseover" end="zoomplus.mouseout"/></use>
    <path d="M-4,0h8M0,-4v8" fill="none" stroke="white" stroke-width="1.5" pointer-events="none"/>
  </g>
  <g id="zoomMin">
    <use xlink:href="#rim" fill="#404040"><set attributeName="fill" to="#808080" begin="zoomminus.mouseover" end="zoomminus.mouseout"/></use>
    <path d="M-4,0h8" fill="none" stroke="white" stroke-width="1.5" pointer-events="none"/>
  </g>
  <g id="arrowUp" transform="translate(30 24)">
    <use xlink:href="#rim"/>
    <path pointer-events="none" fill="none" stroke="white" stroke-width="1.5" d="M0,-3.0v7 M-2.5,-0.5L0,-3.0L2.5,-0.5"/>
  </g>
  <g id="arrowRight" transform="rotate(90) translate(36 -43)">
    <use xlink:href="#rim"/>
    <path pointer-events="none" fill="none" stroke="white" stroke-width="1.5" d="M0,-3.0v7 M-2.5,-0.5L0,-3.0L2.5,-0.5"/>
  </g>
  <g id="arrowDown" transform="rotate(180) translate(-30 -48)">
    <use xlink:href="#rim"/>
    <path pointer-events="none" fill="none" stroke="white" stroke-width="1.5" d="M0,-3.0v7 M-2.5,-0.5L0,-3.0L2.5,-0.5"/>
  </g>
  <g id="arrowLeft" transform="rotate(270) translate(-36 17)">
    <use xlink:href="#rim"/>
    <path pointer-events="none" fill="none" stroke="white" stroke-width="1.5" d="M0,-3.0v7 M-2.5,-0.5L0,-3.0L2.5,-0.5"/>
  </g>
  <g id="resetDef">
    <use xlink:href="#rim2" fill="#404040"><set attributeName="fill" to="#808080" begin="reset.mouseover" end="reset.mouseout"/></use>
  </g>
</defs>
<script type="application/ecmascript">
var viewWidth = 798;
var viewHeight = 372;
var sectionId = 'dynsection-0';
</script>
<script type="application/ecmascript" xlink:href="svg.min.js"/>
<svg id="graph" class="graph">
<g id="viewport">
<title>DGtal::ConvexHullCommonKernel&lt; dim, TCoordinateInteger, TInternalInteger &gt;</title>
<!-- Node1 -->
<g id="Node000001" class="node">
<title>Node1</title>
<g id="a_Node000001"><a xlink:title="Aim: the common part of all geometric kernels for computing the convex hull or Delaunay triangulation...">
<polygon fill="#999999" stroke="#666666" points="182,-218 0,-218 0,-177 182,-177 182,-218"/>
<text text-anchor="start" x="8" y="-206" font-family="FreeSans" font-size="10.00">DGtal::ConvexHullCommonKernel</text>
<text text-anchor="start" x="8" y="-195" font-family="FreeSans" font-size="10.00">&lt; dim, TCoordinateInteger,</text>
<text text-anchor="middle" x="91" y="-184" font-family="FreeSans" font-size="10.00"> TInternalInteger &gt;</text>
</a>
</g>
</g>
<!-- Node2 -->
<g id="Node000002" class="node">
<title>Node2</title>
<g id="a_Node000002"><a xlink:href="structDGtal_1_1ConvexHullIntegralKernel.html" target="_top" xlink:title=" ">
<polygon fill="white" stroke="#666666" points="790,-360 646,-360 646,-319 790,-319 790,-360"/>
<text text-anchor="start" x="654" y="-348" font-family="FreeSans" font-size="10.00">DGtal::ConvexHullIntegral</text>
<text text-anchor="start" x="654" y="-337" font-family="FreeSans" font-size="10.00">Kernel&lt; dim, DGtal::int64</text>
<text text-anchor="middle" x="718" y="-326" font-family="FreeSans" font-size="10.00">_t, DGtal::int64_t &gt;</text>
</a>
</g>
</g>
<!-- Node1&#45;&gt;Node2 -->
<g id="edge1_Node000001_Node000002" class="edge">
<title>Node1&#45;&gt;Node2</title>
<g id="a_edge1_Node000001_Node000002"><a xlink:title=" ">
<path fill="none" stroke="#63b8ff" d="M122.54,-224.87C165.29,-261.08 247.07,-322.96 330,-345.5 437.15,-374.62 567.23,-363.65 645.98,-352.21"/>
<polygon fill="#63b8ff" stroke="#63b8ff" points="124.64,-222.06 114.77,-218.2 120.08,-227.37 124.64,-222.06"/>
</a>
</g>
</g>
<!-- Node3 -->
<g id="Node000003" class="node">
<title>Node3</title>
<g id="a_Node000003"><a xlink:href="structDGtal_1_1ConvexHullIntegralKernel.html" target="_top" xlink:title="Aim: a geometric kernel to compute the convex hull of digital points with integer&#45;only arithmetic.">
<polygon fill="white" stroke="#666666" points="510.5,-336 331.5,-336 331.5,-295 510.5,-295 510.5,-336"/>
<text text-anchor="start" x="339.5" y="-324" font-family="FreeSans" font-size="10.00">DGtal::ConvexHullIntegral</text>
<text text-anchor="start" x="339.5" y="-313" font-family="FreeSans" font-size="10.00">Kernel&lt; dim, TCoordinateInteger,</text>
<text text-anchor="middle" x="421" y="-302" font-family="FreeSans" font-size="10.00"> TInternalInteger &gt;</text>
</a>
</g>
</g>
<!-- Node1&#45;&gt;Node3 -->
<g id="edge2_Node000001_Node000003" class="edge">
<title>Node1&#45;&gt;Node3</title>
<g id="a_edge2_Node000001_Node000003"><a xlink:title=" ">
<path fill="none" stroke="#63b8ff" d="M151.93,-221.84C167.53,-228.04 184.36,-234.62 200,-240.5 257.37,-262.06 271.94,-266.88 330,-286.5 338.24,-289.29 346.93,-292.16 355.52,-294.97"/>
<polygon fill="#63b8ff" stroke="#63b8ff" points="152.98,-218.49 142.39,-218.03 150.38,-224.99 152.98,-218.49"/>
</a>
</g>
</g>
<!-- Node4 -->
<g id="Node000004" class="node">
<title>Node4</title>
<g id="a_Node000004"><a xlink:href="structDGtal_1_1ConvexHullRationalKernel.html" target="_top" xlink:title="Aim: a geometric kernel to compute the convex hull of floating points with integer&#45;only arithmetic....">
<polygon fill="white" stroke="#666666" points="510.5,-277 331.5,-277 331.5,-236 510.5,-236 510.5,-277"/>
<text text-anchor="start" x="339.5" y="-265" font-family="FreeSans" font-size="10.00">DGtal::ConvexHullRational</text>
<text text-anchor="start" x="339.5" y="-254" font-family="FreeSans" font-size="10.00">Kernel&lt; dim, TCoordinateInteger,</text>
<text text-anchor="middle" x="421" y="-243" font-family="FreeSans" font-size="10.00"> TInternalInteger &gt;</text>
</a>
</g>
</g>
<!-- Node1&#45;&gt;Node4 -->
<g id="edge4_Node000001_Node000004" class="edge">
<title>Node1&#45;&gt;Node4</title>
<g id="a_edge4_Node000001_Node000004"><a xlink:title=" ">
<path fill="none" stroke="#63b8ff" d="M192,-215.49C236.42,-223.48 288.26,-232.8 331.27,-240.54"/>
<polygon fill="#63b8ff" stroke="#63b8ff" points="192.52,-212.03 182.06,-213.7 191.28,-218.92 192.52,-212.03"/>
</a>
</g>
</g>
<!-- Node5 -->
<g id="Node000005" class="node">
<title>Node5</title>
<g id="a_Node000005"><a xlink:href="structDGtal_1_1DelaunayIntegralKernel.html" target="_top" xlink:title="Aim: a geometric kernel to compute the Delaunay triangulation of digital points with integer&#45;only ari...">
<polygon fill="white" stroke="#666666" points="503.5,-218 338.5,-218 338.5,-177 503.5,-177 503.5,-218"/>
<text text-anchor="start" x="346.5" y="-206" font-family="FreeSans" font-size="10.00">DGtal::DelaunayIntegralKernel</text>
<text text-anchor="start" x="346.5" y="-195" font-family="FreeSans" font-size="10.00">&lt; dim, TCoordinateInteger,</text>
<text text-anchor="middle" x="421" y="-184" font-family="FreeSans" font-size="10.00"> TInternalInteger &gt;</text>
</a>
</g>
</g>
<!-- Node1&#45;&gt;Node5 -->
<g id="edge5_Node000001_Node000005" class="edge">
<title>Node1&#45;&gt;Node5</title>
<g id="a_edge5_Node000001_Node000005"><a xlink:title=" ">
<path fill="none" stroke="#63b8ff" d="M192.22,-197.5C239.03,-197.5 294.04,-197.5 338.27,-197.5"/>
<polygon fill="#63b8ff" stroke="#63b8ff" points="192.06,-194 182.06,-197.5 192.06,-201 192.06,-194"/>
</a>
</g>
</g>
<!-- Node6 -->
<g id="Node000006" class="node">
<title>Node6</title>
<g id="a_Node000006"><a xlink:href="structDGtal_1_1DelaunayRationalKernel.html" target="_top" xlink:title="Aim: a geometric kernel to compute the Delaunay triangulation of a range of floating points with inte...">
<polygon fill="white" stroke="#666666" points="505,-159 337,-159 337,-118 505,-118 505,-159"/>
<text text-anchor="start" x="345" y="-147" font-family="FreeSans" font-size="10.00">DGtal::DelaunayRationalKernel</text>
<text text-anchor="start" x="345" y="-136" font-family="FreeSans" font-size="10.00">&lt; dim, TCoordinateInteger,</text>
<text text-anchor="middle" x="421" y="-125" font-family="FreeSans" font-size="10.00"> TInternalInteger &gt;</text>
</a>
</g>
</g>
<!-- Node1&#45;&gt;Node6 -->
<g id="edge6_Node000001_Node000006" class="edge">
<title>Node1&#45;&gt;Node6</title>
<g id="a_edge6_Node000001_Node000006"><a xlink:title=" ">
<path fill="none" stroke="#63b8ff" d="M192.12,-179.49C238.46,-171.15 292.86,-161.37 336.89,-153.45"/>
<polygon fill="#63b8ff" stroke="#63b8ff" points="191.28,-176.08 182.06,-181.3 192.52,-182.97 191.28,-176.08"/>
</a>
</g>
</g>
<!-- Node7 -->
<g id="Node000007" class="node">
<title>Node7</title>
<g id="a_Node000007"><a xlink:href="structDGtal_1_1ConvexHullCommonKernel.html" target="_top" xlink:title=" ">
<polygon fill="white" stroke="#666666" points="512,-100 330,-100 330,-59 512,-59 512,-100"/>
<text text-anchor="start" x="338" y="-88" font-family="FreeSans" font-size="10.00">DGtal::ConvexHullCommonKernel</text>
<text text-anchor="start" x="338" y="-77" font-family="FreeSans" font-size="10.00">&lt; dim, DGtal::int64_t, DGtal</text>
<text text-anchor="middle" x="421" y="-66" font-family="FreeSans" font-size="10.00">::int64_t &gt;</text>
</a>
</g>
</g>
<!-- Node1&#45;&gt;Node7 -->
<g id="edge7_Node000001_Node000007" class="edge">
<title>Node1&#45;&gt;Node7</title>
<g id="a_edge7_Node000001_Node000007"><a xlink:title=" ">
<path fill="none" stroke="orange" stroke-dasharray="5,2" d="M129.51,-171.03C149.63,-157.85 175.31,-142.62 200,-132.5 241.26,-115.58 289.18,-103.25 329.74,-94.76"/>
<polygon fill="orange" stroke="orange" points="127.35,-168.26 120.97,-176.72 131.23,-174.09 127.35,-168.26"/>
</a>
</g>
<text text-anchor="start" x="207" y="-146.5" font-family="FreeSans" font-size="10.00" fill="grey"> &lt; dim, DGtal::int64</text>
<text text-anchor="middle" x="256" y="-135.5" font-family="FreeSans" font-size="10.00" fill="grey">_t, DGtal::int64_t &gt;</text>
</g>
<!-- Node8 -->
<g id="Node000008" class="node">
<title>Node8</title>
<g id="a_Node000008"><a xlink:href="structDGtal_1_1ConvexHullCommonKernel.html" target="_top" xlink:title=" ">
<polygon fill="white" stroke="#666666" points="512,-41 330,-41 330,0 512,0 512,-41"/>
<text text-anchor="start" x="338" y="-29" font-family="FreeSans" font-size="10.00">DGtal::ConvexHullCommonKernel</text>
<text text-anchor="start" x="338" y="-18" font-family="FreeSans" font-size="10.00">&lt; dim+1, DGtal::int64_t,</text>
<text text-anchor="middle" x="421" y="-7" font-family="FreeSans" font-size="10.00"> DGtal::int64_t &gt;</text>
</a>
</g>
</g>
<!-- Node1&#45;&gt;Node8 -->
<g id="edge8_Node000001_Node000008" class="edge">
<title>Node1&#45;&gt;Node8</title>
<g id="a_edge8_Node000001_Node000008"><a xlink:title=" ">
<path fill="none" stroke="orange" stroke-dasharray="5,2" d="M109.48,-168.21C128.22,-139.39 160.66,-96.36 200,-72.5 239.01,-48.84 287.96,-35.95 329.77,-28.92"/>
<polygon fill="orange" stroke="orange" points="106.52,-166.34 104.11,-176.66 112.42,-170.09 106.52,-166.34"/>
</a>
</g>
<text text-anchor="start" x="200" y="-86.5" font-family="FreeSans" font-size="10.00" fill="grey"> &lt; dim+1, DGtal::int64</text>
<text text-anchor="middle" x="256" y="-75.5" font-family="FreeSans" font-size="10.00" fill="grey">_t, DGtal::int64_t &gt;</text>
</g>
<!-- Node3&#45;&gt;Node2 -->
<g id="edge3_Node000003_Node000002" class="edge">
<title>Node3&#45;&gt;Node2</title>
<g id="a_edge3_Node000003_Node000002"><a xlink:title=" ">
<path fill="none" stroke="orange" stroke-dasharray="5,2" d="M520.96,-320.54C554.93,-322.59 593.16,-325.25 628,-328.5 633.74,-329.03 639.67,-329.65 645.63,-330.3"/>
<polygon fill="orange" stroke="orange" points="520.75,-317.02 510.56,-319.92 520.33,-324.01 520.75,-317.02"/>
</a>
</g>
<text text-anchor="start" x="530" y="-342.5" font-family="FreeSans" font-size="10.00" fill="grey"> &lt; dim, DGtal::int64</text>
<text text-anchor="middle" x="579" y="-331.5" font-family="FreeSans" font-size="10.00" fill="grey">_t, DGtal::int64_t &gt;</text>
</g>
</g>
</svg>

<g id="navigator" transform="translate(0 0)" fill="#404254">
  <rect fill="#f2f5e9" fill-opacity="0.5" stroke="#606060" stroke-width=".5" x="0" y="0" width="60" height="60"/>
  <use id="zoomplus" xlink:href="#zoomPlus" x="17" y="9" onmousedown="handleZoom(evt,'in')"/>
  <use id="zoomminus" xlink:href="#zoomMin" x="42" y="9" onmousedown="handleZoom(evt,'out')"/>
  <use id="reset" xlink:href="#resetDef" x="30" y="36" onmousedown="handleReset()"/>
   <use id="arrowup" xlink:href="#arrowUp" x="0" y="0" onmousedown="handlePan(0,-1)"/>
  <use id="arrowright" xlink:href="#arrowRight" x="0" y="0" onmousedown="handlePan(1,0)"/>
  <use id="arrowdown" xlink:href="#arrowDown" x="0" y="0" onmousedown="handlePan(0,1)"/>
  <use id="arrowleft" xlink:href="#arrowLeft" x="0" y="0" onmousedown="handlePan(-1,0)"/>
</g>
<svg viewBox="0 0 15 15" width="100%" height="30px" preserveAspectRatio="xMaxYMin meet">
 <g id="arrow_out" transform="scale(0.3 0.3)">
  <a xlink:href="structDGtal_1_1ConvexHullCommonKernel__inherit__graph_org.svg" target="_base">
   <rect id="button" ry="5" rx="5" y="6" x="6" height="38" width="38"
        fill="#f2f5e9" fill-opacity="0.5" stroke="#606060" stroke-width="1.0"/>
   <path id="arrow"
     d="M 11.500037,31.436501 C 11.940474,20.09759 22.043105,11.32322 32.158766,21.979434 L 37.068811,17.246167 C 37.068811,17.246167 37.088388,32 37.088388,32 L 22.160133,31.978069 C 22.160133,31.978069 26.997745,27.140456 26.997745,27.140456 C 18.528582,18.264221 13.291696,25.230495 11.500037,31.436501 z"
     style="fill:#404040;"/>
  </a>
 </g>
</svg>

<style type='text/css'>
<![CDATA[
[data-mouse-over-selected='false'] { opacity: 0.7; }
[data-mouse-over-selected='true']  { opacity: 1.0; }
]]>
</style>
<script type="application/ecmascript"><![CDATA[
document.addEventListener('DOMContentLoaded', (event) => {
  highlightEdges();
  highlightAdjacentNodes();
});
]]></script>
</svg>
