<?xml version="1.0" encoding="UTF-8" standalone="no"?>
<!DOCTYPE svg PUBLIC "-//W3C//DTD SVG 1.1//EN"
 "http://www.w3.org/Graphics/SVG/1.1/DTD/svg11.dtd">
<!-- Generated by graphviz version 2.43.0 (0)
 -->
<!-- Title: DGtal::concepts::CUnaryFunctor&lt; X, A, R &gt; Pages: 1 -->
<svg width="2122pt" height="664pt"
 viewBox="0.00 0.00 2122.00 664.47" xmlns="http://www.w3.org/2000/svg" xmlns:xlink="http://www.w3.org/1999/xlink">
<g id="graph0" class="graph" transform="scale(1 1) rotate(0) translate(4 660.47)">
<title>DGtal::concepts::CUnaryFunctor&lt; X, A, R &gt;</title>
<!-- Node1 -->
<g id="Node000001" class="node">
<title>Node1</title>
<g id="a_Node000001"><a xlink:title="Aim: Defines a unary functor, which associates arguments to results.">
<polygon fill="#999999" stroke="#666666" points="541,-318 369,-318 369,-288 541,-288 541,-318"/>
<text text-anchor="start" x="377" y="-306" font-family="FreeSans" font-size="10.00">DGtal::concepts::CUnaryFunctor</text>
<text text-anchor="middle" x="455" y="-295" font-family="FreeSans" font-size="10.00">&lt; X, A, R &gt;</text>
</a>
</g>
</g>
<!-- Node4 -->
<g id="Node000004" class="node">
<title>Node4</title>
<g id="a_Node000004"><a xlink:href="structDGtal_1_1concepts_1_1CPointFunctor.html" target="_top" xlink:title=" ">
<polygon fill="white" stroke="#666666" points="1443,-587.5 1250,-587.5 1250,-568.5 1443,-568.5 1443,-587.5"/>
<text text-anchor="middle" x="1346.5" y="-575.5" font-family="FreeSans" font-size="10.00">DGtal::concepts::CPointFunctor&lt; I &gt;</text>
</a>
</g>
</g>
<!-- Node1&#45;&gt;Node4 -->
<g id="edge3_Node000001_Node000004" class="edge">
<title>Node1&#45;&gt;Node4</title>
<g id="a_edge3_Node000001_Node000004"><a xlink:title=" ">
<path fill="none" stroke="#63b8ff" d="M457.24,-328.38C461.41,-382.53 479.61,-508.94 559,-564 805.6,-735.02 1208.37,-622.75 1317.49,-587.52"/>
<polygon fill="#63b8ff" stroke="#63b8ff" points="460.72,-328.01 456.56,-318.26 453.74,-328.48 460.72,-328.01"/>
</a>
</g>
</g>
<!-- Node9 -->
<g id="Node000009" class="node">
<title>Node9</title>
<g id="a_Node000009"><a xlink:href="structDGtal_1_1concepts_1_1CPredicate.html" target="_top" xlink:title=" ">
<polygon fill="white" stroke="#666666" points="1422.5,-489 1270.5,-489 1270.5,-459 1422.5,-459 1422.5,-489"/>
<text text-anchor="start" x="1278.5" y="-477" font-family="FreeSans" font-size="10.00">DGtal::concepts::CPredicate</text>
<text text-anchor="middle" x="1346.5" y="-466" font-family="FreeSans" font-size="10.00">&lt; T, T::Point &gt;</text>
</a>
</g>
</g>
<!-- Node1&#45;&gt;Node9 -->
<g id="edge9_Node000001_Node000009" class="edge">
<title>Node1&#45;&gt;Node9</title>
<g id="a_edge9_Node000001_Node000009"><a xlink:title=" ">
<path fill="none" stroke="#63b8ff" d="M466.01,-327.69C480.84,-360.63 512.05,-417.72 559,-443 680.22,-508.26 1097.88,-489.99 1270.22,-479.26"/>
<polygon fill="#63b8ff" stroke="#63b8ff" points="469.13,-326.09 461.93,-318.31 462.71,-328.87 469.13,-326.09"/>
</a>
</g>
</g>
<!-- Node12 -->
<g id="Node000012" class="node">
<title>Node12</title>
<g id="a_Node000012"><a xlink:href="structDGtal_1_1concepts_1_1CPredicate.html" target="_top" xlink:title=" ">
<polygon fill="white" stroke="#666666" points="1422.5,-371 1270.5,-371 1270.5,-341 1422.5,-341 1422.5,-371"/>
<text text-anchor="start" x="1278.5" y="-359" font-family="FreeSans" font-size="10.00">DGtal::concepts::CPredicate</text>
<text text-anchor="middle" x="1346.5" y="-348" font-family="FreeSans" font-size="10.00">&lt; T, T::Surfel &gt;</text>
</a>
</g>
</g>
<!-- Node1&#45;&gt;Node12 -->
<g id="edge12_Node000001_Node000012" class="edge">
<title>Node1&#45;&gt;Node12</title>
<g id="a_edge12_Node000001_Node000012"><a xlink:title=" ">
<path fill="none" stroke="#63b8ff" d="M551.24,-317.17C553.85,-317.46 556.44,-317.74 559,-318 628.09,-325.01 645.64,-323.4 715,-327 915.53,-337.4 1152.04,-347.77 1270.27,-352.82"/>
<polygon fill="#63b8ff" stroke="#63b8ff" points="551.42,-313.67 541.08,-315.98 550.6,-320.62 551.42,-313.67"/>
</a>
</g>
</g>
<!-- Node14 -->
<g id="Node000014" class="node">
<title>Node14</title>
<g id="a_Node000014"><a xlink:href="structDGtal_1_1concepts_1_1CPredicate.html" target="_top" xlink:title=" ">
<polygon fill="white" stroke="#666666" points="1422.5,-426 1270.5,-426 1270.5,-396 1422.5,-396 1422.5,-426"/>
<text text-anchor="start" x="1278.5" y="-414" font-family="FreeSans" font-size="10.00">DGtal::concepts::CPredicate</text>
<text text-anchor="middle" x="1346.5" y="-403" font-family="FreeSans" font-size="10.00">&lt; T, T::Vertex &gt;</text>
</a>
</g>
</g>
<!-- Node1&#45;&gt;Node14 -->
<g id="edge14_Node000001_Node000014" class="edge">
<title>Node1&#45;&gt;Node14</title>
<g id="a_edge14_Node000001_Node000014"><a xlink:title=" ">
<path fill="none" stroke="#63b8ff" d="M503.82,-321.52C520.98,-327.43 540.62,-333.37 559,-337 853.19,-395.11 935.42,-340.72 1232,-385 1250.29,-387.73 1270.01,-391.83 1287.8,-395.97"/>
<polygon fill="#63b8ff" stroke="#63b8ff" points="504.63,-318.09 494.03,-318.06 502.3,-324.69 504.63,-318.09"/>
</a>
</g>
</g>
<!-- Node16 -->
<g id="Node000016" class="node">
<title>Node16</title>
<g id="a_Node000016"><a xlink:href="structDGtal_1_1concepts_1_1CUnaryFunctor.html" target="_top" xlink:title=" ">
<polygon fill="white" stroke="#666666" points="887,-318 715,-318 715,-288 887,-288 887,-318"/>
<text text-anchor="start" x="723" y="-306" font-family="FreeSans" font-size="10.00">DGtal::concepts::CUnaryFunctor</text>
<text text-anchor="middle" x="801" y="-295" font-family="FreeSans" font-size="10.00">&lt; T, T::Cell, T::RealPoint &gt;</text>
</a>
</g>
</g>
<!-- Node1&#45;&gt;Node16 -->
<g id="edge16_Node000001_Node000016" class="edge">
<title>Node1&#45;&gt;Node16</title>
<g id="a_edge16_Node000001_Node000016"><a xlink:title=" ">
<path fill="none" stroke="orange" stroke-dasharray="5,2" d="M551.12,-303C602.38,-303 665.1,-303 714.75,-303"/>
<polygon fill="orange" stroke="orange" points="551.03,-299.5 541.03,-303 551.03,-306.5 551.03,-299.5"/>
</a>
</g>
<text text-anchor="middle" x="628" y="-306" font-family="FreeSans" font-size="10.00" fill="grey"> &lt; T, T::Cell, T::RealPoint &gt;</text>
</g>
<!-- Node18 -->
<g id="Node000018" class="node">
<title>Node18</title>
<g id="a_Node000018"><a xlink:href="structDGtal_1_1concepts_1_1CUnaryFunctor.html" target="_top" xlink:title=" ">
<polygon fill="white" stroke="#666666" points="887,-270 715,-270 715,-240 887,-240 887,-270"/>
<text text-anchor="start" x="723" y="-258" font-family="FreeSans" font-size="10.00">DGtal::concepts::CUnaryFunctor</text>
<text text-anchor="middle" x="801" y="-247" font-family="FreeSans" font-size="10.00">&lt; T, T::Point, T::RealPoint &gt;</text>
</a>
</g>
</g>
<!-- Node1&#45;&gt;Node18 -->
<g id="edge18_Node000001_Node000018" class="edge">
<title>Node1&#45;&gt;Node18</title>
<g id="a_edge18_Node000001_Node000018"><a xlink:title=" ">
<path fill="none" stroke="orange" stroke-dasharray="5,2" d="M551.27,-289.1C553.88,-288.73 556.46,-288.36 559,-288 610.75,-280.69 668.78,-272.74 714.93,-266.47"/>
<polygon fill="orange" stroke="orange" points="550.55,-285.66 541.14,-290.54 551.54,-292.59 550.55,-285.66"/>
</a>
</g>
<text text-anchor="middle" x="628" y="-291" font-family="FreeSans" font-size="10.00" fill="grey"> &lt; T, T::Point, T::RealPoint &gt;</text>
</g>
<!-- Node20 -->
<g id="Node000020" class="node">
<title>Node20</title>
<g id="a_Node000020"><a xlink:href="structDGtal_1_1concepts_1_1CUnaryFunctor.html" target="_top" xlink:title=" ">
<polygon fill="white" stroke="#666666" points="887,-556 715,-556 715,-526 887,-526 887,-556"/>
<text text-anchor="start" x="723" y="-544" font-family="FreeSans" font-size="10.00">DGtal::concepts::CUnaryFunctor</text>
<text text-anchor="middle" x="801" y="-533" font-family="FreeSans" font-size="10.00">&lt; T, T::Point, T::Value &gt;</text>
</a>
</g>
</g>
<!-- Node1&#45;&gt;Node20 -->
<g id="edge20_Node000001_Node000020" class="edge">
<title>Node1&#45;&gt;Node20</title>
<g id="a_edge20_Node000001_Node000020"><a xlink:title=" ">
<path fill="none" stroke="orange" stroke-dasharray="5,2" d="M460.39,-328.1C469.71,-373.21 496.03,-467.39 559,-512 603.7,-543.67 665.15,-550.65 714.81,-549.85"/>
<polygon fill="orange" stroke="orange" points="463.77,-327.15 458.42,-318 456.9,-328.49 463.77,-327.15"/>
</a>
</g>
<text text-anchor="middle" x="628" y="-552" font-family="FreeSans" font-size="10.00" fill="grey"> &lt; T, T::Point, T::Value &gt;</text>
</g>
<!-- Node24 -->
<g id="Node000024" class="node">
<title>Node24</title>
<g id="a_Node000024"><a xlink:href="structDGtal_1_1concepts_1_1CUnaryFunctor.html" target="_top" xlink:title=" ">
<polygon fill="white" stroke="#666666" points="887,-222 715,-222 715,-192 887,-192 887,-222"/>
<text text-anchor="start" x="723" y="-210" font-family="FreeSans" font-size="10.00">DGtal::concepts::CUnaryFunctor</text>
<text text-anchor="middle" x="801" y="-199" font-family="FreeSans" font-size="10.00">&lt; T, T::Point, bool &gt;</text>
</a>
</g>
</g>
<!-- Node1&#45;&gt;Node24 -->
<g id="edge25_Node000001_Node000024" class="edge">
<title>Node1&#45;&gt;Node24</title>
<g id="a_edge25_Node000001_Node000024"><a xlink:title=" ">
<path fill="none" stroke="orange" stroke-dasharray="5,2" d="M492.71,-283.27C511.99,-273.59 536.28,-262.44 559,-255 609.58,-238.44 668.09,-226.62 714.8,-218.86"/>
<polygon fill="orange" stroke="orange" points="490.99,-280.22 483.68,-287.88 494.17,-286.45 490.99,-280.22"/>
</a>
</g>
<text text-anchor="middle" x="628" y="-258" font-family="FreeSans" font-size="10.00" fill="grey"> &lt; T, T::Point, bool &gt;</text>
</g>
<!-- Node25 -->
<g id="Node000025" class="node">
<title>Node25</title>
<g id="a_Node000025"><a xlink:href="structDGtal_1_1concepts_1_1CUnaryFunctor.html" target="_top" xlink:title=" ">
<polygon fill="white" stroke="#666666" points="887,-442 715,-442 715,-412 887,-412 887,-442"/>
<text text-anchor="start" x="723" y="-430" font-family="FreeSans" font-size="10.00">DGtal::concepts::CUnaryFunctor</text>
<text text-anchor="middle" x="801" y="-419" font-family="FreeSans" font-size="10.00">&lt; T, TElement, bool &gt;</text>
</a>
</g>
</g>
<!-- Node1&#45;&gt;Node25 -->
<g id="edge26_Node000001_Node000025" class="edge">
<title>Node1&#45;&gt;Node25</title>
<g id="a_edge26_Node000001_Node000025"><a xlink:title=" ">
<path fill="none" stroke="orange" stroke-dasharray="5,2" d="M473.82,-326.34C492.41,-348.82 523.75,-381.73 559,-398 607.5,-420.38 667.05,-427.71 714.82,-429.4"/>
<polygon fill="orange" stroke="orange" points="476.33,-323.89 467.33,-318.3 470.88,-328.28 476.33,-323.89"/>
</a>
</g>
<text text-anchor="middle" x="628" y="-431" font-family="FreeSans" font-size="10.00" fill="grey"> &lt; T, TElement, bool &gt;</text>
</g>
<!-- Node27 -->
<g id="Node000027" class="node">
<title>Node27</title>
<g id="a_Node000027"><a xlink:href="structDGtal_1_1concepts_1_1CUnaryFunctor.html" target="_top" xlink:title=" ">
<polygon fill="white" stroke="#666666" points="887,-174 715,-174 715,-144 887,-144 887,-174"/>
<text text-anchor="start" x="723" y="-162" font-family="FreeSans" font-size="10.00">DGtal::concepts::CUnaryFunctor</text>
<text text-anchor="middle" x="801" y="-151" font-family="FreeSans" font-size="10.00">&lt; T, T::SCell, T::RealPoint &gt;</text>
</a>
</g>
</g>
<!-- Node1&#45;&gt;Node27 -->
<g id="edge31_Node000001_Node000027" class="edge">
<title>Node1&#45;&gt;Node27</title>
<g id="a_edge31_Node000001_Node000027"><a xlink:title=" ">
<path fill="none" stroke="orange" stroke-dasharray="5,2" d="M474.42,-279.89C493.28,-257.88 524.62,-225.58 559,-208 607.28,-183.31 666.97,-171.05 714.86,-164.98"/>
<polygon fill="orange" stroke="orange" points="471.56,-277.85 467.83,-287.77 476.93,-282.35 471.56,-277.85"/>
</a>
</g>
<text text-anchor="middle" x="628" y="-211" font-family="FreeSans" font-size="10.00" fill="grey"> &lt; T, T::SCell, T::RealPoint &gt;</text>
</g>
<!-- Node30 -->
<g id="Node000030" class="node">
<title>Node30</title>
<g id="a_Node000030"><a xlink:href="structDGtal_1_1concepts_1_1CUnaryFunctor.html" target="_top" xlink:title=" ">
<polygon fill="white" stroke="#666666" points="887,-126 715,-126 715,-96 887,-96 887,-126"/>
<text text-anchor="start" x="723" y="-114" font-family="FreeSans" font-size="10.00">DGtal::concepts::CUnaryFunctor</text>
<text text-anchor="middle" x="801" y="-103" font-family="FreeSans" font-size="10.00">&lt; T, T::Surfel, bool &gt;</text>
</a>
</g>
</g>
<!-- Node1&#45;&gt;Node30 -->
<g id="edge34_Node000001_Node000030" class="edge">
<title>Node1&#45;&gt;Node30</title>
<g id="a_edge34_Node000001_Node000030"><a xlink:title=" ">
<path fill="none" stroke="orange" stroke-dasharray="5,2" d="M465.84,-278.15C480.64,-244.22 512.01,-184.2 559,-154 605.12,-124.36 665.96,-113.67 714.96,-110.36"/>
<polygon fill="orange" stroke="orange" points="462.44,-277.2 461.78,-287.77 468.89,-279.92 462.44,-277.2"/>
</a>
</g>
<text text-anchor="middle" x="628" y="-157" font-family="FreeSans" font-size="10.00" fill="grey"> &lt; T, T::Surfel, bool &gt;</text>
</g>
<!-- Node31 -->
<g id="Node000031" class="node">
<title>Node31</title>
<g id="a_Node000031"><a xlink:href="structDGtal_1_1concepts_1_1CUnaryFunctor.html" target="_top" xlink:title=" ">
<polygon fill="white" stroke="#666666" points="887,-78 715,-78 715,-48 887,-48 887,-78"/>
<text text-anchor="start" x="723" y="-66" font-family="FreeSans" font-size="10.00">DGtal::concepts::CUnaryFunctor</text>
<text text-anchor="middle" x="801" y="-55" font-family="FreeSans" font-size="10.00">&lt; I, T::Point, T::Value &gt;</text>
</a>
</g>
</g>
<!-- Node1&#45;&gt;Node31 -->
<g id="edge35_Node000001_Node000031" class="edge">
<title>Node1&#45;&gt;Node31</title>
<g id="a_edge35_Node000001_Node000031"><a xlink:title=" ">
<path fill="none" stroke="orange" stroke-dasharray="5,2" d="M460.66,-278.05C470.38,-233.65 497.23,-141.44 559,-97 603.59,-64.92 665.04,-56.65 714.73,-56.29"/>
<polygon fill="orange" stroke="orange" points="457.2,-277.5 458.6,-288 464.06,-278.92 457.2,-277.5"/>
</a>
</g>
<text text-anchor="middle" x="628" y="-100" font-family="FreeSans" font-size="10.00" fill="grey"> &lt; I, T::Point, T::Value &gt;</text>
</g>
<!-- Node32 -->
<g id="Node000032" class="node">
<title>Node32</title>
<g id="a_Node000032"><a xlink:href="structDGtal_1_1concepts_1_1CUnaryFunctor.html" target="_top" xlink:title=" ">
<polygon fill="white" stroke="#666666" points="887,-30 715,-30 715,0 887,0 887,-30"/>
<text text-anchor="start" x="723" y="-18" font-family="FreeSans" font-size="10.00">DGtal::concepts::CUnaryFunctor</text>
<text text-anchor="middle" x="801" y="-7" font-family="FreeSans" font-size="10.00">&lt; T, T::Vertex, bool &gt;</text>
</a>
</g>
</g>
<!-- Node1&#45;&gt;Node32 -->
<g id="edge36_Node000001_Node000032" class="edge">
<title>Node1&#45;&gt;Node32</title>
<g id="a_edge36_Node000001_Node000032"><a xlink:title=" ">
<path fill="none" stroke="orange" stroke-dasharray="5,2" d="M457.71,-277.46C462.79,-224.01 482.62,-100.46 559,-42 602.71,-8.54 664.64,-2.22 714.78,-4.04"/>
<polygon fill="orange" stroke="orange" points="454.2,-277.5 456.84,-287.76 461.17,-278.09 454.2,-277.5"/>
</a>
</g>
<text text-anchor="middle" x="628" y="-45" font-family="FreeSans" font-size="10.00" fill="grey"> &lt; T, T::Vertex, bool &gt;</text>
</g>
<!-- Node2 -->
<g id="Node000002" class="node">
<title>Node2</title>
<g id="a_Node000002"><a xlink:href="structboost_1_1Assignable.html" target="_top" xlink:title=" ">
<polygon fill="white" stroke="#666666" points="332,-312.5 200,-312.5 200,-293.5 332,-293.5 332,-312.5"/>
<text text-anchor="middle" x="266" y="-300.5" font-family="FreeSans" font-size="10.00">boost::Assignable&lt; X &gt;</text>
</a>
</g>
</g>
<!-- Node2&#45;&gt;Node1 -->
<g id="edge1_Node000001_Node000002" class="edge">
<title>Node2&#45;&gt;Node1</title>
<g id="a_edge1_Node000001_Node000002"><a xlink:title=" ">
<path fill="none" stroke="#63b8ff" d="M342.24,-303C350.95,-303 359.87,-303 368.7,-303"/>
<polygon fill="#63b8ff" stroke="#63b8ff" points="342.14,-299.5 332.14,-303 342.14,-306.5 342.14,-299.5"/>
</a>
</g>
</g>
<!-- Node3 -->
<g id="Node000003" class="node">
<title>Node3</title>
<g id="a_Node000003"><a xlink:href="structboost_1_1Assignable.html" target="_top" xlink:title="Go to http://www.sgi.com/tech/stl/Assignable.html.">
<polygon fill="white" stroke="#666666" points="131,-312.5 0,-312.5 0,-293.5 131,-293.5 131,-312.5"/>
<text text-anchor="middle" x="65.5" y="-300.5" font-family="FreeSans" font-size="10.00">boost::Assignable&lt; T &gt;</text>
</a>
</g>
</g>
<!-- Node3&#45;&gt;Node2 -->
<g id="edge2_Node000002_Node000003" class="edge">
<title>Node3&#45;&gt;Node2</title>
<g id="a_edge2_Node000002_Node000003"><a xlink:title=" ">
<path fill="none" stroke="orange" stroke-dasharray="5,2" d="M141.41,-303C160.58,-303 181.04,-303 199.69,-303"/>
<polygon fill="orange" stroke="orange" points="141.22,-299.5 131.22,-303 141.22,-306.5 141.22,-299.5"/>
</a>
</g>
<text text-anchor="middle" x="165.5" y="-306" font-family="FreeSans" font-size="10.00" fill="grey"> &lt; X &gt;</text>
</g>
<!-- Node5 -->
<g id="Node000005" class="node">
<title>Node5</title>
<g id="a_Node000005"><a xlink:href="structDGtal_1_1concepts_1_1CTrivialConstImage.html" target="_top" xlink:title="Aim: Defines the concept describing a read&#45;only image, which is a refinement of CPointFunctor.">
<polygon fill="white" stroke="#666666" points="1651,-593 1515,-593 1515,-563 1651,-563 1651,-593"/>
<text text-anchor="start" x="1523" y="-581" font-family="FreeSans" font-size="10.00">DGtal::concepts::CTrivial</text>
<text text-anchor="middle" x="1583" y="-570" font-family="FreeSans" font-size="10.00">ConstImage&lt; I &gt;</text>
</a>
</g>
</g>
<!-- Node4&#45;&gt;Node5 -->
<g id="edge4_Node000004_Node000005" class="edge">
<title>Node4&#45;&gt;Node5</title>
<g id="a_edge4_Node000004_Node000005"><a xlink:title=" ">
<path fill="none" stroke="#63b8ff" d="M1453.43,-578C1474.34,-578 1495.74,-578 1514.92,-578"/>
<polygon fill="#63b8ff" stroke="#63b8ff" points="1453.22,-574.5 1443.22,-578 1453.22,-581.5 1453.22,-574.5"/>
</a>
</g>
</g>
<!-- Node6 -->
<g id="Node000006" class="node">
<title>Node6</title>
<g id="a_Node000006"><a xlink:href="structDGtal_1_1concepts_1_1CConstImage.html" target="_top" xlink:title="Aim: Defines the concept describing a read&#45;only image, which is a refinement of CPointFunctor.">
<polygon fill="white" stroke="#666666" points="1914,-570.5 1723,-570.5 1723,-551.5 1914,-551.5 1914,-570.5"/>
<text text-anchor="middle" x="1818.5" y="-558.5" font-family="FreeSans" font-size="10.00">DGtal::concepts::CConstImage&lt; I &gt;</text>
</a>
</g>
</g>
<!-- Node5&#45;&gt;Node6 -->
<g id="edge5_Node000005_Node000006" class="edge">
<title>Node5&#45;&gt;Node6</title>
<g id="a_edge5_Node000005_Node000006"><a xlink:title=" ">
<path fill="none" stroke="#63b8ff" d="M1661.37,-572.37C1681.08,-570.93 1702.5,-569.37 1722.97,-567.88"/>
<polygon fill="#63b8ff" stroke="#63b8ff" points="1660.94,-568.89 1651.22,-573.11 1661.45,-575.87 1660.94,-568.89"/>
</a>
</g>
</g>
<!-- Node8 -->
<g id="Node000008" class="node">
<title>Node8</title>
<g id="a_Node000008"><a xlink:href="structDGtal_1_1concepts_1_1CTrivialImage.html" target="_top" xlink:title="Aim: Defines the concept describing an image without extra ranges, which is a refinement of CTrivialC...">
<polygon fill="white" stroke="#666666" points="1886.5,-619 1750.5,-619 1750.5,-589 1886.5,-589 1886.5,-619"/>
<text text-anchor="start" x="1758.5" y="-607" font-family="FreeSans" font-size="10.00">DGtal::concepts::CTrivial</text>
<text text-anchor="middle" x="1818.5" y="-596" font-family="FreeSans" font-size="10.00">Image&lt; I &gt;</text>
</a>
</g>
</g>
<!-- Node5&#45;&gt;Node8 -->
<g id="edge7_Node000005_Node000008" class="edge">
<title>Node5&#45;&gt;Node8</title>
<g id="a_edge7_Node000005_Node000008"><a xlink:title=" ">
<path fill="none" stroke="#63b8ff" d="M1661.25,-586.6C1690.06,-589.81 1722.51,-593.42 1750.35,-596.52"/>
<polygon fill="#63b8ff" stroke="#63b8ff" points="1661.55,-583.11 1651.22,-585.49 1660.78,-590.07 1661.55,-583.11"/>
</a>
</g>
</g>
<!-- Node7 -->
<g id="Node000007" class="node">
<title>Node7</title>
<g id="a_Node000007"><a xlink:href="structDGtal_1_1concepts_1_1CImage.html" target="_top" xlink:title="Aim: Defines the concept describing a read/write image, having an output iterator.">
<polygon fill="white" stroke="#666666" points="2114,-591.5 1951,-591.5 1951,-572.5 2114,-572.5 2114,-591.5"/>
<text text-anchor="middle" x="2032.5" y="-579.5" font-family="FreeSans" font-size="10.00">DGtal::concepts::CImage&lt; I &gt;</text>
</a>
</g>
</g>
<!-- Node6&#45;&gt;Node7 -->
<g id="edge6_Node000006_Node000007" class="edge">
<title>Node6&#45;&gt;Node7</title>
<g id="a_edge6_Node000006_Node000007"><a xlink:title=" ">
<path fill="none" stroke="#63b8ff" d="M1924.12,-571.36C1933.07,-572.25 1942.03,-573.14 1950.75,-574"/>
<polygon fill="#63b8ff" stroke="#63b8ff" points="1924.33,-567.87 1914.03,-570.36 1923.64,-574.83 1924.33,-567.87"/>
</a>
</g>
</g>
<!-- Node8&#45;&gt;Node7 -->
<g id="edge8_Node000008_Node000007" class="edge">
<title>Node8&#45;&gt;Node7</title>
<g id="a_edge8_Node000008_Node000007"><a xlink:title=" ">
<path fill="none" stroke="#63b8ff" d="M1896.77,-595.98C1914.34,-594.16 1933.04,-592.22 1950.75,-590.38"/>
<polygon fill="#63b8ff" stroke="#63b8ff" points="1896.16,-592.53 1886.58,-597.04 1896.89,-599.49 1896.16,-592.53"/>
</a>
</g>
</g>
<!-- Node10 -->
<g id="Node000010" class="node">
<title>Node10</title>
<g id="a_Node000010"><a xlink:href="structDGtal_1_1concepts_1_1CPointPredicate.html" target="_top" xlink:title="Aim: Defines a predicate on a point.">
<polygon fill="white" stroke="#666666" points="1686,-483.5 1480,-483.5 1480,-464.5 1686,-464.5 1686,-483.5"/>
<text text-anchor="middle" x="1583" y="-471.5" font-family="FreeSans" font-size="10.00">DGtal::concepts::CPointPredicate&lt; T &gt;</text>
</a>
</g>
</g>
<!-- Node9&#45;&gt;Node10 -->
<g id="edge10_Node000009_Node000010" class="edge">
<title>Node9&#45;&gt;Node10</title>
<g id="a_edge10_Node000009_Node000010"><a xlink:title=" ">
<path fill="none" stroke="#63b8ff" d="M1433.06,-474C1448.28,-474 1464.27,-474 1479.9,-474"/>
<polygon fill="#63b8ff" stroke="#63b8ff" points="1432.66,-470.5 1422.66,-474 1432.66,-477.5 1432.66,-470.5"/>
</a>
</g>
</g>
<!-- Node11 -->
<g id="Node000011" class="node">
<title>Node11</title>
<g id="a_Node000011"><a xlink:href="structDGtal_1_1concepts_1_1CDigitalSet.html" target="_top" xlink:title="Aim: Represents a set of points within the given domain. This set of points is modifiable by the user...">
<polygon fill="white" stroke="#666666" points="1888,-489 1749,-489 1749,-459 1888,-459 1888,-489"/>
<text text-anchor="start" x="1757" y="-477" font-family="FreeSans" font-size="10.00">DGtal::concepts::CDigital</text>
<text text-anchor="middle" x="1818.5" y="-466" font-family="FreeSans" font-size="10.00">Set&lt; T &gt;</text>
</a>
</g>
</g>
<!-- Node10&#45;&gt;Node11 -->
<g id="edge11_Node000010_Node000011" class="edge">
<title>Node10&#45;&gt;Node11</title>
<g id="a_edge11_Node000010_Node000011"><a xlink:title=" ">
<path fill="none" stroke="#63b8ff" d="M1696.32,-474C1714.26,-474 1732.35,-474 1748.87,-474"/>
<polygon fill="#63b8ff" stroke="#63b8ff" points="1696.08,-470.5 1686.08,-474 1696.08,-477.5 1696.08,-470.5"/>
</a>
</g>
</g>
<!-- Node13 -->
<g id="Node000013" class="node">
<title>Node13</title>
<g id="a_Node000013"><a xlink:href="structDGtal_1_1concepts_1_1CSurfelPredicate.html" target="_top" xlink:title="Aim: Defines a predicate on a surfel.">
<polygon fill="white" stroke="#666666" points="1650.5,-371 1515.5,-371 1515.5,-341 1650.5,-341 1650.5,-371"/>
<text text-anchor="start" x="1523.5" y="-359" font-family="FreeSans" font-size="10.00">DGtal::concepts::CSurfel</text>
<text text-anchor="middle" x="1583" y="-348" font-family="FreeSans" font-size="10.00">Predicate&lt; T &gt;</text>
</a>
</g>
</g>
<!-- Node12&#45;&gt;Node13 -->
<g id="edge13_Node000012_Node000013" class="edge">
<title>Node12&#45;&gt;Node13</title>
<g id="a_edge13_Node000012_Node000013"><a xlink:title=" ">
<path fill="none" stroke="#63b8ff" d="M1432.92,-356C1460.02,-356 1489.58,-356 1515.18,-356"/>
<polygon fill="#63b8ff" stroke="#63b8ff" points="1432.66,-352.5 1422.66,-356 1432.66,-359.5 1432.66,-352.5"/>
</a>
</g>
</g>
<!-- Node15 -->
<g id="Node000015" class="node">
<title>Node15</title>
<g id="a_Node000015"><a xlink:href="structDGtal_1_1concepts_1_1CVertexPredicate.html" target="_top" xlink:title="Aim: Defines a predicate on a vertex.">
<polygon fill="white" stroke="#666666" points="1652,-426 1514,-426 1514,-396 1652,-396 1652,-426"/>
<text text-anchor="start" x="1522" y="-414" font-family="FreeSans" font-size="10.00">DGtal::concepts::CVertex</text>
<text text-anchor="middle" x="1583" y="-403" font-family="FreeSans" font-size="10.00">Predicate&lt; T &gt;</text>
</a>
</g>
</g>
<!-- Node14&#45;&gt;Node15 -->
<g id="edge15_Node000014_Node000015" class="edge">
<title>Node14&#45;&gt;Node15</title>
<g id="a_edge15_Node000014_Node000015"><a xlink:title=" ">
<path fill="none" stroke="#63b8ff" d="M1432.73,-411C1459.34,-411 1488.32,-411 1513.61,-411"/>
<polygon fill="#63b8ff" stroke="#63b8ff" points="1432.66,-407.5 1422.66,-411 1432.66,-414.5 1432.66,-407.5"/>
</a>
</g>
</g>
<!-- Node17 -->
<g id="Node000017" class="node">
<title>Node17</title>
<g id="a_Node000017"><a xlink:href="structDGtal_1_1concepts_1_1CCellEmbedder.html" target="_top" xlink:title="Aim: A cell embedder is a mapping from unsigned cells to Euclidean points. It adds inner types to fun...">
<polygon fill="white" stroke="#666666" points="1130,-312.5 927,-312.5 927,-293.5 1130,-293.5 1130,-312.5"/>
<text text-anchor="middle" x="1028.5" y="-300.5" font-family="FreeSans" font-size="10.00">DGtal::concepts::CCellEmbedder&lt; T &gt;</text>
</a>
</g>
</g>
<!-- Node16&#45;&gt;Node17 -->
<g id="edge17_Node000016_Node000017" class="edge">
<title>Node16&#45;&gt;Node17</title>
<g id="a_edge17_Node000016_Node000017"><a xlink:title=" ">
<path fill="none" stroke="#63b8ff" d="M897.37,-303C907.16,-303 917.13,-303 926.97,-303"/>
<polygon fill="#63b8ff" stroke="#63b8ff" points="897.25,-299.5 887.25,-303 897.25,-306.5 897.25,-299.5"/>
</a>
</g>
</g>
<!-- Node19 -->
<g id="Node000019" class="node">
<title>Node19</title>
<g id="a_Node000019"><a xlink:href="structDGtal_1_1concepts_1_1CPointEmbedder.html" target="_top" xlink:title="Aim: A point embedder is a mapping from digital points to Euclidean points. It adds inner types to fu...">
<polygon fill="white" stroke="#666666" points="1133,-264.5 924,-264.5 924,-245.5 1133,-245.5 1133,-264.5"/>
<text text-anchor="middle" x="1028.5" y="-252.5" font-family="FreeSans" font-size="10.00">DGtal::concepts::CPointEmbedder&lt; T &gt;</text>
</a>
</g>
</g>
<!-- Node18&#45;&gt;Node19 -->
<g id="edge19_Node000018_Node000019" class="edge">
<title>Node18&#45;&gt;Node19</title>
<g id="a_edge19_Node000018_Node000019"><a xlink:title=" ">
<path fill="none" stroke="#63b8ff" d="M897.45,-255C906.2,-255 915.09,-255 923.91,-255"/>
<polygon fill="#63b8ff" stroke="#63b8ff" points="897.25,-251.5 887.25,-255 897.25,-258.5 897.25,-251.5"/>
</a>
</g>
</g>
<!-- Node21 -->
<g id="Node000021" class="node">
<title>Node21</title>
<g id="a_Node000021"><a xlink:href="structDGtal_1_1concepts_1_1CPointFunctor.html" target="_top" xlink:title="Aim: Defines a functor on points.">
<polygon fill="white" stroke="#666666" points="1126.5,-550.5 930.5,-550.5 930.5,-531.5 1126.5,-531.5 1126.5,-550.5"/>
<text text-anchor="middle" x="1028.5" y="-538.5" font-family="FreeSans" font-size="10.00">DGtal::concepts::CPointFunctor&lt; T &gt;</text>
</a>
</g>
</g>
<!-- Node20&#45;&gt;Node21 -->
<g id="edge21_Node000020_Node000021" class="edge">
<title>Node20&#45;&gt;Node21</title>
<g id="a_edge21_Node000020_Node000021"><a xlink:title=" ">
<path fill="none" stroke="#63b8ff" d="M897.59,-541C908.45,-541 919.53,-541 930.41,-541"/>
<polygon fill="#63b8ff" stroke="#63b8ff" points="897.25,-537.5 887.25,-541 897.25,-544.5 897.25,-537.5"/>
</a>
</g>
</g>
<!-- Node21&#45;&gt;Node4 -->
<g id="edge24_Node000021_Node000004" class="edge">
<title>Node21&#45;&gt;Node4</title>
<g id="a_edge24_Node000021_Node000004"><a xlink:title=" ">
<path fill="none" stroke="orange" stroke-dasharray="5,2" d="M1137.05,-549C1167.77,-551.71 1201.25,-555.07 1232,-559 1252.21,-561.59 1274.34,-565.13 1293.64,-568.45"/>
<polygon fill="orange" stroke="orange" points="1137.01,-545.49 1126.74,-548.11 1136.4,-552.46 1137.01,-545.49"/>
</a>
</g>
<text text-anchor="middle" x="1191.5" y="-562" font-family="FreeSans" font-size="10.00" fill="grey"> &lt; I &gt;</text>
</g>
<!-- Node22 -->
<g id="Node000022" class="node">
<title>Node22</title>
<g id="a_Node000022"><a xlink:href="structDGtal_1_1concepts_1_1COrientationFunctor.html" target="_top" xlink:title="Aim: This concept gathers models implementing an orientation test of &#160;points in a space of dimension ...">
<polygon fill="white" stroke="#666666" points="1427,-540 1266,-540 1266,-510 1427,-510 1427,-540"/>
<text text-anchor="start" x="1274" y="-528" font-family="FreeSans" font-size="10.00">DGtal::concepts::COrientation</text>
<text text-anchor="middle" x="1346.5" y="-517" font-family="FreeSans" font-size="10.00">Functor&lt; T &gt;</text>
</a>
</g>
</g>
<!-- Node21&#45;&gt;Node22 -->
<g id="edge22_Node000021_Node000022" class="edge">
<title>Node21&#45;&gt;Node22</title>
<g id="a_edge22_Node000021_Node000022"><a xlink:title=" ">
<path fill="none" stroke="#63b8ff" d="M1136.94,-535.56C1179.19,-533.42 1226.84,-531.01 1265.92,-529.03"/>
<polygon fill="#63b8ff" stroke="#63b8ff" points="1136.7,-532.07 1126.89,-536.07 1137.05,-539.06 1136.7,-532.07"/>
</a>
</g>
</g>
<!-- Node23 -->
<g id="Node000023" class="node">
<title>Node23</title>
<g id="a_Node000023"><a xlink:href="structDGtal_1_1concepts_1_1COrientationFunctor2.html" target="_top" xlink:title="Aim: This concept is a refinement of COrientationFunctor, useful for simple algebraic curves that can...">
<polygon fill="white" stroke="#666666" points="1663.5,-540 1502.5,-540 1502.5,-510 1663.5,-510 1663.5,-540"/>
<text text-anchor="start" x="1510.5" y="-528" font-family="FreeSans" font-size="10.00">DGtal::concepts::COrientation</text>
<text text-anchor="middle" x="1583" y="-517" font-family="FreeSans" font-size="10.00">Functor2&lt; T &gt;</text>
</a>
</g>
</g>
<!-- Node22&#45;&gt;Node23 -->
<g id="edge23_Node000022_Node000023" class="edge">
<title>Node22&#45;&gt;Node23</title>
<g id="a_edge23_Node000022_Node000023"><a xlink:title=" ">
<path fill="none" stroke="#63b8ff" d="M1437.25,-525C1458.6,-525 1481.23,-525 1502.1,-525"/>
<polygon fill="#63b8ff" stroke="#63b8ff" points="1437.22,-521.5 1427.22,-525 1437.22,-528.5 1437.22,-521.5"/>
</a>
</g>
</g>
<!-- Node26 -->
<g id="Node000026" class="node">
<title>Node26</title>
<g id="a_Node000026"><a xlink:href="structDGtal_1_1concepts_1_1CPredicate.html" target="_top" xlink:title="Aim: Defines a predicate function, ie. a functor mapping a domain into the set of booleans.">
<polygon fill="white" stroke="#666666" points="1104.5,-442 952.5,-442 952.5,-412 1104.5,-412 1104.5,-442"/>
<text text-anchor="start" x="960.5" y="-430" font-family="FreeSans" font-size="10.00">DGtal::concepts::CPredicate</text>
<text text-anchor="middle" x="1028.5" y="-419" font-family="FreeSans" font-size="10.00">&lt; T, TElement &gt;</text>
</a>
</g>
</g>
<!-- Node25&#45;&gt;Node26 -->
<g id="edge27_Node000025_Node000026" class="edge">
<title>Node25&#45;&gt;Node26</title>
<g id="a_edge27_Node000025_Node000026"><a xlink:title=" ">
<path fill="none" stroke="#63b8ff" d="M897.4,-427C915.8,-427 934.84,-427 952.48,-427"/>
<polygon fill="#63b8ff" stroke="#63b8ff" points="897.25,-423.5 887.25,-427 897.25,-430.5 897.25,-423.5"/>
</a>
</g>
</g>
<!-- Node26&#45;&gt;Node9 -->
<g id="edge28_Node000026_Node000009" class="edge">
<title>Node26&#45;&gt;Node9</title>
<g id="a_edge28_Node000026_Node000009"><a xlink:title=" ">
<path fill="none" stroke="orange" stroke-dasharray="5,2" d="M1114.95,-439.71C1163.43,-446.92 1223.55,-455.86 1270.24,-462.81"/>
<polygon fill="orange" stroke="orange" points="1115.19,-436.21 1104.79,-438.2 1114.16,-443.13 1115.19,-436.21"/>
</a>
</g>
<text text-anchor="middle" x="1191.5" y="-459" font-family="FreeSans" font-size="10.00" fill="grey"> &lt; T, T::Point &gt;</text>
</g>
<!-- Node26&#45;&gt;Node12 -->
<g id="edge29_Node000026_Node000012" class="edge">
<title>Node26&#45;&gt;Node12</title>
<g id="a_edge29_Node000026_Node000012"><a xlink:title=" ">
<path fill="none" stroke="orange" stroke-dasharray="5,2" d="M1106.48,-409.7C1159.13,-397.88 1228.23,-382.35 1278.58,-371.04"/>
<polygon fill="orange" stroke="orange" points="1105.5,-406.34 1096.52,-411.94 1107.04,-413.17 1105.5,-406.34"/>
</a>
</g>
<text text-anchor="middle" x="1191.5" y="-401" font-family="FreeSans" font-size="10.00" fill="grey"> &lt; T, T::Surfel &gt;</text>
</g>
<!-- Node26&#45;&gt;Node14 -->
<g id="edge30_Node000026_Node000014" class="edge">
<title>Node26&#45;&gt;Node14</title>
<g id="a_edge30_Node000026_Node000014"><a xlink:title=" ">
<path fill="none" stroke="orange" stroke-dasharray="5,2" d="M1114.95,-422.67C1163.43,-420.22 1223.55,-417.17 1270.24,-414.81"/>
<polygon fill="orange" stroke="orange" points="1114.6,-419.19 1104.79,-423.19 1114.95,-426.18 1114.6,-419.19"/>
</a>
</g>
<text text-anchor="middle" x="1191.5" y="-423" font-family="FreeSans" font-size="10.00" fill="grey"> &lt; T, T::Vertex &gt;</text>
</g>
<!-- Node28 -->
<g id="Node000028" class="node">
<title>Node28</title>
<g id="a_Node000028"><a xlink:href="structDGtal_1_1concepts_1_1CSCellEmbedder.html" target="_top" xlink:title="Aim: A cell embedder is a mapping from signed cells to Euclidean points. It adds inner types to funct...">
<polygon fill="white" stroke="#666666" points="1133,-168.5 924,-168.5 924,-149.5 1133,-149.5 1133,-168.5"/>
<text text-anchor="middle" x="1028.5" y="-156.5" font-family="FreeSans" font-size="10.00">DGtal::concepts::CSCellEmbedder&lt; T &gt;</text>
</a>
</g>
</g>
<!-- Node27&#45;&gt;Node28 -->
<g id="edge32_Node000027_Node000028" class="edge">
<title>Node27&#45;&gt;Node28</title>
<g id="a_edge32_Node000027_Node000028"><a xlink:title=" ">
<path fill="none" stroke="#63b8ff" d="M897.45,-159C906.2,-159 915.09,-159 923.91,-159"/>
<polygon fill="#63b8ff" stroke="#63b8ff" points="897.25,-155.5 887.25,-159 897.25,-162.5 897.25,-155.5"/>
</a>
</g>
</g>
<!-- Node29 -->
<g id="Node000029" class="node">
<title>Node29</title>
<g id="a_Node000029"><a xlink:href="structDGtal_1_1concepts_1_1CDigitalSurfaceEmbedder.html" target="_top" xlink:title="Aim: A digital surface embedder is a specialized mapping from signed cells to Euclidean points....">
<polygon fill="white" stroke="#666666" points="1416,-174 1277,-174 1277,-144 1416,-144 1416,-174"/>
<text text-anchor="start" x="1285" y="-162" font-family="FreeSans" font-size="10.00">DGtal::concepts::CDigital</text>
<text text-anchor="middle" x="1346.5" y="-151" font-family="FreeSans" font-size="10.00">SurfaceEmbedder&lt; T &gt;</text>
</a>
</g>
</g>
<!-- Node28&#45;&gt;Node29 -->
<g id="edge33_Node000028_Node000029" class="edge">
<title>Node28&#45;&gt;Node29</title>
<g id="a_edge33_Node000028_Node000029"><a xlink:title=" ">
<path fill="none" stroke="#63b8ff" d="M1143.45,-159C1188.13,-159 1237.92,-159 1276.89,-159"/>
<polygon fill="#63b8ff" stroke="#63b8ff" points="1143.41,-155.5 1133.41,-159 1143.41,-162.5 1143.41,-155.5"/>
</a>
</g>
</g>
</g>
</svg>
