<?xml version="1.0" encoding="UTF-8" standalone="no"?>
<!DOCTYPE svg PUBLIC "-//W3C//DTD SVG 1.1//EN"
 "http://www.w3.org/Graphics/SVG/1.1/DTD/svg11.dtd">
<!-- Generated by graphviz version 2.43.0 (0)
 -->
<!-- Title: DGtal::concepts::CInteger&lt; T &gt; Pages: 1 -->
<svg width="1400pt" height="112pt"
 viewBox="0.00 0.00 1400.00 111.50" xmlns="http://www.w3.org/2000/svg" xmlns:xlink="http://www.w3.org/1999/xlink">
<g id="graph0" class="graph" transform="scale(1 1) rotate(0) translate(4 107.5)">
<title>DGtal::concepts::CInteger&lt; T &gt;</title>
<!-- Node1 -->
<g id="Node000001" class="node">
<title>Node1</title>
<g id="a_Node000001"><a xlink:title="Aim: Concept checking for Integer Numbers. More precisely, this concept is a refinement of both CEucl...">
<polygon fill="#999999" stroke="#666666" points="1392,-47.5 1222,-47.5 1222,-28.5 1392,-28.5 1392,-47.5"/>
<text text-anchor="middle" x="1307" y="-35.5" font-family="FreeSans" font-size="10.00">DGtal::concepts::CInteger&lt; T &gt;</text>
</a>
</g>
</g>
<!-- Node2 -->
<g id="Node000002" class="node">
<title>Node2</title>
<g id="a_Node000002"><a xlink:href="structDGtal_1_1concepts_1_1CEuclideanRing.html" target="_top" xlink:title="Aim: Defines the mathematical concept equivalent to a unitary commutative ring with a division operat...">
<polygon fill="white" stroke="#666666" points="1186,-76 1032,-76 1032,-46 1186,-46 1186,-76"/>
<text text-anchor="start" x="1040" y="-64" font-family="FreeSans" font-size="10.00">DGtal::concepts::CEuclidean</text>
<text text-anchor="middle" x="1109" y="-53" font-family="FreeSans" font-size="10.00">Ring&lt; T &gt;</text>
</a>
</g>
</g>
<!-- Node2&#45;&gt;Node1 -->
<g id="edge1_Node000001_Node000002" class="edge">
<title>Node2&#45;&gt;Node1</title>
<g id="a_edge1_Node000001_Node000002"><a xlink:title=" ">
<path fill="none" stroke="#63b8ff" d="M1196.27,-50.88C1205.75,-49.76 1215.38,-48.63 1224.79,-47.53"/>
<polygon fill="#63b8ff" stroke="#63b8ff" points="1195.58,-47.43 1186.06,-52.07 1196.4,-54.39 1195.58,-47.43"/>
</a>
</g>
</g>
<!-- Node3 -->
<g id="Node000003" class="node">
<title>Node3</title>
<g id="a_Node000003"><a xlink:href="structDGtal_1_1concepts_1_1CCommutativeRing.html" target="_top" xlink:title="Aim: Defines the mathematical concept equivalent to a unitary commutative ring.">
<polygon fill="white" stroke="#666666" points="996,-78 823,-78 823,-48 996,-48 996,-78"/>
<text text-anchor="start" x="831" y="-66" font-family="FreeSans" font-size="10.00">DGtal::concepts::CCommutative</text>
<text text-anchor="middle" x="909.5" y="-55" font-family="FreeSans" font-size="10.00">Ring&lt; T &gt;</text>
</a>
</g>
</g>
<!-- Node3&#45;&gt;Node2 -->
<g id="edge2_Node000002_Node000003" class="edge">
<title>Node3&#45;&gt;Node2</title>
<g id="a_edge2_Node000002_Node000003"><a xlink:title=" ">
<path fill="none" stroke="#63b8ff" d="M1006.32,-62.03C1014.92,-61.94 1023.54,-61.86 1031.93,-61.77"/>
<polygon fill="#63b8ff" stroke="#63b8ff" points="1006.23,-58.53 996.26,-62.13 1006.3,-65.53 1006.23,-58.53"/>
</a>
</g>
</g>
<!-- Node4 -->
<g id="Node000004" class="node">
<title>Node4</title>
<g id="a_Node000004"><a xlink:href="structDGtal_1_1concepts_1_1CSignedNumber.html" target="_top" xlink:title="Aim: Concept checking for Signed Numbers. Models of this concept should be listed in NumberTraits cla...">
<polygon fill="white" stroke="#666666" points="787,-76 647,-76 647,-46 787,-46 787,-76"/>
<text text-anchor="start" x="655" y="-64" font-family="FreeSans" font-size="10.00">DGtal::concepts::CSigned</text>
<text text-anchor="middle" x="717" y="-53" font-family="FreeSans" font-size="10.00">Number&lt; T &gt;</text>
</a>
</g>
</g>
<!-- Node4&#45;&gt;Node3 -->
<g id="edge3_Node000003_Node000004" class="edge">
<title>Node4&#45;&gt;Node3</title>
<g id="a_edge3_Node000003_Node000004"><a xlink:title=" ">
<path fill="none" stroke="#63b8ff" d="M797.23,-61.83C805.67,-61.92 814.28,-62.01 822.79,-62.1"/>
<polygon fill="#63b8ff" stroke="#63b8ff" points="797.08,-58.33 787.04,-61.72 797.01,-65.33 797.08,-58.33"/>
</a>
</g>
</g>
<!-- Node5 -->
<g id="Node000005" class="node">
<title>Node5</title>
<g id="a_Node000005"><a xlink:href="structDGtal_1_1concepts_1_1CQuantity.html" target="_top" xlink:title="Aim: defines the concept of quantity in DGtal.">
<polygon fill="white" stroke="#666666" points="611,-47.5 434,-47.5 434,-28.5 611,-28.5 611,-47.5"/>
<text text-anchor="middle" x="522.5" y="-35.5" font-family="FreeSans" font-size="10.00">DGtal::concepts::CQuantity&lt; T &gt;</text>
</a>
</g>
</g>
<!-- Node5&#45;&gt;Node4 -->
<g id="edge4_Node000004_Node000005" class="edge">
<title>Node5&#45;&gt;Node4</title>
<g id="a_edge4_Node000004_Node000005"><a xlink:title=" ">
<path fill="none" stroke="#63b8ff" d="M613.44,-48.75C624.65,-50.09 635.98,-51.44 646.81,-52.73"/>
<polygon fill="#63b8ff" stroke="#63b8ff" points="613.53,-45.23 603.19,-47.52 612.7,-52.18 613.53,-45.23"/>
</a>
</g>
</g>
<!-- Node11 -->
<g id="Node000011" class="node">
<title>Node11</title>
<g id="a_Node000011"><a xlink:href="structDGtal_1_1concepts_1_1CIntegralNumber.html" target="_top" xlink:title="Aim: Concept checking for Integral Numbers. Models of this concept should be listed in NumberTraits c...">
<polygon fill="white" stroke="#666666" points="981.5,-30 837.5,-30 837.5,0 981.5,0 981.5,-30"/>
<text text-anchor="start" x="845.5" y="-18" font-family="FreeSans" font-size="10.00">DGtal::concepts::CIntegral</text>
<text text-anchor="middle" x="909.5" y="-7" font-family="FreeSans" font-size="10.00">Number&lt; T &gt;</text>
</a>
</g>
</g>
<!-- Node5&#45;&gt;Node11 -->
<g id="edge11_Node000011_Node000005" class="edge">
<title>Node5&#45;&gt;Node11</title>
<g id="a_edge11_Node000011_Node000005"><a xlink:title=" ">
<path fill="none" stroke="#63b8ff" d="M621.55,-32.14C688.9,-28.12 776.77,-22.87 837.43,-19.25"/>
<polygon fill="#63b8ff" stroke="#63b8ff" points="621.12,-28.66 611.34,-32.75 621.54,-35.65 621.12,-28.66"/>
</a>
</g>
</g>
<!-- Node6 -->
<g id="Node000006" class="node">
<title>Node6</title>
<g id="a_Node000006"><a xlink:href="structDGtal_1_1concepts_1_1CLabel.html" target="_top" xlink:title="Aim: Define the concept of DGtal labels. Models of CLabel can be default&#45;constructible,...">
<polygon fill="white" stroke="#666666" points="387,-66.5 226,-66.5 226,-47.5 387,-47.5 387,-66.5"/>
<text text-anchor="middle" x="306.5" y="-54.5" font-family="FreeSans" font-size="10.00">DGtal::concepts::CLabel&lt; T &gt;</text>
</a>
</g>
</g>
<!-- Node6&#45;&gt;Node5 -->
<g id="edge5_Node000005_Node000006" class="edge">
<title>Node6&#45;&gt;Node5</title>
<g id="a_edge5_Node000005_Node000006"><a xlink:title=" ">
<path fill="none" stroke="#63b8ff" d="M397.27,-49.03C409.37,-47.96 421.77,-46.85 433.84,-45.78"/>
<polygon fill="#63b8ff" stroke="#63b8ff" points="396.84,-45.55 387.19,-49.93 397.46,-52.53 396.84,-45.55"/>
</a>
</g>
</g>
<!-- Node7 -->
<g id="Node000007" class="node">
<title>Node7</title>
<g id="a_Node000007"><a xlink:href="structboost_1_1DefaultConstructible.html" target="_top" xlink:title="Go to http://www.sgi.com/tech/stl/DefaultConstructible.html.">
<polygon fill="white" stroke="#666666" points="179,-103.5 0,-103.5 0,-84.5 179,-84.5 179,-103.5"/>
<text text-anchor="middle" x="89.5" y="-91.5" font-family="FreeSans" font-size="10.00">boost::DefaultConstructible&lt; T &gt;</text>
</a>
</g>
</g>
<!-- Node7&#45;&gt;Node6 -->
<g id="edge6_Node000006_Node000007" class="edge">
<title>Node7&#45;&gt;Node6</title>
<g id="a_edge6_Node000006_Node000007"><a xlink:title=" ">
<path fill="none" stroke="#63b8ff" d="M155.84,-82.75C185.9,-77.58 221.19,-71.51 249.95,-66.56"/>
<polygon fill="#63b8ff" stroke="#63b8ff" points="155.13,-79.33 145.87,-84.47 156.32,-86.22 155.13,-79.33"/>
</a>
</g>
</g>
<!-- Node8 -->
<g id="Node000008" class="node">
<title>Node8</title>
<g id="a_Node000008"><a xlink:href="structboost_1_1Assignable.html" target="_top" xlink:title="Go to http://www.sgi.com/tech/stl/Assignable.html.">
<polygon fill="white" stroke="#666666" points="155,-66.5 24,-66.5 24,-47.5 155,-47.5 155,-66.5"/>
<text text-anchor="middle" x="89.5" y="-54.5" font-family="FreeSans" font-size="10.00">boost::Assignable&lt; T &gt;</text>
</a>
</g>
</g>
<!-- Node8&#45;&gt;Node6 -->
<g id="edge7_Node000006_Node000008" class="edge">
<title>Node8&#45;&gt;Node6</title>
<g id="a_edge7_Node000006_Node000008"><a xlink:title=" ">
<path fill="none" stroke="#63b8ff" d="M165.1,-57C184.71,-57 205.94,-57 225.81,-57"/>
<polygon fill="#63b8ff" stroke="#63b8ff" points="165.01,-53.5 155.01,-57 165.01,-60.5 165.01,-53.5"/>
</a>
</g>
</g>
<!-- Node9 -->
<g id="Node000009" class="node">
<title>Node9</title>
<g id="a_Node000009"><a xlink:href="structboost_1_1EqualityComparable.html" target="_top" xlink:title="Go to http://www.sgi.com/tech/stl/EqualityComparable.html.">
<polygon fill="white" stroke="#666666" points="178,-29.5 1,-29.5 1,-10.5 178,-10.5 178,-29.5"/>
<text text-anchor="middle" x="89.5" y="-17.5" font-family="FreeSans" font-size="10.00">boost::EqualityComparable&lt; T &gt;</text>
</a>
</g>
</g>
<!-- Node9&#45;&gt;Node6 -->
<g id="edge8_Node000006_Node000009" class="edge">
<title>Node9&#45;&gt;Node6</title>
<g id="a_edge8_Node000006_Node000009"><a xlink:title=" ">
<path fill="none" stroke="#63b8ff" d="M155.84,-31.25C185.9,-36.42 221.19,-42.49 249.95,-47.44"/>
<polygon fill="#63b8ff" stroke="#63b8ff" points="156.32,-27.78 145.87,-29.53 155.13,-34.67 156.32,-27.78"/>
</a>
</g>
</g>
<!-- Node10 -->
<g id="Node000010" class="node">
<title>Node10</title>
<g id="a_Node000010"><a xlink:href="structboost_1_1LessThanComparable.html" target="_top" xlink:title="Go to http://www.sgi.com/tech/stl/LessThanComparable.html.">
<polygon fill="white" stroke="#666666" points="398,-29.5 215,-29.5 215,-10.5 398,-10.5 398,-29.5"/>
<text text-anchor="middle" x="306.5" y="-17.5" font-family="FreeSans" font-size="10.00">boost::LessThanComparable&lt; T &gt;</text>
</a>
</g>
</g>
<!-- Node10&#45;&gt;Node5 -->
<g id="edge9_Node000005_Node000010" class="edge">
<title>Node10&#45;&gt;Node5</title>
<g id="a_edge9_Node000005_Node000010"><a xlink:title=" ">
<path fill="none" stroke="#63b8ff" d="M408.48,-28.49C416.9,-29.2 425.37,-29.91 433.67,-30.61"/>
<polygon fill="#63b8ff" stroke="#63b8ff" points="408.51,-24.98 398.26,-27.63 407.93,-31.96 408.51,-24.98"/>
</a>
</g>
</g>
<!-- Node11&#45;&gt;Node1 -->
<g id="edge10_Node000001_Node000011" class="edge">
<title>Node11&#45;&gt;Node1</title>
<g id="a_edge10_Node000001_Node000011"><a xlink:title=" ">
<path fill="none" stroke="#63b8ff" d="M991.77,-19.73C1058.86,-23.63 1153.76,-29.15 1221.68,-33.1"/>
<polygon fill="#63b8ff" stroke="#63b8ff" points="991.85,-16.23 981.66,-19.14 991.44,-23.21 991.85,-16.23"/>
</a>
</g>
</g>
</g>
</svg>
