<?xml version="1.0" encoding="UTF-8" standalone="no"?>
<!DOCTYPE svg PUBLIC "-//W3C//DTD SVG 1.1//EN"
 "http://www.w3.org/Graphics/SVG/1.1/DTD/svg11.dtd">
<!-- Generated by graphviz version 2.43.0 (0)
 -->
<!-- Title: DGtal::DrawableWithBoard2D Pages: 1 -->
<!--zoomable 522 -->
<svg id="main" version="1.1" xmlns="http://www.w3.org/2000/svg" xmlns:xlink="http://www.w3.org/1999/xlink" xml:space="preserve" onload="init(evt)">
<style type="text/css"><![CDATA[
.edge:hover path { stroke: red; }
.edge:hover polygon { stroke: red; fill: red; }
]]></style>
<script type="text/javascript"><![CDATA[
var edges = document.getElementsByTagName('g');
if (edges && edges.length) {
  for (var i=0;i<edges.length;i++) {
    if (edges[i].id.substr(0,4)=='edge') {
      edges[i].setAttribute('class','edge');
    }
  }
}
]]></script>
        <defs>
                <circle id="rim" cx="0" cy="0" r="7"/>
                <circle id="rim2" cx="0" cy="0" r="3.5"/>
                <g id="zoomPlus">
                        <use xlink:href="#rim" fill="#404040">
                                <set attributeName="fill" to="#808080" begin="zoomplus.mouseover" end="zoomplus.mouseout"/>
                        </use>
                        <path d="M-4,0h8M0,-4v8" fill="none" stroke="white" stroke-width="1.5" pointer-events="none"/>
                </g>
                <g id="zoomMin">
                        <use xlink:href="#rim" fill="#404040">
                                <set attributeName="fill" to="#808080" begin="zoomminus.mouseover" end="zoomminus.mouseout"/>
                        </use>
                        <path d="M-4,0h8" fill="none" stroke="white" stroke-width="1.5" pointer-events="none"/>
                </g>
                <g id="dirArrow">
                        <path fill="none" stroke="white" stroke-width="1.5" d="M0,-3.0v7 M-2.5,-0.5L0,-3.0L2.5,-0.5"/>
                </g>
               <g id="resetDef">
                       <use xlink:href="#rim2" fill="#404040">
                               <set attributeName="fill" to="#808080" begin="reset.mouseover" end="reset.mouseout"/>
                       </use>
               </g>
        </defs>

<script type="text/javascript">
var viewWidth = 364;
var viewHeight = 522;
var sectionId = 'dynsection-0';
</script>
<script xlink:href="svgpan.js"/>
<svg id="graph" class="graph">
<g id="viewport">
<title>DGtal::DrawableWithBoard2D</title>
<polygon fill="white" stroke="transparent" points="-4,4 -4,-518 360,-518 360,4 -4,4"/>
<!-- Node1 -->
<g id="node1" class="node">
<title>Node1</title>
<g id="a_node1"><a xlink:title=" ">
<polygon fill="#bfbfbf" stroke="black" points="0,-247.5 0,-266.5 161,-266.5 161,-247.5 0,-247.5"/>
<text text-anchor="middle" x="80.5" y="-254.5" font-family="FreeSans" font-size="10.00">DGtal::DrawableWithBoard2D</text>
</a>
</g>
</g>
<!-- Node2 -->
<g id="node2" class="node">
<title>Node2</title>
<g id="a_node2"><a xlink:href="structDGtal_1_1CustomColors.html" target="_top" xlink:title="Custom style class redefining the pen color and the fill color. You may use Board2D::Color::None for ...">
<polygon fill="white" stroke="black" points="217,-494.5 217,-513.5 336,-513.5 336,-494.5 217,-494.5"/>
<text text-anchor="middle" x="276.5" y="-501.5" font-family="FreeSans" font-size="10.00">DGtal::CustomColors</text>
</a>
</g>
</g>
<!-- Node1&#45;&gt;Node2 -->
<g id="edge1" class="edge">
<title>Node1&#45;&gt;Node2</title>
<path fill="none" stroke="midnightblue" d="M85.52,-276.4C95.76,-320.69 127.09,-429.65 197,-485 202.83,-489.61 209.61,-493.13 216.69,-495.81"/>
<polygon fill="midnightblue" stroke="midnightblue" points="88.94,-275.62 83.37,-266.61 82.1,-277.13 88.94,-275.62"/>
</g>
<!-- Node3 -->
<g id="node3" class="node">
<title>Node3</title>
<g id="a_node3"><a xlink:href="structDGtal_1_1CustomFillColor.html" target="_top" xlink:title="Custom style class redefining the fill color. You may use Board2D::Color::None for transparent color.">
<polygon fill="white" stroke="black" points="212.5,-456.5 212.5,-475.5 340.5,-475.5 340.5,-456.5 212.5,-456.5"/>
<text text-anchor="middle" x="276.5" y="-463.5" font-family="FreeSans" font-size="10.00">DGtal::CustomFillColor</text>
</a>
</g>
</g>
<!-- Node1&#45;&gt;Node3 -->
<g id="edge2" class="edge">
<title>Node1&#45;&gt;Node3</title>
<path fill="none" stroke="midnightblue" d="M87.57,-276.29C100.8,-315.05 136.03,-402.45 197,-447 202.32,-450.89 208.33,-453.99 214.61,-456.46"/>
<polygon fill="midnightblue" stroke="midnightblue" points="90.87,-275.13 84.42,-266.73 84.22,-277.32 90.87,-275.13"/>
</g>
<!-- Node4 -->
<g id="node4" class="node">
<title>Node4</title>
<g id="a_node4"><a xlink:href="structDGtal_1_1CustomPen.html" target="_top" xlink:title="Custom style class redefining the pen attributes. You may use Board2D::Color::None for transparent co...">
<polygon fill="white" stroke="black" points="223.5,-418.5 223.5,-437.5 329.5,-437.5 329.5,-418.5 223.5,-418.5"/>
<text text-anchor="middle" x="276.5" y="-425.5" font-family="FreeSans" font-size="10.00">DGtal::CustomPen</text>
</a>
</g>
</g>
<!-- Node1&#45;&gt;Node4 -->
<g id="edge3" class="edge">
<title>Node1&#45;&gt;Node4</title>
<path fill="none" stroke="midnightblue" d="M90.43,-275.95C106.77,-308.49 144.69,-374.79 197,-409 204.86,-414.14 213.99,-417.89 223.17,-420.63"/>
<polygon fill="midnightblue" stroke="midnightblue" points="93.42,-274.11 85.89,-266.65 87.13,-277.18 93.42,-274.11"/>
</g>
<!-- Node5 -->
<g id="node5" class="node">
<title>Node5</title>
<g id="a_node5"><a xlink:href="structDGtal_1_1CustomPenColor.html" target="_top" xlink:title="Custom style class redefining the pen color. You may use Board2D::Color::None for transparent color.">
<polygon fill="white" stroke="black" points="211,-380.5 211,-399.5 342,-399.5 342,-380.5 211,-380.5"/>
<text text-anchor="middle" x="276.5" y="-387.5" font-family="FreeSans" font-size="10.00">DGtal::CustomPenColor</text>
</a>
</g>
</g>
<!-- Node1&#45;&gt;Node5 -->
<g id="edge4" class="edge">
<title>Node1&#45;&gt;Node5</title>
<path fill="none" stroke="midnightblue" d="M94.34,-274.74C113.68,-300.09 152.74,-346.35 197,-371 203.98,-374.89 211.75,-377.99 219.6,-380.46"/>
<polygon fill="midnightblue" stroke="midnightblue" points="97.14,-272.63 88.35,-266.71 91.53,-276.82 97.14,-272.63"/>
</g>
<!-- Node6 -->
<g id="node6" class="node">
<title>Node6</title>
<g id="a_node6"><a xlink:title=" ">
<polygon fill="white" stroke="#bfbfbf" points="201,-342.5 201,-361.5 352,-361.5 352,-342.5 201,-342.5"/>
<text text-anchor="middle" x="276.5" y="-349.5" font-family="FreeSans" font-size="10.00">MyDomainStyleCustomRed</text>
</a>
</g>
</g>
<!-- Node1&#45;&gt;Node6 -->
<g id="edge5" class="edge">
<title>Node1&#45;&gt;Node6</title>
<path fill="none" stroke="midnightblue" d="M101.1,-272.97C123.15,-290.18 160.65,-317.21 197,-333 205.75,-336.8 215.38,-339.92 224.82,-342.45"/>
<polygon fill="midnightblue" stroke="midnightblue" points="103.19,-270.16 93.18,-266.69 98.84,-275.65 103.19,-270.16"/>
</g>
<!-- Node7 -->
<g id="node7" class="node">
<title>Node7</title>
<g id="a_node7"><a xlink:title=" ">
<polygon fill="white" stroke="#bfbfbf" points="206,-304.5 206,-323.5 347,-323.5 347,-304.5 206,-304.5"/>
<text text-anchor="middle" x="276.5" y="-311.5" font-family="FreeSans" font-size="10.00">MyDrawStyleCustomBlue</text>
</a>
</g>
</g>
<!-- Node1&#45;&gt;Node7 -->
<g id="edge6" class="edge">
<title>Node1&#45;&gt;Node7</title>
<path fill="none" stroke="midnightblue" d="M117.92,-269.82C140.54,-277.57 170.3,-287.39 197,-295 208.73,-298.34 221.56,-301.61 233.38,-304.46"/>
<polygon fill="midnightblue" stroke="midnightblue" points="118.98,-266.48 108.38,-266.52 116.69,-273.09 118.98,-266.48"/>
</g>
<!-- Node8 -->
<g id="node8" class="node">
<title>Node8</title>
<g id="a_node8"><a xlink:title=" ">
<polygon fill="white" stroke="#bfbfbf" points="204,-266.5 204,-285.5 349,-285.5 349,-266.5 204,-266.5"/>
<text text-anchor="middle" x="276.5" y="-273.5" font-family="FreeSans" font-size="10.00">MyDrawStyleCustomColor</text>
</a>
</g>
</g>
<!-- Node1&#45;&gt;Node8 -->
<g id="edge7" class="edge">
<title>Node1&#45;&gt;Node8</title>
<path fill="none" stroke="midnightblue" d="M171.23,-265.79C182.16,-266.86 193.22,-267.94 203.84,-268.98"/>
<polygon fill="midnightblue" stroke="midnightblue" points="171.54,-262.3 161.25,-264.81 170.86,-269.27 171.54,-262.3"/>
</g>
<!-- Node9 -->
<g id="node9" class="node">
<title>Node9</title>
<g id="a_node9"><a xlink:title=" ">
<polygon fill="white" stroke="#bfbfbf" points="197,-228.5 197,-247.5 356,-247.5 356,-228.5 197,-228.5"/>
<text text-anchor="middle" x="276.5" y="-235.5" font-family="FreeSans" font-size="10.00">MyDrawStyleCustomFillColor</text>
</a>
</g>
</g>
<!-- Node1&#45;&gt;Node9 -->
<g id="edge8" class="edge">
<title>Node1&#45;&gt;Node9</title>
<path fill="none" stroke="midnightblue" d="M171.47,-248.19C179.89,-247.36 188.38,-246.53 196.69,-245.72"/>
<polygon fill="midnightblue" stroke="midnightblue" points="170.86,-244.73 161.25,-249.19 171.54,-251.7 170.86,-244.73"/>
</g>
<!-- Node10 -->
<g id="node10" class="node">
<title>Node10</title>
<g id="a_node10"><a xlink:title=" ">
<polygon fill="white" stroke="#bfbfbf" points="202,-190.5 202,-209.5 351,-209.5 351,-190.5 202,-190.5"/>
<text text-anchor="middle" x="276.5" y="-197.5" font-family="FreeSans" font-size="10.00">MyDrawStyleCustomGreen</text>
</a>
</g>
</g>
<!-- Node1&#45;&gt;Node10 -->
<g id="edge9" class="edge">
<title>Node1&#45;&gt;Node10</title>
<path fill="none" stroke="midnightblue" d="M117.92,-244.18C140.54,-236.43 170.3,-226.61 197,-219 208.73,-215.66 221.56,-212.39 233.38,-209.54"/>
<polygon fill="midnightblue" stroke="midnightblue" points="116.69,-240.91 108.38,-247.48 118.98,-247.52 116.69,-240.91"/>
</g>
<!-- Node11 -->
<g id="node11" class="node">
<title>Node11</title>
<g id="a_node11"><a xlink:title=" ">
<polygon fill="white" stroke="#bfbfbf" points="207.5,-152.5 207.5,-171.5 345.5,-171.5 345.5,-152.5 207.5,-152.5"/>
<text text-anchor="middle" x="276.5" y="-159.5" font-family="FreeSans" font-size="10.00">MyDrawStyleCustomRed</text>
</a>
</g>
</g>
<!-- Node1&#45;&gt;Node11 -->
<g id="edge10" class="edge">
<title>Node1&#45;&gt;Node11</title>
<path fill="none" stroke="midnightblue" d="M101.1,-241.03C123.15,-223.82 160.65,-196.79 197,-181 205.75,-177.2 215.38,-174.08 224.82,-171.55"/>
<polygon fill="midnightblue" stroke="midnightblue" points="98.84,-238.35 93.18,-247.31 103.19,-243.84 98.84,-238.35"/>
</g>
<!-- Node12 -->
<g id="node12" class="node">
<title>Node12</title>
<g id="a_node12"><a xlink:title=" ">
<polygon fill="white" stroke="#bfbfbf" points="214,-114.5 214,-133.5 339,-133.5 339,-114.5 214,-114.5"/>
<text text-anchor="middle" x="276.5" y="-121.5" font-family="FreeSans" font-size="10.00">MyObjectStyleCustom</text>
</a>
</g>
</g>
<!-- Node1&#45;&gt;Node12 -->
<g id="edge11" class="edge">
<title>Node1&#45;&gt;Node12</title>
<path fill="none" stroke="midnightblue" d="M94.34,-239.26C113.68,-213.91 152.74,-167.65 197,-143 203.98,-139.11 211.75,-136.01 219.6,-133.54"/>
<polygon fill="midnightblue" stroke="midnightblue" points="91.53,-237.18 88.35,-247.29 97.14,-241.37 91.53,-237.18"/>
</g>
<!-- Node13 -->
<g id="node13" class="node">
<title>Node13</title>
<g id="a_node13"><a xlink:title=" ">
<polygon fill="white" stroke="#bfbfbf" points="204.5,-76.5 204.5,-95.5 348.5,-95.5 348.5,-76.5 204.5,-76.5"/>
<text text-anchor="middle" x="276.5" y="-83.5" font-family="FreeSans" font-size="10.00">MyObjectStyleCustomRed</text>
</a>
</g>
</g>
<!-- Node1&#45;&gt;Node13 -->
<g id="edge12" class="edge">
<title>Node1&#45;&gt;Node13</title>
<path fill="none" stroke="midnightblue" d="M90.43,-238.05C106.77,-205.51 144.69,-139.21 197,-105 202.98,-101.09 209.7,-97.98 216.62,-95.51"/>
<polygon fill="midnightblue" stroke="midnightblue" points="87.13,-236.82 85.89,-247.35 93.42,-239.89 87.13,-236.82"/>
</g>
<!-- Node14 -->
<g id="node14" class="node">
<title>Node14</title>
<g id="a_node14"><a xlink:title=" ">
<polygon fill="white" stroke="#bfbfbf" points="229.5,-38.5 229.5,-57.5 323.5,-57.5 323.5,-38.5 229.5,-38.5"/>
<text text-anchor="middle" x="276.5" y="-45.5" font-family="FreeSans" font-size="10.00">MyStyleCustom</text>
</a>
</g>
</g>
<!-- Node1&#45;&gt;Node14 -->
<g id="edge13" class="edge">
<title>Node1&#45;&gt;Node14</title>
<path fill="none" stroke="midnightblue" d="M87.57,-237.71C100.8,-198.95 136.03,-111.55 197,-67 206.4,-60.13 217.95,-55.72 229.28,-52.9"/>
<polygon fill="midnightblue" stroke="midnightblue" points="84.22,-236.68 84.42,-247.27 90.87,-238.87 84.22,-236.68"/>
</g>
<!-- Node15 -->
<g id="node15" class="node">
<title>Node15</title>
<g id="a_node15"><a xlink:title=" ">
<polygon fill="white" stroke="#bfbfbf" points="220,-0.5 220,-19.5 333,-19.5 333,-0.5 220,-0.5"/>
<text text-anchor="middle" x="276.5" y="-7.5" font-family="FreeSans" font-size="10.00">MyStyleCustomRed</text>
</a>
</g>
</g>
<!-- Node1&#45;&gt;Node15 -->
<g id="edge14" class="edge">
<title>Node1&#45;&gt;Node15</title>
<path fill="none" stroke="midnightblue" d="M85.52,-237.6C95.76,-193.31 127.09,-84.35 197,-29 203.71,-23.69 211.67,-19.83 219.92,-17.04"/>
<polygon fill="midnightblue" stroke="midnightblue" points="82.1,-236.87 83.37,-247.39 88.94,-238.38 82.1,-236.87"/>
</g>
</g>
</svg>
        <g id="navigator" transform="translate(0 0)" fill="#404254">
                <rect fill="#f2f5e9" fill-opacity="0.5" stroke="#606060" stroke-width=".5" x="0" y="0" width="60" height="60"/>
                <use id="zoomplus" xlink:href="#zoomPlus" x="17" y="9" onmousedown="handleZoom(evt,'in')"/>
                <use id="zoomminus" xlink:href="#zoomMin" x="42" y="9" onmousedown="handleZoom(evt,'out')"/>
                <use id="reset" xlink:href="#resetDef" x="30" y="36" onmousedown="handleReset()"/>
                <g id="arrowUp" xlink:href="#dirArrow" transform="translate(30 24)" onmousedown="handlePan(0,-1)">
                  <use xlink:href="#rim" fill="#404040">
                        <set attributeName="fill" to="#808080" begin="arrowUp.mouseover" end="arrowUp.mouseout"/>
                  </use>
                  <path fill="none" stroke="white" stroke-width="1.5" d="M0,-3.0v7 M-2.5,-0.5L0,-3.0L2.5,-0.5"/>
                </g>
                <g id="arrowRight" xlink:href="#dirArrow" transform="rotate(90) translate(36 -43)" onmousedown="handlePan(1,0)">
                  <use xlink:href="#rim" fill="#404040">
                        <set attributeName="fill" to="#808080" begin="arrowRight.mouseover" end="arrowRight.mouseout"/>
                  </use>
                  <path fill="none" stroke="white" stroke-width="1.5" d="M0,-3.0v7 M-2.5,-0.5L0,-3.0L2.5,-0.5"/>
                </g>
                <g id="arrowDown" xlink:href="#dirArrow" transform="rotate(180) translate(-30 -48)" onmousedown="handlePan(0,1)">
                  <use xlink:href="#rim" fill="#404040">
                        <set attributeName="fill" to="#808080" begin="arrowDown.mouseover" end="arrowDown.mouseout"/>
                  </use>
                  <path fill="none" stroke="white" stroke-width="1.5" d="M0,-3.0v7 M-2.5,-0.5L0,-3.0L2.5,-0.5"/>
                </g>
                <g id="arrowLeft" xlink:href="#dirArrow" transform="rotate(270) translate(-36 17)" onmousedown="handlePan(-1,0)">
                  <use xlink:href="#rim" fill="#404040">
                        <set attributeName="fill" to="#808080" begin="arrowLeft.mouseover" end="arrowLeft.mouseout"/>
                  </use>
                  <path fill="none" stroke="white" stroke-width="1.5" d="M0,-3.0v7 M-2.5,-0.5L0,-3.0L2.5,-0.5"/>
                </g>
        </g>
        <svg viewBox="0 0 15 15" width="100%" height="30px" preserveAspectRatio="xMaxYMin meet">
         <g id="arrow_out" transform="scale(0.3 0.3)">
          <a xlink:href="structDGtal_1_1DrawableWithBoard2D__inherit__graph_org.svg" target="_base">
           <rect id="button" ry="5" rx="5" y="6" x="6" height="38" width="38"
                fill="#f2f5e9" fill-opacity="0.5" stroke="#606060" stroke-width="1.0"/>
           <path id="arrow"
             d="M 11.500037,31.436501 C 11.940474,20.09759 22.043105,11.32322 32.158766,21.979434 L 37.068811,17.246167 C 37.068811,17.246167 37.088388,32 37.088388,32 L 22.160133,31.978069 C 22.160133,31.978069 26.997745,27.140456 26.997745,27.140456 C 18.528582,18.264221 13.291696,25.230495 11.500037,31.436501 z"
             style="fill:#404040;"/>
          </a>
         </g>
        </svg>
</svg>
