<?xml version="1.0" encoding="UTF-8" standalone="no"?>
<!DOCTYPE svg PUBLIC "-//W3C//DTD SVG 1.1//EN"
 "http://www.w3.org/Graphics/SVG/1.1/DTD/svg11.dtd">
<!-- Generated by graphviz version 2.43.0 (0)
 -->
<!-- Title: DGtal::concepts::CConstImage&lt; I &gt; Pages: 1 -->
<!--zoomable 119 -->

<svg id="main" version="1.1" xmlns="http://www.w3.org/2000/svg" xmlns:xlink="http://www.w3.org/1999/xlink" xml:space="preserve" onload="init(evt)">
<style type="text/css"><![CDATA[
.node, .edge {opacity: 0.7;}
.node.selected, .edge.selected {opacity: 1;}
.edge:hover path { stroke: red; }
.edge:hover polygon { stroke: red; fill: red; }
]]></style>

<defs>
  <circle id="rim" cx="0" cy="0" r="7"/>
  <circle id="rim2" cx="0" cy="0" r="3.5"/>
  <g id="zoomPlus">
    <use xlink:href="#rim" fill="#404040"><set attributeName="fill" to="#808080" begin="zoomplus.mouseover" end="zoomplus.mouseout"/></use>
    <path d="M-4,0h8M0,-4v8" fill="none" stroke="white" stroke-width="1.5" pointer-events="none"/>
  </g>
  <g id="zoomMin">
    <use xlink:href="#rim" fill="#404040"><set attributeName="fill" to="#808080" begin="zoomminus.mouseover" end="zoomminus.mouseout"/></use>
    <path d="M-4,0h8" fill="none" stroke="white" stroke-width="1.5" pointer-events="none"/>
  </g>
  <g id="arrowUp" transform="translate(30 24)">
    <use xlink:href="#rim"/>
    <path pointer-events="none" fill="none" stroke="white" stroke-width="1.5" d="M0,-3.0v7 M-2.5,-0.5L0,-3.0L2.5,-0.5"/>
  </g>
  <g id="arrowRight" transform="rotate(90) translate(36 -43)">
    <use xlink:href="#rim"/>
    <path pointer-events="none" fill="none" stroke="white" stroke-width="1.5" d="M0,-3.0v7 M-2.5,-0.5L0,-3.0L2.5,-0.5"/>
  </g>
  <g id="arrowDown" transform="rotate(180) translate(-30 -48)">
    <use xlink:href="#rim"/>
    <path pointer-events="none" fill="none" stroke="white" stroke-width="1.5" d="M0,-3.0v7 M-2.5,-0.5L0,-3.0L2.5,-0.5"/>
  </g>
  <g id="arrowLeft" transform="rotate(270) translate(-36 17)">
    <use xlink:href="#rim"/>
    <path pointer-events="none" fill="none" stroke="white" stroke-width="1.5" d="M0,-3.0v7 M-2.5,-0.5L0,-3.0L2.5,-0.5"/>
  </g>
  <g id="resetDef">
    <use xlink:href="#rim2" fill="#404040"><set attributeName="fill" to="#808080" begin="reset.mouseover" end="reset.mouseout"/></use>
  </g>
</defs>
<script type="application/ecmascript">
var viewWidth = 2021;
var viewHeight = 119;
var sectionId = 'dynsection-0';
</script>
<script type="application/ecmascript" xlink:href="svg.min.js"/>
<svg id="graph" class="graph">
<g id="viewport">
<title>DGtal::concepts::CConstImage&lt; I &gt;</title>
<!-- Node1 -->
<g id="Node000001" class="node">
<title>Node1</title>
<g id="a_Node000001"><a xlink:title="Aim: Defines the concept describing a read&#45;only image, which is a refinement of CPointFunctor.">
<polygon fill="#999999" stroke="#666666" points="1813,-40.5 1622,-40.5 1622,-21.5 1813,-21.5 1813,-40.5"/>
<text text-anchor="middle" x="1717.5" y="-28.5" font-family="FreeSans" font-size="10.00">DGtal::concepts::CConstImage&lt; I &gt;</text>
</a>
</g>
</g>
<!-- Node11 -->
<g id="Node000011" class="node">
<title>Node11</title>
<g id="a_Node000011"><a xlink:href="structDGtal_1_1concepts_1_1CImage.html" target="_top" xlink:title="Aim: Defines the concept describing a read/write image, having an output iterator.">
<polygon fill="white" stroke="#666666" points="2013,-40.5 1850,-40.5 1850,-21.5 2013,-21.5 2013,-40.5"/>
<text text-anchor="middle" x="1931.5" y="-28.5" font-family="FreeSans" font-size="10.00">DGtal::concepts::CImage&lt; I &gt;</text>
</a>
</g>
</g>
<!-- Node1&#45;&gt;Node11 -->
<g id="edge11_Node000001_Node000011" class="edge">
<title>Node1&#45;&gt;Node11</title>
<g id="a_edge11_Node000001_Node000011"><a xlink:title=" ">
<path fill="none" stroke="#63b8ff" d="M1823.12,-31C1832.07,-31 1841.03,-31 1849.75,-31"/>
<polygon fill="#63b8ff" stroke="#63b8ff" points="1823.03,-27.5 1813.03,-31 1823.03,-34.5 1823.03,-27.5"/>
</a>
</g>
</g>
<!-- Node2 -->
<g id="Node000002" class="node">
<title>Node2</title>
<g id="a_Node000002"><a xlink:href="structDGtal_1_1concepts_1_1CTrivialConstImage.html" target="_top" xlink:title="Aim: Defines the concept describing a read&#45;only image, which is a refinement of CPointFunctor.">
<polygon fill="white" stroke="#666666" points="1585,-46 1449,-46 1449,-16 1585,-16 1585,-46"/>
<text text-anchor="start" x="1457" y="-34" font-family="FreeSans" font-size="10.00">DGtal::concepts::CTrivial</text>
<text text-anchor="middle" x="1517" y="-23" font-family="FreeSans" font-size="10.00">ConstImage&lt; I &gt;</text>
</a>
</g>
</g>
<!-- Node2&#45;&gt;Node1 -->
<g id="edge1_Node000001_Node000002" class="edge">
<title>Node2&#45;&gt;Node1</title>
<g id="a_edge1_Node000001_Node000002"><a xlink:title=" ">
<path fill="none" stroke="#63b8ff" d="M1595.31,-31C1604.03,-31 1612.99,-31 1621.89,-31"/>
<polygon fill="#63b8ff" stroke="#63b8ff" points="1595.2,-27.5 1585.2,-31 1595.2,-34.5 1595.2,-27.5"/>
</a>
</g>
</g>
<!-- Node3 -->
<g id="Node000003" class="node">
<title>Node3</title>
<g id="a_Node000003"><a xlink:href="structDGtal_1_1concepts_1_1CPointFunctor.html" target="_top" xlink:title=" ">
<polygon fill="white" stroke="#666666" points="1412,-40.5 1219,-40.5 1219,-21.5 1412,-21.5 1412,-40.5"/>
<text text-anchor="middle" x="1315.5" y="-28.5" font-family="FreeSans" font-size="10.00">DGtal::concepts::CPointFunctor&lt; I &gt;</text>
</a>
</g>
</g>
<!-- Node3&#45;&gt;Node2 -->
<g id="edge2_Node000002_Node000003" class="edge">
<title>Node3&#45;&gt;Node2</title>
<g id="a_edge2_Node000002_Node000003"><a xlink:title=" ">
<path fill="none" stroke="#63b8ff" d="M1422.33,-31C1431.34,-31 1440.27,-31 1448.85,-31"/>
<polygon fill="#63b8ff" stroke="#63b8ff" points="1422.16,-27.5 1412.16,-31 1422.16,-34.5 1422.16,-27.5"/>
</a>
</g>
</g>
<!-- Node4 -->
<g id="Node000004" class="node">
<title>Node4</title>
<g id="a_Node000004"><a xlink:href="structDGtal_1_1concepts_1_1CUnaryFunctor.html" target="_top" xlink:title="Aim: Defines a unary functor, which associates arguments to results.">
<polygon fill="white" stroke="#666666" points="731,-30 559,-30 559,0 731,0 731,-30"/>
<text text-anchor="start" x="567" y="-18" font-family="FreeSans" font-size="10.00">DGtal::concepts::CUnaryFunctor</text>
<text text-anchor="middle" x="645" y="-7" font-family="FreeSans" font-size="10.00">&lt; X, A, R &gt;</text>
</a>
</g>
</g>
<!-- Node4&#45;&gt;Node3 -->
<g id="edge3_Node000003_Node000004" class="edge">
<title>Node4&#45;&gt;Node3</title>
<g id="a_edge3_Node000003_Node000004"><a xlink:title=" ">
<path fill="none" stroke="#63b8ff" d="M741.1,-17.28C868.02,-20.31 1091.53,-25.66 1218.77,-28.71"/>
<polygon fill="#63b8ff" stroke="#63b8ff" points="741.09,-13.77 731.01,-17.03 740.92,-20.77 741.09,-13.77"/>
</a>
</g>
</g>
<!-- Node5 -->
<g id="Node000005" class="node">
<title>Node5</title>
<g id="a_Node000005"><a xlink:href="structboost_1_1Assignable.html" target="_top" xlink:title=" ">
<polygon fill="white" stroke="#666666" points="332,-36.5 200,-36.5 200,-17.5 332,-17.5 332,-36.5"/>
<text text-anchor="middle" x="266" y="-24.5" font-family="FreeSans" font-size="10.00">boost::Assignable&lt; X &gt;</text>
</a>
</g>
</g>
<!-- Node5&#45;&gt;Node4 -->
<g id="edge4_Node000004_Node000005" class="edge">
<title>Node5&#45;&gt;Node4</title>
<g id="a_edge4_Node000004_Node000005"><a xlink:title=" ">
<path fill="none" stroke="#63b8ff" d="M342.42,-24.6C404.89,-22.61 493.65,-19.79 558.7,-17.71"/>
<polygon fill="#63b8ff" stroke="#63b8ff" points="342.12,-21.11 332.24,-24.92 342.34,-28.1 342.12,-21.11"/>
</a>
</g>
</g>
<!-- Node10 -->
<g id="Node000010" class="node">
<title>Node10</title>
<g id="a_Node000010"><a xlink:href="structDGtal_1_1concepts_1_1CUnaryFunctor.html" target="_top" xlink:title="Aim: Defines a unary functor, which associates arguments to results.">
<polygon fill="white" stroke="#666666" points="541,-111 369,-111 369,-81 541,-81 541,-111"/>
<text text-anchor="start" x="377" y="-99" font-family="FreeSans" font-size="10.00">DGtal::concepts::CUnaryFunctor</text>
<text text-anchor="middle" x="455" y="-88" font-family="FreeSans" font-size="10.00">&lt; X, A, R &gt;</text>
</a>
</g>
</g>
<!-- Node5&#45;&gt;Node10 -->
<g id="edge10_Node000010_Node000005" class="edge">
<title>Node5&#45;&gt;Node10</title>
<g id="a_edge10_Node000010_Node000005"><a xlink:title=" ">
<path fill="none" stroke="#63b8ff" d="M295.86,-41.03C316.05,-50.52 343.8,-62.93 369,-72 377.8,-75.17 387.23,-78.19 396.5,-80.95"/>
<polygon fill="#63b8ff" stroke="#63b8ff" points="297.13,-37.76 286.6,-36.63 294.13,-44.09 297.13,-37.76"/>
</a>
</g>
</g>
<!-- Node6 -->
<g id="Node000006" class="node">
<title>Node6</title>
<g id="a_Node000006"><a xlink:href="structboost_1_1Assignable.html" target="_top" xlink:title="Go to http://www.sgi.com/tech/stl/Assignable.html.">
<polygon fill="white" stroke="#666666" points="131,-36.5 0,-36.5 0,-17.5 131,-17.5 131,-36.5"/>
<text text-anchor="middle" x="65.5" y="-24.5" font-family="FreeSans" font-size="10.00">boost::Assignable&lt; T &gt;</text>
</a>
</g>
</g>
<!-- Node6&#45;&gt;Node5 -->
<g id="edge5_Node000005_Node000006" class="edge">
<title>Node6&#45;&gt;Node5</title>
<g id="a_edge5_Node000005_Node000006"><a xlink:title=" ">
<path fill="none" stroke="orange" stroke-dasharray="5,2" d="M141.41,-27C160.58,-27 181.04,-27 199.69,-27"/>
<polygon fill="orange" stroke="orange" points="141.22,-23.5 131.22,-27 141.22,-30.5 141.22,-23.5"/>
</a>
</g>
<text text-anchor="middle" x="165.5" y="-30" font-family="FreeSans" font-size="10.00" fill="grey"> &lt; X &gt;</text>
</g>
<!-- Node7 -->
<g id="Node000007" class="node">
<title>Node7</title>
<g id="a_Node000007"><a xlink:href="structDGtal_1_1concepts_1_1CPointFunctor.html" target="_top" xlink:title="Aim: Defines a functor on points.">
<polygon fill="white" stroke="#666666" points="1154,-64.5 958,-64.5 958,-45.5 1154,-45.5 1154,-64.5"/>
<text text-anchor="middle" x="1056" y="-52.5" font-family="FreeSans" font-size="10.00">DGtal::concepts::CPointFunctor&lt; T &gt;</text>
</a>
</g>
</g>
<!-- Node7&#45;&gt;Node3 -->
<g id="edge6_Node000003_Node000007" class="edge">
<title>Node7&#45;&gt;Node3</title>
<g id="a_edge6_Node000003_Node000007"><a xlink:title=" ">
<path fill="none" stroke="orange" stroke-dasharray="5,2" d="M1164.31,-45C1182.36,-43.32 1200.99,-41.58 1218.72,-39.93"/>
<polygon fill="orange" stroke="orange" points="1163.98,-41.51 1154.35,-45.93 1164.63,-48.48 1163.98,-41.51"/>
</a>
</g>
<text text-anchor="middle" x="1186.5" y="-47" font-family="FreeSans" font-size="10.00" fill="grey"> &lt; I &gt;</text>
</g>
<!-- Node8 -->
<g id="Node000008" class="node">
<title>Node8</title>
<g id="a_Node000008"><a xlink:href="structDGtal_1_1concepts_1_1CUnaryFunctor.html" target="_top" xlink:title=" ">
<polygon fill="white" stroke="#666666" points="921,-73 749,-73 749,-43 921,-43 921,-73"/>
<text text-anchor="start" x="757" y="-61" font-family="FreeSans" font-size="10.00">DGtal::concepts::CUnaryFunctor</text>
<text text-anchor="middle" x="835" y="-50" font-family="FreeSans" font-size="10.00">&lt; T, T::Point, T::Value &gt;</text>
</a>
</g>
</g>
<!-- Node8&#45;&gt;Node7 -->
<g id="edge7_Node000007_Node000008" class="edge">
<title>Node8&#45;&gt;Node7</title>
<g id="a_edge7_Node000007_Node000008"><a xlink:title=" ">
<path fill="none" stroke="#63b8ff" d="M931.51,-56.69C940.28,-56.57 949.16,-56.45 957.94,-56.33"/>
<polygon fill="#63b8ff" stroke="#63b8ff" points="931.25,-53.19 921.3,-56.83 931.35,-60.19 931.25,-53.19"/>
</a>
</g>
</g>
<!-- Node9 -->
<g id="Node000009" class="node">
<title>Node9</title>
<g id="a_Node000009"><a xlink:href="structboost_1_1Assignable.html" target="_top" xlink:title="Go to http://www.sgi.com/tech/stl/Assignable.html.">
<polygon fill="white" stroke="#666666" points="520.5,-62.5 389.5,-62.5 389.5,-43.5 520.5,-43.5 520.5,-62.5"/>
<text text-anchor="middle" x="455" y="-50.5" font-family="FreeSans" font-size="10.00">boost::Assignable&lt; T &gt;</text>
</a>
</g>
</g>
<!-- Node9&#45;&gt;Node8 -->
<g id="edge8_Node000008_Node000009" class="edge">
<title>Node9&#45;&gt;Node8</title>
<g id="a_edge8_Node000008_Node000009"><a xlink:title=" ">
<path fill="none" stroke="#63b8ff" d="M530.78,-53.99C593.55,-54.82 683.23,-56.01 748.78,-56.87"/>
<polygon fill="#63b8ff" stroke="#63b8ff" points="530.6,-50.49 520.55,-53.85 530.5,-57.49 530.6,-50.49"/>
</a>
</g>
</g>
<!-- Node10&#45;&gt;Node8 -->
<g id="edge9_Node000008_Node000010" class="edge">
<title>Node10&#45;&gt;Node8</title>
<g id="a_edge9_Node000008_Node000010"><a xlink:title=" ">
<path fill="none" stroke="orange" stroke-dasharray="5,2" d="M551.24,-86.85C604.19,-81.71 671.26,-75.12 731,-69 736.81,-68.4 742.81,-67.78 748.85,-67.15"/>
<polygon fill="orange" stroke="orange" points="550.8,-83.38 541.18,-87.83 551.48,-90.34 550.8,-83.38"/>
</a>
</g>
<text text-anchor="middle" x="645" y="-88" font-family="FreeSans" font-size="10.00" fill="grey"> &lt; T, T::Point, T::Value &gt;</text>
</g>
</g>
</svg>

<g id="navigator" transform="translate(0 0)" fill="#404254">
  <rect fill="#f2f5e9" fill-opacity="0.5" stroke="#606060" stroke-width=".5" x="0" y="0" width="60" height="60"/>
  <use id="zoomplus" xlink:href="#zoomPlus" x="17" y="9" onmousedown="handleZoom(evt,'in')"/>
  <use id="zoomminus" xlink:href="#zoomMin" x="42" y="9" onmousedown="handleZoom(evt,'out')"/>
  <use id="reset" xlink:href="#resetDef" x="30" y="36" onmousedown="handleReset()"/>
   <use id="arrowup" xlink:href="#arrowUp" x="0" y="0" onmousedown="handlePan(0,-1)"/>
  <use id="arrowright" xlink:href="#arrowRight" x="0" y="0" onmousedown="handlePan(1,0)"/>
  <use id="arrowdown" xlink:href="#arrowDown" x="0" y="0" onmousedown="handlePan(0,1)"/>
  <use id="arrowleft" xlink:href="#arrowLeft" x="0" y="0" onmousedown="handlePan(-1,0)"/>
</g>
<svg viewBox="0 0 15 15" width="100%" height="30px" preserveAspectRatio="xMaxYMin meet">
 <g id="arrow_out" transform="scale(0.3 0.3)">
  <a xlink:href="structDGtal_1_1concepts_1_1CConstImage__inherit__graph_org.svg" target="_base">
   <rect id="button" ry="5" rx="5" y="6" x="6" height="38" width="38"
        fill="#f2f5e9" fill-opacity="0.5" stroke="#606060" stroke-width="1.0"/>
   <path id="arrow"
     d="M 11.500037,31.436501 C 11.940474,20.09759 22.043105,11.32322 32.158766,21.979434 L 37.068811,17.246167 C 37.068811,17.246167 37.088388,32 37.088388,32 L 22.160133,31.978069 C 22.160133,31.978069 26.997745,27.140456 26.997745,27.140456 C 18.528582,18.264221 13.291696,25.230495 11.500037,31.436501 z"
     style="fill:#404040;"/>
  </a>
 </g>
</svg>

<style type='text/css'>
<![CDATA[
[data-mouse-over-selected='false'] { opacity: 0.7; }
[data-mouse-over-selected='true']  { opacity: 1.0; }
]]>
</style>
<script type="application/ecmascript"><![CDATA[
document.addEventListener('DOMContentLoaded', (event) => {
  highlightEdges();
  highlightAdjacentNodes();
});
]]></script>
</svg>
