<?xml version="1.0" encoding="UTF-8" standalone="no"?>
<!DOCTYPE svg PUBLIC "-//W3C//DTD SVG 1.1//EN"
 "http://www.w3.org/Graphics/SVG/1.1/DTD/svg11.dtd">
<!-- Generated by graphviz version 2.43.0 (0)
 -->
<!-- Title: DGtal::functors::Cast&lt; TOutput &gt; Pages: 1 -->
<svg width="263pt" height="117pt"
 viewBox="0.00 0.00 263.00 117.00" xmlns="http://www.w3.org/2000/svg" xmlns:xlink="http://www.w3.org/1999/xlink">
<g id="graph0" class="graph" transform="scale(1 1) rotate(0) translate(4 113)">
<title>DGtal::functors::Cast&lt; TOutput &gt;</title>
<polygon fill="white" stroke="transparent" points="-4,4 -4,-113 259,-113 259,4 -4,4"/>
<!-- Node1 -->
<g id="node1" class="node">
<title>Node1</title>
<g id="a_node1"><a xlink:title="Aim: Define a simple functor using the static cast operator.">
<polygon fill="#bfbfbf" stroke="black" points="68,-78.5 68,-108.5 186,-108.5 186,-78.5 68,-78.5"/>
<text text-anchor="start" x="76" y="-96.5" font-family="FreeSans" font-size="10.00">DGtal::functors::Cast</text>
<text text-anchor="middle" x="127" y="-85.5" font-family="FreeSans" font-size="10.00">&lt; TOutput &gt;</text>
</a>
</g>
</g>
<!-- Node2 -->
<g id="node2" class="node">
<title>Node2</title>
<g id="a_node2"><a xlink:href="structDGtal_1_1functors_1_1Cast.html" target="_top" xlink:title=" ">
<polygon fill="white" stroke="black" points="0,-0.5 0,-30.5 118,-30.5 118,-0.5 0,-0.5"/>
<text text-anchor="start" x="8" y="-18.5" font-family="FreeSans" font-size="10.00">DGtal::functors::Cast</text>
<text text-anchor="middle" x="59" y="-7.5" font-family="FreeSans" font-size="10.00">&lt; TValue &gt;</text>
</a>
</g>
</g>
<!-- Node1&#45;&gt;Node2 -->
<g id="edge1" class="edge">
<title>Node1&#45;&gt;Node2</title>
<path fill="none" stroke="orange" stroke-dasharray="5,2" d="M107.47,-70.67C95.98,-57.83 81.78,-41.97 71.73,-30.73"/>
<polygon fill="orange" stroke="orange" points="104.93,-73.09 114.21,-78.2 110.15,-68.42 104.93,-73.09"/>
<text text-anchor="middle" x="127.5" y="-52" font-family="FreeSans" font-size="10.00"> &lt; TValue &gt;</text>
</g>
<!-- Node3 -->
<g id="node3" class="node">
<title>Node3</title>
<g id="a_node3"><a xlink:href="structDGtal_1_1functors_1_1Cast.html" target="_top" xlink:title=" ">
<polygon fill="white" stroke="black" points="136,-0.5 136,-30.5 254,-30.5 254,-0.5 136,-0.5"/>
<text text-anchor="start" x="144" y="-18.5" font-family="FreeSans" font-size="10.00">DGtal::functors::Cast</text>
<text text-anchor="middle" x="195" y="-7.5" font-family="FreeSans" font-size="10.00">&lt; unsigned int &gt;</text>
</a>
</g>
</g>
<!-- Node1&#45;&gt;Node3 -->
<g id="edge2" class="edge">
<title>Node1&#45;&gt;Node3</title>
<path fill="none" stroke="orange" stroke-dasharray="5,2" d="M150.17,-71.22C153.89,-67.56 157.62,-63.74 161,-60 169.49,-50.62 178.27,-39.35 184.77,-30.63"/>
<polygon fill="orange" stroke="orange" points="147.49,-68.94 142.7,-78.39 152.34,-73.99 147.49,-68.94"/>
<text text-anchor="middle" x="212" y="-52" font-family="FreeSans" font-size="10.00"> &lt; unsigned int &gt;</text>
</g>
</g>
</svg>
