<?xml version="1.0" encoding="UTF-8" standalone="no"?>
<!DOCTYPE svg PUBLIC "-//W3C//DTD SVG 1.1//EN"
 "http://www.w3.org/Graphics/SVG/1.1/DTD/svg11.dtd">
<!-- Generated by graphviz version 2.43.0 (0)
 -->
<!-- Title: DGtal::concepts::CTrivialImage&lt; I &gt; Pages: 1 -->
<svg width="1966pt" height="119pt"
 viewBox="0.00 0.00 1966.00 119.00" xmlns="http://www.w3.org/2000/svg" xmlns:xlink="http://www.w3.org/1999/xlink">
<g id="graph0" class="graph" transform="scale(1 1) rotate(0) translate(4 115)">
<title>DGtal::concepts::CTrivialImage&lt; I &gt;</title>
<!-- Node1 -->
<g id="Node000001" class="node">
<title>Node1</title>
<g id="a_Node000001"><a xlink:title="Aim: Defines the concept describing an image without extra ranges, which is a refinement of CTrivialC...">
<polygon fill="#999999" stroke="#666666" points="1758,-46 1622,-46 1622,-16 1758,-16 1758,-46"/>
<text text-anchor="start" x="1630" y="-34" font-family="FreeSans" font-size="10.00">DGtal::concepts::CTrivial</text>
<text text-anchor="middle" x="1690" y="-23" font-family="FreeSans" font-size="10.00">Image&lt; I &gt;</text>
</a>
</g>
</g>
<!-- Node11 -->
<g id="Node000011" class="node">
<title>Node11</title>
<g id="a_Node000011"><a xlink:href="structDGtal_1_1concepts_1_1CImage.html" target="_top" xlink:title="Aim: Defines the concept describing a read/write image, having an output iterator.">
<polygon fill="white" stroke="#666666" points="1958,-40.5 1795,-40.5 1795,-21.5 1958,-21.5 1958,-40.5"/>
<text text-anchor="middle" x="1876.5" y="-28.5" font-family="FreeSans" font-size="10.00">DGtal::concepts::CImage&lt; I &gt;</text>
</a>
</g>
</g>
<!-- Node1&#45;&gt;Node11 -->
<g id="edge11_Node000001_Node000011" class="edge">
<title>Node1&#45;&gt;Node11</title>
<g id="a_edge11_Node000001_Node000011"><a xlink:title=" ">
<path fill="none" stroke="#63b8ff" d="M1768.34,-31C1777.13,-31 1786.1,-31 1794.92,-31"/>
<polygon fill="#63b8ff" stroke="#63b8ff" points="1768.13,-27.5 1758.13,-31 1768.13,-34.5 1768.13,-27.5"/>
</a>
</g>
</g>
<!-- Node2 -->
<g id="Node000002" class="node">
<title>Node2</title>
<g id="a_Node000002"><a xlink:href="structDGtal_1_1concepts_1_1CTrivialConstImage.html" target="_top" xlink:title="Aim: Defines the concept describing a read&#45;only image, which is a refinement of CPointFunctor.">
<polygon fill="white" stroke="#666666" points="1585,-46 1449,-46 1449,-16 1585,-16 1585,-46"/>
<text text-anchor="start" x="1457" y="-34" font-family="FreeSans" font-size="10.00">DGtal::concepts::CTrivial</text>
<text text-anchor="middle" x="1517" y="-23" font-family="FreeSans" font-size="10.00">ConstImage&lt; I &gt;</text>
</a>
</g>
</g>
<!-- Node2&#45;&gt;Node1 -->
<g id="edge1_Node000001_Node000002" class="edge">
<title>Node2&#45;&gt;Node1</title>
<g id="a_edge1_Node000001_Node000002"><a xlink:title=" ">
<path fill="none" stroke="#63b8ff" d="M1595.38,-31C1604.2,-31 1613.14,-31 1621.82,-31"/>
<polygon fill="#63b8ff" stroke="#63b8ff" points="1595.09,-27.5 1585.09,-31 1595.09,-34.5 1595.09,-27.5"/>
</a>
</g>
</g>
<!-- Node3 -->
<g id="Node000003" class="node">
<title>Node3</title>
<g id="a_Node000003"><a xlink:href="structDGtal_1_1concepts_1_1CPointFunctor.html" target="_top" xlink:title=" ">
<polygon fill="white" stroke="#666666" points="1412,-40.5 1219,-40.5 1219,-21.5 1412,-21.5 1412,-40.5"/>
<text text-anchor="middle" x="1315.5" y="-28.5" font-family="FreeSans" font-size="10.00">DGtal::concepts::CPointFunctor&lt; I &gt;</text>
</a>
</g>
</g>
<!-- Node3&#45;&gt;Node2 -->
<g id="edge2_Node000002_Node000003" class="edge">
<title>Node3&#45;&gt;Node2</title>
<g id="a_edge2_Node000002_Node000003"><a xlink:title=" ">
<path fill="none" stroke="#63b8ff" d="M1422.33,-31C1431.34,-31 1440.27,-31 1448.85,-31"/>
<polygon fill="#63b8ff" stroke="#63b8ff" points="1422.16,-27.5 1412.16,-31 1422.16,-34.5 1422.16,-27.5"/>
</a>
</g>
</g>
<!-- Node4 -->
<g id="Node000004" class="node">
<title>Node4</title>
<g id="a_Node000004"><a xlink:href="structDGtal_1_1concepts_1_1CUnaryFunctor.html" target="_top" xlink:title="Aim: Defines a unary functor, which associates arguments to results.">
<polygon fill="white" stroke="#666666" points="731,-30 559,-30 559,0 731,0 731,-30"/>
<text text-anchor="start" x="567" y="-18" font-family="FreeSans" font-size="10.00">DGtal::concepts::CUnaryFunctor</text>
<text text-anchor="middle" x="645" y="-7" font-family="FreeSans" font-size="10.00">&lt; X, A, R &gt;</text>
</a>
</g>
</g>
<!-- Node4&#45;&gt;Node3 -->
<g id="edge3_Node000003_Node000004" class="edge">
<title>Node4&#45;&gt;Node3</title>
<g id="a_edge3_Node000003_Node000004"><a xlink:title=" ">
<path fill="none" stroke="#63b8ff" d="M741.1,-17.28C868.02,-20.31 1091.53,-25.66 1218.77,-28.71"/>
<polygon fill="#63b8ff" stroke="#63b8ff" points="741.09,-13.77 731.01,-17.03 740.92,-20.77 741.09,-13.77"/>
</a>
</g>
</g>
<!-- Node5 -->
<g id="Node000005" class="node">
<title>Node5</title>
<g id="a_Node000005"><a xlink:href="structboost_1_1Assignable.html" target="_top" xlink:title=" ">
<polygon fill="white" stroke="#666666" points="332,-36.5 200,-36.5 200,-17.5 332,-17.5 332,-36.5"/>
<text text-anchor="middle" x="266" y="-24.5" font-family="FreeSans" font-size="10.00">boost::Assignable&lt; X &gt;</text>
</a>
</g>
</g>
<!-- Node5&#45;&gt;Node4 -->
<g id="edge4_Node000004_Node000005" class="edge">
<title>Node5&#45;&gt;Node4</title>
<g id="a_edge4_Node000004_Node000005"><a xlink:title=" ">
<path fill="none" stroke="#63b8ff" d="M342.42,-24.6C404.89,-22.61 493.65,-19.79 558.7,-17.71"/>
<polygon fill="#63b8ff" stroke="#63b8ff" points="342.12,-21.11 332.24,-24.92 342.34,-28.1 342.12,-21.11"/>
</a>
</g>
</g>
<!-- Node10 -->
<g id="Node000010" class="node">
<title>Node10</title>
<g id="a_Node000010"><a xlink:href="structDGtal_1_1concepts_1_1CUnaryFunctor.html" target="_top" xlink:title="Aim: Defines a unary functor, which associates arguments to results.">
<polygon fill="white" stroke="#666666" points="541,-111 369,-111 369,-81 541,-81 541,-111"/>
<text text-anchor="start" x="377" y="-99" font-family="FreeSans" font-size="10.00">DGtal::concepts::CUnaryFunctor</text>
<text text-anchor="middle" x="455" y="-88" font-family="FreeSans" font-size="10.00">&lt; X, A, R &gt;</text>
</a>
</g>
</g>
<!-- Node5&#45;&gt;Node10 -->
<g id="edge10_Node000010_Node000005" class="edge">
<title>Node5&#45;&gt;Node10</title>
<g id="a_edge10_Node000010_Node000005"><a xlink:title=" ">
<path fill="none" stroke="#63b8ff" d="M295.86,-41.03C316.05,-50.52 343.8,-62.93 369,-72 377.8,-75.17 387.23,-78.19 396.5,-80.95"/>
<polygon fill="#63b8ff" stroke="#63b8ff" points="297.13,-37.76 286.6,-36.63 294.13,-44.09 297.13,-37.76"/>
</a>
</g>
</g>
<!-- Node6 -->
<g id="Node000006" class="node">
<title>Node6</title>
<g id="a_Node000006"><a xlink:href="structboost_1_1Assignable.html" target="_top" xlink:title="Go to http://www.sgi.com/tech/stl/Assignable.html.">
<polygon fill="white" stroke="#666666" points="131,-36.5 0,-36.5 0,-17.5 131,-17.5 131,-36.5"/>
<text text-anchor="middle" x="65.5" y="-24.5" font-family="FreeSans" font-size="10.00">boost::Assignable&lt; T &gt;</text>
</a>
</g>
</g>
<!-- Node6&#45;&gt;Node5 -->
<g id="edge5_Node000005_Node000006" class="edge">
<title>Node6&#45;&gt;Node5</title>
<g id="a_edge5_Node000005_Node000006"><a xlink:title=" ">
<path fill="none" stroke="orange" stroke-dasharray="5,2" d="M141.41,-27C160.58,-27 181.04,-27 199.69,-27"/>
<polygon fill="orange" stroke="orange" points="141.22,-23.5 131.22,-27 141.22,-30.5 141.22,-23.5"/>
</a>
</g>
<text text-anchor="middle" x="165.5" y="-30" font-family="FreeSans" font-size="10.00" fill="grey"> &lt; X &gt;</text>
</g>
<!-- Node7 -->
<g id="Node000007" class="node">
<title>Node7</title>
<g id="a_Node000007"><a xlink:href="structDGtal_1_1concepts_1_1CPointFunctor.html" target="_top" xlink:title="Aim: Defines a functor on points.">
<polygon fill="white" stroke="#666666" points="1154,-64.5 958,-64.5 958,-45.5 1154,-45.5 1154,-64.5"/>
<text text-anchor="middle" x="1056" y="-52.5" font-family="FreeSans" font-size="10.00">DGtal::concepts::CPointFunctor&lt; T &gt;</text>
</a>
</g>
</g>
<!-- Node7&#45;&gt;Node3 -->
<g id="edge6_Node000003_Node000007" class="edge">
<title>Node7&#45;&gt;Node3</title>
<g id="a_edge6_Node000003_Node000007"><a xlink:title=" ">
<path fill="none" stroke="orange" stroke-dasharray="5,2" d="M1164.31,-45C1182.36,-43.32 1200.99,-41.58 1218.72,-39.93"/>
<polygon fill="orange" stroke="orange" points="1163.98,-41.51 1154.35,-45.93 1164.63,-48.48 1163.98,-41.51"/>
</a>
</g>
<text text-anchor="middle" x="1186.5" y="-47" font-family="FreeSans" font-size="10.00" fill="grey"> &lt; I &gt;</text>
</g>
<!-- Node8 -->
<g id="Node000008" class="node">
<title>Node8</title>
<g id="a_Node000008"><a xlink:href="structDGtal_1_1concepts_1_1CUnaryFunctor.html" target="_top" xlink:title=" ">
<polygon fill="white" stroke="#666666" points="921,-73 749,-73 749,-43 921,-43 921,-73"/>
<text text-anchor="start" x="757" y="-61" font-family="FreeSans" font-size="10.00">DGtal::concepts::CUnaryFunctor</text>
<text text-anchor="middle" x="835" y="-50" font-family="FreeSans" font-size="10.00">&lt; T, T::Point, T::Value &gt;</text>
</a>
</g>
</g>
<!-- Node8&#45;&gt;Node7 -->
<g id="edge7_Node000007_Node000008" class="edge">
<title>Node8&#45;&gt;Node7</title>
<g id="a_edge7_Node000007_Node000008"><a xlink:title=" ">
<path fill="none" stroke="#63b8ff" d="M931.51,-56.69C940.28,-56.57 949.16,-56.45 957.94,-56.33"/>
<polygon fill="#63b8ff" stroke="#63b8ff" points="931.25,-53.19 921.3,-56.83 931.35,-60.19 931.25,-53.19"/>
</a>
</g>
</g>
<!-- Node9 -->
<g id="Node000009" class="node">
<title>Node9</title>
<g id="a_Node000009"><a xlink:href="structboost_1_1Assignable.html" target="_top" xlink:title="Go to http://www.sgi.com/tech/stl/Assignable.html.">
<polygon fill="white" stroke="#666666" points="520.5,-62.5 389.5,-62.5 389.5,-43.5 520.5,-43.5 520.5,-62.5"/>
<text text-anchor="middle" x="455" y="-50.5" font-family="FreeSans" font-size="10.00">boost::Assignable&lt; T &gt;</text>
</a>
</g>
</g>
<!-- Node9&#45;&gt;Node8 -->
<g id="edge8_Node000008_Node000009" class="edge">
<title>Node9&#45;&gt;Node8</title>
<g id="a_edge8_Node000008_Node000009"><a xlink:title=" ">
<path fill="none" stroke="#63b8ff" d="M530.78,-53.99C593.55,-54.82 683.23,-56.01 748.78,-56.87"/>
<polygon fill="#63b8ff" stroke="#63b8ff" points="530.6,-50.49 520.55,-53.85 530.5,-57.49 530.6,-50.49"/>
</a>
</g>
</g>
<!-- Node10&#45;&gt;Node8 -->
<g id="edge9_Node000008_Node000010" class="edge">
<title>Node10&#45;&gt;Node8</title>
<g id="a_edge9_Node000008_Node000010"><a xlink:title=" ">
<path fill="none" stroke="orange" stroke-dasharray="5,2" d="M551.24,-86.85C604.19,-81.71 671.26,-75.12 731,-69 736.81,-68.4 742.81,-67.78 748.85,-67.15"/>
<polygon fill="orange" stroke="orange" points="550.8,-83.38 541.18,-87.83 551.48,-90.34 550.8,-83.38"/>
</a>
</g>
<text text-anchor="middle" x="645" y="-88" font-family="FreeSans" font-size="10.00" fill="grey"> &lt; T, T::Point, T::Value &gt;</text>
</g>
</g>
</svg>
