<?xml version="1.0" encoding="UTF-8" standalone="no"?>
<!DOCTYPE svg PUBLIC "-//W3C//DTD SVG 1.1//EN"
 "http://www.w3.org/Graphics/SVG/1.1/DTD/svg11.dtd">
<!-- Generated by graphviz version 2.43.0 (0)
 -->
<!-- Title: DGtal::Display3DFactory&lt; TSpace, TKSpace &gt; Pages: 1 -->
<svg width="598pt" height="88pt"
 viewBox="0.00 0.00 598.00 88.00" xmlns="http://www.w3.org/2000/svg" xmlns:xlink="http://www.w3.org/1999/xlink">
<g id="graph0" class="graph" transform="scale(1 1) rotate(0) translate(4 84)">
<title>DGtal::Display3DFactory&lt; TSpace, TKSpace &gt;</title>
<polygon fill="white" stroke="transparent" points="-4,4 -4,-84 594,-84 594,4 -4,4"/>
<!-- Node1 -->
<g id="node1" class="node">
<title>Node1</title>
<g id="a_node1"><a xlink:title="Factory for GPL Display3D:">
<polygon fill="#bfbfbf" stroke="black" points="0,-24.5 0,-54.5 136,-54.5 136,-24.5 0,-24.5"/>
<text text-anchor="start" x="8" y="-42.5" font-family="FreeSans" font-size="10.00">DGtal::Display3DFactory</text>
<text text-anchor="middle" x="68" y="-31.5" font-family="FreeSans" font-size="10.00">&lt; TSpace, TKSpace &gt;</text>
</a>
</g>
</g>
<!-- Node2 -->
<g id="node2" class="node">
<title>Node2</title>
<g id="a_node2"><a xlink:href="structDGtal_1_1Board3DTo2DFactory.html" target="_top" xlink:title="Factory for GPL Display3D:">
<polygon fill="white" stroke="black" points="267,-49.5 267,-79.5 419,-79.5 419,-49.5 267,-49.5"/>
<text text-anchor="start" x="275" y="-67.5" font-family="FreeSans" font-size="10.00">DGtal::Board3DTo2DFactory</text>
<text text-anchor="middle" x="343" y="-56.5" font-family="FreeSans" font-size="10.00">&lt; TSpace, TKSpace &gt;</text>
</a>
</g>
</g>
<!-- Node1&#45;&gt;Node2 -->
<g id="edge1" class="edge">
<title>Node1&#45;&gt;Node2</title>
<path fill="none" stroke="midnightblue" d="M146.32,-49.69C148.91,-49.97 151.47,-50.24 154,-50.5 191.12,-54.28 232.46,-57.47 266.9,-59.85"/>
<polygon fill="midnightblue" stroke="midnightblue" points="146.57,-46.19 136.24,-48.54 145.78,-53.15 146.57,-46.19"/>
</g>
<!-- Node3 -->
<g id="node3" class="node">
<title>Node3</title>
<g id="a_node3"><a xlink:href="structDGtal_1_1Display3DFactory.html" target="_top" xlink:title=" ">
<polygon fill="white" stroke="black" points="266,-0.5 266,-30.5 420,-30.5 420,-0.5 266,-0.5"/>
<text text-anchor="start" x="274" y="-18.5" font-family="FreeSans" font-size="10.00">DGtal::Display3DFactory</text>
<text text-anchor="middle" x="343" y="-7.5" font-family="FreeSans" font-size="10.00">&lt; Z3i::Space, Z3i::KSpace &gt;</text>
</a>
</g>
</g>
<!-- Node1&#45;&gt;Node3 -->
<g id="edge2" class="edge">
<title>Node1&#45;&gt;Node3</title>
<path fill="none" stroke="orange" stroke-dasharray="5,2" d="M146.31,-29.3C148.91,-29.02 151.47,-28.75 154,-28.5 190.79,-24.85 231.73,-21.89 265.99,-19.72"/>
<polygon fill="orange" stroke="orange" points="145.78,-25.83 136.23,-30.42 146.56,-32.79 145.78,-25.83"/>
<text text-anchor="start" x="154" y="-42.5" font-family="FreeSans" font-size="10.00"> &lt; Z3i::Space, Z3i::</text>
<text text-anchor="middle" x="201" y="-31.5" font-family="FreeSans" font-size="10.00">KSpace &gt;</text>
</g>
<!-- Node4 -->
<g id="node4" class="node">
<title>Node4</title>
<g id="a_node4"><a xlink:href="structDGtal_1_1Viewer3DFactory.html" target="_top" xlink:title="Factory for GPL Viewer3D:">
<polygon fill="white" stroke="black" points="457,-0.5 457,-30.5 590,-30.5 590,-0.5 457,-0.5"/>
<text text-anchor="start" x="465" y="-18.5" font-family="FreeSans" font-size="10.00">DGtal::Viewer3DFactory</text>
<text text-anchor="middle" x="523.5" y="-7.5" font-family="FreeSans" font-size="10.00">&lt; TSpace, TKSpace &gt;</text>
</a>
</g>
</g>
<!-- Node3&#45;&gt;Node4 -->
<g id="edge3" class="edge">
<title>Node3&#45;&gt;Node4</title>
<path fill="none" stroke="midnightblue" d="M430.3,-15.5C439.26,-15.5 448.27,-15.5 456.94,-15.5"/>
<polygon fill="midnightblue" stroke="midnightblue" points="430.22,-12 420.22,-15.5 430.22,-19 430.22,-12"/>
</g>
</g>
</svg>
