<?xml version="1.0" encoding="UTF-8" standalone="no"?>
<!DOCTYPE svg PUBLIC "-//W3C//DTD SVG 1.1//EN"
 "http://www.w3.org/Graphics/SVG/1.1/DTD/svg11.dtd">
<!-- Generated by graphviz version 2.43.0 (0)
 -->
<!-- Title: boost::DefaultConstructible&lt; T &gt; Pages: 1 -->
<svg width="1670pt" height="665pt"
 viewBox="0.00 0.00 1670.00 665.00" xmlns="http://www.w3.org/2000/svg" xmlns:xlink="http://www.w3.org/1999/xlink">
<g id="graph0" class="graph" transform="scale(1 1) rotate(0) translate(4 661)">
<title>boost::DefaultConstructible&lt; T &gt;</title>
<polygon fill="white" stroke="transparent" points="-4,4 -4,-661 1666,-661 1666,4 -4,4"/>
<!-- Node1 -->
<g id="node1" class="node">
<title>Node1</title>
<g id="a_node1"><a xlink:title="Go to http://www.sgi.com/tech/stl/DefaultConstructible.html.">
<polygon fill="#bfbfbf" stroke="black" points="0,-318 0,-337 179,-337 179,-318 0,-318"/>
<text text-anchor="middle" x="89.5" y="-325" font-family="FreeSans" font-size="10.00">boost::DefaultConstructible&lt; T &gt;</text>
</a>
</g>
</g>
<!-- Node2 -->
<g id="node2" class="node">
<title>Node2</title>
<g id="a_node2"><a xlink:href="structDGtal_1_1C2x2DetComputer.html" target="_top" xlink:title="Aim: This concept gathers all models that are able to compute the (sign of the) determinant of a 2x2 ...">
<polygon fill="white" stroke="black" points="265.5,-604 265.5,-623 434.5,-623 434.5,-604 265.5,-604"/>
<text text-anchor="middle" x="350" y="-611" font-family="FreeSans" font-size="10.00">DGtal::C2x2DetComputer&lt; T &gt;</text>
</a>
</g>
</g>
<!-- Node1&#45;&gt;Node2 -->
<g id="edge1" class="edge">
<title>Node1&#45;&gt;Node2</title>
<path fill="none" stroke="midnightblue" d="M97.27,-346.89C111.7,-386.7 148.23,-479.49 197,-546.5 215.13,-571.41 219.6,-580.42 247,-594.5 254.53,-598.37 262.73,-601.46 271.11,-603.92"/>
<polygon fill="midnightblue" stroke="midnightblue" points="100.52,-345.59 93.86,-337.34 93.92,-347.94 100.52,-345.59"/>
</g>
<!-- Node3 -->
<g id="node3" class="node">
<title>Node3</title>
<g id="a_node3"><a xlink:href="structDGtal_1_1concepts_1_1CLabel.html" target="_top" xlink:title="Aim: Define the concept of DGtal labels. Models of CLabel can be default&#45;constructible,...">
<polygon fill="white" stroke="black" points="269.5,-566 269.5,-585 430.5,-585 430.5,-566 269.5,-566"/>
<text text-anchor="middle" x="350" y="-573" font-family="FreeSans" font-size="10.00">DGtal::concepts::CLabel&lt; T &gt;</text>
</a>
</g>
</g>
<!-- Node1&#45;&gt;Node3 -->
<g id="edge2" class="edge">
<title>Node1&#45;&gt;Node3</title>
<path fill="none" stroke="midnightblue" d="M96.68,-346.88C112.68,-393.4 160.42,-510.9 247,-556.5 254.41,-560.4 262.49,-563.52 270.76,-566"/>
<polygon fill="midnightblue" stroke="midnightblue" points="99.91,-345.52 93.43,-337.13 93.27,-347.73 99.91,-345.52"/>
</g>
<!-- Node12 -->
<g id="node12" class="node">
<title>Node12</title>
<g id="a_node12"><a xlink:href="structDGtal_1_1concepts_1_1CLMSTDSSFilter.html" target="_top" xlink:title="Aim: Defines the concept describing a functor which filters DSSes for L&#45;MST calculations.">
<polygon fill="white" stroke="black" points="247,-528 247,-547 453,-547 453,-528 247,-528"/>
<text text-anchor="middle" x="350" y="-535" font-family="FreeSans" font-size="10.00">DGtal::concepts::CLMSTDSSFilter&lt; T &gt;</text>
</a>
</g>
</g>
<!-- Node1&#45;&gt;Node12 -->
<g id="edge12" class="edge">
<title>Node1&#45;&gt;Node12</title>
<path fill="none" stroke="midnightblue" d="M99.67,-346.13C120.07,-385.42 173.31,-476.56 247,-518.5 253.81,-522.38 261.25,-525.48 268.91,-527.97"/>
<polygon fill="midnightblue" stroke="midnightblue" points="102.74,-344.45 95.09,-337.12 96.5,-347.62 102.74,-344.45"/>
</g>
<!-- Node13 -->
<g id="node13" class="node">
<title>Node13</title>
<g id="a_node13"><a xlink:href="structDGtal_1_1concepts_1_1CLMSTTangentFromDSS.html" target="_top" xlink:title="Aim: Defines the concept describing a functor which calculates a direction of the 2D DSS and an eccen...">
<polygon fill="white" stroke="black" points="264.5,-478.5 264.5,-508.5 435.5,-508.5 435.5,-478.5 264.5,-478.5"/>
<text text-anchor="start" x="272.5" y="-496.5" font-family="FreeSans" font-size="10.00">DGtal::concepts::CLMSTTangent</text>
<text text-anchor="middle" x="350" y="-485.5" font-family="FreeSans" font-size="10.00">FromDSS&lt; T &gt;</text>
</a>
</g>
</g>
<!-- Node1&#45;&gt;Node13 -->
<g id="edge13" class="edge">
<title>Node1&#45;&gt;Node13</title>
<path fill="none" stroke="midnightblue" d="M104.68,-345.25C129.93,-375.61 185.82,-437.34 247,-469.5 253.6,-472.97 260.71,-475.95 267.98,-478.49"/>
<polygon fill="midnightblue" stroke="midnightblue" points="107.16,-342.75 98.12,-337.23 101.74,-347.19 107.16,-342.75"/>
</g>
<!-- Node14 -->
<g id="node14" class="node">
<title>Node14</title>
<g id="a_node14"><a xlink:href="structDGtal_1_1concepts_1_1CPolarPointComparator2D.html" target="_top" xlink:title="Aim: This concept gathers classes that are able to compare the position of two given points &#160;around a...">
<polygon fill="white" stroke="black" points="272,-429.5 272,-459.5 428,-459.5 428,-429.5 272,-429.5"/>
<text text-anchor="start" x="280" y="-447.5" font-family="FreeSans" font-size="10.00">DGtal::concepts::CPolarPoint</text>
<text text-anchor="middle" x="350" y="-436.5" font-family="FreeSans" font-size="10.00">Comparator2D&lt; T &gt;</text>
</a>
</g>
</g>
<!-- Node1&#45;&gt;Node14 -->
<g id="edge14" class="edge">
<title>Node1&#45;&gt;Node14</title>
<path fill="none" stroke="midnightblue" d="M111.78,-343.04C140.91,-363.61 195.47,-399.7 247,-420.5 255.35,-423.87 264.29,-426.83 273.27,-429.42"/>
<polygon fill="midnightblue" stroke="midnightblue" points="113.76,-340.15 103.59,-337.18 109.69,-345.84 113.76,-340.15"/>
</g>
<!-- Node15 -->
<g id="node15" class="node">
<title>Node15</title>
<g id="a_node15"><a xlink:href="structDGtal_1_1concepts_1_1CPositiveIrreducibleFraction.html" target="_top" xlink:title="Aim: Defines positive irreducible fractions, i.e. fraction p/q, p and q non&#45;negative integers,...">
<polygon fill="white" stroke="black" points="277,-380.5 277,-410.5 423,-410.5 423,-380.5 277,-380.5"/>
<text text-anchor="start" x="285" y="-398.5" font-family="FreeSans" font-size="10.00">DGtal::concepts::CPositive</text>
<text text-anchor="middle" x="350" y="-387.5" font-family="FreeSans" font-size="10.00">IrreducibleFraction&lt; T &gt;</text>
</a>
</g>
</g>
<!-- Node1&#45;&gt;Node15 -->
<g id="edge15" class="edge">
<title>Node1&#45;&gt;Node15</title>
<path fill="none" stroke="midnightblue" d="M132.5,-339.84C163.93,-348.94 208.04,-361.44 247,-371.5 258.71,-374.52 271.22,-377.6 283.33,-380.49"/>
<polygon fill="midnightblue" stroke="midnightblue" points="133.34,-336.44 122.76,-337.01 131.39,-343.16 133.34,-336.44"/>
</g>
<!-- Node16 -->
<g id="node16" class="node">
<title>Node16</title>
<g id="a_node16"><a xlink:href="structDGtal_1_1concepts_1_1CPreCellularGridSpaceND.html" target="_top" xlink:title="Aim: This concept describes an unbounded cellular grid space in nD. In these spaces obtained by carte...">
<polygon fill="white" stroke="black" points="270,-331.5 270,-361.5 430,-361.5 430,-331.5 270,-331.5"/>
<text text-anchor="start" x="278" y="-349.5" font-family="FreeSans" font-size="10.00">DGtal::concepts::CPreCellular</text>
<text text-anchor="middle" x="350" y="-338.5" font-family="FreeSans" font-size="10.00">GridSpaceND&lt; T &gt;</text>
</a>
</g>
</g>
<!-- Node1&#45;&gt;Node16 -->
<g id="edge16" class="edge">
<title>Node1&#45;&gt;Node16</title>
<path fill="none" stroke="midnightblue" d="M189.19,-334.75C215.79,-336.71 244.22,-338.8 269.61,-340.66"/>
<polygon fill="midnightblue" stroke="midnightblue" points="189.33,-331.25 179.1,-334.01 188.82,-338.24 189.33,-331.25"/>
</g>
<!-- Node18 -->
<g id="node18" class="node">
<title>Node18</title>
<g id="a_node18"><a xlink:href="structDGtal_1_1concepts_1_1CPrimitiveComputer.html" target="_top" xlink:title="Aim: Defines the concept describing an object that computes some primitive from input points,...">
<polygon fill="white" stroke="black" points="274.5,-282.5 274.5,-312.5 425.5,-312.5 425.5,-282.5 274.5,-282.5"/>
<text text-anchor="start" x="282.5" y="-300.5" font-family="FreeSans" font-size="10.00">DGtal::concepts::CPrimitive</text>
<text text-anchor="middle" x="350" y="-289.5" font-family="FreeSans" font-size="10.00">Computer&lt; T &gt;</text>
</a>
</g>
</g>
<!-- Node1&#45;&gt;Node18 -->
<g id="edge18" class="edge">
<title>Node1&#45;&gt;Node18</title>
<path fill="none" stroke="midnightblue" d="M182.69,-316.8C212.66,-313.32 245.53,-309.51 274.08,-306.19"/>
<polygon fill="midnightblue" stroke="midnightblue" points="182.18,-313.34 172.65,-317.97 182.98,-320.29 182.18,-313.34"/>
</g>
<!-- Node21 -->
<g id="node21" class="node">
<title>Node21</title>
<g id="a_node21"><a xlink:href="structDGtal_1_1concepts_1_1CSegment.html" target="_top" xlink:title="Aim: Defines the concept describing a segment, ie. a valid and not empty range.">
<polygon fill="white" stroke="black" points="260.5,-244 260.5,-263 439.5,-263 439.5,-244 260.5,-244"/>
<text text-anchor="middle" x="350" y="-251" font-family="FreeSans" font-size="10.00">DGtal::concepts::CSegment&lt; T &gt;</text>
</a>
</g>
</g>
<!-- Node1&#45;&gt;Node21 -->
<g id="edge21" class="edge">
<title>Node1&#45;&gt;Node21</title>
<path fill="none" stroke="midnightblue" d="M124.42,-314.27C155.84,-302.38 204.05,-285.06 247,-273.5 261.81,-269.51 278.03,-265.97 293.09,-263.01"/>
<polygon fill="midnightblue" stroke="midnightblue" points="122.93,-311.09 114.84,-317.92 125.43,-317.63 122.93,-311.09"/>
</g>
<!-- Node28 -->
<g id="node28" class="node">
<title>Node28</title>
<g id="a_node28"><a xlink:href="structDGtal_1_1concepts_1_1CStaticMatrix.html" target="_top" xlink:title="Aim: Represent any static sized matrix having sparse or dense representation.">
<polygon fill="white" stroke="black" points="283,-194.5 283,-224.5 417,-224.5 417,-194.5 283,-194.5"/>
<text text-anchor="start" x="291" y="-212.5" font-family="FreeSans" font-size="10.00">DGtal::concepts::CStatic</text>
<text text-anchor="middle" x="350" y="-201.5" font-family="FreeSans" font-size="10.00">Matrix&lt; T &gt;</text>
</a>
</g>
</g>
<!-- Node1&#45;&gt;Node28 -->
<g id="edge29" class="edge">
<title>Node1&#45;&gt;Node28</title>
<path fill="none" stroke="midnightblue" d="M111.81,-312.03C140.97,-291.54 195.57,-255.54 247,-234.5 258.31,-229.88 270.68,-225.96 282.79,-222.7"/>
<polygon fill="midnightblue" stroke="midnightblue" points="109.73,-309.22 103.61,-317.86 113.78,-314.92 109.73,-309.22"/>
</g>
<!-- Node29 -->
<g id="node29" class="node">
<title>Node29</title>
<g id="a_node29"><a xlink:href="structDGtal_1_1concepts_1_1CStaticVector.html" target="_top" xlink:title="Aim: Represent any static sized column vector having sparse or dense representation.">
<polygon fill="white" stroke="black" points="283,-145.5 283,-175.5 417,-175.5 417,-145.5 283,-145.5"/>
<text text-anchor="start" x="291" y="-163.5" font-family="FreeSans" font-size="10.00">DGtal::concepts::CStatic</text>
<text text-anchor="middle" x="350" y="-152.5" font-family="FreeSans" font-size="10.00">Vector&lt; T &gt;</text>
</a>
</g>
</g>
<!-- Node1&#45;&gt;Node29 -->
<g id="edge30" class="edge">
<title>Node1&#45;&gt;Node29</title>
<path fill="none" stroke="midnightblue" d="M104.71,-309.81C130.01,-279.54 185.97,-217.94 247,-185.5 258.03,-179.64 270.46,-175.12 282.75,-171.65"/>
<polygon fill="midnightblue" stroke="midnightblue" points="101.78,-307.86 98.14,-317.8 107.19,-312.3 101.78,-307.86"/>
</g>
<!-- Node30 -->
<g id="node30" class="node">
<title>Node30</title>
<g id="a_node30"><a xlink:href="structDGtal_1_1concepts_1_1CSTLAssociativeContainer.html" target="_top" xlink:title="Aim: Defines the concept describing an Associative Container of the STL (https://www....">
<polygon fill="white" stroke="black" points="259.5,-96.5 259.5,-126.5 440.5,-126.5 440.5,-96.5 259.5,-96.5"/>
<text text-anchor="start" x="267.5" y="-114.5" font-family="FreeSans" font-size="10.00">DGtal::concepts::CSTLAssociative</text>
<text text-anchor="middle" x="350" y="-103.5" font-family="FreeSans" font-size="10.00">Container&lt; T &gt;</text>
</a>
</g>
</g>
<!-- Node1&#45;&gt;Node30 -->
<g id="edge31" class="edge">
<title>Node1&#45;&gt;Node30</title>
<path fill="none" stroke="midnightblue" d="M100.12,-308.59C121.03,-269.53 174.66,-179.97 247,-136.5 253.49,-132.6 260.55,-129.31 267.83,-126.53"/>
<polygon fill="midnightblue" stroke="midnightblue" points="96.95,-307.1 95.41,-317.58 103.15,-310.35 96.95,-307.1"/>
</g>
<!-- Node31 -->
<g id="node31" class="node">
<title>Node31</title>
<g id="a_node31"><a xlink:href="structDGtal_1_1concepts_1_1CSurfelLocalEstimator.html" target="_top" xlink:title="Aim: This concept describes an object that can process a range of surfels (that are supposed to belon...">
<polygon fill="white" stroke="black" points="282.5,-47.5 282.5,-77.5 417.5,-77.5 417.5,-47.5 282.5,-47.5"/>
<text text-anchor="start" x="290.5" y="-65.5" font-family="FreeSans" font-size="10.00">DGtal::concepts::CSurfel</text>
<text text-anchor="middle" x="350" y="-54.5" font-family="FreeSans" font-size="10.00">LocalEstimator&lt; T &gt;</text>
</a>
</g>
</g>
<!-- Node1&#45;&gt;Node31 -->
<g id="edge32" class="edge">
<title>Node1&#45;&gt;Node31</title>
<path fill="none" stroke="midnightblue" d="M96.65,-308.17C112.74,-261.16 160.86,-140.8 247,-87.5 257.7,-80.88 270.04,-76.01 282.36,-72.43"/>
<polygon fill="midnightblue" stroke="midnightblue" points="93.3,-307.16 93.47,-317.76 99.94,-309.37 93.3,-307.16"/>
</g>
<!-- Node33 -->
<g id="node33" class="node">
<title>Node33</title>
<g id="a_node33"><a xlink:href="structboost_1_1DefaultConstructible.html" target="_top" xlink:title=" ">
<polygon fill="white" stroke="black" points="260.5,-8 260.5,-27 439.5,-27 439.5,-8 260.5,-8"/>
<text text-anchor="middle" x="350" y="-15" font-family="FreeSans" font-size="10.00">boost::DefaultConstructible&lt; S &gt;</text>
</a>
</g>
</g>
<!-- Node1&#45;&gt;Node33 -->
<g id="edge34" class="edge">
<title>Node1&#45;&gt;Node33</title>
<path fill="none" stroke="orange" stroke-dasharray="5,2" d="M96.2,-307.75C109.27,-264.63 144.34,-159.97 197,-85.5 214.61,-60.6 219.93,-52.55 247,-38.5 256.39,-33.63 266.81,-29.89 277.31,-27.01"/>
<polygon fill="orange" stroke="orange" points="92.78,-306.97 93.3,-317.55 99.5,-308.96 92.78,-306.97"/>
<text text-anchor="middle" x="213" y="-88.5" font-family="FreeSans" font-size="10.00"> &lt; S &gt;</text>
</g>
<!-- Node4 -->
<g id="node4" class="node">
<title>Node4</title>
<g id="a_node4"><a xlink:href="structDGtal_1_1concepts_1_1CQuantity.html" target="_top" xlink:title="Aim: defines the concept of quantity in DGtal.">
<polygon fill="white" stroke="black" points="490,-566 490,-585 667,-585 667,-566 490,-566"/>
<text text-anchor="middle" x="578.5" y="-573" font-family="FreeSans" font-size="10.00">DGtal::concepts::CQuantity&lt; T &gt;</text>
</a>
</g>
</g>
<!-- Node3&#45;&gt;Node4 -->
<g id="edge3" class="edge">
<title>Node3&#45;&gt;Node4</title>
<path fill="none" stroke="midnightblue" d="M440.97,-575.5C457,-575.5 473.69,-575.5 489.66,-575.5"/>
<polygon fill="midnightblue" stroke="midnightblue" points="440.54,-572 430.54,-575.5 440.54,-579 440.54,-572"/>
</g>
<!-- Node5 -->
<g id="node5" class="node">
<title>Node5</title>
<g id="a_node5"><a xlink:href="structDGtal_1_1concepts_1_1CBoundedNumber.html" target="_top" xlink:title="Aim: The concept CBoundedNumber specifies what are the bounded numbers. Models of this concept should...">
<polygon fill="white" stroke="black" points="712,-626.5 712,-656.5 861,-656.5 861,-626.5 712,-626.5"/>
<text text-anchor="start" x="720" y="-644.5" font-family="FreeSans" font-size="10.00">DGtal::concepts::CBounded</text>
<text text-anchor="middle" x="786.5" y="-633.5" font-family="FreeSans" font-size="10.00">Number&lt; T &gt;</text>
</a>
</g>
</g>
<!-- Node4&#45;&gt;Node5 -->
<g id="edge4" class="edge">
<title>Node4&#45;&gt;Node5</title>
<path fill="none" stroke="midnightblue" d="M616.19,-588.41C636.43,-595.43 662.03,-604.16 685,-611.5 700.78,-616.55 718.04,-621.8 733.74,-626.47"/>
<polygon fill="midnightblue" stroke="midnightblue" points="617.32,-585.1 606.73,-585.12 615.02,-591.71 617.32,-585.1"/>
</g>
<!-- Node6 -->
<g id="node6" class="node">
<title>Node6</title>
<g id="a_node6"><a xlink:href="structDGtal_1_1concepts_1_1CIntegralNumber.html" target="_top" xlink:title="Aim: Concept checking for Integral Numbers. Models of this concept should be listed in NumberTraits c...">
<polygon fill="white" stroke="black" points="887,-582.5 887,-612.5 1031,-612.5 1031,-582.5 887,-582.5"/>
<text text-anchor="start" x="895" y="-600.5" font-family="FreeSans" font-size="10.00">DGtal::concepts::CIntegral</text>
<text text-anchor="middle" x="959" y="-589.5" font-family="FreeSans" font-size="10.00">Number&lt; T &gt;</text>
</a>
</g>
</g>
<!-- Node4&#45;&gt;Node6 -->
<g id="edge5" class="edge">
<title>Node4&#45;&gt;Node6</title>
<path fill="none" stroke="midnightblue" d="M677.63,-581.2C743.13,-585.01 827.76,-589.93 886.83,-593.36"/>
<polygon fill="midnightblue" stroke="midnightblue" points="677.47,-577.69 667.29,-580.6 677.07,-584.68 677.47,-577.69"/>
</g>
<!-- Node8 -->
<g id="node8" class="node">
<title>Node8</title>
<g id="a_node8"><a xlink:href="structDGtal_1_1concepts_1_1CSignedNumber.html" target="_top" xlink:title="Aim: Concept checking for Signed Numbers. Models of this concept should be listed in NumberTraits cla...">
<polygon fill="white" stroke="black" points="716.5,-538.5 716.5,-568.5 856.5,-568.5 856.5,-538.5 716.5,-538.5"/>
<text text-anchor="start" x="724.5" y="-556.5" font-family="FreeSans" font-size="10.00">DGtal::concepts::CSigned</text>
<text text-anchor="middle" x="786.5" y="-545.5" font-family="FreeSans" font-size="10.00">Number&lt; T &gt;</text>
</a>
</g>
</g>
<!-- Node4&#45;&gt;Node8 -->
<g id="edge7" class="edge">
<title>Node4&#45;&gt;Node8</title>
<path fill="none" stroke="midnightblue" d="M677.22,-565.06C690.43,-563.65 703.75,-562.23 716.32,-560.89"/>
<polygon fill="midnightblue" stroke="midnightblue" points="676.73,-561.6 667.16,-566.14 677.48,-568.56 676.73,-561.6"/>
</g>
<!-- Node11 -->
<g id="node11" class="node">
<title>Node11</title>
<g id="a_node11"><a xlink:href="structDGtal_1_1concepts_1_1CUnsignedNumber.html" target="_top" xlink:title="Aim: Concept checking for Unsigned numbers. Models of this concept should be listed in NumberTraits c...">
<polygon fill="white" stroke="black" points="710.5,-489.5 710.5,-519.5 862.5,-519.5 862.5,-489.5 710.5,-489.5"/>
<text text-anchor="start" x="718.5" y="-507.5" font-family="FreeSans" font-size="10.00">DGtal::concepts::CUnsigned</text>
<text text-anchor="middle" x="786.5" y="-496.5" font-family="FreeSans" font-size="10.00">Number&lt; T &gt;</text>
</a>
</g>
</g>
<!-- Node4&#45;&gt;Node11 -->
<g id="edge11" class="edge">
<title>Node4&#45;&gt;Node11</title>
<path fill="none" stroke="midnightblue" d="M613.53,-562.34C638.45,-552.84 673.16,-539.92 704,-529.5 713.96,-526.14 724.66,-522.72 734.93,-519.53"/>
<polygon fill="midnightblue" stroke="midnightblue" points="612.25,-559.08 604.16,-565.92 614.75,-565.62 612.25,-559.08"/>
</g>
<!-- Node7 -->
<g id="node7" class="node">
<title>Node7</title>
<g id="a_node7"><a xlink:href="structDGtal_1_1concepts_1_1CInteger.html" target="_top" xlink:title="Aim: Concept checking for Integer Numbers. More precisely, this concept is a refinement of both CEucl...">
<polygon fill="white" stroke="black" points="1478,-575 1478,-594 1648,-594 1648,-575 1478,-575"/>
<text text-anchor="middle" x="1563" y="-582" font-family="FreeSans" font-size="10.00">DGtal::concepts::CInteger&lt; T &gt;</text>
</a>
</g>
</g>
<!-- Node6&#45;&gt;Node7 -->
<g id="edge6" class="edge">
<title>Node6&#45;&gt;Node7</title>
<path fill="none" stroke="midnightblue" d="M1041.19,-595.75C1155.22,-593.28 1361.77,-588.82 1477.54,-586.32"/>
<polygon fill="midnightblue" stroke="midnightblue" points="1041.05,-592.25 1031.12,-595.96 1041.2,-599.25 1041.05,-592.25"/>
</g>
<!-- Node9 -->
<g id="node9" class="node">
<title>Node9</title>
<g id="a_node9"><a xlink:href="structDGtal_1_1concepts_1_1CCommutativeRing.html" target="_top" xlink:title="Aim: Defines the mathematical concept equivalent to a unitary commutative ring.">
<polygon fill="white" stroke="black" points="1049,-538.5 1049,-568.5 1222,-568.5 1222,-538.5 1049,-538.5"/>
<text text-anchor="start" x="1057" y="-556.5" font-family="FreeSans" font-size="10.00">DGtal::concepts::CCommutative</text>
<text text-anchor="middle" x="1135.5" y="-545.5" font-family="FreeSans" font-size="10.00">Ring&lt; T &gt;</text>
</a>
</g>
</g>
<!-- Node8&#45;&gt;Node9 -->
<g id="edge8" class="edge">
<title>Node8&#45;&gt;Node9</title>
<path fill="none" stroke="midnightblue" d="M867.16,-553.5C921.5,-553.5 993.4,-553.5 1048.95,-553.5"/>
<polygon fill="midnightblue" stroke="midnightblue" points="866.89,-550 856.89,-553.5 866.89,-557 866.89,-550"/>
</g>
<!-- Node10 -->
<g id="node10" class="node">
<title>Node10</title>
<g id="a_node10"><a xlink:href="structDGtal_1_1concepts_1_1CEuclideanRing.html" target="_top" xlink:title="Aim: Defines the mathematical concept equivalent to a unitary commutative ring with a division operat...">
<polygon fill="white" stroke="black" points="1266,-538.5 1266,-568.5 1420,-568.5 1420,-538.5 1266,-538.5"/>
<text text-anchor="start" x="1274" y="-556.5" font-family="FreeSans" font-size="10.00">DGtal::concepts::CEuclidean</text>
<text text-anchor="middle" x="1343" y="-545.5" font-family="FreeSans" font-size="10.00">Ring&lt; T &gt;</text>
</a>
</g>
</g>
<!-- Node9&#45;&gt;Node10 -->
<g id="edge9" class="edge">
<title>Node9&#45;&gt;Node10</title>
<path fill="none" stroke="midnightblue" d="M1232.45,-553.5C1243.69,-553.5 1255.05,-553.5 1265.97,-553.5"/>
<polygon fill="midnightblue" stroke="midnightblue" points="1232.16,-550 1222.16,-553.5 1232.16,-557 1232.16,-550"/>
</g>
<!-- Node10&#45;&gt;Node7 -->
<g id="edge10" class="edge">
<title>Node10&#45;&gt;Node7</title>
<path fill="none" stroke="midnightblue" d="M1430.34,-565.78C1451.8,-568.83 1474.49,-572.06 1494.88,-574.96"/>
<polygon fill="midnightblue" stroke="midnightblue" points="1430.64,-562.29 1420.25,-564.34 1429.65,-569.22 1430.64,-562.29"/>
</g>
<!-- Node17 -->
<g id="node17" class="node">
<title>Node17</title>
<g id="a_node17"><a xlink:href="structDGtal_1_1concepts_1_1CCellularGridSpaceND.html" target="_top" xlink:title="Aim: This concept describes a cellular grid space in nD. In these spaces obtained by cartesian produc...">
<polygon fill="white" stroke="black" points="506.5,-331.5 506.5,-361.5 650.5,-361.5 650.5,-331.5 506.5,-331.5"/>
<text text-anchor="start" x="514.5" y="-349.5" font-family="FreeSans" font-size="10.00">DGtal::concepts::CCellular</text>
<text text-anchor="middle" x="578.5" y="-338.5" font-family="FreeSans" font-size="10.00">GridSpaceND&lt; T &gt;</text>
</a>
</g>
</g>
<!-- Node16&#45;&gt;Node17 -->
<g id="edge17" class="edge">
<title>Node16&#45;&gt;Node17</title>
<path fill="none" stroke="midnightblue" d="M440.49,-346.5C462.33,-346.5 485.41,-346.5 506.27,-346.5"/>
<polygon fill="midnightblue" stroke="midnightblue" points="440.22,-343 430.22,-346.5 440.22,-350 440.22,-343"/>
</g>
<!-- Node19 -->
<g id="node19" class="node">
<title>Node19</title>
<g id="a_node19"><a xlink:href="structDGtal_1_1concepts_1_1CIncrementalPrimitiveComputer.html" target="_top" xlink:title="Aim: Defines the concept describing an object that computes some primitive from input points given on...">
<polygon fill="white" stroke="black" points="496,-282.5 496,-312.5 661,-312.5 661,-282.5 496,-282.5"/>
<text text-anchor="start" x="504" y="-300.5" font-family="FreeSans" font-size="10.00">DGtal::concepts::CIncremental</text>
<text text-anchor="middle" x="578.5" y="-289.5" font-family="FreeSans" font-size="10.00">PrimitiveComputer&lt; T &gt;</text>
</a>
</g>
</g>
<!-- Node18&#45;&gt;Node19 -->
<g id="edge19" class="edge">
<title>Node18&#45;&gt;Node19</title>
<path fill="none" stroke="midnightblue" d="M435.91,-297.5C455.51,-297.5 476.31,-297.5 495.76,-297.5"/>
<polygon fill="midnightblue" stroke="midnightblue" points="435.79,-294 425.79,-297.5 435.79,-301 435.79,-294"/>
</g>
<!-- Node20 -->
<g id="node20" class="node">
<title>Node20</title>
<g id="a_node20"><a xlink:href="structDGtal_1_1concepts_1_1CAdditivePrimitiveComputer.html" target="_top" xlink:title="Aim: Defines the concept describing an object that computes some primitive from input points given gr...">
<polygon fill="white" stroke="black" points="713,-282.5 713,-312.5 860,-312.5 860,-282.5 713,-282.5"/>
<text text-anchor="start" x="721" y="-300.5" font-family="FreeSans" font-size="10.00">DGtal::concepts::CAdditive</text>
<text text-anchor="middle" x="786.5" y="-289.5" font-family="FreeSans" font-size="10.00">PrimitiveComputer&lt; T &gt;</text>
</a>
</g>
</g>
<!-- Node19&#45;&gt;Node20 -->
<g id="edge20" class="edge">
<title>Node19&#45;&gt;Node20</title>
<path fill="none" stroke="midnightblue" d="M671.3,-297.5C685.23,-297.5 699.44,-297.5 712.89,-297.5"/>
<polygon fill="midnightblue" stroke="midnightblue" points="671.21,-294 661.21,-297.5 671.21,-301 671.21,-294"/>
</g>
<!-- Node22 -->
<g id="node22" class="node">
<title>Node22</title>
<g id="a_node22"><a xlink:href="structDGtal_1_1concepts_1_1CSegmentFactory.html" target="_top" xlink:title="Aim: Defines the concept describing a segment ie. a valid and not empty subrange, which can construct...">
<polygon fill="white" stroke="black" points="503.5,-233.5 503.5,-263.5 653.5,-263.5 653.5,-233.5 503.5,-233.5"/>
<text text-anchor="start" x="511.5" y="-251.5" font-family="FreeSans" font-size="10.00">DGtal::concepts::CSegment</text>
<text text-anchor="middle" x="578.5" y="-240.5" font-family="FreeSans" font-size="10.00">Factory&lt; T &gt;</text>
</a>
</g>
</g>
<!-- Node21&#45;&gt;Node22 -->
<g id="edge22" class="edge">
<title>Node21&#45;&gt;Node22</title>
<path fill="none" stroke="midnightblue" d="M449.76,-251.32C467.73,-250.92 486.19,-250.52 503.3,-250.14"/>
<polygon fill="midnightblue" stroke="midnightblue" points="449.46,-247.83 439.54,-251.55 449.62,-254.82 449.46,-247.83"/>
</g>
<!-- Node23 -->
<g id="node23" class="node">
<title>Node23</title>
<g id="a_node23"><a xlink:href="structDGtal_1_1concepts_1_1CIncrementalSegmentComputer.html" target="_top" xlink:title="Aim: Defines the concept describing an incremental segment computer, &#160;&#160;ie. a model of CSegmentFactory...">
<polygon fill="white" stroke="black" points="704,-233.5 704,-263.5 869,-263.5 869,-233.5 704,-233.5"/>
<text text-anchor="start" x="712" y="-251.5" font-family="FreeSans" font-size="10.00">DGtal::concepts::CIncremental</text>
<text text-anchor="middle" x="786.5" y="-240.5" font-family="FreeSans" font-size="10.00">SegmentComputer&lt; T &gt;</text>
</a>
</g>
</g>
<!-- Node22&#45;&gt;Node23 -->
<g id="edge23" class="edge">
<title>Node22&#45;&gt;Node23</title>
<path fill="none" stroke="midnightblue" d="M663.61,-248.5C676.84,-248.5 690.52,-248.5 703.7,-248.5"/>
<polygon fill="midnightblue" stroke="midnightblue" points="663.58,-245 653.58,-248.5 663.58,-252 663.58,-245"/>
</g>
<!-- Node24 -->
<g id="node24" class="node">
<title>Node24</title>
<g id="a_node24"><a xlink:href="structDGtal_1_1concepts_1_1CForwardSegmentComputer.html" target="_top" xlink:title="Aim: Defines the concept describing a forward segment computer. Like any model of CIncrementalSegment...">
<polygon fill="white" stroke="black" points="1062.5,-233.5 1062.5,-263.5 1208.5,-263.5 1208.5,-233.5 1062.5,-233.5"/>
<text text-anchor="start" x="1070.5" y="-251.5" font-family="FreeSans" font-size="10.00">DGtal::concepts::CForward</text>
<text text-anchor="middle" x="1135.5" y="-240.5" font-family="FreeSans" font-size="10.00">SegmentComputer&lt; T &gt;</text>
</a>
</g>
</g>
<!-- Node23&#45;&gt;Node24 -->
<g id="edge24" class="edge">
<title>Node23&#45;&gt;Node24</title>
<path fill="none" stroke="midnightblue" d="M879.43,-248.5C936.69,-248.5 1009.29,-248.5 1062.38,-248.5"/>
<polygon fill="midnightblue" stroke="midnightblue" points="879.29,-245 869.29,-248.5 879.29,-252 879.29,-245"/>
</g>
<!-- Node25 -->
<g id="node25" class="node">
<title>Node25</title>
<g id="a_node25"><a xlink:href="structDGtal_1_1concepts_1_1CBidirectionalSegmentComputer.html" target="_top" xlink:title="Aim: Defines the concept describing a bidirectional segment computer, &#160;&#160;ie. a model of concepts::CSeg...">
<polygon fill="white" stroke="black" points="1259,-255.5 1259,-285.5 1427,-285.5 1427,-255.5 1259,-255.5"/>
<text text-anchor="start" x="1267" y="-273.5" font-family="FreeSans" font-size="10.00">DGtal::concepts::CBidirectional</text>
<text text-anchor="middle" x="1343" y="-262.5" font-family="FreeSans" font-size="10.00">SegmentComputer&lt; T &gt;</text>
</a>
</g>
</g>
<!-- Node24&#45;&gt;Node25 -->
<g id="edge25" class="edge">
<title>Node24&#45;&gt;Node25</title>
<path fill="none" stroke="midnightblue" d="M1218.65,-257.29C1231.86,-258.71 1245.53,-260.17 1258.76,-261.59"/>
<polygon fill="midnightblue" stroke="midnightblue" points="1218.98,-253.81 1208.66,-256.23 1218.23,-260.77 1218.98,-253.81"/>
</g>
<!-- Node27 -->
<g id="node27" class="node">
<title>Node27</title>
<g id="a_node27"><a xlink:href="structDGtal_1_1concepts_1_1CDynamicSegmentComputer.html" target="_top" xlink:title="Aim: Defines the concept describing a dynamic segment computer, &#160;&#160;ie. a model of CSegment that can ex...">
<polygon fill="white" stroke="black" points="1268,-206.5 1268,-236.5 1418,-236.5 1418,-206.5 1268,-206.5"/>
<text text-anchor="start" x="1276" y="-224.5" font-family="FreeSans" font-size="10.00">DGtal::concepts::CDynamic</text>
<text text-anchor="middle" x="1343" y="-213.5" font-family="FreeSans" font-size="10.00">SegmentComputer&lt; T &gt;</text>
</a>
</g>
</g>
<!-- Node24&#45;&gt;Node27 -->
<g id="edge27" class="edge">
<title>Node24&#45;&gt;Node27</title>
<path fill="none" stroke="midnightblue" d="M1218.69,-237.7C1234.96,-235.56 1251.94,-233.33 1267.92,-231.23"/>
<polygon fill="midnightblue" stroke="midnightblue" points="1218.12,-234.25 1208.66,-239.02 1219.03,-241.19 1218.12,-234.25"/>
</g>
<!-- Node26 -->
<g id="node26" class="node">
<title>Node26</title>
<g id="a_node26"><a xlink:href="structDGtal_1_1concepts_1_1CDynamicBidirectionalSegmentComputer.html" target="_top" xlink:title="Aim: Defines the concept describing a dynamic and bidirectional segment computer, ie....">
<polygon fill="white" stroke="black" points="1464,-231.5 1464,-261.5 1662,-261.5 1662,-231.5 1464,-231.5"/>
<text text-anchor="start" x="1472" y="-249.5" font-family="FreeSans" font-size="10.00">DGtal::concepts::CDynamic</text>
<text text-anchor="middle" x="1563" y="-238.5" font-family="FreeSans" font-size="10.00">BidirectionalSegmentComputer&lt; T &gt;</text>
</a>
</g>
</g>
<!-- Node25&#45;&gt;Node26 -->
<g id="edge26" class="edge">
<title>Node25&#45;&gt;Node26</title>
<path fill="none" stroke="midnightblue" d="M1437,-260.26C1445.88,-259.28 1454.91,-258.29 1463.85,-257.31"/>
<polygon fill="midnightblue" stroke="midnightblue" points="1436.6,-256.78 1427.04,-261.36 1437.36,-263.74 1436.6,-256.78"/>
</g>
<!-- Node27&#45;&gt;Node26 -->
<g id="edge28" class="edge">
<title>Node27&#45;&gt;Node26</title>
<path fill="none" stroke="midnightblue" d="M1428.22,-231.16C1439.87,-232.49 1451.91,-233.87 1463.78,-235.24"/>
<polygon fill="midnightblue" stroke="midnightblue" points="1428.44,-227.66 1418.11,-230 1427.65,-234.62 1428.44,-227.66"/>
</g>
<!-- Node32 -->
<g id="node32" class="node">
<title>Node32</title>
<g id="a_node32"><a xlink:href="structDGtal_1_1concepts_1_1CDigitalSurfaceLocalEstimator.html" target="_top" xlink:title="Aim: This concept describes an object that can process a range over some generic digital surface so a...">
<polygon fill="white" stroke="black" points="501,-49.5 501,-79.5 656,-79.5 656,-49.5 501,-49.5"/>
<text text-anchor="start" x="509" y="-67.5" font-family="FreeSans" font-size="10.00">DGtal::concepts::CDigital</text>
<text text-anchor="middle" x="578.5" y="-56.5" font-family="FreeSans" font-size="10.00">SurfaceLocalEstimator&lt; T &gt;</text>
</a>
</g>
</g>
<!-- Node31&#45;&gt;Node32 -->
<g id="edge33" class="edge">
<title>Node31&#45;&gt;Node32</title>
<path fill="none" stroke="midnightblue" d="M428.01,-63.18C451.54,-63.39 477.4,-63.62 500.9,-63.82"/>
<polygon fill="midnightblue" stroke="midnightblue" points="427.76,-59.68 417.73,-63.09 427.7,-66.68 427.76,-59.68"/>
</g>
<!-- Node34 -->
<g id="node34" class="node">
<title>Node34</title>
<g id="a_node34"><a xlink:href="structDGtal_1_1concepts_1_1CLinearAlgebraSolver.html" target="_top" xlink:title="Aim: Describe a linear solver defined over a linear algebra. Problems are of the form:">
<polygon fill="white" stroke="black" points="508,-0.5 508,-30.5 649,-30.5 649,-0.5 508,-0.5"/>
<text text-anchor="start" x="516" y="-18.5" font-family="FreeSans" font-size="10.00">DGtal::concepts::CLinear</text>
<text text-anchor="middle" x="578.5" y="-7.5" font-family="FreeSans" font-size="10.00">AlgebraSolver&lt; S, V, M &gt;</text>
</a>
</g>
</g>
<!-- Node33&#45;&gt;Node34 -->
<g id="edge35" class="edge">
<title>Node33&#45;&gt;Node34</title>
<path fill="none" stroke="midnightblue" d="M449.73,-16.63C469.35,-16.45 489.55,-16.28 507.94,-16.11"/>
<polygon fill="midnightblue" stroke="midnightblue" points="449.51,-13.13 439.54,-16.72 449.57,-20.13 449.51,-13.13"/>
</g>
</g>
</svg>
