<?xml version="1.0" encoding="UTF-8" standalone="no"?>
<!DOCTYPE svg PUBLIC "-//W3C//DTD SVG 1.1//EN"
 "http://www.w3.org/Graphics/SVG/1.1/DTD/svg11.dtd">
<!-- Generated by graphviz version 2.43.0 (0)
 -->
<!-- Title: DGtal::SimpleAssociativeCategory Pages: 1 -->
<svg width="722pt" height="172pt"
 viewBox="0.00 0.00 722.00 172.00" xmlns="http://www.w3.org/2000/svg" xmlns:xlink="http://www.w3.org/1999/xlink">
<g id="graph0" class="graph" transform="scale(1 1) rotate(0) translate(4 168)">
<title>DGtal::SimpleAssociativeCategory</title>
<!-- Node1 -->
<g id="Node000001" class="node">
<title>Node1</title>
<g id="a_Node000001"><a xlink:title=" ">
<polygon fill="#999999" stroke="#666666" points="505,-99 365,-99 365,-69 505,-69 505,-99"/>
<text text-anchor="start" x="373" y="-87" font-family="FreeSans" font-size="10.00">DGtal::SimpleAssociative</text>
<text text-anchor="middle" x="435" y="-76" font-family="FreeSans" font-size="10.00">Category</text>
</a>
</g>
</g>
<!-- Node4 -->
<g id="Node000004" class="node">
<title>Node4</title>
<g id="a_Node000004"><a xlink:href="structDGtal_1_1MultisetAssociativeCategory.html" target="_top" xlink:title=" ">
<polygon fill="white" stroke="#666666" points="700.5,-164 554.5,-164 554.5,-134 700.5,-134 700.5,-164"/>
<text text-anchor="start" x="562.5" y="-152" font-family="FreeSans" font-size="10.00">DGtal::MultisetAssociative</text>
<text text-anchor="middle" x="627.5" y="-141" font-family="FreeSans" font-size="10.00">Category</text>
</a>
</g>
</g>
<!-- Node1&#45;&gt;Node4 -->
<g id="edge3_Node000001_Node000004" class="edge">
<title>Node1&#45;&gt;Node4</title>
<g id="a_edge3_Node000001_Node000004"><a xlink:title=" ">
<path fill="none" stroke="#63b8ff" d="M481.41,-102.86C499.77,-110.19 521.25,-118.39 541,-125 550.21,-128.08 560.07,-131.1 569.69,-133.9"/>
<polygon fill="#63b8ff" stroke="#63b8ff" points="482.71,-99.61 472.12,-99.12 480.09,-106.1 482.71,-99.61"/>
</a>
</g>
</g>
<!-- Node5 -->
<g id="Node000005" class="node">
<title>Node5</title>
<g id="a_Node000005"><a xlink:href="structDGtal_1_1SetAssociativeCategory.html" target="_top" xlink:title=" ">
<polygon fill="white" stroke="#666666" points="711,-115.5 544,-115.5 544,-96.5 711,-96.5 711,-115.5"/>
<text text-anchor="middle" x="627.5" y="-103.5" font-family="FreeSans" font-size="10.00">DGtal::SetAssociativeCategory</text>
</a>
</g>
</g>
<!-- Node1&#45;&gt;Node5 -->
<g id="edge4_Node000001_Node000005" class="edge">
<title>Node1&#45;&gt;Node5</title>
<g id="a_edge4_Node000001_Node000005"><a xlink:title=" ">
<path fill="none" stroke="#63b8ff" d="M515.26,-93.15C524.78,-94.25 534.51,-95.38 544.07,-96.48"/>
<polygon fill="#63b8ff" stroke="#63b8ff" points="515.38,-89.64 505.04,-91.97 514.58,-96.6 515.38,-89.64"/>
</a>
</g>
</g>
<!-- Node6 -->
<g id="Node000006" class="node">
<title>Node6</title>
<g id="a_Node000006"><a xlink:href="structDGtal_1_1UnorderedMultisetAssociativeCategory.html" target="_top" xlink:title=" ">
<polygon fill="white" stroke="#666666" points="698,-78 557,-78 557,-48 698,-48 698,-78"/>
<text text-anchor="start" x="565" y="-66" font-family="FreeSans" font-size="10.00">DGtal::UnorderedMultiset</text>
<text text-anchor="middle" x="627.5" y="-55" font-family="FreeSans" font-size="10.00">AssociativeCategory</text>
</a>
</g>
</g>
<!-- Node1&#45;&gt;Node6 -->
<g id="edge5_Node000001_Node000006" class="edge">
<title>Node1&#45;&gt;Node6</title>
<g id="a_edge5_Node000001_Node000006"><a xlink:title=" ">
<path fill="none" stroke="#63b8ff" d="M515.02,-75.29C528.86,-73.76 543.17,-72.19 556.73,-70.69"/>
<polygon fill="#63b8ff" stroke="#63b8ff" points="514.6,-71.81 505.04,-76.39 515.37,-78.77 514.6,-71.81"/>
</a>
</g>
</g>
<!-- Node7 -->
<g id="Node000007" class="node">
<title>Node7</title>
<g id="a_Node000007"><a xlink:href="structDGtal_1_1UnorderedSetAssociativeCategory.html" target="_top" xlink:title=" ">
<polygon fill="white" stroke="#666666" points="714,-30 541,-30 541,0 714,0 714,-30"/>
<text text-anchor="start" x="549" y="-18" font-family="FreeSans" font-size="10.00">DGtal::UnorderedSetAssociative</text>
<text text-anchor="middle" x="627.5" y="-7" font-family="FreeSans" font-size="10.00">Category</text>
</a>
</g>
</g>
<!-- Node1&#45;&gt;Node7 -->
<g id="edge6_Node000001_Node000007" class="edge">
<title>Node1&#45;&gt;Node7</title>
<g id="a_edge6_Node000001_Node000007"><a xlink:title=" ">
<path fill="none" stroke="#63b8ff" d="M477.51,-64.72C496.62,-56.23 519.72,-46.51 541,-39 549.87,-35.87 559.37,-32.87 568.69,-30.11"/>
<polygon fill="#63b8ff" stroke="#63b8ff" points="475.89,-61.61 468.2,-68.9 478.76,-68 475.89,-61.61"/>
</a>
</g>
</g>
<!-- Node2 -->
<g id="Node000002" class="node">
<title>Node2</title>
<g id="a_Node000002"><a xlink:href="structDGtal_1_1AssociativeCategory.html" target="_top" xlink:title=" ">
<polygon fill="white" stroke="#666666" points="329,-93.5 178,-93.5 178,-74.5 329,-74.5 329,-93.5"/>
<text text-anchor="middle" x="253.5" y="-81.5" font-family="FreeSans" font-size="10.00">DGtal::AssociativeCategory</text>
</a>
</g>
</g>
<!-- Node2&#45;&gt;Node1 -->
<g id="edge1_Node000001_Node000002" class="edge">
<title>Node2&#45;&gt;Node1</title>
<g id="a_edge1_Node000001_Node000002"><a xlink:title=" ">
<path fill="none" stroke="#63b8ff" d="M339.13,-84C347.74,-84 356.42,-84 364.84,-84"/>
<polygon fill="#63b8ff" stroke="#63b8ff" points="339.06,-80.5 329.06,-84 339.06,-87.5 339.06,-80.5"/>
</a>
</g>
</g>
<!-- Node3 -->
<g id="Node000003" class="node">
<title>Node3</title>
<g id="a_Node000003"><a xlink:href="structDGtal_1_1ContainerCategory.html" target="_top" xlink:title=" ">
<polygon fill="white" stroke="#666666" points="142,-93.5 0,-93.5 0,-74.5 142,-74.5 142,-93.5"/>
<text text-anchor="middle" x="71" y="-81.5" font-family="FreeSans" font-size="10.00">DGtal::ContainerCategory</text>
</a>
</g>
</g>
<!-- Node3&#45;&gt;Node2 -->
<g id="edge2_Node000002_Node000003" class="edge">
<title>Node3&#45;&gt;Node2</title>
<g id="a_edge2_Node000002_Node000003"><a xlink:title=" ">
<path fill="none" stroke="#63b8ff" d="M152.28,-84C160.74,-84 169.32,-84 177.71,-84"/>
<polygon fill="#63b8ff" stroke="#63b8ff" points="152.04,-80.5 142.04,-84 152.04,-87.5 152.04,-80.5"/>
</a>
</g>
</g>
</g>
</svg>
