<?xml version="1.0" encoding="UTF-8" standalone="no"?>
<!DOCTYPE svg PUBLIC "-//W3C//DTD SVG 1.1//EN"
 "http://www.w3.org/Graphics/SVG/1.1/DTD/svg11.dtd">
<!-- Generated by graphviz version 2.43.0 (0)
 -->
<!-- Title: DGtal::CanonicEmbedder&lt; TSpace &gt; Pages: 1 -->
<svg width="426pt" height="134pt"
 viewBox="0.00 0.00 426.00 134.00" xmlns="http://www.w3.org/2000/svg" xmlns:xlink="http://www.w3.org/1999/xlink">

<svg id="main" version="1.1" xmlns="http://www.w3.org/2000/svg" xmlns:xlink="http://www.w3.org/1999/xlink" xml:space="preserve" onload="init(evt)">
<style type="text/css"><![CDATA[
.node, .edge {opacity: 0.7;}
.node.selected, .edge.selected {opacity: 1;}
.edge:hover path { stroke: red; }
.edge:hover polygon { stroke: red; fill: red; }
]]></style>
<script type="application/ecmascript" xlink:href="svg.min.js"/>
<svg id="graph" class="graph">
<g id="graph0" class="graph" transform="scale(1 1) rotate(0) translate(4 130)">
<title>DGtal::CanonicEmbedder&lt; TSpace &gt;</title>
<!-- Node1 -->
<g id="Node000001" class="node">
<title>Node1</title>
<g id="a_Node000001"><a xlink:title="Aim: A trivial embedder for digital points, which corresponds to the canonic injection of Zn into Rn.">
<polygon fill="#999999" stroke="#666666" points="139,-78 0,-78 0,-48 139,-48 139,-78"/>
<text text-anchor="start" x="8" y="-66" font-family="FreeSans" font-size="10.00">DGtal::CanonicEmbedder</text>
<text text-anchor="middle" x="69.5" y="-55" font-family="FreeSans" font-size="10.00">&lt; TSpace &gt;</text>
</a>
</g>
</g>
<!-- Node2 -->
<g id="Node000002" class="node">
<title>Node2</title>
<g id="a_Node000002"><a xlink:href="structDGtal_1_1CanonicEmbedder.html" target="_top" xlink:title=" ">
<polygon fill="white" stroke="#666666" points="418,-126 279,-126 279,-96 418,-96 418,-126"/>
<text text-anchor="start" x="287" y="-114" font-family="FreeSans" font-size="10.00">DGtal::CanonicEmbedder</text>
<text text-anchor="middle" x="348.5" y="-103" font-family="FreeSans" font-size="10.00">&lt; Z3i::Space &gt;</text>
</a>
</g>
</g>
<!-- Node1&#45;&gt;Node2 -->
<g id="edge1_Node000001_Node000002" class="edge">
<title>Node1&#45;&gt;Node2</title>
<g id="a_edge1_Node000001_Node000002"><a xlink:title=" ">
<path fill="none" stroke="orange" stroke-dasharray="5,2" d="M149.4,-76.68C151.97,-77.13 154.5,-77.57 157,-78 197.35,-84.99 242.5,-92.82 278.72,-99.09"/>
<polygon fill="orange" stroke="orange" points="149.88,-73.21 139.43,-74.95 148.69,-80.11 149.88,-73.21"/>
</a>
</g>
<text text-anchor="middle" x="209" y="-98" font-family="FreeSans" font-size="10.00" fill="grey"> &lt; Z3i::Space &gt;</text>
</g>
<!-- Node3 -->
<g id="Node000003" class="node">
<title>Node3</title>
<g id="a_Node000003"><a xlink:href="structDGtal_1_1CanonicEmbedder.html" target="_top" xlink:title=" ">
<polygon fill="white" stroke="#666666" points="418,-78 279,-78 279,-48 418,-48 418,-78"/>
<text text-anchor="start" x="287" y="-66" font-family="FreeSans" font-size="10.00">DGtal::CanonicEmbedder</text>
<text text-anchor="middle" x="348.5" y="-55" font-family="FreeSans" font-size="10.00">&lt; DGtal::SpaceND &gt;</text>
</a>
</g>
</g>
<!-- Node1&#45;&gt;Node3 -->
<g id="edge2_Node000001_Node000003" class="edge">
<title>Node1&#45;&gt;Node3</title>
<g id="a_edge2_Node000001_Node000003"><a xlink:title=" ">
<path fill="none" stroke="orange" stroke-dasharray="5,2" d="M149.48,-63C190.2,-63 239.38,-63 278.55,-63"/>
<polygon fill="orange" stroke="orange" points="149.33,-59.5 139.33,-63 149.33,-66.5 149.33,-59.5"/>
</a>
</g>
<text text-anchor="middle" x="209" y="-66" font-family="FreeSans" font-size="10.00" fill="grey"> &lt; DGtal::SpaceND &gt;</text>
</g>
<!-- Node4 -->
<g id="Node000004" class="node">
<title>Node4</title>
<g id="a_Node000004"><a xlink:href="structDGtal_1_1CanonicEmbedder.html" target="_top" xlink:title=" ">
<polygon fill="white" stroke="#666666" points="418,-30 279,-30 279,0 418,0 418,-30"/>
<text text-anchor="start" x="287" y="-18" font-family="FreeSans" font-size="10.00">DGtal::CanonicEmbedder</text>
<text text-anchor="middle" x="348.5" y="-7" font-family="FreeSans" font-size="10.00">&lt; Sp &gt;</text>
</a>
</g>
</g>
<!-- Node1&#45;&gt;Node4 -->
<g id="edge3_Node000001_Node000004" class="edge">
<title>Node1&#45;&gt;Node4</title>
<g id="a_edge3_Node000001_Node000004"><a xlink:title=" ">
<path fill="none" stroke="orange" stroke-dasharray="5,2" d="M149.4,-49.32C151.97,-48.87 154.5,-48.43 157,-48 197.35,-41.01 242.5,-33.18 278.72,-26.91"/>
<polygon fill="orange" stroke="orange" points="148.69,-45.89 139.43,-51.05 149.88,-52.79 148.69,-45.89"/>
</a>
</g>
<text text-anchor="middle" x="209" y="-51" font-family="FreeSans" font-size="10.00" fill="grey"> &lt; Sp &gt;</text>
</g>
</g>
</svg>
</svg>

<style type='text/css'>
<![CDATA[
[data-mouse-over-selected='false'] { opacity: 0.7; }
[data-mouse-over-selected='true']  { opacity: 1.0; }
]]>
</style>
<script type="application/ecmascript"><![CDATA[
document.addEventListener('DOMContentLoaded', (event) => {
  highlightEdges();
  highlightAdjacentNodes();
});
]]></script>
</svg>
