<?xml version="1.0" encoding="UTF-8" standalone="no"?>
<!DOCTYPE svg PUBLIC "-//W3C//DTD SVG 1.1//EN"
 "http://www.w3.org/Graphics/SVG/1.1/DTD/svg11.dtd">
<!-- Generated by graphviz version 2.43.0 (0)
 -->
<!-- Title: DGtal::CanonicSCellEmbedder&lt; TKSpace &gt; Pages: 1 -->
<!--zoomable 182 -->

<svg id="main" version="1.1" xmlns="http://www.w3.org/2000/svg" xmlns:xlink="http://www.w3.org/1999/xlink" xml:space="preserve" onload="init(evt)">
<style type="text/css"><![CDATA[
.node, .edge {opacity: 0.7;}
.node.selected, .edge.selected {opacity: 1;}
.edge:hover path { stroke: red; }
.edge:hover polygon { stroke: red; fill: red; }
]]></style>

<defs>
  <circle id="rim" cx="0" cy="0" r="7"/>
  <circle id="rim2" cx="0" cy="0" r="3.5"/>
  <g id="zoomPlus">
    <use xlink:href="#rim" fill="#404040"><set attributeName="fill" to="#808080" begin="zoomplus.mouseover" end="zoomplus.mouseout"/></use>
    <path d="M-4,0h8M0,-4v8" fill="none" stroke="white" stroke-width="1.5" pointer-events="none"/>
  </g>
  <g id="zoomMin">
    <use xlink:href="#rim" fill="#404040"><set attributeName="fill" to="#808080" begin="zoomminus.mouseover" end="zoomminus.mouseout"/></use>
    <path d="M-4,0h8" fill="none" stroke="white" stroke-width="1.5" pointer-events="none"/>
  </g>
  <g id="arrowUp" transform="translate(30 24)">
    <use xlink:href="#rim"/>
    <path pointer-events="none" fill="none" stroke="white" stroke-width="1.5" d="M0,-3.0v7 M-2.5,-0.5L0,-3.0L2.5,-0.5"/>
  </g>
  <g id="arrowRight" transform="rotate(90) translate(36 -43)">
    <use xlink:href="#rim"/>
    <path pointer-events="none" fill="none" stroke="white" stroke-width="1.5" d="M0,-3.0v7 M-2.5,-0.5L0,-3.0L2.5,-0.5"/>
  </g>
  <g id="arrowDown" transform="rotate(180) translate(-30 -48)">
    <use xlink:href="#rim"/>
    <path pointer-events="none" fill="none" stroke="white" stroke-width="1.5" d="M0,-3.0v7 M-2.5,-0.5L0,-3.0L2.5,-0.5"/>
  </g>
  <g id="arrowLeft" transform="rotate(270) translate(-36 17)">
    <use xlink:href="#rim"/>
    <path pointer-events="none" fill="none" stroke="white" stroke-width="1.5" d="M0,-3.0v7 M-2.5,-0.5L0,-3.0L2.5,-0.5"/>
  </g>
  <g id="resetDef">
    <use xlink:href="#rim2" fill="#404040"><set attributeName="fill" to="#808080" begin="reset.mouseover" end="reset.mouseout"/></use>
  </g>
</defs>
<script type="application/ecmascript">
var viewWidth = 531;
var viewHeight = 182;
var sectionId = 'dynsection-0';
</script>
<script type="application/ecmascript" xlink:href="svg.min.js"/>
<svg id="graph" class="graph">
<g id="viewport">
<title>DGtal::CanonicSCellEmbedder&lt; TKSpace &gt;</title>
<!-- Node1 -->
<g id="Node000001" class="node">
<title>Node1</title>
<g id="a_Node000001"><a xlink:title="Aim: A trivial embedder for signed cell, which corresponds to the canonic injection of cell centroids...">
<polygon fill="#999999" stroke="#666666" points="164,-102 0,-102 0,-72 164,-72 164,-102"/>
<text text-anchor="start" x="8" y="-90" font-family="FreeSans" font-size="10.00">DGtal::CanonicSCellEmbedder</text>
<text text-anchor="middle" x="82" y="-79" font-family="FreeSans" font-size="10.00">&lt; TKSpace &gt;</text>
</a>
</g>
</g>
<!-- Node2 -->
<g id="Node000002" class="node">
<title>Node2</title>
<g id="a_Node000002"><a xlink:href="structDGtal_1_1CanonicSCellEmbedder.html" target="_top" xlink:title=" ">
<polygon fill="white" stroke="#666666" points="521,-174 357,-174 357,-144 521,-144 521,-174"/>
<text text-anchor="start" x="365" y="-162" font-family="FreeSans" font-size="10.00">DGtal::CanonicSCellEmbedder</text>
<text text-anchor="middle" x="439" y="-151" font-family="FreeSans" font-size="10.00">&lt; Z3i::KSpace &gt;</text>
</a>
</g>
</g>
<!-- Node1&#45;&gt;Node2 -->
<g id="edge1_Node000001_Node000002" class="edge">
<title>Node1&#45;&gt;Node2</title>
<g id="a_edge1_Node000001_Node000002"><a xlink:title=" ">
<path fill="none" stroke="orange" stroke-dasharray="5,2" d="M136.4,-105.27C151.06,-109.86 167.04,-114.48 182,-118 239.94,-131.64 306.34,-142.13 356.99,-149.08"/>
<polygon fill="orange" stroke="orange" points="137.08,-101.81 126.48,-102.11 134.95,-108.48 137.08,-101.81"/>
</a>
</g>
<text text-anchor="middle" x="259.5" y="-148" font-family="FreeSans" font-size="10.00" fill="grey"> &lt; Z3i::KSpace &gt;</text>
</g>
<!-- Node3 -->
<g id="Node000003" class="node">
<title>Node3</title>
<g id="a_Node000003"><a xlink:href="structDGtal_1_1CanonicSCellEmbedder.html" target="_top" xlink:title=" ">
<polygon fill="white" stroke="#666666" points="521,-126 357,-126 357,-96 521,-96 521,-126"/>
<text text-anchor="start" x="365" y="-114" font-family="FreeSans" font-size="10.00">DGtal::CanonicSCellEmbedder</text>
<text text-anchor="middle" x="439" y="-103" font-family="FreeSans" font-size="10.00">&lt; KSpace &gt;</text>
</a>
</g>
</g>
<!-- Node1&#45;&gt;Node3 -->
<g id="edge2_Node000001_Node000003" class="edge">
<title>Node1&#45;&gt;Node3</title>
<g id="a_edge2_Node000001_Node000003"><a xlink:title=" ">
<path fill="none" stroke="orange" stroke-dasharray="5,2" d="M174.43,-93.18C230.84,-97 302.56,-101.84 356.93,-105.52"/>
<polygon fill="orange" stroke="orange" points="174.66,-89.69 164.44,-92.51 174.19,-96.67 174.66,-89.69"/>
</a>
</g>
<text text-anchor="middle" x="259.5" y="-106" font-family="FreeSans" font-size="10.00" fill="grey"> &lt; KSpace &gt;</text>
</g>
<!-- Node4 -->
<g id="Node000004" class="node">
<title>Node4</title>
<g id="a_Node000004"><a xlink:href="structDGtal_1_1CanonicSCellEmbedder.html" target="_top" xlink:title=" ">
<polygon fill="white" stroke="#666666" points="523,-78 355,-78 355,-48 523,-48 523,-78"/>
<text text-anchor="start" x="363" y="-66" font-family="FreeSans" font-size="10.00">DGtal::CanonicSCellEmbedder</text>
<text text-anchor="middle" x="439" y="-55" font-family="FreeSans" font-size="10.00">&lt; DGtal::KhalimskySpaceND &gt;</text>
</a>
</g>
</g>
<!-- Node1&#45;&gt;Node4 -->
<g id="edge3_Node000001_Node000004" class="edge">
<title>Node1&#45;&gt;Node4</title>
<g id="a_edge3_Node000001_Node000004"><a xlink:title=" ">
<path fill="none" stroke="orange" stroke-dasharray="5,2" d="M174.23,-79.57C176.85,-79.37 179.44,-79.18 182,-79 239.74,-74.86 304.86,-70.8 354.96,-67.81"/>
<polygon fill="orange" stroke="orange" points="173.74,-76.09 164.03,-80.33 174.27,-83.07 173.74,-76.09"/>
</a>
</g>
<text text-anchor="middle" x="259.5" y="-82" font-family="FreeSans" font-size="10.00" fill="grey"> &lt; DGtal::KhalimskySpaceND &gt;</text>
</g>
<!-- Node5 -->
<g id="Node000005" class="node">
<title>Node5</title>
<g id="a_Node000005"><a xlink:href="structDGtal_1_1CanonicSCellEmbedder.html" target="_top" xlink:title=" ">
<polygon fill="white" stroke="#666666" points="521,-30 357,-30 357,0 521,0 521,-30"/>
<text text-anchor="start" x="365" y="-18" font-family="FreeSans" font-size="10.00">DGtal::CanonicSCellEmbedder</text>
<text text-anchor="middle" x="439" y="-7" font-family="FreeSans" font-size="10.00">&lt; KSp &gt;</text>
</a>
</g>
</g>
<!-- Node1&#45;&gt;Node5 -->
<g id="edge4_Node000001_Node000005" class="edge">
<title>Node1&#45;&gt;Node5</title>
<g id="a_edge4_Node000001_Node000005"><a xlink:title=" ">
<path fill="none" stroke="orange" stroke-dasharray="5,2" d="M132.5,-68.66C148.17,-63.35 165.66,-57.94 182,-54 239.8,-40.07 306.2,-30.13 356.89,-23.76"/>
<polygon fill="orange" stroke="orange" points="131.32,-65.36 123.01,-71.93 133.6,-71.98 131.32,-65.36"/>
</a>
</g>
<text text-anchor="middle" x="259.5" y="-57" font-family="FreeSans" font-size="10.00" fill="grey"> &lt; KSp &gt;</text>
</g>
</g>
</svg>

<g id="navigator" transform="translate(0 0)" fill="#404254">
  <rect fill="#f2f5e9" fill-opacity="0.5" stroke="#606060" stroke-width=".5" x="0" y="0" width="60" height="60"/>
  <use id="zoomplus" xlink:href="#zoomPlus" x="17" y="9" onmousedown="handleZoom(evt,'in')"/>
  <use id="zoomminus" xlink:href="#zoomMin" x="42" y="9" onmousedown="handleZoom(evt,'out')"/>
  <use id="reset" xlink:href="#resetDef" x="30" y="36" onmousedown="handleReset()"/>
   <use id="arrowup" xlink:href="#arrowUp" x="0" y="0" onmousedown="handlePan(0,-1)"/>
  <use id="arrowright" xlink:href="#arrowRight" x="0" y="0" onmousedown="handlePan(1,0)"/>
  <use id="arrowdown" xlink:href="#arrowDown" x="0" y="0" onmousedown="handlePan(0,1)"/>
  <use id="arrowleft" xlink:href="#arrowLeft" x="0" y="0" onmousedown="handlePan(-1,0)"/>
</g>
<svg viewBox="0 0 15 15" width="100%" height="30px" preserveAspectRatio="xMaxYMin meet">
 <g id="arrow_out" transform="scale(0.3 0.3)">
  <a xlink:href="structDGtal_1_1CanonicSCellEmbedder__inherit__graph_org.svg" target="_base">
   <rect id="button" ry="5" rx="5" y="6" x="6" height="38" width="38"
        fill="#f2f5e9" fill-opacity="0.5" stroke="#606060" stroke-width="1.0"/>
   <path id="arrow"
     d="M 11.500037,31.436501 C 11.940474,20.09759 22.043105,11.32322 32.158766,21.979434 L 37.068811,17.246167 C 37.068811,17.246167 37.088388,32 37.088388,32 L 22.160133,31.978069 C 22.160133,31.978069 26.997745,27.140456 26.997745,27.140456 C 18.528582,18.264221 13.291696,25.230495 11.500037,31.436501 z"
     style="fill:#404040;"/>
  </a>
 </g>
</svg>

<style type='text/css'>
<![CDATA[
[data-mouse-over-selected='false'] { opacity: 0.7; }
[data-mouse-over-selected='true']  { opacity: 1.0; }
]]>
</style>
<script type="application/ecmascript"><![CDATA[
document.addEventListener('DOMContentLoaded', (event) => {
  highlightEdges();
  highlightAdjacentNodes();
});
]]></script>
</svg>
