<?xml version="1.0" encoding="UTF-8" standalone="no"?>
<!DOCTYPE svg PUBLIC "-//W3C//DTD SVG 1.1//EN"
 "http://www.w3.org/Graphics/SVG/1.1/DTD/svg11.dtd">
<!-- Generated by graphviz version 2.43.0 (0)
 -->
<!-- Title: DGtal::UnorderedMultimapAssociativeCategory Pages: 1 -->
<svg width="726pt" height="124pt"
 viewBox="0.00 0.00 726.00 124.00" xmlns="http://www.w3.org/2000/svg" xmlns:xlink="http://www.w3.org/1999/xlink">
<g id="graph0" class="graph" transform="scale(1 1) rotate(0) translate(4 120)">
<title>DGtal::UnorderedMultimapAssociativeCategory</title>
<!-- Node1 -->
<g id="Node000001" class="node">
<title>Node1</title>
<g id="a_Node000001"><a xlink:title=" ">
<polygon fill="#999999" stroke="#666666" points="718,-73 570,-73 570,-43 718,-43 718,-73"/>
<text text-anchor="start" x="578" y="-61" font-family="FreeSans" font-size="10.00">DGtal::UnorderedMultimap</text>
<text text-anchor="middle" x="644" y="-50" font-family="FreeSans" font-size="10.00">AssociativeCategory</text>
</a>
</g>
</g>
<!-- Node2 -->
<g id="Node000002" class="node">
<title>Node2</title>
<g id="a_Node000002"><a xlink:href="structDGtal_1_1UnorderedAssociativeCategory.html" target="_top" xlink:title=" ">
<polygon fill="white" stroke="#666666" points="528.5,-116 370.5,-116 370.5,-86 528.5,-86 528.5,-116"/>
<text text-anchor="start" x="378.5" y="-104" font-family="FreeSans" font-size="10.00">DGtal::UnorderedAssociative</text>
<text text-anchor="middle" x="449.5" y="-93" font-family="FreeSans" font-size="10.00">Category</text>
</a>
</g>
</g>
<!-- Node2&#45;&gt;Node1 -->
<g id="edge1_Node000001_Node000002" class="edge">
<title>Node2&#45;&gt;Node1</title>
<g id="a_edge1_Node000001_Node000002"><a xlink:title=" ">
<path fill="none" stroke="#63b8ff" d="M527.63,-83.77C543.54,-80.22 560.18,-76.5 575.71,-73.03"/>
<polygon fill="#63b8ff" stroke="#63b8ff" points="526.82,-80.36 517.83,-85.96 528.35,-87.2 526.82,-80.36"/>
</a>
</g>
</g>
<!-- Node3 -->
<g id="Node000003" class="node">
<title>Node3</title>
<g id="a_Node000003"><a xlink:href="structDGtal_1_1AssociativeCategory.html" target="_top" xlink:title=" ">
<polygon fill="white" stroke="#666666" points="329,-67.5 178,-67.5 178,-48.5 329,-48.5 329,-67.5"/>
<text text-anchor="middle" x="253.5" y="-55.5" font-family="FreeSans" font-size="10.00">DGtal::AssociativeCategory</text>
</a>
</g>
</g>
<!-- Node3&#45;&gt;Node2 -->
<g id="edge2_Node000002_Node000003" class="edge">
<title>Node3&#45;&gt;Node2</title>
<g id="a_edge2_Node000002_Node000003"><a xlink:title=" ">
<path fill="none" stroke="#63b8ff" d="M307.32,-69.71C329.97,-74.73 356.72,-80.66 380.8,-85.99"/>
<polygon fill="#63b8ff" stroke="#63b8ff" points="308.08,-66.29 297.55,-67.54 306.56,-73.12 308.08,-66.29"/>
</a>
</g>
</g>
<!-- Node5 -->
<g id="Node000005" class="node">
<title>Node5</title>
<g id="a_Node000005"><a xlink:href="structDGtal_1_1PairAssociativeCategory.html" target="_top" xlink:title=" ">
<polygon fill="white" stroke="#666666" points="534,-67.5 365,-67.5 365,-48.5 534,-48.5 534,-67.5"/>
<text text-anchor="middle" x="449.5" y="-55.5" font-family="FreeSans" font-size="10.00">DGtal::PairAssociativeCategory</text>
</a>
</g>
</g>
<!-- Node3&#45;&gt;Node5 -->
<g id="edge5_Node000005_Node000003" class="edge">
<title>Node3&#45;&gt;Node5</title>
<g id="a_edge5_Node000005_Node000003"><a xlink:title=" ">
<path fill="none" stroke="#63b8ff" d="M339.41,-58C347.83,-58 356.37,-58 364.77,-58"/>
<polygon fill="#63b8ff" stroke="#63b8ff" points="339.23,-54.5 329.23,-58 339.23,-61.5 339.23,-54.5"/>
</a>
</g>
</g>
<!-- Node6 -->
<g id="Node000006" class="node">
<title>Node6</title>
<g id="a_Node000006"><a xlink:href="structDGtal_1_1MultipleAssociativeCategory.html" target="_top" xlink:title=" ">
<polygon fill="white" stroke="#666666" points="522.5,-30 376.5,-30 376.5,0 522.5,0 522.5,-30"/>
<text text-anchor="start" x="384.5" y="-18" font-family="FreeSans" font-size="10.00">DGtal::MultipleAssociative</text>
<text text-anchor="middle" x="449.5" y="-7" font-family="FreeSans" font-size="10.00">Category</text>
</a>
</g>
</g>
<!-- Node3&#45;&gt;Node6 -->
<g id="edge7_Node000006_Node000003" class="edge">
<title>Node3&#45;&gt;Node6</title>
<g id="a_edge7_Node000006_Node000003"><a xlink:title=" ">
<path fill="none" stroke="#63b8ff" d="M307.32,-46.29C329.97,-41.27 356.72,-35.34 380.8,-30.01"/>
<polygon fill="#63b8ff" stroke="#63b8ff" points="306.56,-42.88 297.55,-48.46 308.08,-49.71 306.56,-42.88"/>
</a>
</g>
</g>
<!-- Node4 -->
<g id="Node000004" class="node">
<title>Node4</title>
<g id="a_Node000004"><a xlink:href="structDGtal_1_1ContainerCategory.html" target="_top" xlink:title=" ">
<polygon fill="white" stroke="#666666" points="142,-67.5 0,-67.5 0,-48.5 142,-48.5 142,-67.5"/>
<text text-anchor="middle" x="71" y="-55.5" font-family="FreeSans" font-size="10.00">DGtal::ContainerCategory</text>
</a>
</g>
</g>
<!-- Node4&#45;&gt;Node3 -->
<g id="edge3_Node000003_Node000004" class="edge">
<title>Node4&#45;&gt;Node3</title>
<g id="a_edge3_Node000003_Node000004"><a xlink:title=" ">
<path fill="none" stroke="#63b8ff" d="M152.28,-58C160.74,-58 169.32,-58 177.71,-58"/>
<polygon fill="#63b8ff" stroke="#63b8ff" points="152.04,-54.5 142.04,-58 152.04,-61.5 152.04,-54.5"/>
</a>
</g>
</g>
<!-- Node5&#45;&gt;Node1 -->
<g id="edge4_Node000001_Node000005" class="edge">
<title>Node5&#45;&gt;Node1</title>
<g id="a_edge4_Node000001_Node000005"><a xlink:title=" ">
<path fill="none" stroke="#63b8ff" d="M544.16,-58C552.75,-58 561.38,-58 569.75,-58"/>
<polygon fill="#63b8ff" stroke="#63b8ff" points="544.09,-54.5 534.09,-58 544.09,-61.5 544.09,-54.5"/>
</a>
</g>
</g>
<!-- Node6&#45;&gt;Node1 -->
<g id="edge6_Node000001_Node000006" class="edge">
<title>Node6&#45;&gt;Node1</title>
<g id="a_edge6_Node000001_Node000006"><a xlink:title=" ">
<path fill="none" stroke="#63b8ff" d="M527.63,-32.23C543.54,-35.78 560.18,-39.5 575.71,-42.97"/>
<polygon fill="#63b8ff" stroke="#63b8ff" points="528.35,-28.8 517.83,-30.04 526.82,-35.64 528.35,-28.8"/>
</a>
</g>
</g>
</g>
</svg>
