<?xml version="1.0" encoding="UTF-8" standalone="no"?>
<!DOCTYPE svg PUBLIC "-//W3C//DTD SVG 1.1//EN"
 "http://www.w3.org/Graphics/SVG/1.1/DTD/svg11.dtd">
<!-- Generated by graphviz version 2.43.0 (0)
 -->
<!-- Title: DGtal::concepts::CSinglePassRangeWithWritableIteratorFromPoint&lt; T, Value &gt; Pages: 1 -->
<svg width="964pt" height="101pt"
 viewBox="0.00 0.00 964.00 101.28" xmlns="http://www.w3.org/2000/svg" xmlns:xlink="http://www.w3.org/1999/xlink">
<g id="graph0" class="graph" transform="scale(1 1) rotate(0) translate(4 97.28)">
<title>DGtal::concepts::CSinglePassRangeWithWritableIteratorFromPoint&lt; T, Value &gt;</title>
<!-- Node1 -->
<g id="Node000001" class="node">
<title>Node1</title>
<g id="a_Node000001"><a xlink:title="Aim: refined concept of single pass range with a outputIterator() method from a point.">
<polygon fill="#999999" stroke="#666666" points="956,-59 787,-59 787,-18 956,-18 956,-59"/>
<text text-anchor="start" x="795" y="-47" font-family="FreeSans" font-size="10.00">DGtal::concepts::CSingle</text>
<text text-anchor="start" x="795" y="-36" font-family="FreeSans" font-size="10.00">PassRangeWithWritableIterator</text>
<text text-anchor="middle" x="871.5" y="-25" font-family="FreeSans" font-size="10.00">FromPoint&lt; T, Value &gt;</text>
</a>
</g>
</g>
<!-- Node2 -->
<g id="Node000002" class="node">
<title>Node2</title>
<g id="a_Node000002"><a xlink:href="structDGtal_1_1concepts_1_1CConstSinglePassRangeFromPoint.html" target="_top" xlink:title=" ">
<polygon fill="white" stroke="#666666" points="750,-79.5 570,-79.5 570,-49.5 750,-49.5 750,-79.5"/>
<text text-anchor="start" x="578" y="-67.5" font-family="FreeSans" font-size="10.00">DGtal::concepts::CConstSingle</text>
<text text-anchor="middle" x="660" y="-56.5" font-family="FreeSans" font-size="10.00">PassRangeFromPoint&lt; T, Value &gt;</text>
</a>
</g>
</g>
<!-- Node2&#45;&gt;Node1 -->
<g id="edge1_Node000001_Node000002" class="edge">
<title>Node2&#45;&gt;Node1</title>
<g id="a_edge1_Node000001_Node000002"><a xlink:title=" ">
<path fill="none" stroke="#63b8ff" d="M760.16,-52.19C769.06,-51.09 778.01,-49.98 786.75,-48.89"/>
<polygon fill="#63b8ff" stroke="#63b8ff" points="759.64,-48.73 750.15,-53.44 760.51,-55.68 759.64,-48.73"/>
</a>
</g>
</g>
<!-- Node3 -->
<g id="Node000003" class="node">
<title>Node3</title>
<g id="a_Node000003"><a xlink:href="structDGtal_1_1concepts_1_1CConstSinglePassRange.html" target="_top" xlink:title="Aim: Defines the concept describing a const single pass range.">
<polygon fill="white" stroke="#666666" points="164,-78.5 0,-78.5 0,-48.5 164,-48.5 164,-78.5"/>
<text text-anchor="start" x="8" y="-66.5" font-family="FreeSans" font-size="10.00">DGtal::concepts::CConstSingle</text>
<text text-anchor="middle" x="82" y="-55.5" font-family="FreeSans" font-size="10.00">PassRange&lt; T &gt;</text>
</a>
</g>
</g>
<!-- Node3&#45;&gt;Node2 -->
<g id="edge2_Node000002_Node000003" class="edge">
<title>Node3&#45;&gt;Node2</title>
<g id="a_edge2_Node000002_Node000003"><a xlink:title=" ">
<path fill="none" stroke="#63b8ff" d="M154.92,-80.51C170.05,-83.42 185.98,-85.99 201,-87.5 328.73,-100.36 477.26,-87.89 569.72,-76.9"/>
<polygon fill="#63b8ff" stroke="#63b8ff" points="155.6,-77.08 145.11,-78.56 154.23,-83.95 155.6,-77.08"/>
</a>
</g>
</g>
<!-- Node4 -->
<g id="Node000004" class="node">
<title>Node4</title>
<g id="a_Node000004"><a xlink:href="structDGtal_1_1concepts_1_1CConstSinglePassRangeFromPoint.html" target="_top" xlink:title="Aim: refined concept of const single pass range with a begin() method from a point.">
<polygon fill="white" stroke="#666666" points="365,-78.5 201,-78.5 201,-48.5 365,-48.5 365,-78.5"/>
<text text-anchor="start" x="209" y="-66.5" font-family="FreeSans" font-size="10.00">DGtal::concepts::CConstSingle</text>
<text text-anchor="middle" x="283" y="-55.5" font-family="FreeSans" font-size="10.00">PassRangeFromPoint&lt; T &gt;</text>
</a>
</g>
</g>
<!-- Node3&#45;&gt;Node4 -->
<g id="edge4_Node000004_Node000003" class="edge">
<title>Node3&#45;&gt;Node4</title>
<g id="a_edge4_Node000004_Node000003"><a xlink:title=" ">
<path fill="none" stroke="#63b8ff" d="M174.46,-63.5C183.21,-63.5 192.06,-63.5 200.71,-63.5"/>
<polygon fill="#63b8ff" stroke="#63b8ff" points="174.23,-60 164.23,-63.5 174.23,-67 174.23,-60"/>
</a>
</g>
</g>
<!-- Node5 -->
<g id="Node000005" class="node">
<title>Node5</title>
<g id="a_Node000005"><a xlink:href="structDGtal_1_1concepts_1_1CSinglePassRangeWithWritableIterator.html" target="_top" xlink:title="Aim: refined concept of const single pass range which require that an output iterator exists.">
<polygon fill="white" stroke="#666666" points="552,-41 383,-41 383,0 552,0 552,-41"/>
<text text-anchor="start" x="391" y="-29" font-family="FreeSans" font-size="10.00">DGtal::concepts::CSingle</text>
<text text-anchor="start" x="391" y="-18" font-family="FreeSans" font-size="10.00">PassRangeWithWritableIterator</text>
<text text-anchor="middle" x="467.5" y="-7" font-family="FreeSans" font-size="10.00">&lt; T, Value &gt;</text>
</a>
</g>
</g>
<!-- Node3&#45;&gt;Node5 -->
<g id="edge6_Node000005_Node000003" class="edge">
<title>Node3&#45;&gt;Node5</title>
<g id="a_edge6_Node000005_Node000003"><a xlink:title=" ">
<path fill="none" stroke="#63b8ff" d="M159.19,-46.5C173.05,-43.84 187.42,-41.36 201,-39.5 261.55,-31.21 330.4,-26.42 382.81,-23.72"/>
<polygon fill="#63b8ff" stroke="#63b8ff" points="158.34,-43.1 149.21,-48.47 159.69,-49.97 158.34,-43.1"/>
</a>
</g>
</g>
<!-- Node4&#45;&gt;Node2 -->
<g id="edge3_Node000002_Node000004" class="edge">
<title>Node4&#45;&gt;Node2</title>
<g id="a_edge3_Node000002_Node000004"><a xlink:title=" ">
<path fill="none" stroke="orange" stroke-dasharray="5,2" d="M375.45,-63.74C434.61,-63.9 511.24,-64.11 569.92,-64.26"/>
<polygon fill="orange" stroke="orange" points="375.38,-60.24 365.37,-63.72 375.36,-67.24 375.38,-60.24"/>
</a>
</g>
<text text-anchor="middle" x="467.5" y="-66.5" font-family="FreeSans" font-size="10.00" fill="grey"> &lt; T, Value &gt;</text>
</g>
<!-- Node5&#45;&gt;Node1 -->
<g id="edge5_Node000001_Node000005" class="edge">
<title>Node5&#45;&gt;Node1</title>
<g id="a_edge5_Node000001_Node000005"><a xlink:title=" ">
<path fill="none" stroke="#63b8ff" d="M562.56,-24.71C630.49,-27.75 721.41,-31.82 786.82,-34.75"/>
<polygon fill="#63b8ff" stroke="#63b8ff" points="562.43,-21.2 552.28,-24.25 562.12,-28.2 562.43,-21.2"/>
</a>
</g>
</g>
</g>
</svg>
