<?xml version="1.0" encoding="UTF-8" standalone="no"?>
<!DOCTYPE svg PUBLIC "-//W3C//DTD SVG 1.1//EN"
 "http://www.w3.org/Graphics/SVG/1.1/DTD/svg11.dtd">
<!-- Generated by graphviz version 2.43.0 (0)
 -->
<!-- Title: DGtal::concepts::CPowerMetric&lt; T &gt; Pages: 1 -->
<svg width="324pt" height="148pt"
 viewBox="0.00 0.00 324.00 148.00" xmlns="http://www.w3.org/2000/svg" xmlns:xlink="http://www.w3.org/1999/xlink">
<g id="graph0" class="graph" transform="scale(1 1) rotate(0) translate(4 144)">
<title>DGtal::concepts::CPowerMetric&lt; T &gt;</title>
<!-- Node1 -->
<g id="Node000001" class="node">
<title>Node1</title>
<g id="a_Node000001"><a xlink:title="Aim: defines the concept of special weighted metrics, so called power metrics.">
<polygon fill="#999999" stroke="#666666" points="264.5,-85 68.5,-85 68.5,-66 264.5,-66 264.5,-85"/>
<text text-anchor="middle" x="166.5" y="-73" font-family="FreeSans" font-size="10.00">DGtal::concepts::CPowerMetric&lt; T &gt;</text>
</a>
</g>
</g>
<!-- Node4 -->
<g id="Node000004" class="node">
<title>Node4</title>
<g id="a_Node000004"><a xlink:href="structDGtal_1_1concepts_1_1CPowerSeparableMetric.html" target="_top" xlink:title="Aim: defines the concept of separable metrics.">
<polygon fill="white" stroke="#666666" points="259,-30 74,-30 74,0 259,0 259,-30"/>
<text text-anchor="start" x="82" y="-18" font-family="FreeSans" font-size="10.00">DGtal::concepts::CPowerSeparable</text>
<text text-anchor="middle" x="166.5" y="-7" font-family="FreeSans" font-size="10.00">Metric&lt; T &gt;</text>
</a>
</g>
</g>
<!-- Node1&#45;&gt;Node4 -->
<g id="edge3_Node000001_Node000004" class="edge">
<title>Node1&#45;&gt;Node4</title>
<g id="a_edge3_Node000001_Node000004"><a xlink:title=" ">
<path fill="none" stroke="#63b8ff" d="M166.5,-55.65C166.5,-47.36 166.5,-37.78 166.5,-30.11"/>
<polygon fill="#63b8ff" stroke="#63b8ff" points="163,-55.87 166.5,-65.87 170,-55.87 163,-55.87"/>
</a>
</g>
</g>
<!-- Node2 -->
<g id="Node000002" class="node">
<title>Node2</title>
<g id="a_Node000002"><a xlink:href="structboost_1_1CopyConstructible.html" target="_top" xlink:title="Go to http://www.sgi.com/tech/stl/CopyConstructible.html.">
<polygon fill="white" stroke="#666666" points="167,-140 0,-140 0,-121 167,-121 167,-140"/>
<text text-anchor="middle" x="83.5" y="-128" font-family="FreeSans" font-size="10.00">boost::CopyConstructible&lt; T &gt;</text>
</a>
</g>
</g>
<!-- Node2&#45;&gt;Node1 -->
<g id="edge1_Node000001_Node000002" class="edge">
<title>Node2&#45;&gt;Node1</title>
<g id="a_edge1_Node000001_Node000002"><a xlink:title=" ">
<path fill="none" stroke="#63b8ff" d="M105.54,-115.42C120.61,-105.81 140.09,-93.37 152.92,-85.17"/>
<polygon fill="#63b8ff" stroke="#63b8ff" points="103.38,-112.65 96.84,-120.98 107.15,-118.55 103.38,-112.65"/>
</a>
</g>
</g>
<!-- Node3 -->
<g id="Node000003" class="node">
<title>Node3</title>
<g id="a_Node000003"><a xlink:href="structboost_1_1Assignable.html" target="_top" xlink:title="Go to http://www.sgi.com/tech/stl/Assignable.html.">
<polygon fill="white" stroke="#666666" points="316,-140 185,-140 185,-121 316,-121 316,-140"/>
<text text-anchor="middle" x="250.5" y="-128" font-family="FreeSans" font-size="10.00">boost::Assignable&lt; T &gt;</text>
</a>
</g>
</g>
<!-- Node3&#45;&gt;Node1 -->
<g id="edge2_Node000001_Node000003" class="edge">
<title>Node3&#45;&gt;Node1</title>
<g id="a_edge2_Node000001_Node000003"><a xlink:title=" ">
<path fill="none" stroke="#63b8ff" d="M228.19,-115.42C212.95,-105.81 193.23,-93.37 180.24,-85.17"/>
<polygon fill="#63b8ff" stroke="#63b8ff" points="226.68,-118.61 237,-120.98 230.41,-112.69 226.68,-118.61"/>
</a>
</g>
</g>
</g>
</svg>
