<?xml version="1.0" encoding="UTF-8" standalone="no"?>
<!DOCTYPE svg PUBLIC "-//W3C//DTD SVG 1.1//EN"
 "http://www.w3.org/Graphics/SVG/1.1/DTD/svg11.dtd">
<!-- Generated by graphviz version 2.43.0 (0)
 -->
<!-- Title: DGtal::concepts::CUndirectedSimpleLocalGraph&lt; T &gt; Pages: 1 -->
<svg width="1035pt" height="108pt"
 viewBox="0.00 0.00 1035.00 108.00" xmlns="http://www.w3.org/2000/svg" xmlns:xlink="http://www.w3.org/1999/xlink">
<g id="graph0" class="graph" transform="scale(1 1) rotate(0) translate(4 104)">
<title>DGtal::concepts::CUndirectedSimpleLocalGraph&lt; T &gt;</title>
<!-- Node1 -->
<g id="Node000001" class="node">
<title>Node1</title>
<g id="a_Node000001"><a xlink:title="Aim: Represents the concept of local graph: each vertex has neighboring vertices, but we do not neces...">
<polygon fill="#999999" stroke="#666666" points="160,-78 0,-78 0,-48 160,-48 160,-78"/>
<text text-anchor="start" x="8" y="-66" font-family="FreeSans" font-size="10.00">DGtal::concepts::CUndirected</text>
<text text-anchor="middle" x="80" y="-55" font-family="FreeSans" font-size="10.00">SimpleLocalGraph&lt; T &gt;</text>
</a>
</g>
</g>
<!-- Node2 -->
<g id="Node000002" class="node">
<title>Node2</title>
<g id="a_Node000002"><a xlink:href="structDGtal_1_1concepts_1_1CAdjacency.html" target="_top" xlink:title=" ">
<polygon fill="white" stroke="#666666" points="845,-94.5 660,-94.5 660,-75.5 845,-75.5 845,-94.5"/>
<text text-anchor="middle" x="752.5" y="-82.5" font-family="FreeSans" font-size="10.00">DGtal::concepts::CAdjacency&lt; T &gt;</text>
</a>
</g>
</g>
<!-- Node1&#45;&gt;Node2 -->
<g id="edge1_Node000001_Node000002" class="edge">
<title>Node1&#45;&gt;Node2</title>
<g id="a_edge1_Node000001_Node000002"><a xlink:title=" ">
<path fill="none" stroke="#63b8ff" d="M170.22,-79.04C192.3,-82.34 215.95,-85.32 238,-87 385.34,-98.2 557.15,-94.06 659.98,-89.75"/>
<polygon fill="#63b8ff" stroke="#63b8ff" points="170.61,-75.56 160.2,-77.5 169.55,-82.48 170.61,-75.56"/>
</a>
</g>
</g>
<!-- Node4 -->
<g id="Node000004" class="node">
<title>Node4</title>
<g id="a_Node000004"><a xlink:href="structDGtal_1_1concepts_1_1CUndirectedSimpleGraph.html" target="_top" xlink:title="Aim: Represents the concept of local graph: each vertex has neighboring vertices, but we do not neces...">
<polygon fill="white" stroke="#666666" points="398,-78 238,-78 238,-48 398,-48 398,-78"/>
<text text-anchor="start" x="246" y="-66" font-family="FreeSans" font-size="10.00">DGtal::concepts::CUndirected</text>
<text text-anchor="middle" x="318" y="-55" font-family="FreeSans" font-size="10.00">SimpleGraph&lt; T &gt;</text>
</a>
</g>
</g>
<!-- Node1&#45;&gt;Node4 -->
<g id="edge3_Node000001_Node000004" class="edge">
<title>Node1&#45;&gt;Node4</title>
<g id="a_edge3_Node000001_Node000004"><a xlink:title=" ">
<path fill="none" stroke="#63b8ff" d="M170.34,-63C192.58,-63 216.27,-63 237.97,-63"/>
<polygon fill="#63b8ff" stroke="#63b8ff" points="170.24,-59.5 160.24,-63 170.24,-66.5 170.24,-59.5"/>
</a>
</g>
</g>
<!-- Node5 -->
<g id="Node000005" class="node">
<title>Node5</title>
<g id="a_Node000005"><a xlink:href="structDGtal_1_1concepts_1_1CUndirectedSimpleLocalGraph.html" target="_top" xlink:title=" ">
<polygon fill="white" stroke="#666666" points="398,-30 238,-30 238,0 398,0 398,-30"/>
<text text-anchor="start" x="246" y="-18" font-family="FreeSans" font-size="10.00">DGtal::concepts::CUndirected</text>
<text text-anchor="middle" x="318" y="-7" font-family="FreeSans" font-size="10.00">SimpleLocalGraph&lt; Adj &gt;</text>
</a>
</g>
</g>
<!-- Node1&#45;&gt;Node5 -->
<g id="edge4_Node000001_Node000005" class="edge">
<title>Node1&#45;&gt;Node5</title>
<g id="a_edge4_Node000001_Node000005"><a xlink:title=" ">
<path fill="none" stroke="orange" stroke-dasharray="5,2" d="M165.06,-45.9C190.59,-40.71 218.44,-35.05 243.24,-30"/>
<polygon fill="orange" stroke="orange" points="164.13,-42.52 155.02,-47.94 165.52,-49.38 164.13,-42.52"/>
</a>
</g>
<text text-anchor="middle" x="199" y="-44" font-family="FreeSans" font-size="10.00" fill="grey"> &lt; Adj &gt;</text>
</g>
<!-- Node3 -->
<g id="Node000003" class="node">
<title>Node3</title>
<g id="a_Node000003"><a xlink:href="structDGtal_1_1concepts_1_1CDomainAdjacency.html" target="_top" xlink:title="Aim: Refines the concept CAdjacency by telling that the adjacency is specific to a given domain of th...">
<polygon fill="white" stroke="#666666" points="1027,-100 882,-100 882,-70 1027,-70 1027,-100"/>
<text text-anchor="start" x="890" y="-88" font-family="FreeSans" font-size="10.00">DGtal::concepts::CDomain</text>
<text text-anchor="middle" x="954.5" y="-77" font-family="FreeSans" font-size="10.00">Adjacency&lt; T &gt;</text>
</a>
</g>
</g>
<!-- Node2&#45;&gt;Node3 -->
<g id="edge2_Node000002_Node000003" class="edge">
<title>Node2&#45;&gt;Node3</title>
<g id="a_edge2_Node000002_Node000003"><a xlink:title=" ">
<path fill="none" stroke="#63b8ff" d="M855.16,-85C864.16,-85 873.13,-85 881.8,-85"/>
<polygon fill="#63b8ff" stroke="#63b8ff" points="855.01,-81.5 845.01,-85 855.01,-88.5 855.01,-81.5"/>
</a>
</g>
</g>
<!-- Node6 -->
<g id="Node000006" class="node">
<title>Node6</title>
<g id="a_Node000006"><a xlink:href="structDGtal_1_1concepts_1_1CAdjacency.html" target="_top" xlink:title="Aim: The concept CAdjacency defines an elementary adjacency relation between points of a digital spac...">
<polygon fill="white" stroke="#666666" points="592,-66 435,-66 435,-36 592,-36 592,-66"/>
<text text-anchor="start" x="443" y="-54" font-family="FreeSans" font-size="10.00">DGtal::concepts::CAdjacency</text>
<text text-anchor="middle" x="513.5" y="-43" font-family="FreeSans" font-size="10.00">&lt; Adj &gt;</text>
</a>
</g>
</g>
<!-- Node5&#45;&gt;Node6 -->
<g id="edge5_Node000005_Node000006" class="edge">
<title>Node5&#45;&gt;Node6</title>
<g id="a_edge5_Node000005_Node000006"><a xlink:title=" ">
<path fill="none" stroke="#63b8ff" d="M408.26,-31.61C417.17,-33.26 426.15,-34.94 434.92,-36.57"/>
<polygon fill="#63b8ff" stroke="#63b8ff" points="408.73,-28.13 398.26,-29.75 407.45,-35.02 408.73,-28.13"/>
</a>
</g>
</g>
<!-- Node6&#45;&gt;Node2 -->
<g id="edge6_Node000006_Node000002" class="edge">
<title>Node6&#45;&gt;Node2</title>
<g id="a_edge6_Node000006_Node000002"><a xlink:title=" ">
<path fill="none" stroke="orange" stroke-dasharray="5,2" d="M602.11,-63.57C629.61,-67.51 659.49,-71.8 685.25,-75.5"/>
<polygon fill="orange" stroke="orange" points="602.5,-60.09 592.1,-62.13 601.5,-67.02 602.5,-60.09"/>
</a>
</g>
<text text-anchor="middle" x="626" y="-72" font-family="FreeSans" font-size="10.00" fill="grey"> &lt; T &gt;</text>
</g>
</g>
</svg>
