<?xml version="1.0" encoding="UTF-8" standalone="no"?>
<!DOCTYPE svg PUBLIC "-//W3C//DTD SVG 1.1//EN"
 "http://www.w3.org/Graphics/SVG/1.1/DTD/svg11.dtd">
<!-- Generated by graphviz version 2.43.0 (0)
 -->
<!-- Title: DGtal::ConvexHullCommonKernel&lt; dim, TCoordinateInteger, TInternalInteger &gt; Pages: 1 -->
<svg width="520pt" height="344pt"
 viewBox="0.00 0.00 520.00 344.00" xmlns="http://www.w3.org/2000/svg" xmlns:xlink="http://www.w3.org/1999/xlink">
<g id="graph0" class="graph" transform="scale(1 1) rotate(0) translate(4 340)">
<title>DGtal::ConvexHullCommonKernel&lt; dim, TCoordinateInteger, TInternalInteger &gt;</title>
<!-- Node1 -->
<g id="Node000001" class="node">
<title>Node1</title>
<g id="a_Node000001"><a xlink:title="Aim: the common part of all geometric kernels for computing the convex hull or Delaunay triangulation...">
<polygon fill="#999999" stroke="#666666" points="182,-188 0,-188 0,-147 182,-147 182,-188"/>
<text text-anchor="start" x="8" y="-176" font-family="FreeSans" font-size="10.00">DGtal::ConvexHullCommonKernel</text>
<text text-anchor="start" x="8" y="-165" font-family="FreeSans" font-size="10.00">&lt; dim, TCoordinateInteger,</text>
<text text-anchor="middle" x="91" y="-154" font-family="FreeSans" font-size="10.00"> TInternalInteger &gt;</text>
</a>
</g>
</g>
<!-- Node2 -->
<g id="Node000002" class="node">
<title>Node2</title>
<g id="a_Node000002"><a xlink:href="structDGtal_1_1ConvexHullIntegralKernel.html" target="_top" xlink:title="Aim: a geometric kernel to compute the convex hull of digital points with integer&#45;only arithmetic.">
<polygon fill="white" stroke="#666666" points="510.5,-336 331.5,-336 331.5,-295 510.5,-295 510.5,-336"/>
<text text-anchor="start" x="339.5" y="-324" font-family="FreeSans" font-size="10.00">DGtal::ConvexHullIntegral</text>
<text text-anchor="start" x="339.5" y="-313" font-family="FreeSans" font-size="10.00">Kernel&lt; dim, TCoordinateInteger,</text>
<text text-anchor="middle" x="421" y="-302" font-family="FreeSans" font-size="10.00"> TInternalInteger &gt;</text>
</a>
</g>
</g>
<!-- Node1&#45;&gt;Node2 -->
<g id="edge1_Node000001_Node000002" class="edge">
<title>Node1&#45;&gt;Node2</title>
<g id="a_edge1_Node000001_Node000002"><a xlink:title=" ">
<path fill="none" stroke="#63b8ff" d="M137.19,-193.12C184.27,-219.08 260.69,-259.2 330,-286.5 337.33,-289.39 345.08,-292.21 352.83,-294.9"/>
<polygon fill="#63b8ff" stroke="#63b8ff" points="138.62,-189.91 128.18,-188.12 135.23,-196.03 138.62,-189.91"/>
</a>
</g>
</g>
<!-- Node3 -->
<g id="Node000003" class="node">
<title>Node3</title>
<g id="a_Node000003"><a xlink:href="structDGtal_1_1ConvexHullRationalKernel.html" target="_top" xlink:title="Aim: a geometric kernel to compute the convex hull of floating points with integer&#45;only arithmetic....">
<polygon fill="white" stroke="#666666" points="510.5,-277 331.5,-277 331.5,-236 510.5,-236 510.5,-277"/>
<text text-anchor="start" x="339.5" y="-265" font-family="FreeSans" font-size="10.00">DGtal::ConvexHullRational</text>
<text text-anchor="start" x="339.5" y="-254" font-family="FreeSans" font-size="10.00">Kernel&lt; dim, TCoordinateInteger,</text>
<text text-anchor="middle" x="421" y="-243" font-family="FreeSans" font-size="10.00"> TInternalInteger &gt;</text>
</a>
</g>
</g>
<!-- Node1&#45;&gt;Node3 -->
<g id="edge2_Node000001_Node000003" class="edge">
<title>Node1&#45;&gt;Node3</title>
<g id="a_edge2_Node000001_Node000003"><a xlink:title=" ">
<path fill="none" stroke="#63b8ff" d="M177.49,-190.7C229.22,-204.73 294.6,-222.47 344.44,-236"/>
<polygon fill="#63b8ff" stroke="#63b8ff" points="178.23,-187.27 167.66,-188.03 176.4,-194.03 178.23,-187.27"/>
</a>
</g>
</g>
<!-- Node4 -->
<g id="Node000004" class="node">
<title>Node4</title>
<g id="a_Node000004"><a xlink:href="structDGtal_1_1DelaunayIntegralKernel.html" target="_top" xlink:title="Aim: a geometric kernel to compute the Delaunay triangulation of digital points with integer&#45;only ari...">
<polygon fill="white" stroke="#666666" points="503.5,-218 338.5,-218 338.5,-177 503.5,-177 503.5,-218"/>
<text text-anchor="start" x="346.5" y="-206" font-family="FreeSans" font-size="10.00">DGtal::DelaunayIntegralKernel</text>
<text text-anchor="start" x="346.5" y="-195" font-family="FreeSans" font-size="10.00">&lt; dim, TCoordinateInteger,</text>
<text text-anchor="middle" x="421" y="-184" font-family="FreeSans" font-size="10.00"> TInternalInteger &gt;</text>
</a>
</g>
</g>
<!-- Node1&#45;&gt;Node4 -->
<g id="edge3_Node000001_Node000004" class="edge">
<title>Node1&#45;&gt;Node4</title>
<g id="a_edge3_Node000001_Node000004"><a xlink:title=" ">
<path fill="none" stroke="#63b8ff" d="M192.22,-176.67C239.03,-180.95 294.04,-185.98 338.27,-190.03"/>
<polygon fill="#63b8ff" stroke="#63b8ff" points="192.34,-173.16 182.06,-175.74 191.7,-180.13 192.34,-173.16"/>
</a>
</g>
</g>
<!-- Node5 -->
<g id="Node000005" class="node">
<title>Node5</title>
<g id="a_Node000005"><a xlink:href="structDGtal_1_1DelaunayRationalKernel.html" target="_top" xlink:title="Aim: a geometric kernel to compute the Delaunay triangulation of a range of floating points with inte...">
<polygon fill="white" stroke="#666666" points="505,-159 337,-159 337,-118 505,-118 505,-159"/>
<text text-anchor="start" x="345" y="-147" font-family="FreeSans" font-size="10.00">DGtal::DelaunayRationalKernel</text>
<text text-anchor="start" x="345" y="-136" font-family="FreeSans" font-size="10.00">&lt; dim, TCoordinateInteger,</text>
<text text-anchor="middle" x="421" y="-125" font-family="FreeSans" font-size="10.00"> TInternalInteger &gt;</text>
</a>
</g>
</g>
<!-- Node1&#45;&gt;Node5 -->
<g id="edge4_Node000001_Node000005" class="edge">
<title>Node1&#45;&gt;Node5</title>
<g id="a_edge4_Node000001_Node000005"><a xlink:title=" ">
<path fill="none" stroke="#63b8ff" d="M192.12,-158.65C238.46,-154.55 292.86,-149.74 336.89,-145.85"/>
<polygon fill="#63b8ff" stroke="#63b8ff" points="191.71,-155.17 182.06,-159.54 192.33,-162.14 191.71,-155.17"/>
</a>
</g>
</g>
<!-- Node6 -->
<g id="Node000006" class="node">
<title>Node6</title>
<g id="a_Node000006"><a xlink:href="structDGtal_1_1ConvexHullCommonKernel.html" target="_top" xlink:title=" ">
<polygon fill="white" stroke="#666666" points="512,-100 330,-100 330,-59 512,-59 512,-100"/>
<text text-anchor="start" x="338" y="-88" font-family="FreeSans" font-size="10.00">DGtal::ConvexHullCommonKernel</text>
<text text-anchor="start" x="338" y="-77" font-family="FreeSans" font-size="10.00">&lt; dim, DGtal::int64_t, DGtal</text>
<text text-anchor="middle" x="421" y="-66" font-family="FreeSans" font-size="10.00">::int64_t &gt;</text>
</a>
</g>
</g>
<!-- Node1&#45;&gt;Node6 -->
<g id="edge5_Node000001_Node000006" class="edge">
<title>Node1&#45;&gt;Node6</title>
<g id="a_edge5_Node000001_Node000006"><a xlink:title=" ">
<path fill="none" stroke="orange" stroke-dasharray="5,2" d="M145.01,-142.91C162.28,-135.58 181.71,-128.04 200,-122.5 242,-109.79 289.68,-99.93 329.89,-92.88"/>
<polygon fill="orange" stroke="orange" points="143.46,-139.77 135.66,-146.94 146.23,-146.19 143.46,-139.77"/>
</a>
</g>
<text text-anchor="start" x="207" y="-136.5" font-family="FreeSans" font-size="10.00" fill="grey"> &lt; dim, DGtal::int64</text>
<text text-anchor="middle" x="256" y="-125.5" font-family="FreeSans" font-size="10.00" fill="grey">_t, DGtal::int64_t &gt;</text>
</g>
<!-- Node7 -->
<g id="Node000007" class="node">
<title>Node7</title>
<g id="a_Node000007"><a xlink:href="structDGtal_1_1ConvexHullCommonKernel.html" target="_top" xlink:title=" ">
<polygon fill="white" stroke="#666666" points="512,-41 330,-41 330,0 512,0 512,-41"/>
<text text-anchor="start" x="338" y="-29" font-family="FreeSans" font-size="10.00">DGtal::ConvexHullCommonKernel</text>
<text text-anchor="start" x="338" y="-18" font-family="FreeSans" font-size="10.00">&lt; dim+1, DGtal::int64_t,</text>
<text text-anchor="middle" x="421" y="-7" font-family="FreeSans" font-size="10.00"> DGtal::int64_t &gt;</text>
</a>
</g>
</g>
<!-- Node1&#45;&gt;Node7 -->
<g id="edge6_Node000001_Node000007" class="edge">
<title>Node1&#45;&gt;Node7</title>
<g id="a_edge6_Node000001_Node000007"><a xlink:title=" ">
<path fill="none" stroke="orange" stroke-dasharray="5,2" d="M115.93,-139.25C136.12,-117.23 166.96,-87.6 200,-70.5 240.09,-49.75 288.67,-37.55 329.97,-30.41"/>
<polygon fill="orange" stroke="orange" points="113.32,-136.91 109.24,-146.69 118.53,-141.59 113.32,-136.91"/>
</a>
</g>
<text text-anchor="start" x="200" y="-84.5" font-family="FreeSans" font-size="10.00" fill="grey"> &lt; dim+1, DGtal::int64</text>
<text text-anchor="middle" x="256" y="-73.5" font-family="FreeSans" font-size="10.00" fill="grey">_t, DGtal::int64_t &gt;</text>
</g>
</g>
</svg>
