<?xml version="1.0" encoding="UTF-8" standalone="no"?>
<!DOCTYPE svg PUBLIC "-//W3C//DTD SVG 1.1//EN"
 "http://www.w3.org/Graphics/SVG/1.1/DTD/svg11.dtd">
<!-- Generated by graphviz version 2.43.0 (0)
 -->
<!-- Title: DGtal::concepts::CQuantity&lt; T &gt; Pages: 1 -->
<svg width="1412pt" height="172pt"
 viewBox="0.00 0.00 1412.00 172.00" xmlns="http://www.w3.org/2000/svg" xmlns:xlink="http://www.w3.org/1999/xlink">
<g id="graph0" class="graph" transform="scale(1 1) rotate(0) translate(4 168)">
<title>DGtal::concepts::CQuantity&lt; T &gt;</title>
<!-- Node1 -->
<g id="Node000001" class="node">
<title>Node1</title>
<g id="a_Node000001"><a xlink:title="Aim: defines the concept of quantity in DGtal.">
<polygon fill="#999999" stroke="#666666" points="611,-93.5 434,-93.5 434,-74.5 611,-74.5 611,-93.5"/>
<text text-anchor="middle" x="522.5" y="-81.5" font-family="FreeSans" font-size="10.00">DGtal::concepts::CQuantity&lt; T &gt;</text>
</a>
</g>
</g>
<!-- Node7 -->
<g id="Node000007" class="node">
<title>Node7</title>
<g id="a_Node000007"><a xlink:href="structDGtal_1_1concepts_1_1CBoundedNumber.html" target="_top" xlink:title="Aim: The concept CBoundedNumber specifies what are the bounded numbers. Models of this concept should...">
<polygon fill="white" stroke="#666666" points="797.5,-164 648.5,-164 648.5,-134 797.5,-134 797.5,-164"/>
<text text-anchor="start" x="656.5" y="-152" font-family="FreeSans" font-size="10.00">DGtal::concepts::CBounded</text>
<text text-anchor="middle" x="723" y="-141" font-family="FreeSans" font-size="10.00">Number&lt; T &gt;</text>
</a>
</g>
</g>
<!-- Node1&#45;&gt;Node7 -->
<g id="edge6_Node000001_Node000007" class="edge">
<title>Node1&#45;&gt;Node7</title>
<g id="a_edge6_Node000001_Node000007"><a xlink:title=" ">
<path fill="none" stroke="#63b8ff" d="M562.43,-96.75C595.02,-107.42 641.59,-122.67 676.01,-133.94"/>
<polygon fill="#63b8ff" stroke="#63b8ff" points="563.38,-93.38 552.79,-93.59 561.2,-100.03 563.38,-93.38"/>
</a>
</g>
</g>
<!-- Node8 -->
<g id="Node000008" class="node">
<title>Node8</title>
<g id="a_Node000008"><a xlink:href="structDGtal_1_1concepts_1_1CIntegralNumber.html" target="_top" xlink:title="Aim: Concept checking for Integral Numbers. Models of this concept should be listed in NumberTraits c...">
<polygon fill="white" stroke="#666666" points="993.5,-123 849.5,-123 849.5,-93 993.5,-93 993.5,-123"/>
<text text-anchor="start" x="857.5" y="-111" font-family="FreeSans" font-size="10.00">DGtal::concepts::CIntegral</text>
<text text-anchor="middle" x="921.5" y="-100" font-family="FreeSans" font-size="10.00">Number&lt; T &gt;</text>
</a>
</g>
</g>
<!-- Node1&#45;&gt;Node8 -->
<g id="edge7_Node000001_Node000008" class="edge">
<title>Node1&#45;&gt;Node8</title>
<g id="a_edge7_Node000001_Node000008"><a xlink:title=" ">
<path fill="none" stroke="#63b8ff" d="M621.36,-89.92C691.99,-94.19 785.74,-99.85 849.33,-103.7"/>
<polygon fill="#63b8ff" stroke="#63b8ff" points="621.31,-86.41 611.11,-89.3 620.89,-93.39 621.31,-86.41"/>
</a>
</g>
</g>
<!-- Node10 -->
<g id="Node000010" class="node">
<title>Node10</title>
<g id="a_Node000010"><a xlink:href="structDGtal_1_1concepts_1_1CSignedNumber.html" target="_top" xlink:title="Aim: Concept checking for Signed Numbers. Models of this concept should be listed in NumberTraits cla...">
<polygon fill="white" stroke="#666666" points="793,-78 653,-78 653,-48 793,-48 793,-78"/>
<text text-anchor="start" x="661" y="-66" font-family="FreeSans" font-size="10.00">DGtal::concepts::CSigned</text>
<text text-anchor="middle" x="723" y="-55" font-family="FreeSans" font-size="10.00">Number&lt; T &gt;</text>
</a>
</g>
</g>
<!-- Node1&#45;&gt;Node10 -->
<g id="edge9_Node000001_Node000010" class="edge">
<title>Node1&#45;&gt;Node10</title>
<g id="a_edge9_Node000001_Node000010"><a xlink:title=" ">
<path fill="none" stroke="#63b8ff" d="M621.29,-73.65C631.9,-72.53 642.54,-71.41 652.7,-70.33"/>
<polygon fill="#63b8ff" stroke="#63b8ff" points="620.72,-70.2 611.14,-74.73 621.46,-77.16 620.72,-70.2"/>
</a>
</g>
</g>
<!-- Node13 -->
<g id="Node000013" class="node">
<title>Node13</title>
<g id="a_Node000013"><a xlink:href="structDGtal_1_1concepts_1_1CUnsignedNumber.html" target="_top" xlink:title="Aim: Concept checking for Unsigned numbers. Models of this concept should be listed in NumberTraits c...">
<polygon fill="white" stroke="#666666" points="799,-30 647,-30 647,0 799,0 799,-30"/>
<text text-anchor="start" x="655" y="-18" font-family="FreeSans" font-size="10.00">DGtal::concepts::CUnsigned</text>
<text text-anchor="middle" x="723" y="-7" font-family="FreeSans" font-size="10.00">Number&lt; T &gt;</text>
</a>
</g>
</g>
<!-- Node1&#45;&gt;Node13 -->
<g id="edge13_Node000001_Node000013" class="edge">
<title>Node1&#45;&gt;Node13</title>
<g id="a_edge13_Node000001_Node000013"><a xlink:title=" ">
<path fill="none" stroke="#63b8ff" d="M558.57,-70.8C583.22,-61.63 617.02,-49.26 647,-39 655.67,-36.04 664.93,-32.98 673.89,-30.08"/>
<polygon fill="#63b8ff" stroke="#63b8ff" points="557.08,-67.62 548.94,-74.4 559.53,-74.18 557.08,-67.62"/>
</a>
</g>
</g>
<!-- Node2 -->
<g id="Node000002" class="node">
<title>Node2</title>
<g id="a_Node000002"><a xlink:href="structDGtal_1_1concepts_1_1CLabel.html" target="_top" xlink:title="Aim: Define the concept of DGtal labels. Models of CLabel can be default&#45;constructible,...">
<polygon fill="white" stroke="#666666" points="387,-112.5 226,-112.5 226,-93.5 387,-93.5 387,-112.5"/>
<text text-anchor="middle" x="306.5" y="-100.5" font-family="FreeSans" font-size="10.00">DGtal::concepts::CLabel&lt; T &gt;</text>
</a>
</g>
</g>
<!-- Node2&#45;&gt;Node1 -->
<g id="edge1_Node000001_Node000002" class="edge">
<title>Node2&#45;&gt;Node1</title>
<g id="a_edge1_Node000001_Node000002"><a xlink:title=" ">
<path fill="none" stroke="#63b8ff" d="M397.27,-95.03C409.37,-93.96 421.77,-92.85 433.84,-91.78"/>
<polygon fill="#63b8ff" stroke="#63b8ff" points="396.84,-91.55 387.19,-95.93 397.46,-98.53 396.84,-91.55"/>
</a>
</g>
</g>
<!-- Node3 -->
<g id="Node000003" class="node">
<title>Node3</title>
<g id="a_Node000003"><a xlink:href="structboost_1_1DefaultConstructible.html" target="_top" xlink:title="Go to http://www.sgi.com/tech/stl/DefaultConstructible.html.">
<polygon fill="white" stroke="#666666" points="179,-149.5 0,-149.5 0,-130.5 179,-130.5 179,-149.5"/>
<text text-anchor="middle" x="89.5" y="-137.5" font-family="FreeSans" font-size="10.00">boost::DefaultConstructible&lt; T &gt;</text>
</a>
</g>
</g>
<!-- Node3&#45;&gt;Node2 -->
<g id="edge2_Node000002_Node000003" class="edge">
<title>Node3&#45;&gt;Node2</title>
<g id="a_edge2_Node000002_Node000003"><a xlink:title=" ">
<path fill="none" stroke="#63b8ff" d="M155.84,-128.75C185.9,-123.58 221.19,-117.51 249.95,-112.56"/>
<polygon fill="#63b8ff" stroke="#63b8ff" points="155.13,-125.33 145.87,-130.47 156.32,-132.22 155.13,-125.33"/>
</a>
</g>
</g>
<!-- Node4 -->
<g id="Node000004" class="node">
<title>Node4</title>
<g id="a_Node000004"><a xlink:href="structboost_1_1Assignable.html" target="_top" xlink:title="Go to http://www.sgi.com/tech/stl/Assignable.html.">
<polygon fill="white" stroke="#666666" points="155,-112.5 24,-112.5 24,-93.5 155,-93.5 155,-112.5"/>
<text text-anchor="middle" x="89.5" y="-100.5" font-family="FreeSans" font-size="10.00">boost::Assignable&lt; T &gt;</text>
</a>
</g>
</g>
<!-- Node4&#45;&gt;Node2 -->
<g id="edge3_Node000002_Node000004" class="edge">
<title>Node4&#45;&gt;Node2</title>
<g id="a_edge3_Node000002_Node000004"><a xlink:title=" ">
<path fill="none" stroke="#63b8ff" d="M165.1,-103C184.71,-103 205.94,-103 225.81,-103"/>
<polygon fill="#63b8ff" stroke="#63b8ff" points="165.01,-99.5 155.01,-103 165.01,-106.5 165.01,-99.5"/>
</a>
</g>
</g>
<!-- Node5 -->
<g id="Node000005" class="node">
<title>Node5</title>
<g id="a_Node000005"><a xlink:href="structboost_1_1EqualityComparable.html" target="_top" xlink:title="Go to http://www.sgi.com/tech/stl/EqualityComparable.html.">
<polygon fill="white" stroke="#666666" points="178,-75.5 1,-75.5 1,-56.5 178,-56.5 178,-75.5"/>
<text text-anchor="middle" x="89.5" y="-63.5" font-family="FreeSans" font-size="10.00">boost::EqualityComparable&lt; T &gt;</text>
</a>
</g>
</g>
<!-- Node5&#45;&gt;Node2 -->
<g id="edge4_Node000002_Node000005" class="edge">
<title>Node5&#45;&gt;Node2</title>
<g id="a_edge4_Node000002_Node000005"><a xlink:title=" ">
<path fill="none" stroke="#63b8ff" d="M155.84,-77.25C185.9,-82.42 221.19,-88.49 249.95,-93.44"/>
<polygon fill="#63b8ff" stroke="#63b8ff" points="156.32,-73.78 145.87,-75.53 155.13,-80.67 156.32,-73.78"/>
</a>
</g>
</g>
<!-- Node6 -->
<g id="Node000006" class="node">
<title>Node6</title>
<g id="a_Node000006"><a xlink:href="structboost_1_1LessThanComparable.html" target="_top" xlink:title="Go to http://www.sgi.com/tech/stl/LessThanComparable.html.">
<polygon fill="white" stroke="#666666" points="398,-75.5 215,-75.5 215,-56.5 398,-56.5 398,-75.5"/>
<text text-anchor="middle" x="306.5" y="-63.5" font-family="FreeSans" font-size="10.00">boost::LessThanComparable&lt; T &gt;</text>
</a>
</g>
</g>
<!-- Node6&#45;&gt;Node1 -->
<g id="edge5_Node000001_Node000006" class="edge">
<title>Node6&#45;&gt;Node1</title>
<g id="a_edge5_Node000001_Node000006"><a xlink:title=" ">
<path fill="none" stroke="#63b8ff" d="M408.48,-74.49C416.9,-75.2 425.37,-75.91 433.67,-76.61"/>
<polygon fill="#63b8ff" stroke="#63b8ff" points="408.51,-70.98 398.26,-73.63 407.93,-77.96 408.51,-70.98"/>
</a>
</g>
</g>
<!-- Node9 -->
<g id="Node000009" class="node">
<title>Node9</title>
<g id="a_Node000009"><a xlink:href="structDGtal_1_1concepts_1_1CInteger.html" target="_top" xlink:title="Aim: Concept checking for Integer Numbers. More precisely, this concept is a refinement of both CEucl...">
<polygon fill="white" stroke="#666666" points="1404,-92.5 1234,-92.5 1234,-73.5 1404,-73.5 1404,-92.5"/>
<text text-anchor="middle" x="1319" y="-80.5" font-family="FreeSans" font-size="10.00">DGtal::concepts::CInteger&lt; T &gt;</text>
</a>
</g>
</g>
<!-- Node8&#45;&gt;Node9 -->
<g id="edge8_Node000008_Node000009" class="edge">
<title>Node8&#45;&gt;Node9</title>
<g id="a_edge8_Node000008_Node000009"><a xlink:title=" ">
<path fill="none" stroke="#63b8ff" d="M1003.77,-102.86C1070.86,-98.62 1165.76,-92.62 1233.68,-88.33"/>
<polygon fill="#63b8ff" stroke="#63b8ff" points="1003.42,-99.38 993.66,-103.5 1003.87,-106.36 1003.42,-99.38"/>
</a>
</g>
</g>
<!-- Node11 -->
<g id="Node000011" class="node">
<title>Node11</title>
<g id="a_Node000011"><a xlink:href="structDGtal_1_1concepts_1_1CCommutativeRing.html" target="_top" xlink:title="Aim: Defines the mathematical concept equivalent to a unitary commutative ring.">
<polygon fill="white" stroke="#666666" points="1008,-75 835,-75 835,-45 1008,-45 1008,-75"/>
<text text-anchor="start" x="843" y="-63" font-family="FreeSans" font-size="10.00">DGtal::concepts::CCommutative</text>
<text text-anchor="middle" x="921.5" y="-52" font-family="FreeSans" font-size="10.00">Ring&lt; T &gt;</text>
</a>
</g>
</g>
<!-- Node10&#45;&gt;Node11 -->
<g id="edge10_Node000010_Node000011" class="edge">
<title>Node10&#45;&gt;Node11</title>
<g id="a_edge10_Node000010_Node000011"><a xlink:title=" ">
<path fill="none" stroke="#63b8ff" d="M803.25,-61.79C813.62,-61.63 824.28,-61.47 834.75,-61.31"/>
<polygon fill="#63b8ff" stroke="#63b8ff" points="802.95,-58.29 793,-61.95 803.05,-65.29 802.95,-58.29"/>
</a>
</g>
</g>
<!-- Node12 -->
<g id="Node000012" class="node">
<title>Node12</title>
<g id="a_Node000012"><a xlink:href="structDGtal_1_1concepts_1_1CEuclideanRing.html" target="_top" xlink:title="Aim: Defines the mathematical concept equivalent to a unitary commutative ring with a division operat...">
<polygon fill="white" stroke="#666666" points="1198,-77 1044,-77 1044,-47 1198,-47 1198,-77"/>
<text text-anchor="start" x="1052" y="-65" font-family="FreeSans" font-size="10.00">DGtal::concepts::CEuclidean</text>
<text text-anchor="middle" x="1121" y="-54" font-family="FreeSans" font-size="10.00">Ring&lt; T &gt;</text>
</a>
</g>
</g>
<!-- Node11&#45;&gt;Node12 -->
<g id="edge11_Node000011_Node000012" class="edge">
<title>Node11&#45;&gt;Node12</title>
<g id="a_edge11_Node000011_Node000012"><a xlink:title=" ">
<path fill="none" stroke="#63b8ff" d="M1018.32,-60.97C1026.92,-61.06 1035.54,-61.14 1043.93,-61.23"/>
<polygon fill="#63b8ff" stroke="#63b8ff" points="1018.3,-57.47 1008.26,-60.87 1018.23,-64.47 1018.3,-57.47"/>
</a>
</g>
</g>
<!-- Node12&#45;&gt;Node9 -->
<g id="edge12_Node000012_Node000009" class="edge">
<title>Node12&#45;&gt;Node9</title>
<g id="a_edge12_Node000012_Node000009"><a xlink:title=" ">
<path fill="none" stroke="#63b8ff" d="M1208.04,-71.22C1216.61,-72.14 1225.3,-73.07 1233.85,-73.98"/>
<polygon fill="#63b8ff" stroke="#63b8ff" points="1208.38,-67.73 1198.06,-70.15 1207.63,-74.69 1208.38,-67.73"/>
</a>
</g>
</g>
</g>
</svg>
