<?xml version="1.0" encoding="UTF-8" standalone="no"?>
<!DOCTYPE svg PUBLIC "-//W3C//DTD SVG 1.1//EN"
 "http://www.w3.org/Graphics/SVG/1.1/DTD/svg11.dtd">
<!-- Generated by graphviz version 2.43.0 (0)
 -->
<!-- Title: DGtal::functors::Projector&lt; S &gt; Pages: 1 -->
<svg width="560pt" height="146pt"
 viewBox="0.00 0.00 560.00 146.00" xmlns="http://www.w3.org/2000/svg" xmlns:xlink="http://www.w3.org/1999/xlink">
<g id="graph0" class="graph" transform="scale(1 1) rotate(0) translate(4 142)">
<title>DGtal::functors::Projector&lt; S &gt;</title>
<!-- Node1 -->
<g id="Node000001" class="node">
<title>Node1</title>
<g id="a_Node000001"><a xlink:title="Aim: Functor that maps a point P of dimension i to a point Q of dimension j. The member myDims is an ...">
<polygon fill="#999999" stroke="#666666" points="168,-78.5 0,-78.5 0,-59.5 168,-59.5 168,-78.5"/>
<text text-anchor="middle" x="84" y="-66.5" font-family="FreeSans" font-size="10.00">DGtal::functors::Projector&lt; S &gt;</text>
</a>
</g>
</g>
<!-- Node2 -->
<g id="Node000002" class="node">
<title>Node2</title>
<g id="a_Node000002"><a xlink:href="structDGtal_1_1functors_1_1Projector.html" target="_top" xlink:title=" ">
<polygon fill="white" stroke="#666666" points="527,-138 387,-138 387,-108 527,-108 527,-138"/>
<text text-anchor="start" x="395" y="-126" font-family="FreeSans" font-size="10.00">DGtal::functors::Projector</text>
<text text-anchor="middle" x="457" y="-115" font-family="FreeSans" font-size="10.00">&lt; SpaceND&lt; 2, int &gt; &gt;</text>
</a>
</g>
</g>
<!-- Node1&#45;&gt;Node2 -->
<g id="edge1_Node000001_Node000002" class="edge">
<title>Node1&#45;&gt;Node2</title>
<g id="a_edge1_Node000001_Node000002"><a xlink:title=" ">
<path fill="none" stroke="orange" stroke-dasharray="5,2" d="M126.69,-81.22C144.79,-86.13 166.3,-91.46 186,-95 253.72,-107.16 332.02,-114.56 386.8,-118.67"/>
<polygon fill="orange" stroke="orange" points="127.6,-77.84 117.03,-78.55 125.73,-84.58 127.6,-77.84"/>
</a>
</g>
<text text-anchor="middle" x="265" y="-117" font-family="FreeSans" font-size="10.00" fill="grey"> &lt; SpaceND&lt; 2, int &gt; &gt;</text>
</g>
<!-- Node3 -->
<g id="Node000003" class="node">
<title>Node3</title>
<g id="a_Node000003"><a xlink:href="structDGtal_1_1functors_1_1Projector.html" target="_top" xlink:title=" ">
<polygon fill="white" stroke="#666666" points="552,-89.5 362,-89.5 362,-48.5 552,-48.5 552,-89.5"/>
<text text-anchor="start" x="370" y="-77.5" font-family="FreeSans" font-size="10.00">DGtal::functors::Projector</text>
<text text-anchor="start" x="370" y="-66.5" font-family="FreeSans" font-size="10.00">&lt; SpaceND&lt; 2, typename TKSpace</text>
<text text-anchor="middle" x="457" y="-55.5" font-family="FreeSans" font-size="10.00">::Space::Integer &gt; &gt;</text>
</a>
</g>
</g>
<!-- Node1&#45;&gt;Node3 -->
<g id="edge2_Node000001_Node000003" class="edge">
<title>Node1&#45;&gt;Node3</title>
<g id="a_edge2_Node000001_Node000003"><a xlink:title=" ">
<path fill="none" stroke="orange" stroke-dasharray="5,2" d="M178.55,-69C234.64,-69 305.73,-69 361.91,-69"/>
<polygon fill="orange" stroke="orange" points="178.26,-65.5 168.26,-69 178.26,-72.5 178.26,-65.5"/>
</a>
</g>
<text text-anchor="start" x="193" y="-83" font-family="FreeSans" font-size="10.00" fill="grey"> &lt; SpaceND&lt; 2, typename</text>
<text text-anchor="middle" x="265" y="-72" font-family="FreeSans" font-size="10.00" fill="grey"> TKSpace::Space::Integer &gt; &gt;</text>
</g>
<!-- Node4 -->
<g id="Node000004" class="node">
<title>Node4</title>
<g id="a_Node000004"><a xlink:href="structDGtal_1_1functors_1_1Projector.html" target="_top" xlink:title=" ">
<polygon fill="white" stroke="#666666" points="542.5,-30 371.5,-30 371.5,0 542.5,0 542.5,-30"/>
<text text-anchor="start" x="379.5" y="-18" font-family="FreeSans" font-size="10.00">DGtal::functors::Projector</text>
<text text-anchor="middle" x="457" y="-7" font-family="FreeSans" font-size="10.00">&lt; SpaceND&lt; 2, Coordinate &gt; &gt;</text>
</a>
</g>
</g>
<!-- Node1&#45;&gt;Node4 -->
<g id="edge3_Node000001_Node000004" class="edge">
<title>Node1&#45;&gt;Node4</title>
<g id="a_edge3_Node000001_Node000004"><a xlink:title=" ">
<path fill="none" stroke="orange" stroke-dasharray="5,2" d="M158.74,-58.01C167.92,-56.66 177.18,-55.29 186,-54 248.09,-44.9 318.24,-34.78 371.47,-27.12"/>
<polygon fill="orange" stroke="orange" points="158.22,-54.55 148.84,-59.48 159.24,-61.48 158.22,-54.55"/>
</a>
</g>
<text text-anchor="middle" x="265" y="-57" font-family="FreeSans" font-size="10.00" fill="grey"> &lt; SpaceND&lt; 2, Coordinate &gt; &gt;</text>
</g>
</g>
</svg>
