<?xml version="1.0" encoding="UTF-8" standalone="no"?>
<!DOCTYPE svg PUBLIC "-//W3C//DTD SVG 1.1//EN"
 "http://www.w3.org/Graphics/SVG/1.1/DTD/svg11.dtd">
<!-- Generated by graphviz version 2.43.0 (0)
 -->
<!-- Title: DGtal::AssociativeCategory Pages: 1 -->
<svg width="757pt" height="353pt"
 viewBox="0.00 0.00 757.00 353.00" xmlns="http://www.w3.org/2000/svg" xmlns:xlink="http://www.w3.org/1999/xlink">
<g id="graph0" class="graph" transform="scale(1 1) rotate(0) translate(4 349)">
<title>DGtal::AssociativeCategory</title>
<!-- Node1 -->
<g id="Node000001" class="node">
<title>Node1</title>
<g id="a_Node000001"><a xlink:title=" ">
<polygon fill="#999999" stroke="#666666" points="329,-183.5 178,-183.5 178,-164.5 329,-164.5 329,-183.5"/>
<text text-anchor="middle" x="253.5" y="-171.5" font-family="FreeSans" font-size="10.00">DGtal::AssociativeCategory</text>
</a>
</g>
</g>
<!-- Node3 -->
<g id="Node000003" class="node">
<title>Node3</title>
<g id="a_Node000003"><a xlink:href="structDGtal_1_1MultipleAssociativeCategory.html" target="_top" xlink:title=" ">
<polygon fill="white" stroke="#666666" points="522.5,-302 376.5,-302 376.5,-272 522.5,-272 522.5,-302"/>
<text text-anchor="start" x="384.5" y="-290" font-family="FreeSans" font-size="10.00">DGtal::MultipleAssociative</text>
<text text-anchor="middle" x="449.5" y="-279" font-family="FreeSans" font-size="10.00">Category</text>
</a>
</g>
</g>
<!-- Node1&#45;&gt;Node3 -->
<g id="edge2_Node000001_Node000003" class="edge">
<title>Node1&#45;&gt;Node3</title>
<g id="a_edge2_Node000001_Node000003"><a xlink:title=" ">
<path fill="none" stroke="#63b8ff" d="M270.81,-190.72C291.14,-210.64 327.75,-243.66 365,-263 371.56,-266.41 378.67,-269.39 385.87,-271.98"/>
<polygon fill="#63b8ff" stroke="#63b8ff" points="273.17,-188.12 263.62,-183.54 268.22,-193.08 273.17,-188.12"/>
</a>
</g>
</g>
<!-- Node8 -->
<g id="Node000008" class="node">
<title>Node8</title>
<g id="a_Node000008"><a xlink:href="structDGtal_1_1OrderedAssociativeCategory.html" target="_top" xlink:title=" ">
<polygon fill="white" stroke="#666666" points="522.5,-254 376.5,-254 376.5,-224 522.5,-224 522.5,-254"/>
<text text-anchor="start" x="384.5" y="-242" font-family="FreeSans" font-size="10.00">DGtal::OrderedAssociative</text>
<text text-anchor="middle" x="449.5" y="-231" font-family="FreeSans" font-size="10.00">Category</text>
</a>
</g>
</g>
<!-- Node1&#45;&gt;Node8 -->
<g id="edge7_Node000001_Node000008" class="edge">
<title>Node1&#45;&gt;Node8</title>
<g id="a_edge7_Node000001_Node000008"><a xlink:title=" ">
<path fill="none" stroke="#63b8ff" d="M289.25,-187.15C310.93,-195.21 339.46,-205.56 365,-214 375.2,-217.37 386.17,-220.79 396.69,-223.98"/>
<polygon fill="#63b8ff" stroke="#63b8ff" points="290.41,-183.84 279.81,-183.62 287.96,-190.4 290.41,-183.84"/>
</a>
</g>
</g>
<!-- Node11 -->
<g id="Node000011" class="node">
<title>Node11</title>
<g id="a_Node000011"><a xlink:href="structDGtal_1_1PairAssociativeCategory.html" target="_top" xlink:title=" ">
<polygon fill="white" stroke="#666666" points="534,-205.5 365,-205.5 365,-186.5 534,-186.5 534,-205.5"/>
<text text-anchor="middle" x="449.5" y="-193.5" font-family="FreeSans" font-size="10.00">DGtal::PairAssociativeCategory</text>
</a>
</g>
</g>
<!-- Node1&#45;&gt;Node11 -->
<g id="edge12_Node000001_Node000011" class="edge">
<title>Node1&#45;&gt;Node11</title>
<g id="a_edge12_Node000001_Node000011"><a xlink:title=" ">
<path fill="none" stroke="#63b8ff" d="M339.41,-183.63C347.83,-184.58 356.37,-185.55 364.77,-186.5"/>
<polygon fill="#63b8ff" stroke="#63b8ff" points="339.56,-180.12 329.23,-182.47 338.77,-187.08 339.56,-180.12"/>
</a>
</g>
</g>
<!-- Node13 -->
<g id="Node000013" class="node">
<title>Node13</title>
<g id="a_Node000013"><a xlink:href="structDGtal_1_1SimpleAssociativeCategory.html" target="_top" xlink:title=" ">
<polygon fill="white" stroke="#666666" points="519.5,-168 379.5,-168 379.5,-138 519.5,-138 519.5,-168"/>
<text text-anchor="start" x="387.5" y="-156" font-family="FreeSans" font-size="10.00">DGtal::SimpleAssociative</text>
<text text-anchor="middle" x="449.5" y="-145" font-family="FreeSans" font-size="10.00">Category</text>
</a>
</g>
</g>
<!-- Node1&#45;&gt;Node13 -->
<g id="edge17_Node000001_Node000013" class="edge">
<title>Node1&#45;&gt;Node13</title>
<g id="a_edge17_Node000001_Node000013"><a xlink:title=" ">
<path fill="none" stroke="#63b8ff" d="M339.34,-164.82C352.66,-163.37 366.3,-161.9 379.22,-160.5"/>
<polygon fill="#63b8ff" stroke="#63b8ff" points="338.79,-161.35 329.23,-165.91 339.55,-168.31 338.79,-161.35"/>
</a>
</g>
</g>
<!-- Node15 -->
<g id="Node000015" class="node">
<title>Node15</title>
<g id="a_Node000015"><a xlink:href="structDGtal_1_1UniqueAssociativeCategory.html" target="_top" xlink:title=" ">
<polygon fill="white" stroke="#666666" points="520,-72 379,-72 379,-42 520,-42 520,-72"/>
<text text-anchor="start" x="387" y="-60" font-family="FreeSans" font-size="10.00">DGtal::UniqueAssociative</text>
<text text-anchor="middle" x="449.5" y="-49" font-family="FreeSans" font-size="10.00">Category</text>
</a>
</g>
</g>
<!-- Node1&#45;&gt;Node15 -->
<g id="edge22_Node000001_Node000015" class="edge">
<title>Node1&#45;&gt;Node15</title>
<g id="a_edge22_Node000001_Node000015"><a xlink:title=" ">
<path fill="none" stroke="#63b8ff" d="M270.35,-156.82C290.46,-136 327.1,-101.2 365,-81 371.39,-77.59 378.32,-74.62 385.36,-72.04"/>
<polygon fill="#63b8ff" stroke="#63b8ff" points="267.59,-154.64 263.25,-164.3 272.67,-159.46 267.59,-154.64"/>
</a>
</g>
</g>
<!-- Node16 -->
<g id="Node000016" class="node">
<title>Node16</title>
<g id="a_Node000016"><a xlink:href="structDGtal_1_1UnorderedAssociativeCategory.html" target="_top" xlink:title=" ">
<polygon fill="white" stroke="#666666" points="528.5,-120 370.5,-120 370.5,-90 528.5,-90 528.5,-120"/>
<text text-anchor="start" x="378.5" y="-108" font-family="FreeSans" font-size="10.00">DGtal::UnorderedAssociative</text>
<text text-anchor="middle" x="449.5" y="-97" font-family="FreeSans" font-size="10.00">Category</text>
</a>
</g>
</g>
<!-- Node1&#45;&gt;Node16 -->
<g id="edge27_Node000001_Node000016" class="edge">
<title>Node1&#45;&gt;Node16</title>
<g id="a_edge27_Node000001_Node000016"><a xlink:title=" ">
<path fill="none" stroke="#63b8ff" d="M285.71,-160.25C307.66,-150.83 337.84,-138.4 365,-129 373.98,-125.89 383.6,-122.86 392.99,-120.05"/>
<polygon fill="#63b8ff" stroke="#63b8ff" points="284.04,-157.16 276.25,-164.34 286.82,-163.58 284.04,-157.16"/>
</a>
</g>
</g>
<!-- Node2 -->
<g id="Node000002" class="node">
<title>Node2</title>
<g id="a_Node000002"><a xlink:href="structDGtal_1_1ContainerCategory.html" target="_top" xlink:title=" ">
<polygon fill="white" stroke="#666666" points="142,-183.5 0,-183.5 0,-164.5 142,-164.5 142,-183.5"/>
<text text-anchor="middle" x="71" y="-171.5" font-family="FreeSans" font-size="10.00">DGtal::ContainerCategory</text>
</a>
</g>
</g>
<!-- Node2&#45;&gt;Node1 -->
<g id="edge1_Node000001_Node000002" class="edge">
<title>Node2&#45;&gt;Node1</title>
<g id="a_edge1_Node000001_Node000002"><a xlink:title=" ">
<path fill="none" stroke="#63b8ff" d="M152.28,-174C160.74,-174 169.32,-174 177.71,-174"/>
<polygon fill="#63b8ff" stroke="#63b8ff" points="152.04,-170.5 142.04,-174 152.04,-177.5 152.04,-170.5"/>
</a>
</g>
</g>
<!-- Node4 -->
<g id="Node000004" class="node">
<title>Node4</title>
<g id="a_Node000004"><a xlink:href="structDGtal_1_1MultimapAssociativeCategory.html" target="_top" xlink:title=" ">
<polygon fill="white" stroke="#666666" points="736,-345 583,-345 583,-315 736,-315 736,-345"/>
<text text-anchor="start" x="591" y="-333" font-family="FreeSans" font-size="10.00">DGtal::MultimapAssociative</text>
<text text-anchor="middle" x="659.5" y="-322" font-family="FreeSans" font-size="10.00">Category</text>
</a>
</g>
</g>
<!-- Node3&#45;&gt;Node4 -->
<g id="edge3_Node000003_Node000004" class="edge">
<title>Node3&#45;&gt;Node4</title>
<g id="a_edge3_Node000003_Node000004"><a xlink:title=" ">
<path fill="none" stroke="#63b8ff" d="M532.84,-304.02C550.33,-307.64 568.66,-311.43 585.76,-314.96"/>
<polygon fill="#63b8ff" stroke="#63b8ff" points="533.17,-300.52 522.66,-301.92 531.75,-307.37 533.17,-300.52"/>
</a>
</g>
</g>
<!-- Node5 -->
<g id="Node000005" class="node">
<title>Node5</title>
<g id="a_Node000005"><a xlink:href="structDGtal_1_1MultisetAssociativeCategory.html" target="_top" xlink:title=" ">
<polygon fill="white" stroke="#666666" points="732.5,-297 586.5,-297 586.5,-267 732.5,-267 732.5,-297"/>
<text text-anchor="start" x="594.5" y="-285" font-family="FreeSans" font-size="10.00">DGtal::MultisetAssociative</text>
<text text-anchor="middle" x="659.5" y="-274" font-family="FreeSans" font-size="10.00">Category</text>
</a>
</g>
</g>
<!-- Node3&#45;&gt;Node5 -->
<g id="edge4_Node000003_Node000005" class="edge">
<title>Node3&#45;&gt;Node5</title>
<g id="a_edge4_Node000003_Node000005"><a xlink:title=" ">
<path fill="none" stroke="#63b8ff" d="M532.96,-285.02C550.65,-284.59 569.21,-284.15 586.46,-283.73"/>
<polygon fill="#63b8ff" stroke="#63b8ff" points="532.58,-281.53 522.66,-285.27 532.75,-288.52 532.58,-281.53"/>
</a>
</g>
</g>
<!-- Node6 -->
<g id="Node000006" class="node">
<title>Node6</title>
<g id="a_Node000006"><a xlink:href="structDGtal_1_1UnorderedMultimapAssociativeCategory.html" target="_top" xlink:title=" ">
<polygon fill="white" stroke="#666666" points="733.5,-249 585.5,-249 585.5,-219 733.5,-219 733.5,-249"/>
<text text-anchor="start" x="593.5" y="-237" font-family="FreeSans" font-size="10.00">DGtal::UnorderedMultimap</text>
<text text-anchor="middle" x="659.5" y="-226" font-family="FreeSans" font-size="10.00">AssociativeCategory</text>
</a>
</g>
</g>
<!-- Node3&#45;&gt;Node6 -->
<g id="edge5_Node000003_Node000006" class="edge">
<title>Node3&#45;&gt;Node6</title>
<g id="a_edge5_Node000003_Node000006"><a xlink:title=" ">
<path fill="none" stroke="#63b8ff" d="M519.29,-269.47C545.18,-262.87 574.37,-255.44 599.3,-249.08"/>
<polygon fill="#63b8ff" stroke="#63b8ff" points="518.37,-266.09 509.55,-271.95 520.1,-272.88 518.37,-266.09"/>
</a>
</g>
</g>
<!-- Node7 -->
<g id="Node000007" class="node">
<title>Node7</title>
<g id="a_Node000007"><a xlink:href="structDGtal_1_1UnorderedMultisetAssociativeCategory.html" target="_top" xlink:title=" ">
<polygon fill="white" stroke="#666666" points="730,-201 589,-201 589,-171 730,-171 730,-201"/>
<text text-anchor="start" x="597" y="-189" font-family="FreeSans" font-size="10.00">DGtal::UnorderedMultiset</text>
<text text-anchor="middle" x="659.5" y="-178" font-family="FreeSans" font-size="10.00">AssociativeCategory</text>
</a>
</g>
</g>
<!-- Node3&#45;&gt;Node7 -->
<g id="edge6_Node000003_Node000007" class="edge">
<title>Node3&#45;&gt;Node7</title>
<g id="a_edge6_Node000003_Node000007"><a xlink:title=" ">
<path fill="none" stroke="#63b8ff" d="M527.49,-267.25C529.74,-265.93 531.92,-264.51 534,-263 557.06,-246.29 546.82,-226.53 570,-210 575.7,-205.93 582.06,-202.56 588.68,-199.75"/>
<polygon fill="#63b8ff" stroke="#63b8ff" points="525.75,-264.21 518.51,-271.94 528.99,-270.42 525.75,-264.21"/>
</a>
</g>
</g>
<!-- Node8&#45;&gt;Node4 -->
<g id="edge9_Node000008_Node000004" class="edge">
<title>Node8&#45;&gt;Node4</title>
<g id="a_edge9_Node000008_Node000004"><a xlink:title=" ">
<path fill="none" stroke="#63b8ff" d="M525.96,-258.32C528.74,-259.77 531.43,-261.33 534,-263 554.89,-276.59 549.01,-292.56 570,-306 575.36,-309.43 581.21,-312.38 587.26,-314.91"/>
<polygon fill="#63b8ff" stroke="#63b8ff" points="527.4,-255.12 516.86,-254.03 524.42,-261.46 527.4,-255.12"/>
</a>
</g>
</g>
<!-- Node8&#45;&gt;Node5 -->
<g id="edge10_Node000008_Node000005" class="edge">
<title>Node8&#45;&gt;Node5</title>
<g id="a_edge10_Node000008_Node000005"><a xlink:title=" ">
<path fill="none" stroke="#63b8ff" d="M532.47,-255.94C550.3,-259.63 569.05,-263.51 586.46,-267.11"/>
<polygon fill="#63b8ff" stroke="#63b8ff" points="533.17,-252.52 522.66,-253.92 531.75,-259.37 533.17,-252.52"/>
</a>
</g>
</g>
<!-- Node9 -->
<g id="Node000009" class="node">
<title>Node9</title>
<g id="a_Node000009"><a xlink:href="structDGtal_1_1MapAssociativeCategory.html" target="_top" xlink:title=" ">
<polygon fill="white" stroke="#666666" points="745.5,-152.5 573.5,-152.5 573.5,-133.5 745.5,-133.5 745.5,-152.5"/>
<text text-anchor="middle" x="659.5" y="-140.5" font-family="FreeSans" font-size="10.00">DGtal::MapAssociativeCategory</text>
</a>
</g>
</g>
<!-- Node8&#45;&gt;Node9 -->
<g id="edge8_Node000008_Node000009" class="edge">
<title>Node8&#45;&gt;Node9</title>
<g id="a_edge8_Node000008_Node000009"><a xlink:title=" ">
<path fill="none" stroke="#63b8ff" d="M525.98,-219.16C528.76,-217.57 531.45,-215.85 534,-214 556.74,-197.48 546.62,-177.6 570,-162 575.75,-158.16 582.14,-155.08 588.78,-152.61"/>
<polygon fill="#63b8ff" stroke="#63b8ff" points="524.12,-216.17 516.79,-223.82 527.29,-222.42 524.12,-216.17"/>
</a>
</g>
</g>
<!-- Node10 -->
<g id="Node000010" class="node">
<title>Node10</title>
<g id="a_Node000010"><a xlink:href="structDGtal_1_1SetAssociativeCategory.html" target="_top" xlink:title=" ">
<polygon fill="white" stroke="#666666" points="743,-115.5 576,-115.5 576,-96.5 743,-96.5 743,-115.5"/>
<text text-anchor="middle" x="659.5" y="-103.5" font-family="FreeSans" font-size="10.00">DGtal::SetAssociativeCategory</text>
</a>
</g>
</g>
<!-- Node8&#45;&gt;Node10 -->
<g id="edge11_Node000008_Node000010" class="edge">
<title>Node8&#45;&gt;Node10</title>
<g id="a_edge11_Node000008_Node000010"><a xlink:title=" ">
<path fill="none" stroke="#63b8ff" d="M528.56,-218.44C530.46,-217.05 532.28,-215.58 534,-214 565.8,-184.93 536.92,-151.6 570,-124 573.97,-120.68 578.39,-117.93 583.08,-115.63"/>
<polygon fill="#63b8ff" stroke="#63b8ff" points="526.41,-215.65 519.79,-223.93 530.13,-221.59 526.41,-215.65"/>
</a>
</g>
</g>
<!-- Node11&#45;&gt;Node4 -->
<g id="edge14_Node000011_Node000004" class="edge">
<title>Node11&#45;&gt;Node4</title>
<g id="a_edge14_Node000011_Node000004"><a xlink:title=" ">
<path fill="none" stroke="#63b8ff" d="M528.36,-210.74C530.33,-212.05 532.21,-213.47 534,-215 567.02,-243.32 537.57,-277.01 570,-306 573.92,-309.5 578.29,-312.5 582.95,-315.06"/>
<polygon fill="#63b8ff" stroke="#63b8ff" points="529.73,-207.5 519.29,-205.67 526.31,-213.61 529.73,-207.5"/>
</a>
</g>
</g>
<!-- Node11&#45;&gt;Node6 -->
<g id="edge16_Node000011_Node000006" class="edge">
<title>Node11&#45;&gt;Node6</title>
<g id="a_edge16_Node000011_Node000006"><a xlink:title=" ">
<path fill="none" stroke="#63b8ff" d="M512.65,-207.35C535.54,-211.54 561.67,-216.31 585.43,-220.65"/>
<polygon fill="#63b8ff" stroke="#63b8ff" points="513.18,-203.89 502.72,-205.54 511.93,-210.78 513.18,-203.89"/>
</a>
</g>
</g>
<!-- Node11&#45;&gt;Node9 -->
<g id="edge13_Node000011_Node000009" class="edge">
<title>Node11&#45;&gt;Node9</title>
<g id="a_edge13_Node000011_Node000009"><a xlink:title=" ">
<path fill="none" stroke="#63b8ff" d="M508.89,-184.06C517.38,-181.93 525.96,-179.57 534,-177 550.51,-171.72 553.46,-167.17 570,-162 581.55,-158.39 594.16,-155.23 606.14,-152.58"/>
<polygon fill="#63b8ff" stroke="#63b8ff" points="507.91,-180.69 499.01,-186.44 509.55,-187.5 507.91,-180.69"/>
</a>
</g>
</g>
<!-- Node12 -->
<g id="Node000012" class="node">
<title>Node12</title>
<g id="a_Node000012"><a xlink:href="structDGtal_1_1UnorderedMapAssociativeCategory.html" target="_top" xlink:title=" ">
<polygon fill="white" stroke="#666666" points="749,-78 570,-78 570,-48 749,-48 749,-78"/>
<text text-anchor="start" x="578" y="-66" font-family="FreeSans" font-size="10.00">DGtal::UnorderedMapAssociative</text>
<text text-anchor="middle" x="659.5" y="-55" font-family="FreeSans" font-size="10.00">Category</text>
</a>
</g>
</g>
<!-- Node11&#45;&gt;Node12 -->
<g id="edge15_Node000011_Node000012" class="edge">
<title>Node11&#45;&gt;Node12</title>
<g id="a_edge15_Node000011_Node000012"><a xlink:title=" ">
<path fill="none" stroke="#63b8ff" d="M527.73,-181.65C529.92,-180.24 532.02,-178.69 534,-177 566.75,-149.02 537.83,-115.65 570,-87 573.8,-83.61 578.04,-80.7 582.54,-78.19"/>
<polygon fill="#63b8ff" stroke="#63b8ff" points="525.96,-178.63 518.86,-186.5 529.32,-184.78 525.96,-178.63"/>
</a>
</g>
</g>
<!-- Node13&#45;&gt;Node5 -->
<g id="edge18_Node000013_Node000005" class="edge">
<title>Node13&#45;&gt;Node5</title>
<g id="a_edge18_Node000013_Node000005"><a xlink:title=" ">
<path fill="none" stroke="#63b8ff" d="M528.47,-172.7C530.4,-174.04 532.24,-175.47 534,-177 563.72,-202.86 540.09,-232.36 570,-258 574.83,-262.14 580.32,-265.58 586.13,-268.43"/>
<polygon fill="#63b8ff" stroke="#63b8ff" points="530,-169.53 519.62,-167.38 526.39,-175.53 530,-169.53"/>
</a>
</g>
</g>
<!-- Node13&#45;&gt;Node7 -->
<g id="edge20_Node000013_Node000007" class="edge">
<title>Node13&#45;&gt;Node7</title>
<g id="a_edge20_Node000013_Node000007"><a xlink:title=" ">
<path fill="none" stroke="#63b8ff" d="M529.8,-165.58C549.23,-168.66 569.89,-171.94 588.83,-174.95"/>
<polygon fill="#63b8ff" stroke="#63b8ff" points="530.19,-162.1 519.76,-163.99 529.09,-169.01 530.19,-162.1"/>
</a>
</g>
</g>
<!-- Node13&#45;&gt;Node10 -->
<g id="edge19_Node000013_Node000010" class="edge">
<title>Node13&#45;&gt;Node10</title>
<g id="a_edge19_Node000013_Node000010"><a xlink:title=" ">
<path fill="none" stroke="#63b8ff" d="M520.53,-135.54C536.74,-131.63 553.95,-127.58 570,-124 582.85,-121.13 596.8,-118.21 609.74,-115.58"/>
<polygon fill="#63b8ff" stroke="#63b8ff" points="519.47,-132.2 510.58,-137.96 521.12,-139 519.47,-132.2"/>
</a>
</g>
</g>
<!-- Node14 -->
<g id="Node000014" class="node">
<title>Node14</title>
<g id="a_Node000014"><a xlink:href="structDGtal_1_1UnorderedSetAssociativeCategory.html" target="_top" xlink:title=" ">
<polygon fill="white" stroke="#666666" points="746,-30 573,-30 573,0 746,0 746,-30"/>
<text text-anchor="start" x="581" y="-18" font-family="FreeSans" font-size="10.00">DGtal::UnorderedSetAssociative</text>
<text text-anchor="middle" x="659.5" y="-7" font-family="FreeSans" font-size="10.00">Category</text>
</a>
</g>
</g>
<!-- Node13&#45;&gt;Node14 -->
<g id="edge21_Node000013_Node000014" class="edge">
<title>Node13&#45;&gt;Node14</title>
<g id="a_edge21_Node000013_Node000014"><a xlink:title=" ">
<path fill="none" stroke="#63b8ff" d="M528.55,-133.39C530.45,-132.02 532.27,-130.56 534,-129 565.96,-100.11 537.83,-67.65 570,-39 573.8,-35.61 578.04,-32.7 582.54,-30.19"/>
<polygon fill="#63b8ff" stroke="#63b8ff" points="526.46,-130.57 519.78,-138.79 530.13,-136.53 526.46,-130.57"/>
</a>
</g>
</g>
<!-- Node15&#45;&gt;Node9 -->
<g id="edge23_Node000015_Node000009" class="edge">
<title>Node15&#45;&gt;Node9</title>
<g id="a_edge23_Node000015_Node000009"><a xlink:title=" ">
<path fill="none" stroke="#63b8ff" d="M525.96,-76.32C528.74,-77.77 531.43,-79.33 534,-81 554.89,-94.59 548.66,-111.13 570,-124 576.46,-127.9 583.61,-131 590.96,-133.47"/>
<polygon fill="#63b8ff" stroke="#63b8ff" points="527.4,-73.12 516.86,-72.03 524.42,-79.46 527.4,-73.12"/>
</a>
</g>
</g>
<!-- Node15&#45;&gt;Node10 -->
<g id="edge24_Node000015_Node000010" class="edge">
<title>Node15&#45;&gt;Node10</title>
<g id="a_edge24_Node000015_Node000010"><a xlink:title=" ">
<path fill="none" stroke="#63b8ff" d="M518.49,-74.5C535.3,-78.71 553.28,-83.11 570,-87 583.77,-90.21 598.8,-93.51 612.5,-96.44"/>
<polygon fill="#63b8ff" stroke="#63b8ff" points="519.3,-71.1 508.75,-72.05 517.6,-77.88 519.3,-71.1"/>
</a>
</g>
</g>
<!-- Node15&#45;&gt;Node12 -->
<g id="edge25_Node000015_Node000012" class="edge">
<title>Node15&#45;&gt;Node12</title>
<g id="a_edge25_Node000015_Node000012"><a xlink:title=" ">
<path fill="none" stroke="#63b8ff" d="M530.29,-59.3C543.21,-59.67 556.66,-60.06 569.78,-60.44"/>
<polygon fill="#63b8ff" stroke="#63b8ff" points="530.15,-55.8 520.05,-59.01 529.95,-62.79 530.15,-55.8"/>
</a>
</g>
</g>
<!-- Node15&#45;&gt;Node14 -->
<g id="edge26_Node000015_Node000014" class="edge">
<title>Node15&#45;&gt;Node14</title>
<g id="a_edge26_Node000015_Node000014"><a xlink:title=" ">
<path fill="none" stroke="#63b8ff" d="M530.31,-40.88C547.96,-37.32 566.59,-33.56 584.02,-30.04"/>
<polygon fill="#63b8ff" stroke="#63b8ff" points="529.16,-37.55 520.05,-42.96 530.55,-44.41 529.16,-37.55"/>
</a>
</g>
</g>
<!-- Node16&#45;&gt;Node6 -->
<g id="edge29_Node000016_Node000006" class="edge">
<title>Node16&#45;&gt;Node6</title>
<g id="a_edge29_Node000016_Node000006"><a xlink:title=" ">
<path fill="none" stroke="#63b8ff" d="M529.73,-125.6C531.21,-126.68 532.63,-127.81 534,-129 563.72,-154.86 540.09,-184.36 570,-210 574.59,-213.94 579.77,-217.23 585.26,-219.99"/>
<polygon fill="#63b8ff" stroke="#63b8ff" points="531.17,-122.37 520.84,-120.03 527.46,-128.3 531.17,-122.37"/>
</a>
</g>
</g>
<!-- Node16&#45;&gt;Node7 -->
<g id="edge30_Node000016_Node000007" class="edge">
<title>Node16&#45;&gt;Node7</title>
<g id="a_edge30_Node000016_Node000007"><a xlink:title=" ">
<path fill="none" stroke="#63b8ff" d="M523.71,-123.92C527.25,-125.49 530.7,-127.18 534,-129 552.75,-139.32 551.22,-150.72 570,-161 577,-164.83 584.64,-168.12 592.41,-170.94"/>
<polygon fill="#63b8ff" stroke="#63b8ff" points="524.75,-120.57 514.17,-120.03 522.11,-127.05 524.75,-120.57"/>
</a>
</g>
</g>
<!-- Node16&#45;&gt;Node12 -->
<g id="edge28_Node000016_Node000012" class="edge">
<title>Node16&#45;&gt;Node12</title>
<g id="a_edge28_Node000016_Node000012"><a xlink:title=" ">
<path fill="none" stroke="#63b8ff" d="M535.04,-87.93C551.31,-84.64 568.24,-81.22 584.17,-78.01"/>
<polygon fill="#63b8ff" stroke="#63b8ff" points="534.11,-84.55 525.01,-89.96 535.5,-91.41 534.11,-84.55"/>
</a>
</g>
</g>
<!-- Node16&#45;&gt;Node14 -->
<g id="edge31_Node000016_Node000014" class="edge">
<title>Node16&#45;&gt;Node14</title>
<g id="a_edge31_Node000016_Node000014"><a xlink:title=" ">
<path fill="none" stroke="#63b8ff" d="M525.94,-85.65C528.72,-84.21 531.42,-82.66 534,-81 554.68,-67.71 549.22,-52.13 570,-39 575.38,-35.6 581.24,-32.67 587.3,-30.16"/>
<polygon fill="#63b8ff" stroke="#63b8ff" points="524.4,-82.5 516.82,-89.9 527.36,-88.84 524.4,-82.5"/>
</a>
</g>
</g>
</g>
</svg>
