<?xml version="1.0" encoding="UTF-8" standalone="no"?>
<!DOCTYPE svg PUBLIC "-//W3C//DTD SVG 1.1//EN"
 "http://www.w3.org/Graphics/SVG/1.1/DTD/svg11.dtd">
<!-- Generated by graphviz version 2.43.0 (0)
 -->
<!-- Title: DGtal::OrderedAssociativeCategory Pages: 1 -->
<svg width="727pt" height="161pt"
 viewBox="0.00 0.00 727.00 161.00" xmlns="http://www.w3.org/2000/svg" xmlns:xlink="http://www.w3.org/1999/xlink">
<g id="graph0" class="graph" transform="scale(1 1) rotate(0) translate(4 157)">
<title>DGtal::OrderedAssociativeCategory</title>
<!-- Node1 -->
<g id="Node000001" class="node">
<title>Node1</title>
<g id="a_Node000001"><a xlink:title=" ">
<polygon fill="#999999" stroke="#666666" points="511,-91.5 365,-91.5 365,-61.5 511,-61.5 511,-91.5"/>
<text text-anchor="start" x="373" y="-79.5" font-family="FreeSans" font-size="10.00">DGtal::OrderedAssociative</text>
<text text-anchor="middle" x="438" y="-68.5" font-family="FreeSans" font-size="10.00">Category</text>
</a>
</g>
</g>
<!-- Node4 -->
<g id="Node000004" class="node">
<title>Node4</title>
<g id="a_Node000004"><a xlink:href="structDGtal_1_1MapAssociativeCategory.html" target="_top" xlink:title=" ">
<polygon fill="white" stroke="#666666" points="719,-153 547,-153 547,-134 719,-134 719,-153"/>
<text text-anchor="middle" x="633" y="-141" font-family="FreeSans" font-size="10.00">DGtal::MapAssociativeCategory</text>
</a>
</g>
</g>
<!-- Node1&#45;&gt;Node4 -->
<g id="edge3_Node000001_Node000004" class="edge">
<title>Node1&#45;&gt;Node4</title>
<g id="a_edge3_Node000001_Node000004"><a xlink:title=" ">
<path fill="none" stroke="#63b8ff" d="M477.83,-96C498.07,-105.59 523.45,-116.72 547,-124.5 558.06,-128.15 570.15,-131.33 581.66,-133.98"/>
<polygon fill="#63b8ff" stroke="#63b8ff" points="479.16,-92.76 468.63,-91.58 476.13,-99.07 479.16,-92.76"/>
</a>
</g>
</g>
<!-- Node5 -->
<g id="Node000005" class="node">
<title>Node5</title>
<g id="a_Node000005"><a xlink:href="structDGtal_1_1MultimapAssociativeCategory.html" target="_top" xlink:title=" ">
<polygon fill="white" stroke="#666666" points="709.5,-115.5 556.5,-115.5 556.5,-85.5 709.5,-85.5 709.5,-115.5"/>
<text text-anchor="start" x="564.5" y="-103.5" font-family="FreeSans" font-size="10.00">DGtal::MultimapAssociative</text>
<text text-anchor="middle" x="633" y="-92.5" font-family="FreeSans" font-size="10.00">Category</text>
</a>
</g>
</g>
<!-- Node1&#45;&gt;Node5 -->
<g id="edge4_Node000001_Node000005" class="edge">
<title>Node1&#45;&gt;Node5</title>
<g id="a_edge4_Node000001_Node000005"><a xlink:title=" ">
<path fill="none" stroke="#63b8ff" d="M521.29,-86.73C532.94,-88.18 544.88,-89.67 556.4,-91.1"/>
<polygon fill="#63b8ff" stroke="#63b8ff" points="521.5,-83.23 511.14,-85.47 520.63,-90.18 521.5,-83.23"/>
</a>
</g>
</g>
<!-- Node6 -->
<g id="Node000006" class="node">
<title>Node6</title>
<g id="a_Node000006"><a xlink:href="structDGtal_1_1MultisetAssociativeCategory.html" target="_top" xlink:title=" ">
<polygon fill="white" stroke="#666666" points="706,-67.5 560,-67.5 560,-37.5 706,-37.5 706,-67.5"/>
<text text-anchor="start" x="568" y="-55.5" font-family="FreeSans" font-size="10.00">DGtal::MultisetAssociative</text>
<text text-anchor="middle" x="633" y="-44.5" font-family="FreeSans" font-size="10.00">Category</text>
</a>
</g>
</g>
<!-- Node1&#45;&gt;Node6 -->
<g id="edge5_Node000001_Node000006" class="edge">
<title>Node1&#45;&gt;Node6</title>
<g id="a_edge5_Node000001_Node000006"><a xlink:title=" ">
<path fill="none" stroke="#63b8ff" d="M521.34,-66.26C534.18,-64.66 547.36,-63.02 559.95,-61.46"/>
<polygon fill="#63b8ff" stroke="#63b8ff" points="520.63,-62.82 511.14,-67.53 521.5,-69.77 520.63,-62.82"/>
</a>
</g>
</g>
<!-- Node7 -->
<g id="Node000007" class="node">
<title>Node7</title>
<g id="a_Node000007"><a xlink:href="structDGtal_1_1SetAssociativeCategory.html" target="_top" xlink:title=" ">
<polygon fill="white" stroke="#666666" points="716.5,-19 549.5,-19 549.5,0 716.5,0 716.5,-19"/>
<text text-anchor="middle" x="633" y="-7" font-family="FreeSans" font-size="10.00">DGtal::SetAssociativeCategory</text>
</a>
</g>
</g>
<!-- Node1&#45;&gt;Node7 -->
<g id="edge6_Node000001_Node000007" class="edge">
<title>Node1&#45;&gt;Node7</title>
<g id="a_edge6_Node000001_Node000007"><a xlink:title=" ">
<path fill="none" stroke="#63b8ff" d="M477.83,-57C498.07,-47.41 523.45,-36.28 547,-28.5 558.06,-24.85 570.15,-21.67 581.66,-19.02"/>
<polygon fill="#63b8ff" stroke="#63b8ff" points="476.13,-53.93 468.63,-61.42 479.16,-60.24 476.13,-53.93"/>
</a>
</g>
</g>
<!-- Node2 -->
<g id="Node000002" class="node">
<title>Node2</title>
<g id="a_Node000002"><a xlink:href="structDGtal_1_1AssociativeCategory.html" target="_top" xlink:title=" ">
<polygon fill="white" stroke="#666666" points="329,-86 178,-86 178,-67 329,-67 329,-86"/>
<text text-anchor="middle" x="253.5" y="-74" font-family="FreeSans" font-size="10.00">DGtal::AssociativeCategory</text>
</a>
</g>
</g>
<!-- Node2&#45;&gt;Node1 -->
<g id="edge1_Node000001_Node000002" class="edge">
<title>Node2&#45;&gt;Node1</title>
<g id="a_edge1_Node000001_Node000002"><a xlink:title=" ">
<path fill="none" stroke="#63b8ff" d="M339.49,-76.5C347.92,-76.5 356.43,-76.5 364.72,-76.5"/>
<polygon fill="#63b8ff" stroke="#63b8ff" points="339.26,-73 329.26,-76.5 339.26,-80 339.26,-73"/>
</a>
</g>
</g>
<!-- Node3 -->
<g id="Node000003" class="node">
<title>Node3</title>
<g id="a_Node000003"><a xlink:href="structDGtal_1_1ContainerCategory.html" target="_top" xlink:title=" ">
<polygon fill="white" stroke="#666666" points="142,-86 0,-86 0,-67 142,-67 142,-86"/>
<text text-anchor="middle" x="71" y="-74" font-family="FreeSans" font-size="10.00">DGtal::ContainerCategory</text>
</a>
</g>
</g>
<!-- Node3&#45;&gt;Node2 -->
<g id="edge2_Node000002_Node000003" class="edge">
<title>Node3&#45;&gt;Node2</title>
<g id="a_edge2_Node000002_Node000003"><a xlink:title=" ">
<path fill="none" stroke="#63b8ff" d="M152.28,-76.5C160.74,-76.5 169.32,-76.5 177.71,-76.5"/>
<polygon fill="#63b8ff" stroke="#63b8ff" points="152.04,-73 142.04,-76.5 152.04,-80 152.04,-73"/>
</a>
</g>
</g>
</g>
</svg>
