<?xml version="1.0" encoding="UTF-8" standalone="no"?>
<!DOCTYPE svg PUBLIC "-//W3C//DTD SVG 1.1//EN"
 "http://www.w3.org/Graphics/SVG/1.1/DTD/svg11.dtd">
<!-- Generated by graphviz version 2.43.0 (0)
 -->
<!-- Title: LibBoard::Polyline Pages: 1 -->
<svg width="435pt" height="203pt"
 viewBox="0.00 0.00 435.00 203.00" xmlns="http://www.w3.org/2000/svg" xmlns:xlink="http://www.w3.org/1999/xlink">
<g id="graph0" class="graph" transform="scale(1 1) rotate(0) translate(4 199)">
<title>LibBoard::Polyline</title>
<!-- Node1 -->
<g id="Node000001" class="node">
<title>Node1</title>
<g id="a_Node000001"><a xlink:title="A polygonal line described by a series of 2D points.">
<polygon fill="#999999" stroke="#666666" points="272.5,-140 168.5,-140 168.5,-121 272.5,-121 272.5,-140"/>
<text text-anchor="middle" x="220.5" y="-128" font-family="FreeSans" font-size="10.00">LibBoard::Polyline</text>
</a>
</g>
</g>
<!-- Node3 -->
<g id="Node000003" class="node">
<title>Node3</title>
<g id="a_Node000003"><a xlink:href="structLibBoard_1_1GouraudTriangle.html" target="_top" xlink:title="A triangle with shaded filling according to colors given for each vertex.">
<polygon fill="white" stroke="#666666" points="145,-85 0,-85 0,-66 145,-66 145,-85"/>
<text text-anchor="middle" x="72.5" y="-73" font-family="FreeSans" font-size="10.00">LibBoard::GouraudTriangle</text>
</a>
</g>
</g>
<!-- Node1&#45;&gt;Node3 -->
<g id="edge2_Node000001_Node000003" class="edge">
<title>Node1&#45;&gt;Node3</title>
<g id="a_edge2_Node000001_Node000003"><a xlink:title=" ">
<path fill="none" stroke="#63b8ff" d="M187.13,-117.55C159.65,-107.71 121.33,-93.98 96.71,-85.17"/>
<polygon fill="#63b8ff" stroke="#63b8ff" points="186.13,-120.91 196.72,-120.98 188.49,-114.32 186.13,-120.91"/>
</a>
</g>
</g>
<!-- Node4 -->
<g id="Node000004" class="node">
<title>Node4</title>
<g id="a_Node000004"><a xlink:href="structLibBoard_1_1Rectangle.html" target="_top" xlink:title="A rectangle.">
<polygon fill="white" stroke="#666666" points="277.5,-85 163.5,-85 163.5,-66 277.5,-66 277.5,-85"/>
<text text-anchor="middle" x="220.5" y="-73" font-family="FreeSans" font-size="10.00">LibBoard::Rectangle</text>
</a>
</g>
</g>
<!-- Node1&#45;&gt;Node4 -->
<g id="edge3_Node000001_Node000004" class="edge">
<title>Node1&#45;&gt;Node4</title>
<g id="a_edge3_Node000001_Node000004"><a xlink:title=" ">
<path fill="none" stroke="#63b8ff" d="M220.5,-110.66C220.5,-101.93 220.5,-91.99 220.5,-85.09"/>
<polygon fill="#63b8ff" stroke="#63b8ff" points="217,-110.75 220.5,-120.75 224,-110.75 217,-110.75"/>
</a>
</g>
</g>
<!-- Node6 -->
<g id="Node000006" class="node">
<title>Node6</title>
<g id="a_Node000006"><a xlink:href="structLibBoard_1_1Triangle.html" target="_top" xlink:title="A triangle. Basically a Polyline with a convenient constructor.">
<polygon fill="white" stroke="#666666" points="404.5,-85 300.5,-85 300.5,-66 404.5,-66 404.5,-85"/>
<text text-anchor="middle" x="352.5" y="-73" font-family="FreeSans" font-size="10.00">LibBoard::Triangle</text>
</a>
</g>
</g>
<!-- Node1&#45;&gt;Node6 -->
<g id="edge5_Node000001_Node000006" class="edge">
<title>Node1&#45;&gt;Node6</title>
<g id="a_edge5_Node000001_Node000006"><a xlink:title=" ">
<path fill="none" stroke="#63b8ff" d="M251.23,-117.16C275.67,-107.35 309.24,-93.87 330.91,-85.17"/>
<polygon fill="#63b8ff" stroke="#63b8ff" points="249.68,-114.01 241.71,-120.98 252.29,-120.51 249.68,-114.01"/>
</a>
</g>
</g>
<!-- Node2 -->
<g id="Node000002" class="node">
<title>Node2</title>
<g id="a_Node000002"><a xlink:href="structLibBoard_1_1Shape.html" target="_top" xlink:title="Abstract structure for a 2D shape.">
<polygon fill="white" stroke="#666666" points="268,-195 173,-195 173,-176 268,-176 268,-195"/>
<text text-anchor="middle" x="220.5" y="-183" font-family="FreeSans" font-size="10.00">LibBoard::Shape</text>
</a>
</g>
</g>
<!-- Node2&#45;&gt;Node1 -->
<g id="edge1_Node000001_Node000002" class="edge">
<title>Node2&#45;&gt;Node1</title>
<g id="a_edge1_Node000001_Node000002"><a xlink:title=" ">
<path fill="none" stroke="#63b8ff" d="M220.5,-165.66C220.5,-156.93 220.5,-146.99 220.5,-140.09"/>
<polygon fill="#63b8ff" stroke="#63b8ff" points="217,-165.75 220.5,-175.75 224,-165.75 217,-165.75"/>
</a>
</g>
</g>
<!-- Node5 -->
<g id="Node000005" class="node">
<title>Node5</title>
<g id="a_Node000005"><a xlink:href="structLibBoard_1_1Image.html" target="_top" xlink:title="Used to draw image in figure.">
<polygon fill="white" stroke="#666666" points="265.5,-24.5 169.5,-24.5 169.5,-5.5 265.5,-5.5 265.5,-24.5"/>
<text text-anchor="middle" x="217.5" y="-12.5" font-family="FreeSans" font-size="10.00">LibBoard::Image</text>
</a>
</g>
</g>
<!-- Node4&#45;&gt;Node5 -->
<g id="edge4_Node000004_Node000005" class="edge">
<title>Node4&#45;&gt;Node5</title>
<g id="a_edge4_Node000004_Node000005"><a xlink:title=" ">
<path fill="none" stroke="#63b8ff" d="M219.53,-55.66C219,-45.24 218.36,-32.8 217.94,-24.67"/>
<polygon fill="#63b8ff" stroke="#63b8ff" points="216.05,-56.06 220.06,-65.87 223.04,-55.7 216.05,-56.06"/>
</a>
</g>
</g>
<!-- Node7 -->
<g id="Node000007" class="node">
<title>Node7</title>
<g id="a_Node000007"><a xlink:href="structLibBoard_1_1QuadraticBezierCurve.html" target="_top" xlink:title="A quadratic Bezier curve having 3 control points. NB. It is also a parabola arc.">
<polygon fill="white" stroke="#666666" points="427,-30 284,-30 284,0 427,0 427,-30"/>
<text text-anchor="start" x="292" y="-18" font-family="FreeSans" font-size="10.00">LibBoard::QuadraticBezier</text>
<text text-anchor="middle" x="355.5" y="-7" font-family="FreeSans" font-size="10.00">Curve</text>
</a>
</g>
</g>
<!-- Node6&#45;&gt;Node7 -->
<g id="edge6_Node000006_Node000007" class="edge">
<title>Node6&#45;&gt;Node7</title>
<g id="a_edge6_Node000006_Node000007"><a xlink:title=" ">
<path fill="none" stroke="#63b8ff" d="M353.47,-55.65C353.89,-47.36 354.38,-37.78 354.78,-30.11"/>
<polygon fill="#63b8ff" stroke="#63b8ff" points="349.96,-55.7 352.94,-65.87 356.95,-56.06 349.96,-55.7"/>
</a>
</g>
</g>
</g>
</svg>
