<?xml version="1.0" encoding="UTF-8" standalone="no"?>
<!DOCTYPE svg PUBLIC "-//W3C//DTD SVG 1.1//EN"
 "http://www.w3.org/Graphics/SVG/1.1/DTD/svg11.dtd">
<!-- Generated by graphviz version 2.43.0 (0)
 -->
<!-- Title: DGtal::concepts::CUndirectedSimpleLocalGraph&lt; T &gt; Pages: 1 -->
<svg width="1136pt" height="123pt"
 viewBox="0.00 0.00 1136.00 122.50" xmlns="http://www.w3.org/2000/svg" xmlns:xlink="http://www.w3.org/1999/xlink">
<g id="graph0" class="graph" transform="scale(1 1) rotate(0) translate(4 118.5)">
<title>DGtal::concepts::CUndirectedSimpleLocalGraph&lt; T &gt;</title>
<polygon fill="white" stroke="transparent" points="-4,4 -4,-118.5 1132,-118.5 1132,4 -4,4"/>
<!-- Node1 -->
<g id="node1" class="node">
<title>Node1</title>
<g id="a_node1"><a xlink:title="Aim: Represents the concept of local graph: each vertex has neighboring vertices, but we do not neces...">
<polygon fill="#bfbfbf" stroke="black" points="0,-49.5 0,-79.5 160,-79.5 160,-49.5 0,-49.5"/>
<text text-anchor="start" x="8" y="-67.5" font-family="FreeSans" font-size="10.00">DGtal::concepts::CUndirected</text>
<text text-anchor="middle" x="80" y="-56.5" font-family="FreeSans" font-size="10.00">SimpleLocalGraph&lt; T &gt;</text>
</a>
</g>
</g>
<!-- Node2 -->
<g id="node2" class="node">
<title>Node2</title>
<g id="a_node2"><a xlink:href="structDGtal_1_1concepts_1_1CAdjacency.html" target="_top" xlink:title=" ">
<polygon fill="white" stroke="black" points="416,-95 416,-114 518,-114 518,-95 416,-95"/>
<text text-anchor="middle" x="467" y="-102" font-family="FreeSans" font-size="10.00">CAdjacency&lt; T &gt;</text>
</a>
</g>
</g>
<!-- Node1&#45;&gt;Node2 -->
<g id="edge1" class="edge">
<title>Node1&#45;&gt;Node2</title>
<path fill="none" stroke="midnightblue" d="M170.3,-80.18C192.37,-83.65 216,-87.03 238,-89.5 298.91,-96.34 369.34,-100.39 415.62,-102.52"/>
<polygon fill="midnightblue" stroke="midnightblue" points="170.7,-76.7 160.27,-78.58 169.6,-83.61 170.7,-76.7"/>
</g>
<!-- Node4 -->
<g id="node4" class="node">
<title>Node4</title>
<g id="a_node4"><a xlink:href="structDGtal_1_1concepts_1_1CUndirectedSimpleGraph.html" target="_top" xlink:title="Aim: Represents the concept of local graph: each vertex has neighboring vertices, but we do not neces...">
<polygon fill="white" stroke="black" points="238,-49.5 238,-79.5 398,-79.5 398,-49.5 238,-49.5"/>
<text text-anchor="start" x="246" y="-67.5" font-family="FreeSans" font-size="10.00">DGtal::concepts::CUndirected</text>
<text text-anchor="middle" x="318" y="-56.5" font-family="FreeSans" font-size="10.00">SimpleGraph&lt; T &gt;</text>
</a>
</g>
</g>
<!-- Node1&#45;&gt;Node4 -->
<g id="edge3" class="edge">
<title>Node1&#45;&gt;Node4</title>
<path fill="none" stroke="midnightblue" d="M170.34,-64.5C192.58,-64.5 216.27,-64.5 237.97,-64.5"/>
<polygon fill="midnightblue" stroke="midnightblue" points="170.24,-61 160.24,-64.5 170.24,-68 170.24,-61"/>
</g>
<!-- Node5 -->
<g id="node5" class="node">
<title>Node5</title>
<g id="a_node5"><a xlink:href="structDGtal_1_1concepts_1_1CUndirectedSimpleLocalGraph.html" target="_top" xlink:title=" ">
<polygon fill="white" stroke="black" points="238,-0.5 238,-30.5 398,-30.5 398,-0.5 238,-0.5"/>
<text text-anchor="start" x="246" y="-18.5" font-family="FreeSans" font-size="10.00">DGtal::concepts::CUndirected</text>
<text text-anchor="middle" x="318" y="-7.5" font-family="FreeSans" font-size="10.00">SimpleLocalGraph&lt; Adj &gt;</text>
</a>
</g>
</g>
<!-- Node1&#45;&gt;Node5 -->
<g id="edge4" class="edge">
<title>Node1&#45;&gt;Node5</title>
<path fill="none" stroke="orange" stroke-dasharray="5,2" d="M163.42,-47.39C189.9,-41.89 219.03,-35.84 244.73,-30.51"/>
<polygon fill="orange" stroke="orange" points="162.49,-44.01 153.41,-49.47 163.91,-50.86 162.49,-44.01"/>
<text text-anchor="middle" x="199" y="-45.5" font-family="FreeSans" font-size="10.00"> &lt; Adj &gt;</text>
</g>
<!-- Node3 -->
<g id="node3" class="node">
<title>Node3</title>
<g id="a_node3"><a xlink:href="structDGtal_1_1concepts_1_1CDomainAdjacency.html" target="_top" xlink:title="Aim: Refines the concept CAdjacency by telling that the adjacency is specific to a given domain of th...">
<polygon fill="white" stroke="black" points="983,-67.5 983,-97.5 1128,-97.5 1128,-67.5 983,-67.5"/>
<text text-anchor="start" x="991" y="-85.5" font-family="FreeSans" font-size="10.00">DGtal::concepts::CDomain</text>
<text text-anchor="middle" x="1055.5" y="-74.5" font-family="FreeSans" font-size="10.00">Adjacency&lt; T &gt;</text>
</a>
</g>
</g>
<!-- Node2&#45;&gt;Node3 -->
<g id="edge2" class="edge">
<title>Node2&#45;&gt;Node3</title>
<path fill="none" stroke="midnightblue" d="M528.22,-102.86C621.72,-100.22 807.47,-94.59 965,-87.5 970.75,-87.24 976.71,-86.95 982.7,-86.65"/>
<polygon fill="midnightblue" stroke="midnightblue" points="528,-99.36 518.1,-103.14 528.2,-106.36 528,-99.36"/>
</g>
<!-- Node6 -->
<g id="node6" class="node">
<title>Node6</title>
<g id="a_node6"><a xlink:href="structDGtal_1_1concepts_1_1CAdjacency.html" target="_top" xlink:title="Aim: The concept CAdjacency defines an elementary adjacency relation between points of a digital spac...">
<polygon fill="white" stroke="black" points="536,-36.5 536,-66.5 693,-66.5 693,-36.5 536,-36.5"/>
<text text-anchor="start" x="544" y="-54.5" font-family="FreeSans" font-size="10.00">DGtal::concepts::CAdjacency</text>
<text text-anchor="middle" x="614.5" y="-43.5" font-family="FreeSans" font-size="10.00">&lt; Adj &gt;</text>
</a>
</g>
</g>
<!-- Node5&#45;&gt;Node6 -->
<g id="edge5" class="edge">
<title>Node5&#45;&gt;Node6</title>
<path fill="none" stroke="midnightblue" d="M408.48,-26.44C449.12,-31.41 496.73,-37.23 535.83,-42.01"/>
<polygon fill="midnightblue" stroke="midnightblue" points="408.66,-22.93 398.31,-25.19 407.81,-29.88 408.66,-22.93"/>
</g>
<!-- Node7 -->
<g id="node7" class="node">
<title>Node7</title>
<g id="a_node7"><a xlink:href="structDGtal_1_1concepts_1_1CAdjacency.html" target="_top" xlink:title=" ">
<polygon fill="white" stroke="black" points="761,-53 761,-72 946,-72 946,-53 761,-53"/>
<text text-anchor="middle" x="853.5" y="-60" font-family="FreeSans" font-size="10.00">DGtal::concepts::CAdjacency&lt; T &gt;</text>
</a>
</g>
</g>
<!-- Node6&#45;&gt;Node7 -->
<g id="edge6" class="edge">
<title>Node6&#45;&gt;Node7</title>
<path fill="none" stroke="orange" stroke-dasharray="5,2" d="M703.11,-55.57C721.88,-56.44 741.77,-57.36 760.7,-58.24"/>
<polygon fill="orange" stroke="orange" points="703.25,-52.07 693.1,-55.1 702.93,-59.06 703.25,-52.07"/>
<text text-anchor="middle" x="727" y="-59.5" font-family="FreeSans" font-size="10.00"> &lt; T &gt;</text>
</g>
<!-- Node7&#45;&gt;Node3 -->
<g id="edge7" class="edge">
<title>Node7&#45;&gt;Node3</title>
<path fill="none" stroke="midnightblue" d="M956.16,-72.67C965.16,-73.57 974.13,-74.46 982.8,-75.33"/>
<polygon fill="midnightblue" stroke="midnightblue" points="956.31,-69.16 946.01,-71.65 955.62,-76.13 956.31,-69.16"/>
</g>
</g>
</svg>
