<?xml version="1.0" encoding="UTF-8" standalone="no"?>
<!DOCTYPE svg PUBLIC "-//W3C//DTD SVG 1.1//EN"
 "http://www.w3.org/Graphics/SVG/1.1/DTD/svg11.dtd">
<!-- Generated by graphviz version 2.43.0 (0)
 -->
<!-- Title: DGtal::CanonicCellEmbedder&lt; TKSpace &gt; Pages: 1 -->
<svg width="525pt" height="134pt"
 viewBox="0.00 0.00 525.00 134.00" xmlns="http://www.w3.org/2000/svg" xmlns:xlink="http://www.w3.org/1999/xlink">
<g id="graph0" class="graph" transform="scale(1 1) rotate(0) translate(4 130)">
<title>DGtal::CanonicCellEmbedder&lt; TKSpace &gt;</title>
<!-- Node1 -->
<g id="Node000001" class="node">
<title>Node1</title>
<g id="a_Node000001"><a xlink:title="Aim: A trivial embedder for signed and unsigned cell, which corresponds to the canonic injection of c...">
<polygon fill="#999999" stroke="#666666" points="158,-78 0,-78 0,-48 158,-48 158,-78"/>
<text text-anchor="start" x="8" y="-66" font-family="FreeSans" font-size="10.00">DGtal::CanonicCellEmbedder</text>
<text text-anchor="middle" x="79" y="-55" font-family="FreeSans" font-size="10.00">&lt; TKSpace &gt;</text>
</a>
</g>
</g>
<!-- Node2 -->
<g id="Node000002" class="node">
<title>Node2</title>
<g id="a_Node000002"><a xlink:href="structDGtal_1_1CanonicCellEmbedder.html" target="_top" xlink:title=" ">
<polygon fill="white" stroke="#666666" points="512,-126 354,-126 354,-96 512,-96 512,-126"/>
<text text-anchor="start" x="362" y="-114" font-family="FreeSans" font-size="10.00">DGtal::CanonicCellEmbedder</text>
<text text-anchor="middle" x="433" y="-103" font-family="FreeSans" font-size="10.00">&lt; Z3i::KSpace &gt;</text>
</a>
</g>
</g>
<!-- Node1&#45;&gt;Node2 -->
<g id="edge1_Node000001_Node000002" class="edge">
<title>Node1&#45;&gt;Node2</title>
<g id="a_edge1_Node000001_Node000002"><a xlink:title=" ">
<path fill="none" stroke="orange" stroke-dasharray="5,2" d="M167.95,-76.84C170.66,-77.23 173.35,-77.62 176,-78 235.56,-86.49 303.05,-95.15 353.78,-101.47"/>
<polygon fill="orange" stroke="orange" points="168.44,-73.37 158.04,-75.37 167.42,-80.3 168.44,-73.37"/>
</a>
</g>
<text text-anchor="middle" x="253.5" y="-101" font-family="FreeSans" font-size="10.00" fill="grey"> &lt; Z3i::KSpace &gt;</text>
</g>
<!-- Node3 -->
<g id="Node000003" class="node">
<title>Node3</title>
<g id="a_Node000003"><a xlink:href="structDGtal_1_1CanonicCellEmbedder.html" target="_top" xlink:title=" ">
<polygon fill="white" stroke="#666666" points="517,-78 349,-78 349,-48 517,-48 517,-78"/>
<text text-anchor="start" x="357" y="-66" font-family="FreeSans" font-size="10.00">DGtal::CanonicCellEmbedder</text>
<text text-anchor="middle" x="433" y="-55" font-family="FreeSans" font-size="10.00">&lt; DGtal::KhalimskySpaceND &gt;</text>
</a>
</g>
</g>
<!-- Node1&#45;&gt;Node3 -->
<g id="edge2_Node000001_Node000003" class="edge">
<title>Node1&#45;&gt;Node3</title>
<g id="a_edge2_Node000001_Node000003"><a xlink:title=" ">
<path fill="none" stroke="orange" stroke-dasharray="5,2" d="M168.27,-63C223.62,-63 294.53,-63 348.88,-63"/>
<polygon fill="orange" stroke="orange" points="168.12,-59.5 158.12,-63 168.12,-66.5 168.12,-59.5"/>
</a>
</g>
<text text-anchor="middle" x="253.5" y="-66" font-family="FreeSans" font-size="10.00" fill="grey"> &lt; DGtal::KhalimskySpaceND &gt;</text>
</g>
<!-- Node4 -->
<g id="Node000004" class="node">
<title>Node4</title>
<g id="a_Node000004"><a xlink:href="structDGtal_1_1CanonicCellEmbedder.html" target="_top" xlink:title=" ">
<polygon fill="white" stroke="#666666" points="512,-30 354,-30 354,0 512,0 512,-30"/>
<text text-anchor="start" x="362" y="-18" font-family="FreeSans" font-size="10.00">DGtal::CanonicCellEmbedder</text>
<text text-anchor="middle" x="433" y="-7" font-family="FreeSans" font-size="10.00">&lt; KSp &gt;</text>
</a>
</g>
</g>
<!-- Node1&#45;&gt;Node4 -->
<g id="edge3_Node000001_Node000004" class="edge">
<title>Node1&#45;&gt;Node4</title>
<g id="a_edge3_Node000001_Node000004"><a xlink:title=" ">
<path fill="none" stroke="orange" stroke-dasharray="5,2" d="M167.95,-49.16C170.66,-48.77 173.35,-48.38 176,-48 235.56,-39.51 303.05,-30.85 353.78,-24.53"/>
<polygon fill="orange" stroke="orange" points="167.42,-45.7 158.04,-50.63 168.44,-52.63 167.42,-45.7"/>
</a>
</g>
<text text-anchor="middle" x="253.5" y="-51" font-family="FreeSans" font-size="10.00" fill="grey"> &lt; KSp &gt;</text>
</g>
</g>
</svg>
