<?xml version="1.0" encoding="UTF-8" standalone="no"?>
<!DOCTYPE svg PUBLIC "-//W3C//DTD SVG 1.1//EN"
 "http://www.w3.org/Graphics/SVG/1.1/DTD/svg11.dtd">
<!-- Generated by graphviz version 2.43.0 (0)
 -->
<!-- Title: DGtal::concepts::CSinglePassRangeWithWritableIterator&lt; T, Value &gt; Pages: 1 -->
<svg width="815pt" height="108pt"
 viewBox="0.00 0.00 815.00 108.00" xmlns="http://www.w3.org/2000/svg" xmlns:xlink="http://www.w3.org/1999/xlink">
<g id="graph0" class="graph" transform="scale(1 1) rotate(0) translate(4 104)">
<title>DGtal::concepts::CSinglePassRangeWithWritableIterator&lt; T, Value &gt;</title>
<!-- Node1 -->
<g id="Node000001" class="node">
<title>Node1</title>
<g id="a_Node000001"><a xlink:title="Aim: refined concept of const single pass range which require that an output iterator exists.">
<polygon fill="#999999" stroke="#666666" points="369,-70 200,-70 200,-29 369,-29 369,-70"/>
<text text-anchor="start" x="208" y="-58" font-family="FreeSans" font-size="10.00">DGtal::concepts::CSingle</text>
<text text-anchor="start" x="208" y="-47" font-family="FreeSans" font-size="10.00">PassRangeWithWritableIterator</text>
<text text-anchor="middle" x="284.5" y="-36" font-family="FreeSans" font-size="10.00">&lt; T, Value &gt;</text>
</a>
</g>
</g>
<!-- Node3 -->
<g id="Node000003" class="node">
<title>Node3</title>
<g id="a_Node000003"><a xlink:href="structDGtal_1_1concepts_1_1CBidirectionalRangeWithWritableIterator.html" target="_top" xlink:title="Aim: refined concept of bidirectional range which require that a reverse output iterator exists.">
<polygon fill="white" stroke="#666666" points="573.5,-100 405.5,-100 405.5,-59 573.5,-59 573.5,-100"/>
<text text-anchor="start" x="413.5" y="-88" font-family="FreeSans" font-size="10.00">DGtal::concepts::CBidirectional</text>
<text text-anchor="start" x="413.5" y="-77" font-family="FreeSans" font-size="10.00">RangeWithWritableIterator</text>
<text text-anchor="middle" x="489.5" y="-66" font-family="FreeSans" font-size="10.00">&lt; T, Value &gt;</text>
</a>
</g>
</g>
<!-- Node1&#45;&gt;Node3 -->
<g id="edge2_Node000001_Node000003" class="edge">
<title>Node1&#45;&gt;Node3</title>
<g id="a_edge2_Node000001_Node000003"><a xlink:title=" ">
<path fill="none" stroke="#63b8ff" d="M379.35,-63.37C388,-64.65 396.73,-65.94 405.28,-67.2"/>
<polygon fill="#63b8ff" stroke="#63b8ff" points="379.64,-59.87 369.24,-61.88 378.62,-66.8 379.64,-59.87"/>
</a>
</g>
</g>
<!-- Node5 -->
<g id="Node000005" class="node">
<title>Node5</title>
<g id="a_Node000005"><a xlink:href="structDGtal_1_1concepts_1_1CSinglePassRangeWithWritableIteratorFromPoint.html" target="_top" xlink:title="Aim: refined concept of single pass range with a outputIterator() method from a point.">
<polygon fill="white" stroke="#666666" points="574,-41 405,-41 405,0 574,0 574,-41"/>
<text text-anchor="start" x="413" y="-29" font-family="FreeSans" font-size="10.00">DGtal::concepts::CSingle</text>
<text text-anchor="start" x="413" y="-18" font-family="FreeSans" font-size="10.00">PassRangeWithWritableIterator</text>
<text text-anchor="middle" x="489.5" y="-7" font-family="FreeSans" font-size="10.00">FromPoint&lt; T, Value &gt;</text>
</a>
</g>
</g>
<!-- Node1&#45;&gt;Node5 -->
<g id="edge4_Node000001_Node000005" class="edge">
<title>Node1&#45;&gt;Node5</title>
<g id="a_edge4_Node000001_Node000005"><a xlink:title=" ">
<path fill="none" stroke="#63b8ff" d="M379.26,-36.11C387.83,-34.88 396.48,-33.65 404.95,-32.44"/>
<polygon fill="#63b8ff" stroke="#63b8ff" points="378.64,-32.66 369.24,-37.54 379.63,-39.59 378.64,-32.66"/>
</a>
</g>
</g>
<!-- Node2 -->
<g id="Node000002" class="node">
<title>Node2</title>
<g id="a_Node000002"><a xlink:href="structDGtal_1_1concepts_1_1CConstSinglePassRange.html" target="_top" xlink:title="Aim: Defines the concept describing a const single pass range.">
<polygon fill="white" stroke="#666666" points="164,-64.5 0,-64.5 0,-34.5 164,-34.5 164,-64.5"/>
<text text-anchor="start" x="8" y="-52.5" font-family="FreeSans" font-size="10.00">DGtal::concepts::CConstSingle</text>
<text text-anchor="middle" x="82" y="-41.5" font-family="FreeSans" font-size="10.00">PassRange&lt; T &gt;</text>
</a>
</g>
</g>
<!-- Node2&#45;&gt;Node1 -->
<g id="edge1_Node000001_Node000002" class="edge">
<title>Node2&#45;&gt;Node1</title>
<g id="a_edge1_Node000001_Node000002"><a xlink:title=" ">
<path fill="none" stroke="#63b8ff" d="M174.5,-49.5C182.94,-49.5 191.47,-49.5 199.84,-49.5"/>
<polygon fill="#63b8ff" stroke="#63b8ff" points="174.26,-46 164.26,-49.5 174.26,-53 174.26,-46"/>
</a>
</g>
</g>
<!-- Node4 -->
<g id="Node000004" class="node">
<title>Node4</title>
<g id="a_Node000004"><a xlink:href="structDGtal_1_1concepts_1_1CBidirectionalRangeWithWritableIteratorFromPoint.html" target="_top" xlink:title="Aim: refined concept of single pass range with an routputIterator() method from a point.">
<polygon fill="white" stroke="#666666" points="807,-100 610,-100 610,-59 807,-59 807,-100"/>
<text text-anchor="start" x="618" y="-88" font-family="FreeSans" font-size="10.00">DGtal::concepts::CBidirectional</text>
<text text-anchor="start" x="618" y="-77" font-family="FreeSans" font-size="10.00">RangeWithWritableIteratorFromPoint</text>
<text text-anchor="middle" x="708.5" y="-66" font-family="FreeSans" font-size="10.00">&lt; T, Value &gt;</text>
</a>
</g>
</g>
<!-- Node3&#45;&gt;Node4 -->
<g id="edge3_Node000003_Node000004" class="edge">
<title>Node3&#45;&gt;Node4</title>
<g id="a_edge3_Node000003_Node000004"><a xlink:title=" ">
<path fill="none" stroke="#63b8ff" d="M583.85,-79.5C592.49,-79.5 601.26,-79.5 609.94,-79.5"/>
<polygon fill="#63b8ff" stroke="#63b8ff" points="583.78,-76 573.78,-79.5 583.78,-83 583.78,-76"/>
</a>
</g>
</g>
</g>
</svg>
