<?xml version="1.0" encoding="UTF-8" standalone="no"?>
<!DOCTYPE svg PUBLIC "-//W3C//DTD SVG 1.1//EN"
 "http://www.w3.org/Graphics/SVG/1.1/DTD/svg11.dtd">
<!-- Generated by graphviz version 2.43.0 (0)
 -->
<!-- Title: LibBoard::Transform Pages: 1 -->
<svg width="470pt" height="138pt"
 viewBox="0.00 0.00 470.00 138.00" xmlns="http://www.w3.org/2000/svg" xmlns:xlink="http://www.w3.org/1999/xlink">

<svg id="main" version="1.1" xmlns="http://www.w3.org/2000/svg" xmlns:xlink="http://www.w3.org/1999/xlink" xml:space="preserve" onload="init(evt)">
<style type="text/css"><![CDATA[
.node, .edge {opacity: 0.7;}
.node.selected, .edge.selected {opacity: 1;}
.edge:hover path { stroke: red; }
.edge:hover polygon { stroke: red; fill: red; }
]]></style>
<script type="application/ecmascript" xlink:href="svg.min.js"/>
<svg id="graph" class="graph">
<g id="graph0" class="graph" transform="scale(1 1) rotate(0) translate(4 134)">
<title>LibBoard::Transform</title>
<!-- Node1 -->
<g id="Node000001" class="node">
<title>Node1</title>
<g id="a_Node000001"><a xlink:title="base class for transforms.">
<polygon fill="#999999" stroke="#666666" points="114,-74 0,-74 0,-55 114,-55 114,-74"/>
<text text-anchor="middle" x="57" y="-62" font-family="FreeSans" font-size="10.00">LibBoard::Transform</text>
</a>
</g>
</g>
<!-- Node2 -->
<g id="Node000002" class="node">
<title>Node2</title>
<g id="a_Node000002"><a xlink:href="structLibBoard_1_1TransformCairo.html" target="_top" xlink:title="Structure representing a scaling and translation suitable for an Cairo output.">
<polygon fill="white" stroke="#666666" points="290,-130 150,-130 150,-111 290,-111 290,-130"/>
<text text-anchor="middle" x="220" y="-118" font-family="FreeSans" font-size="10.00">LibBoard::TransformCairo</text>
</a>
</g>
</g>
<!-- Node1&#45;&gt;Node2 -->
<g id="edge1_Node000001_Node000002" class="edge">
<title>Node1&#45;&gt;Node2</title>
<g id="a_edge1_Node000001_Node000002"><a xlink:title=" ">
<path fill="none" stroke="#63b8ff" d="M88.17,-78.18C105.94,-85.93 128.99,-95.46 150,-102.5 159.16,-105.57 169.14,-108.44 178.59,-110.95"/>
<polygon fill="#63b8ff" stroke="#63b8ff" points="89.44,-74.92 78.88,-74.09 86.62,-81.32 89.44,-74.92"/>
</a>
</g>
</g>
<!-- Node3 -->
<g id="Node000003" class="node">
<title>Node3</title>
<g id="a_Node000003"><a xlink:href="structLibBoard_1_1TransformEPS.html" target="_top" xlink:title="Structure representing a scaling and translation suitable for an EPS output.">
<polygon fill="white" stroke="#666666" points="286,-93 154,-93 154,-74 286,-74 286,-93"/>
<text text-anchor="middle" x="220" y="-81" font-family="FreeSans" font-size="10.00">LibBoard::TransformEPS</text>
</a>
</g>
</g>
<!-- Node1&#45;&gt;Node3 -->
<g id="edge2_Node000001_Node000003" class="edge">
<title>Node1&#45;&gt;Node3</title>
<g id="a_edge2_Node000001_Node000003"><a xlink:title=" ">
<path fill="none" stroke="#63b8ff" d="M124.35,-72.33C134.11,-73.48 144.16,-74.67 153.9,-75.82"/>
<polygon fill="#63b8ff" stroke="#63b8ff" points="124.65,-68.84 114.31,-71.15 123.83,-75.79 124.65,-68.84"/>
</a>
</g>
</g>
<!-- Node4 -->
<g id="Node000004" class="node">
<title>Node4</title>
<g id="a_Node000004"><a xlink:href="structLibBoard_1_1TransformFIG.html" target="_top" xlink:title="Structure representing a scaling and translation suitable for an XFig output.">
<polygon fill="white" stroke="#666666" points="285.5,-56 154.5,-56 154.5,-37 285.5,-37 285.5,-56"/>
<text text-anchor="middle" x="220" y="-44" font-family="FreeSans" font-size="10.00">LibBoard::TransformFIG</text>
</a>
</g>
</g>
<!-- Node1&#45;&gt;Node4 -->
<g id="edge3_Node000001_Node000004" class="edge">
<title>Node1&#45;&gt;Node4</title>
<g id="a_edge3_Node000001_Node000004"><a xlink:title=" ">
<path fill="none" stroke="#63b8ff" d="M124.5,-57.07C134.4,-55.96 144.59,-54.82 154.45,-53.72"/>
<polygon fill="#63b8ff" stroke="#63b8ff" points="123.86,-53.61 114.31,-58.2 124.64,-60.57 123.86,-53.61"/>
</a>
</g>
</g>
<!-- Node5 -->
<g id="Node000005" class="node">
<title>Node5</title>
<g id="a_Node000005"><a xlink:href="structLibBoard_1_1TransformSVG.html" target="_top" xlink:title="Structure representing a scaling and translation suitable for an SVG output.">
<polygon fill="white" stroke="#666666" points="287,-19 153,-19 153,0 287,0 287,-19"/>
<text text-anchor="middle" x="220" y="-7" font-family="FreeSans" font-size="10.00">LibBoard::TransformSVG</text>
</a>
</g>
</g>
<!-- Node1&#45;&gt;Node5 -->
<g id="edge4_Node000001_Node000005" class="edge">
<title>Node1&#45;&gt;Node5</title>
<g id="a_edge4_Node000001_Node000005"><a xlink:title=" ">
<path fill="none" stroke="#63b8ff" d="M90.18,-50.96C107.7,-43.82 129.86,-35.19 150,-28.5 160.14,-25.13 171.25,-21.88 181.54,-19.05"/>
<polygon fill="#63b8ff" stroke="#63b8ff" points="88.36,-47.92 80.44,-54.96 91.02,-54.39 88.36,-47.92"/>
</a>
</g>
</g>
<!-- Node6 -->
<g id="Node000006" class="node">
<title>Node6</title>
<g id="a_Node000006"><a xlink:href="structLibBoard_1_1TransformTikZ.html" target="_top" xlink:title="Structure representing a scaling and translation suitable for an TikZ output.">
<polygon fill="white" stroke="#666666" points="462,-19 326,-19 326,0 462,0 462,-19"/>
<text text-anchor="middle" x="394" y="-7" font-family="FreeSans" font-size="10.00">LibBoard::TransformTikZ</text>
</a>
</g>
</g>
<!-- Node5&#45;&gt;Node6 -->
<g id="edge5_Node000005_Node000006" class="edge">
<title>Node5&#45;&gt;Node6</title>
<g id="a_edge5_Node000005_Node000006"><a xlink:title=" ">
<path fill="none" stroke="#63b8ff" d="M297.23,-9.5C306.73,-9.5 316.39,-9.5 325.75,-9.5"/>
<polygon fill="#63b8ff" stroke="#63b8ff" points="297.01,-6 287.01,-9.5 297.01,-13 297.01,-6"/>
</a>
</g>
</g>
</g>
</svg>
</svg>

<style type='text/css'>
<![CDATA[
[data-mouse-over-selected='false'] { opacity: 0.7; }
[data-mouse-over-selected='true']  { opacity: 1.0; }
]]>
</style>
<script type="application/ecmascript"><![CDATA[
document.addEventListener('DOMContentLoaded', (event) => {
  highlightEdges();
  highlightAdjacentNodes();
});
]]></script>
</svg>
