<?xml version="1.0" encoding="UTF-8" standalone="no"?>
<!DOCTYPE svg PUBLIC "-//W3C//DTD SVG 1.1//EN"
 "http://www.w3.org/Graphics/SVG/1.1/DTD/svg11.dtd">
<!-- Generated by graphviz version 2.43.0 (0)
 -->
<!-- Title: boost::EqualityComparable&lt; T &gt; Pages: 1 -->
<svg width="1461pt" height="245pt"
 viewBox="0.00 0.00 1461.00 245.00" xmlns="http://www.w3.org/2000/svg" xmlns:xlink="http://www.w3.org/1999/xlink">
<g id="graph0" class="graph" transform="scale(1 1) rotate(0) translate(4 241)">
<title>boost::EqualityComparable&lt; T &gt;</title>
<!-- Node1 -->
<g id="Node000001" class="node">
<title>Node1</title>
<g id="a_Node000001"><a xlink:title="Go to http://www.sgi.com/tech/stl/EqualityComparable.html.">
<polygon fill="#999999" stroke="#666666" points="177,-97.5 0,-97.5 0,-78.5 177,-78.5 177,-97.5"/>
<text text-anchor="middle" x="88.5" y="-85.5" font-family="FreeSans" font-size="10.00">boost::EqualityComparable&lt; T &gt;</text>
</a>
</g>
</g>
<!-- Node2 -->
<g id="Node000002" class="node">
<title>Node2</title>
<g id="a_Node000002"><a xlink:href="structDGtal_1_1concepts_1_1CLabel.html" target="_top" xlink:title="Aim: Define the concept of DGtal labels. Models of CLabel can be default&#45;constructible,...">
<polygon fill="white" stroke="#666666" points="383,-117.5 222,-117.5 222,-98.5 383,-98.5 383,-117.5"/>
<text text-anchor="middle" x="302.5" y="-105.5" font-family="FreeSans" font-size="10.00">DGtal::concepts::CLabel&lt; T &gt;</text>
</a>
</g>
</g>
<!-- Node1&#45;&gt;Node2 -->
<g id="edge1_Node000001_Node000002" class="edge">
<title>Node1&#45;&gt;Node2</title>
<g id="a_edge1_Node000001_Node000002"><a xlink:title=" ">
<path fill="none" stroke="#63b8ff" d="M187.39,-97.23C198.96,-98.33 210.67,-99.43 221.95,-100.5"/>
<polygon fill="#63b8ff" stroke="#63b8ff" points="187.54,-93.73 177.26,-96.28 186.89,-100.7 187.54,-93.73"/>
</a>
</g>
</g>
<!-- Node11 -->
<g id="Node000011" class="node">
<title>Node11</title>
<g id="a_Node000011"><a xlink:href="structDGtal_1_1concepts_1_1CSegment.html" target="_top" xlink:title="Aim: Defines the concept describing a segment, ie. a valid and not empty range.">
<polygon fill="white" stroke="#666666" points="392,-79.5 213,-79.5 213,-60.5 392,-60.5 392,-79.5"/>
<text text-anchor="middle" x="302.5" y="-67.5" font-family="FreeSans" font-size="10.00">DGtal::concepts::CSegment&lt; T &gt;</text>
</a>
</g>
</g>
<!-- Node1&#45;&gt;Node11 -->
<g id="edge11_Node000001_Node000011" class="edge">
<title>Node1&#45;&gt;Node11</title>
<g id="a_edge11_Node000001_Node000011"><a xlink:title=" ">
<path fill="none" stroke="#63b8ff" d="M187.5,-79.68C195.93,-78.96 204.43,-78.24 212.78,-77.53"/>
<polygon fill="#63b8ff" stroke="#63b8ff" points="186.93,-76.22 177.26,-80.55 187.52,-83.19 186.93,-76.22"/>
</a>
</g>
</g>
<!-- Node3 -->
<g id="Node000003" class="node">
<title>Node3</title>
<g id="a_Node000003"><a xlink:href="structDGtal_1_1concepts_1_1CQuantity.html" target="_top" xlink:title="Aim: defines the concept of quantity in DGtal.">
<polygon fill="white" stroke="#666666" points="605,-145.5 428,-145.5 428,-126.5 605,-126.5 605,-145.5"/>
<text text-anchor="middle" x="516.5" y="-133.5" font-family="FreeSans" font-size="10.00">DGtal::concepts::CQuantity&lt; T &gt;</text>
</a>
</g>
</g>
<!-- Node2&#45;&gt;Node3 -->
<g id="edge2_Node000002_Node000003" class="edge">
<title>Node2&#45;&gt;Node3</title>
<g id="a_edge2_Node000002_Node000003"><a xlink:title=" ">
<path fill="none" stroke="#63b8ff" d="M385.69,-118.86C404.68,-121.36 424.74,-124.01 443.27,-126.46"/>
<polygon fill="#63b8ff" stroke="#63b8ff" points="385.94,-115.36 375.57,-117.52 385.02,-122.3 385.94,-115.36"/>
</a>
</g>
</g>
<!-- Node4 -->
<g id="Node000004" class="node">
<title>Node4</title>
<g id="a_Node000004"><a xlink:href="structDGtal_1_1concepts_1_1CBoundedNumber.html" target="_top" xlink:title="Aim: The concept CBoundedNumber specifies what are the bounded numbers. Models of this concept should...">
<polygon fill="white" stroke="#666666" points="798,-237 649,-237 649,-207 798,-207 798,-237"/>
<text text-anchor="start" x="657" y="-225" font-family="FreeSans" font-size="10.00">DGtal::concepts::CBounded</text>
<text text-anchor="middle" x="723.5" y="-214" font-family="FreeSans" font-size="10.00">Number&lt; T &gt;</text>
</a>
</g>
</g>
<!-- Node3&#45;&gt;Node4 -->
<g id="edge3_Node000003_Node000004" class="edge">
<title>Node3&#45;&gt;Node4</title>
<g id="a_edge3_Node000003_Node000004"><a xlink:title=" ">
<path fill="none" stroke="#63b8ff" d="M546.14,-150.12C570.97,-162.13 607.99,-179.54 641,-193 652.82,-197.82 665.78,-202.64 677.81,-206.92"/>
<polygon fill="#63b8ff" stroke="#63b8ff" points="547.46,-146.87 536.94,-145.64 544.4,-153.16 547.46,-146.87"/>
</a>
</g>
</g>
<!-- Node5 -->
<g id="Node000005" class="node">
<title>Node5</title>
<g id="a_Node000005"><a xlink:href="structDGtal_1_1concepts_1_1CIntegralNumber.html" target="_top" xlink:title="Aim: Concept checking for Integral Numbers. Models of this concept should be listed in NumberTraits c...">
<polygon fill="white" stroke="#666666" points="1000.5,-196 856.5,-196 856.5,-166 1000.5,-166 1000.5,-196"/>
<text text-anchor="start" x="864.5" y="-184" font-family="FreeSans" font-size="10.00">DGtal::concepts::CIntegral</text>
<text text-anchor="middle" x="928.5" y="-173" font-family="FreeSans" font-size="10.00">Number&lt; T &gt;</text>
</a>
</g>
</g>
<!-- Node3&#45;&gt;Node5 -->
<g id="edge4_Node000003_Node000005" class="edge">
<title>Node3&#45;&gt;Node5</title>
<g id="a_edge4_Node000003_Node000005"><a xlink:title=" ">
<path fill="none" stroke="#63b8ff" d="M569.95,-147.62C591.82,-152.09 617.54,-156.87 641,-160 714.04,-169.74 798.2,-175.23 856.32,-178.13"/>
<polygon fill="#63b8ff" stroke="#63b8ff" points="570.38,-144.14 559.88,-145.53 568.96,-150.99 570.38,-144.14"/>
</a>
</g>
</g>
<!-- Node7 -->
<g id="Node000007" class="node">
<title>Node7</title>
<g id="a_Node000007"><a xlink:href="structDGtal_1_1concepts_1_1CSignedNumber.html" target="_top" xlink:title="Aim: Concept checking for Signed Numbers. Models of this concept should be listed in NumberTraits cla...">
<polygon fill="white" stroke="#666666" points="793.5,-151 653.5,-151 653.5,-121 793.5,-121 793.5,-151"/>
<text text-anchor="start" x="661.5" y="-139" font-family="FreeSans" font-size="10.00">DGtal::concepts::CSigned</text>
<text text-anchor="middle" x="723.5" y="-128" font-family="FreeSans" font-size="10.00">Number&lt; T &gt;</text>
</a>
</g>
</g>
<!-- Node3&#45;&gt;Node7 -->
<g id="edge6_Node000003_Node000007" class="edge">
<title>Node3&#45;&gt;Node7</title>
<g id="a_edge6_Node000003_Node000007"><a xlink:title=" ">
<path fill="none" stroke="#63b8ff" d="M615.28,-136C628.1,-136 641.01,-136 653.23,-136"/>
<polygon fill="#63b8ff" stroke="#63b8ff" points="615.03,-132.5 605.03,-136 615.03,-139.5 615.03,-132.5"/>
</a>
</g>
</g>
<!-- Node10 -->
<g id="Node000010" class="node">
<title>Node10</title>
<g id="a_Node000010"><a xlink:href="structDGtal_1_1concepts_1_1CUnsignedNumber.html" target="_top" xlink:title="Aim: Concept checking for Unsigned numbers. Models of this concept should be listed in NumberTraits c...">
<polygon fill="white" stroke="#666666" points="799.5,-103 647.5,-103 647.5,-73 799.5,-73 799.5,-103"/>
<text text-anchor="start" x="655.5" y="-91" font-family="FreeSans" font-size="10.00">DGtal::concepts::CUnsigned</text>
<text text-anchor="middle" x="723.5" y="-80" font-family="FreeSans" font-size="10.00">Number&lt; T &gt;</text>
</a>
</g>
</g>
<!-- Node3&#45;&gt;Node10 -->
<g id="edge10_Node000003_Node000010" class="edge">
<title>Node3&#45;&gt;Node10</title>
<g id="a_edge10_Node000003_Node000010"><a xlink:title=" ">
<path fill="none" stroke="#63b8ff" d="M568.55,-124.05C595.67,-117.7 629.28,-109.83 658.17,-103.06"/>
<polygon fill="#63b8ff" stroke="#63b8ff" points="567.43,-120.71 558.49,-126.4 569.03,-127.53 567.43,-120.71"/>
</a>
</g>
</g>
<!-- Node6 -->
<g id="Node000006" class="node">
<title>Node6</title>
<g id="a_Node000006"><a xlink:href="structDGtal_1_1concepts_1_1CInteger.html" target="_top" xlink:title="Aim: Concept checking for Integer Numbers. More precisely, this concept is a refinement of both CEucl...">
<polygon fill="white" stroke="#666666" points="1439,-166.5 1269,-166.5 1269,-147.5 1439,-147.5 1439,-166.5"/>
<text text-anchor="middle" x="1354" y="-154.5" font-family="FreeSans" font-size="10.00">DGtal::concepts::CInteger&lt; T &gt;</text>
</a>
</g>
</g>
<!-- Node5&#45;&gt;Node6 -->
<g id="edge5_Node000005_Node000006" class="edge">
<title>Node5&#45;&gt;Node6</title>
<g id="a_edge5_Node000005_Node000006"><a xlink:title=" ">
<path fill="none" stroke="#63b8ff" d="M1011.08,-176.38C1085.2,-172.18 1194.08,-166.01 1268.95,-161.76"/>
<polygon fill="#63b8ff" stroke="#63b8ff" points="1010.65,-172.9 1000.86,-176.96 1011.04,-179.88 1010.65,-172.9"/>
</a>
</g>
</g>
<!-- Node8 -->
<g id="Node000008" class="node">
<title>Node8</title>
<g id="a_Node000008"><a xlink:href="structDGtal_1_1concepts_1_1CCommutativeRing.html" target="_top" xlink:title="Aim: Defines the mathematical concept equivalent to a unitary commutative ring.">
<polygon fill="white" stroke="#666666" points="1015,-148 842,-148 842,-118 1015,-118 1015,-148"/>
<text text-anchor="start" x="850" y="-136" font-family="FreeSans" font-size="10.00">DGtal::concepts::CCommutative</text>
<text text-anchor="middle" x="928.5" y="-125" font-family="FreeSans" font-size="10.00">Ring&lt; T &gt;</text>
</a>
</g>
</g>
<!-- Node7&#45;&gt;Node8 -->
<g id="edge7_Node000007_Node000008" class="edge">
<title>Node7&#45;&gt;Node8</title>
<g id="a_edge7_Node000007_Node000008"><a xlink:title=" ">
<path fill="none" stroke="#63b8ff" d="M803.84,-134.83C816.29,-134.64 829.2,-134.45 841.78,-134.27"/>
<polygon fill="#63b8ff" stroke="#63b8ff" points="803.46,-131.33 793.51,-134.98 803.56,-138.33 803.46,-131.33"/>
</a>
</g>
</g>
<!-- Node9 -->
<g id="Node000009" class="node">
<title>Node9</title>
<g id="a_Node000009"><a xlink:href="structDGtal_1_1concepts_1_1CEuclideanRing.html" target="_top" xlink:title="Aim: Defines the mathematical concept equivalent to a unitary commutative ring with a division operat...">
<polygon fill="white" stroke="#666666" points="1212,-150 1058,-150 1058,-120 1212,-120 1212,-150"/>
<text text-anchor="start" x="1066" y="-138" font-family="FreeSans" font-size="10.00">DGtal::concepts::CEuclidean</text>
<text text-anchor="middle" x="1135" y="-127" font-family="FreeSans" font-size="10.00">Ring&lt; T &gt;</text>
</a>
</g>
</g>
<!-- Node8&#45;&gt;Node9 -->
<g id="edge8_Node000008_Node000009" class="edge">
<title>Node8&#45;&gt;Node9</title>
<g id="a_edge8_Node000008_Node000009"><a xlink:title=" ">
<path fill="none" stroke="#63b8ff" d="M1025.1,-133.94C1036.11,-134.04 1047.22,-134.15 1057.92,-134.26"/>
<polygon fill="#63b8ff" stroke="#63b8ff" points="1025.08,-130.43 1015.04,-133.84 1025.01,-137.43 1025.08,-130.43"/>
</a>
</g>
</g>
<!-- Node9&#45;&gt;Node6 -->
<g id="edge9_Node000009_Node000006" class="edge">
<title>Node9&#45;&gt;Node6</title>
<g id="a_edge9_Node000009_Node000006"><a xlink:title=" ">
<path fill="none" stroke="#63b8ff" d="M1222.19,-143.74C1237.56,-145.3 1253.54,-146.92 1268.85,-148.47"/>
<polygon fill="#63b8ff" stroke="#63b8ff" points="1222.5,-140.25 1212.2,-142.73 1221.8,-147.22 1222.5,-140.25"/>
</a>
</g>
</g>
<!-- Node12 -->
<g id="Node000012" class="node">
<title>Node12</title>
<g id="a_Node000012"><a xlink:href="structDGtal_1_1concepts_1_1CSegmentFactory.html" target="_top" xlink:title="Aim: Defines the concept describing a segment ie. a valid and not empty subrange, which can construct...">
<polygon fill="white" stroke="#666666" points="591.5,-82 441.5,-82 441.5,-52 591.5,-52 591.5,-82"/>
<text text-anchor="start" x="449.5" y="-70" font-family="FreeSans" font-size="10.00">DGtal::concepts::CSegment</text>
<text text-anchor="middle" x="516.5" y="-59" font-family="FreeSans" font-size="10.00">Factory&lt; T &gt;</text>
</a>
</g>
</g>
<!-- Node11&#45;&gt;Node12 -->
<g id="edge12_Node000011_Node000012" class="edge">
<title>Node11&#45;&gt;Node12</title>
<g id="a_edge12_Node000011_Node000012"><a xlink:title=" ">
<path fill="none" stroke="#63b8ff" d="M402.19,-68.6C415.34,-68.42 428.64,-68.23 441.28,-68.05"/>
<polygon fill="#63b8ff" stroke="#63b8ff" points="402.13,-65.1 392.18,-68.75 402.23,-72.1 402.13,-65.1"/>
</a>
</g>
</g>
<!-- Node13 -->
<g id="Node000013" class="node">
<title>Node13</title>
<g id="a_Node000013"><a xlink:href="structDGtal_1_1concepts_1_1CIncrementalSegmentComputer.html" target="_top" xlink:title="Aim: Defines the concept describing an incremental segment computer, &#160;&#160;ie. a model of CSegmentFactory...">
<polygon fill="white" stroke="#666666" points="806,-55 641,-55 641,-25 806,-25 806,-55"/>
<text text-anchor="start" x="649" y="-43" font-family="FreeSans" font-size="10.00">DGtal::concepts::CIncremental</text>
<text text-anchor="middle" x="723.5" y="-32" font-family="FreeSans" font-size="10.00">SegmentComputer&lt; T &gt;</text>
</a>
</g>
</g>
<!-- Node12&#45;&gt;Node13 -->
<g id="edge13_Node000012_Node000013" class="edge">
<title>Node12&#45;&gt;Node13</title>
<g id="a_edge13_Node000012_Node000013"><a xlink:title=" ">
<path fill="none" stroke="#63b8ff" d="M601.79,-55.9C614.73,-54.19 628.08,-52.44 640.96,-50.74"/>
<polygon fill="#63b8ff" stroke="#63b8ff" points="600.97,-52.48 591.51,-57.25 601.88,-59.42 600.97,-52.48"/>
</a>
</g>
</g>
<!-- Node14 -->
<g id="Node000014" class="node">
<title>Node14</title>
<g id="a_Node000014"><a xlink:href="structDGtal_1_1concepts_1_1CForwardSegmentComputer.html" target="_top" xlink:title="Aim: Defines the concept describing a forward segment computer. Like any model of CIncrementalSegment...">
<polygon fill="white" stroke="#666666" points="1001.5,-55 855.5,-55 855.5,-25 1001.5,-25 1001.5,-55"/>
<text text-anchor="start" x="863.5" y="-43" font-family="FreeSans" font-size="10.00">DGtal::concepts::CForward</text>
<text text-anchor="middle" x="928.5" y="-32" font-family="FreeSans" font-size="10.00">SegmentComputer&lt; T &gt;</text>
</a>
</g>
</g>
<!-- Node13&#45;&gt;Node14 -->
<g id="edge14_Node000013_Node000014" class="edge">
<title>Node13&#45;&gt;Node14</title>
<g id="a_edge14_Node000013_Node000014"><a xlink:title=" ">
<path fill="none" stroke="#63b8ff" d="M816.2,-40C829.36,-40 842.75,-40 855.46,-40"/>
<polygon fill="#63b8ff" stroke="#63b8ff" points="816.19,-36.5 806.19,-40 816.19,-43.5 816.19,-36.5"/>
</a>
</g>
</g>
<!-- Node15 -->
<g id="Node000015" class="node">
<title>Node15</title>
<g id="a_Node000015"><a xlink:href="structDGtal_1_1concepts_1_1CBidirectionalSegmentComputer.html" target="_top" xlink:title="Aim: Defines the concept describing a bidirectional segment computer, &#160;&#160;ie. a model of concepts::CSeg...">
<polygon fill="white" stroke="#666666" points="1219,-78 1051,-78 1051,-48 1219,-48 1219,-78"/>
<text text-anchor="start" x="1059" y="-66" font-family="FreeSans" font-size="10.00">DGtal::concepts::CBidirectional</text>
<text text-anchor="middle" x="1135" y="-55" font-family="FreeSans" font-size="10.00">SegmentComputer&lt; T &gt;</text>
</a>
</g>
</g>
<!-- Node14&#45;&gt;Node15 -->
<g id="edge15_Node000014_Node000015" class="edge">
<title>Node14&#45;&gt;Node15</title>
<g id="a_edge15_Node000014_Node000015"><a xlink:title=" ">
<path fill="none" stroke="#63b8ff" d="M1011.77,-49.25C1024.58,-50.69 1037.83,-52.18 1050.67,-53.63"/>
<polygon fill="#63b8ff" stroke="#63b8ff" points="1011.93,-45.75 1001.6,-48.11 1011.15,-52.7 1011.93,-45.75"/>
</a>
</g>
</g>
<!-- Node17 -->
<g id="Node000017" class="node">
<title>Node17</title>
<g id="a_Node000017"><a xlink:href="structDGtal_1_1concepts_1_1CDynamicSegmentComputer.html" target="_top" xlink:title="Aim: Defines the concept describing a dynamic segment computer, &#160;&#160;ie. a model of CSegment that can ex...">
<polygon fill="white" stroke="#666666" points="1210,-30 1060,-30 1060,0 1210,0 1210,-30"/>
<text text-anchor="start" x="1068" y="-18" font-family="FreeSans" font-size="10.00">DGtal::concepts::CDynamic</text>
<text text-anchor="middle" x="1135" y="-7" font-family="FreeSans" font-size="10.00">SegmentComputer&lt; T &gt;</text>
</a>
</g>
</g>
<!-- Node14&#45;&gt;Node17 -->
<g id="edge17_Node000014_Node000017" class="edge">
<title>Node14&#45;&gt;Node17</title>
<g id="a_edge17_Node000014_Node000017"><a xlink:title=" ">
<path fill="none" stroke="#63b8ff" d="M1011.89,-29.93C1027.73,-27.99 1044.23,-25.97 1059.79,-24.07"/>
<polygon fill="#63b8ff" stroke="#63b8ff" points="1011.1,-26.5 1001.6,-31.19 1011.95,-33.45 1011.1,-26.5"/>
</a>
</g>
</g>
<!-- Node16 -->
<g id="Node000016" class="node">
<title>Node16</title>
<g id="a_Node000016"><a xlink:href="structDGtal_1_1concepts_1_1CDynamicBidirectionalSegmentComputer.html" target="_top" xlink:title="Aim: Defines the concept describing a dynamic and bidirectional segment computer, ie....">
<polygon fill="white" stroke="#666666" points="1453,-54 1255,-54 1255,-24 1453,-24 1453,-54"/>
<text text-anchor="start" x="1263" y="-42" font-family="FreeSans" font-size="10.00">DGtal::concepts::CDynamic</text>
<text text-anchor="middle" x="1354" y="-31" font-family="FreeSans" font-size="10.00">BidirectionalSegmentComputer&lt; T &gt;</text>
</a>
</g>
</g>
<!-- Node15&#45;&gt;Node16 -->
<g id="edge16_Node000015_Node000016" class="edge">
<title>Node15&#45;&gt;Node16</title>
<g id="a_edge16_Node000015_Node000016"><a xlink:title=" ">
<path fill="none" stroke="#63b8ff" d="M1229.42,-52.67C1237.79,-51.74 1246.29,-50.8 1254.71,-49.87"/>
<polygon fill="#63b8ff" stroke="#63b8ff" points="1228.83,-49.21 1219.28,-53.79 1229.6,-56.17 1228.83,-49.21"/>
</a>
</g>
</g>
<!-- Node17&#45;&gt;Node16 -->
<g id="edge18_Node000017_Node000016" class="edge">
<title>Node17&#45;&gt;Node16</title>
<g id="a_edge18_Node000017_Node000016"><a xlink:title=" ">
<path fill="none" stroke="#63b8ff" d="M1220.31,-24.32C1231.58,-25.57 1243.22,-26.86 1254.7,-28.13"/>
<polygon fill="#63b8ff" stroke="#63b8ff" points="1220.4,-20.81 1210.07,-23.19 1219.63,-27.77 1220.4,-20.81"/>
</a>
</g>
</g>
</g>
</svg>
