<?xml version="1.0" encoding="UTF-8" standalone="no"?>
<!DOCTYPE svg PUBLIC "-//W3C//DTD SVG 1.1//EN"
 "http://www.w3.org/Graphics/SVG/1.1/DTD/svg11.dtd">
<!-- Generated by graphviz version 2.43.0 (0)
 -->
<!-- Title: DGtal::concepts::CIncrementalPrimitiveComputer&lt; T &gt; Pages: 1 -->
<svg width="758pt" height="101pt"
 viewBox="0.00 0.00 758.00 101.00" xmlns="http://www.w3.org/2000/svg" xmlns:xlink="http://www.w3.org/1999/xlink">
<g id="graph0" class="graph" transform="scale(1 1) rotate(0) translate(4 97)">
<title>DGtal::concepts::CIncrementalPrimitiveComputer&lt; T &gt;</title>
<!-- Node1 -->
<g id="Node000001" class="node">
<title>Node1</title>
<g id="a_Node000001"><a xlink:title="Aim: Defines the concept describing an object that computes some primitive from input points given on...">
<polygon fill="#999999" stroke="#666666" points="567,-61.5 402,-61.5 402,-31.5 567,-31.5 567,-61.5"/>
<text text-anchor="start" x="410" y="-49.5" font-family="FreeSans" font-size="10.00">DGtal::concepts::CIncremental</text>
<text text-anchor="middle" x="484.5" y="-38.5" font-family="FreeSans" font-size="10.00">PrimitiveComputer&lt; T &gt;</text>
</a>
</g>
</g>
<!-- Node6 -->
<g id="Node000006" class="node">
<title>Node6</title>
<g id="a_Node000006"><a xlink:href="structDGtal_1_1concepts_1_1CAdditivePrimitiveComputer.html" target="_top" xlink:title="Aim: Defines the concept describing an object that computes some primitive from input points given gr...">
<polygon fill="white" stroke="#666666" points="750,-61.5 603,-61.5 603,-31.5 750,-31.5 750,-61.5"/>
<text text-anchor="start" x="611" y="-49.5" font-family="FreeSans" font-size="10.00">DGtal::concepts::CAdditive</text>
<text text-anchor="middle" x="676.5" y="-38.5" font-family="FreeSans" font-size="10.00">PrimitiveComputer&lt; T &gt;</text>
</a>
</g>
</g>
<!-- Node1&#45;&gt;Node6 -->
<g id="edge5_Node000001_Node000006" class="edge">
<title>Node1&#45;&gt;Node6</title>
<g id="a_edge5_Node000001_Node000006"><a xlink:title=" ">
<path fill="none" stroke="#63b8ff" d="M577.24,-46.5C585.85,-46.5 594.48,-46.5 602.87,-46.5"/>
<polygon fill="#63b8ff" stroke="#63b8ff" points="577.18,-43 567.18,-46.5 577.18,-50 577.18,-43"/>
</a>
</g>
</g>
<!-- Node2 -->
<g id="Node000002" class="node">
<title>Node2</title>
<g id="a_Node000002"><a xlink:href="structDGtal_1_1concepts_1_1CPrimitiveComputer.html" target="_top" xlink:title="Aim: Defines the concept describing an object that computes some primitive from input points,...">
<polygon fill="white" stroke="#666666" points="366,-61.5 215,-61.5 215,-31.5 366,-31.5 366,-61.5"/>
<text text-anchor="start" x="223" y="-49.5" font-family="FreeSans" font-size="10.00">DGtal::concepts::CPrimitive</text>
<text text-anchor="middle" x="290.5" y="-38.5" font-family="FreeSans" font-size="10.00">Computer&lt; T &gt;</text>
</a>
</g>
</g>
<!-- Node2&#45;&gt;Node1 -->
<g id="edge1_Node000001_Node000002" class="edge">
<title>Node2&#45;&gt;Node1</title>
<g id="a_edge1_Node000001_Node000002"><a xlink:title=" ">
<path fill="none" stroke="#63b8ff" d="M376.25,-46.5C384.71,-46.5 393.28,-46.5 401.71,-46.5"/>
<polygon fill="#63b8ff" stroke="#63b8ff" points="376.01,-43 366.01,-46.5 376.01,-50 376.01,-43"/>
</a>
</g>
</g>
<!-- Node3 -->
<g id="Node000003" class="node">
<title>Node3</title>
<g id="a_Node000003"><a xlink:href="structboost_1_1DefaultConstructible.html" target="_top" xlink:title="Go to http://www.sgi.com/tech/stl/DefaultConstructible.html.">
<polygon fill="white" stroke="#666666" points="179,-93 0,-93 0,-74 179,-74 179,-93"/>
<text text-anchor="middle" x="89.5" y="-81" font-family="FreeSans" font-size="10.00">boost::DefaultConstructible&lt; T &gt;</text>
</a>
</g>
</g>
<!-- Node3&#45;&gt;Node2 -->
<g id="edge2_Node000002_Node000003" class="edge">
<title>Node3&#45;&gt;Node2</title>
<g id="a_edge2_Node000002_Node000003"><a xlink:title=" ">
<path fill="none" stroke="#63b8ff" d="M151.63,-72.13C171.58,-68.42 193.96,-64.26 214.79,-60.39"/>
<polygon fill="#63b8ff" stroke="#63b8ff" points="150.94,-68.7 141.75,-73.97 152.22,-75.58 150.94,-68.7"/>
</a>
</g>
</g>
<!-- Node4 -->
<g id="Node000004" class="node">
<title>Node4</title>
<g id="a_Node000004"><a xlink:href="structboost_1_1CopyConstructible.html" target="_top" xlink:title="Go to http://www.sgi.com/tech/stl/CopyConstructible.html.">
<polygon fill="white" stroke="#666666" points="173,-56 6,-56 6,-37 173,-37 173,-56"/>
<text text-anchor="middle" x="89.5" y="-44" font-family="FreeSans" font-size="10.00">boost::CopyConstructible&lt; T &gt;</text>
</a>
</g>
</g>
<!-- Node4&#45;&gt;Node2 -->
<g id="edge3_Node000002_Node000004" class="edge">
<title>Node4&#45;&gt;Node2</title>
<g id="a_edge3_Node000002_Node000004"><a xlink:title=" ">
<path fill="none" stroke="#63b8ff" d="M183.24,-46.5C193.79,-46.5 204.44,-46.5 214.72,-46.5"/>
<polygon fill="#63b8ff" stroke="#63b8ff" points="183.17,-43 173.17,-46.5 183.17,-50 183.17,-43"/>
</a>
</g>
</g>
<!-- Node5 -->
<g id="Node000005" class="node">
<title>Node5</title>
<g id="a_Node000005"><a xlink:href="structboost_1_1Assignable.html" target="_top" xlink:title="Go to http://www.sgi.com/tech/stl/Assignable.html.">
<polygon fill="white" stroke="#666666" points="155,-19 24,-19 24,0 155,0 155,-19"/>
<text text-anchor="middle" x="89.5" y="-7" font-family="FreeSans" font-size="10.00">boost::Assignable&lt; T &gt;</text>
</a>
</g>
</g>
<!-- Node5&#45;&gt;Node2 -->
<g id="edge4_Node000002_Node000005" class="edge">
<title>Node5&#45;&gt;Node2</title>
<g id="a_edge4_Node000002_Node000005"><a xlink:title=" ">
<path fill="none" stroke="#63b8ff" d="M151.63,-20.87C171.58,-24.58 193.96,-28.74 214.79,-32.61"/>
<polygon fill="#63b8ff" stroke="#63b8ff" points="152.22,-17.42 141.75,-19.03 150.94,-24.3 152.22,-17.42"/>
</a>
</g>
</g>
</g>
</svg>
