<?xml version="1.0" encoding="UTF-8" standalone="no"?>
<!DOCTYPE svg PUBLIC "-//W3C//DTD SVG 1.1//EN"
 "http://www.w3.org/Graphics/SVG/1.1/DTD/svg11.dtd">
<!-- Generated by graphviz version 2.43.0 (0)
 -->
<!-- Title: DGtal::concepts::CBidirectionalRangeFromPoint&lt; T &gt; Pages: 1 -->
<svg width="840pt" height="86pt"
 viewBox="0.00 0.00 840.00 86.00" xmlns="http://www.w3.org/2000/svg" xmlns:xlink="http://www.w3.org/1999/xlink">
<g id="graph0" class="graph" transform="scale(1 1) rotate(0) translate(4 82)">
<title>DGtal::concepts::CBidirectionalRangeFromPoint&lt; T &gt;</title>
<!-- Node1 -->
<g id="Node000001" class="node">
<title>Node1</title>
<g id="a_Node000001"><a xlink:title="Aim: refined concept of single pass range with a begin() method from a point.">
<polygon fill="#999999" stroke="#666666" points="832,-54 664,-54 664,-24 832,-24 832,-54"/>
<text text-anchor="start" x="672" y="-42" font-family="FreeSans" font-size="10.00">DGtal::concepts::CBidirectional</text>
<text text-anchor="middle" x="748" y="-31" font-family="FreeSans" font-size="10.00">RangeFromPoint&lt; T &gt;</text>
</a>
</g>
</g>
<!-- Node2 -->
<g id="Node000002" class="node">
<title>Node2</title>
<g id="a_Node000002"><a xlink:href="structDGtal_1_1concepts_1_1CBidirectionalRange.html" target="_top" xlink:title="Aim: Defines the concept describing a bidirectional range.">
<polygon fill="white" stroke="#666666" points="614,-78 446,-78 446,-48 614,-48 614,-78"/>
<text text-anchor="start" x="454" y="-66" font-family="FreeSans" font-size="10.00">DGtal::concepts::CBidirectional</text>
<text text-anchor="middle" x="530" y="-55" font-family="FreeSans" font-size="10.00">Range&lt; T &gt;</text>
</a>
</g>
</g>
<!-- Node2&#45;&gt;Node1 -->
<g id="edge1_Node000001_Node000002" class="edge">
<title>Node2&#45;&gt;Node1</title>
<g id="a_edge1_Node000001_Node000002"><a xlink:title=" ">
<path fill="none" stroke="#63b8ff" d="M624.21,-52.64C637.39,-51.18 650.87,-49.68 663.84,-48.24"/>
<polygon fill="#63b8ff" stroke="#63b8ff" points="623.75,-49.17 614.2,-53.76 624.53,-56.13 623.75,-49.17"/>
</a>
</g>
</g>
<!-- Node3 -->
<g id="Node000003" class="node">
<title>Node3</title>
<g id="a_Node000003"><a xlink:href="structDGtal_1_1concepts_1_1CConstBidirectionalRange.html" target="_top" xlink:title="Aim: Defines the concept describing a bidirectional const range.">
<polygon fill="white" stroke="#666666" points="396,-54 200,-54 200,-24 396,-24 396,-54"/>
<text text-anchor="start" x="208" y="-42" font-family="FreeSans" font-size="10.00">DGtal::concepts::CConstBidirectional</text>
<text text-anchor="middle" x="298" y="-31" font-family="FreeSans" font-size="10.00">Range&lt; T &gt;</text>
</a>
</g>
</g>
<!-- Node3&#45;&gt;Node2 -->
<g id="edge2_Node000002_Node000003" class="edge">
<title>Node3&#45;&gt;Node2</title>
<g id="a_edge2_Node000002_Node000003"><a xlink:title=" ">
<path fill="none" stroke="#63b8ff" d="M406.34,-50.2C419.65,-51.59 433.09,-52.99 445.96,-54.33"/>
<polygon fill="#63b8ff" stroke="#63b8ff" points="406.52,-46.7 396.21,-49.14 405.79,-53.66 406.52,-46.7"/>
</a>
</g>
</g>
<!-- Node5 -->
<g id="Node000005" class="node">
<title>Node5</title>
<g id="a_Node000005"><a xlink:href="structDGtal_1_1concepts_1_1CConstBidirectionalRangeFromPoint.html" target="_top" xlink:title="Aim: refined concept of const bidirectional range with a begin() method from a point.">
<polygon fill="white" stroke="#666666" points="628,-30 432,-30 432,0 628,0 628,-30"/>
<text text-anchor="start" x="440" y="-18" font-family="FreeSans" font-size="10.00">DGtal::concepts::CConstBidirectional</text>
<text text-anchor="middle" x="530" y="-7" font-family="FreeSans" font-size="10.00">RangeFromPoint&lt; T &gt;</text>
</a>
</g>
</g>
<!-- Node3&#45;&gt;Node5 -->
<g id="edge5_Node000005_Node000003" class="edge">
<title>Node3&#45;&gt;Node5</title>
<g id="a_edge5_Node000005_Node000003"><a xlink:title=" ">
<path fill="none" stroke="#63b8ff" d="M406.19,-27.82C414.72,-26.92 423.31,-26.03 431.77,-25.15"/>
<polygon fill="#63b8ff" stroke="#63b8ff" points="405.79,-24.34 396.21,-28.86 406.52,-31.3 405.79,-24.34"/>
</a>
</g>
</g>
<!-- Node4 -->
<g id="Node000004" class="node">
<title>Node4</title>
<g id="a_Node000004"><a xlink:href="structDGtal_1_1concepts_1_1CConstSinglePassRange.html" target="_top" xlink:title="Aim: Defines the concept describing a const single pass range.">
<polygon fill="white" stroke="#666666" points="164,-54 0,-54 0,-24 164,-24 164,-54"/>
<text text-anchor="start" x="8" y="-42" font-family="FreeSans" font-size="10.00">DGtal::concepts::CConstSingle</text>
<text text-anchor="middle" x="82" y="-31" font-family="FreeSans" font-size="10.00">PassRange&lt; T &gt;</text>
</a>
</g>
</g>
<!-- Node4&#45;&gt;Node3 -->
<g id="edge3_Node000003_Node000004" class="edge">
<title>Node4&#45;&gt;Node3</title>
<g id="a_edge3_Node000003_Node000004"><a xlink:title=" ">
<path fill="none" stroke="#63b8ff" d="M174.35,-39C182.73,-39 191.24,-39 199.67,-39"/>
<polygon fill="#63b8ff" stroke="#63b8ff" points="174.21,-35.5 164.21,-39 174.21,-42.5 174.21,-35.5"/>
</a>
</g>
</g>
<!-- Node5&#45;&gt;Node1 -->
<g id="edge4_Node000001_Node000005" class="edge">
<title>Node5&#45;&gt;Node1</title>
<g id="a_edge4_Node000001_Node000005"><a xlink:title=" ">
<path fill="none" stroke="#63b8ff" d="M638.3,-26.92C646.87,-27.87 655.45,-28.83 663.81,-29.76"/>
<polygon fill="#63b8ff" stroke="#63b8ff" points="638.58,-23.43 628.26,-25.81 637.81,-30.39 638.58,-23.43"/>
</a>
</g>
</g>
</g>
</svg>
