<?xml version="1.0" encoding="UTF-8" standalone="no"?>
<!DOCTYPE svg PUBLIC "-//W3C//DTD SVG 1.1//EN"
 "http://www.w3.org/Graphics/SVG/1.1/DTD/svg11.dtd">
<!-- Generated by graphviz version 2.43.0 (0)
 -->
<!-- Title: DGtal::UnorderedSetByBlock&lt; Key, TSplitter, Hash, KeyEqual, UnorderedMapAllocator &gt; Pages: 1 -->
<svg width="549pt" height="119pt"
 viewBox="0.00 0.00 549.00 118.50" xmlns="http://www.w3.org/2000/svg" xmlns:xlink="http://www.w3.org/1999/xlink">
<g id="graph0" class="graph" transform="scale(1 1) rotate(0) translate(4 114.5)">
<title>DGtal::UnorderedSetByBlock&lt; Key, TSplitter, Hash, KeyEqual, UnorderedMapAllocator &gt;</title>
<polygon fill="white" stroke="transparent" points="-4,4 -4,-114.5 545,-114.5 545,4 -4,4"/>
<!-- Node1 -->
<g id="node1" class="node">
<title>Node1</title>
<g id="a_node1"><a xlink:title=" ">
<polygon fill="#bfbfbf" stroke="black" points="0,-25 0,-66 197,-66 197,-25 0,-25"/>
<text text-anchor="start" x="8" y="-54" font-family="FreeSans" font-size="10.00">DGtal::UnorderedSetByBlock</text>
<text text-anchor="start" x="8" y="-43" font-family="FreeSans" font-size="10.00">&lt; Key, TSplitter, Hash,</text>
<text text-anchor="middle" x="98.5" y="-32" font-family="FreeSans" font-size="10.00"> KeyEqual, UnorderedMapAllocator &gt;</text>
</a>
</g>
</g>
<!-- Node2 -->
<g id="node2" class="node">
<title>Node2</title>
<g id="a_node2"><a xlink:href="structDGtal_1_1UnorderedSetByBlock.html" target="_top" xlink:title=" ">
<polygon fill="white" stroke="black" points="371,-49.5 371,-101.5 541,-101.5 541,-49.5 371,-49.5"/>
<text text-anchor="start" x="379" y="-89.5" font-family="FreeSans" font-size="10.00">DGtal::UnorderedSetByBlock</text>
<text text-anchor="start" x="379" y="-78.5" font-family="FreeSans" font-size="10.00">&lt; PointVector&lt; dim, Integer</text>
<text text-anchor="start" x="379" y="-67.5" font-family="FreeSans" font-size="10.00"> &gt;, DGtal::Splitter&lt; PointVector</text>
<text text-anchor="middle" x="456" y="-56.5" font-family="FreeSans" font-size="10.00">&lt; dim, Integer &gt;, uint64_t &gt; &gt;</text>
</a>
</g>
</g>
<!-- Node1&#45;&gt;Node2 -->
<g id="edge1" class="edge">
<title>Node1&#45;&gt;Node2</title>
<path fill="none" stroke="orange" stroke-dasharray="5,2" d="M207.14,-54.58C259.66,-59.02 321.91,-64.27 370.88,-68.4"/>
<polygon fill="orange" stroke="orange" points="207.37,-51.09 197.11,-53.74 206.78,-58.07 207.37,-51.09"/>
<text text-anchor="start" x="215" y="-102.5" font-family="FreeSans" font-size="10.00"> &lt; PointVector&lt; dim,</text>
<text text-anchor="start" x="215" y="-91.5" font-family="FreeSans" font-size="10.00"> Integer &gt;, DGtal::Splitter</text>
<text text-anchor="start" x="215" y="-80.5" font-family="FreeSans" font-size="10.00">&lt; PointVector&lt; dim, Integer</text>
<text text-anchor="middle" x="284" y="-69.5" font-family="FreeSans" font-size="10.00"> &gt;, uint64_t &gt; &gt;</text>
</g>
<!-- Node3 -->
<g id="node3" class="node">
<title>Node3</title>
<g id="a_node3"><a xlink:href="structDGtal_1_1UnorderedSetByBlock.html" target="_top" xlink:title=" ">
<polygon fill="white" stroke="black" points="377.5,-0.5 377.5,-30.5 534.5,-30.5 534.5,-0.5 377.5,-0.5"/>
<text text-anchor="start" x="385.5" y="-18.5" font-family="FreeSans" font-size="10.00">DGtal::UnorderedSetByBlock</text>
<text text-anchor="middle" x="456" y="-7.5" font-family="FreeSans" font-size="10.00">&lt; Point &gt;</text>
</a>
</g>
</g>
<!-- Node1&#45;&gt;Node3 -->
<g id="edge2" class="edge">
<title>Node1&#45;&gt;Node3</title>
<path fill="none" stroke="orange" stroke-dasharray="5,2" d="M207.22,-36.41C262.05,-31.78 327.45,-26.26 377.3,-22.06"/>
<polygon fill="orange" stroke="orange" points="206.78,-32.93 197.11,-37.26 207.37,-39.91 206.78,-32.93"/>
<text text-anchor="middle" x="284" y="-37.5" font-family="FreeSans" font-size="10.00"> &lt; Point &gt;</text>
</g>
</g>
</svg>
