<?xml version="1.0" encoding="UTF-8" standalone="no"?>
<!DOCTYPE svg PUBLIC "-//W3C//DTD SVG 1.1//EN"
 "http://www.w3.org/Graphics/SVG/1.1/DTD/svg11.dtd">
<!-- Generated by graphviz version 2.43.0 (0)
 -->
<!-- Title: DGtal::NumberTraits&lt; T &gt; Pages: 1 -->
<svg width="258pt" height="263pt"
 viewBox="0.00 0.00 258.00 263.00" xmlns="http://www.w3.org/2000/svg" xmlns:xlink="http://www.w3.org/1999/xlink">
<g id="graph0" class="graph" transform="scale(1 1) rotate(0) translate(4 259)">
<title>DGtal::NumberTraits&lt; T &gt;</title>
<polygon fill="white" stroke="transparent" points="-4,4 -4,-259 254,-259 254,4 -4,4"/>
<!-- Node1 -->
<g id="node1" class="node">
<title>Node1</title>
<g id="a_node1"><a xlink:title="Aim: The traits class for all models of Cinteger.">
<polygon fill="#bfbfbf" stroke="black" points="53,-78.5 53,-97.5 197,-97.5 197,-78.5 53,-78.5"/>
<text text-anchor="middle" x="125" y="-85.5" font-family="FreeSans" font-size="10.00">DGtal::NumberTraits&lt; T &gt;</text>
</a>
</g>
</g>
<!-- Node4 -->
<g id="node4" class="node">
<title>Node4</title>
<g id="a_node4"><a xlink:href="structDGtal_1_1NumberTraits.html" target="_top" xlink:title=" ">
<polygon fill="white" stroke="black" points="0,-0.5 0,-30.5 116,-30.5 116,-0.5 0,-0.5"/>
<text text-anchor="start" x="8" y="-18.5" font-family="FreeSans" font-size="10.00">DGtal::NumberTraits</text>
<text text-anchor="middle" x="58" y="-7.5" font-family="FreeSans" font-size="10.00">&lt; TInteger &gt;</text>
</a>
</g>
</g>
<!-- Node1&#45;&gt;Node4 -->
<g id="edge3" class="edge">
<title>Node1&#45;&gt;Node4</title>
<path fill="none" stroke="orange" stroke-dasharray="5,2" d="M109.88,-71.09C98.31,-58.91 82.49,-42.27 71.38,-30.58"/>
<polygon fill="orange" stroke="orange" points="107.36,-73.52 116.78,-78.36 112.43,-68.7 107.36,-73.52"/>
<text text-anchor="middle" x="131.5" y="-52" font-family="FreeSans" font-size="10.00"> &lt; TInteger &gt;</text>
</g>
<!-- Node5 -->
<g id="node5" class="node">
<title>Node5</title>
<g id="a_node5"><a xlink:href="structDGtal_1_1NumberTraits.html" target="_top" xlink:title=" ">
<polygon fill="white" stroke="black" points="134,-0.5 134,-30.5 250,-30.5 250,-0.5 134,-0.5"/>
<text text-anchor="start" x="142" y="-18.5" font-family="FreeSans" font-size="10.00">DGtal::NumberTraits</text>
<text text-anchor="middle" x="192" y="-7.5" font-family="FreeSans" font-size="10.00">&lt; Integer &gt;</text>
</a>
</g>
</g>
<!-- Node1&#45;&gt;Node5 -->
<g id="edge4" class="edge">
<title>Node1&#45;&gt;Node5</title>
<path fill="none" stroke="orange" stroke-dasharray="5,2" d="M152.73,-73.11C158.55,-69.38 164.33,-64.98 169,-60 176.95,-51.53 182.94,-39.78 186.82,-30.63"/>
<polygon fill="orange" stroke="orange" points="150.56,-70.33 143.7,-78.41 154.1,-76.37 150.56,-70.33"/>
<text text-anchor="middle" x="207.5" y="-52" font-family="FreeSans" font-size="10.00"> &lt; Integer &gt;</text>
</g>
<!-- Node2 -->
<g id="node2" class="node">
<title>Node2</title>
<g id="a_node2"><a xlink:href="structDGtal_1_1NumberTraitsImpl.html" target="_top" xlink:title=" ">
<polygon fill="white" stroke="black" points="52,-135.5 52,-165.5 198,-165.5 198,-135.5 52,-135.5"/>
<text text-anchor="start" x="60" y="-153.5" font-family="FreeSans" font-size="10.00">DGtal::NumberTraitsImpl</text>
<text text-anchor="middle" x="125" y="-142.5" font-family="FreeSans" font-size="10.00">&lt; std::decay&lt; T &gt;::type &gt;</text>
</a>
</g>
</g>
<!-- Node2&#45;&gt;Node1 -->
<g id="edge1" class="edge">
<title>Node2&#45;&gt;Node1</title>
<path fill="none" stroke="midnightblue" d="M125,-125.35C125,-115.51 125,-104.78 125,-97.54"/>
<polygon fill="midnightblue" stroke="midnightblue" points="121.5,-125.47 125,-135.47 128.5,-125.47 121.5,-125.47"/>
</g>
<!-- Node3 -->
<g id="node3" class="node">
<title>Node3</title>
<g id="a_node3"><a xlink:href="structDGtal_1_1NumberTraitsImpl.html" target="_top" xlink:title="Aim: The traits class for all models of Cinteger (implementation)">
<polygon fill="white" stroke="black" points="56.5,-224.5 56.5,-254.5 193.5,-254.5 193.5,-224.5 56.5,-224.5"/>
<text text-anchor="start" x="64.5" y="-242.5" font-family="FreeSans" font-size="10.00">DGtal::NumberTraitsImpl</text>
<text text-anchor="middle" x="125" y="-231.5" font-family="FreeSans" font-size="10.00">&lt; T, Enable &gt;</text>
</a>
</g>
</g>
<!-- Node3&#45;&gt;Node2 -->
<g id="edge2" class="edge">
<title>Node3&#45;&gt;Node2</title>
<path fill="none" stroke="orange" stroke-dasharray="5,2" d="M125,-214.09C125,-198.44 125,-178.68 125,-165.6"/>
<polygon fill="orange" stroke="orange" points="121.5,-214.13 125,-224.13 128.5,-214.13 121.5,-214.13"/>
<text text-anchor="start" x="125" y="-198" font-family="FreeSans" font-size="10.00"> &lt; std::decay&lt; T &gt;::</text>
<text text-anchor="middle" x="175" y="-187" font-family="FreeSans" font-size="10.00">type &gt;</text>
</g>
</g>
</svg>
