<?xml version="1.0" encoding="UTF-8" standalone="no"?>
<!DOCTYPE svg PUBLIC "-//W3C//DTD SVG 1.1//EN"
 "http://www.w3.org/Graphics/SVG/1.1/DTD/svg11.dtd">
<!-- Generated by graphviz version 2.43.0 (0)
 -->
<!-- Title: DGtal::concepts::CCellEmbedder&lt; T &gt; Pages: 1 -->
<svg width="350pt" height="293pt"
 viewBox="0.00 0.00 349.50 293.00" xmlns="http://www.w3.org/2000/svg" xmlns:xlink="http://www.w3.org/1999/xlink">
<g id="graph0" class="graph" transform="scale(1 1) rotate(0) translate(4 289)">
<title>DGtal::concepts::CCellEmbedder&lt; T &gt;</title>
<!-- Node1 -->
<g id="Node000001" class="node">
<title>Node1</title>
<g id="a_Node000001"><a xlink:title="Aim: A cell embedder is a mapping from unsigned cells to Euclidean points. It adds inner types to fun...">
<polygon fill="#999999" stroke="#666666" points="203,-19 0,-19 0,0 203,0 203,-19"/>
<text text-anchor="middle" x="101.5" y="-7" font-family="FreeSans" font-size="10.00">DGtal::concepts::CCellEmbedder&lt; T &gt;</text>
</a>
</g>
</g>
<!-- Node2 -->
<g id="Node000002" class="node">
<title>Node2</title>
<g id="a_Node000002"><a xlink:href="structDGtal_1_1concepts_1_1CUnaryFunctor.html" target="_top" xlink:title=" ">
<polygon fill="white" stroke="#666666" points="187.5,-86 15.5,-86 15.5,-56 187.5,-56 187.5,-86"/>
<text text-anchor="start" x="23.5" y="-74" font-family="FreeSans" font-size="10.00">DGtal::concepts::CUnaryFunctor</text>
<text text-anchor="middle" x="101.5" y="-63" font-family="FreeSans" font-size="10.00">&lt; T, T::Cell, T::RealPoint &gt;</text>
</a>
</g>
</g>
<!-- Node2&#45;&gt;Node1 -->
<g id="edge1_Node000001_Node000002" class="edge">
<title>Node2&#45;&gt;Node1</title>
<g id="a_edge1_Node000001_Node000002"><a xlink:title=" ">
<path fill="none" stroke="#63b8ff" d="M101.5,-45.79C101.5,-36.36 101.5,-26.15 101.5,-19.16"/>
<polygon fill="#63b8ff" stroke="#63b8ff" points="98,-45.9 101.5,-55.9 105,-45.9 98,-45.9"/>
</a>
</g>
</g>
<!-- Node3 -->
<g id="Node000003" class="node">
<title>Node3</title>
<g id="a_Node000003"><a xlink:href="structboost_1_1Assignable.html" target="_top" xlink:title="Go to http://www.sgi.com/tech/stl/Assignable.html.">
<polygon fill="white" stroke="#666666" points="151,-157.5 20,-157.5 20,-138.5 151,-138.5 151,-157.5"/>
<text text-anchor="middle" x="85.5" y="-145.5" font-family="FreeSans" font-size="10.00">boost::Assignable&lt; T &gt;</text>
</a>
</g>
</g>
<!-- Node3&#45;&gt;Node2 -->
<g id="edge2_Node000002_Node000003" class="edge">
<title>Node3&#45;&gt;Node2</title>
<g id="a_edge2_Node000002_Node000003"><a xlink:title=" ">
<path fill="none" stroke="#63b8ff" d="M89.43,-128.59C92.22,-115.49 95.93,-98.13 98.49,-86.11"/>
<polygon fill="#63b8ff" stroke="#63b8ff" points="86,-127.89 87.34,-138.4 92.84,-129.35 86,-127.89"/>
</a>
</g>
</g>
<!-- Node4 -->
<g id="Node000004" class="node">
<title>Node4</title>
<g id="a_Node000004"><a xlink:href="structDGtal_1_1concepts_1_1CUnaryFunctor.html" target="_top" xlink:title="Aim: Defines a unary functor, which associates arguments to results.">
<polygon fill="white" stroke="#666666" points="341.5,-163 169.5,-163 169.5,-133 341.5,-133 341.5,-163"/>
<text text-anchor="start" x="177.5" y="-151" font-family="FreeSans" font-size="10.00">DGtal::concepts::CUnaryFunctor</text>
<text text-anchor="middle" x="255.5" y="-140" font-family="FreeSans" font-size="10.00">&lt; X, A, R &gt;</text>
</a>
</g>
</g>
<!-- Node4&#45;&gt;Node2 -->
<g id="edge3_Node000002_Node000004" class="edge">
<title>Node4&#45;&gt;Node2</title>
<g id="a_edge3_Node000002_Node000004"><a xlink:title=" ">
<path fill="none" stroke="orange" stroke-dasharray="5,2" d="M217.4,-128.44C190.47,-115.33 154.93,-98.02 130.34,-86.04"/>
<polygon fill="orange" stroke="orange" points="216.01,-131.66 226.53,-132.89 219.08,-125.37 216.01,-131.66"/>
</a>
</g>
<text text-anchor="middle" x="253.5" y="-107" font-family="FreeSans" font-size="10.00" fill="grey"> &lt; T, T::Cell, T::RealPoint &gt;</text>
</g>
<!-- Node5 -->
<g id="Node000005" class="node">
<title>Node5</title>
<g id="a_Node000005"><a xlink:href="structboost_1_1Assignable.html" target="_top" xlink:title=" ">
<polygon fill="white" stroke="#666666" points="321.5,-219 189.5,-219 189.5,-200 321.5,-200 321.5,-219"/>
<text text-anchor="middle" x="255.5" y="-207" font-family="FreeSans" font-size="10.00">boost::Assignable&lt; X &gt;</text>
</a>
</g>
</g>
<!-- Node5&#45;&gt;Node4 -->
<g id="edge4_Node000004_Node000005" class="edge">
<title>Node5&#45;&gt;Node4</title>
<g id="a_edge4_Node000004_Node000005"><a xlink:title=" ">
<path fill="none" stroke="#63b8ff" d="M255.5,-189.73C255.5,-181.09 255.5,-171 255.5,-163.02"/>
<polygon fill="#63b8ff" stroke="#63b8ff" points="252,-189.98 255.5,-199.98 259,-189.98 252,-189.98"/>
</a>
</g>
</g>
<!-- Node6 -->
<g id="Node000006" class="node">
<title>Node6</title>
<g id="a_Node000006"><a xlink:href="structboost_1_1Assignable.html" target="_top" xlink:title="Go to http://www.sgi.com/tech/stl/Assignable.html.">
<polygon fill="white" stroke="#666666" points="321,-285 190,-285 190,-266 321,-266 321,-285"/>
<text text-anchor="middle" x="255.5" y="-273" font-family="FreeSans" font-size="10.00">boost::Assignable&lt; T &gt;</text>
</a>
</g>
</g>
<!-- Node6&#45;&gt;Node5 -->
<g id="edge5_Node000005_Node000006" class="edge">
<title>Node6&#45;&gt;Node5</title>
<g id="a_edge5_Node000005_Node000006"><a xlink:title=" ">
<path fill="none" stroke="orange" stroke-dasharray="5,2" d="M255.5,-255.58C255.5,-243.63 255.5,-228.72 255.5,-219.41"/>
<polygon fill="orange" stroke="orange" points="252,-255.87 255.5,-265.87 259,-255.87 252,-255.87"/>
</a>
</g>
<text text-anchor="middle" x="272" y="-240" font-family="FreeSans" font-size="10.00" fill="grey"> &lt; X &gt;</text>
</g>
</g>
</svg>
