<?xml version="1.0" encoding="UTF-8" standalone="no"?>
<!DOCTYPE svg PUBLIC "-//W3C//DTD SVG 1.1//EN"
 "http://www.w3.org/Graphics/SVG/1.1/DTD/svg11.dtd">
<!-- Generated by graphviz version 2.43.0 (0)
 -->
<!-- Title: DGtal::functors::ConstantPointPredicate&lt; TPoint, boolCst &gt; Pages: 1 -->
<svg width="594pt" height="108pt"
 viewBox="0.00 0.00 594.00 108.00" xmlns="http://www.w3.org/2000/svg" xmlns:xlink="http://www.w3.org/1999/xlink">
<g id="graph0" class="graph" transform="scale(1 1) rotate(0) translate(4 104)">
<title>DGtal::functors::ConstantPointPredicate&lt; TPoint, boolCst &gt;</title>
<!-- Node1 -->
<g id="Node000001" class="node">
<title>Node1</title>
<g id="a_Node000001"><a xlink:title="Aim: The predicate that returns always the same value boolCst.">
<polygon fill="#999999" stroke="#666666" points="140,-70 0,-70 0,-29 140,-29 140,-70"/>
<text text-anchor="start" x="8" y="-58" font-family="FreeSans" font-size="10.00">DGtal::functors::Constant</text>
<text text-anchor="start" x="8" y="-47" font-family="FreeSans" font-size="10.00">PointPredicate&lt; TPoint,</text>
<text text-anchor="middle" x="70" y="-36" font-family="FreeSans" font-size="10.00"> boolCst &gt;</text>
</a>
</g>
</g>
<!-- Node2 -->
<g id="Node000002" class="node">
<title>Node2</title>
<g id="a_Node000002"><a xlink:href="structDGtal_1_1functors_1_1ConstantPointPredicate.html" target="_top" xlink:title=" ">
<polygon fill="white" stroke="#666666" points="403,-100 263,-100 263,-59 403,-59 403,-100"/>
<text text-anchor="start" x="271" y="-88" font-family="FreeSans" font-size="10.00">DGtal::functors::Constant</text>
<text text-anchor="start" x="271" y="-77" font-family="FreeSans" font-size="10.00">PointPredicate&lt; TPoint,</text>
<text text-anchor="middle" x="333" y="-66" font-family="FreeSans" font-size="10.00"> false &gt;</text>
</a>
</g>
</g>
<!-- Node1&#45;&gt;Node2 -->
<g id="edge1_Node000001_Node000002" class="edge">
<title>Node1&#45;&gt;Node2</title>
<g id="a_edge1_Node000001_Node000002"><a xlink:title=" ">
<path fill="none" stroke="orange" stroke-dasharray="5,2" d="M150.22,-58.61C186.15,-62.74 228.24,-67.57 262.87,-71.55"/>
<polygon fill="orange" stroke="orange" points="150.59,-55.13 140.26,-57.46 149.79,-62.08 150.59,-55.13"/>
</a>
</g>
<text text-anchor="middle" x="201.5" y="-71.5" font-family="FreeSans" font-size="10.00" fill="grey"> &lt; TPoint, false &gt;</text>
</g>
<!-- Node4 -->
<g id="Node000004" class="node">
<title>Node4</title>
<g id="a_Node000004"><a xlink:href="structDGtal_1_1functors_1_1ConstantPointPredicate.html" target="_top" xlink:title=" ">
<polygon fill="white" stroke="#666666" points="403,-41 263,-41 263,0 403,0 403,-41"/>
<text text-anchor="start" x="271" y="-29" font-family="FreeSans" font-size="10.00">DGtal::functors::Constant</text>
<text text-anchor="start" x="271" y="-18" font-family="FreeSans" font-size="10.00">PointPredicate&lt; TPoint,</text>
<text text-anchor="middle" x="333" y="-7" font-family="FreeSans" font-size="10.00"> true &gt;</text>
</a>
</g>
</g>
<!-- Node1&#45;&gt;Node4 -->
<g id="edge3_Node000001_Node000004" class="edge">
<title>Node1&#45;&gt;Node4</title>
<g id="a_edge3_Node000001_Node000004"><a xlink:title=" ">
<path fill="none" stroke="orange" stroke-dasharray="5,2" d="M150.36,-40.36C152.94,-40.07 155.49,-39.78 158,-39.5 192.58,-35.62 231.03,-31.42 262.98,-27.95"/>
<polygon fill="orange" stroke="orange" points="149.87,-36.89 140.33,-41.5 150.66,-43.85 149.87,-36.89"/>
</a>
</g>
<text text-anchor="middle" x="201.5" y="-42.5" font-family="FreeSans" font-size="10.00" fill="grey"> &lt; TPoint, true &gt;</text>
</g>
<!-- Node3 -->
<g id="Node000003" class="node">
<title>Node3</title>
<g id="a_Node000003"><a xlink:href="structDGtal_1_1functors_1_1FalsePointPredicate.html" target="_top" xlink:title="Aim: The predicate that returns always false.">
<polygon fill="white" stroke="#666666" points="586,-94.5 440,-94.5 440,-64.5 586,-64.5 586,-94.5"/>
<text text-anchor="start" x="448" y="-82.5" font-family="FreeSans" font-size="10.00">DGtal::functors::FalsePoint</text>
<text text-anchor="middle" x="513" y="-71.5" font-family="FreeSans" font-size="10.00">Predicate&lt; TPoint &gt;</text>
</a>
</g>
</g>
<!-- Node2&#45;&gt;Node3 -->
<g id="edge2_Node000002_Node000003" class="edge">
<title>Node2&#45;&gt;Node3</title>
<g id="a_edge2_Node000002_Node000003"><a xlink:title=" ">
<path fill="none" stroke="#63b8ff" d="M413.32,-79.5C422.11,-79.5 431.03,-79.5 439.73,-79.5"/>
<polygon fill="#63b8ff" stroke="#63b8ff" points="413.07,-76 403.07,-79.5 413.07,-83 413.07,-76"/>
</a>
</g>
</g>
<!-- Node5 -->
<g id="Node000005" class="node">
<title>Node5</title>
<g id="a_Node000005"><a xlink:href="structDGtal_1_1functors_1_1TruePointPredicate.html" target="_top" xlink:title="Aim: The predicate that returns always true.">
<polygon fill="white" stroke="#666666" points="583.5,-35.5 442.5,-35.5 442.5,-5.5 583.5,-5.5 583.5,-35.5"/>
<text text-anchor="start" x="450.5" y="-23.5" font-family="FreeSans" font-size="10.00">DGtal::functors::TruePoint</text>
<text text-anchor="middle" x="513" y="-12.5" font-family="FreeSans" font-size="10.00">Predicate&lt; TPoint &gt;</text>
</a>
</g>
</g>
<!-- Node4&#45;&gt;Node5 -->
<g id="edge4_Node000004_Node000005" class="edge">
<title>Node4&#45;&gt;Node5</title>
<g id="a_edge4_Node000004_Node000005"><a xlink:title=" ">
<path fill="none" stroke="#63b8ff" d="M413.15,-20.5C422.89,-20.5 432.79,-20.5 442.38,-20.5"/>
<polygon fill="#63b8ff" stroke="#63b8ff" points="413.07,-17 403.07,-20.5 413.07,-24 413.07,-17"/>
</a>
</g>
</g>
</g>
</svg>
