<?xml version="1.0" encoding="UTF-8" standalone="no"?>
<!DOCTYPE svg PUBLIC "-//W3C//DTD SVG 1.1//EN"
 "http://www.w3.org/Graphics/SVG/1.1/DTD/svg11.dtd">
<!-- Generated by graphviz version 2.43.0 (0)
 -->
<!-- Title: boost::Object_graph_traversal_category Pages: 1 -->
<svg width="537pt" height="93pt"
 viewBox="0.00 0.00 536.50 93.00" xmlns="http://www.w3.org/2000/svg" xmlns:xlink="http://www.w3.org/1999/xlink">
<g id="graph0" class="graph" transform="scale(1 1) rotate(0) translate(4 89)">
<title>boost::Object_graph_traversal_category</title>
<!-- Node1 -->
<g id="Node000001" class="node">
<title>Node1</title>
<g id="a_Node000001"><a xlink:title=" ">
<polygon fill="#999999" stroke="#666666" points="325,-30 211,-30 211,0 325,0 325,-30"/>
<text text-anchor="start" x="219" y="-18" font-family="FreeSans" font-size="10.00">boost::Object_graph</text>
<text text-anchor="middle" x="268" y="-7" font-family="FreeSans" font-size="10.00">_traversal_category</text>
</a>
</g>
</g>
<!-- Node2 -->
<g id="Node000002" class="node">
<title>Node2</title>
<g id="a_Node000002"><a xlink:title=" ">
<polygon fill="white" stroke="#666666" points="120,-85 0,-85 0,-66 120,-66 120,-85"/>
<text text-anchor="middle" x="60" y="-73" font-family="FreeSans" font-size="10.00">adjacency_graph_tag</text>
</a>
</g>
</g>
<!-- Node2&#45;&gt;Node1 -->
<g id="edge1_Node000001_Node000002" class="edge">
<title>Node2&#45;&gt;Node1</title>
<g id="a_edge1_Node000001_Node000002"><a xlink:title=" ">
<path fill="none" stroke="#63b8ff" d="M100.18,-63.2C133.79,-53.75 181.9,-40.22 217.99,-30.06"/>
<polygon fill="#63b8ff" stroke="#63b8ff" points="98.92,-59.92 90.24,-65.99 100.82,-66.66 98.92,-59.92"/>
</a>
</g>
</g>
<!-- Node3 -->
<g id="Node000003" class="node">
<title>Node3</title>
<g id="a_Node000003"><a xlink:title=" ">
<polygon fill="white" stroke="#666666" points="260,-85 138,-85 138,-66 260,-66 260,-85"/>
<text text-anchor="middle" x="199" y="-73" font-family="FreeSans" font-size="10.00">vertex_list_graph_tag</text>
</a>
</g>
</g>
<!-- Node3&#45;&gt;Node1 -->
<g id="edge2_Node000001_Node000003" class="edge">
<title>Node3&#45;&gt;Node1</title>
<g id="a_edge2_Node000001_Node000003"><a xlink:title=" ">
<path fill="none" stroke="#63b8ff" d="M217.01,-59.23C227.63,-50.23 240.98,-38.91 251.35,-30.11"/>
<polygon fill="#63b8ff" stroke="#63b8ff" points="214.55,-56.73 209.18,-65.87 219.07,-62.07 214.55,-56.73"/>
</a>
</g>
</g>
<!-- Node4 -->
<g id="Node000004" class="node">
<title>Node4</title>
<g id="a_Node000004"><a xlink:title=" ">
<polygon fill="white" stroke="#666666" points="395.5,-85 278.5,-85 278.5,-66 395.5,-66 395.5,-85"/>
<text text-anchor="middle" x="337" y="-73" font-family="FreeSans" font-size="10.00">incidence_graph_tag</text>
</a>
</g>
</g>
<!-- Node4&#45;&gt;Node1 -->
<g id="edge3_Node000001_Node000004" class="edge">
<title>Node4&#45;&gt;Node1</title>
<g id="a_edge3_Node000001_Node000004"><a xlink:title=" ">
<path fill="none" stroke="#63b8ff" d="M318.99,-59.23C308.37,-50.23 295.02,-38.91 284.65,-30.11"/>
<polygon fill="#63b8ff" stroke="#63b8ff" points="316.93,-62.07 326.82,-65.87 321.45,-56.73 316.93,-62.07"/>
</a>
</g>
</g>
<!-- Node5 -->
<g id="Node000005" class="node">
<title>Node5</title>
<g id="a_Node000005"><a xlink:title=" ">
<polygon fill="white" stroke="#666666" points="528.5,-85 413.5,-85 413.5,-66 528.5,-66 528.5,-85"/>
<text text-anchor="middle" x="471" y="-73" font-family="FreeSans" font-size="10.00">edge_list_graph_tag</text>
</a>
</g>
</g>
<!-- Node5&#45;&gt;Node1 -->
<g id="edge4_Node000001_Node000005" class="edge">
<title>Node5&#45;&gt;Node1</title>
<g id="a_edge4_Node000001_Node000005"><a xlink:title=" ">
<path fill="none" stroke="#63b8ff" d="M431.79,-63.2C398.98,-53.75 352.03,-40.22 316.8,-30.06"/>
<polygon fill="#63b8ff" stroke="#63b8ff" points="430.9,-66.59 441.48,-65.99 432.84,-59.86 430.9,-66.59"/>
</a>
</g>
</g>
</g>
</svg>
