<?xml version="1.0" encoding="UTF-8" standalone="no"?>
<!DOCTYPE svg PUBLIC "-//W3C//DTD SVG 1.1//EN"
 "http://www.w3.org/Graphics/SVG/1.1/DTD/svg11.dtd">
<!-- Generated by graphviz version 2.43.0 (0)
 -->
<!-- Title: LibBoard::ShapeList Pages: 1 -->
<svg width="216pt" height="192pt"
 viewBox="0.00 0.00 215.50 192.00" xmlns="http://www.w3.org/2000/svg" xmlns:xlink="http://www.w3.org/1999/xlink">
<g id="graph0" class="graph" transform="scale(1 1) rotate(0) translate(4 188)">
<title>LibBoard::ShapeList</title>
<!-- Node1 -->
<g id="Node000001" class="node">
<title>Node1</title>
<g id="a_Node000001"><a xlink:title="A group of shapes.">
<polygon fill="#999999" stroke="#666666" points="159.5,-129 46.5,-129 46.5,-110 159.5,-110 159.5,-129"/>
<text text-anchor="middle" x="103" y="-117" font-family="FreeSans" font-size="10.00">LibBoard::ShapeList</text>
</a>
</g>
</g>
<!-- Node3 -->
<g id="Node000003" class="node">
<title>Node3</title>
<g id="a_Node000003"><a xlink:href="classLibBoard_1_1Board.html" target="_top" xlink:title="Class for EPS, FIG or SVG drawings.">
<polygon fill="white" stroke="#666666" points="94,-74 0,-74 0,-55 94,-55 94,-74"/>
<text text-anchor="middle" x="47" y="-62" font-family="FreeSans" font-size="10.00">LibBoard::Board</text>
</a>
</g>
</g>
<!-- Node1&#45;&gt;Node3 -->
<g id="edge2_Node000001_Node000003" class="edge">
<title>Node1&#45;&gt;Node3</title>
<g id="a_edge2_Node000001_Node000003"><a xlink:title=" ">
<path fill="none" stroke="#63b8ff" d="M86.67,-103.04C76.74,-93.64 64.41,-81.98 56.16,-74.17"/>
<polygon fill="#63b8ff" stroke="#63b8ff" points="84.33,-105.65 94,-109.98 89.15,-100.57 84.33,-105.65"/>
</a>
</g>
</g>
<!-- Node5 -->
<g id="Node000005" class="node">
<title>Node5</title>
<g id="a_Node000005"><a xlink:href="structLibBoard_1_1Group.html" target="_top" xlink:title="A group of shapes. A group is basically a ShapeList except that when rendered in either an SVG of a F...">
<polygon fill="white" stroke="#666666" points="207.5,-74 112.5,-74 112.5,-55 207.5,-55 207.5,-74"/>
<text text-anchor="middle" x="160" y="-62" font-family="FreeSans" font-size="10.00">LibBoard::Group</text>
</a>
</g>
</g>
<!-- Node1&#45;&gt;Node5 -->
<g id="edge4_Node000001_Node000005" class="edge">
<title>Node1&#45;&gt;Node5</title>
<g id="a_edge4_Node000001_Node000005"><a xlink:title=" ">
<path fill="none" stroke="#63b8ff" d="M119.62,-103.04C129.73,-93.64 142.28,-81.98 150.68,-74.17"/>
<polygon fill="#63b8ff" stroke="#63b8ff" points="117.1,-100.61 112.16,-109.98 121.86,-105.74 117.1,-100.61"/>
</a>
</g>
</g>
<!-- Node2 -->
<g id="Node000002" class="node">
<title>Node2</title>
<g id="a_Node000002"><a xlink:href="structLibBoard_1_1Shape.html" target="_top" xlink:title="Abstract structure for a 2D shape.">
<polygon fill="white" stroke="#666666" points="150.5,-184 55.5,-184 55.5,-165 150.5,-165 150.5,-184"/>
<text text-anchor="middle" x="103" y="-172" font-family="FreeSans" font-size="10.00">LibBoard::Shape</text>
</a>
</g>
</g>
<!-- Node2&#45;&gt;Node1 -->
<g id="edge1_Node000001_Node000002" class="edge">
<title>Node2&#45;&gt;Node1</title>
<g id="a_edge1_Node000001_Node000002"><a xlink:title=" ">
<path fill="none" stroke="#63b8ff" d="M103,-154.66C103,-145.93 103,-135.99 103,-129.09"/>
<polygon fill="#63b8ff" stroke="#63b8ff" points="99.5,-154.75 103,-164.75 106.5,-154.75 99.5,-154.75"/>
</a>
</g>
</g>
<!-- Node4 -->
<g id="Node000004" class="node">
<title>Node4</title>
<g id="a_Node000004"><a xlink:href="classDGtal_1_1Board2D.html" target="_top" xlink:title="Aim: This class specializes a &#39;Board&#39; class so as to display DGtal objects more naturally (with &lt;&lt;)....">
<polygon fill="white" stroke="#666666" points="93,-19 1,-19 1,0 93,0 93,-19"/>
<text text-anchor="middle" x="47" y="-7" font-family="FreeSans" font-size="10.00">DGtal::Board2D</text>
</a>
</g>
</g>
<!-- Node3&#45;&gt;Node4 -->
<g id="edge3_Node000003_Node000004" class="edge">
<title>Node3&#45;&gt;Node4</title>
<g id="a_edge3_Node000003_Node000004"><a xlink:title=" ">
<path fill="none" stroke="#63b8ff" d="M47,-44.66C47,-35.93 47,-25.99 47,-19.09"/>
<polygon fill="#63b8ff" stroke="#63b8ff" points="43.5,-44.75 47,-54.75 50.5,-44.75 43.5,-44.75"/>
</a>
</g>
</g>
</g>
</svg>
