<?xml version="1.0" encoding="UTF-8" standalone="no"?>
<!DOCTYPE svg PUBLIC "-//W3C//DTD SVG 1.1//EN"
 "http://www.w3.org/Graphics/SVG/1.1/DTD/svg11.dtd">
<!-- Generated by graphviz version 2.43.0 (0)
 -->
<!-- Title: DGtal::Quantity&lt; T &gt; Pages: 1 -->
<svg width="428pt" height="124pt"
 viewBox="0.00 0.00 428.00 123.50" xmlns="http://www.w3.org/2000/svg" xmlns:xlink="http://www.w3.org/1999/xlink">

<svg id="main" version="1.1" xmlns="http://www.w3.org/2000/svg" xmlns:xlink="http://www.w3.org/1999/xlink" xml:space="preserve" onload="init(evt)">
<style type="text/css"><![CDATA[
.node, .edge {opacity: 0.7;}
.node.selected, .edge.selected {opacity: 1;}
.edge:hover path { stroke: red; }
.edge:hover polygon { stroke: red; fill: red; }
]]></style>
<script type="application/ecmascript" xlink:href="svg.min.js"/>
<svg id="graph" class="graph">
<g id="graph0" class="graph" transform="scale(1 1) rotate(0) translate(4 119.5)">
<title>DGtal::Quantity&lt; T &gt;</title>
<!-- Node1 -->
<g id="Node000001" class="node">
<title>Node1</title>
<g id="a_Node000001"><a xlink:title="Wrapper for array of quantities.">
<polygon fill="#999999" stroke="#666666" points="121,-62 0,-62 0,-43 121,-43 121,-62"/>
<text text-anchor="middle" x="60.5" y="-50" font-family="FreeSans" font-size="10.00">DGtal::Quantity&lt; T &gt;</text>
</a>
</g>
</g>
<!-- Node2 -->
<g id="Node000002" class="node">
<title>Node2</title>
<g id="a_Node000002"><a xlink:href="structDGtal_1_1Quantity.html" target="_top" xlink:title=" ">
<polygon fill="white" stroke="#666666" points="411.5,-115.5 280.5,-115.5 280.5,-85.5 411.5,-85.5 411.5,-115.5"/>
<text text-anchor="start" x="288.5" y="-103.5" font-family="FreeSans" font-size="10.00">DGtal::Quantity&lt; DGtal</text>
<text text-anchor="middle" x="346" y="-92.5" font-family="FreeSans" font-size="10.00">::Color &gt;</text>
</a>
</g>
</g>
<!-- Node1&#45;&gt;Node2 -->
<g id="edge1_Node000001_Node000002" class="edge">
<title>Node1&#45;&gt;Node2</title>
<g id="a_edge1_Node000001_Node000002"><a xlink:title=" ">
<path fill="none" stroke="orange" stroke-dasharray="5,2" d="M119.61,-63.96C126.15,-65.18 132.71,-66.39 139,-67.5 186.26,-75.86 239.78,-84.4 280.42,-90.7"/>
<polygon fill="orange" stroke="orange" points="119.89,-60.45 109.41,-62.02 118.58,-67.33 119.89,-60.45"/>
</a>
</g>
<text text-anchor="middle" x="196.5" y="-88.5" font-family="FreeSans" font-size="10.00" fill="grey"> &lt; DGtal::Color &gt;</text>
</g>
<!-- Node3 -->
<g id="Node000003" class="node">
<title>Node3</title>
<g id="a_Node000003"><a xlink:href="structDGtal_1_1Quantity.html" target="_top" xlink:title=" ">
<polygon fill="white" stroke="#666666" points="411.5,-67.5 280.5,-67.5 280.5,-37.5 411.5,-37.5 411.5,-67.5"/>
<text text-anchor="start" x="288.5" y="-55.5" font-family="FreeSans" font-size="10.00">DGtal::Quantity&lt; DGtal</text>
<text text-anchor="middle" x="346" y="-44.5" font-family="FreeSans" font-size="10.00">::PointVector &gt;</text>
</a>
</g>
</g>
<!-- Node1&#45;&gt;Node3 -->
<g id="edge2_Node000001_Node000003" class="edge">
<title>Node1&#45;&gt;Node3</title>
<g id="a_edge2_Node000001_Node000003"><a xlink:title=" ">
<path fill="none" stroke="orange" stroke-dasharray="5,2" d="M131.37,-52.5C176.91,-52.5 235.91,-52.5 280.37,-52.5"/>
<polygon fill="orange" stroke="orange" points="131.28,-49 121.28,-52.5 131.28,-56 131.28,-49"/>
</a>
</g>
<text text-anchor="middle" x="196.5" y="-55.5" font-family="FreeSans" font-size="10.00" fill="grey"> &lt; DGtal::PointVector &gt;</text>
</g>
<!-- Node4 -->
<g id="Node000004" class="node">
<title>Node4</title>
<g id="a_Node000004"><a xlink:href="structDGtal_1_1Quantity.html" target="_top" xlink:title=" ">
<polygon fill="white" stroke="#666666" points="420,-19 272,-19 272,0 420,0 420,-19"/>
<text text-anchor="middle" x="346" y="-7" font-family="FreeSans" font-size="10.00">DGtal::Quantity&lt; double &gt;</text>
</a>
</g>
</g>
<!-- Node1&#45;&gt;Node4 -->
<g id="edge3_Node000001_Node000004" class="edge">
<title>Node1&#45;&gt;Node4</title>
<g id="a_edge3_Node000001_Node000004"><a xlink:title=" ">
<path fill="none" stroke="orange" stroke-dasharray="5,2" d="M118.55,-41.08C125.43,-39.82 132.37,-38.59 139,-37.5 182.98,-30.26 232.47,-23.49 271.92,-18.42"/>
<polygon fill="orange" stroke="orange" points="117.74,-37.67 108.56,-42.95 119.03,-44.55 117.74,-37.67"/>
</a>
</g>
<text text-anchor="middle" x="196.5" y="-40.5" font-family="FreeSans" font-size="10.00" fill="grey"> &lt; double &gt;</text>
</g>
</g>
</svg>
</svg>

<style type='text/css'>
<![CDATA[
[data-mouse-over-selected='false'] { opacity: 0.7; }
[data-mouse-over-selected='true']  { opacity: 1.0; }
]]>
</style>
<script type="application/ecmascript"><![CDATA[
document.addEventListener('DOMContentLoaded', (event) => {
  highlightEdges();
  highlightAdjacentNodes();
});
]]></script>
</svg>
