<?xml version="1.0" encoding="UTF-8" standalone="no"?>
<!DOCTYPE svg PUBLIC "-//W3C//DTD SVG 1.1//EN"
 "http://www.w3.org/Graphics/SVG/1.1/DTD/svg11.dtd">
<!-- Generated by graphviz version 2.43.0 (0)
 -->
<!-- Title: DGtal::PairAssociativeCategory Pages: 1 -->
<svg width="757pt" height="172pt"
 viewBox="0.00 0.00 757.00 171.50" xmlns="http://www.w3.org/2000/svg" xmlns:xlink="http://www.w3.org/1999/xlink">
<g id="graph0" class="graph" transform="scale(1 1) rotate(0) translate(4 167.5)">
<title>DGtal::PairAssociativeCategory</title>
<!-- Node1 -->
<g id="Node000001" class="node">
<title>Node1</title>
<g id="a_Node000001"><a xlink:title=" ">
<polygon fill="#999999" stroke="#666666" points="534,-96.5 365,-96.5 365,-77.5 534,-77.5 534,-96.5"/>
<text text-anchor="middle" x="449.5" y="-84.5" font-family="FreeSans" font-size="10.00">DGtal::PairAssociativeCategory</text>
</a>
</g>
</g>
<!-- Node4 -->
<g id="Node000004" class="node">
<title>Node4</title>
<g id="a_Node000004"><a xlink:href="structDGtal_1_1MapAssociativeCategory.html" target="_top" xlink:title=" ">
<polygon fill="white" stroke="#666666" points="745.5,-163.5 573.5,-163.5 573.5,-144.5 745.5,-144.5 745.5,-163.5"/>
<text text-anchor="middle" x="659.5" y="-151.5" font-family="FreeSans" font-size="10.00">DGtal::MapAssociativeCategory</text>
</a>
</g>
</g>
<!-- Node1&#45;&gt;Node4 -->
<g id="edge3_Node000001_Node000004" class="edge">
<title>Node1&#45;&gt;Node4</title>
<g id="a_edge3_Node000001_Node000004"><a xlink:title=" ">
<path fill="none" stroke="#63b8ff" d="M480.49,-100.71C504.35,-111.21 538.81,-125.46 570,-135 581.72,-138.58 594.52,-141.75 606.64,-144.41"/>
<polygon fill="#63b8ff" stroke="#63b8ff" points="481.82,-97.47 471.26,-96.6 478.98,-103.87 481.82,-97.47"/>
</a>
</g>
</g>
<!-- Node5 -->
<g id="Node000005" class="node">
<title>Node5</title>
<g id="a_Node000005"><a xlink:href="structDGtal_1_1MultimapAssociativeCategory.html" target="_top" xlink:title=" ">
<polygon fill="white" stroke="#666666" points="736,-126 583,-126 583,-96 736,-96 736,-126"/>
<text text-anchor="start" x="591" y="-114" font-family="FreeSans" font-size="10.00">DGtal::MultimapAssociative</text>
<text text-anchor="middle" x="659.5" y="-103" font-family="FreeSans" font-size="10.00">Category</text>
</a>
</g>
</g>
<!-- Node1&#45;&gt;Node5 -->
<g id="edge4_Node000001_Node000005" class="edge">
<title>Node1&#45;&gt;Node5</title>
<g id="a_edge4_Node000001_Node000005"><a xlink:title=" ">
<path fill="none" stroke="#63b8ff" d="M543.11,-97.69C556.4,-99.22 569.94,-100.78 582.85,-102.27"/>
<polygon fill="#63b8ff" stroke="#63b8ff" points="543.34,-94.19 533.01,-96.52 542.54,-101.14 543.34,-94.19"/>
</a>
</g>
</g>
<!-- Node6 -->
<g id="Node000006" class="node">
<title>Node6</title>
<g id="a_Node000006"><a xlink:href="structDGtal_1_1UnorderedMapAssociativeCategory.html" target="_top" xlink:title=" ">
<polygon fill="white" stroke="#666666" points="749,-78 570,-78 570,-48 749,-48 749,-78"/>
<text text-anchor="start" x="578" y="-66" font-family="FreeSans" font-size="10.00">DGtal::UnorderedMapAssociative</text>
<text text-anchor="middle" x="659.5" y="-55" font-family="FreeSans" font-size="10.00">Category</text>
</a>
</g>
</g>
<!-- Node1&#45;&gt;Node6 -->
<g id="edge5_Node000001_Node000006" class="edge">
<title>Node1&#45;&gt;Node6</title>
<g id="a_edge5_Node000001_Node000006"><a xlink:title=" ">
<path fill="none" stroke="#63b8ff" d="M543.04,-76.32C551.98,-75.29 561.04,-74.25 569.94,-73.22"/>
<polygon fill="#63b8ff" stroke="#63b8ff" points="542.54,-72.86 533.01,-77.48 543.34,-79.81 542.54,-72.86"/>
</a>
</g>
</g>
<!-- Node7 -->
<g id="Node000007" class="node">
<title>Node7</title>
<g id="a_Node000007"><a xlink:href="structDGtal_1_1UnorderedMultimapAssociativeCategory.html" target="_top" xlink:title=" ">
<polygon fill="white" stroke="#666666" points="733.5,-30 585.5,-30 585.5,0 733.5,0 733.5,-30"/>
<text text-anchor="start" x="593.5" y="-18" font-family="FreeSans" font-size="10.00">DGtal::UnorderedMultimap</text>
<text text-anchor="middle" x="659.5" y="-7" font-family="FreeSans" font-size="10.00">AssociativeCategory</text>
</a>
</g>
</g>
<!-- Node1&#45;&gt;Node7 -->
<g id="edge6_Node000001_Node000007" class="edge">
<title>Node1&#45;&gt;Node7</title>
<g id="a_edge6_Node000001_Node000007"><a xlink:title=" ">
<path fill="none" stroke="#63b8ff" d="M481.51,-73.38C505.41,-63.17 539.44,-49.24 570,-39 579.36,-35.86 589.37,-32.84 599.18,-30.06"/>
<polygon fill="#63b8ff" stroke="#63b8ff" points="480.04,-70.2 472.24,-77.37 482.81,-76.63 480.04,-70.2"/>
</a>
</g>
</g>
<!-- Node2 -->
<g id="Node000002" class="node">
<title>Node2</title>
<g id="a_Node000002"><a xlink:href="structDGtal_1_1AssociativeCategory.html" target="_top" xlink:title=" ">
<polygon fill="white" stroke="#666666" points="329,-96.5 178,-96.5 178,-77.5 329,-77.5 329,-96.5"/>
<text text-anchor="middle" x="253.5" y="-84.5" font-family="FreeSans" font-size="10.00">DGtal::AssociativeCategory</text>
</a>
</g>
</g>
<!-- Node2&#45;&gt;Node1 -->
<g id="edge1_Node000001_Node000002" class="edge">
<title>Node2&#45;&gt;Node1</title>
<g id="a_edge1_Node000001_Node000002"><a xlink:title=" ">
<path fill="none" stroke="#63b8ff" d="M339.41,-87C347.83,-87 356.37,-87 364.77,-87"/>
<polygon fill="#63b8ff" stroke="#63b8ff" points="339.23,-83.5 329.23,-87 339.23,-90.5 339.23,-83.5"/>
</a>
</g>
</g>
<!-- Node3 -->
<g id="Node000003" class="node">
<title>Node3</title>
<g id="a_Node000003"><a xlink:href="structDGtal_1_1ContainerCategory.html" target="_top" xlink:title=" ">
<polygon fill="white" stroke="#666666" points="142,-96.5 0,-96.5 0,-77.5 142,-77.5 142,-96.5"/>
<text text-anchor="middle" x="71" y="-84.5" font-family="FreeSans" font-size="10.00">DGtal::ContainerCategory</text>
</a>
</g>
</g>
<!-- Node3&#45;&gt;Node2 -->
<g id="edge2_Node000002_Node000003" class="edge">
<title>Node3&#45;&gt;Node2</title>
<g id="a_edge2_Node000002_Node000003"><a xlink:title=" ">
<path fill="none" stroke="#63b8ff" d="M152.28,-87C160.74,-87 169.32,-87 177.71,-87"/>
<polygon fill="#63b8ff" stroke="#63b8ff" points="152.04,-83.5 142.04,-87 152.04,-90.5 152.04,-83.5"/>
</a>
</g>
</g>
</g>
</svg>
