<?xml version="1.0" encoding="UTF-8" standalone="no"?>
<!DOCTYPE svg PUBLIC "-//W3C//DTD SVG 1.1//EN"
 "http://www.w3.org/Graphics/SVG/1.1/DTD/svg11.dtd">
<!-- Generated by graphviz version 2.43.0 (0)
 -->
<!-- Title: DGtal::DrawWithDisplay3DModifier Pages: 1 -->
<svg width="638pt" height="394pt"
 viewBox="0.00 0.00 638.00 393.50" xmlns="http://www.w3.org/2000/svg" xmlns:xlink="http://www.w3.org/1999/xlink">
<g id="graph0" class="graph" transform="scale(1 1) rotate(0) translate(4 389.5)">
<title>DGtal::DrawWithDisplay3DModifier</title>
<polygon fill="white" stroke="transparent" points="-4,4 -4,-389.5 634,-389.5 634,4 -4,4"/>
<!-- Node1 -->
<g id="node1" class="node">
<title>Node1</title>
<g id="a_node1"><a xlink:title="Base class specifying the methods for classes which intend to modify a Viewer3D stream.">
<polygon fill="#bfbfbf" stroke="black" points="0,-158 0,-177 188,-177 188,-158 0,-158"/>
<text text-anchor="middle" x="94" y="-165" font-family="FreeSans" font-size="10.00">DGtal::DrawWithDisplay3DModifier</text>
</a>
</g>
</g>
<!-- Node2 -->
<g id="node2" class="node">
<title>Node2</title>
<g id="a_node2"><a xlink:href="structDGtal_1_1ClippingPlane.html" target="_top" xlink:title="Class for adding a Clipping plane through the Viewer3D stream. Realizes the concept CDrawableWithView...">
<polygon fill="white" stroke="black" points="258,-291 258,-310 375,-310 375,-291 258,-291"/>
<text text-anchor="middle" x="316.5" y="-298" font-family="FreeSans" font-size="10.00">DGtal::ClippingPlane</text>
</a>
</g>
</g>
<!-- Node1&#45;&gt;Node2 -->
<g id="edge1" class="edge">
<title>Node1&#45;&gt;Node2</title>
<path fill="none" stroke="midnightblue" d="M109.42,-185.06C131.37,-210.53 175.74,-257.33 224,-281.5 234.45,-286.73 246.25,-290.52 257.83,-293.27"/>
<polygon fill="midnightblue" stroke="midnightblue" points="111.99,-182.68 102.87,-177.3 106.65,-187.2 111.99,-182.68"/>
</g>
<!-- Node3 -->
<g id="node3" class="node">
<title>Node3</title>
<g id="a_node3"><a xlink:href="structDGtal_1_1CustomColors3D.html" target="_top" xlink:title=" ">
<polygon fill="white" stroke="black" points="250.5,-253 250.5,-272 382.5,-272 382.5,-253 250.5,-253"/>
<text text-anchor="middle" x="316.5" y="-260" font-family="FreeSans" font-size="10.00">DGtal::CustomColors3D</text>
</a>
</g>
</g>
<!-- Node1&#45;&gt;Node3 -->
<g id="edge2" class="edge">
<title>Node1&#45;&gt;Node3</title>
<path fill="none" stroke="midnightblue" d="M116.06,-182.86C140.72,-200.14 183.4,-227.82 224,-243.5 233.84,-247.3 244.58,-250.39 255.13,-252.9"/>
<polygon fill="midnightblue" stroke="midnightblue" points="118,-179.95 107.82,-177.01 113.95,-185.66 118,-179.95"/>
</g>
<!-- Node4 -->
<g id="node4" class="node">
<title>Node4</title>
<g id="a_node4"><a xlink:href="structDGtal_1_1CustomStyle3D.html" target="_top" xlink:title="Modifier class in a Display3D stream. Useful to choose your own style for a given class....">
<polygon fill="white" stroke="black" points="253.5,-215 253.5,-234 379.5,-234 379.5,-215 253.5,-215"/>
<text text-anchor="middle" x="316.5" y="-222" font-family="FreeSans" font-size="10.00">DGtal::CustomStyle3D</text>
</a>
</g>
</g>
<!-- Node1&#45;&gt;Node4 -->
<g id="edge3" class="edge">
<title>Node1&#45;&gt;Node4</title>
<path fill="none" stroke="midnightblue" d="M134.44,-180.03C159.86,-187.88 193.71,-197.91 224,-205.5 237.53,-208.89 252.3,-212.15 265.95,-214.98"/>
<polygon fill="midnightblue" stroke="midnightblue" points="135.37,-176.65 124.79,-177.03 133.3,-183.34 135.37,-176.65"/>
</g>
<!-- Node5 -->
<g id="node5" class="node">
<title>Node5</title>
<g id="a_node5"><a xlink:href="structDGtal_1_1DrawWithViewer3DModifier.html" target="_top" xlink:title="Base class specifying the methods for classes which intend to modify a Viewer3D stream.">
<polygon fill="white" stroke="black" points="224,-177 224,-196 409,-196 409,-177 224,-177"/>
<text text-anchor="middle" x="316.5" y="-184" font-family="FreeSans" font-size="10.00">DGtal::DrawWithViewer3DModifier</text>
</a>
</g>
</g>
<!-- Node1&#45;&gt;Node5 -->
<g id="edge4" class="edge">
<title>Node1&#45;&gt;Node5</title>
<path fill="none" stroke="midnightblue" d="M198.16,-176.39C206.68,-177.12 215.26,-177.86 223.7,-178.59"/>
<polygon fill="midnightblue" stroke="midnightblue" points="198.46,-172.9 188.19,-175.53 197.85,-179.88 198.46,-172.9"/>
</g>
<!-- Node14 -->
<g id="node14" class="node">
<title>Node14</title>
<g id="a_node14"><a xlink:href="structDGtal_1_1SetMode3D.html" target="_top" xlink:title="Modifier class in a Display3D stream. Useful to choose your own mode for a given class....">
<polygon fill="white" stroke="black" points="263,-139 263,-158 370,-158 370,-139 263,-139"/>
<text text-anchor="middle" x="316.5" y="-146" font-family="FreeSans" font-size="10.00">DGtal::SetMode3D</text>
</a>
</g>
</g>
<!-- Node1&#45;&gt;Node14 -->
<g id="edge13" class="edge">
<title>Node1&#45;&gt;Node14</title>
<path fill="none" stroke="midnightblue" d="M198.41,-158.59C220.73,-156.67 243.42,-154.71 262.81,-153.04"/>
<polygon fill="midnightblue" stroke="midnightblue" points="197.85,-155.12 188.19,-159.47 198.46,-162.1 197.85,-155.12"/>
</g>
<!-- Node15 -->
<g id="node15" class="node">
<title>Node15</title>
<g id="a_node15"><a xlink:href="structDGtal_1_1SetName3D.html" target="_top" xlink:title=" ">
<polygon fill="white" stroke="black" points="262,-101 262,-120 371,-120 371,-101 262,-101"/>
<text text-anchor="middle" x="316.5" y="-108" font-family="FreeSans" font-size="10.00">DGtal::SetName3D</text>
</a>
</g>
</g>
<!-- Node1&#45;&gt;Node15 -->
<g id="edge14" class="edge">
<title>Node1&#45;&gt;Node15</title>
<path fill="none" stroke="midnightblue" d="M134.44,-154.97C159.86,-147.12 193.71,-137.09 224,-129.5 237.53,-126.11 252.3,-122.85 265.95,-120.02"/>
<polygon fill="midnightblue" stroke="midnightblue" points="133.3,-151.66 124.79,-157.97 135.37,-158.35 133.3,-151.66"/>
</g>
<!-- Node16 -->
<g id="node16" class="node">
<title>Node16</title>
<g id="a_node16"><a xlink:href="structDGtal_1_1SetSelectCallback3D.html" target="_top" xlink:title=" ">
<polygon fill="white" stroke="black" points="240.5,-63 240.5,-82 392.5,-82 392.5,-63 240.5,-63"/>
<text text-anchor="middle" x="316.5" y="-70" font-family="FreeSans" font-size="10.00">DGtal::SetSelectCallback3D</text>
</a>
</g>
</g>
<!-- Node1&#45;&gt;Node16 -->
<g id="edge15" class="edge">
<title>Node1&#45;&gt;Node16</title>
<path fill="none" stroke="midnightblue" d="M116.06,-152.14C140.72,-134.86 183.4,-107.18 224,-91.5 233.84,-87.7 244.58,-84.61 255.13,-82.1"/>
<polygon fill="midnightblue" stroke="midnightblue" points="113.95,-149.34 107.82,-157.99 118,-155.05 113.95,-149.34"/>
</g>
<!-- Node17 -->
<g id="node17" class="node">
<title>Node17</title>
<g id="a_node17"><a xlink:href="structDGtal_1_1TransformedPrism.html" target="_top" xlink:title="class to modify the position and scale to construct better illustration mode.">
<polygon fill="white" stroke="black" points="247,-25 247,-44 386,-44 386,-25 247,-25"/>
<text text-anchor="middle" x="316.5" y="-32" font-family="FreeSans" font-size="10.00">DGtal::TransformedPrism</text>
</a>
</g>
</g>
<!-- Node1&#45;&gt;Node17 -->
<g id="edge16" class="edge">
<title>Node1&#45;&gt;Node17</title>
<path fill="none" stroke="midnightblue" d="M109.42,-149.94C131.37,-124.47 175.74,-77.67 224,-53.5 231.69,-49.65 240.12,-46.58 248.65,-44.13"/>
<polygon fill="midnightblue" stroke="midnightblue" points="106.65,-147.8 102.87,-157.7 111.99,-152.32 106.65,-147.8"/>
</g>
<!-- Node6 -->
<g id="node6" class="node">
<title>Node6</title>
<g id="a_node6"><a xlink:href="structDGtal_1_1AddTextureImage2DWithFunctor.html" target="_top" xlink:title="class to insert a custom 2D textured image by using a conversion functor and allows to change the def...">
<polygon fill="white" stroke="black" points="450.5,-344 450.5,-385 624.5,-385 624.5,-344 450.5,-344"/>
<text text-anchor="start" x="458.5" y="-373" font-family="FreeSans" font-size="10.00">DGtal::AddTextureImage2DWith</text>
<text text-anchor="start" x="458.5" y="-362" font-family="FreeSans" font-size="10.00">Functor&lt; TImageType, TFunctor,</text>
<text text-anchor="middle" x="537.5" y="-351" font-family="FreeSans" font-size="10.00"> Space, KSpace &gt;</text>
</a>
</g>
</g>
<!-- Node5&#45;&gt;Node6 -->
<g id="edge5" class="edge">
<title>Node5&#45;&gt;Node6</title>
<path fill="none" stroke="midnightblue" d="M404.25,-201.54C405.9,-202.77 407.49,-204.09 409,-205.5 452.48,-246.15 403.86,-291.48 445,-334.5 448.35,-338 452.12,-341.1 456.16,-343.83"/>
<polygon fill="midnightblue" stroke="midnightblue" points="405.83,-198.4 395.5,-196.09 402.13,-204.34 405.83,-198.4"/>
</g>
<!-- Node7 -->
<g id="node7" class="node">
<title>Node7</title>
<g id="a_node7"><a xlink:href="structDGtal_1_1AddTextureImage3DWithFunctor.html" target="_top" xlink:title="class to insert a custom 3D textured image by using a conversion functor and allows to change the def...">
<polygon fill="white" stroke="black" points="450.5,-284 450.5,-325 624.5,-325 624.5,-284 450.5,-284"/>
<text text-anchor="start" x="458.5" y="-313" font-family="FreeSans" font-size="10.00">DGtal::AddTextureImage3DWith</text>
<text text-anchor="start" x="458.5" y="-302" font-family="FreeSans" font-size="10.00">Functor&lt; TImageType, TFunctor,</text>
<text text-anchor="middle" x="537.5" y="-291" font-family="FreeSans" font-size="10.00"> Space, KSpace &gt;</text>
</a>
</g>
</g>
<!-- Node5&#45;&gt;Node7 -->
<g id="edge6" class="edge">
<title>Node5&#45;&gt;Node7</title>
<path fill="none" stroke="midnightblue" d="M401.55,-200.6C404.14,-202.08 406.63,-203.71 409,-205.5 436.59,-226.36 418.62,-252.13 445,-274.5 449.21,-278.07 453.85,-281.21 458.75,-283.99"/>
<polygon fill="midnightblue" stroke="midnightblue" points="402.91,-197.37 392.4,-196.09 399.82,-203.65 402.91,-197.37"/>
</g>
<!-- Node8 -->
<g id="node8" class="node">
<title>Node8</title>
<g id="a_node8"><a xlink:href="structDGtal_1_1Translate2DDomain.html" target="_top" xlink:title="class to modify the data of an given image and also the possibility to translate it (optional).">
<polygon fill="white" stroke="black" points="464.5,-246 464.5,-265 610.5,-265 610.5,-246 464.5,-246"/>
<text text-anchor="middle" x="537.5" y="-253" font-family="FreeSans" font-size="10.00">DGtal::Translate2DDomain</text>
</a>
</g>
</g>
<!-- Node5&#45;&gt;Node8 -->
<g id="edge7" class="edge">
<title>Node5&#45;&gt;Node8</title>
<path fill="none" stroke="midnightblue" d="M393.54,-199.12C398.88,-200.97 404.09,-203.08 409,-205.5 427.94,-214.83 426.06,-227.17 445,-236.5 452.86,-240.37 461.47,-243.46 470.18,-245.91"/>
<polygon fill="midnightblue" stroke="midnightblue" points="394.41,-195.73 383.82,-196.09 392.33,-202.41 394.41,-195.73"/>
</g>
<!-- Node9 -->
<g id="node9" class="node">
<title>Node9</title>
<g id="a_node9"><a xlink:href="structDGtal_1_1Update2DDomainPosition.html" target="_top" xlink:title="class to modify the position and orientation of an 2D domain.">
<polygon fill="white" stroke="black" points="449.5,-196.5 449.5,-226.5 625.5,-226.5 625.5,-196.5 449.5,-196.5"/>
<text text-anchor="start" x="457.5" y="-214.5" font-family="FreeSans" font-size="10.00">DGtal::Update2DDomainPosition</text>
<text text-anchor="middle" x="537.5" y="-203.5" font-family="FreeSans" font-size="10.00">&lt; Space, KSpace &gt;</text>
</a>
</g>
</g>
<!-- Node5&#45;&gt;Node9 -->
<g id="edge8" class="edge">
<title>Node5&#45;&gt;Node9</title>
<path fill="none" stroke="midnightblue" d="M411.03,-197.18C423.73,-198.63 436.73,-200.11 449.31,-201.55"/>
<polygon fill="midnightblue" stroke="midnightblue" points="411.25,-193.68 400.92,-196.02 410.46,-200.63 411.25,-193.68"/>
</g>
<!-- Node10 -->
<g id="node10" class="node">
<title>Node10</title>
<g id="a_node10"><a xlink:href="structDGtal_1_1UpdateImage3DEmbedding.html" target="_top" xlink:title="class to modify the 3d embedding of the image (useful to display not only 2D slice images)....">
<polygon fill="white" stroke="black" points="445,-147.5 445,-177.5 630,-177.5 630,-147.5 445,-147.5"/>
<text text-anchor="start" x="453" y="-165.5" font-family="FreeSans" font-size="10.00">DGtal::UpdateImage3DEmbedding</text>
<text text-anchor="middle" x="537.5" y="-154.5" font-family="FreeSans" font-size="10.00">&lt; Space, KSpace &gt;</text>
</a>
</g>
</g>
<!-- Node5&#45;&gt;Node10 -->
<g id="edge9" class="edge">
<title>Node5&#45;&gt;Node10</title>
<path fill="none" stroke="midnightblue" d="M414.38,-175.88C424.46,-174.78 434.68,-173.66 444.7,-172.56"/>
<polygon fill="midnightblue" stroke="midnightblue" points="413.93,-172.41 404.37,-176.98 414.69,-179.37 413.93,-172.41"/>
</g>
<!-- Node11 -->
<g id="node11" class="node">
<title>Node11</title>
<g id="a_node11"><a xlink:href="structDGtal_1_1UpdateImageData.html" target="_top" xlink:title="class to modify the data of an given image and also the possibility to translate it (optional).">
<polygon fill="white" stroke="black" points="464.5,-98.5 464.5,-128.5 610.5,-128.5 610.5,-98.5 464.5,-98.5"/>
<text text-anchor="start" x="472.5" y="-116.5" font-family="FreeSans" font-size="10.00">DGtal::UpdateImageData</text>
<text text-anchor="middle" x="537.5" y="-105.5" font-family="FreeSans" font-size="10.00">&lt; TImageType, TFunctor &gt;</text>
</a>
</g>
</g>
<!-- Node5&#45;&gt;Node11 -->
<g id="edge10" class="edge">
<title>Node5&#45;&gt;Node11</title>
<path fill="none" stroke="midnightblue" d="M392.44,-174.03C398.15,-172.15 403.74,-169.99 409,-167.5 427.58,-158.72 426.7,-147.85 445,-138.5 452.48,-134.68 460.61,-131.39 468.83,-128.57"/>
<polygon fill="midnightblue" stroke="midnightblue" points="391.31,-170.71 382.74,-176.94 393.32,-177.42 391.31,-170.71"/>
</g>
<!-- Node12 -->
<g id="node12" class="node">
<title>Node12</title>
<g id="a_node12"><a xlink:href="structDGtal_1_1UpdateImagePosition.html" target="_top" xlink:title="class to modify the position and orientation of an textured 2D image.">
<polygon fill="white" stroke="black" points="460,-49.5 460,-79.5 615,-79.5 615,-49.5 460,-49.5"/>
<text text-anchor="start" x="468" y="-67.5" font-family="FreeSans" font-size="10.00">DGtal::UpdateImagePosition</text>
<text text-anchor="middle" x="537.5" y="-56.5" font-family="FreeSans" font-size="10.00">&lt; Space, KSpace &gt;</text>
</a>
</g>
</g>
<!-- Node5&#45;&gt;Node12 -->
<g id="edge11" class="edge">
<title>Node5&#45;&gt;Node12</title>
<path fill="none" stroke="midnightblue" d="M402.35,-172.13C404.67,-170.72 406.89,-169.18 409,-167.5 438.89,-143.74 415.86,-114.17 445,-89.5 449.52,-85.67 454.59,-82.42 459.94,-79.67"/>
<polygon fill="midnightblue" stroke="midnightblue" points="400.3,-169.25 393.05,-176.98 403.54,-175.46 400.3,-169.25"/>
</g>
<!-- Node13 -->
<g id="node13" class="node">
<title>Node13</title>
<g id="a_node13"><a xlink:href="structDGtal_1_1UpdateLastImagePosition.html" target="_top" xlink:title="class to modify the position and orientation of an textured 2D image.">
<polygon fill="white" stroke="black" points="449.5,-0.5 449.5,-30.5 625.5,-30.5 625.5,-0.5 449.5,-0.5"/>
<text text-anchor="start" x="457.5" y="-18.5" font-family="FreeSans" font-size="10.00">DGtal::UpdateLastImagePosition</text>
<text text-anchor="middle" x="537.5" y="-7.5" font-family="FreeSans" font-size="10.00">&lt; Space, KSpace &gt;</text>
</a>
</g>
</g>
<!-- Node5&#45;&gt;Node13 -->
<g id="edge12" class="edge">
<title>Node5&#45;&gt;Node13</title>
<path fill="none" stroke="midnightblue" d="M404.24,-171.46C405.9,-170.23 407.49,-168.91 409,-167.5 452.21,-127.19 402.85,-80.92 445,-39.5 448.51,-36.05 452.46,-33.07 456.69,-30.52"/>
<polygon fill="midnightblue" stroke="midnightblue" points="402.13,-168.65 395.49,-176.91 405.83,-174.6 402.13,-168.65"/>
</g>
</g>
</svg>
