<?xml version="1.0" encoding="UTF-8" standalone="no"?>
<!DOCTYPE svg PUBLIC "-//W3C//DTD SVG 1.1//EN"
 "http://www.w3.org/Graphics/SVG/1.1/DTD/svg11.dtd">
<!-- Generated by graphviz version 2.43.0 (0)
 -->
<!-- Title: DGtal::concepts::CMatrix&lt; T &gt; Pages: 1 -->
<svg width="748pt" height="172pt"
 viewBox="0.00 0.00 748.00 171.50" xmlns="http://www.w3.org/2000/svg" xmlns:xlink="http://www.w3.org/1999/xlink">
<g id="graph0" class="graph" transform="scale(1 1) rotate(0) translate(4 167.5)">
<title>DGtal::concepts::CMatrix&lt; T &gt;</title>
<!-- Node1 -->
<g id="Node000001" class="node">
<title>Node1</title>
<g id="a_Node000001"><a xlink:title="Aim: Represent any static or dynamic sized matrix having sparse or dense representation.">
<polygon fill="#999999" stroke="#666666" points="507,-96.5 340,-96.5 340,-77.5 507,-77.5 507,-96.5"/>
<text text-anchor="middle" x="423.5" y="-84.5" font-family="FreeSans" font-size="10.00">DGtal::concepts::CMatrix&lt; T &gt;</text>
</a>
</g>
</g>
<!-- Node4 -->
<g id="Node000004" class="node">
<title>Node4</title>
<g id="a_Node000004"><a xlink:href="structDGtal_1_1concepts_1_1CDenseMatrix.html" target="_top" xlink:title="Aim: Represent any dynamic or static sized matrix having dense representation.">
<polygon fill="white" stroke="#666666" points="740,-163.5 543,-163.5 543,-144.5 740,-144.5 740,-163.5"/>
<text text-anchor="middle" x="641.5" y="-151.5" font-family="FreeSans" font-size="10.00">DGtal::concepts::CDenseMatrix&lt; T &gt;</text>
</a>
</g>
</g>
<!-- Node1&#45;&gt;Node4 -->
<g id="edge3_Node000001_Node000004" class="edge">
<title>Node1&#45;&gt;Node4</title>
<g id="a_edge3_Node000001_Node000004"><a xlink:title=" ">
<path fill="none" stroke="#63b8ff" d="M453.75,-100.69C477.4,-111.31 511.77,-125.73 543,-135 555.4,-138.68 568.9,-141.84 581.8,-144.46"/>
<polygon fill="#63b8ff" stroke="#63b8ff" points="455.18,-97.5 444.62,-96.54 452.28,-103.87 455.18,-97.5"/>
</a>
</g>
</g>
<!-- Node5 -->
<g id="Node000005" class="node">
<title>Node5</title>
<g id="a_Node000005"><a xlink:href="structDGtal_1_1concepts_1_1CDynamicMatrix.html" target="_top" xlink:title="Aim: Represent any dynamic sized matrix having sparse or dense representation.">
<polygon fill="white" stroke="#666666" points="716.5,-126 566.5,-126 566.5,-96 716.5,-96 716.5,-126"/>
<text text-anchor="start" x="574.5" y="-114" font-family="FreeSans" font-size="10.00">DGtal::concepts::CDynamic</text>
<text text-anchor="middle" x="641.5" y="-103" font-family="FreeSans" font-size="10.00">Matrix&lt; T &gt;</text>
</a>
</g>
</g>
<!-- Node1&#45;&gt;Node5 -->
<g id="edge4_Node000001_Node000005" class="edge">
<title>Node1&#45;&gt;Node5</title>
<g id="a_edge4_Node000001_Node000005"><a xlink:title=" ">
<path fill="none" stroke="#63b8ff" d="M517.25,-97.31C533.69,-99.13 550.61,-101.01 566.45,-102.77"/>
<polygon fill="#63b8ff" stroke="#63b8ff" points="517.41,-93.8 507.08,-96.18 516.64,-100.76 517.41,-93.8"/>
</a>
</g>
</g>
<!-- Node6 -->
<g id="Node000006" class="node">
<title>Node6</title>
<g id="a_Node000006"><a xlink:href="structDGtal_1_1concepts_1_1CSparseMatrix.html" target="_top" xlink:title="Aim: Represent any dynamic or static sized matrix having sparse representation.">
<polygon fill="white" stroke="#666666" points="719,-78 564,-78 564,-48 719,-48 719,-78"/>
<text text-anchor="start" x="572" y="-66" font-family="FreeSans" font-size="10.00">DGtal::concepts::CSparse</text>
<text text-anchor="middle" x="641.5" y="-55" font-family="FreeSans" font-size="10.00">Matrix&lt; T, TripletInterator &gt;</text>
</a>
</g>
</g>
<!-- Node1&#45;&gt;Node6 -->
<g id="edge5_Node000001_Node000006" class="edge">
<title>Node1&#45;&gt;Node6</title>
<g id="a_edge5_Node000001_Node000006"><a xlink:title=" ">
<path fill="none" stroke="#63b8ff" d="M517.25,-76.69C532.85,-74.96 548.87,-73.18 563.99,-71.5"/>
<polygon fill="#63b8ff" stroke="#63b8ff" points="516.64,-73.24 507.08,-77.82 517.41,-80.2 516.64,-73.24"/>
</a>
</g>
</g>
<!-- Node7 -->
<g id="Node000007" class="node">
<title>Node7</title>
<g id="a_Node000007"><a xlink:href="structDGtal_1_1concepts_1_1CStaticMatrix.html" target="_top" xlink:title="Aim: Represent any static sized matrix having sparse or dense representation.">
<polygon fill="white" stroke="#666666" points="708.5,-30 574.5,-30 574.5,0 708.5,0 708.5,-30"/>
<text text-anchor="start" x="582.5" y="-18" font-family="FreeSans" font-size="10.00">DGtal::concepts::CStatic</text>
<text text-anchor="middle" x="641.5" y="-7" font-family="FreeSans" font-size="10.00">Matrix&lt; T &gt;</text>
</a>
</g>
</g>
<!-- Node1&#45;&gt;Node7 -->
<g id="edge6_Node000001_Node000007" class="edge">
<title>Node1&#45;&gt;Node7</title>
<g id="a_edge6_Node000001_Node000007"><a xlink:title=" ">
<path fill="none" stroke="#63b8ff" d="M454.74,-73.35C478.42,-63 512.38,-48.91 543,-39 553.03,-35.75 563.77,-32.7 574.32,-29.93"/>
<polygon fill="#63b8ff" stroke="#63b8ff" points="453.3,-70.15 445.57,-77.39 456.13,-76.56 453.3,-70.15"/>
</a>
</g>
</g>
<!-- Node2 -->
<g id="Node000002" class="node">
<title>Node2</title>
<g id="a_Node000002"><a xlink:href="structDGtal_1_1concepts_1_1CVectorSpace.html" target="_top" xlink:title="Aim: Base concept for vector space structure.">
<polygon fill="white" stroke="#666666" points="304,-102 167,-102 167,-72 304,-72 304,-102"/>
<text text-anchor="start" x="175" y="-90" font-family="FreeSans" font-size="10.00">DGtal::concepts::CVector</text>
<text text-anchor="middle" x="235.5" y="-79" font-family="FreeSans" font-size="10.00">Space&lt; T &gt;</text>
</a>
</g>
</g>
<!-- Node2&#45;&gt;Node1 -->
<g id="edge1_Node000001_Node000002" class="edge">
<title>Node2&#45;&gt;Node1</title>
<g id="a_edge1_Node000001_Node000002"><a xlink:title=" ">
<path fill="none" stroke="#63b8ff" d="M314.39,-87C322.85,-87 331.48,-87 339.99,-87"/>
<polygon fill="#63b8ff" stroke="#63b8ff" points="314.18,-83.5 304.18,-87 314.18,-90.5 314.18,-83.5"/>
</a>
</g>
</g>
<!-- Node3 -->
<g id="Node000003" class="node">
<title>Node3</title>
<g id="a_Node000003"><a xlink:href="structboost_1_1Assignable.html" target="_top" xlink:title="Go to http://www.sgi.com/tech/stl/Assignable.html.">
<polygon fill="white" stroke="#666666" points="131,-96.5 0,-96.5 0,-77.5 131,-77.5 131,-96.5"/>
<text text-anchor="middle" x="65.5" y="-84.5" font-family="FreeSans" font-size="10.00">boost::Assignable&lt; T &gt;</text>
</a>
</g>
</g>
<!-- Node3&#45;&gt;Node2 -->
<g id="edge2_Node000002_Node000003" class="edge">
<title>Node3&#45;&gt;Node2</title>
<g id="a_edge2_Node000002_Node000003"><a xlink:title=" ">
<path fill="none" stroke="#63b8ff" d="M141.65,-87C150.07,-87 158.62,-87 166.94,-87"/>
<polygon fill="#63b8ff" stroke="#63b8ff" points="141.45,-83.5 131.45,-87 141.45,-90.5 141.45,-83.5"/>
</a>
</g>
</g>
</g>
</svg>
