<?xml version="1.0" encoding="UTF-8" standalone="no"?>
<!DOCTYPE svg PUBLIC "-//W3C//DTD SVG 1.1//EN"
 "http://www.w3.org/Graphics/SVG/1.1/DTD/svg11.dtd">
<!-- Generated by graphviz version 2.43.0 (0)
 -->
<!-- Title: DGtal::concepts::CVertexPredicate&lt; T &gt; Pages: 1 -->
<svg width="1502pt" height="88pt"
 viewBox="0.00 0.00 1502.00 88.00" xmlns="http://www.w3.org/2000/svg" xmlns:xlink="http://www.w3.org/1999/xlink">
<g id="graph0" class="graph" transform="scale(1 1) rotate(0) translate(4 84)">
<title>DGtal::concepts::CVertexPredicate&lt; T &gt;</title>
<polygon fill="white" stroke="transparent" points="-4,4 -4,-84 1498,-84 1498,4 -4,4"/>
<!-- Node1 -->
<g id="node1" class="node">
<title>Node1</title>
<g id="a_node1"><a xlink:title="Aim: Defines a predicate on a vertex.">
<polygon fill="#bfbfbf" stroke="black" points="1356,-26.5 1356,-56.5 1494,-56.5 1494,-26.5 1356,-26.5"/>
<text text-anchor="start" x="1364" y="-44.5" font-family="FreeSans" font-size="10.00">DGtal::concepts::CVertex</text>
<text text-anchor="middle" x="1425" y="-33.5" font-family="FreeSans" font-size="10.00">Predicate&lt; T &gt;</text>
</a>
</g>
</g>
<!-- Node2 -->
<g id="node2" class="node">
<title>Node2</title>
<g id="a_node2"><a xlink:href="structDGtal_1_1concepts_1_1CPredicate.html" target="_top" xlink:title=" ">
<polygon fill="white" stroke="black" points="1167,-26.5 1167,-56.5 1319,-56.5 1319,-26.5 1167,-26.5"/>
<text text-anchor="start" x="1175" y="-44.5" font-family="FreeSans" font-size="10.00">DGtal::concepts::CPredicate</text>
<text text-anchor="middle" x="1243" y="-33.5" font-family="FreeSans" font-size="10.00">&lt; T, T::Vertex &gt;</text>
</a>
</g>
</g>
<!-- Node2&#45;&gt;Node1 -->
<g id="edge1" class="edge">
<title>Node2&#45;&gt;Node1</title>
<path fill="none" stroke="midnightblue" d="M1329.15,-41.5C1338.15,-41.5 1347.22,-41.5 1355.99,-41.5"/>
<polygon fill="midnightblue" stroke="midnightblue" points="1329.03,-38 1319.03,-41.5 1329.03,-45 1329.03,-38"/>
</g>
<!-- Node3 -->
<g id="node3" class="node">
<title>Node3</title>
<g id="a_node3"><a xlink:href="structDGtal_1_1concepts_1_1CUnaryFunctor.html" target="_top" xlink:title=" ">
<polygon fill="white" stroke="black" points="689,-49.5 689,-79.5 861,-79.5 861,-49.5 689,-49.5"/>
<text text-anchor="start" x="697" y="-67.5" font-family="FreeSans" font-size="10.00">DGtal::concepts::CUnaryFunctor</text>
<text text-anchor="middle" x="775" y="-56.5" font-family="FreeSans" font-size="10.00">&lt; T, T::Vertex, bool &gt;</text>
</a>
</g>
</g>
<!-- Node3&#45;&gt;Node2 -->
<g id="edge2" class="edge">
<title>Node3&#45;&gt;Node2</title>
<path fill="none" stroke="midnightblue" d="M871.64,-61.25C947.02,-58.48 1054.76,-54.07 1149,-48.5 1154.82,-48.16 1160.84,-47.77 1166.89,-47.36"/>
<polygon fill="midnightblue" stroke="midnightblue" points="871.09,-57.76 861.22,-61.63 871.34,-64.76 871.09,-57.76"/>
</g>
<!-- Node4 -->
<g id="node4" class="node">
<title>Node4</title>
<g id="a_node4"><a xlink:href="structboost_1_1Assignable.html" target="_top" xlink:title="Go to http://www.sgi.com/tech/stl/Assignable.html.">
<polygon fill="white" stroke="black" points="0,-27 0,-46 131,-46 131,-27 0,-27"/>
<text text-anchor="middle" x="65.5" y="-34" font-family="FreeSans" font-size="10.00">boost::Assignable&lt; T &gt;</text>
</a>
</g>
</g>
<!-- Node4&#45;&gt;Node3 -->
<g id="edge3" class="edge">
<title>Node4&#45;&gt;Node3</title>
<path fill="none" stroke="midnightblue" d="M124.33,-47.78C132.59,-49.17 140.99,-50.46 149,-51.5 171.55,-54.43 177.3,-54.17 200,-55.5 409.07,-67.77 461.64,-74.58 671,-69.5 676.82,-69.36 682.82,-69.17 688.86,-68.96"/>
<polygon fill="midnightblue" stroke="midnightblue" points="124.81,-44.31 114.36,-46.05 123.61,-51.21 124.81,-44.31"/>
</g>
<!-- Node6 -->
<g id="node6" class="node">
<title>Node6</title>
<g id="a_node6"><a xlink:href="structboost_1_1Assignable.html" target="_top" xlink:title=" ">
<polygon fill="white" stroke="black" points="200,-27 200,-46 332,-46 332,-27 200,-27"/>
<text text-anchor="middle" x="266" y="-34" font-family="FreeSans" font-size="10.00">boost::Assignable&lt; X &gt;</text>
</a>
</g>
</g>
<!-- Node4&#45;&gt;Node6 -->
<g id="edge6" class="edge">
<title>Node4&#45;&gt;Node6</title>
<path fill="none" stroke="orange" stroke-dasharray="5,2" d="M141.41,-36.5C160.58,-36.5 181.04,-36.5 199.69,-36.5"/>
<polygon fill="orange" stroke="orange" points="141.22,-33 131.22,-36.5 141.22,-40 141.22,-33"/>
<text text-anchor="middle" x="165.5" y="-39.5" font-family="FreeSans" font-size="10.00"> &lt; X &gt;</text>
</g>
<!-- Node8 -->
<g id="node8" class="node">
<title>Node8</title>
<g id="a_node8"><a xlink:href="structDGtal_1_1concepts_1_1CUnaryFunctor.html" target="_top" xlink:title=" ">
<polygon fill="white" stroke="black" points="689,-0.5 689,-30.5 861,-30.5 861,-0.5 689,-0.5"/>
<text text-anchor="start" x="697" y="-18.5" font-family="FreeSans" font-size="10.00">DGtal::concepts::CUnaryFunctor</text>
<text text-anchor="middle" x="775" y="-7.5" font-family="FreeSans" font-size="10.00">&lt; T, TElement, bool &gt;</text>
</a>
</g>
</g>
<!-- Node4&#45;&gt;Node8 -->
<g id="edge9" class="edge">
<title>Node4&#45;&gt;Node8</title>
<path fill="none" stroke="midnightblue" d="M133.99,-25.48C155.08,-22.42 178.46,-19.41 200,-17.5 372.97,-2.16 576.41,-6.78 688.7,-11.29"/>
<polygon fill="midnightblue" stroke="midnightblue" points="133.22,-22.05 123.84,-26.98 134.25,-28.98 133.22,-22.05"/>
</g>
<!-- Node5 -->
<g id="node5" class="node">
<title>Node5</title>
<g id="a_node5"><a xlink:href="structDGtal_1_1concepts_1_1CUnaryFunctor.html" target="_top" xlink:title="Aim: Defines a unary functor, which associates arguments to results.">
<polygon fill="white" stroke="black" points="369,-21.5 369,-51.5 541,-51.5 541,-21.5 369,-21.5"/>
<text text-anchor="start" x="377" y="-39.5" font-family="FreeSans" font-size="10.00">DGtal::concepts::CUnaryFunctor</text>
<text text-anchor="middle" x="455" y="-28.5" font-family="FreeSans" font-size="10.00">&lt; X, A, R &gt;</text>
</a>
</g>
</g>
<!-- Node5&#45;&gt;Node3 -->
<g id="edge4" class="edge">
<title>Node5&#45;&gt;Node3</title>
<path fill="none" stroke="orange" stroke-dasharray="5,2" d="M551.29,-44.89C595,-48.74 646.41,-53.27 688.82,-57"/>
<polygon fill="orange" stroke="orange" points="551.49,-41.39 541.22,-44 550.87,-48.37 551.49,-41.39"/>
<text text-anchor="middle" x="615" y="-57.5" font-family="FreeSans" font-size="10.00"> &lt; T, T::Vertex, bool &gt;</text>
</g>
<!-- Node5&#45;&gt;Node8 -->
<g id="edge10" class="edge">
<title>Node5&#45;&gt;Node8</title>
<path fill="none" stroke="orange" stroke-dasharray="5,2" d="M551.25,-25.15C553.86,-24.92 556.45,-24.7 559,-24.5 601.74,-21.12 649.36,-18.96 688.9,-17.61"/>
<polygon fill="orange" stroke="orange" points="550.74,-21.68 541.1,-26.09 551.38,-28.65 550.74,-21.68"/>
<text text-anchor="middle" x="615" y="-27.5" font-family="FreeSans" font-size="10.00"> &lt; T, TElement, bool &gt;</text>
</g>
<!-- Node6&#45;&gt;Node5 -->
<g id="edge5" class="edge">
<title>Node6&#45;&gt;Node5</title>
<path fill="none" stroke="midnightblue" d="M342.24,-36.5C350.95,-36.5 359.87,-36.5 368.7,-36.5"/>
<polygon fill="midnightblue" stroke="midnightblue" points="342.14,-33 332.14,-36.5 342.14,-40 342.14,-33"/>
</g>
<!-- Node7 -->
<g id="node7" class="node">
<title>Node7</title>
<g id="a_node7"><a xlink:href="structDGtal_1_1concepts_1_1CPredicate.html" target="_top" xlink:title="Aim: Defines a predicate function, ie. a functor mapping a domain into the set of booleans.">
<polygon fill="white" stroke="black" points="898,-3.5 898,-33.5 1050,-33.5 1050,-3.5 898,-3.5"/>
<text text-anchor="start" x="906" y="-21.5" font-family="FreeSans" font-size="10.00">DGtal::concepts::CPredicate</text>
<text text-anchor="middle" x="974" y="-10.5" font-family="FreeSans" font-size="10.00">&lt; T, TElement &gt;</text>
</a>
</g>
</g>
<!-- Node7&#45;&gt;Node2 -->
<g id="edge7" class="edge">
<title>Node7&#45;&gt;Node2</title>
<path fill="none" stroke="orange" stroke-dasharray="5,2" d="M1060.06,-25.83C1094.27,-28.77 1133.38,-32.14 1166.55,-35"/>
<polygon fill="orange" stroke="orange" points="1060.35,-22.34 1050.08,-24.97 1059.75,-29.31 1060.35,-22.34"/>
<text text-anchor="middle" x="1108.5" y="-36.5" font-family="FreeSans" font-size="10.00"> &lt; T, T::Vertex &gt;</text>
</g>
<!-- Node8&#45;&gt;Node7 -->
<g id="edge8" class="edge">
<title>Node8&#45;&gt;Node7</title>
<path fill="none" stroke="midnightblue" d="M871.29,-16.95C880.2,-17.09 889.14,-17.22 897.82,-17.36"/>
<polygon fill="midnightblue" stroke="midnightblue" points="871.31,-13.45 861.26,-16.8 871.21,-20.45 871.31,-13.45"/>
</g>
</g>
</svg>
