<?xml version="1.0" encoding="UTF-8" standalone="no"?>
<!DOCTYPE svg PUBLIC "-//W3C//DTD SVG 1.1//EN"
 "http://www.w3.org/Graphics/SVG/1.1/DTD/svg11.dtd">
<!-- Generated by graphviz version 2.43.0 (0)
 -->
<!-- Title: boost::LessThanComparable&lt; T &gt; Pages: 1 -->
<svg width="1197pt" height="172pt"
 viewBox="0.00 0.00 1197.00 172.00" xmlns="http://www.w3.org/2000/svg" xmlns:xlink="http://www.w3.org/1999/xlink">
<g id="graph0" class="graph" transform="scale(1 1) rotate(0) translate(4 168)">
<title>boost::LessThanComparable&lt; T &gt;</title>
<!-- Node1 -->
<g id="Node000001" class="node">
<title>Node1</title>
<g id="a_Node000001"><a xlink:title="Go to http://www.sgi.com/tech/stl/LessThanComparable.html.">
<polygon fill="#999999" stroke="#666666" points="183,-93.5 0,-93.5 0,-74.5 183,-74.5 183,-93.5"/>
<text text-anchor="middle" x="91.5" y="-81.5" font-family="FreeSans" font-size="10.00">boost::LessThanComparable&lt; T &gt;</text>
</a>
</g>
</g>
<!-- Node2 -->
<g id="Node000002" class="node">
<title>Node2</title>
<g id="a_Node000002"><a xlink:href="structDGtal_1_1concepts_1_1CQuantity.html" target="_top" xlink:title="Aim: defines the concept of quantity in DGtal.">
<polygon fill="white" stroke="#666666" points="396,-93.5 219,-93.5 219,-74.5 396,-74.5 396,-93.5"/>
<text text-anchor="middle" x="307.5" y="-81.5" font-family="FreeSans" font-size="10.00">DGtal::concepts::CQuantity&lt; T &gt;</text>
</a>
</g>
</g>
<!-- Node1&#45;&gt;Node2 -->
<g id="edge1_Node000001_Node000002" class="edge">
<title>Node1&#45;&gt;Node2</title>
<g id="a_edge1_Node000001_Node000002"><a xlink:title=" ">
<path fill="none" stroke="#63b8ff" d="M193.48,-84C201.9,-84 210.37,-84 218.67,-84"/>
<polygon fill="#63b8ff" stroke="#63b8ff" points="193.26,-80.5 183.26,-84 193.26,-87.5 193.26,-80.5"/>
</a>
</g>
</g>
<!-- Node3 -->
<g id="Node000003" class="node">
<title>Node3</title>
<g id="a_Node000003"><a xlink:href="structDGtal_1_1concepts_1_1CBoundedNumber.html" target="_top" xlink:title="Aim: The concept CBoundedNumber specifies what are the bounded numbers. Models of this concept should...">
<polygon fill="white" stroke="#666666" points="582.5,-164 433.5,-164 433.5,-134 582.5,-134 582.5,-164"/>
<text text-anchor="start" x="441.5" y="-152" font-family="FreeSans" font-size="10.00">DGtal::concepts::CBounded</text>
<text text-anchor="middle" x="508" y="-141" font-family="FreeSans" font-size="10.00">Number&lt; T &gt;</text>
</a>
</g>
</g>
<!-- Node2&#45;&gt;Node3 -->
<g id="edge2_Node000002_Node000003" class="edge">
<title>Node2&#45;&gt;Node3</title>
<g id="a_edge2_Node000002_Node000003"><a xlink:title=" ">
<path fill="none" stroke="#63b8ff" d="M347.43,-96.75C380.02,-107.42 426.59,-122.67 461.01,-133.94"/>
<polygon fill="#63b8ff" stroke="#63b8ff" points="348.38,-93.38 337.79,-93.59 346.2,-100.03 348.38,-93.38"/>
</a>
</g>
</g>
<!-- Node4 -->
<g id="Node000004" class="node">
<title>Node4</title>
<g id="a_Node000004"><a xlink:href="structDGtal_1_1concepts_1_1CIntegralNumber.html" target="_top" xlink:title="Aim: Concept checking for Integral Numbers. Models of this concept should be listed in NumberTraits c...">
<polygon fill="white" stroke="#666666" points="778.5,-123 634.5,-123 634.5,-93 778.5,-93 778.5,-123"/>
<text text-anchor="start" x="642.5" y="-111" font-family="FreeSans" font-size="10.00">DGtal::concepts::CIntegral</text>
<text text-anchor="middle" x="706.5" y="-100" font-family="FreeSans" font-size="10.00">Number&lt; T &gt;</text>
</a>
</g>
</g>
<!-- Node2&#45;&gt;Node4 -->
<g id="edge3_Node000002_Node000004" class="edge">
<title>Node2&#45;&gt;Node4</title>
<g id="a_edge3_Node000002_Node000004"><a xlink:title=" ">
<path fill="none" stroke="#63b8ff" d="M406.36,-89.92C476.99,-94.19 570.74,-99.85 634.33,-103.7"/>
<polygon fill="#63b8ff" stroke="#63b8ff" points="406.31,-86.41 396.11,-89.3 405.89,-93.39 406.31,-86.41"/>
</a>
</g>
</g>
<!-- Node6 -->
<g id="Node000006" class="node">
<title>Node6</title>
<g id="a_Node000006"><a xlink:href="structDGtal_1_1concepts_1_1CSignedNumber.html" target="_top" xlink:title="Aim: Concept checking for Signed Numbers. Models of this concept should be listed in NumberTraits cla...">
<polygon fill="white" stroke="#666666" points="578,-78 438,-78 438,-48 578,-48 578,-78"/>
<text text-anchor="start" x="446" y="-66" font-family="FreeSans" font-size="10.00">DGtal::concepts::CSigned</text>
<text text-anchor="middle" x="508" y="-55" font-family="FreeSans" font-size="10.00">Number&lt; T &gt;</text>
</a>
</g>
</g>
<!-- Node2&#45;&gt;Node6 -->
<g id="edge5_Node000002_Node000006" class="edge">
<title>Node2&#45;&gt;Node6</title>
<g id="a_edge5_Node000002_Node000006"><a xlink:title=" ">
<path fill="none" stroke="#63b8ff" d="M406.29,-73.65C416.9,-72.53 427.54,-71.41 437.7,-70.33"/>
<polygon fill="#63b8ff" stroke="#63b8ff" points="405.72,-70.2 396.14,-74.73 406.46,-77.16 405.72,-70.2"/>
</a>
</g>
</g>
<!-- Node9 -->
<g id="Node000009" class="node">
<title>Node9</title>
<g id="a_Node000009"><a xlink:href="structDGtal_1_1concepts_1_1CUnsignedNumber.html" target="_top" xlink:title="Aim: Concept checking for Unsigned numbers. Models of this concept should be listed in NumberTraits c...">
<polygon fill="white" stroke="#666666" points="584,-30 432,-30 432,0 584,0 584,-30"/>
<text text-anchor="start" x="440" y="-18" font-family="FreeSans" font-size="10.00">DGtal::concepts::CUnsigned</text>
<text text-anchor="middle" x="508" y="-7" font-family="FreeSans" font-size="10.00">Number&lt; T &gt;</text>
</a>
</g>
</g>
<!-- Node2&#45;&gt;Node9 -->
<g id="edge9_Node000002_Node000009" class="edge">
<title>Node2&#45;&gt;Node9</title>
<g id="a_edge9_Node000002_Node000009"><a xlink:title=" ">
<path fill="none" stroke="#63b8ff" d="M343.57,-70.8C368.22,-61.63 402.02,-49.26 432,-39 440.67,-36.04 449.93,-32.98 458.89,-30.08"/>
<polygon fill="#63b8ff" stroke="#63b8ff" points="342.08,-67.62 333.94,-74.4 344.53,-74.18 342.08,-67.62"/>
</a>
</g>
</g>
<!-- Node5 -->
<g id="Node000005" class="node">
<title>Node5</title>
<g id="a_Node000005"><a xlink:href="structDGtal_1_1concepts_1_1CInteger.html" target="_top" xlink:title="Aim: Concept checking for Integer Numbers. More precisely, this concept is a refinement of both CEucl...">
<polygon fill="white" stroke="#666666" points="1189,-92.5 1019,-92.5 1019,-73.5 1189,-73.5 1189,-92.5"/>
<text text-anchor="middle" x="1104" y="-80.5" font-family="FreeSans" font-size="10.00">DGtal::concepts::CInteger&lt; T &gt;</text>
</a>
</g>
</g>
<!-- Node4&#45;&gt;Node5 -->
<g id="edge4_Node000004_Node000005" class="edge">
<title>Node4&#45;&gt;Node5</title>
<g id="a_edge4_Node000004_Node000005"><a xlink:title=" ">
<path fill="none" stroke="#63b8ff" d="M788.77,-102.86C855.86,-98.62 950.76,-92.62 1018.68,-88.33"/>
<polygon fill="#63b8ff" stroke="#63b8ff" points="788.42,-99.38 778.66,-103.5 788.87,-106.36 788.42,-99.38"/>
</a>
</g>
</g>
<!-- Node7 -->
<g id="Node000007" class="node">
<title>Node7</title>
<g id="a_Node000007"><a xlink:href="structDGtal_1_1concepts_1_1CCommutativeRing.html" target="_top" xlink:title="Aim: Defines the mathematical concept equivalent to a unitary commutative ring.">
<polygon fill="white" stroke="#666666" points="793,-75 620,-75 620,-45 793,-45 793,-75"/>
<text text-anchor="start" x="628" y="-63" font-family="FreeSans" font-size="10.00">DGtal::concepts::CCommutative</text>
<text text-anchor="middle" x="706.5" y="-52" font-family="FreeSans" font-size="10.00">Ring&lt; T &gt;</text>
</a>
</g>
</g>
<!-- Node6&#45;&gt;Node7 -->
<g id="edge6_Node000006_Node000007" class="edge">
<title>Node6&#45;&gt;Node7</title>
<g id="a_edge6_Node000006_Node000007"><a xlink:title=" ">
<path fill="none" stroke="#63b8ff" d="M588.25,-61.79C598.62,-61.63 609.28,-61.47 619.75,-61.31"/>
<polygon fill="#63b8ff" stroke="#63b8ff" points="587.95,-58.29 578,-61.95 588.05,-65.29 587.95,-58.29"/>
</a>
</g>
</g>
<!-- Node8 -->
<g id="Node000008" class="node">
<title>Node8</title>
<g id="a_Node000008"><a xlink:href="structDGtal_1_1concepts_1_1CEuclideanRing.html" target="_top" xlink:title="Aim: Defines the mathematical concept equivalent to a unitary commutative ring with a division operat...">
<polygon fill="white" stroke="#666666" points="983,-77 829,-77 829,-47 983,-47 983,-77"/>
<text text-anchor="start" x="837" y="-65" font-family="FreeSans" font-size="10.00">DGtal::concepts::CEuclidean</text>
<text text-anchor="middle" x="906" y="-54" font-family="FreeSans" font-size="10.00">Ring&lt; T &gt;</text>
</a>
</g>
</g>
<!-- Node7&#45;&gt;Node8 -->
<g id="edge7_Node000007_Node000008" class="edge">
<title>Node7&#45;&gt;Node8</title>
<g id="a_edge7_Node000007_Node000008"><a xlink:title=" ">
<path fill="none" stroke="#63b8ff" d="M803.32,-60.97C811.92,-61.06 820.54,-61.14 828.93,-61.23"/>
<polygon fill="#63b8ff" stroke="#63b8ff" points="803.3,-57.47 793.26,-60.87 803.23,-64.47 803.3,-57.47"/>
</a>
</g>
</g>
<!-- Node8&#45;&gt;Node5 -->
<g id="edge8_Node000008_Node000005" class="edge">
<title>Node8&#45;&gt;Node5</title>
<g id="a_edge8_Node000008_Node000005"><a xlink:title=" ">
<path fill="none" stroke="#63b8ff" d="M993.04,-71.22C1001.61,-72.14 1010.3,-73.07 1018.85,-73.98"/>
<polygon fill="#63b8ff" stroke="#63b8ff" points="993.38,-67.73 983.06,-70.15 992.63,-74.69 993.38,-67.73"/>
</a>
</g>
</g>
</g>
</svg>
