<?xml version="1.0" encoding="UTF-8" standalone="no"?>
<!DOCTYPE svg PUBLIC "-//W3C//DTD SVG 1.1//EN"
 "http://www.w3.org/Graphics/SVG/1.1/DTD/svg11.dtd">
<!-- Generated by graphviz version 2.43.0 (0)
 -->
<!-- Title: DGtal::MultipleAssociativeCategory Pages: 1 -->
<svg width="708pt" height="182pt"
 viewBox="0.00 0.00 708.00 182.00" xmlns="http://www.w3.org/2000/svg" xmlns:xlink="http://www.w3.org/1999/xlink">
<g id="graph0" class="graph" transform="scale(1 1) rotate(0) translate(4 178)">
<title>DGtal::MultipleAssociativeCategory</title>
<!-- Node1 -->
<g id="Node000001" class="node">
<title>Node1</title>
<g id="a_Node000001"><a xlink:title=" ">
<polygon fill="#999999" stroke="#666666" points="511,-102 365,-102 365,-72 511,-72 511,-102"/>
<text text-anchor="start" x="373" y="-90" font-family="FreeSans" font-size="10.00">DGtal::MultipleAssociative</text>
<text text-anchor="middle" x="438" y="-79" font-family="FreeSans" font-size="10.00">Category</text>
</a>
</g>
</g>
<!-- Node4 -->
<g id="Node000004" class="node">
<title>Node4</title>
<g id="a_Node000004"><a xlink:href="structDGtal_1_1MultimapAssociativeCategory.html" target="_top" xlink:title=" ">
<polygon fill="white" stroke="#666666" points="700,-174 547,-174 547,-144 700,-144 700,-174"/>
<text text-anchor="start" x="555" y="-162" font-family="FreeSans" font-size="10.00">DGtal::MultimapAssociative</text>
<text text-anchor="middle" x="623.5" y="-151" font-family="FreeSans" font-size="10.00">Category</text>
</a>
</g>
</g>
<!-- Node1&#45;&gt;Node4 -->
<g id="edge3_Node000001_Node000004" class="edge">
<title>Node1&#45;&gt;Node4</title>
<g id="a_edge3_Node000001_Node000004"><a xlink:title=" ">
<path fill="none" stroke="#63b8ff" d="M479.45,-106.25C499.54,-115.48 524.31,-126.38 547,-135 555.1,-138.08 563.79,-141.09 572.28,-143.89"/>
<polygon fill="#63b8ff" stroke="#63b8ff" points="480.82,-103.03 470.28,-102 477.88,-109.38 480.82,-103.03"/>
</a>
</g>
</g>
<!-- Node5 -->
<g id="Node000005" class="node">
<title>Node5</title>
<g id="a_Node000005"><a xlink:href="structDGtal_1_1MultisetAssociativeCategory.html" target="_top" xlink:title=" ">
<polygon fill="white" stroke="#666666" points="696.5,-126 550.5,-126 550.5,-96 696.5,-96 696.5,-126"/>
<text text-anchor="start" x="558.5" y="-114" font-family="FreeSans" font-size="10.00">DGtal::MultisetAssociative</text>
<text text-anchor="middle" x="623.5" y="-103" font-family="FreeSans" font-size="10.00">Category</text>
</a>
</g>
</g>
<!-- Node1&#45;&gt;Node5 -->
<g id="edge4_Node000001_Node000005" class="edge">
<title>Node1&#45;&gt;Node5</title>
<g id="a_edge4_Node000001_Node000005"><a xlink:title=" ">
<path fill="none" stroke="#63b8ff" d="M521.28,-97.76C530.96,-99.03 540.78,-100.31 550.31,-101.56"/>
<polygon fill="#63b8ff" stroke="#63b8ff" points="521.63,-94.28 511.26,-96.45 520.72,-101.22 521.63,-94.28"/>
</a>
</g>
</g>
<!-- Node6 -->
<g id="Node000006" class="node">
<title>Node6</title>
<g id="a_Node000006"><a xlink:href="structDGtal_1_1UnorderedMultimapAssociativeCategory.html" target="_top" xlink:title=" ">
<polygon fill="white" stroke="#666666" points="697.5,-78 549.5,-78 549.5,-48 697.5,-48 697.5,-78"/>
<text text-anchor="start" x="557.5" y="-66" font-family="FreeSans" font-size="10.00">DGtal::UnorderedMultimap</text>
<text text-anchor="middle" x="623.5" y="-55" font-family="FreeSans" font-size="10.00">AssociativeCategory</text>
</a>
</g>
</g>
<!-- Node1&#45;&gt;Node6 -->
<g id="edge5_Node000001_Node000006" class="edge">
<title>Node1&#45;&gt;Node6</title>
<g id="a_edge5_Node000001_Node000006"><a xlink:title=" ">
<path fill="none" stroke="#63b8ff" d="M521.34,-76.23C530.69,-75.01 540.18,-73.77 549.4,-72.56"/>
<polygon fill="#63b8ff" stroke="#63b8ff" points="520.72,-72.78 511.26,-77.55 521.63,-79.72 520.72,-72.78"/>
</a>
</g>
</g>
<!-- Node7 -->
<g id="Node000007" class="node">
<title>Node7</title>
<g id="a_Node000007"><a xlink:href="structDGtal_1_1UnorderedMultisetAssociativeCategory.html" target="_top" xlink:title=" ">
<polygon fill="white" stroke="#666666" points="694,-30 553,-30 553,0 694,0 694,-30"/>
<text text-anchor="start" x="561" y="-18" font-family="FreeSans" font-size="10.00">DGtal::UnorderedMultiset</text>
<text text-anchor="middle" x="623.5" y="-7" font-family="FreeSans" font-size="10.00">AssociativeCategory</text>
</a>
</g>
</g>
<!-- Node1&#45;&gt;Node7 -->
<g id="edge6_Node000001_Node000007" class="edge">
<title>Node1&#45;&gt;Node7</title>
<g id="a_edge6_Node000001_Node000007"><a xlink:title=" ">
<path fill="none" stroke="#63b8ff" d="M479.45,-67.75C499.54,-58.52 524.31,-47.62 547,-39 555.1,-35.92 563.79,-32.91 572.28,-30.11"/>
<polygon fill="#63b8ff" stroke="#63b8ff" points="477.88,-64.62 470.28,-72 480.82,-70.97 477.88,-64.62"/>
</a>
</g>
</g>
<!-- Node2 -->
<g id="Node000002" class="node">
<title>Node2</title>
<g id="a_Node000002"><a xlink:href="structDGtal_1_1AssociativeCategory.html" target="_top" xlink:title=" ">
<polygon fill="white" stroke="#666666" points="329,-96.5 178,-96.5 178,-77.5 329,-77.5 329,-96.5"/>
<text text-anchor="middle" x="253.5" y="-84.5" font-family="FreeSans" font-size="10.00">DGtal::AssociativeCategory</text>
</a>
</g>
</g>
<!-- Node2&#45;&gt;Node1 -->
<g id="edge1_Node000001_Node000002" class="edge">
<title>Node2&#45;&gt;Node1</title>
<g id="a_edge1_Node000001_Node000002"><a xlink:title=" ">
<path fill="none" stroke="#63b8ff" d="M339.49,-87C347.92,-87 356.43,-87 364.72,-87"/>
<polygon fill="#63b8ff" stroke="#63b8ff" points="339.26,-83.5 329.26,-87 339.26,-90.5 339.26,-83.5"/>
</a>
</g>
</g>
<!-- Node3 -->
<g id="Node000003" class="node">
<title>Node3</title>
<g id="a_Node000003"><a xlink:href="structDGtal_1_1ContainerCategory.html" target="_top" xlink:title=" ">
<polygon fill="white" stroke="#666666" points="142,-96.5 0,-96.5 0,-77.5 142,-77.5 142,-96.5"/>
<text text-anchor="middle" x="71" y="-84.5" font-family="FreeSans" font-size="10.00">DGtal::ContainerCategory</text>
</a>
</g>
</g>
<!-- Node3&#45;&gt;Node2 -->
<g id="edge2_Node000002_Node000003" class="edge">
<title>Node3&#45;&gt;Node2</title>
<g id="a_edge2_Node000002_Node000003"><a xlink:title=" ">
<path fill="none" stroke="#63b8ff" d="M152.28,-87C160.74,-87 169.32,-87 177.71,-87"/>
<polygon fill="#63b8ff" stroke="#63b8ff" points="152.04,-83.5 142.04,-87 152.04,-90.5 152.04,-83.5"/>
</a>
</g>
</g>
</g>
</svg>
