<?xml version="1.0" encoding="UTF-8" standalone="no"?>
<!DOCTYPE svg PUBLIC "-//W3C//DTD SVG 1.1//EN"
 "http://www.w3.org/Graphics/SVG/1.1/DTD/svg11.dtd">
<!-- Generated by graphviz version 2.43.0 (0)
 -->
<!-- Title: DGtal::UnorderedSetAssociativeCategory Pages: 1 -->
<svg width="740pt" height="134pt"
 viewBox="0.00 0.00 740.00 134.00" xmlns="http://www.w3.org/2000/svg" xmlns:xlink="http://www.w3.org/1999/xlink">
<g id="graph0" class="graph" transform="scale(1 1) rotate(0) translate(4 130)">
<title>DGtal::UnorderedSetAssociativeCategory</title>
<!-- Node1 -->
<g id="Node000001" class="node">
<title>Node1</title>
<g id="a_Node000001"><a xlink:title=" ">
<polygon fill="#999999" stroke="#666666" points="732,-78 559,-78 559,-48 732,-48 732,-78"/>
<text text-anchor="start" x="567" y="-66" font-family="FreeSans" font-size="10.00">DGtal::UnorderedSetAssociative</text>
<text text-anchor="middle" x="645.5" y="-55" font-family="FreeSans" font-size="10.00">Category</text>
</a>
</g>
</g>
<!-- Node2 -->
<g id="Node000002" class="node">
<title>Node2</title>
<g id="a_Node000002"><a xlink:href="structDGtal_1_1UnorderedAssociativeCategory.html" target="_top" xlink:title=" ">
<polygon fill="white" stroke="#666666" points="523,-126 365,-126 365,-96 523,-96 523,-126"/>
<text text-anchor="start" x="373" y="-114" font-family="FreeSans" font-size="10.00">DGtal::UnorderedAssociative</text>
<text text-anchor="middle" x="444" y="-103" font-family="FreeSans" font-size="10.00">Category</text>
</a>
</g>
</g>
<!-- Node2&#45;&gt;Node1 -->
<g id="edge1_Node000001_Node000002" class="edge">
<title>Node2&#45;&gt;Node1</title>
<g id="a_edge1_Node000001_Node000002"><a xlink:title=" ">
<path fill="none" stroke="#63b8ff" d="M517.49,-93.56C538.68,-88.46 561.65,-82.93 582.15,-78"/>
<polygon fill="#63b8ff" stroke="#63b8ff" points="516.48,-90.2 507.58,-95.94 518.12,-97.01 516.48,-90.2"/>
</a>
</g>
</g>
<!-- Node3 -->
<g id="Node000003" class="node">
<title>Node3</title>
<g id="a_Node000003"><a xlink:href="structDGtal_1_1AssociativeCategory.html" target="_top" xlink:title=" ">
<polygon fill="white" stroke="#666666" points="329,-72.5 178,-72.5 178,-53.5 329,-53.5 329,-72.5"/>
<text text-anchor="middle" x="253.5" y="-60.5" font-family="FreeSans" font-size="10.00">DGtal::AssociativeCategory</text>
</a>
</g>
</g>
<!-- Node3&#45;&gt;Node2 -->
<g id="edge2_Node000002_Node000003" class="edge">
<title>Node3&#45;&gt;Node2</title>
<g id="a_edge2_Node000002_Node000003"><a xlink:title=" ">
<path fill="none" stroke="#63b8ff" d="M302.1,-75.12C326.92,-81.44 357.51,-89.23 383.85,-95.94"/>
<polygon fill="#63b8ff" stroke="#63b8ff" points="302.75,-71.67 292.19,-72.6 301.02,-78.46 302.75,-71.67"/>
</a>
</g>
</g>
<!-- Node5 -->
<g id="Node000005" class="node">
<title>Node5</title>
<g id="a_Node000005"><a xlink:href="structDGtal_1_1SimpleAssociativeCategory.html" target="_top" xlink:title=" ">
<polygon fill="white" stroke="#666666" points="514,-78 374,-78 374,-48 514,-48 514,-78"/>
<text text-anchor="start" x="382" y="-66" font-family="FreeSans" font-size="10.00">DGtal::SimpleAssociative</text>
<text text-anchor="middle" x="444" y="-55" font-family="FreeSans" font-size="10.00">Category</text>
</a>
</g>
</g>
<!-- Node3&#45;&gt;Node5 -->
<g id="edge5_Node000005_Node000003" class="edge">
<title>Node3&#45;&gt;Node5</title>
<g id="a_edge5_Node000005_Node000003"><a xlink:title=" ">
<path fill="none" stroke="#63b8ff" d="M339.16,-63C350.8,-63 362.63,-63 373.95,-63"/>
<polygon fill="#63b8ff" stroke="#63b8ff" points="339,-59.5 329,-63 339,-66.5 339,-59.5"/>
</a>
</g>
</g>
<!-- Node6 -->
<g id="Node000006" class="node">
<title>Node6</title>
<g id="a_Node000006"><a xlink:href="structDGtal_1_1UniqueAssociativeCategory.html" target="_top" xlink:title=" ">
<polygon fill="white" stroke="#666666" points="514.5,-30 373.5,-30 373.5,0 514.5,0 514.5,-30"/>
<text text-anchor="start" x="381.5" y="-18" font-family="FreeSans" font-size="10.00">DGtal::UniqueAssociative</text>
<text text-anchor="middle" x="444" y="-7" font-family="FreeSans" font-size="10.00">Category</text>
</a>
</g>
</g>
<!-- Node3&#45;&gt;Node6 -->
<g id="edge7_Node000006_Node000003" class="edge">
<title>Node3&#45;&gt;Node6</title>
<g id="a_edge7_Node000006_Node000003"><a xlink:title=" ">
<path fill="none" stroke="#63b8ff" d="M302.1,-50.88C326.92,-44.56 357.51,-36.77 383.85,-30.06"/>
<polygon fill="#63b8ff" stroke="#63b8ff" points="301.02,-47.54 292.19,-53.4 302.75,-54.33 301.02,-47.54"/>
</a>
</g>
</g>
<!-- Node4 -->
<g id="Node000004" class="node">
<title>Node4</title>
<g id="a_Node000004"><a xlink:href="structDGtal_1_1ContainerCategory.html" target="_top" xlink:title=" ">
<polygon fill="white" stroke="#666666" points="142,-72.5 0,-72.5 0,-53.5 142,-53.5 142,-72.5"/>
<text text-anchor="middle" x="71" y="-60.5" font-family="FreeSans" font-size="10.00">DGtal::ContainerCategory</text>
</a>
</g>
</g>
<!-- Node4&#45;&gt;Node3 -->
<g id="edge3_Node000003_Node000004" class="edge">
<title>Node4&#45;&gt;Node3</title>
<g id="a_edge3_Node000003_Node000004"><a xlink:title=" ">
<path fill="none" stroke="#63b8ff" d="M152.28,-63C160.74,-63 169.32,-63 177.71,-63"/>
<polygon fill="#63b8ff" stroke="#63b8ff" points="152.04,-59.5 142.04,-63 152.04,-66.5 152.04,-59.5"/>
</a>
</g>
</g>
<!-- Node5&#45;&gt;Node1 -->
<g id="edge4_Node000001_Node000005" class="edge">
<title>Node5&#45;&gt;Node1</title>
<g id="a_edge4_Node000001_Node000005"><a xlink:title=" ">
<path fill="none" stroke="#63b8ff" d="M524.48,-63C535.79,-63 547.46,-63 558.88,-63"/>
<polygon fill="#63b8ff" stroke="#63b8ff" points="524.22,-59.5 514.22,-63 524.22,-66.5 524.22,-59.5"/>
</a>
</g>
</g>
<!-- Node6&#45;&gt;Node1 -->
<g id="edge6_Node000001_Node000006" class="edge">
<title>Node6&#45;&gt;Node1</title>
<g id="a_edge6_Node000001_Node000006"><a xlink:title=" ">
<path fill="none" stroke="#63b8ff" d="M517.49,-32.44C538.68,-37.54 561.65,-43.07 582.15,-48"/>
<polygon fill="#63b8ff" stroke="#63b8ff" points="518.12,-28.99 507.58,-30.06 516.48,-35.8 518.12,-28.99"/>
</a>
</g>
</g>
</g>
</svg>
