<?xml version="1.0" encoding="UTF-8" standalone="no"?>
<!DOCTYPE svg PUBLIC "-//W3C//DTD SVG 1.1//EN"
 "http://www.w3.org/Graphics/SVG/1.1/DTD/svg11.dtd">
<!-- Generated by graphviz version 2.43.0 (0)
 -->
<!-- Title: DGtal::concepts::CConstSinglePassRange&lt; T &gt; Pages: 1 -->
<svg width="1030pt" height="371pt"
 viewBox="0.00 0.00 1030.00 371.00" xmlns="http://www.w3.org/2000/svg" xmlns:xlink="http://www.w3.org/1999/xlink">
<g id="graph0" class="graph" transform="scale(1 1) rotate(0) translate(4 367)">
<title>DGtal::concepts::CConstSinglePassRange&lt; T &gt;</title>
<polygon fill="white" stroke="transparent" points="-4,4 -4,-367 1026,-367 1026,4 -4,4"/>
<!-- Node1 -->
<g id="node1" class="node">
<title>Node1</title>
<g id="a_node1"><a xlink:title="Aim: Defines the concept describing a const single pass range.">
<polygon fill="#bfbfbf" stroke="black" points="0,-167.5 0,-197.5 164,-197.5 164,-167.5 0,-167.5"/>
<text text-anchor="start" x="8" y="-185.5" font-family="FreeSans" font-size="10.00">DGtal::concepts::CConstSingle</text>
<text text-anchor="middle" x="82" y="-174.5" font-family="FreeSans" font-size="10.00">PassRange&lt; T &gt;</text>
</a>
</g>
</g>
<!-- Node2 -->
<g id="node2" class="node">
<title>Node2</title>
<g id="a_node2"><a xlink:href="structDGtal_1_1concepts_1_1CConstSinglePassRangeFromPoint.html" target="_top" xlink:title=" ">
<polygon fill="white" stroke="black" points="416,-332.5 416,-362.5 574,-362.5 574,-332.5 416,-332.5"/>
<text text-anchor="start" x="424" y="-350.5" font-family="FreeSans" font-size="10.00">CConstSinglePassRangeFrom</text>
<text text-anchor="middle" x="495" y="-339.5" font-family="FreeSans" font-size="10.00">Point&lt; T, Value &gt;</text>
</a>
</g>
</g>
<!-- Node1&#45;&gt;Node2 -->
<g id="edge1" class="edge">
<title>Node1&#45;&gt;Node2</title>
<path fill="none" stroke="midnightblue" d="M95.24,-207C113.3,-240.2 150.48,-298.34 201,-324.5 267.49,-358.94 354.03,-361.45 415.79,-357.32"/>
<polygon fill="midnightblue" stroke="midnightblue" points="98.22,-205.15 90.45,-197.95 92.03,-208.43 98.22,-205.15"/>
</g>
<!-- Node4 -->
<g id="node4" class="node">
<title>Node4</title>
<g id="a_node4"><a xlink:href="structDGtal_1_1concepts_1_1CConstBidirectionalRange.html" target="_top" xlink:title="Aim: Defines the concept describing a bidirectional const range.">
<polygon fill="white" stroke="black" points="201.5,-137.5 201.5,-167.5 397.5,-167.5 397.5,-137.5 201.5,-137.5"/>
<text text-anchor="start" x="209.5" y="-155.5" font-family="FreeSans" font-size="10.00">DGtal::concepts::CConstBidirectional</text>
<text text-anchor="middle" x="299.5" y="-144.5" font-family="FreeSans" font-size="10.00">Range&lt; T &gt;</text>
</a>
</g>
</g>
<!-- Node1&#45;&gt;Node4 -->
<g id="edge3" class="edge">
<title>Node1&#45;&gt;Node4</title>
<path fill="none" stroke="midnightblue" d="M174.24,-169.8C183.24,-168.55 192.39,-167.27 201.45,-166.01"/>
<polygon fill="midnightblue" stroke="midnightblue" points="173.59,-166.36 164.16,-171.2 174.55,-173.29 173.59,-166.36"/>
</g>
<!-- Node8 -->
<g id="node8" class="node">
<title>Node8</title>
<g id="a_node8"><a xlink:href="structDGtal_1_1concepts_1_1CConstSinglePassRangeFromPoint.html" target="_top" xlink:title="Aim: refined concept of const single pass range with a begin() method from a point.">
<polygon fill="white" stroke="black" points="217.5,-284.5 217.5,-314.5 381.5,-314.5 381.5,-284.5 217.5,-284.5"/>
<text text-anchor="start" x="225.5" y="-302.5" font-family="FreeSans" font-size="10.00">DGtal::concepts::CConstSingle</text>
<text text-anchor="middle" x="299.5" y="-291.5" font-family="FreeSans" font-size="10.00">PassRangeFromPoint&lt; T &gt;</text>
</a>
</g>
</g>
<!-- Node1&#45;&gt;Node8 -->
<g id="edge8" class="edge">
<title>Node1&#45;&gt;Node8</title>
<path fill="none" stroke="midnightblue" d="M105.22,-204.87C127.55,-226.09 163.89,-257.37 201,-275.5 208.05,-278.94 215.63,-281.92 223.34,-284.48"/>
<polygon fill="midnightblue" stroke="midnightblue" points="107.55,-202.25 97.92,-197.81 102.68,-207.28 107.55,-202.25"/>
</g>
<!-- Node11 -->
<g id="node11" class="node">
<title>Node11</title>
<g id="a_node11"><a xlink:href="structDGtal_1_1concepts_1_1CDomain.html" target="_top" xlink:title="Aim: This concept represents a digital domain, i.e. a non mutable subset of points of the given digit...">
<polygon fill="white" stroke="black" points="213,-99 213,-118 386,-118 386,-99 213,-99"/>
<text text-anchor="middle" x="299.5" y="-106" font-family="FreeSans" font-size="10.00">DGtal::concepts::CDomain&lt; T &gt;</text>
</a>
</g>
</g>
<!-- Node1&#45;&gt;Node11 -->
<g id="edge12" class="edge">
<title>Node1&#45;&gt;Node11</title>
<path fill="none" stroke="midnightblue" d="M119.35,-162.74C142.22,-151.02 172.66,-136.71 201,-127.5 212.56,-123.74 225.15,-120.61 237.32,-118.05"/>
<polygon fill="midnightblue" stroke="midnightblue" points="117.61,-159.69 110.36,-167.41 120.84,-165.91 117.61,-159.69"/>
</g>
<!-- Node12 -->
<g id="node12" class="node">
<title>Node12</title>
<g id="a_node12"><a xlink:href="structDGtal_1_1concepts_1_1CPositiveIrreducibleFraction.html" target="_top" xlink:title="Aim: Defines positive irreducible fractions, i.e. fraction p/q, p and q non&#45;negative integers,...">
<polygon fill="white" stroke="black" points="226.5,-49.5 226.5,-79.5 372.5,-79.5 372.5,-49.5 226.5,-49.5"/>
<text text-anchor="start" x="234.5" y="-67.5" font-family="FreeSans" font-size="10.00">DGtal::concepts::CPositive</text>
<text text-anchor="middle" x="299.5" y="-56.5" font-family="FreeSans" font-size="10.00">IrreducibleFraction&lt; T &gt;</text>
</a>
</g>
</g>
<!-- Node1&#45;&gt;Node12 -->
<g id="edge13" class="edge">
<title>Node1&#45;&gt;Node12</title>
<path fill="none" stroke="midnightblue" d="M105.26,-160.21C127.61,-139.04 163.98,-107.81 201,-89.5 208.99,-85.55 217.66,-82.18 226.44,-79.32"/>
<polygon fill="midnightblue" stroke="midnightblue" points="102.73,-157.79 97.95,-167.24 107.58,-162.83 102.73,-157.79"/>
</g>
<!-- Node13 -->
<g id="node13" class="node">
<title>Node13</title>
<g id="a_node13"><a xlink:href="structDGtal_1_1concepts_1_1CSinglePassRange.html" target="_top" xlink:title="Aim: Defines the concept describing a range.">
<polygon fill="white" stroke="black" points="231,-235.5 231,-265.5 368,-265.5 368,-235.5 231,-235.5"/>
<text text-anchor="start" x="239" y="-253.5" font-family="FreeSans" font-size="10.00">DGtal::concepts::CSingle</text>
<text text-anchor="middle" x="299.5" y="-242.5" font-family="FreeSans" font-size="10.00">PassRange&lt; T &gt;</text>
</a>
</g>
</g>
<!-- Node1&#45;&gt;Node13 -->
<g id="edge14" class="edge">
<title>Node1&#45;&gt;Node13</title>
<path fill="none" stroke="midnightblue" d="M129.64,-201.31C151.16,-209.62 177.17,-219.15 201,-226.5 211.24,-229.66 222.19,-232.69 232.92,-235.46"/>
<polygon fill="midnightblue" stroke="midnightblue" points="130.67,-197.96 120.09,-197.59 128.13,-204.48 130.67,-197.96"/>
</g>
<!-- Node14 -->
<g id="node14" class="node">
<title>Node14</title>
<g id="a_node14"><a xlink:href="structDGtal_1_1concepts_1_1CSinglePassRangeWithWritableIterator.html" target="_top" xlink:title="Aim: refined concept of const single pass range which require that an output iterator exists.">
<polygon fill="white" stroke="black" points="201,-186.5 201,-216.5 398,-216.5 398,-186.5 201,-186.5"/>
<text text-anchor="start" x="209" y="-204.5" font-family="FreeSans" font-size="10.00">DGtal::concepts::CSingle</text>
<text text-anchor="middle" x="299.5" y="-193.5" font-family="FreeSans" font-size="10.00">PassRangeWithWritableIterator&lt; T &gt;</text>
</a>
</g>
</g>
<!-- Node1&#45;&gt;Node14 -->
<g id="edge16" class="edge">
<title>Node1&#45;&gt;Node14</title>
<path fill="none" stroke="midnightblue" d="M174.33,-190.55C183.05,-191.32 191.93,-192.1 200.71,-192.88"/>
<polygon fill="midnightblue" stroke="midnightblue" points="174.43,-187.05 164.16,-189.66 173.82,-194.02 174.43,-187.05"/>
</g>
<!-- Node17 -->
<g id="node17" class="node">
<title>Node17</title>
<g id="a_node17"><a xlink:href="structDGtal_1_1concepts_1_1CUndirectedSimpleGraph.html" target="_top" xlink:title="Aim: Represents the concept of local graph: each vertex has neighboring vertices, but we do not neces...">
<polygon fill="white" stroke="black" points="219.5,-0.5 219.5,-30.5 379.5,-30.5 379.5,-0.5 219.5,-0.5"/>
<text text-anchor="start" x="227.5" y="-18.5" font-family="FreeSans" font-size="10.00">DGtal::concepts::CUndirected</text>
<text text-anchor="middle" x="299.5" y="-7.5" font-family="FreeSans" font-size="10.00">SimpleGraph&lt; T &gt;</text>
</a>
</g>
</g>
<!-- Node1&#45;&gt;Node17 -->
<g id="edge20" class="edge">
<title>Node1&#45;&gt;Node17</title>
<path fill="none" stroke="midnightblue" d="M96.13,-158.48C115,-126.3 152.88,-69.74 201,-39.5 206.61,-35.97 212.7,-32.97 219.01,-30.4"/>
<polygon fill="midnightblue" stroke="midnightblue" points="93.04,-156.83 91.11,-167.25 99.12,-160.31 93.04,-156.83"/>
</g>
<!-- Node3 -->
<g id="node3" class="node">
<title>Node3</title>
<g id="a_node3"><a xlink:href="structDGtal_1_1concepts_1_1CSinglePassRangeWithWritableIteratorFromPoint.html" target="_top" xlink:title="Aim: refined concept of single pass range with a outputIterator() method from a point.">
<polygon fill="white" stroke="black" points="839,-296 839,-337 1008,-337 1008,-296 839,-296"/>
<text text-anchor="start" x="847" y="-325" font-family="FreeSans" font-size="10.00">DGtal::concepts::CSingle</text>
<text text-anchor="start" x="847" y="-314" font-family="FreeSans" font-size="10.00">PassRangeWithWritableIterator</text>
<text text-anchor="middle" x="923.5" y="-303" font-family="FreeSans" font-size="10.00">FromPoint&lt; T, Value &gt;</text>
</a>
</g>
</g>
<!-- Node2&#45;&gt;Node3 -->
<g id="edge2" class="edge">
<title>Node2&#45;&gt;Node3</title>
<path fill="none" stroke="midnightblue" d="M584.53,-349.43C642.54,-349.77 719.96,-348.48 788,-341.5 804.54,-339.8 822.09,-337.17 838.86,-334.23"/>
<polygon fill="midnightblue" stroke="midnightblue" points="584.32,-345.92 574.29,-349.35 584.26,-352.92 584.32,-345.92"/>
</g>
<!-- Node5 -->
<g id="node5" class="node">
<title>Node5</title>
<g id="a_node5"><a xlink:href="structDGtal_1_1concepts_1_1CBidirectionalRange.html" target="_top" xlink:title="Aim: Defines the concept describing a bidirectional range.">
<polygon fill="white" stroke="black" points="606,-104.5 606,-134.5 774,-134.5 774,-104.5 606,-104.5"/>
<text text-anchor="start" x="614" y="-122.5" font-family="FreeSans" font-size="10.00">DGtal::concepts::CBidirectional</text>
<text text-anchor="middle" x="690" y="-111.5" font-family="FreeSans" font-size="10.00">Range&lt; T &gt;</text>
</a>
</g>
</g>
<!-- Node4&#45;&gt;Node5 -->
<g id="edge4" class="edge">
<title>Node4&#45;&gt;Node5</title>
<path fill="none" stroke="midnightblue" d="M407.82,-143.38C470.28,-138.08 547.86,-131.49 605.7,-126.58"/>
<polygon fill="midnightblue" stroke="midnightblue" points="407.2,-139.92 397.53,-144.26 407.79,-146.9 407.2,-139.92"/>
</g>
<!-- Node7 -->
<g id="node7" class="node">
<title>Node7</title>
<g id="a_node7"><a xlink:href="structDGtal_1_1concepts_1_1CConstBidirectionalRangeFromPoint.html" target="_top" xlink:title="Aim: refined concept of const bidirectional range with a begin() method from a point.">
<polygon fill="white" stroke="black" points="592,-55.5 592,-85.5 788,-85.5 788,-55.5 592,-55.5"/>
<text text-anchor="start" x="600" y="-73.5" font-family="FreeSans" font-size="10.00">DGtal::concepts::CConstBidirectional</text>
<text text-anchor="middle" x="690" y="-62.5" font-family="FreeSans" font-size="10.00">RangeFromPoint&lt; T &gt;</text>
</a>
</g>
</g>
<!-- Node4&#45;&gt;Node7 -->
<g id="edge6" class="edge">
<title>Node4&#45;&gt;Node7</title>
<path fill="none" stroke="midnightblue" d="M376.41,-135.2C389.6,-132.25 403.19,-129.26 416,-126.5 482.81,-112.13 559.01,-96.57 613.89,-85.51"/>
<polygon fill="midnightblue" stroke="midnightblue" points="375.41,-131.83 366.42,-137.43 376.94,-138.66 375.41,-131.83"/>
</g>
<!-- Node6 -->
<g id="node6" class="node">
<title>Node6</title>
<g id="a_node6"><a xlink:href="structDGtal_1_1concepts_1_1CBidirectionalRangeFromPoint.html" target="_top" xlink:title="Aim: refined concept of single pass range with a begin() method from a point.">
<polygon fill="white" stroke="black" points="839.5,-92.5 839.5,-122.5 1007.5,-122.5 1007.5,-92.5 839.5,-92.5"/>
<text text-anchor="start" x="847.5" y="-110.5" font-family="FreeSans" font-size="10.00">DGtal::concepts::CBidirectional</text>
<text text-anchor="middle" x="923.5" y="-99.5" font-family="FreeSans" font-size="10.00">RangeFromPoint&lt; T &gt;</text>
</a>
</g>
</g>
<!-- Node5&#45;&gt;Node6 -->
<g id="edge5" class="edge">
<title>Node5&#45;&gt;Node6</title>
<path fill="none" stroke="midnightblue" d="M784.26,-114.67C802.43,-113.72 821.38,-112.74 839.21,-111.82"/>
<polygon fill="midnightblue" stroke="midnightblue" points="784.06,-111.17 774.25,-115.18 784.42,-118.16 784.06,-111.17"/>
</g>
<!-- Node7&#45;&gt;Node6 -->
<g id="edge7" class="edge">
<title>Node7&#45;&gt;Node6</title>
<path fill="none" stroke="midnightblue" d="M795.29,-87.17C810,-89.52 824.96,-91.91 839.21,-94.19"/>
<polygon fill="midnightblue" stroke="midnightblue" points="795.59,-83.67 785.16,-85.55 794.48,-90.58 795.59,-83.67"/>
</g>
<!-- Node9 -->
<g id="node9" class="node">
<title>Node9</title>
<g id="a_node9"><a xlink:href="structDGtal_1_1concepts_1_1CSinglePassRangeFromPoint.html" target="_top" xlink:title="Aim: refined concept of single pass range with a begin() method from a point.">
<polygon fill="white" stroke="black" points="616.5,-252.5 616.5,-282.5 763.5,-282.5 763.5,-252.5 616.5,-252.5"/>
<text text-anchor="start" x="624.5" y="-270.5" font-family="FreeSans" font-size="10.00">DGtal::concepts::CSingle</text>
<text text-anchor="middle" x="690" y="-259.5" font-family="FreeSans" font-size="10.00">PassRangeFromPoint&lt; T &gt;</text>
</a>
</g>
</g>
<!-- Node8&#45;&gt;Node9 -->
<g id="edge9" class="edge">
<title>Node8&#45;&gt;Node9</title>
<path fill="none" stroke="midnightblue" d="M392.28,-291.94C460.68,-286.31 552.82,-278.72 616.18,-273.5"/>
<polygon fill="midnightblue" stroke="midnightblue" points="391.62,-288.48 381.94,-292.79 392.2,-295.46 391.62,-288.48"/>
</g>
<!-- Node10 -->
<g id="node10" class="node">
<title>Node10</title>
<g id="a_node10"><a xlink:href="structDGtal_1_1concepts_1_1CConstSinglePassRangeFromPoint.html" target="_top" xlink:title=" ">
<polygon fill="white" stroke="black" points="600,-301.5 600,-331.5 780,-331.5 780,-301.5 600,-301.5"/>
<text text-anchor="start" x="608" y="-319.5" font-family="FreeSans" font-size="10.00">DGtal::concepts::CConstSingle</text>
<text text-anchor="middle" x="690" y="-308.5" font-family="FreeSans" font-size="10.00">PassRangeFromPoint&lt; T, Value &gt;</text>
</a>
</g>
</g>
<!-- Node8&#45;&gt;Node10 -->
<g id="edge10" class="edge">
<title>Node8&#45;&gt;Node10</title>
<path fill="none" stroke="orange" stroke-dasharray="5,2" d="M392.23,-303.51C454.96,-306.26 537.7,-309.88 599.88,-312.6"/>
<polygon fill="orange" stroke="orange" points="392.09,-300 381.94,-303.06 391.78,-307 392.09,-300"/>
<text text-anchor="middle" x="495" y="-313.5" font-family="FreeSans" font-size="10.00"> &lt; T, Value &gt;</text>
</g>
<!-- Node10&#45;&gt;Node3 -->
<g id="edge11" class="edge">
<title>Node10&#45;&gt;Node3</title>
<path fill="none" stroke="midnightblue" d="M790.63,-316.5C806.65,-316.5 823.09,-316.5 838.69,-316.5"/>
<polygon fill="midnightblue" stroke="midnightblue" points="790.17,-313 780.17,-316.5 790.17,-320 790.17,-313"/>
</g>
<!-- Node13&#45;&gt;Node9 -->
<g id="edge15" class="edge">
<title>Node13&#45;&gt;Node9</title>
<path fill="none" stroke="midnightblue" d="M378.17,-253.9C447.52,-256.93 548.33,-261.34 616.17,-264.31"/>
<polygon fill="midnightblue" stroke="midnightblue" points="378.32,-250.4 368.17,-253.46 378.01,-257.4 378.32,-250.4"/>
</g>
<!-- Node14&#45;&gt;Node3 -->
<g id="edge19" class="edge">
<title>Node14&#45;&gt;Node3</title>
<path fill="none" stroke="midnightblue" d="M408.11,-205.64C529.64,-211.22 719.4,-222.91 788,-243.5 826.68,-255.11 866.84,-278.67 893.09,-295.89"/>
<polygon fill="midnightblue" stroke="midnightblue" points="408.17,-202.14 398.03,-205.19 407.86,-209.13 408.17,-202.14"/>
</g>
<!-- Node15 -->
<g id="node15" class="node">
<title>Node15</title>
<g id="a_node15"><a xlink:href="structDGtal_1_1concepts_1_1CBidirectionalRangeWithWritableIterator.html" target="_top" xlink:title="Aim: refined concept of bidirectional range which require that a reverse output iterator exists.">
<polygon fill="white" stroke="black" points="606,-154 606,-195 774,-195 774,-154 606,-154"/>
<text text-anchor="start" x="614" y="-183" font-family="FreeSans" font-size="10.00">DGtal::concepts::CBidirectional</text>
<text text-anchor="start" x="614" y="-172" font-family="FreeSans" font-size="10.00">RangeWithWritableIterator</text>
<text text-anchor="middle" x="690" y="-161" font-family="FreeSans" font-size="10.00">&lt; T, Value &gt;</text>
</a>
</g>
</g>
<!-- Node14&#45;&gt;Node15 -->
<g id="edge17" class="edge">
<title>Node14&#45;&gt;Node15</title>
<path fill="none" stroke="midnightblue" d="M408.32,-194.01C470.77,-189.67 548.2,-184.29 605.91,-180.27"/>
<polygon fill="midnightblue" stroke="midnightblue" points="407.77,-190.54 398.03,-194.72 408.25,-197.52 407.77,-190.54"/>
</g>
<!-- Node16 -->
<g id="node16" class="node">
<title>Node16</title>
<g id="a_node16"><a xlink:href="structDGtal_1_1concepts_1_1CBidirectionalRangeWithWritableIteratorFromPoint.html" target="_top" xlink:title="Aim: refined concept of single pass range with an routputIterator() method from a point.">
<polygon fill="white" stroke="black" points="825,-154 825,-195 1022,-195 1022,-154 825,-154"/>
<text text-anchor="start" x="833" y="-183" font-family="FreeSans" font-size="10.00">DGtal::concepts::CBidirectional</text>
<text text-anchor="start" x="833" y="-172" font-family="FreeSans" font-size="10.00">RangeWithWritableIteratorFromPoint</text>
<text text-anchor="middle" x="923.5" y="-161" font-family="FreeSans" font-size="10.00">&lt; T, Value &gt;</text>
</a>
</g>
</g>
<!-- Node15&#45;&gt;Node16 -->
<g id="edge18" class="edge">
<title>Node15&#45;&gt;Node16</title>
<path fill="none" stroke="midnightblue" d="M784.31,-174.5C797.58,-174.5 811.26,-174.5 824.62,-174.5"/>
<polygon fill="midnightblue" stroke="midnightblue" points="784.25,-171 774.25,-174.5 784.25,-178 784.25,-171"/>
</g>
</g>
</svg>
