<?xml version="1.0" encoding="UTF-8" standalone="no"?>
<!DOCTYPE svg PUBLIC "-//W3C//DTD SVG 1.1//EN"
 "http://www.w3.org/Graphics/SVG/1.1/DTD/svg11.dtd">
<!-- Generated by graphviz version 2.43.0 (0)
 -->
<!-- Title: DGtal::concepts::CLabel&lt; T &gt; Pages: 1 -->
<svg width="1390pt" height="172pt"
 viewBox="0.00 0.00 1390.00 172.00" xmlns="http://www.w3.org/2000/svg" xmlns:xlink="http://www.w3.org/1999/xlink">
<g id="graph0" class="graph" transform="scale(1 1) rotate(0) translate(4 168)">
<title>DGtal::concepts::CLabel&lt; T &gt;</title>
<!-- Node1 -->
<g id="Node000001" class="node">
<title>Node1</title>
<g id="a_Node000001"><a xlink:title="Aim: Define the concept of DGtal labels. Models of CLabel can be default&#45;constructible,...">
<polygon fill="#999999" stroke="#666666" points="376,-93.5 215,-93.5 215,-74.5 376,-74.5 376,-93.5"/>
<text text-anchor="middle" x="295.5" y="-81.5" font-family="FreeSans" font-size="10.00">DGtal::concepts::CLabel&lt; T &gt;</text>
</a>
</g>
</g>
<!-- Node5 -->
<g id="Node000005" class="node">
<title>Node5</title>
<g id="a_Node000005"><a xlink:href="structDGtal_1_1concepts_1_1CQuantity.html" target="_top" xlink:title="Aim: defines the concept of quantity in DGtal.">
<polygon fill="white" stroke="#666666" points="589,-93.5 412,-93.5 412,-74.5 589,-74.5 589,-93.5"/>
<text text-anchor="middle" x="500.5" y="-81.5" font-family="FreeSans" font-size="10.00">DGtal::concepts::CQuantity&lt; T &gt;</text>
</a>
</g>
</g>
<!-- Node1&#45;&gt;Node5 -->
<g id="edge4_Node000001_Node000005" class="edge">
<title>Node1&#45;&gt;Node5</title>
<g id="a_edge4_Node000001_Node000005"><a xlink:title=" ">
<path fill="none" stroke="#63b8ff" d="M386.35,-84C394.77,-84 403.29,-84 411.69,-84"/>
<polygon fill="#63b8ff" stroke="#63b8ff" points="386.15,-80.5 376.15,-84 386.15,-87.5 386.15,-80.5"/>
</a>
</g>
</g>
<!-- Node2 -->
<g id="Node000002" class="node">
<title>Node2</title>
<g id="a_Node000002"><a xlink:href="structboost_1_1DefaultConstructible.html" target="_top" xlink:title="Go to http://www.sgi.com/tech/stl/DefaultConstructible.html.">
<polygon fill="white" stroke="#666666" points="179,-130.5 0,-130.5 0,-111.5 179,-111.5 179,-130.5"/>
<text text-anchor="middle" x="89.5" y="-118.5" font-family="FreeSans" font-size="10.00">boost::DefaultConstructible&lt; T &gt;</text>
</a>
</g>
</g>
<!-- Node2&#45;&gt;Node1 -->
<g id="edge1_Node000001_Node000002" class="edge">
<title>Node2&#45;&gt;Node1</title>
<g id="a_edge1_Node000001_Node000002"><a xlink:title=" ">
<path fill="none" stroke="#63b8ff" d="M153.25,-109.62C181.61,-104.48 214.74,-98.47 241.79,-93.56"/>
<polygon fill="#63b8ff" stroke="#63b8ff" points="152.25,-106.24 143.04,-111.47 153.5,-113.13 152.25,-106.24"/>
</a>
</g>
</g>
<!-- Node3 -->
<g id="Node000003" class="node">
<title>Node3</title>
<g id="a_Node000003"><a xlink:href="structboost_1_1Assignable.html" target="_top" xlink:title="Go to http://www.sgi.com/tech/stl/Assignable.html.">
<polygon fill="white" stroke="#666666" points="155,-93.5 24,-93.5 24,-74.5 155,-74.5 155,-93.5"/>
<text text-anchor="middle" x="89.5" y="-81.5" font-family="FreeSans" font-size="10.00">boost::Assignable&lt; T &gt;</text>
</a>
</g>
</g>
<!-- Node3&#45;&gt;Node1 -->
<g id="edge2_Node000001_Node000003" class="edge">
<title>Node3&#45;&gt;Node1</title>
<g id="a_edge2_Node000001_Node000003"><a xlink:title=" ">
<path fill="none" stroke="#63b8ff" d="M165.48,-84C181.6,-84 198.69,-84 214.97,-84"/>
<polygon fill="#63b8ff" stroke="#63b8ff" points="165.05,-80.5 155.05,-84 165.05,-87.5 165.05,-80.5"/>
</a>
</g>
</g>
<!-- Node4 -->
<g id="Node000004" class="node">
<title>Node4</title>
<g id="a_Node000004"><a xlink:href="structboost_1_1EqualityComparable.html" target="_top" xlink:title="Go to http://www.sgi.com/tech/stl/EqualityComparable.html.">
<polygon fill="white" stroke="#666666" points="178,-56.5 1,-56.5 1,-37.5 178,-37.5 178,-56.5"/>
<text text-anchor="middle" x="89.5" y="-44.5" font-family="FreeSans" font-size="10.00">boost::EqualityComparable&lt; T &gt;</text>
</a>
</g>
</g>
<!-- Node4&#45;&gt;Node1 -->
<g id="edge3_Node000001_Node000004" class="edge">
<title>Node4&#45;&gt;Node1</title>
<g id="a_edge3_Node000001_Node000004"><a xlink:title=" ">
<path fill="none" stroke="#63b8ff" d="M153.25,-58.38C181.61,-63.52 214.74,-69.53 241.79,-74.44"/>
<polygon fill="#63b8ff" stroke="#63b8ff" points="153.5,-54.87 143.04,-56.53 152.25,-61.76 153.5,-54.87"/>
</a>
</g>
</g>
<!-- Node6 -->
<g id="Node000006" class="node">
<title>Node6</title>
<g id="a_Node000006"><a xlink:href="structDGtal_1_1concepts_1_1CBoundedNumber.html" target="_top" xlink:title="Aim: The concept CBoundedNumber specifies what are the bounded numbers. Models of this concept should...">
<polygon fill="white" stroke="#666666" points="775.5,-164 626.5,-164 626.5,-134 775.5,-134 775.5,-164"/>
<text text-anchor="start" x="634.5" y="-152" font-family="FreeSans" font-size="10.00">DGtal::concepts::CBounded</text>
<text text-anchor="middle" x="701" y="-141" font-family="FreeSans" font-size="10.00">Number&lt; T &gt;</text>
</a>
</g>
</g>
<!-- Node5&#45;&gt;Node6 -->
<g id="edge5_Node000005_Node000006" class="edge">
<title>Node5&#45;&gt;Node6</title>
<g id="a_edge5_Node000005_Node000006"><a xlink:title=" ">
<path fill="none" stroke="#63b8ff" d="M540.43,-96.75C573.02,-107.42 619.59,-122.67 654.01,-133.94"/>
<polygon fill="#63b8ff" stroke="#63b8ff" points="541.38,-93.38 530.79,-93.59 539.2,-100.03 541.38,-93.38"/>
</a>
</g>
</g>
<!-- Node7 -->
<g id="Node000007" class="node">
<title>Node7</title>
<g id="a_Node000007"><a xlink:href="structDGtal_1_1concepts_1_1CIntegralNumber.html" target="_top" xlink:title="Aim: Concept checking for Integral Numbers. Models of this concept should be listed in NumberTraits c...">
<polygon fill="white" stroke="#666666" points="971.5,-123 827.5,-123 827.5,-93 971.5,-93 971.5,-123"/>
<text text-anchor="start" x="835.5" y="-111" font-family="FreeSans" font-size="10.00">DGtal::concepts::CIntegral</text>
<text text-anchor="middle" x="899.5" y="-100" font-family="FreeSans" font-size="10.00">Number&lt; T &gt;</text>
</a>
</g>
</g>
<!-- Node5&#45;&gt;Node7 -->
<g id="edge6_Node000005_Node000007" class="edge">
<title>Node5&#45;&gt;Node7</title>
<g id="a_edge6_Node000005_Node000007"><a xlink:title=" ">
<path fill="none" stroke="#63b8ff" d="M599.36,-89.92C669.99,-94.19 763.74,-99.85 827.33,-103.7"/>
<polygon fill="#63b8ff" stroke="#63b8ff" points="599.31,-86.41 589.11,-89.3 598.89,-93.39 599.31,-86.41"/>
</a>
</g>
</g>
<!-- Node9 -->
<g id="Node000009" class="node">
<title>Node9</title>
<g id="a_Node000009"><a xlink:href="structDGtal_1_1concepts_1_1CSignedNumber.html" target="_top" xlink:title="Aim: Concept checking for Signed Numbers. Models of this concept should be listed in NumberTraits cla...">
<polygon fill="white" stroke="#666666" points="771,-78 631,-78 631,-48 771,-48 771,-78"/>
<text text-anchor="start" x="639" y="-66" font-family="FreeSans" font-size="10.00">DGtal::concepts::CSigned</text>
<text text-anchor="middle" x="701" y="-55" font-family="FreeSans" font-size="10.00">Number&lt; T &gt;</text>
</a>
</g>
</g>
<!-- Node5&#45;&gt;Node9 -->
<g id="edge8_Node000005_Node000009" class="edge">
<title>Node5&#45;&gt;Node9</title>
<g id="a_edge8_Node000005_Node000009"><a xlink:title=" ">
<path fill="none" stroke="#63b8ff" d="M599.29,-73.65C609.9,-72.53 620.54,-71.41 630.7,-70.33"/>
<polygon fill="#63b8ff" stroke="#63b8ff" points="598.72,-70.2 589.14,-74.73 599.46,-77.16 598.72,-70.2"/>
</a>
</g>
</g>
<!-- Node12 -->
<g id="Node000012" class="node">
<title>Node12</title>
<g id="a_Node000012"><a xlink:href="structDGtal_1_1concepts_1_1CUnsignedNumber.html" target="_top" xlink:title="Aim: Concept checking for Unsigned numbers. Models of this concept should be listed in NumberTraits c...">
<polygon fill="white" stroke="#666666" points="777,-30 625,-30 625,0 777,0 777,-30"/>
<text text-anchor="start" x="633" y="-18" font-family="FreeSans" font-size="10.00">DGtal::concepts::CUnsigned</text>
<text text-anchor="middle" x="701" y="-7" font-family="FreeSans" font-size="10.00">Number&lt; T &gt;</text>
</a>
</g>
</g>
<!-- Node5&#45;&gt;Node12 -->
<g id="edge12_Node000005_Node000012" class="edge">
<title>Node5&#45;&gt;Node12</title>
<g id="a_edge12_Node000005_Node000012"><a xlink:title=" ">
<path fill="none" stroke="#63b8ff" d="M536.57,-70.8C561.22,-61.63 595.02,-49.26 625,-39 633.67,-36.04 642.93,-32.98 651.89,-30.08"/>
<polygon fill="#63b8ff" stroke="#63b8ff" points="535.08,-67.62 526.94,-74.4 537.53,-74.18 535.08,-67.62"/>
</a>
</g>
</g>
<!-- Node8 -->
<g id="Node000008" class="node">
<title>Node8</title>
<g id="a_Node000008"><a xlink:href="structDGtal_1_1concepts_1_1CInteger.html" target="_top" xlink:title="Aim: Concept checking for Integer Numbers. More precisely, this concept is a refinement of both CEucl...">
<polygon fill="white" stroke="#666666" points="1382,-92.5 1212,-92.5 1212,-73.5 1382,-73.5 1382,-92.5"/>
<text text-anchor="middle" x="1297" y="-80.5" font-family="FreeSans" font-size="10.00">DGtal::concepts::CInteger&lt; T &gt;</text>
</a>
</g>
</g>
<!-- Node7&#45;&gt;Node8 -->
<g id="edge7_Node000007_Node000008" class="edge">
<title>Node7&#45;&gt;Node8</title>
<g id="a_edge7_Node000007_Node000008"><a xlink:title=" ">
<path fill="none" stroke="#63b8ff" d="M981.77,-102.86C1048.86,-98.62 1143.76,-92.62 1211.68,-88.33"/>
<polygon fill="#63b8ff" stroke="#63b8ff" points="981.42,-99.38 971.66,-103.5 981.87,-106.36 981.42,-99.38"/>
</a>
</g>
</g>
<!-- Node10 -->
<g id="Node000010" class="node">
<title>Node10</title>
<g id="a_Node000010"><a xlink:href="structDGtal_1_1concepts_1_1CCommutativeRing.html" target="_top" xlink:title="Aim: Defines the mathematical concept equivalent to a unitary commutative ring.">
<polygon fill="white" stroke="#666666" points="986,-75 813,-75 813,-45 986,-45 986,-75"/>
<text text-anchor="start" x="821" y="-63" font-family="FreeSans" font-size="10.00">DGtal::concepts::CCommutative</text>
<text text-anchor="middle" x="899.5" y="-52" font-family="FreeSans" font-size="10.00">Ring&lt; T &gt;</text>
</a>
</g>
</g>
<!-- Node9&#45;&gt;Node10 -->
<g id="edge9_Node000009_Node000010" class="edge">
<title>Node9&#45;&gt;Node10</title>
<g id="a_edge9_Node000009_Node000010"><a xlink:title=" ">
<path fill="none" stroke="#63b8ff" d="M781.25,-61.79C791.62,-61.63 802.28,-61.47 812.75,-61.31"/>
<polygon fill="#63b8ff" stroke="#63b8ff" points="780.95,-58.29 771,-61.95 781.05,-65.29 780.95,-58.29"/>
</a>
</g>
</g>
<!-- Node11 -->
<g id="Node000011" class="node">
<title>Node11</title>
<g id="a_Node000011"><a xlink:href="structDGtal_1_1concepts_1_1CEuclideanRing.html" target="_top" xlink:title="Aim: Defines the mathematical concept equivalent to a unitary commutative ring with a division operat...">
<polygon fill="white" stroke="#666666" points="1176,-77 1022,-77 1022,-47 1176,-47 1176,-77"/>
<text text-anchor="start" x="1030" y="-65" font-family="FreeSans" font-size="10.00">DGtal::concepts::CEuclidean</text>
<text text-anchor="middle" x="1099" y="-54" font-family="FreeSans" font-size="10.00">Ring&lt; T &gt;</text>
</a>
</g>
</g>
<!-- Node10&#45;&gt;Node11 -->
<g id="edge10_Node000010_Node000011" class="edge">
<title>Node10&#45;&gt;Node11</title>
<g id="a_edge10_Node000010_Node000011"><a xlink:title=" ">
<path fill="none" stroke="#63b8ff" d="M996.32,-60.97C1004.92,-61.06 1013.54,-61.14 1021.93,-61.23"/>
<polygon fill="#63b8ff" stroke="#63b8ff" points="996.3,-57.47 986.26,-60.87 996.23,-64.47 996.3,-57.47"/>
</a>
</g>
</g>
<!-- Node11&#45;&gt;Node8 -->
<g id="edge11_Node000011_Node000008" class="edge">
<title>Node11&#45;&gt;Node8</title>
<g id="a_edge11_Node000011_Node000008"><a xlink:title=" ">
<path fill="none" stroke="#63b8ff" d="M1186.04,-71.22C1194.61,-72.14 1203.3,-73.07 1211.85,-73.98"/>
<polygon fill="#63b8ff" stroke="#63b8ff" points="1186.38,-67.73 1176.06,-70.15 1185.63,-74.69 1186.38,-67.73"/>
</a>
</g>
</g>
</g>
</svg>
