<?xml version="1.0" encoding="UTF-8" standalone="no"?>
<!DOCTYPE svg PUBLIC "-//W3C//DTD SVG 1.1//EN"
 "http://www.w3.org/Graphics/SVG/1.1/DTD/svg11.dtd">
<!-- Generated by graphviz version 2.43.0 (0)
 -->
<!-- Title: DGtal::concepts::CPointFunctor&lt; T &gt; Pages: 1 -->
<svg width="1992pt" height="107pt"
 viewBox="0.00 0.00 1992.00 107.00" xmlns="http://www.w3.org/2000/svg" xmlns:xlink="http://www.w3.org/1999/xlink">
<g id="graph0" class="graph" transform="scale(1 1) rotate(0) translate(4 103)">
<title>DGtal::concepts::CPointFunctor&lt; T &gt;</title>
<!-- Node1 -->
<g id="Node000001" class="node">
<title>Node1</title>
<g id="a_Node000001"><a xlink:title="Aim: Defines a functor on points.">
<polygon fill="#999999" stroke="#666666" points="1100,-69.5 904,-69.5 904,-50.5 1100,-50.5 1100,-69.5"/>
<text text-anchor="middle" x="1002" y="-57.5" font-family="FreeSans" font-size="10.00">DGtal::concepts::CPointFunctor&lt; T &gt;</text>
</a>
</g>
</g>
<!-- Node7 -->
<g id="Node000007" class="node">
<title>Node7</title>
<g id="a_Node000007"><a xlink:href="structDGtal_1_1concepts_1_1COrientationFunctor.html" target="_top" xlink:title="Aim: This concept gathers models implementing an orientation test of &#160;points in a space of dimension ...">
<polygon fill="white" stroke="#666666" points="1342,-98 1181,-98 1181,-68 1342,-68 1342,-98"/>
<text text-anchor="start" x="1189" y="-86" font-family="FreeSans" font-size="10.00">DGtal::concepts::COrientation</text>
<text text-anchor="middle" x="1261.5" y="-75" font-family="FreeSans" font-size="10.00">Functor&lt; T &gt;</text>
</a>
</g>
</g>
<!-- Node1&#45;&gt;Node7 -->
<g id="edge6_Node000001_Node000007" class="edge">
<title>Node1&#45;&gt;Node7</title>
<g id="a_edge6_Node000001_Node000007"><a xlink:title=" ">
<path fill="none" stroke="#63b8ff" d="M1110.36,-69.59C1133.89,-71.69 1158.39,-73.88 1180.62,-75.86"/>
<polygon fill="#63b8ff" stroke="#63b8ff" points="1110.62,-66.1 1100.35,-68.7 1110,-73.07 1110.62,-66.1"/>
</a>
</g>
</g>
<!-- Node9 -->
<g id="Node000009" class="node">
<title>Node9</title>
<g id="a_Node000009"><a xlink:href="structDGtal_1_1concepts_1_1CPointFunctor.html" target="_top" xlink:title=" ">
<polygon fill="white" stroke="#666666" points="1358,-48.5 1165,-48.5 1165,-29.5 1358,-29.5 1358,-48.5"/>
<text text-anchor="middle" x="1261.5" y="-36.5" font-family="FreeSans" font-size="10.00">DGtal::concepts::CPointFunctor&lt; I &gt;</text>
</a>
</g>
</g>
<!-- Node1&#45;&gt;Node9 -->
<g id="edge8_Node000001_Node000009" class="edge">
<title>Node1&#45;&gt;Node9</title>
<g id="a_edge8_Node000001_Node000009"><a xlink:title=" ">
<path fill="none" stroke="orange" stroke-dasharray="5,2" d="M1110.56,-51.23C1128.53,-49.76 1147.07,-48.25 1164.72,-46.81"/>
<polygon fill="orange" stroke="orange" points="1110.03,-47.76 1100.35,-52.06 1110.6,-54.74 1110.03,-47.76"/>
</a>
</g>
<text text-anchor="middle" x="1132.5" y="-54" font-family="FreeSans" font-size="10.00" fill="grey"> &lt; I &gt;</text>
</g>
<!-- Node2 -->
<g id="Node000002" class="node">
<title>Node2</title>
<g id="a_Node000002"><a xlink:href="structDGtal_1_1concepts_1_1CUnaryFunctor.html" target="_top" xlink:title=" ">
<polygon fill="white" stroke="#666666" points="867,-75 695,-75 695,-45 867,-45 867,-75"/>
<text text-anchor="start" x="703" y="-63" font-family="FreeSans" font-size="10.00">DGtal::concepts::CUnaryFunctor</text>
<text text-anchor="middle" x="781" y="-52" font-family="FreeSans" font-size="10.00">&lt; T, T::Point, T::Value &gt;</text>
</a>
</g>
</g>
<!-- Node2&#45;&gt;Node1 -->
<g id="edge1_Node000001_Node000002" class="edge">
<title>Node2&#45;&gt;Node1</title>
<g id="a_edge1_Node000001_Node000002"><a xlink:title=" ">
<path fill="none" stroke="#63b8ff" d="M877.51,-60C886.28,-60 895.16,-60 903.94,-60"/>
<polygon fill="#63b8ff" stroke="#63b8ff" points="877.3,-56.5 867.3,-60 877.3,-63.5 877.3,-56.5"/>
</a>
</g>
</g>
<!-- Node3 -->
<g id="Node000003" class="node">
<title>Node3</title>
<g id="a_Node000003"><a xlink:href="structboost_1_1Assignable.html" target="_top" xlink:title="Go to http://www.sgi.com/tech/stl/Assignable.html.">
<polygon fill="white" stroke="#666666" points="520.5,-90.5 389.5,-90.5 389.5,-71.5 520.5,-71.5 520.5,-90.5"/>
<text text-anchor="middle" x="455" y="-78.5" font-family="FreeSans" font-size="10.00">boost::Assignable&lt; T &gt;</text>
</a>
</g>
</g>
<!-- Node3&#45;&gt;Node2 -->
<g id="edge2_Node000002_Node000003" class="edge">
<title>Node3&#45;&gt;Node2</title>
<g id="a_edge2_Node000002_Node000003"><a xlink:title=" ">
<path fill="none" stroke="#63b8ff" d="M530.99,-76.14C579.91,-72.97 643.88,-68.82 694.73,-65.53"/>
<polygon fill="#63b8ff" stroke="#63b8ff" points="530.54,-72.66 520.79,-76.8 530.99,-79.65 530.54,-72.66"/>
</a>
</g>
</g>
<!-- Node4 -->
<g id="Node000004" class="node">
<title>Node4</title>
<g id="a_Node000004"><a xlink:href="structDGtal_1_1concepts_1_1CUnaryFunctor.html" target="_top" xlink:title="Aim: Defines a unary functor, which associates arguments to results.">
<polygon fill="white" stroke="#666666" points="541,-53 369,-53 369,-23 541,-23 541,-53"/>
<text text-anchor="start" x="377" y="-41" font-family="FreeSans" font-size="10.00">DGtal::concepts::CUnaryFunctor</text>
<text text-anchor="middle" x="455" y="-30" font-family="FreeSans" font-size="10.00">&lt; X, A, R &gt;</text>
</a>
</g>
</g>
<!-- Node4&#45;&gt;Node2 -->
<g id="edge3_Node000002_Node000004" class="edge">
<title>Node4&#45;&gt;Node2</title>
<g id="a_edge3_Node000002_Node000004"><a xlink:title=" ">
<path fill="none" stroke="orange" stroke-dasharray="5,2" d="M551.33,-43.01C590.31,-45.22 635.83,-47.99 677,-51 682.82,-51.43 688.82,-51.89 694.86,-52.37"/>
<polygon fill="orange" stroke="orange" points="551.22,-39.5 541.04,-42.44 550.83,-46.49 551.22,-39.5"/>
</a>
</g>
<text text-anchor="middle" x="618" y="-54" font-family="FreeSans" font-size="10.00" fill="grey"> &lt; T, T::Point, T::Value &gt;</text>
</g>
<!-- Node5 -->
<g id="Node000005" class="node">
<title>Node5</title>
<g id="a_Node000005"><a xlink:href="structboost_1_1Assignable.html" target="_top" xlink:title=" ">
<polygon fill="white" stroke="#666666" points="332,-47.5 200,-47.5 200,-28.5 332,-28.5 332,-47.5"/>
<text text-anchor="middle" x="266" y="-35.5" font-family="FreeSans" font-size="10.00">boost::Assignable&lt; X &gt;</text>
</a>
</g>
</g>
<!-- Node5&#45;&gt;Node4 -->
<g id="edge4_Node000004_Node000005" class="edge">
<title>Node5&#45;&gt;Node4</title>
<g id="a_edge4_Node000004_Node000005"><a xlink:title=" ">
<path fill="none" stroke="#63b8ff" d="M342.24,-38C350.95,-38 359.87,-38 368.7,-38"/>
<polygon fill="#63b8ff" stroke="#63b8ff" points="342.14,-34.5 332.14,-38 342.14,-41.5 342.14,-34.5"/>
</a>
</g>
</g>
<!-- Node6 -->
<g id="Node000006" class="node">
<title>Node6</title>
<g id="a_Node000006"><a xlink:href="structboost_1_1Assignable.html" target="_top" xlink:title="Go to http://www.sgi.com/tech/stl/Assignable.html.">
<polygon fill="white" stroke="#666666" points="131,-47.5 0,-47.5 0,-28.5 131,-28.5 131,-47.5"/>
<text text-anchor="middle" x="65.5" y="-35.5" font-family="FreeSans" font-size="10.00">boost::Assignable&lt; T &gt;</text>
</a>
</g>
</g>
<!-- Node6&#45;&gt;Node5 -->
<g id="edge5_Node000005_Node000006" class="edge">
<title>Node6&#45;&gt;Node5</title>
<g id="a_edge5_Node000005_Node000006"><a xlink:title=" ">
<path fill="none" stroke="orange" stroke-dasharray="5,2" d="M141.41,-38C160.58,-38 181.04,-38 199.69,-38"/>
<polygon fill="orange" stroke="orange" points="141.22,-34.5 131.22,-38 141.22,-41.5 141.22,-34.5"/>
</a>
</g>
<text text-anchor="middle" x="165.5" y="-41" font-family="FreeSans" font-size="10.00" fill="grey"> &lt; X &gt;</text>
</g>
<!-- Node8 -->
<g id="Node000008" class="node">
<title>Node8</title>
<g id="a_Node000008"><a xlink:href="structDGtal_1_1concepts_1_1COrientationFunctor2.html" target="_top" xlink:title="Aim: This concept is a refinement of COrientationFunctor, useful for simple algebraic curves that can...">
<polygon fill="white" stroke="#666666" points="1556,-99 1395,-99 1395,-69 1556,-69 1556,-99"/>
<text text-anchor="start" x="1403" y="-87" font-family="FreeSans" font-size="10.00">DGtal::concepts::COrientation</text>
<text text-anchor="middle" x="1475.5" y="-76" font-family="FreeSans" font-size="10.00">Functor2&lt; T &gt;</text>
</a>
</g>
</g>
<!-- Node7&#45;&gt;Node8 -->
<g id="edge7_Node000007_Node000008" class="edge">
<title>Node7&#45;&gt;Node8</title>
<g id="a_edge7_Node000007_Node000008"><a xlink:title=" ">
<path fill="none" stroke="#63b8ff" d="M1352.26,-83.42C1366.42,-83.49 1380.96,-83.56 1394.86,-83.62"/>
<polygon fill="#63b8ff" stroke="#63b8ff" points="1352.06,-79.92 1342.04,-83.38 1352.03,-86.92 1352.06,-79.92"/>
</a>
</g>
</g>
<!-- Node10 -->
<g id="Node000010" class="node">
<title>Node10</title>
<g id="a_Node000010"><a xlink:href="structDGtal_1_1concepts_1_1CTrivialConstImage.html" target="_top" xlink:title="Aim: Defines the concept describing a read&#45;only image, which is a refinement of CPointFunctor.">
<polygon fill="white" stroke="#666666" points="1543.5,-51 1407.5,-51 1407.5,-21 1543.5,-21 1543.5,-51"/>
<text text-anchor="start" x="1415.5" y="-39" font-family="FreeSans" font-size="10.00">DGtal::concepts::CTrivial</text>
<text text-anchor="middle" x="1475.5" y="-28" font-family="FreeSans" font-size="10.00">ConstImage&lt; I &gt;</text>
</a>
</g>
</g>
<!-- Node9&#45;&gt;Node10 -->
<g id="edge9_Node000009_Node000010" class="edge">
<title>Node9&#45;&gt;Node10</title>
<g id="a_edge9_Node000009_Node000010"><a xlink:title=" ">
<path fill="none" stroke="#63b8ff" d="M1368.39,-37.5C1381.65,-37.31 1394.91,-37.13 1407.34,-36.95"/>
<polygon fill="#63b8ff" stroke="#63b8ff" points="1368.22,-34 1358.27,-37.64 1368.31,-41 1368.22,-34"/>
</a>
</g>
</g>
<!-- Node11 -->
<g id="Node000011" class="node">
<title>Node11</title>
<g id="a_Node000011"><a xlink:href="structDGtal_1_1concepts_1_1CConstImage.html" target="_top" xlink:title="Aim: Defines the concept describing a read&#45;only image, which is a refinement of CPointFunctor.">
<polygon fill="white" stroke="#666666" points="1784,-67.5 1593,-67.5 1593,-48.5 1784,-48.5 1784,-67.5"/>
<text text-anchor="middle" x="1688.5" y="-55.5" font-family="FreeSans" font-size="10.00">DGtal::concepts::CConstImage&lt; I &gt;</text>
</a>
</g>
</g>
<!-- Node10&#45;&gt;Node11 -->
<g id="edge10_Node000010_Node000011" class="edge">
<title>Node10&#45;&gt;Node11</title>
<g id="a_edge10_Node000010_Node000011"><a xlink:title=" ">
<path fill="none" stroke="#63b8ff" d="M1553.54,-44.03C1567.44,-45.48 1582.06,-47.01 1596.33,-48.49"/>
<polygon fill="#63b8ff" stroke="#63b8ff" points="1553.86,-40.55 1543.55,-42.99 1553.13,-47.51 1553.86,-40.55"/>
</a>
</g>
</g>
<!-- Node13 -->
<g id="Node000013" class="node">
<title>Node13</title>
<g id="a_Node000013"><a xlink:href="structDGtal_1_1concepts_1_1CTrivialImage.html" target="_top" xlink:title="Aim: Defines the concept describing an image without extra ranges, which is a refinement of CTrivialC...">
<polygon fill="white" stroke="#666666" points="1756.5,-30 1620.5,-30 1620.5,0 1756.5,0 1756.5,-30"/>
<text text-anchor="start" x="1628.5" y="-18" font-family="FreeSans" font-size="10.00">DGtal::concepts::CTrivial</text>
<text text-anchor="middle" x="1688.5" y="-7" font-family="FreeSans" font-size="10.00">Image&lt; I &gt;</text>
</a>
</g>
</g>
<!-- Node10&#45;&gt;Node13 -->
<g id="edge12_Node000010_Node000013" class="edge">
<title>Node10&#45;&gt;Node13</title>
<g id="a_edge12_Node000010_Node000013"><a xlink:title=" ">
<path fill="none" stroke="#63b8ff" d="M1553.76,-28.31C1575.56,-26.14 1599.1,-23.8 1620.26,-21.69"/>
<polygon fill="#63b8ff" stroke="#63b8ff" points="1553.16,-24.85 1543.55,-29.33 1553.85,-31.82 1553.16,-24.85"/>
</a>
</g>
</g>
<!-- Node12 -->
<g id="Node000012" class="node">
<title>Node12</title>
<g id="a_Node000012"><a xlink:href="structDGtal_1_1concepts_1_1CImage.html" target="_top" xlink:title="Aim: Defines the concept describing a read/write image, having an output iterator.">
<polygon fill="white" stroke="#666666" points="1984,-45.5 1821,-45.5 1821,-26.5 1984,-26.5 1984,-45.5"/>
<text text-anchor="middle" x="1902.5" y="-33.5" font-family="FreeSans" font-size="10.00">DGtal::concepts::CImage&lt; I &gt;</text>
</a>
</g>
</g>
<!-- Node11&#45;&gt;Node12 -->
<g id="edge11_Node000011_Node000012" class="edge">
<title>Node11&#45;&gt;Node12</title>
<g id="a_edge11_Node000011_Node000012"><a xlink:title=" ">
<path fill="none" stroke="#63b8ff" d="M1791.2,-47.45C1801.18,-46.41 1811.2,-45.37 1820.93,-44.36"/>
<polygon fill="#63b8ff" stroke="#63b8ff" points="1790.84,-43.96 1781.25,-48.48 1791.56,-50.93 1790.84,-43.96"/>
</a>
</g>
</g>
<!-- Node13&#45;&gt;Node12 -->
<g id="edge13_Node000013_Node000012" class="edge">
<title>Node13&#45;&gt;Node12</title>
<g id="a_edge13_Node000013_Node000012"><a xlink:title=" ">
<path fill="none" stroke="#63b8ff" d="M1766.77,-22.65C1784.34,-24.39 1803.04,-26.25 1820.75,-28"/>
<polygon fill="#63b8ff" stroke="#63b8ff" points="1766.87,-19.15 1756.58,-21.64 1766.18,-26.11 1766.87,-19.15"/>
</a>
</g>
</g>
</g>
</svg>
