<?xml version="1.0" encoding="UTF-8" standalone="no"?>
<!DOCTYPE svg PUBLIC "-//W3C//DTD SVG 1.1//EN"
 "http://www.w3.org/Graphics/SVG/1.1/DTD/svg11.dtd">
<!-- Generated by graphviz version 2.43.0 (0)
 -->
<!-- Title: DGtal::UnorderedAssociativeCategory Pages: 1 -->
<svg width="746pt" height="182pt"
 viewBox="0.00 0.00 746.00 182.00" xmlns="http://www.w3.org/2000/svg" xmlns:xlink="http://www.w3.org/1999/xlink">
<g id="graph0" class="graph" transform="scale(1 1) rotate(0) translate(4 178)">
<title>DGtal::UnorderedAssociativeCategory</title>
<!-- Node1 -->
<g id="Node000001" class="node">
<title>Node1</title>
<g id="a_Node000001"><a xlink:title=" ">
<polygon fill="#999999" stroke="#666666" points="523,-102 365,-102 365,-72 523,-72 523,-102"/>
<text text-anchor="start" x="373" y="-90" font-family="FreeSans" font-size="10.00">DGtal::UnorderedAssociative</text>
<text text-anchor="middle" x="444" y="-79" font-family="FreeSans" font-size="10.00">Category</text>
</a>
</g>
</g>
<!-- Node4 -->
<g id="Node000004" class="node">
<title>Node4</title>
<g id="a_Node000004"><a xlink:href="structDGtal_1_1UnorderedMapAssociativeCategory.html" target="_top" xlink:title=" ">
<polygon fill="white" stroke="#666666" points="738,-174 559,-174 559,-144 738,-144 738,-174"/>
<text text-anchor="start" x="567" y="-162" font-family="FreeSans" font-size="10.00">DGtal::UnorderedMapAssociative</text>
<text text-anchor="middle" x="648.5" y="-151" font-family="FreeSans" font-size="10.00">Category</text>
</a>
</g>
</g>
<!-- Node1&#45;&gt;Node4 -->
<g id="edge3_Node000001_Node000004" class="edge">
<title>Node1&#45;&gt;Node4</title>
<g id="a_edge3_Node000001_Node000004"><a xlink:title=" ">
<path fill="none" stroke="#63b8ff" d="M486.88,-106.22C508.21,-115.6 534.7,-126.63 559,-135 568.18,-138.16 578.01,-141.18 587.66,-143.94"/>
<polygon fill="#63b8ff" stroke="#63b8ff" points="488.03,-102.9 477.47,-102.04 485.19,-109.3 488.03,-102.9"/>
</a>
</g>
</g>
<!-- Node5 -->
<g id="Node000005" class="node">
<title>Node5</title>
<g id="a_Node000005"><a xlink:href="structDGtal_1_1UnorderedMultimapAssociativeCategory.html" target="_top" xlink:title=" ">
<polygon fill="white" stroke="#666666" points="722.5,-126 574.5,-126 574.5,-96 722.5,-96 722.5,-126"/>
<text text-anchor="start" x="582.5" y="-114" font-family="FreeSans" font-size="10.00">DGtal::UnorderedMultimap</text>
<text text-anchor="middle" x="648.5" y="-103" font-family="FreeSans" font-size="10.00">AssociativeCategory</text>
</a>
</g>
</g>
<!-- Node1&#45;&gt;Node5 -->
<g id="edge4_Node000001_Node000005" class="edge">
<title>Node1&#45;&gt;Node5</title>
<g id="a_edge4_Node000001_Node000005"><a xlink:title=" ">
<path fill="none" stroke="#63b8ff" d="M532.95,-97.42C546.71,-99.05 560.8,-100.72 574.19,-102.31"/>
<polygon fill="#63b8ff" stroke="#63b8ff" points="533.34,-93.95 523,-96.24 532.52,-100.9 533.34,-93.95"/>
</a>
</g>
</g>
<!-- Node6 -->
<g id="Node000006" class="node">
<title>Node6</title>
<g id="a_Node000006"><a xlink:href="structDGtal_1_1UnorderedMultisetAssociativeCategory.html" target="_top" xlink:title=" ">
<polygon fill="white" stroke="#666666" points="719,-78 578,-78 578,-48 719,-48 719,-78"/>
<text text-anchor="start" x="586" y="-66" font-family="FreeSans" font-size="10.00">DGtal::UnorderedMultiset</text>
<text text-anchor="middle" x="648.5" y="-55" font-family="FreeSans" font-size="10.00">AssociativeCategory</text>
</a>
</g>
</g>
<!-- Node1&#45;&gt;Node6 -->
<g id="edge5_Node000001_Node000006" class="edge">
<title>Node1&#45;&gt;Node6</title>
<g id="a_edge5_Node000001_Node000006"><a xlink:title=" ">
<path fill="none" stroke="#63b8ff" d="M533.25,-76.54C548.16,-74.77 563.46,-72.96 577.81,-71.26"/>
<polygon fill="#63b8ff" stroke="#63b8ff" points="532.52,-73.1 523,-77.76 533.34,-80.05 532.52,-73.1"/>
</a>
</g>
</g>
<!-- Node7 -->
<g id="Node000007" class="node">
<title>Node7</title>
<g id="a_Node000007"><a xlink:href="structDGtal_1_1UnorderedSetAssociativeCategory.html" target="_top" xlink:title=" ">
<polygon fill="white" stroke="#666666" points="735,-30 562,-30 562,0 735,0 735,-30"/>
<text text-anchor="start" x="570" y="-18" font-family="FreeSans" font-size="10.00">DGtal::UnorderedSetAssociative</text>
<text text-anchor="middle" x="648.5" y="-7" font-family="FreeSans" font-size="10.00">Category</text>
</a>
</g>
</g>
<!-- Node1&#45;&gt;Node7 -->
<g id="edge6_Node000001_Node000007" class="edge">
<title>Node1&#45;&gt;Node7</title>
<g id="a_edge6_Node000001_Node000007"><a xlink:title=" ">
<path fill="none" stroke="#63b8ff" d="M486.88,-67.78C508.21,-58.4 534.7,-47.37 559,-39 568.18,-35.84 578.01,-32.82 587.66,-30.06"/>
<polygon fill="#63b8ff" stroke="#63b8ff" points="485.19,-64.7 477.47,-71.96 488.03,-71.1 485.19,-64.7"/>
</a>
</g>
</g>
<!-- Node2 -->
<g id="Node000002" class="node">
<title>Node2</title>
<g id="a_Node000002"><a xlink:href="structDGtal_1_1AssociativeCategory.html" target="_top" xlink:title=" ">
<polygon fill="white" stroke="#666666" points="329,-96.5 178,-96.5 178,-77.5 329,-77.5 329,-96.5"/>
<text text-anchor="middle" x="253.5" y="-84.5" font-family="FreeSans" font-size="10.00">DGtal::AssociativeCategory</text>
</a>
</g>
</g>
<!-- Node2&#45;&gt;Node1 -->
<g id="edge1_Node000001_Node000002" class="edge">
<title>Node2&#45;&gt;Node1</title>
<g id="a_edge1_Node000001_Node000002"><a xlink:title=" ">
<path fill="none" stroke="#63b8ff" d="M339.26,-87C347.73,-87 356.31,-87 364.71,-87"/>
<polygon fill="#63b8ff" stroke="#63b8ff" points="339,-83.5 329,-87 339,-90.5 339,-83.5"/>
</a>
</g>
</g>
<!-- Node3 -->
<g id="Node000003" class="node">
<title>Node3</title>
<g id="a_Node000003"><a xlink:href="structDGtal_1_1ContainerCategory.html" target="_top" xlink:title=" ">
<polygon fill="white" stroke="#666666" points="142,-96.5 0,-96.5 0,-77.5 142,-77.5 142,-96.5"/>
<text text-anchor="middle" x="71" y="-84.5" font-family="FreeSans" font-size="10.00">DGtal::ContainerCategory</text>
</a>
</g>
</g>
<!-- Node3&#45;&gt;Node2 -->
<g id="edge2_Node000002_Node000003" class="edge">
<title>Node3&#45;&gt;Node2</title>
<g id="a_edge2_Node000002_Node000003"><a xlink:title=" ">
<path fill="none" stroke="#63b8ff" d="M152.28,-87C160.74,-87 169.32,-87 177.71,-87"/>
<polygon fill="#63b8ff" stroke="#63b8ff" points="152.04,-83.5 142.04,-87 152.04,-90.5 152.04,-83.5"/>
</a>
</g>
</g>
</g>
</svg>
