<?xml version="1.0" encoding="UTF-8" standalone="no"?>
<!DOCTYPE svg PUBLIC "-//W3C//DTD SVG 1.1//EN"
 "http://www.w3.org/Graphics/SVG/1.1/DTD/svg11.dtd">
<!-- Generated by graphviz version 2.43.0 (0)
 -->
<!-- Title: DGtal::concepts::CUnaryFunctor&lt; X, A, R &gt; Pages: 1 -->
<!--zoomable 416 -->
<svg id="main" version="1.1" xmlns="http://www.w3.org/2000/svg" xmlns:xlink="http://www.w3.org/1999/xlink" xml:space="preserve" onload="init(evt)">
<style type="text/css"><![CDATA[
.edge:hover path { stroke: red; }
.edge:hover polygon { stroke: red; fill: red; }
]]></style>
<script type="text/javascript"><![CDATA[
var edges = document.getElementsByTagName('g');
if (edges && edges.length) {
  for (var i=0;i<edges.length;i++) {
    if (edges[i].id.substr(0,4)=='edge') {
      edges[i].setAttribute('class','edge');
    }
  }
}
]]></script>
        <defs>
                <circle id="rim" cx="0" cy="0" r="7"/>
                <circle id="rim2" cx="0" cy="0" r="3.5"/>
                <g id="zoomPlus">
                        <use xlink:href="#rim" fill="#404040">
                                <set attributeName="fill" to="#808080" begin="zoomplus.mouseover" end="zoomplus.mouseout"/>
                        </use>
                        <path d="M-4,0h8M0,-4v8" fill="none" stroke="white" stroke-width="1.5" pointer-events="none"/>
                </g>
                <g id="zoomMin">
                        <use xlink:href="#rim" fill="#404040">
                                <set attributeName="fill" to="#808080" begin="zoomminus.mouseover" end="zoomminus.mouseout"/>
                        </use>
                        <path d="M-4,0h8" fill="none" stroke="white" stroke-width="1.5" pointer-events="none"/>
                </g>
                <g id="dirArrow">
                        <path fill="none" stroke="white" stroke-width="1.5" d="M0,-3.0v7 M-2.5,-0.5L0,-3.0L2.5,-0.5"/>
                </g>
               <g id="resetDef">
                       <use xlink:href="#rim2" fill="#404040">
                               <set attributeName="fill" to="#808080" begin="reset.mouseover" end="reset.mouseout"/>
                       </use>
               </g>
        </defs>

<script type="text/javascript">
var viewWidth = 2293;
var viewHeight = 416;
var sectionId = 'dynsection-0';
</script>
<script xlink:href="svgpan.js"/>
<svg id="graph" class="graph">
<g id="viewport">
<title>DGtal::concepts::CUnaryFunctor&lt; X, A, R &gt;</title>
<polygon fill="white" stroke="transparent" points="-4,4 -4,-412 2289,-412 2289,4 -4,4"/>
<!-- Node1 -->
<g id="node1" class="node">
<title>Node1</title>
<g id="a_node1"><a xlink:title="Aim: Defines a unary functor, which associates arguments to results.">
<polygon fill="#bfbfbf" stroke="black" points="369,-175.5 369,-205.5 541,-205.5 541,-175.5 369,-175.5"/>
<text text-anchor="start" x="377" y="-193.5" font-family="FreeSans" font-size="10.00">DGtal::concepts::CUnaryFunctor</text>
<text text-anchor="middle" x="455" y="-182.5" font-family="FreeSans" font-size="10.00">&lt; X, A, R &gt;</text>
</a>
</g>
</g>
<!-- Node4 -->
<g id="node4" class="node">
<title>Node4</title>
<g id="a_node4"><a xlink:href="structDGtal_1_1concepts_1_1CUnaryFunctor.html" target="_top" xlink:title=" ">
<polygon fill="white" stroke="black" points="905,-356.5 905,-386.5 1077,-386.5 1077,-356.5 905,-356.5"/>
<text text-anchor="start" x="913" y="-374.5" font-family="FreeSans" font-size="10.00">DGtal::concepts::CUnaryFunctor</text>
<text text-anchor="middle" x="991" y="-363.5" font-family="FreeSans" font-size="10.00">&lt; I, I ::Point, I ::Value &gt;</text>
</a>
</g>
</g>
<!-- Node1&#45;&gt;Node4 -->
<g id="edge3" class="edge">
<title>Node1&#45;&gt;Node4</title>
<path fill="none" stroke="orange" stroke-dasharray="5,2" d="M465.13,-214.8C479.39,-249.01 510.46,-310.31 559,-338.5 665.59,-400.4 812.83,-396.46 904.67,-385.68"/>
<polygon fill="orange" stroke="orange" points="468.37,-213.5 461.39,-205.52 461.88,-216.11 468.37,-213.5"/>
<text text-anchor="start" x="591.5" y="-397.5" font-family="FreeSans" font-size="10.00"> &lt; I, I ::Point, I </text>
<text text-anchor="middle" x="628" y="-386.5" font-family="FreeSans" font-size="10.00">::Value &gt;</text>
</g>
<!-- Node10 -->
<g id="node10" class="node">
<title>Node10</title>
<g id="a_node10"><a xlink:href="structDGtal_1_1concepts_1_1CUnaryFunctor.html" target="_top" xlink:title=" ">
<polygon fill="white" stroke="black" points="715,-263.5 715,-293.5 887,-293.5 887,-263.5 715,-263.5"/>
<text text-anchor="start" x="723" y="-281.5" font-family="FreeSans" font-size="10.00">DGtal::concepts::CUnaryFunctor</text>
<text text-anchor="middle" x="801" y="-270.5" font-family="FreeSans" font-size="10.00">&lt; T, T::Point, T::RealPoint &gt;</text>
</a>
</g>
</g>
<!-- Node1&#45;&gt;Node10 -->
<g id="edge10" class="edge">
<title>Node1&#45;&gt;Node10</title>
<path fill="none" stroke="orange" stroke-dasharray="5,2" d="M484.81,-211.21C504.68,-224.4 532.25,-240.64 559,-249.5 609.1,-266.1 667.87,-273.4 714.83,-276.53"/>
<polygon fill="orange" stroke="orange" points="486.76,-208.3 476.52,-205.58 482.83,-214.09 486.76,-208.3"/>
<text text-anchor="middle" x="628" y="-277.5" font-family="FreeSans" font-size="10.00"> &lt; T, T::Point, T::RealPoint &gt;</text>
</g>
<!-- Node12 -->
<g id="node12" class="node">
<title>Node12</title>
<g id="a_node12"><a xlink:href="structDGtal_1_1concepts_1_1CUnaryFunctor.html" target="_top" xlink:title=" ">
<polygon fill="white" stroke="black" points="715,-175.5 715,-205.5 887,-205.5 887,-175.5 715,-175.5"/>
<text text-anchor="start" x="723" y="-193.5" font-family="FreeSans" font-size="10.00">DGtal::concepts::CUnaryFunctor</text>
<text text-anchor="middle" x="801" y="-182.5" font-family="FreeSans" font-size="10.00">&lt; T, TElement, bool &gt;</text>
</a>
</g>
</g>
<!-- Node1&#45;&gt;Node12 -->
<g id="edge12" class="edge">
<title>Node1&#45;&gt;Node12</title>
<path fill="none" stroke="orange" stroke-dasharray="5,2" d="M551.12,-190.5C602.38,-190.5 665.1,-190.5 714.75,-190.5"/>
<polygon fill="orange" stroke="orange" points="551.03,-187 541.03,-190.5 551.03,-194 551.03,-187"/>
<text text-anchor="middle" x="628" y="-193.5" font-family="FreeSans" font-size="10.00"> &lt; T, TElement, bool &gt;</text>
</g>
<!-- Node21 -->
<g id="node21" class="node">
<title>Node21</title>
<g id="a_node21"><a xlink:href="structDGtal_1_1concepts_1_1CUnaryFunctor.html" target="_top" xlink:title=" ">
<polygon fill="white" stroke="black" points="905,-86.5 905,-116.5 1077,-116.5 1077,-86.5 905,-86.5"/>
<text text-anchor="start" x="913" y="-104.5" font-family="FreeSans" font-size="10.00">DGtal::concepts::CUnaryFunctor</text>
<text text-anchor="middle" x="991" y="-93.5" font-family="FreeSans" font-size="10.00">&lt; T, T::Vertex, bool &gt;</text>
</a>
</g>
</g>
<!-- Node1&#45;&gt;Node21 -->
<g id="edge21" class="edge">
<title>Node1&#45;&gt;Node21</title>
<path fill="none" stroke="orange" stroke-dasharray="5,2" d="M495.02,-171.07C513.9,-162.49 537.16,-153.1 559,-147.5 676.54,-117.37 817.01,-106.95 904.89,-103.36"/>
<polygon fill="orange" stroke="orange" points="493.45,-167.94 485.85,-175.33 496.39,-174.29 493.45,-167.94"/>
<text text-anchor="middle" x="628" y="-150.5" font-family="FreeSans" font-size="10.00"> &lt; T, T::Vertex, bool &gt;</text>
</g>
<!-- Node22 -->
<g id="node22" class="node">
<title>Node22</title>
<g id="a_node22"><a xlink:href="structDGtal_1_1concepts_1_1CUnaryFunctor.html" target="_top" xlink:title=" ">
<polygon fill="white" stroke="black" points="905,-228.5 905,-258.5 1077,-258.5 1077,-228.5 905,-228.5"/>
<text text-anchor="start" x="913" y="-246.5" font-family="FreeSans" font-size="10.00">DGtal::concepts::CUnaryFunctor</text>
<text text-anchor="middle" x="991" y="-235.5" font-family="FreeSans" font-size="10.00">&lt; T, T::Surfel, bool &gt;</text>
</a>
</g>
</g>
<!-- Node1&#45;&gt;Node22 -->
<g id="edge23" class="edge">
<title>Node1&#45;&gt;Node22</title>
<path fill="none" stroke="orange" stroke-dasharray="5,2" d="M551.25,-204.57C553.86,-204.89 556.45,-205.2 559,-205.5 678.75,-219.49 817.76,-230.87 904.81,-237.42"/>
<polygon fill="orange" stroke="orange" points="551.46,-201.07 541.1,-203.28 550.58,-208.01 551.46,-201.07"/>
<text text-anchor="middle" x="628" y="-222.5" font-family="FreeSans" font-size="10.00"> &lt; T, T::Surfel, bool &gt;</text>
</g>
<!-- Node23 -->
<g id="node23" class="node">
<title>Node23</title>
<g id="a_node23"><a xlink:href="structDGtal_1_1concepts_1_1CUnaryFunctor.html" target="_top" xlink:title=" ">
<polygon fill="white" stroke="black" points="715,-312.5 715,-342.5 887,-342.5 887,-312.5 715,-312.5"/>
<text text-anchor="start" x="723" y="-330.5" font-family="FreeSans" font-size="10.00">DGtal::concepts::CUnaryFunctor</text>
<text text-anchor="middle" x="801" y="-319.5" font-family="FreeSans" font-size="10.00">&lt; T, T::Point, T::Value &gt;</text>
</a>
</g>
</g>
<!-- Node1&#45;&gt;Node23 -->
<g id="edge25" class="edge">
<title>Node1&#45;&gt;Node23</title>
<path fill="none" stroke="orange" stroke-dasharray="5,2" d="M472.88,-213.47C491.29,-236.69 522.99,-271.62 559,-289.5 607.18,-313.43 666.87,-322.97 714.79,-326.51"/>
<polygon fill="orange" stroke="orange" points="475.6,-211.27 466.71,-205.5 470.06,-215.55 475.6,-211.27"/>
<text text-anchor="middle" x="628" y="-326.5" font-family="FreeSans" font-size="10.00"> &lt; T, T::Point, T::Value &gt;</text>
</g>
<!-- Node27 -->
<g id="node27" class="node">
<title>Node27</title>
<g id="a_node27"><a xlink:href="structDGtal_1_1concepts_1_1CUnaryFunctor.html" target="_top" xlink:title=" ">
<polygon fill="white" stroke="black" points="715,-49.5 715,-79.5 887,-79.5 887,-49.5 715,-49.5"/>
<text text-anchor="start" x="723" y="-67.5" font-family="FreeSans" font-size="10.00">DGtal::concepts::CUnaryFunctor</text>
<text text-anchor="middle" x="801" y="-56.5" font-family="FreeSans" font-size="10.00">&lt; T, T::SCell, T::RealPoint &gt;</text>
</a>
</g>
</g>
<!-- Node1&#45;&gt;Node27 -->
<g id="edge30" class="edge">
<title>Node1&#45;&gt;Node27</title>
<path fill="none" stroke="orange" stroke-dasharray="5,2" d="M469.18,-166.8C485.99,-139.23 517.88,-95.01 559,-75.5 607.15,-52.65 666.98,-49.8 714.98,-52.71"/>
<polygon fill="orange" stroke="orange" points="466.14,-165.06 464.07,-175.45 472.17,-168.63 466.14,-165.06"/>
<text text-anchor="middle" x="628" y="-78.5" font-family="FreeSans" font-size="10.00"> &lt; T, T::SCell, T::RealPoint &gt;</text>
</g>
<!-- Node30 -->
<g id="node30" class="node">
<title>Node30</title>
<g id="a_node30"><a xlink:href="structDGtal_1_1concepts_1_1CUnaryFunctor.html" target="_top" xlink:title=" ">
<polygon fill="white" stroke="black" points="715,-0.5 715,-30.5 887,-30.5 887,-0.5 715,-0.5"/>
<text text-anchor="start" x="723" y="-18.5" font-family="FreeSans" font-size="10.00">DGtal::concepts::CUnaryFunctor</text>
<text text-anchor="middle" x="801" y="-7.5" font-family="FreeSans" font-size="10.00">&lt; T, T::Cell, T::RealPoint &gt;</text>
</a>
</g>
</g>
<!-- Node1&#45;&gt;Node30 -->
<g id="edge33" class="edge">
<title>Node1&#45;&gt;Node30</title>
<path fill="none" stroke="orange" stroke-dasharray="5,2" d="M464.68,-165.94C478.56,-130.73 509.35,-66.9 559,-37.5 605.45,-9.99 665.99,-4.55 714.77,-5.96"/>
<polygon fill="orange" stroke="orange" points="461.34,-164.88 461.06,-175.47 467.89,-167.37 461.34,-164.88"/>
<text text-anchor="middle" x="628" y="-40.5" font-family="FreeSans" font-size="10.00"> &lt; T, T::Cell, T::RealPoint &gt;</text>
</g>
<!-- Node32 -->
<g id="node32" class="node">
<title>Node32</title>
<g id="a_node32"><a xlink:href="structDGtal_1_1concepts_1_1CUnaryFunctor.html" target="_top" xlink:title=" ">
<polygon fill="white" stroke="black" points="905,-127.5 905,-157.5 1077,-157.5 1077,-127.5 905,-127.5"/>
<text text-anchor="start" x="913" y="-145.5" font-family="FreeSans" font-size="10.00">DGtal::concepts::CUnaryFunctor</text>
<text text-anchor="middle" x="991" y="-134.5" font-family="FreeSans" font-size="10.00">&lt; T, T::Point, bool &gt;</text>
</a>
</g>
</g>
<!-- Node1&#45;&gt;Node32 -->
<g id="edge35" class="edge">
<title>Node1&#45;&gt;Node32</title>
<path fill="none" stroke="orange" stroke-dasharray="5,2" d="M551.25,-176.39C553.86,-176.08 556.45,-175.78 559,-175.5 678.71,-162.22 817.73,-152.62 904.79,-147.3"/>
<polygon fill="orange" stroke="orange" points="550.59,-172.95 541.09,-177.65 551.45,-179.89 550.59,-172.95"/>
<text text-anchor="middle" x="628" y="-178.5" font-family="FreeSans" font-size="10.00"> &lt; T, T::Point, bool &gt;</text>
</g>
<!-- Node2 -->
<g id="node2" class="node">
<title>Node2</title>
<g id="a_node2"><a xlink:href="structboost_1_1Assignable.html" target="_top" xlink:title=" ">
<polygon fill="white" stroke="black" points="200,-181 200,-200 332,-200 332,-181 200,-181"/>
<text text-anchor="middle" x="266" y="-188" font-family="FreeSans" font-size="10.00">boost::Assignable&lt; X &gt;</text>
</a>
</g>
</g>
<!-- Node2&#45;&gt;Node1 -->
<g id="edge1" class="edge">
<title>Node2&#45;&gt;Node1</title>
<path fill="none" stroke="midnightblue" d="M342.24,-190.5C350.95,-190.5 359.87,-190.5 368.7,-190.5"/>
<polygon fill="midnightblue" stroke="midnightblue" points="342.14,-187 332.14,-190.5 342.14,-194 342.14,-187"/>
</g>
<!-- Node3 -->
<g id="node3" class="node">
<title>Node3</title>
<g id="a_node3"><a xlink:href="structboost_1_1Assignable.html" target="_top" xlink:title="Go to http://www.sgi.com/tech/stl/Assignable.html.">
<polygon fill="white" stroke="black" points="0,-181 0,-200 131,-200 131,-181 0,-181"/>
<text text-anchor="middle" x="65.5" y="-188" font-family="FreeSans" font-size="10.00">boost::Assignable&lt; T &gt;</text>
</a>
</g>
</g>
<!-- Node3&#45;&gt;Node2 -->
<g id="edge2" class="edge">
<title>Node3&#45;&gt;Node2</title>
<path fill="none" stroke="orange" stroke-dasharray="5,2" d="M141.41,-190.5C160.58,-190.5 181.04,-190.5 199.69,-190.5"/>
<polygon fill="orange" stroke="orange" points="141.22,-187 131.22,-190.5 141.22,-194 141.22,-187"/>
<text text-anchor="middle" x="165.5" y="-193.5" font-family="FreeSans" font-size="10.00"> &lt; X &gt;</text>
</g>
<!-- Node5 -->
<g id="node5" class="node">
<title>Node5</title>
<g id="a_node5"><a xlink:href="structDGtal_1_1concepts_1_1CPointFunctor.html" target="_top" xlink:title=" ">
<polygon fill="white" stroke="black" points="1421,-357 1421,-376 1614,-376 1614,-357 1421,-357"/>
<text text-anchor="middle" x="1517.5" y="-364" font-family="FreeSans" font-size="10.00">DGtal::concepts::CPointFunctor&lt; I &gt;</text>
</a>
</g>
</g>
<!-- Node4&#45;&gt;Node5 -->
<g id="edge4" class="edge">
<title>Node4&#45;&gt;Node5</title>
<path fill="none" stroke="midnightblue" d="M1087.28,-370.59C1181.86,-369.69 1326.03,-368.32 1420.76,-367.41"/>
<polygon fill="midnightblue" stroke="midnightblue" points="1087.11,-367.09 1077.14,-370.69 1087.18,-374.09 1087.11,-367.09"/>
</g>
<!-- Node6 -->
<g id="node6" class="node">
<title>Node6</title>
<g id="a_node6"><a xlink:href="structDGtal_1_1concepts_1_1CTrivialConstImage.html" target="_top" xlink:title="Aim: Defines the concept describing a read&#45;only image, which is a refinement of CPointFunctor.">
<polygon fill="white" stroke="black" points="1686,-351.5 1686,-381.5 1822,-381.5 1822,-351.5 1686,-351.5"/>
<text text-anchor="start" x="1694" y="-369.5" font-family="FreeSans" font-size="10.00">DGtal::concepts::CTrivial</text>
<text text-anchor="middle" x="1754" y="-358.5" font-family="FreeSans" font-size="10.00">ConstImage&lt; I &gt;</text>
</a>
</g>
</g>
<!-- Node5&#45;&gt;Node6 -->
<g id="edge5" class="edge">
<title>Node5&#45;&gt;Node6</title>
<path fill="none" stroke="midnightblue" d="M1624.43,-366.5C1645.34,-366.5 1666.74,-366.5 1685.92,-366.5"/>
<polygon fill="midnightblue" stroke="midnightblue" points="1624.22,-363 1614.22,-366.5 1624.22,-370 1624.22,-363"/>
</g>
<!-- Node7 -->
<g id="node7" class="node">
<title>Node7</title>
<g id="a_node7"><a xlink:href="structDGtal_1_1concepts_1_1CConstImage.html" target="_top" xlink:title="Aim: Defines the concept describing a read&#45;only image, which is a refinement of CPointFunctor.">
<polygon fill="white" stroke="black" points="1894,-339 1894,-358 2085,-358 2085,-339 1894,-339"/>
<text text-anchor="middle" x="1989.5" y="-346" font-family="FreeSans" font-size="10.00">DGtal::concepts::CConstImage&lt; I &gt;</text>
</a>
</g>
</g>
<!-- Node6&#45;&gt;Node7 -->
<g id="edge6" class="edge">
<title>Node6&#45;&gt;Node7</title>
<path fill="none" stroke="midnightblue" d="M1832.37,-360.54C1852.08,-359.02 1873.5,-357.37 1893.97,-355.79"/>
<polygon fill="midnightblue" stroke="midnightblue" points="1831.93,-357.06 1822.22,-361.32 1832.46,-364.04 1831.93,-357.06"/>
</g>
<!-- Node9 -->
<g id="node9" class="node">
<title>Node9</title>
<g id="a_node9"><a xlink:href="structDGtal_1_1concepts_1_1CTrivialImage.html" target="_top" xlink:title="Aim: Defines the concept describing an image without extra ranges, which is a refinement of CTrivialC...">
<polygon fill="white" stroke="black" points="1921.5,-377.5 1921.5,-407.5 2057.5,-407.5 2057.5,-377.5 1921.5,-377.5"/>
<text text-anchor="start" x="1929.5" y="-395.5" font-family="FreeSans" font-size="10.00">DGtal::concepts::CTrivial</text>
<text text-anchor="middle" x="1989.5" y="-384.5" font-family="FreeSans" font-size="10.00">Image&lt; I &gt;</text>
</a>
</g>
</g>
<!-- Node6&#45;&gt;Node9 -->
<g id="edge8" class="edge">
<title>Node6&#45;&gt;Node9</title>
<path fill="none" stroke="midnightblue" d="M1832.25,-375.1C1861.06,-378.31 1893.51,-381.92 1921.35,-385.02"/>
<polygon fill="midnightblue" stroke="midnightblue" points="1832.55,-371.61 1822.22,-373.99 1831.78,-378.57 1832.55,-371.61"/>
</g>
<!-- Node8 -->
<g id="node8" class="node">
<title>Node8</title>
<g id="a_node8"><a xlink:href="structDGtal_1_1concepts_1_1CImage.html" target="_top" xlink:title="Aim: Defines the concept describing a read/write image, having an output iterator.">
<polygon fill="white" stroke="black" points="2122,-360 2122,-379 2285,-379 2285,-360 2122,-360"/>
<text text-anchor="middle" x="2203.5" y="-367" font-family="FreeSans" font-size="10.00">DGtal::concepts::CImage&lt; I &gt;</text>
</a>
</g>
</g>
<!-- Node7&#45;&gt;Node8 -->
<g id="edge7" class="edge">
<title>Node7&#45;&gt;Node8</title>
<path fill="none" stroke="midnightblue" d="M2095.12,-358.86C2104.07,-359.75 2113.03,-360.64 2121.75,-361.5"/>
<polygon fill="midnightblue" stroke="midnightblue" points="2095.33,-355.37 2085.03,-357.86 2094.64,-362.33 2095.33,-355.37"/>
</g>
<!-- Node9&#45;&gt;Node8 -->
<g id="edge9" class="edge">
<title>Node9&#45;&gt;Node8</title>
<path fill="none" stroke="midnightblue" d="M2067.77,-384.12C2085.34,-382.21 2104.04,-380.18 2121.75,-378.26"/>
<polygon fill="midnightblue" stroke="midnightblue" points="2067.14,-380.66 2057.58,-385.22 2067.9,-387.62 2067.14,-380.66"/>
</g>
<!-- Node11 -->
<g id="node11" class="node">
<title>Node11</title>
<g id="a_node11"><a xlink:href="structDGtal_1_1concepts_1_1CPointEmbedder.html" target="_top" xlink:title="Aim: A point embedder is a mapping from digital points to Euclidean points. It adds inner types to fu...">
<polygon fill="white" stroke="black" points="1095,-280 1095,-299 1304,-299 1304,-280 1095,-280"/>
<text text-anchor="middle" x="1199.5" y="-287" font-family="FreeSans" font-size="10.00">DGtal::concepts::CPointEmbedder&lt; T &gt;</text>
</a>
</g>
</g>
<!-- Node10&#45;&gt;Node11 -->
<g id="edge11" class="edge">
<title>Node10&#45;&gt;Node11</title>
<path fill="none" stroke="midnightblue" d="M897.23,-281.14C956.87,-282.8 1033.74,-284.93 1094.91,-286.63"/>
<polygon fill="midnightblue" stroke="midnightblue" points="897.15,-277.64 887.06,-280.86 896.96,-284.64 897.15,-277.64"/>
</g>
<!-- Node13 -->
<g id="node13" class="node">
<title>Node13</title>
<g id="a_node13"><a xlink:href="structDGtal_1_1concepts_1_1CPredicate.html" target="_top" xlink:title="Aim: Defines a predicate function, ie. a functor mapping a domain into the set of booleans.">
<polygon fill="white" stroke="black" points="1123.5,-176.5 1123.5,-206.5 1275.5,-206.5 1275.5,-176.5 1123.5,-176.5"/>
<text text-anchor="start" x="1131.5" y="-194.5" font-family="FreeSans" font-size="10.00">DGtal::concepts::CPredicate</text>
<text text-anchor="middle" x="1199.5" y="-183.5" font-family="FreeSans" font-size="10.00">&lt; T, TElement &gt;</text>
</a>
</g>
</g>
<!-- Node12&#45;&gt;Node13 -->
<g id="edge13" class="edge">
<title>Node12&#45;&gt;Node13</title>
<path fill="none" stroke="midnightblue" d="M897.11,-190.74C966.44,-190.91 1059.09,-191.15 1123.28,-191.31"/>
<polygon fill="midnightblue" stroke="midnightblue" points="897.07,-187.24 887.06,-190.71 897.05,-194.24 897.07,-187.24"/>
</g>
<!-- Node14 -->
<g id="node14" class="node">
<title>Node14</title>
<g id="a_node14"><a xlink:href="structDGtal_1_1concepts_1_1CPredicate.html" target="_top" xlink:title=" ">
<polygon fill="white" stroke="black" points="1441.5,-231.5 1441.5,-261.5 1593.5,-261.5 1593.5,-231.5 1441.5,-231.5"/>
<text text-anchor="start" x="1449.5" y="-249.5" font-family="FreeSans" font-size="10.00">DGtal::concepts::CPredicate</text>
<text text-anchor="middle" x="1517.5" y="-238.5" font-family="FreeSans" font-size="10.00">&lt; T, T::Surfel &gt;</text>
</a>
</g>
</g>
<!-- Node13&#45;&gt;Node14 -->
<g id="edge14" class="edge">
<title>Node13&#45;&gt;Node14</title>
<path fill="none" stroke="orange" stroke-dasharray="5,2" d="M1285.55,-206.14C1321.76,-212.38 1364.45,-219.77 1403,-226.5 1415.42,-228.67 1428.6,-230.98 1441.41,-233.23"/>
<polygon fill="orange" stroke="orange" points="1285.97,-202.66 1275.52,-204.41 1284.78,-209.56 1285.97,-202.66"/>
<text text-anchor="middle" x="1362.5" y="-229.5" font-family="FreeSans" font-size="10.00"> &lt; T, T::Surfel &gt;</text>
</g>
<!-- Node16 -->
<g id="node16" class="node">
<title>Node16</title>
<g id="a_node16"><a xlink:href="structDGtal_1_1concepts_1_1CPredicate.html" target="_top" xlink:title=" ">
<polygon fill="white" stroke="black" points="1441.5,-168.5 1441.5,-198.5 1593.5,-198.5 1593.5,-168.5 1441.5,-168.5"/>
<text text-anchor="start" x="1449.5" y="-186.5" font-family="FreeSans" font-size="10.00">DGtal::concepts::CPredicate</text>
<text text-anchor="middle" x="1517.5" y="-175.5" font-family="FreeSans" font-size="10.00">&lt; T, T::Point &gt;</text>
</a>
</g>
</g>
<!-- Node13&#45;&gt;Node16 -->
<g id="edge16" class="edge">
<title>Node13&#45;&gt;Node16</title>
<path fill="none" stroke="orange" stroke-dasharray="5,2" d="M1285.95,-189.34C1334.43,-188.11 1394.55,-186.59 1441.24,-185.41"/>
<polygon fill="orange" stroke="orange" points="1285.7,-185.84 1275.79,-189.59 1285.87,-192.84 1285.7,-185.84"/>
<text text-anchor="middle" x="1362.5" y="-191.5" font-family="FreeSans" font-size="10.00"> &lt; T, T::Point &gt;</text>
</g>
<!-- Node19 -->
<g id="node19" class="node">
<title>Node19</title>
<g id="a_node19"><a xlink:href="structDGtal_1_1concepts_1_1CPredicate.html" target="_top" xlink:title=" ">
<polygon fill="white" stroke="black" points="1441.5,-102.5 1441.5,-132.5 1593.5,-132.5 1593.5,-102.5 1441.5,-102.5"/>
<text text-anchor="start" x="1449.5" y="-120.5" font-family="FreeSans" font-size="10.00">DGtal::concepts::CPredicate</text>
<text text-anchor="middle" x="1517.5" y="-109.5" font-family="FreeSans" font-size="10.00">&lt; T, T::Vertex &gt;</text>
</a>
</g>
</g>
<!-- Node13&#45;&gt;Node19 -->
<g id="edge19" class="edge">
<title>Node13&#45;&gt;Node19</title>
<path fill="none" stroke="orange" stroke-dasharray="5,2" d="M1274.67,-174.13C1328.58,-161.51 1400.81,-144.59 1452.26,-132.54"/>
<polygon fill="orange" stroke="orange" points="1273.77,-170.75 1264.83,-176.44 1275.36,-177.56 1273.77,-170.75"/>
<text text-anchor="middle" x="1362.5" y="-164.5" font-family="FreeSans" font-size="10.00"> &lt; T, T::Vertex &gt;</text>
</g>
<!-- Node15 -->
<g id="node15" class="node">
<title>Node15</title>
<g id="a_node15"><a xlink:href="structDGtal_1_1concepts_1_1CSurfelPredicate.html" target="_top" xlink:title="Aim: Defines a predicate on a surfel.">
<polygon fill="white" stroke="black" points="1686.5,-231.5 1686.5,-261.5 1821.5,-261.5 1821.5,-231.5 1686.5,-231.5"/>
<text text-anchor="start" x="1694.5" y="-249.5" font-family="FreeSans" font-size="10.00">DGtal::concepts::CSurfel</text>
<text text-anchor="middle" x="1754" y="-238.5" font-family="FreeSans" font-size="10.00">Predicate&lt; T &gt;</text>
</a>
</g>
</g>
<!-- Node14&#45;&gt;Node15 -->
<g id="edge15" class="edge">
<title>Node14&#45;&gt;Node15</title>
<path fill="none" stroke="midnightblue" d="M1603.92,-246.5C1631.02,-246.5 1660.58,-246.5 1686.18,-246.5"/>
<polygon fill="midnightblue" stroke="midnightblue" points="1603.66,-243 1593.66,-246.5 1603.66,-250 1603.66,-243"/>
</g>
<!-- Node17 -->
<g id="node17" class="node">
<title>Node17</title>
<g id="a_node17"><a xlink:href="structDGtal_1_1concepts_1_1CPointPredicate.html" target="_top" xlink:title="Aim: Defines a predicate on a point.">
<polygon fill="white" stroke="black" points="1651,-174 1651,-193 1857,-193 1857,-174 1651,-174"/>
<text text-anchor="middle" x="1754" y="-181" font-family="FreeSans" font-size="10.00">DGtal::concepts::CPointPredicate&lt; T &gt;</text>
</a>
</g>
</g>
<!-- Node16&#45;&gt;Node17 -->
<g id="edge17" class="edge">
<title>Node16&#45;&gt;Node17</title>
<path fill="none" stroke="midnightblue" d="M1604.06,-183.5C1619.28,-183.5 1635.27,-183.5 1650.9,-183.5"/>
<polygon fill="midnightblue" stroke="midnightblue" points="1603.66,-180 1593.66,-183.5 1603.66,-187 1603.66,-180"/>
</g>
<!-- Node18 -->
<g id="node18" class="node">
<title>Node18</title>
<g id="a_node18"><a xlink:href="structDGtal_1_1concepts_1_1CDigitalSet.html" target="_top" xlink:title="Aim: Represents a set of points within the given domain. This set of points is modifiable by the user...">
<polygon fill="white" stroke="black" points="1920,-168.5 1920,-198.5 2059,-198.5 2059,-168.5 1920,-168.5"/>
<text text-anchor="start" x="1928" y="-186.5" font-family="FreeSans" font-size="10.00">DGtal::concepts::CDigital</text>
<text text-anchor="middle" x="1989.5" y="-175.5" font-family="FreeSans" font-size="10.00">Set&lt; T &gt;</text>
</a>
</g>
</g>
<!-- Node17&#45;&gt;Node18 -->
<g id="edge18" class="edge">
<title>Node17&#45;&gt;Node18</title>
<path fill="none" stroke="midnightblue" d="M1867.32,-183.5C1885.26,-183.5 1903.35,-183.5 1919.87,-183.5"/>
<polygon fill="midnightblue" stroke="midnightblue" points="1867.08,-180 1857.08,-183.5 1867.08,-187 1867.08,-180"/>
</g>
<!-- Node20 -->
<g id="node20" class="node">
<title>Node20</title>
<g id="a_node20"><a xlink:href="structDGtal_1_1concepts_1_1CVertexPredicate.html" target="_top" xlink:title="Aim: Defines a predicate on a vertex.">
<polygon fill="white" stroke="black" points="1685,-102.5 1685,-132.5 1823,-132.5 1823,-102.5 1685,-102.5"/>
<text text-anchor="start" x="1693" y="-120.5" font-family="FreeSans" font-size="10.00">DGtal::concepts::CVertex</text>
<text text-anchor="middle" x="1754" y="-109.5" font-family="FreeSans" font-size="10.00">Predicate&lt; T &gt;</text>
</a>
</g>
</g>
<!-- Node19&#45;&gt;Node20 -->
<g id="edge20" class="edge">
<title>Node19&#45;&gt;Node20</title>
<path fill="none" stroke="midnightblue" d="M1603.73,-117.5C1630.34,-117.5 1659.32,-117.5 1684.61,-117.5"/>
<polygon fill="midnightblue" stroke="midnightblue" points="1603.66,-114 1593.66,-117.5 1603.66,-121 1603.66,-114"/>
</g>
<!-- Node21&#45;&gt;Node19 -->
<g id="edge22" class="edge">
<title>Node21&#45;&gt;Node19</title>
<path fill="none" stroke="midnightblue" d="M1087.24,-103.05C1170.56,-104.59 1294.82,-107.33 1403,-111.5 1415.42,-111.98 1428.6,-112.59 1441.42,-113.23"/>
<polygon fill="midnightblue" stroke="midnightblue" points="1087.1,-99.55 1077.03,-102.86 1086.97,-106.54 1087.1,-99.55"/>
</g>
<!-- Node22&#45;&gt;Node14 -->
<g id="edge24" class="edge">
<title>Node22&#45;&gt;Node14</title>
<path fill="none" stroke="midnightblue" d="M1087.41,-244.05C1189.09,-244.63 1347.99,-245.54 1441.22,-246.07"/>
<polygon fill="midnightblue" stroke="midnightblue" points="1087.16,-240.54 1077.14,-243.99 1087.12,-247.54 1087.16,-240.54"/>
</g>
<!-- Node24 -->
<g id="node24" class="node">
<title>Node24</title>
<g id="a_node24"><a xlink:href="structDGtal_1_1concepts_1_1CPointFunctor.html" target="_top" xlink:title="Aim: Defines a functor on points.">
<polygon fill="white" stroke="black" points="1101.5,-318 1101.5,-337 1297.5,-337 1297.5,-318 1101.5,-318"/>
<text text-anchor="middle" x="1199.5" y="-325" font-family="FreeSans" font-size="10.00">DGtal::concepts::CPointFunctor&lt; T &gt;</text>
</a>
</g>
</g>
<!-- Node23&#45;&gt;Node24 -->
<g id="edge26" class="edge">
<title>Node23&#45;&gt;Node24</title>
<path fill="none" stroke="midnightblue" d="M897.2,-327.5C958.97,-327.5 1039.23,-327.5 1101.38,-327.5"/>
<polygon fill="midnightblue" stroke="midnightblue" points="897.06,-324 887.06,-327.5 897.06,-331 897.06,-324"/>
</g>
<!-- Node24&#45;&gt;Node5 -->
<g id="edge29" class="edge">
<title>Node24&#45;&gt;Node5</title>
<path fill="none" stroke="orange" stroke-dasharray="5,2" d="M1307.83,-335.94C1338.62,-338.8 1372.19,-342.35 1403,-346.5 1424.22,-349.36 1447.53,-353.32 1467.47,-356.97"/>
<polygon fill="orange" stroke="orange" points="1307.78,-332.42 1297.5,-335 1307.14,-339.39 1307.78,-332.42"/>
<text text-anchor="middle" x="1362.5" y="-349.5" font-family="FreeSans" font-size="10.00"> &lt; I &gt;</text>
</g>
<!-- Node25 -->
<g id="node25" class="node">
<title>Node25</title>
<g id="a_node25"><a xlink:href="structDGtal_1_1concepts_1_1COrientationFunctor.html" target="_top" xlink:title="Aim: This concept gathers models implementing an orientation test of &#160;points in a space of dimension ...">
<polygon fill="white" stroke="black" points="1437,-297.5 1437,-327.5 1598,-327.5 1598,-297.5 1437,-297.5"/>
<text text-anchor="start" x="1445" y="-315.5" font-family="FreeSans" font-size="10.00">DGtal::concepts::COrientation</text>
<text text-anchor="middle" x="1517.5" y="-304.5" font-family="FreeSans" font-size="10.00">Functor&lt; T &gt;</text>
</a>
</g>
</g>
<!-- Node24&#45;&gt;Node25 -->
<g id="edge27" class="edge">
<title>Node24&#45;&gt;Node25</title>
<path fill="none" stroke="midnightblue" d="M1307.94,-322.4C1350.19,-320.39 1397.84,-318.13 1436.92,-316.28"/>
<polygon fill="midnightblue" stroke="midnightblue" points="1307.71,-318.91 1297.89,-322.88 1308.04,-325.9 1307.71,-318.91"/>
</g>
<!-- Node26 -->
<g id="node26" class="node">
<title>Node26</title>
<g id="a_node26"><a xlink:href="structDGtal_1_1concepts_1_1COrientationFunctor2.html" target="_top" xlink:title="Aim: This concept is a refinement of COrientationFunctor, useful for simple algebraic curves that can...">
<polygon fill="white" stroke="black" points="1673.5,-297.5 1673.5,-327.5 1834.5,-327.5 1834.5,-297.5 1673.5,-297.5"/>
<text text-anchor="start" x="1681.5" y="-315.5" font-family="FreeSans" font-size="10.00">DGtal::concepts::COrientation</text>
<text text-anchor="middle" x="1754" y="-304.5" font-family="FreeSans" font-size="10.00">Functor2&lt; T &gt;</text>
</a>
</g>
</g>
<!-- Node25&#45;&gt;Node26 -->
<g id="edge28" class="edge">
<title>Node25&#45;&gt;Node26</title>
<path fill="none" stroke="midnightblue" d="M1608.25,-312.5C1629.6,-312.5 1652.23,-312.5 1673.1,-312.5"/>
<polygon fill="midnightblue" stroke="midnightblue" points="1608.22,-309 1598.22,-312.5 1608.22,-316 1608.22,-309"/>
</g>
<!-- Node28 -->
<g id="node28" class="node">
<title>Node28</title>
<g id="a_node28"><a xlink:href="structDGtal_1_1concepts_1_1CSCellEmbedder.html" target="_top" xlink:title="Aim: A cell embedder is a mapping from signed cells to Euclidean points. It adds inner types to funct...">
<polygon fill="white" stroke="black" points="1095,-50 1095,-69 1304,-69 1304,-50 1095,-50"/>
<text text-anchor="middle" x="1199.5" y="-57" font-family="FreeSans" font-size="10.00">DGtal::concepts::CSCellEmbedder&lt; T &gt;</text>
</a>
</g>
</g>
<!-- Node27&#45;&gt;Node28 -->
<g id="edge31" class="edge">
<title>Node27&#45;&gt;Node28</title>
<path fill="none" stroke="midnightblue" d="M897.23,-63.3C956.87,-62.55 1033.74,-61.58 1094.91,-60.81"/>
<polygon fill="midnightblue" stroke="midnightblue" points="897.01,-59.8 887.06,-63.43 897.1,-66.8 897.01,-59.8"/>
</g>
<!-- Node29 -->
<g id="node29" class="node">
<title>Node29</title>
<g id="a_node29"><a xlink:href="structDGtal_1_1concepts_1_1CDigitalSurfaceEmbedder.html" target="_top" xlink:title="Aim: A digital surface embedder is a specialized mapping from signed cells to Euclidean points....">
<polygon fill="white" stroke="black" points="1448,-44.5 1448,-74.5 1587,-74.5 1587,-44.5 1448,-44.5"/>
<text text-anchor="start" x="1456" y="-62.5" font-family="FreeSans" font-size="10.00">DGtal::concepts::CDigital</text>
<text text-anchor="middle" x="1517.5" y="-51.5" font-family="FreeSans" font-size="10.00">SurfaceEmbedder&lt; T &gt;</text>
</a>
</g>
</g>
<!-- Node28&#45;&gt;Node29 -->
<g id="edge32" class="edge">
<title>Node28&#45;&gt;Node29</title>
<path fill="none" stroke="midnightblue" d="M1314.45,-59.5C1359.13,-59.5 1408.92,-59.5 1447.89,-59.5"/>
<polygon fill="midnightblue" stroke="midnightblue" points="1314.41,-56 1304.41,-59.5 1314.41,-63 1314.41,-56"/>
</g>
<!-- Node31 -->
<g id="node31" class="node">
<title>Node31</title>
<g id="a_node31"><a xlink:href="structDGtal_1_1concepts_1_1CCellEmbedder.html" target="_top" xlink:title="Aim: A cell embedder is a mapping from unsigned cells to Euclidean points. It adds inner types to fun...">
<polygon fill="white" stroke="black" points="1098,-6 1098,-25 1301,-25 1301,-6 1098,-6"/>
<text text-anchor="middle" x="1199.5" y="-13" font-family="FreeSans" font-size="10.00">DGtal::concepts::CCellEmbedder&lt; T &gt;</text>
</a>
</g>
</g>
<!-- Node30&#45;&gt;Node31 -->
<g id="edge34" class="edge">
<title>Node30&#45;&gt;Node31</title>
<path fill="none" stroke="midnightblue" d="M897.39,-15.5C957.95,-15.5 1036.23,-15.5 1097.8,-15.5"/>
<polygon fill="midnightblue" stroke="midnightblue" points="897.06,-12 887.06,-15.5 897.06,-19 897.06,-12"/>
</g>
<!-- Node32&#45;&gt;Node16 -->
<g id="edge36" class="edge">
<title>Node32&#45;&gt;Node16</title>
<path fill="none" stroke="midnightblue" d="M1087.37,-133.25C1171.19,-127.31 1296.12,-123.79 1403,-142.5 1431.27,-147.45 1461.79,-158.84 1484.05,-168.37"/>
<polygon fill="midnightblue" stroke="midnightblue" points="1087.08,-129.76 1077.36,-133.98 1087.59,-136.74 1087.08,-129.76"/>
</g>
</g>
</svg>
        <g id="navigator" transform="translate(0 0)" fill="#404254">
                <rect fill="#f2f5e9" fill-opacity="0.5" stroke="#606060" stroke-width=".5" x="0" y="0" width="60" height="60"/>
                <use id="zoomplus" xlink:href="#zoomPlus" x="17" y="9" onmousedown="handleZoom(evt,'in')"/>
                <use id="zoomminus" xlink:href="#zoomMin" x="42" y="9" onmousedown="handleZoom(evt,'out')"/>
                <use id="reset" xlink:href="#resetDef" x="30" y="36" onmousedown="handleReset()"/>
                <g id="arrowUp" xlink:href="#dirArrow" transform="translate(30 24)" onmousedown="handlePan(0,-1)">
                  <use xlink:href="#rim" fill="#404040">
                        <set attributeName="fill" to="#808080" begin="arrowUp.mouseover" end="arrowUp.mouseout"/>
                  </use>
                  <path fill="none" stroke="white" stroke-width="1.5" d="M0,-3.0v7 M-2.5,-0.5L0,-3.0L2.5,-0.5"/>
                </g>
                <g id="arrowRight" xlink:href="#dirArrow" transform="rotate(90) translate(36 -43)" onmousedown="handlePan(1,0)">
                  <use xlink:href="#rim" fill="#404040">
                        <set attributeName="fill" to="#808080" begin="arrowRight.mouseover" end="arrowRight.mouseout"/>
                  </use>
                  <path fill="none" stroke="white" stroke-width="1.5" d="M0,-3.0v7 M-2.5,-0.5L0,-3.0L2.5,-0.5"/>
                </g>
                <g id="arrowDown" xlink:href="#dirArrow" transform="rotate(180) translate(-30 -48)" onmousedown="handlePan(0,1)">
                  <use xlink:href="#rim" fill="#404040">
                        <set attributeName="fill" to="#808080" begin="arrowDown.mouseover" end="arrowDown.mouseout"/>
                  </use>
                  <path fill="none" stroke="white" stroke-width="1.5" d="M0,-3.0v7 M-2.5,-0.5L0,-3.0L2.5,-0.5"/>
                </g>
                <g id="arrowLeft" xlink:href="#dirArrow" transform="rotate(270) translate(-36 17)" onmousedown="handlePan(-1,0)">
                  <use xlink:href="#rim" fill="#404040">
                        <set attributeName="fill" to="#808080" begin="arrowLeft.mouseover" end="arrowLeft.mouseout"/>
                  </use>
                  <path fill="none" stroke="white" stroke-width="1.5" d="M0,-3.0v7 M-2.5,-0.5L0,-3.0L2.5,-0.5"/>
                </g>
        </g>
        <svg viewBox="0 0 15 15" width="100%" height="30px" preserveAspectRatio="xMaxYMin meet">
         <g id="arrow_out" transform="scale(0.3 0.3)">
          <a xlink:href="structDGtal_1_1concepts_1_1CUnaryFunctor__inherit__graph_org.svg" target="_base">
           <rect id="button" ry="5" rx="5" y="6" x="6" height="38" width="38"
                fill="#f2f5e9" fill-opacity="0.5" stroke="#606060" stroke-width="1.0"/>
           <path id="arrow"
             d="M 11.500037,31.436501 C 11.940474,20.09759 22.043105,11.32322 32.158766,21.979434 L 37.068811,17.246167 C 37.068811,17.246167 37.088388,32 37.088388,32 L 22.160133,31.978069 C 22.160133,31.978069 26.997745,27.140456 26.997745,27.140456 C 18.528582,18.264221 13.291696,25.230495 11.500037,31.436501 z"
             style="fill:#404040;"/>
          </a>
         </g>
        </svg>
</svg>
