<?xml version="1.0" encoding="UTF-8" standalone="no"?>
<!DOCTYPE svg PUBLIC "-//W3C//DTD SVG 1.1//EN"
 "http://www.w3.org/Graphics/SVG/1.1/DTD/svg11.dtd">
<!-- Generated by graphviz version 2.43.0 (0)
 -->
<!-- Title: LibBoard::Shape Pages: 1 -->
<!--zoomable 249 -->

<svg id="main" version="1.1" xmlns="http://www.w3.org/2000/svg" xmlns:xlink="http://www.w3.org/1999/xlink" xml:space="preserve" onload="init(evt)">
<style type="text/css"><![CDATA[
.node, .edge {opacity: 0.7;}
.node.selected, .edge.selected {opacity: 1;}
.edge:hover path { stroke: red; }
.edge:hover polygon { stroke: red; fill: red; }
]]></style>

<defs>
  <circle id="rim" cx="0" cy="0" r="7"/>
  <circle id="rim2" cx="0" cy="0" r="3.5"/>
  <g id="zoomPlus">
    <use xlink:href="#rim" fill="#404040"><set attributeName="fill" to="#808080" begin="zoomplus.mouseover" end="zoomplus.mouseout"/></use>
    <path d="M-4,0h8M0,-4v8" fill="none" stroke="white" stroke-width="1.5" pointer-events="none"/>
  </g>
  <g id="zoomMin">
    <use xlink:href="#rim" fill="#404040"><set attributeName="fill" to="#808080" begin="zoomminus.mouseover" end="zoomminus.mouseout"/></use>
    <path d="M-4,0h8" fill="none" stroke="white" stroke-width="1.5" pointer-events="none"/>
  </g>
  <g id="arrowUp" transform="translate(30 24)">
    <use xlink:href="#rim"/>
    <path pointer-events="none" fill="none" stroke="white" stroke-width="1.5" d="M0,-3.0v7 M-2.5,-0.5L0,-3.0L2.5,-0.5"/>
  </g>
  <g id="arrowRight" transform="rotate(90) translate(36 -43)">
    <use xlink:href="#rim"/>
    <path pointer-events="none" fill="none" stroke="white" stroke-width="1.5" d="M0,-3.0v7 M-2.5,-0.5L0,-3.0L2.5,-0.5"/>
  </g>
  <g id="arrowDown" transform="rotate(180) translate(-30 -48)">
    <use xlink:href="#rim"/>
    <path pointer-events="none" fill="none" stroke="white" stroke-width="1.5" d="M0,-3.0v7 M-2.5,-0.5L0,-3.0L2.5,-0.5"/>
  </g>
  <g id="arrowLeft" transform="rotate(270) translate(-36 17)">
    <use xlink:href="#rim"/>
    <path pointer-events="none" fill="none" stroke="white" stroke-width="1.5" d="M0,-3.0v7 M-2.5,-0.5L0,-3.0L2.5,-0.5"/>
  </g>
  <g id="resetDef">
    <use xlink:href="#rim2" fill="#404040"><set attributeName="fill" to="#808080" begin="reset.mouseover" end="reset.mouseout"/></use>
  </g>
</defs>
<script type="application/ecmascript">
var viewWidth = 612;
var viewHeight = 249;
var sectionId = 'dynsection-0';
</script>
<script type="application/ecmascript" xlink:href="svg.min.js"/>
<svg id="graph" class="graph">
<g id="viewport">
<title>LibBoard::Shape</title>
<!-- Node1 -->
<g id="Node000001" class="node">
<title>Node1</title>
<g id="a_Node000001"><a xlink:title="Abstract structure for a 2D shape.">
<polygon fill="#999999" stroke="#666666" points="95,-148 0,-148 0,-129 95,-129 95,-148"/>
<text text-anchor="middle" x="47.5" y="-136" font-family="FreeSans" font-size="10.00">LibBoard::Shape</text>
</a>
</g>
</g>
<!-- Node2 -->
<g id="Node000002" class="node">
<title>Node2</title>
<g id="a_Node000002"><a xlink:href="structLibBoard_1_1Dot.html" target="_top" xlink:title="A line between two points.">
<polygon fill="white" stroke="#666666" points="229,-241 146,-241 146,-222 229,-222 229,-241"/>
<text text-anchor="middle" x="187.5" y="-229" font-family="FreeSans" font-size="10.00">LibBoard::Dot</text>
</a>
</g>
</g>
<!-- Node1&#45;&gt;Node2 -->
<g id="edge1_Node000001_Node000002" class="edge">
<title>Node1&#45;&gt;Node2</title>
<g id="a_edge1_Node000001_Node000002"><a xlink:title=" ">
<path fill="none" stroke="#63b8ff" d="M63.35,-155.72C78.73,-172.6 104.24,-197.97 131,-213.5 136.7,-216.8 143.08,-219.59 149.43,-221.91"/>
<polygon fill="#63b8ff" stroke="#63b8ff" points="65.91,-153.34 56.65,-148.2 60.69,-158 65.91,-153.34"/>
</a>
</g>
</g>
<!-- Node3 -->
<g id="Node000003" class="node">
<title>Node3</title>
<g id="a_Node000003"><a xlink:href="structLibBoard_1_1Ellipse.html" target="_top" xlink:title="An ellipse.">
<polygon fill="white" stroke="#666666" points="236.5,-204 138.5,-204 138.5,-185 236.5,-185 236.5,-204"/>
<text text-anchor="middle" x="187.5" y="-192" font-family="FreeSans" font-size="10.00">LibBoard::Ellipse</text>
</a>
</g>
</g>
<!-- Node1&#45;&gt;Node3 -->
<g id="edge2_Node000001_Node000003" class="edge">
<title>Node1&#45;&gt;Node3</title>
<g id="a_edge2_Node000001_Node000003"><a xlink:title=" ">
<path fill="none" stroke="#63b8ff" d="M76.76,-152.52C92.53,-160.09 112.63,-169.32 131,-176.5 138.64,-179.49 147,-182.39 154.87,-184.95"/>
<polygon fill="#63b8ff" stroke="#63b8ff" points="78.08,-149.27 67.56,-148.06 75.03,-155.57 78.08,-149.27"/>
</a>
</g>
</g>
<!-- Node6 -->
<g id="Node000006" class="node">
<title>Node6</title>
<g id="a_Node000006"><a xlink:href="structLibBoard_1_1Line.html" target="_top" xlink:title="A line between two points.">
<polygon fill="white" stroke="#666666" points="230.5,-167 144.5,-167 144.5,-148 230.5,-148 230.5,-167"/>
<text text-anchor="middle" x="187.5" y="-155" font-family="FreeSans" font-size="10.00">LibBoard::Line</text>
</a>
</g>
</g>
<!-- Node1&#45;&gt;Node6 -->
<g id="edge5_Node000001_Node000006" class="edge">
<title>Node1&#45;&gt;Node6</title>
<g id="a_edge5_Node000001_Node000006"><a xlink:title=" ">
<path fill="none" stroke="#63b8ff" d="M105.13,-146.3C118.29,-148.11 132.06,-150.01 144.46,-151.71"/>
<polygon fill="#63b8ff" stroke="#63b8ff" points="105.6,-142.83 95.22,-144.93 104.65,-149.76 105.6,-142.83"/>
</a>
</g>
</g>
<!-- Node8 -->
<g id="Node000008" class="node">
<title>Node8</title>
<g id="a_Node000008"><a xlink:href="structLibBoard_1_1Polyline.html" target="_top" xlink:title="A polygonal line described by a series of 2D points.">
<polygon fill="white" stroke="#666666" points="239.5,-130 135.5,-130 135.5,-111 239.5,-111 239.5,-130"/>
<text text-anchor="middle" x="187.5" y="-118" font-family="FreeSans" font-size="10.00">LibBoard::Polyline</text>
</a>
</g>
</g>
<!-- Node1&#45;&gt;Node8 -->
<g id="edge7_Node000001_Node000008" class="edge">
<title>Node1&#45;&gt;Node8</title>
<g id="a_edge7_Node000001_Node000008"><a xlink:title=" ">
<path fill="none" stroke="#63b8ff" d="M105.33,-131.09C115.19,-129.8 125.39,-128.47 135.09,-127.21"/>
<polygon fill="#63b8ff" stroke="#63b8ff" points="104.68,-127.64 95.22,-132.41 105.59,-134.58 104.68,-127.64"/>
</a>
</g>
</g>
<!-- Node14 -->
<g id="Node000014" class="node">
<title>Node14</title>
<g id="a_Node000014"><a xlink:href="structLibBoard_1_1ShapeList.html" target="_top" xlink:title="A group of shapes.">
<polygon fill="white" stroke="#666666" points="244,-74 131,-74 131,-55 244,-55 244,-74"/>
<text text-anchor="middle" x="187.5" y="-62" font-family="FreeSans" font-size="10.00">LibBoard::ShapeList</text>
</a>
</g>
</g>
<!-- Node1&#45;&gt;Node14 -->
<g id="edge13_Node000001_Node000014" class="edge">
<title>Node1&#45;&gt;Node14</title>
<g id="a_edge13_Node000001_Node000014"><a xlink:title=" ">
<path fill="none" stroke="#63b8ff" d="M75.31,-124.13C102.74,-109.42 144.61,-86.96 168.37,-74.22"/>
<polygon fill="#63b8ff" stroke="#63b8ff" points="73.42,-121.17 66.26,-128.98 76.73,-127.34 73.42,-121.17"/>
</a>
</g>
</g>
<!-- Node18 -->
<g id="Node000018" class="node">
<title>Node18</title>
<g id="a_Node000018"><a xlink:href="structLibBoard_1_1Text.html" target="_top" xlink:title="A piece of text.">
<polygon fill="white" stroke="#666666" points="230.5,-37 144.5,-37 144.5,-18 230.5,-18 230.5,-37"/>
<text text-anchor="middle" x="187.5" y="-25" font-family="FreeSans" font-size="10.00">LibBoard::Text</text>
</a>
</g>
</g>
<!-- Node1&#45;&gt;Node18 -->
<g id="edge17_Node000001_Node000018" class="edge">
<title>Node1&#45;&gt;Node18</title>
<g id="a_edge17_Node000001_Node000018"><a xlink:title=" ">
<path fill="none" stroke="#63b8ff" d="M60.33,-120.5C74.74,-99.89 100.91,-66.42 131,-46.5 136.77,-42.68 143.4,-39.54 150.01,-37"/>
<polygon fill="#63b8ff" stroke="#63b8ff" points="57.3,-118.73 54.57,-128.97 63.09,-122.67 57.3,-118.73"/>
</a>
</g>
</g>
<!-- Node4 -->
<g id="Node000004" class="node">
<title>Node4</title>
<g id="a_Node000004"><a xlink:href="structLibBoard_1_1Circle.html" target="_top" xlink:title="A circle.">
<polygon fill="white" stroke="#666666" points="399,-241 306,-241 306,-222 399,-222 399,-241"/>
<text text-anchor="middle" x="352.5" y="-229" font-family="FreeSans" font-size="10.00">LibBoard::Circle</text>
</a>
</g>
</g>
<!-- Node3&#45;&gt;Node4 -->
<g id="edge3_Node000003_Node000004" class="edge">
<title>Node3&#45;&gt;Node4</title>
<g id="a_edge3_Node000003_Node000004"><a xlink:title=" ">
<path fill="none" stroke="#63b8ff" d="M240.43,-206.29C262.69,-211.34 288.34,-217.16 309.38,-221.94"/>
<polygon fill="#63b8ff" stroke="#63b8ff" points="241,-202.83 230.48,-204.03 239.45,-209.66 241,-202.83"/>
</a>
</g>
</g>
<!-- Node5 -->
<g id="Node000005" class="node">
<title>Node5</title>
<g id="a_Node000005"><a xlink:href="structLibBoard_1_1Arc.html" target="_top" xlink:title="An arc.">
<polygon fill="white" stroke="#666666" points="573,-241 492,-241 492,-222 573,-222 573,-241"/>
<text text-anchor="middle" x="532.5" y="-229" font-family="FreeSans" font-size="10.00">LibBoard::Arc</text>
</a>
</g>
</g>
<!-- Node4&#45;&gt;Node5 -->
<g id="edge4_Node000004_Node000005" class="edge">
<title>Node4&#45;&gt;Node5</title>
<g id="a_edge4_Node000004_Node000005"><a xlink:title=" ">
<path fill="none" stroke="#63b8ff" d="M409.35,-231.5C436.13,-231.5 467.58,-231.5 491.86,-231.5"/>
<polygon fill="#63b8ff" stroke="#63b8ff" points="409.34,-228 399.34,-231.5 409.34,-235 409.34,-228"/>
</a>
</g>
</g>
<!-- Node7 -->
<g id="Node000007" class="node">
<title>Node7</title>
<g id="a_Node000007"><a xlink:href="structLibBoard_1_1Arrow.html" target="_top" xlink:title="A line between two points with an arrow at one extremity.">
<polygon fill="white" stroke="#666666" points="399.5,-204 305.5,-204 305.5,-185 399.5,-185 399.5,-204"/>
<text text-anchor="middle" x="352.5" y="-192" font-family="FreeSans" font-size="10.00">LibBoard::Arrow</text>
</a>
</g>
</g>
<!-- Node6&#45;&gt;Node7 -->
<g id="edge6_Node000006_Node000007" class="edge">
<title>Node6&#45;&gt;Node7</title>
<g id="a_edge6_Node000006_Node000007"><a xlink:title=" ">
<path fill="none" stroke="#63b8ff" d="M240.43,-169.29C262.69,-174.34 288.34,-180.16 309.38,-184.94"/>
<polygon fill="#63b8ff" stroke="#63b8ff" points="241,-165.83 230.48,-167.03 239.45,-172.66 241,-165.83"/>
</a>
</g>
</g>
<!-- Node9 -->
<g id="Node000009" class="node">
<title>Node9</title>
<g id="a_Node000009"><a xlink:href="structLibBoard_1_1GouraudTriangle.html" target="_top" xlink:title="A triangle with shaded filling according to colors given for each vertex.">
<polygon fill="white" stroke="#666666" points="425,-167 280,-167 280,-148 425,-148 425,-167"/>
<text text-anchor="middle" x="352.5" y="-155" font-family="FreeSans" font-size="10.00">LibBoard::GouraudTriangle</text>
</a>
</g>
</g>
<!-- Node8&#45;&gt;Node9 -->
<g id="edge8_Node000008_Node000009" class="edge">
<title>Node8&#45;&gt;Node9</title>
<g id="a_edge8_Node000008_Node000009"><a xlink:title=" ">
<path fill="none" stroke="#63b8ff" d="M240.43,-132.29C262.69,-137.34 288.34,-143.16 309.38,-147.94"/>
<polygon fill="#63b8ff" stroke="#63b8ff" points="241,-128.83 230.48,-130.03 239.45,-135.66 241,-128.83"/>
</a>
</g>
</g>
<!-- Node10 -->
<g id="Node000010" class="node">
<title>Node10</title>
<g id="a_Node000010"><a xlink:href="structLibBoard_1_1Rectangle.html" target="_top" xlink:title="A rectangle.">
<polygon fill="white" stroke="#666666" points="409.5,-130 295.5,-130 295.5,-111 409.5,-111 409.5,-130"/>
<text text-anchor="middle" x="352.5" y="-118" font-family="FreeSans" font-size="10.00">LibBoard::Rectangle</text>
</a>
</g>
</g>
<!-- Node8&#45;&gt;Node10 -->
<g id="edge9_Node000008_Node000010" class="edge">
<title>Node8&#45;&gt;Node10</title>
<g id="a_edge9_Node000008_Node000010"><a xlink:title=" ">
<path fill="none" stroke="#63b8ff" d="M249.81,-120.5C264.79,-120.5 280.74,-120.5 295.46,-120.5"/>
<polygon fill="#63b8ff" stroke="#63b8ff" points="249.63,-117 239.63,-120.5 249.63,-124 249.63,-117"/>
</a>
</g>
</g>
<!-- Node12 -->
<g id="Node000012" class="node">
<title>Node12</title>
<g id="a_Node000012"><a xlink:href="structLibBoard_1_1Triangle.html" target="_top" xlink:title="A triangle. Basically a Polyline with a convenient constructor.">
<polygon fill="white" stroke="#666666" points="404.5,-93 300.5,-93 300.5,-74 404.5,-74 404.5,-93"/>
<text text-anchor="middle" x="352.5" y="-81" font-family="FreeSans" font-size="10.00">LibBoard::Triangle</text>
</a>
</g>
</g>
<!-- Node8&#45;&gt;Node12 -->
<g id="edge11_Node000008_Node000012" class="edge">
<title>Node8&#45;&gt;Node12</title>
<g id="a_edge11_Node000008_Node000012"><a xlink:title=" ">
<path fill="none" stroke="#63b8ff" d="M240.43,-108.71C262.69,-103.66 288.34,-97.84 309.38,-93.06"/>
<polygon fill="#63b8ff" stroke="#63b8ff" points="239.45,-105.34 230.48,-110.97 241,-112.17 239.45,-105.34"/>
</a>
</g>
</g>
<!-- Node11 -->
<g id="Node000011" class="node">
<title>Node11</title>
<g id="a_Node000011"><a xlink:href="structLibBoard_1_1Image.html" target="_top" xlink:title="Used to draw image in figure.">
<polygon fill="white" stroke="#666666" points="580.5,-136 484.5,-136 484.5,-117 580.5,-117 580.5,-136"/>
<text text-anchor="middle" x="532.5" y="-124" font-family="FreeSans" font-size="10.00">LibBoard::Image</text>
</a>
</g>
</g>
<!-- Node10&#45;&gt;Node11 -->
<g id="edge10_Node000010_Node000011" class="edge">
<title>Node10&#45;&gt;Node11</title>
<g id="a_edge10_Node000010_Node000011"><a xlink:title=" ">
<path fill="none" stroke="#63b8ff" d="M419.86,-122.74C441.35,-123.46 464.72,-124.25 484.5,-124.92"/>
<polygon fill="#63b8ff" stroke="#63b8ff" points="419.93,-119.24 409.82,-122.4 419.7,-126.23 419.93,-119.24"/>
</a>
</g>
</g>
<!-- Node13 -->
<g id="Node000013" class="node">
<title>Node13</title>
<g id="a_Node000013"><a xlink:href="structLibBoard_1_1QuadraticBezierCurve.html" target="_top" xlink:title="A quadratic Bezier curve having 3 control points. NB. It is also a parabola arc.">
<polygon fill="white" stroke="#666666" points="604,-98.5 461,-98.5 461,-68.5 604,-68.5 604,-98.5"/>
<text text-anchor="start" x="469" y="-86.5" font-family="FreeSans" font-size="10.00">LibBoard::QuadraticBezier</text>
<text text-anchor="middle" x="532.5" y="-75.5" font-family="FreeSans" font-size="10.00">Curve</text>
</a>
</g>
</g>
<!-- Node12&#45;&gt;Node13 -->
<g id="edge12_Node000012_Node000013" class="edge">
<title>Node12&#45;&gt;Node13</title>
<g id="a_edge12_Node000012_Node000013"><a xlink:title=" ">
<path fill="none" stroke="#63b8ff" d="M414.62,-83.5C429.53,-83.5 445.61,-83.5 460.92,-83.5"/>
<polygon fill="#63b8ff" stroke="#63b8ff" points="414.51,-80 404.51,-83.5 414.51,-87 414.51,-80"/>
</a>
</g>
</g>
<!-- Node15 -->
<g id="Node000015" class="node">
<title>Node15</title>
<g id="a_Node000015"><a xlink:href="classLibBoard_1_1Board.html" target="_top" xlink:title="Class for EPS, FIG or SVG drawings.">
<polygon fill="white" stroke="#666666" points="399.5,-56 305.5,-56 305.5,-37 399.5,-37 399.5,-56"/>
<text text-anchor="middle" x="352.5" y="-44" font-family="FreeSans" font-size="10.00">LibBoard::Board</text>
</a>
</g>
</g>
<!-- Node14&#45;&gt;Node15 -->
<g id="edge14_Node000014_Node000015" class="edge">
<title>Node14&#45;&gt;Node15</title>
<g id="a_edge14_Node000014_Node000015"><a xlink:title=" ">
<path fill="none" stroke="#63b8ff" d="M254.11,-57.26C271.27,-55.36 289.4,-53.36 305.32,-51.6"/>
<polygon fill="#63b8ff" stroke="#63b8ff" points="253.69,-53.78 244.14,-58.36 254.46,-60.74 253.69,-53.78"/>
</a>
</g>
</g>
<!-- Node17 -->
<g id="Node000017" class="node">
<title>Node17</title>
<g id="a_Node000017"><a xlink:href="structLibBoard_1_1Group.html" target="_top" xlink:title="A group of shapes. A group is basically a ShapeList except that when rendered in either an SVG of a F...">
<polygon fill="white" stroke="#666666" points="400,-19 305,-19 305,0 400,0 400,-19"/>
<text text-anchor="middle" x="352.5" y="-7" font-family="FreeSans" font-size="10.00">LibBoard::Group</text>
</a>
</g>
</g>
<!-- Node14&#45;&gt;Node17 -->
<g id="edge16_Node000014_Node000017" class="edge">
<title>Node14&#45;&gt;Node17</title>
<g id="a_edge16_Node000014_Node000017"><a xlink:title=" ">
<path fill="none" stroke="#63b8ff" d="M230.29,-51.69C234.95,-50.05 239.6,-48.3 244,-46.5 260.55,-39.72 263.27,-34.83 280,-28.5 289.49,-24.91 299.93,-21.73 309.83,-19.04"/>
<polygon fill="#63b8ff" stroke="#63b8ff" points="229.12,-48.4 220.79,-54.93 231.38,-55.02 229.12,-48.4"/>
</a>
</g>
</g>
<!-- Node16 -->
<g id="Node000016" class="node">
<title>Node16</title>
<g id="a_Node000016"><a xlink:href="classDGtal_1_1Board2D.html" target="_top" xlink:title="Aim: This class specializes a &#39;Board&#39; class so as to display DGtal objects more naturally (with &lt;&lt;)....">
<polygon fill="white" stroke="#666666" points="578.5,-50 486.5,-50 486.5,-31 578.5,-31 578.5,-50"/>
<text text-anchor="middle" x="532.5" y="-38" font-family="FreeSans" font-size="10.00">DGtal::Board2D</text>
</a>
</g>
</g>
<!-- Node15&#45;&gt;Node16 -->
<g id="edge15_Node000015_Node000016" class="edge">
<title>Node15&#45;&gt;Node16</title>
<g id="a_edge15_Node000015_Node000016"><a xlink:title=" ">
<path fill="none" stroke="#63b8ff" d="M410.1,-44.59C434.72,-43.76 463.18,-42.8 486.35,-42.02"/>
<polygon fill="#63b8ff" stroke="#63b8ff" points="409.68,-41.1 399.8,-44.94 409.92,-48.1 409.68,-41.1"/>
</a>
</g>
</g>
</g>
</svg>

<g id="navigator" transform="translate(0 0)" fill="#404254">
  <rect fill="#f2f5e9" fill-opacity="0.5" stroke="#606060" stroke-width=".5" x="0" y="0" width="60" height="60"/>
  <use id="zoomplus" xlink:href="#zoomPlus" x="17" y="9" onmousedown="handleZoom(evt,'in')"/>
  <use id="zoomminus" xlink:href="#zoomMin" x="42" y="9" onmousedown="handleZoom(evt,'out')"/>
  <use id="reset" xlink:href="#resetDef" x="30" y="36" onmousedown="handleReset()"/>
   <use id="arrowup" xlink:href="#arrowUp" x="0" y="0" onmousedown="handlePan(0,-1)"/>
  <use id="arrowright" xlink:href="#arrowRight" x="0" y="0" onmousedown="handlePan(1,0)"/>
  <use id="arrowdown" xlink:href="#arrowDown" x="0" y="0" onmousedown="handlePan(0,1)"/>
  <use id="arrowleft" xlink:href="#arrowLeft" x="0" y="0" onmousedown="handlePan(-1,0)"/>
</g>
<svg viewBox="0 0 15 15" width="100%" height="30px" preserveAspectRatio="xMaxYMin meet">
 <g id="arrow_out" transform="scale(0.3 0.3)">
  <a xlink:href="structLibBoard_1_1Shape__inherit__graph_org.svg" target="_base">
   <rect id="button" ry="5" rx="5" y="6" x="6" height="38" width="38"
        fill="#f2f5e9" fill-opacity="0.5" stroke="#606060" stroke-width="1.0"/>
   <path id="arrow"
     d="M 11.500037,31.436501 C 11.940474,20.09759 22.043105,11.32322 32.158766,21.979434 L 37.068811,17.246167 C 37.068811,17.246167 37.088388,32 37.088388,32 L 22.160133,31.978069 C 22.160133,31.978069 26.997745,27.140456 26.997745,27.140456 C 18.528582,18.264221 13.291696,25.230495 11.500037,31.436501 z"
     style="fill:#404040;"/>
  </a>
 </g>
</svg>

<style type='text/css'>
<![CDATA[
[data-mouse-over-selected='false'] { opacity: 0.7; }
[data-mouse-over-selected='true']  { opacity: 1.0; }
]]>
</style>
<script type="application/ecmascript"><![CDATA[
document.addEventListener('DOMContentLoaded', (event) => {
  highlightEdges();
  highlightAdjacentNodes();
});
]]></script>
</svg>
