<?xml version="1.0" encoding="UTF-8" standalone="no"?>
<!DOCTYPE svg PUBLIC "-//W3C//DTD SVG 1.1//EN"
 "http://www.w3.org/Graphics/SVG/1.1/DTD/svg11.dtd">
<!-- Generated by graphviz version 2.43.0 (0)
 -->
<!-- Title: DGtal::concepts::CLinearAlgebraSolver&lt; S, V, M &gt; Pages: 1 -->
<svg width="187pt" height="160pt"
 viewBox="0.00 0.00 187.00 160.00" xmlns="http://www.w3.org/2000/svg" xmlns:xlink="http://www.w3.org/1999/xlink">
<g id="graph0" class="graph" transform="scale(1 1) rotate(0) translate(4 156)">
<title>DGtal::concepts::CLinearAlgebraSolver&lt; S, V, M &gt;</title>
<!-- Node1 -->
<g id="Node000001" class="node">
<title>Node1</title>
<g id="a_Node000001"><a xlink:title="Aim: Describe a linear solver defined over a linear algebra. Problems are of the form:">
<polygon fill="#999999" stroke="#666666" points="160,-30 19,-30 19,0 160,0 160,-30"/>
<text text-anchor="start" x="27" y="-18" font-family="FreeSans" font-size="10.00">DGtal::concepts::CLinear</text>
<text text-anchor="middle" x="89.5" y="-7" font-family="FreeSans" font-size="10.00">AlgebraSolver&lt; S, V, M &gt;</text>
</a>
</g>
</g>
<!-- Node2 -->
<g id="Node000002" class="node">
<title>Node2</title>
<g id="a_Node000002"><a xlink:href="structboost_1_1DefaultConstructible.html" target="_top" xlink:title=" ">
<polygon fill="white" stroke="#666666" points="179,-86 0,-86 0,-67 179,-67 179,-86"/>
<text text-anchor="middle" x="89.5" y="-74" font-family="FreeSans" font-size="10.00">boost::DefaultConstructible&lt; S &gt;</text>
</a>
</g>
</g>
<!-- Node2&#45;&gt;Node1 -->
<g id="edge1_Node000001_Node000002" class="edge">
<title>Node2&#45;&gt;Node1</title>
<g id="a_edge1_Node000001_Node000002"><a xlink:title=" ">
<path fill="none" stroke="#63b8ff" d="M89.5,-56.73C89.5,-48.09 89.5,-38 89.5,-30.02"/>
<polygon fill="#63b8ff" stroke="#63b8ff" points="86,-56.98 89.5,-66.98 93,-56.98 86,-56.98"/>
</a>
</g>
</g>
<!-- Node3 -->
<g id="Node000003" class="node">
<title>Node3</title>
<g id="a_Node000003"><a xlink:href="structboost_1_1DefaultConstructible.html" target="_top" xlink:title="Go to http://www.sgi.com/tech/stl/DefaultConstructible.html.">
<polygon fill="white" stroke="#666666" points="179,-152 0,-152 0,-133 179,-133 179,-152"/>
<text text-anchor="middle" x="89.5" y="-140" font-family="FreeSans" font-size="10.00">boost::DefaultConstructible&lt; T &gt;</text>
</a>
</g>
</g>
<!-- Node3&#45;&gt;Node2 -->
<g id="edge2_Node000002_Node000003" class="edge">
<title>Node3&#45;&gt;Node2</title>
<g id="a_edge2_Node000002_Node000003"><a xlink:title=" ">
<path fill="none" stroke="orange" stroke-dasharray="5,2" d="M89.5,-122.58C89.5,-110.63 89.5,-95.72 89.5,-86.41"/>
<polygon fill="orange" stroke="orange" points="86,-122.87 89.5,-132.87 93,-122.87 86,-122.87"/>
</a>
</g>
<text text-anchor="middle" x="105.5" y="-107" font-family="FreeSans" font-size="10.00" fill="grey"> &lt; S &gt;</text>
</g>
</g>
</svg>
