<?xml version="1.0" encoding="UTF-8" standalone="no"?>
<!DOCTYPE svg PUBLIC "-//W3C//DTD SVG 1.1//EN"
 "http://www.w3.org/Graphics/SVG/1.1/DTD/svg11.dtd">
<!-- Generated by graphviz version 2.43.0 (0)
 -->
<!-- Title: DGtal::functors::Projector&lt; S &gt; Pages: 1 -->
<!--zoomable 146 -->

<svg id="main" version="1.1" xmlns="http://www.w3.org/2000/svg" xmlns:xlink="http://www.w3.org/1999/xlink" xml:space="preserve" onload="init(evt)">
<style type="text/css"><![CDATA[
.node, .edge {opacity: 0.7;}
.node.selected, .edge.selected {opacity: 1;}
.edge:hover path { stroke: red; }
.edge:hover polygon { stroke: red; fill: red; }
]]></style>

<defs>
  <circle id="rim" cx="0" cy="0" r="7"/>
  <circle id="rim2" cx="0" cy="0" r="3.5"/>
  <g id="zoomPlus">
    <use xlink:href="#rim" fill="#404040"><set attributeName="fill" to="#808080" begin="zoomplus.mouseover" end="zoomplus.mouseout"/></use>
    <path d="M-4,0h8M0,-4v8" fill="none" stroke="white" stroke-width="1.5" pointer-events="none"/>
  </g>
  <g id="zoomMin">
    <use xlink:href="#rim" fill="#404040"><set attributeName="fill" to="#808080" begin="zoomminus.mouseover" end="zoomminus.mouseout"/></use>
    <path d="M-4,0h8" fill="none" stroke="white" stroke-width="1.5" pointer-events="none"/>
  </g>
  <g id="arrowUp" transform="translate(30 24)">
    <use xlink:href="#rim"/>
    <path pointer-events="none" fill="none" stroke="white" stroke-width="1.5" d="M0,-3.0v7 M-2.5,-0.5L0,-3.0L2.5,-0.5"/>
  </g>
  <g id="arrowRight" transform="rotate(90) translate(36 -43)">
    <use xlink:href="#rim"/>
    <path pointer-events="none" fill="none" stroke="white" stroke-width="1.5" d="M0,-3.0v7 M-2.5,-0.5L0,-3.0L2.5,-0.5"/>
  </g>
  <g id="arrowDown" transform="rotate(180) translate(-30 -48)">
    <use xlink:href="#rim"/>
    <path pointer-events="none" fill="none" stroke="white" stroke-width="1.5" d="M0,-3.0v7 M-2.5,-0.5L0,-3.0L2.5,-0.5"/>
  </g>
  <g id="arrowLeft" transform="rotate(270) translate(-36 17)">
    <use xlink:href="#rim"/>
    <path pointer-events="none" fill="none" stroke="white" stroke-width="1.5" d="M0,-3.0v7 M-2.5,-0.5L0,-3.0L2.5,-0.5"/>
  </g>
  <g id="resetDef">
    <use xlink:href="#rim2" fill="#404040"><set attributeName="fill" to="#808080" begin="reset.mouseover" end="reset.mouseout"/></use>
  </g>
</defs>
<script type="application/ecmascript">
var viewWidth = 560;
var viewHeight = 146;
var sectionId = 'dynsection-0';
</script>
<script type="application/ecmascript" xlink:href="svg.min.js"/>
<svg id="graph" class="graph">
<g id="viewport">
<title>DGtal::functors::Projector&lt; S &gt;</title>
<!-- Node1 -->
<g id="Node000001" class="node">
<title>Node1</title>
<g id="a_Node000001"><a xlink:title="Aim: Functor that maps a point P of dimension i to a point Q of dimension j. The member myDims is an ...">
<polygon fill="#999999" stroke="#666666" points="168,-78.5 0,-78.5 0,-59.5 168,-59.5 168,-78.5"/>
<text text-anchor="middle" x="84" y="-66.5" font-family="FreeSans" font-size="10.00">DGtal::functors::Projector&lt; S &gt;</text>
</a>
</g>
</g>
<!-- Node2 -->
<g id="Node000002" class="node">
<title>Node2</title>
<g id="a_Node000002"><a xlink:href="structDGtal_1_1functors_1_1Projector.html" target="_top" xlink:title=" ">
<polygon fill="white" stroke="#666666" points="527,-138 387,-138 387,-108 527,-108 527,-138"/>
<text text-anchor="start" x="395" y="-126" font-family="FreeSans" font-size="10.00">DGtal::functors::Projector</text>
<text text-anchor="middle" x="457" y="-115" font-family="FreeSans" font-size="10.00">&lt; SpaceND&lt; 2, int &gt; &gt;</text>
</a>
</g>
</g>
<!-- Node1&#45;&gt;Node2 -->
<g id="edge1_Node000001_Node000002" class="edge">
<title>Node1&#45;&gt;Node2</title>
<g id="a_edge1_Node000001_Node000002"><a xlink:title=" ">
<path fill="none" stroke="orange" stroke-dasharray="5,2" d="M126.69,-81.22C144.79,-86.13 166.3,-91.46 186,-95 253.72,-107.16 332.02,-114.56 386.8,-118.67"/>
<polygon fill="orange" stroke="orange" points="127.6,-77.84 117.03,-78.55 125.73,-84.58 127.6,-77.84"/>
</a>
</g>
<text text-anchor="middle" x="265" y="-117" font-family="FreeSans" font-size="10.00" fill="grey"> &lt; SpaceND&lt; 2, int &gt; &gt;</text>
</g>
<!-- Node3 -->
<g id="Node000003" class="node">
<title>Node3</title>
<g id="a_Node000003"><a xlink:href="structDGtal_1_1functors_1_1Projector.html" target="_top" xlink:title=" ">
<polygon fill="white" stroke="#666666" points="552,-89.5 362,-89.5 362,-48.5 552,-48.5 552,-89.5"/>
<text text-anchor="start" x="370" y="-77.5" font-family="FreeSans" font-size="10.00">DGtal::functors::Projector</text>
<text text-anchor="start" x="370" y="-66.5" font-family="FreeSans" font-size="10.00">&lt; SpaceND&lt; 2, typename TKSpace</text>
<text text-anchor="middle" x="457" y="-55.5" font-family="FreeSans" font-size="10.00">::Space::Integer &gt; &gt;</text>
</a>
</g>
</g>
<!-- Node1&#45;&gt;Node3 -->
<g id="edge2_Node000001_Node000003" class="edge">
<title>Node1&#45;&gt;Node3</title>
<g id="a_edge2_Node000001_Node000003"><a xlink:title=" ">
<path fill="none" stroke="orange" stroke-dasharray="5,2" d="M178.55,-69C234.64,-69 305.73,-69 361.91,-69"/>
<polygon fill="orange" stroke="orange" points="178.26,-65.5 168.26,-69 178.26,-72.5 178.26,-65.5"/>
</a>
</g>
<text text-anchor="start" x="193" y="-83" font-family="FreeSans" font-size="10.00" fill="grey"> &lt; SpaceND&lt; 2, typename</text>
<text text-anchor="middle" x="265" y="-72" font-family="FreeSans" font-size="10.00" fill="grey"> TKSpace::Space::Integer &gt; &gt;</text>
</g>
<!-- Node4 -->
<g id="Node000004" class="node">
<title>Node4</title>
<g id="a_Node000004"><a xlink:href="structDGtal_1_1functors_1_1Projector.html" target="_top" xlink:title=" ">
<polygon fill="white" stroke="#666666" points="542.5,-30 371.5,-30 371.5,0 542.5,0 542.5,-30"/>
<text text-anchor="start" x="379.5" y="-18" font-family="FreeSans" font-size="10.00">DGtal::functors::Projector</text>
<text text-anchor="middle" x="457" y="-7" font-family="FreeSans" font-size="10.00">&lt; SpaceND&lt; 2, Coordinate &gt; &gt;</text>
</a>
</g>
</g>
<!-- Node1&#45;&gt;Node4 -->
<g id="edge3_Node000001_Node000004" class="edge">
<title>Node1&#45;&gt;Node4</title>
<g id="a_edge3_Node000001_Node000004"><a xlink:title=" ">
<path fill="none" stroke="orange" stroke-dasharray="5,2" d="M158.74,-58.01C167.92,-56.66 177.18,-55.29 186,-54 248.09,-44.9 318.24,-34.78 371.47,-27.12"/>
<polygon fill="orange" stroke="orange" points="158.22,-54.55 148.84,-59.48 159.24,-61.48 158.22,-54.55"/>
</a>
</g>
<text text-anchor="middle" x="265" y="-57" font-family="FreeSans" font-size="10.00" fill="grey"> &lt; SpaceND&lt; 2, Coordinate &gt; &gt;</text>
</g>
</g>
</svg>

<g id="navigator" transform="translate(0 0)" fill="#404254">
  <rect fill="#f2f5e9" fill-opacity="0.5" stroke="#606060" stroke-width=".5" x="0" y="0" width="60" height="60"/>
  <use id="zoomplus" xlink:href="#zoomPlus" x="17" y="9" onmousedown="handleZoom(evt,'in')"/>
  <use id="zoomminus" xlink:href="#zoomMin" x="42" y="9" onmousedown="handleZoom(evt,'out')"/>
  <use id="reset" xlink:href="#resetDef" x="30" y="36" onmousedown="handleReset()"/>
   <use id="arrowup" xlink:href="#arrowUp" x="0" y="0" onmousedown="handlePan(0,-1)"/>
  <use id="arrowright" xlink:href="#arrowRight" x="0" y="0" onmousedown="handlePan(1,0)"/>
  <use id="arrowdown" xlink:href="#arrowDown" x="0" y="0" onmousedown="handlePan(0,1)"/>
  <use id="arrowleft" xlink:href="#arrowLeft" x="0" y="0" onmousedown="handlePan(-1,0)"/>
</g>
<svg viewBox="0 0 15 15" width="100%" height="30px" preserveAspectRatio="xMaxYMin meet">
 <g id="arrow_out" transform="scale(0.3 0.3)">
  <a xlink:href="structDGtal_1_1functors_1_1Projector__inherit__graph_org.svg" target="_base">
   <rect id="button" ry="5" rx="5" y="6" x="6" height="38" width="38"
        fill="#f2f5e9" fill-opacity="0.5" stroke="#606060" stroke-width="1.0"/>
   <path id="arrow"
     d="M 11.500037,31.436501 C 11.940474,20.09759 22.043105,11.32322 32.158766,21.979434 L 37.068811,17.246167 C 37.068811,17.246167 37.088388,32 37.088388,32 L 22.160133,31.978069 C 22.160133,31.978069 26.997745,27.140456 26.997745,27.140456 C 18.528582,18.264221 13.291696,25.230495 11.500037,31.436501 z"
     style="fill:#404040;"/>
  </a>
 </g>
</svg>

<style type='text/css'>
<![CDATA[
[data-mouse-over-selected='false'] { opacity: 0.7; }
[data-mouse-over-selected='true']  { opacity: 1.0; }
]]>
</style>
<script type="application/ecmascript"><![CDATA[
document.addEventListener('DOMContentLoaded', (event) => {
  highlightEdges();
  highlightAdjacentNodes();
});
]]></script>
</svg>
