<?xml version="1.0" encoding="UTF-8" standalone="no"?>
<!DOCTYPE svg PUBLIC "-//W3C//DTD SVG 1.1//EN"
 "http://www.w3.org/Graphics/SVG/1.1/DTD/svg11.dtd">
<!-- Generated by graphviz version 2.43.0 (0)
 -->
<!-- Title: DGtal::Splitter&lt; TElement, TWord &gt; Pages: 1 -->
<svg width="432pt" height="113pt"
 viewBox="0.00 0.00 432.00 112.50" xmlns="http://www.w3.org/2000/svg" xmlns:xlink="http://www.w3.org/1999/xlink">
<g id="graph0" class="graph" transform="scale(1 1) rotate(0) translate(4 108.5)">
<title>DGtal::Splitter&lt; TElement, TWord &gt;</title>
<!-- Node1 -->
<g id="Node000001" class="node">
<title>Node1</title>
<g id="a_Node000001"><a xlink:title=" ">
<polygon fill="#999999" stroke="#666666" points="146,-61.5 0,-61.5 0,-31.5 146,-31.5 146,-61.5"/>
<text text-anchor="start" x="8" y="-49.5" font-family="FreeSans" font-size="10.00">DGtal::Splitter&lt; TElement,</text>
<text text-anchor="middle" x="73" y="-38.5" font-family="FreeSans" font-size="10.00"> TWord &gt;</text>
</a>
</g>
</g>
<!-- Node2 -->
<g id="Node000002" class="node">
<title>Node2</title>
<g id="a_Node000002"><a xlink:href="structDGtal_1_1Splitter.html" target="_top" xlink:title=" ">
<polygon fill="white" stroke="#666666" points="424,-104.5 289,-104.5 289,-74.5 424,-74.5 424,-104.5"/>
<text text-anchor="start" x="297" y="-92.5" font-family="FreeSans" font-size="10.00">DGtal::Splitter&lt; DGtal</text>
<text text-anchor="middle" x="356.5" y="-81.5" font-family="FreeSans" font-size="10.00">::PointVector, uint64_t &gt;</text>
</a>
</g>
</g>
<!-- Node1&#45;&gt;Node2 -->
<g id="edge1_Node000001_Node000002" class="edge">
<title>Node1&#45;&gt;Node2</title>
<g id="a_edge1_Node000001_Node000002"><a xlink:title=" ">
<path fill="none" stroke="orange" stroke-dasharray="5,2" d="M156.3,-60.28C158.89,-60.7 161.47,-61.1 164,-61.5 205.5,-67.99 252.13,-74.82 288.98,-80.11"/>
<polygon fill="orange" stroke="orange" points="156.62,-56.79 146.19,-58.66 155.51,-63.7 156.62,-56.79"/>
</a>
</g>
<text text-anchor="start" x="164" y="-90.5" font-family="FreeSans" font-size="10.00" fill="grey"> &lt; DGtal::PointVector,</text>
<text text-anchor="middle" x="217.5" y="-79.5" font-family="FreeSans" font-size="10.00" fill="grey"> uint64_t &gt;</text>
</g>
<!-- Node3 -->
<g id="Node000003" class="node">
<title>Node3</title>
<g id="a_Node000003"><a xlink:href="structDGtal_1_1Splitter.html" target="_top" xlink:title=" ">
<polygon fill="white" stroke="#666666" points="423,-56 290,-56 290,-37 423,-37 423,-56"/>
<text text-anchor="middle" x="356.5" y="-44" font-family="FreeSans" font-size="10.00">DGtal::Splitter&lt; Point &gt;</text>
</a>
</g>
</g>
<!-- Node1&#45;&gt;Node3 -->
<g id="edge2_Node000001_Node000003" class="edge">
<title>Node1&#45;&gt;Node3</title>
<g id="a_edge2_Node000001_Node000003"><a xlink:title=" ">
<path fill="none" stroke="orange" stroke-dasharray="5,2" d="M156.18,-46.5C198.72,-46.5 249.95,-46.5 289.82,-46.5"/>
<polygon fill="orange" stroke="orange" points="156.13,-43 146.13,-46.5 156.13,-50 156.13,-43"/>
</a>
</g>
<text text-anchor="middle" x="217.5" y="-49.5" font-family="FreeSans" font-size="10.00" fill="grey"> &lt; Point &gt;</text>
</g>
<!-- Node4 -->
<g id="Node000004" class="node">
<title>Node4</title>
<g id="a_Node000004"><a xlink:href="structDGtal_1_1Splitter.html" target="_top" xlink:title=" ">
<polygon fill="white" stroke="#666666" points="419.5,-19 293.5,-19 293.5,0 419.5,0 419.5,-19"/>
<text text-anchor="middle" x="356.5" y="-7" font-family="FreeSans" font-size="10.00">DGtal::Splitter&lt; Key &gt;</text>
</a>
</g>
</g>
<!-- Node1&#45;&gt;Node4 -->
<g id="edge3_Node000001_Node000004" class="edge">
<title>Node1&#45;&gt;Node4</title>
<g id="a_edge3_Node000001_Node000004"><a xlink:title=" ">
<path fill="none" stroke="orange" stroke-dasharray="5,2" d="M156.28,-32.61C158.88,-32.23 161.46,-31.86 164,-31.5 207.08,-25.44 255.79,-19.86 293.3,-15.84"/>
<polygon fill="orange" stroke="orange" points="155.53,-29.19 146.16,-34.14 156.57,-36.11 155.53,-29.19"/>
</a>
</g>
<text text-anchor="middle" x="217.5" y="-34.5" font-family="FreeSans" font-size="10.00" fill="grey"> &lt; Key &gt;</text>
</g>
</g>
</svg>
