<?xml version="1.0" encoding="UTF-8" standalone="no"?>
<!DOCTYPE svg PUBLIC "-//W3C//DTD SVG 1.1//EN"
 "http://www.w3.org/Graphics/SVG/1.1/DTD/svg11.dtd">
<!-- Generated by graphviz version 2.43.0 (0)
 -->
<!-- Title: testBasicFunctors.cpp Pages: 1 -->
<svg width="2503pt" height="375pt"
 viewBox="0.00 0.00 2503.48 375.00" xmlns="http://www.w3.org/2000/svg" xmlns:xlink="http://www.w3.org/1999/xlink">
<g id="graph0" class="graph" transform="scale(1 1) rotate(0) translate(4 371)">
<title>testBasicFunctors.cpp</title>
<polygon fill="white" stroke="transparent" points="-4,4 -4,-371 2499.48,-371 2499.48,4 -4,4"/>
<!-- Node1 -->
<g id="node1" class="node">
<title>Node1</title>
<g id="a_node1"><a xlink:title=" ">
<polygon fill="#bfbfbf" stroke="black" points="2181.96,-347.5 2181.96,-366.5 2304.96,-366.5 2304.96,-347.5 2181.96,-347.5"/>
<text text-anchor="middle" x="2243.46" y="-354.5" font-family="FreeSans" font-size="10.00">testBasicFunctors.cpp</text>
</a>
</g>
</g>
<!-- Node2 -->
<g id="node2" class="node">
<title>Node2</title>
<g id="a_node2"><a xlink:title=" ">
<polygon fill="white" stroke="#bfbfbf" points="1280.46,-0.5 1280.46,-19.5 1340.46,-19.5 1340.46,-0.5 1280.46,-0.5"/>
<text text-anchor="middle" x="1310.46" y="-7.5" font-family="FreeSans" font-size="10.00">iostream</text>
</a>
</g>
</g>
<!-- Node1&#45;&gt;Node2 -->
<g id="edge1" class="edge">
<title>Node1&#45;&gt;Node2</title>
<path fill="none" stroke="midnightblue" d="M2181.85,-350.36C2118.63,-340.78 2029.46,-315.03 2029.46,-246 2029.46,-246 2029.46,-246 2029.46,-182.5 2029.46,-126.07 2079.12,-97.11 2040.46,-56 2016.68,-30.71 1500.53,-15.78 1350.82,-11.97"/>
<polygon fill="midnightblue" stroke="midnightblue" points="1350.77,-8.47 1340.69,-11.72 1350.6,-15.47 1350.77,-8.47"/>
</g>
<!-- Node3 -->
<g id="node3" class="node">
<title>Node3</title>
<g id="a_node3"><a xlink:title=" ">
<polygon fill="white" stroke="#bfbfbf" points="2333.96,-112.5 2333.96,-131.5 2380.96,-131.5 2380.96,-112.5 2333.96,-112.5"/>
<text text-anchor="middle" x="2357.46" y="-119.5" font-family="FreeSans" font-size="10.00">cmath</text>
</a>
</g>
</g>
<!-- Node1&#45;&gt;Node3 -->
<g id="edge2" class="edge">
<title>Node1&#45;&gt;Node3</title>
<path fill="none" stroke="midnightblue" d="M2257.71,-347.21C2290.05,-326.31 2368.44,-270.04 2397.46,-199 2402.67,-186.25 2402.36,-180.88 2397.46,-168 2393.13,-156.6 2384.43,-146.24 2376.25,-138.34"/>
<polygon fill="midnightblue" stroke="midnightblue" points="2378.5,-135.66 2368.73,-131.57 2373.82,-140.86 2378.5,-135.66"/>
</g>
<!-- Node4 -->
<g id="node4" class="node">
<title>Node4</title>
<g id="a_node4"><a xlink:title=" ">
<polygon fill="white" stroke="#bfbfbf" points="2398.96,-112.5 2398.96,-131.5 2463.96,-131.5 2463.96,-112.5 2398.96,-112.5"/>
<text text-anchor="middle" x="2431.46" y="-119.5" font-family="FreeSans" font-size="10.00">functional</text>
</a>
</g>
</g>
<!-- Node1&#45;&gt;Node4 -->
<g id="edge3" class="edge">
<title>Node1&#45;&gt;Node4</title>
<path fill="none" stroke="midnightblue" d="M2265.56,-347.43C2284.36,-339.55 2311.58,-326.72 2332.46,-311 2359.6,-290.57 2365.12,-282.92 2384.46,-255 2400.31,-232.13 2402.81,-225.1 2412.46,-199 2419.53,-179.91 2424.82,-157.16 2428.01,-141.56"/>
<polygon fill="midnightblue" stroke="midnightblue" points="2431.47,-142.1 2429.95,-131.62 2424.6,-140.76 2431.47,-142.1"/>
</g>
<!-- Node5 -->
<g id="node5" class="node">
<title>Node5</title>
<g id="a_node5"><a xlink:href="Common_8h_source.html" target="_top" xlink:title=" ">
<polygon fill="white" stroke="black" points="1623.96,-235.5 1623.96,-254.5 1750.96,-254.5 1750.96,-235.5 1623.96,-235.5"/>
<text text-anchor="middle" x="1687.46" y="-242.5" font-family="FreeSans" font-size="10.00">DGtal/base/Common.h</text>
</a>
</g>
</g>
<!-- Node1&#45;&gt;Node5 -->
<g id="edge4" class="edge">
<title>Node1&#45;&gt;Node5</title>
<path fill="none" stroke="midnightblue" d="M2200.18,-347.47C2154.31,-338.42 2079.78,-323.72 2015.46,-311 1918.43,-291.81 1805.26,-269.37 1740.42,-256.51"/>
<polygon fill="midnightblue" stroke="midnightblue" points="1740.93,-253.04 1730.44,-254.53 1739.57,-259.91 1740.93,-253.04"/>
</g>
<!-- Node34 -->
<g id="node34" class="node">
<title>Node34</title>
<g id="a_node34"><a xlink:href="BasicFunctors_8h_source.html" target="_top" xlink:title=" ">
<polygon fill="white" stroke="black" points="2221.46,-174 2221.46,-193 2371.46,-193 2371.46,-174 2221.46,-174"/>
<text text-anchor="middle" x="2296.46" y="-181" font-family="FreeSans" font-size="10.00">DGtal/base/BasicFunctors.h</text>
</a>
</g>
</g>
<!-- Node1&#45;&gt;Node34 -->
<g id="edge80" class="edge">
<title>Node1&#45;&gt;Node34</title>
<path fill="none" stroke="midnightblue" d="M2246.16,-347.26C2254.42,-320.54 2279.46,-239.52 2290.79,-202.86"/>
<polygon fill="midnightblue" stroke="midnightblue" points="2294.22,-203.61 2293.83,-193.02 2287.53,-201.54 2294.22,-203.61"/>
</g>
<!-- Node44 -->
<g id="node44" class="node">
<title>Node44</title>
<g id="a_node44"><a xlink:href="CUnaryFunctor_8h_source.html" target="_top" xlink:title=" ">
<polygon fill="white" stroke="black" points="2085.46,-291.5 2085.46,-310.5 2239.46,-310.5 2239.46,-291.5 2085.46,-291.5"/>
<text text-anchor="middle" x="2162.46" y="-298.5" font-family="FreeSans" font-size="10.00">DGtal/base/CUnaryFunctor.h</text>
</a>
</g>
</g>
<!-- Node1&#45;&gt;Node44 -->
<g id="edge76" class="edge">
<title>Node1&#45;&gt;Node44</title>
<path fill="none" stroke="midnightblue" d="M2230.45,-347.32C2217.93,-338.98 2198.78,-326.21 2183.99,-316.35"/>
<polygon fill="midnightblue" stroke="midnightblue" points="2185.71,-313.29 2175.44,-310.65 2181.82,-319.11 2185.71,-313.29"/>
</g>
<!-- Node5&#45;&gt;Node2 -->
<g id="edge5" class="edge">
<title>Node5&#45;&gt;Node2</title>
<path fill="none" stroke="midnightblue" d="M1750.98,-239.92C1817.03,-233.12 1906.39,-215.13 1872.46,-168 1797.16,-63.41 1714.76,-129.41 1597.46,-76 1581.51,-68.73 1579.91,-62.08 1563.46,-56 1491.38,-29.37 1401.76,-18.2 1350.84,-13.75"/>
<polygon fill="midnightblue" stroke="midnightblue" points="1350.83,-10.23 1340.58,-12.89 1350.25,-17.21 1350.83,-10.23"/>
</g>
<!-- Node5&#45;&gt;Node3 -->
<g id="edge15" class="edge">
<title>Node5&#45;&gt;Node3</title>
<path fill="none" stroke="midnightblue" d="M1750.99,-244.7C1914.12,-245.84 2337.95,-244.36 2380.46,-199 2395.57,-182.87 2382.74,-157.14 2371.03,-140.16"/>
<polygon fill="midnightblue" stroke="midnightblue" points="2373.58,-137.71 2364.83,-131.74 2367.95,-141.87 2373.58,-137.71"/>
</g>
<!-- Node6 -->
<g id="node6" class="node">
<title>Node6</title>
<g id="a_node6"><a xlink:title=" ">
<polygon fill="white" stroke="#bfbfbf" points="568.96,-174 568.96,-193 633.96,-193 633.96,-174 568.96,-174"/>
<text text-anchor="middle" x="601.46" y="-181" font-family="FreeSans" font-size="10.00">exception</text>
</a>
</g>
</g>
<!-- Node5&#45;&gt;Node6 -->
<g id="edge6" class="edge">
<title>Node5&#45;&gt;Node6</title>
<path fill="none" stroke="midnightblue" d="M1623.68,-243.66C1427.17,-242.23 832.83,-234.98 643.46,-199 639.76,-198.3 635.94,-197.33 632.18,-196.23"/>
<polygon fill="midnightblue" stroke="midnightblue" points="633.1,-192.85 622.5,-193.1 630.94,-199.51 633.1,-192.85"/>
</g>
<!-- Node7 -->
<g id="node7" class="node">
<title>Node7</title>
<g id="a_node7"><a xlink:title=" ">
<polygon fill="white" stroke="#bfbfbf" points="1967.46,-56.5 1967.46,-75.5 2031.46,-75.5 2031.46,-56.5 1967.46,-56.5"/>
<text text-anchor="middle" x="1999.46" y="-63.5" font-family="FreeSans" font-size="10.00">algorithm</text>
</a>
</g>
</g>
<!-- Node5&#45;&gt;Node7 -->
<g id="edge7" class="edge">
<title>Node5&#45;&gt;Node7</title>
<path fill="none" stroke="midnightblue" d="M1751.01,-239.9C1817.51,-234.41 1916.24,-222.52 1945.46,-199 1980.88,-170.5 1993.27,-114.97 1997.45,-85.85"/>
<polygon fill="midnightblue" stroke="midnightblue" points="2000.94,-86.13 1998.71,-75.78 1993.99,-85.26 2000.94,-86.13"/>
</g>
<!-- Node8 -->
<g id="node8" class="node">
<title>Node8</title>
<g id="a_node8"><a xlink:title=" ">
<polygon fill="white" stroke="#bfbfbf" points="652.46,-174 652.46,-193 756.46,-193 756.46,-174 652.46,-174"/>
<text text-anchor="middle" x="704.46" y="-181" font-family="FreeSans" font-size="10.00">boost/version.hpp</text>
</a>
</g>
</g>
<!-- Node5&#45;&gt;Node8 -->
<g id="edge8" class="edge">
<title>Node5&#45;&gt;Node8</title>
<path fill="none" stroke="midnightblue" d="M1623.71,-242.42C1443.32,-237.71 931.67,-222.6 765.46,-199 759.03,-198.09 752.27,-196.81 745.7,-195.39"/>
<polygon fill="midnightblue" stroke="midnightblue" points="746.13,-191.9 735.6,-193.07 744.56,-198.72 746.13,-191.9"/>
</g>
<!-- Node9 -->
<g id="node9" class="node">
<title>Node9</title>
<g id="a_node9"><a xlink:title=" ">
<polygon fill="white" stroke="#bfbfbf" points="774.46,-174 774.46,-193 914.46,-193 914.46,-174 774.46,-174"/>
<text text-anchor="middle" x="844.46" y="-181" font-family="FreeSans" font-size="10.00">boost/concept_check.hpp</text>
</a>
</g>
</g>
<!-- Node5&#45;&gt;Node9 -->
<g id="edge9" class="edge">
<title>Node5&#45;&gt;Node9</title>
<path fill="none" stroke="midnightblue" d="M1623.84,-242.89C1492.5,-240.01 1182.01,-230.22 923.46,-199 914.41,-197.91 904.84,-196.43 895.59,-194.83"/>
<polygon fill="midnightblue" stroke="midnightblue" points="896.19,-191.38 885.73,-193.06 894.95,-198.27 896.19,-191.38"/>
</g>
<!-- Node10 -->
<g id="node10" class="node">
<title>Node10</title>
<g id="a_node10"><a xlink:title=" ">
<polygon fill="white" stroke="#bfbfbf" points="932.46,-174 932.46,-193 1062.46,-193 1062.46,-174 932.46,-174"/>
<text text-anchor="middle" x="997.46" y="-181" font-family="FreeSans" font-size="10.00">boost/static_assert.hpp</text>
</a>
</g>
</g>
<!-- Node5&#45;&gt;Node10 -->
<g id="edge10" class="edge">
<title>Node5&#45;&gt;Node10</title>
<path fill="none" stroke="midnightblue" d="M1623.8,-241.88C1511.73,-237.59 1272.07,-225.88 1071.46,-199 1063.34,-197.91 1054.78,-196.49 1046.46,-194.96"/>
<polygon fill="midnightblue" stroke="midnightblue" points="1046.97,-191.5 1036.49,-193.06 1045.66,-198.37 1046.97,-191.5"/>
</g>
<!-- Node11 -->
<g id="node11" class="node">
<title>Node11</title>
<g id="a_node11"><a xlink:title=" ">
<polygon fill="white" stroke="#bfbfbf" points="1080.96,-174 1080.96,-193 1219.96,-193 1219.96,-174 1080.96,-174"/>
<text text-anchor="middle" x="1150.46" y="-181" font-family="FreeSans" font-size="10.00">boost/concept/assert.hpp</text>
</a>
</g>
</g>
<!-- Node5&#45;&gt;Node11 -->
<g id="edge11" class="edge">
<title>Node5&#45;&gt;Node11</title>
<path fill="none" stroke="midnightblue" d="M1623.77,-239.5C1534.96,-232.82 1368.98,-218.91 1228.46,-199 1220.13,-197.82 1211.33,-196.38 1202.77,-194.86"/>
<polygon fill="midnightblue" stroke="midnightblue" points="1203.32,-191.41 1192.86,-193.07 1202.07,-198.3 1203.32,-191.41"/>
</g>
<!-- Node12 -->
<g id="node12" class="node">
<title>Node12</title>
<g id="a_node12"><a xlink:title=" ">
<polygon fill="white" stroke="#bfbfbf" points="1237.96,-174 1237.96,-193 1386.96,-193 1386.96,-174 1237.96,-174"/>
<text text-anchor="middle" x="1312.46" y="-181" font-family="FreeSans" font-size="10.00">boost/concept/requires.hpp</text>
</a>
</g>
</g>
<!-- Node5&#45;&gt;Node12 -->
<g id="edge12" class="edge">
<title>Node5&#45;&gt;Node12</title>
<path fill="none" stroke="midnightblue" d="M1630.54,-235.5C1571.84,-226.66 1477.69,-212.29 1396.46,-199 1388.17,-197.64 1379.42,-196.17 1370.83,-194.71"/>
<polygon fill="midnightblue" stroke="midnightblue" points="1371.3,-191.24 1360.86,-193 1370.12,-198.14 1371.3,-191.24"/>
</g>
<!-- Node13 -->
<g id="node13" class="node">
<title>Node13</title>
<g id="a_node13"><a xlink:title=" ">
<polygon fill="white" stroke="#bfbfbf" points="1405.46,-168.5 1405.46,-198.5 1527.46,-198.5 1527.46,-168.5 1405.46,-168.5"/>
<text text-anchor="start" x="1413.46" y="-186.5" font-family="FreeSans" font-size="10.00">boost/iterator/iterator</text>
<text text-anchor="middle" x="1466.46" y="-175.5" font-family="FreeSans" font-size="10.00">_concepts.hpp</text>
</a>
</g>
</g>
<!-- Node5&#45;&gt;Node13 -->
<g id="edge13" class="edge">
<title>Node5&#45;&gt;Node13</title>
<path fill="none" stroke="midnightblue" d="M1655.8,-235.48C1622.65,-226.55 1569.75,-212.31 1528.28,-201.14"/>
<polygon fill="midnightblue" stroke="midnightblue" points="1529.11,-197.74 1518.55,-198.52 1527.29,-204.5 1529.11,-197.74"/>
</g>
<!-- Node14 -->
<g id="node14" class="node">
<title>Node14</title>
<g id="a_node14"><a xlink:title=" ">
<polygon fill="white" stroke="#bfbfbf" points="1545.46,-174 1545.46,-193 1705.46,-193 1705.46,-174 1545.46,-174"/>
<text text-anchor="middle" x="1625.46" y="-181" font-family="FreeSans" font-size="10.00">boost/concept_archetype.hpp</text>
</a>
</g>
</g>
<!-- Node5&#45;&gt;Node14 -->
<g id="edge14" class="edge">
<title>Node5&#45;&gt;Node14</title>
<path fill="none" stroke="midnightblue" d="M1678.58,-235.48C1669,-226.28 1653.55,-211.46 1641.78,-200.16"/>
<polygon fill="midnightblue" stroke="midnightblue" points="1643.97,-197.41 1634.33,-193.01 1639.12,-202.46 1643.97,-197.41"/>
</g>
<!-- Node15 -->
<g id="node15" class="node">
<title>Node15</title>
<g id="a_node15"><a xlink:title=" ">
<polygon fill="white" stroke="#bfbfbf" points="1723.46,-174 1723.46,-193 1773.46,-193 1773.46,-174 1723.46,-174"/>
<text text-anchor="middle" x="1748.46" y="-181" font-family="FreeSans" font-size="10.00">stdio.h</text>
</a>
</g>
</g>
<!-- Node5&#45;&gt;Node15 -->
<g id="edge16" class="edge">
<title>Node5&#45;&gt;Node15</title>
<path fill="none" stroke="midnightblue" d="M1696.2,-235.48C1705.62,-226.28 1720.83,-211.46 1732.41,-200.16"/>
<polygon fill="midnightblue" stroke="midnightblue" points="1735.02,-202.5 1739.74,-193.01 1730.14,-197.49 1735.02,-202.5"/>
</g>
<!-- Node16 -->
<g id="node16" class="node">
<title>Node16</title>
<g id="a_node16"><a xlink:href="Config_8h_source.html" target="_top" xlink:title=" ">
<polygon fill="white" stroke="black" points="486.96,-56.5 486.96,-75.5 599.96,-75.5 599.96,-56.5 486.96,-56.5"/>
<text text-anchor="middle" x="543.46" y="-63.5" font-family="FreeSans" font-size="10.00">DGtal/base/Config.h</text>
</a>
</g>
</g>
<!-- Node5&#45;&gt;Node16 -->
<g id="edge17" class="edge">
<title>Node5&#45;&gt;Node16</title>
<path fill="none" stroke="midnightblue" d="M1623.6,-244.21C1369.06,-244.73 438.51,-243.57 395.46,-199 350,-151.92 453.65,-101.98 510.04,-79.38"/>
<polygon fill="midnightblue" stroke="midnightblue" points="511.61,-82.53 519.64,-75.62 509.06,-76.01 511.61,-82.53"/>
</g>
<!-- Node18 -->
<g id="node18" class="node">
<title>Node18</title>
<g id="a_node18"><a xlink:href="Trace_8h_source.html" target="_top" xlink:title=" ">
<polygon fill="white" stroke="black" points="404.46,-174 404.46,-193 512.46,-193 512.46,-174 404.46,-174"/>
<text text-anchor="middle" x="458.46" y="-181" font-family="FreeSans" font-size="10.00">DGtal/base/Trace.h</text>
</a>
</g>
</g>
<!-- Node5&#45;&gt;Node18 -->
<g id="edge20" class="edge">
<title>Node5&#45;&gt;Node18</title>
<path fill="none" stroke="midnightblue" d="M1623.85,-242.97C1413.5,-239.34 741.5,-225.89 526.46,-199 518.8,-198.04 510.72,-196.66 502.91,-195.12"/>
<polygon fill="midnightblue" stroke="midnightblue" points="503.36,-191.64 492.86,-193.03 501.94,-198.49 503.36,-191.64"/>
</g>
<!-- Node25 -->
<g id="node25" class="node">
<title>Node25</title>
<g id="a_node25"><a xlink:href="TraceWriterTerm_8h_source.html" target="_top" xlink:title=" ">
<polygon fill="white" stroke="black" points="230.46,-112.5 230.46,-131.5 392.46,-131.5 392.46,-112.5 230.46,-112.5"/>
<text text-anchor="middle" x="311.46" y="-119.5" font-family="FreeSans" font-size="10.00">DGtal/base/TraceWriterTerm.h</text>
</a>
</g>
</g>
<!-- Node5&#45;&gt;Node25 -->
<g id="edge43" class="edge">
<title>Node5&#45;&gt;Node25</title>
<path fill="none" stroke="midnightblue" d="M1623.92,-243.45C1367.27,-241 418.12,-229.9 362.46,-199 339.93,-186.49 325.48,-159.33 317.91,-141.1"/>
<polygon fill="midnightblue" stroke="midnightblue" points="321.11,-139.65 314.25,-131.58 314.58,-142.17 321.11,-139.65"/>
</g>
<!-- Node26 -->
<g id="node26" class="node">
<title>Node26</title>
<g id="a_node26"><a xlink:href="Assert_8h_source.html" target="_top" xlink:title=" ">
<polygon fill="white" stroke="black" points="882.96,-112.5 882.96,-131.5 995.96,-131.5 995.96,-112.5 882.96,-112.5"/>
<text text-anchor="middle" x="939.46" y="-119.5" font-family="FreeSans" font-size="10.00">DGtal/base/Assert.h</text>
</a>
</g>
</g>
<!-- Node5&#45;&gt;Node26 -->
<g id="edge48" class="edge">
<title>Node5&#45;&gt;Node26</title>
<path fill="none" stroke="midnightblue" d="M1623.93,-243.87C1391.15,-243.08 596.53,-237.58 559.46,-199 549.92,-189.07 550.3,-178.29 559.46,-168 605.43,-116.37 799.84,-140.35 868.46,-132 869.93,-131.82 871.41,-131.64 872.9,-131.46"/>
<polygon fill="midnightblue" stroke="midnightblue" points="873.39,-134.92 882.89,-130.22 872.53,-127.98 873.39,-134.92"/>
</g>
<!-- Node29 -->
<g id="node29" class="node">
<title>Node29</title>
<g id="a_node29"><a xlink:href="TraceWriterFile_8h_source.html" target="_top" xlink:title=" ">
<polygon fill="white" stroke="black" points="18.96,-112.5 18.96,-131.5 173.96,-131.5 173.96,-112.5 18.96,-112.5"/>
<text text-anchor="middle" x="96.46" y="-119.5" font-family="FreeSans" font-size="10.00">DGtal/base/TraceWriterFile.h</text>
</a>
</g>
</g>
<!-- Node5&#45;&gt;Node29 -->
<g id="edge44" class="edge">
<title>Node5&#45;&gt;Node29</title>
<path fill="none" stroke="midnightblue" d="M1623.72,-244.26C1390.33,-244.86 582.84,-243.59 329.46,-199 253.85,-185.69 169.07,-153.39 125.61,-135.48"/>
<polygon fill="midnightblue" stroke="midnightblue" points="126.81,-132.18 116.23,-131.57 124.12,-138.64 126.81,-132.18"/>
</g>
<!-- Node30 -->
<g id="node30" class="node">
<title>Node30</title>
<g id="a_node30"><a xlink:href="ConceptUtils_8h_source.html" target="_top" xlink:title=" ">
<polygon fill="white" stroke="black" points="2057.96,-174 2057.96,-193 2202.96,-193 2202.96,-174 2057.96,-174"/>
<text text-anchor="middle" x="2130.46" y="-181" font-family="FreeSans" font-size="10.00">DGtal/base/ConceptUtils.h</text>
</a>
</g>
</g>
<!-- Node5&#45;&gt;Node30 -->
<g id="edge49" class="edge">
<title>Node5&#45;&gt;Node30</title>
<path fill="none" stroke="midnightblue" d="M1750.93,-235.48C1831.86,-224.61 1971.5,-205.85 2056.96,-194.37"/>
<polygon fill="midnightblue" stroke="midnightblue" points="2057.66,-197.81 2067.11,-193.01 2056.73,-190.87 2057.66,-197.81"/>
</g>
<!-- Node31 -->
<g id="node31" class="node">
<title>Node31</title>
<g id="a_node31"><a xlink:href="BasicTypes_8h_source.html" target="_top" xlink:title=" ">
<polygon fill="white" stroke="black" points="1456.96,-112.5 1456.96,-131.5 1593.96,-131.5 1593.96,-112.5 1456.96,-112.5"/>
<text text-anchor="middle" x="1525.46" y="-119.5" font-family="FreeSans" font-size="10.00">DGtal/base/BasicTypes.h</text>
</a>
</g>
</g>
<!-- Node5&#45;&gt;Node31 -->
<g id="edge51" class="edge">
<title>Node5&#45;&gt;Node31</title>
<path fill="none" stroke="midnightblue" d="M1750.99,-236.57C1811.07,-227.04 1887.37,-206.88 1853.46,-168 1837.3,-149.47 1696.25,-135.61 1604.45,-128.45"/>
<polygon fill="midnightblue" stroke="midnightblue" points="1604.58,-124.95 1594.34,-127.68 1604.05,-131.93 1604.58,-124.95"/>
</g>
<!-- Node5&#45;&gt;Node34 -->
<g id="edge56" class="edge">
<title>Node5&#45;&gt;Node34</title>
<path fill="none" stroke="midnightblue" d="M1750.97,-239.94C1848.55,-233.63 2040.83,-219.97 2203.46,-199 2212.83,-197.79 2222.75,-196.29 2232.5,-194.7"/>
<polygon fill="midnightblue" stroke="midnightblue" points="2233.28,-198.12 2242.57,-193.04 2232.14,-191.22 2233.28,-198.12"/>
</g>
<!-- Node42 -->
<g id="node42" class="node">
<title>Node42</title>
<g id="a_node42"><a xlink:href="BasicArchetypes_8h_source.html" target="_top" xlink:title=" ">
<polygon fill="white" stroke="black" points="1120.46,-112.5 1120.46,-131.5 1284.46,-131.5 1284.46,-112.5 1120.46,-112.5"/>
<text text-anchor="middle" x="1202.46" y="-119.5" font-family="FreeSans" font-size="10.00">DGtal/base/BasicArchetypes.h</text>
</a>
</g>
</g>
<!-- Node5&#45;&gt;Node42 -->
<g id="edge72" class="edge">
<title>Node5&#45;&gt;Node42</title>
<path fill="none" stroke="midnightblue" d="M1728.51,-235.38C1748.42,-228.92 1770.56,-217.81 1782.46,-199 1789.83,-187.36 1791.84,-178.09 1782.46,-168 1747.01,-129.84 1381.99,-136.02 1294.97,-131.88"/>
<polygon fill="midnightblue" stroke="midnightblue" points="1294.99,-128.37 1284.79,-131.24 1294.55,-135.36 1294.99,-128.37"/>
</g>
<!-- Node43 -->
<g id="node43" class="node">
<title>Node43</title>
<g id="a_node43"><a xlink:href="Exceptions_8h_source.html" target="_top" xlink:title=" ">
<polygon fill="white" stroke="black" points="1302.46,-112.5 1302.46,-131.5 1438.46,-131.5 1438.46,-112.5 1302.46,-112.5"/>
<text text-anchor="middle" x="1370.46" y="-119.5" font-family="FreeSans" font-size="10.00">DGtal/base/Exceptions.h</text>
</a>
</g>
</g>
<!-- Node5&#45;&gt;Node43 -->
<g id="edge74" class="edge">
<title>Node5&#45;&gt;Node43</title>
<path fill="none" stroke="midnightblue" d="M1729.41,-235.46C1777.28,-223.92 1845.33,-200.93 1815.46,-168 1789.37,-139.23 1520.26,-136.6 1448.81,-131.87"/>
<polygon fill="midnightblue" stroke="midnightblue" points="1448.73,-128.35 1438.48,-131.02 1448.16,-135.33 1448.73,-128.35"/>
</g>
<!-- Node16&#45;&gt;Node2 -->
<g id="edge18" class="edge">
<title>Node16&#45;&gt;Node2</title>
<path fill="none" stroke="midnightblue" d="M600.25,-60.76C620.8,-59.24 644.17,-57.53 665.46,-56 894.17,-39.59 1168.56,-20.72 1270.11,-13.76"/>
<polygon fill="midnightblue" stroke="midnightblue" points="1270.5,-17.24 1280.24,-13.07 1270.02,-10.26 1270.5,-17.24"/>
</g>
<!-- Node17 -->
<g id="node17" class="node">
<title>Node17</title>
<g id="a_node17"><a xlink:title=" ">
<polygon fill="white" stroke="#bfbfbf" points="436.46,-0.5 436.46,-19.5 480.46,-19.5 480.46,-0.5 436.46,-0.5"/>
<text text-anchor="middle" x="458.46" y="-7.5" font-family="FreeSans" font-size="10.00">string</text>
</a>
</g>
</g>
<!-- Node16&#45;&gt;Node17 -->
<g id="edge19" class="edge">
<title>Node16&#45;&gt;Node17</title>
<path fill="none" stroke="midnightblue" d="M529.81,-56.32C516.55,-47.9 496.19,-34.97 480.62,-25.07"/>
<polygon fill="midnightblue" stroke="midnightblue" points="482.4,-22.06 472.09,-19.65 478.65,-27.97 482.4,-22.06"/>
</g>
<!-- Node18&#45;&gt;Node2 -->
<g id="edge21" class="edge">
<title>Node18&#45;&gt;Node2</title>
<path fill="none" stroke="midnightblue" d="M509.34,-173.98C522.1,-171.94 535.77,-169.82 548.46,-168 675.72,-149.77 719.99,-188.51 835.46,-132 878.37,-111 868.43,-76.73 911.46,-56 974.15,-25.81 1181.71,-15.34 1270.07,-12.19"/>
<polygon fill="midnightblue" stroke="midnightblue" points="1270.36,-15.68 1280.24,-11.84 1270.12,-8.69 1270.36,-15.68"/>
</g>
<!-- Node18&#45;&gt;Node16 -->
<g id="edge25" class="edge">
<title>Node18&#45;&gt;Node16</title>
<path fill="none" stroke="midnightblue" d="M483.23,-173.92C501.81,-166.08 526.09,-152.54 538.46,-132 546.77,-118.22 547.39,-99.69 546.3,-85.95"/>
<polygon fill="midnightblue" stroke="midnightblue" points="549.75,-85.26 545.12,-75.73 542.79,-86.07 549.75,-85.26"/>
</g>
<!-- Node18&#45;&gt;Node17 -->
<g id="edge23" class="edge">
<title>Node18&#45;&gt;Node17</title>
<path fill="none" stroke="midnightblue" d="M458.46,-173.76C458.46,-147.15 458.46,-66.71 458.46,-29.84"/>
<polygon fill="midnightblue" stroke="midnightblue" points="461.96,-29.52 458.46,-19.52 454.96,-29.52 461.96,-29.52"/>
</g>
<!-- Node19 -->
<g id="node19" class="node">
<title>Node19</title>
<g id="a_node19"><a xlink:title=" ">
<polygon fill="white" stroke="#bfbfbf" points="81.96,-0.5 81.96,-19.5 138.96,-19.5 138.96,-0.5 81.96,-0.5"/>
<text text-anchor="middle" x="110.46" y="-7.5" font-family="FreeSans" font-size="10.00">ostream</text>
</a>
</g>
</g>
<!-- Node18&#45;&gt;Node19 -->
<g id="edge22" class="edge">
<title>Node18&#45;&gt;Node19</title>
<path fill="none" stroke="midnightblue" d="M404.18,-180.38C290.43,-175.36 35.37,-160.99 9.46,-132 -24.55,-93.94 44.63,-47.1 84.68,-24.48"/>
<polygon fill="midnightblue" stroke="midnightblue" points="86.61,-27.42 93.68,-19.53 83.23,-21.28 86.61,-27.42"/>
</g>
<!-- Node20 -->
<g id="node20" class="node">
<title>Node20</title>
<g id="a_node20"><a xlink:title=" ">
<polygon fill="white" stroke="#bfbfbf" points="486.96,-112.5 486.96,-131.5 529.96,-131.5 529.96,-112.5 486.96,-112.5"/>
<text text-anchor="middle" x="508.46" y="-119.5" font-family="FreeSans" font-size="10.00">stack</text>
</a>
</g>
</g>
<!-- Node18&#45;&gt;Node20 -->
<g id="edge24" class="edge">
<title>Node18&#45;&gt;Node20</title>
<path fill="none" stroke="midnightblue" d="M465.63,-173.98C473.2,-164.96 485.33,-150.52 494.76,-139.31"/>
<polygon fill="midnightblue" stroke="midnightblue" points="497.56,-141.42 501.31,-131.51 492.2,-136.91 497.56,-141.42"/>
</g>
<!-- Node21 -->
<g id="node21" class="node">
<title>Node21</title>
<g id="a_node21"><a xlink:href="Clock_8h_source.html" target="_top" xlink:title=" ">
<polygon fill="white" stroke="black" points="716.46,-112.5 716.46,-131.5 826.46,-131.5 826.46,-112.5 716.46,-112.5"/>
<text text-anchor="middle" x="771.46" y="-119.5" font-family="FreeSans" font-size="10.00">DGtal/base/Clock.h</text>
</a>
</g>
</g>
<!-- Node18&#45;&gt;Node21 -->
<g id="edge26" class="edge">
<title>Node18&#45;&gt;Node21</title>
<path fill="none" stroke="midnightblue" d="M497.62,-173.95C507.05,-171.95 517.11,-169.86 526.46,-168 589.96,-155.4 662.96,-142.15 712.65,-133.32"/>
<polygon fill="midnightblue" stroke="midnightblue" points="713.34,-136.75 722.58,-131.56 712.12,-129.86 713.34,-136.75"/>
</g>
<!-- Node24 -->
<g id="node24" class="node">
<title>Node24</title>
<g id="a_node24"><a xlink:href="TraceWriter_8h_source.html" target="_top" xlink:title=" ">
<polygon fill="white" stroke="black" points="162.96,-56.5 162.96,-75.5 299.96,-75.5 299.96,-56.5 162.96,-56.5"/>
<text text-anchor="middle" x="231.46" y="-63.5" font-family="FreeSans" font-size="10.00">DGtal/base/TraceWriter.h</text>
</a>
</g>
</g>
<!-- Node18&#45;&gt;Node24 -->
<g id="edge30" class="edge">
<title>Node18&#45;&gt;Node24</title>
<path fill="none" stroke="midnightblue" d="M404.36,-178.69C341.66,-173.02 244.03,-159.88 221.46,-132 210.83,-118.86 215.84,-99.18 221.96,-84.91"/>
<polygon fill="midnightblue" stroke="midnightblue" points="225.23,-86.19 226.4,-75.66 218.92,-83.16 225.23,-86.19"/>
</g>
<!-- Node18&#45;&gt;Node25 -->
<g id="edge33" class="edge">
<title>Node18&#45;&gt;Node25</title>
<path fill="none" stroke="midnightblue" d="M437.4,-173.98C412.4,-163.86 370.52,-146.9 341.98,-135.35"/>
<polygon fill="midnightblue" stroke="midnightblue" points="343.07,-132.02 332.49,-131.51 340.44,-138.51 343.07,-132.02"/>
</g>
<!-- Node18&#45;&gt;Node26 -->
<g id="edge38" class="edge">
<title>Node18&#45;&gt;Node26</title>
<path fill="none" stroke="midnightblue" d="M486.37,-173.96C496.17,-171.8 507.21,-169.63 517.46,-168 668.41,-144.03 707.64,-149.61 859.46,-132 863.82,-131.5 868.32,-130.96 872.87,-130.41"/>
<polygon fill="midnightblue" stroke="midnightblue" points="873.36,-133.87 882.86,-129.19 872.51,-126.93 873.36,-133.87"/>
</g>
<!-- Node28 -->
<g id="node28" class="node">
<title>Node28</title>
<g id="a_node28"><a xlink:href="Trace_8ih_source.html" target="_top" xlink:title=" ">
<polygon fill="white" stroke="black" points="586.96,-112.5 586.96,-131.5 697.96,-131.5 697.96,-112.5 586.96,-112.5"/>
<text text-anchor="middle" x="642.46" y="-119.5" font-family="FreeSans" font-size="10.00">DGtal/base/Trace.ih</text>
</a>
</g>
</g>
<!-- Node18&#45;&gt;Node28 -->
<g id="edge42" class="edge">
<title>Node18&#45;&gt;Node28</title>
<path fill="none" stroke="midnightblue" d="M484.83,-173.98C516.8,-163.64 570.84,-146.16 606.59,-134.6"/>
<polygon fill="midnightblue" stroke="midnightblue" points="607.71,-137.92 616.15,-131.51 605.56,-131.26 607.71,-137.92"/>
</g>
<!-- Node21&#45;&gt;Node2 -->
<g id="edge27" class="edge">
<title>Node21&#45;&gt;Node2</title>
<path fill="none" stroke="midnightblue" d="M777.52,-112.38C788.28,-97.84 812.28,-68.77 840.46,-56 916.73,-21.44 1170.61,-13.38 1270.04,-11.54"/>
<polygon fill="midnightblue" stroke="midnightblue" points="1270.34,-15.03 1280.28,-11.36 1270.22,-8.03 1270.34,-15.03"/>
</g>
<!-- Node22 -->
<g id="node22" class="node">
<title>Node22</title>
<g id="a_node22"><a xlink:title=" ">
<polygon fill="white" stroke="#bfbfbf" points="920.96,-56.5 920.96,-75.5 969.96,-75.5 969.96,-56.5 920.96,-56.5"/>
<text text-anchor="middle" x="945.46" y="-63.5" font-family="FreeSans" font-size="10.00">cstdlib</text>
</a>
</g>
</g>
<!-- Node21&#45;&gt;Node22 -->
<g id="edge28" class="edge">
<title>Node21&#45;&gt;Node22</title>
<path fill="none" stroke="midnightblue" d="M799.03,-112.44C829.43,-103.01 878.36,-87.82 911.2,-77.63"/>
<polygon fill="midnightblue" stroke="midnightblue" points="912.32,-80.95 920.83,-74.64 910.25,-74.26 912.32,-80.95"/>
</g>
<!-- Node23 -->
<g id="node23" class="node">
<title>Node23</title>
<g id="a_node23"><a xlink:href="Clock_8ih_source.html" target="_top" xlink:title=" ">
<polygon fill="white" stroke="black" points="674.96,-56.5 674.96,-75.5 787.96,-75.5 787.96,-56.5 674.96,-56.5"/>
<text text-anchor="middle" x="731.46" y="-63.5" font-family="FreeSans" font-size="10.00">DGtal/base/Clock.ih</text>
</a>
</g>
</g>
<!-- Node21&#45;&gt;Node23 -->
<g id="edge29" class="edge">
<title>Node21&#45;&gt;Node23</title>
<path fill="none" stroke="midnightblue" d="M764.86,-112.08C759.21,-104.46 750.92,-93.26 744.01,-83.94"/>
<polygon fill="midnightblue" stroke="midnightblue" points="746.71,-81.7 737.95,-75.75 741.08,-85.87 746.71,-81.7"/>
</g>
<!-- Node24&#45;&gt;Node2 -->
<g id="edge31" class="edge">
<title>Node24&#45;&gt;Node2</title>
<path fill="none" stroke="midnightblue" d="M300.04,-61.09C328.88,-59.47 362.8,-57.6 393.46,-56 732.52,-38.26 1142.22,-18.89 1270.26,-12.88"/>
<polygon fill="midnightblue" stroke="midnightblue" points="1270.55,-16.37 1280.38,-12.41 1270.23,-9.38 1270.55,-16.37"/>
</g>
<!-- Node24&#45;&gt;Node19 -->
<g id="edge32" class="edge">
<title>Node24&#45;&gt;Node19</title>
<path fill="none" stroke="midnightblue" d="M212.29,-56.44C192.55,-47.64 161.58,-33.81 138.97,-23.72"/>
<polygon fill="midnightblue" stroke="midnightblue" points="140.1,-20.4 129.55,-19.52 137.25,-26.79 140.1,-20.4"/>
</g>
<!-- Node25&#45;&gt;Node2 -->
<g id="edge34" class="edge">
<title>Node25&#45;&gt;Node2</title>
<path fill="none" stroke="midnightblue" d="M328.34,-112.29C357.73,-97.61 420.6,-68.33 477.46,-56 631.42,-22.61 1125.3,-13.47 1270.16,-11.48"/>
<polygon fill="midnightblue" stroke="midnightblue" points="1270.42,-14.98 1280.37,-11.34 1270.33,-7.98 1270.42,-14.98"/>
</g>
<!-- Node25&#45;&gt;Node16 -->
<g id="edge37" class="edge">
<title>Node25&#45;&gt;Node16</title>
<path fill="none" stroke="midnightblue" d="M348.22,-112.44C388.53,-103.06 453.27,-87.99 497.05,-77.8"/>
<polygon fill="midnightblue" stroke="midnightblue" points="497.93,-81.19 506.87,-75.52 496.34,-74.37 497.93,-81.19"/>
</g>
<!-- Node25&#45;&gt;Node17 -->
<g id="edge35" class="edge">
<title>Node25&#45;&gt;Node17</title>
<path fill="none" stroke="midnightblue" d="M321.91,-112.36C337.33,-99.7 367.19,-75.47 393.46,-56 407.66,-45.48 424.02,-34.16 436.77,-25.5"/>
<polygon fill="midnightblue" stroke="midnightblue" points="439.01,-28.22 445.34,-19.72 435.09,-22.41 439.01,-28.22"/>
</g>
<!-- Node25&#45;&gt;Node24 -->
<g id="edge36" class="edge">
<title>Node25&#45;&gt;Node24</title>
<path fill="none" stroke="midnightblue" d="M298.61,-112.32C286.25,-103.98 267.33,-91.21 252.73,-81.35"/>
<polygon fill="midnightblue" stroke="midnightblue" points="254.53,-78.35 244.28,-75.65 250.61,-84.15 254.53,-78.35"/>
</g>
<!-- Node26&#45;&gt;Node17 -->
<g id="edge41" class="edge">
<title>Node26&#45;&gt;Node17</title>
<path fill="none" stroke="midnightblue" d="M924.58,-112.45C899.19,-98.27 845.48,-70.07 796.46,-56 687.23,-24.65 551.75,-15.01 490.82,-12.15"/>
<polygon fill="midnightblue" stroke="midnightblue" points="490.81,-8.65 480.67,-11.71 490.51,-15.64 490.81,-8.65"/>
</g>
<!-- Node26&#45;&gt;Node18 -->
<g id="edge39" class="edge">
<title>Node26&#45;&gt;Node18</title>
<path fill="none" stroke="midnightblue" d="M882.71,-131.38C880.94,-131.59 879.19,-131.8 877.46,-132 725.64,-149.61 686.41,-144.03 535.46,-168 528.41,-169.12 520.99,-170.5 513.64,-171.95"/>
<polygon fill="midnightblue" stroke="midnightblue" points="512.8,-168.55 503.69,-173.96 514.19,-175.41 512.8,-168.55"/>
</g>
<!-- Node27 -->
<g id="node27" class="node">
<title>Node27</title>
<g id="a_node27"><a xlink:title=" ">
<polygon fill="white" stroke="#bfbfbf" points="987.96,-56.5 987.96,-75.5 1134.96,-75.5 1134.96,-56.5 987.96,-56.5"/>
<text text-anchor="middle" x="1061.46" y="-63.5" font-family="FreeSans" font-size="10.00">boost/current_function.hpp</text>
</a>
</g>
</g>
<!-- Node26&#45;&gt;Node27 -->
<g id="edge40" class="edge">
<title>Node26&#45;&gt;Node27</title>
<path fill="none" stroke="midnightblue" d="M958.79,-112.44C978.78,-103.6 1010.21,-89.69 1033.03,-79.59"/>
<polygon fill="midnightblue" stroke="midnightblue" points="1034.49,-82.76 1042.22,-75.52 1031.66,-76.36 1034.49,-82.76"/>
</g>
<!-- Node29&#45;&gt;Node2 -->
<g id="edge45" class="edge">
<title>Node29&#45;&gt;Node2</title>
<path fill="none" stroke="midnightblue" d="M101,-112.25C109.19,-97.51 127.99,-68.14 153.46,-56 255.86,-7.18 1077.26,-9.47 1270.06,-10.69"/>
<polygon fill="midnightblue" stroke="midnightblue" points="1270.29,-14.19 1280.31,-10.76 1270.34,-7.19 1270.29,-14.19"/>
</g>
<!-- Node29&#45;&gt;Node17 -->
<g id="edge46" class="edge">
<title>Node29&#45;&gt;Node17</title>
<path fill="none" stroke="midnightblue" d="M96.95,-112.21C98.24,-97.96 102.99,-69.98 120.46,-56 167.17,-18.64 350.72,-12.22 425.99,-11.18"/>
<polygon fill="midnightblue" stroke="midnightblue" points="426.32,-14.67 436.28,-11.06 426.24,-7.67 426.32,-14.67"/>
</g>
<!-- Node29&#45;&gt;Node24 -->
<g id="edge47" class="edge">
<title>Node29&#45;&gt;Node24</title>
<path fill="none" stroke="midnightblue" d="M117.85,-112.44C140.17,-103.52 175.37,-89.44 200.67,-79.32"/>
<polygon fill="midnightblue" stroke="midnightblue" points="202.19,-82.48 210.17,-75.52 199.59,-75.98 202.19,-82.48"/>
</g>
<!-- Node30&#45;&gt;Node2 -->
<g id="edge50" class="edge">
<title>Node30&#45;&gt;Node2</title>
<path fill="none" stroke="midnightblue" d="M2129.55,-173.82C2126.56,-150.17 2114.72,-84.42 2073.46,-56 2013.77,-14.88 1500.11,-11.17 1350.93,-10.97"/>
<polygon fill="midnightblue" stroke="midnightblue" points="1350.83,-7.47 1340.83,-10.96 1350.82,-14.47 1350.83,-7.47"/>
</g>
<!-- Node31&#45;&gt;Node2 -->
<g id="edge53" class="edge">
<title>Node31&#45;&gt;Node2</title>
<path fill="none" stroke="midnightblue" d="M1466.22,-112.45C1435.05,-105.97 1397.23,-94.83 1367.46,-76 1348.11,-63.75 1331.58,-43.02 1321.38,-28.26"/>
<polygon fill="midnightblue" stroke="midnightblue" points="1324.07,-25.98 1315.63,-19.57 1318.23,-29.84 1324.07,-25.98"/>
</g>
<!-- Node31&#45;&gt;Node22 -->
<g id="edge52" class="edge">
<title>Node31&#45;&gt;Node22</title>
<path fill="none" stroke="midnightblue" d="M1456.57,-112.91C1453.5,-112.59 1450.45,-112.29 1447.46,-112 1242.61,-92.33 1186.21,-111.06 980.14,-76"/>
<polygon fill="midnightblue" stroke="midnightblue" points="980.66,-72.54 970.22,-74.29 979.48,-79.44 980.66,-72.54"/>
</g>
<!-- Node32 -->
<g id="node32" class="node">
<title>Node32</title>
<g id="a_node32"><a xlink:title=" ">
<polygon fill="white" stroke="#bfbfbf" points="1376.96,-56.5 1376.96,-75.5 1477.96,-75.5 1477.96,-56.5 1376.96,-56.5"/>
<text text-anchor="middle" x="1427.46" y="-63.5" font-family="FreeSans" font-size="10.00">boost/cstdint.hpp</text>
</a>
</g>
</g>
<!-- Node31&#45;&gt;Node32 -->
<g id="edge54" class="edge">
<title>Node31&#45;&gt;Node32</title>
<path fill="none" stroke="midnightblue" d="M1509.72,-112.32C1494.14,-103.74 1470.09,-90.49 1452,-80.52"/>
<polygon fill="midnightblue" stroke="midnightblue" points="1453.62,-77.42 1443.17,-75.65 1450.24,-83.55 1453.62,-77.42"/>
</g>
<!-- Node33 -->
<g id="node33" class="node">
<title>Node33</title>
<g id="a_node33"><a xlink:title=" ">
<polygon fill="white" stroke="#bfbfbf" points="1495.96,-56.5 1495.96,-75.5 1554.96,-75.5 1554.96,-56.5 1495.96,-56.5"/>
<text text-anchor="middle" x="1525.46" y="-63.5" font-family="FreeSans" font-size="10.00">gmpxx.h</text>
</a>
</g>
</g>
<!-- Node31&#45;&gt;Node33 -->
<g id="edge55" class="edge">
<title>Node31&#45;&gt;Node33</title>
<path fill="none" stroke="midnightblue" d="M1525.46,-112.08C1525.46,-105.01 1525.46,-94.86 1525.46,-85.99"/>
<polygon fill="midnightblue" stroke="midnightblue" points="1528.96,-85.75 1525.46,-75.75 1521.96,-85.75 1528.96,-85.75"/>
</g>
<!-- Node34&#45;&gt;Node3 -->
<g id="edge59" class="edge">
<title>Node34&#45;&gt;Node3</title>
<path fill="none" stroke="midnightblue" d="M2305.2,-173.98C2314.62,-164.78 2329.83,-149.96 2341.41,-138.66"/>
<polygon fill="midnightblue" stroke="midnightblue" points="2344.02,-141 2348.74,-131.51 2339.14,-135.99 2344.02,-141"/>
</g>
<!-- Node34&#45;&gt;Node4 -->
<g id="edge58" class="edge">
<title>Node34&#45;&gt;Node4</title>
<path fill="none" stroke="midnightblue" d="M2315.8,-173.98C2338.56,-163.95 2376.55,-147.2 2402.75,-135.65"/>
<polygon fill="midnightblue" stroke="midnightblue" points="2404.42,-138.74 2412.16,-131.51 2401.59,-132.34 2404.42,-138.74"/>
</g>
<!-- Node34&#45;&gt;Node5 -->
<g id="edge67" class="edge">
<title>Node34&#45;&gt;Node5</title>
<path fill="none" stroke="midnightblue" d="M2259.89,-193.04C2247.71,-195.2 2234.09,-197.37 2221.46,-199 2057.93,-220.08 1864.41,-233.79 1761.07,-240.05"/>
<polygon fill="midnightblue" stroke="midnightblue" points="1760.82,-236.56 1751.05,-240.65 1761.24,-243.55 1760.82,-236.56"/>
</g>
<!-- Node34&#45;&gt;Node7 -->
<g id="edge57" class="edge">
<title>Node34&#45;&gt;Node7</title>
<path fill="none" stroke="midnightblue" d="M2264.32,-173.98C2231.29,-164.88 2178.59,-149.39 2134.46,-132 2095.02,-116.45 2051.08,-94.36 2024.36,-80.35"/>
<polygon fill="midnightblue" stroke="midnightblue" points="2025.81,-77.16 2015.33,-75.58 2022.54,-83.35 2025.81,-77.16"/>
</g>
<!-- Node35 -->
<g id="node35" class="node">
<title>Node35</title>
<g id="a_node35"><a xlink:href="Color_8h_source.html" target="_top" xlink:title=" ">
<polygon fill="white" stroke="black" points="1854.96,-112.5 1854.96,-131.5 1947.96,-131.5 1947.96,-112.5 1854.96,-112.5"/>
<text text-anchor="middle" x="1901.46" y="-119.5" font-family="FreeSans" font-size="10.00">DGtal/io/Color.h</text>
</a>
</g>
</g>
<!-- Node34&#45;&gt;Node35 -->
<g id="edge60" class="edge">
<title>Node34&#45;&gt;Node35</title>
<path fill="none" stroke="midnightblue" d="M2248.53,-173.99C2236.74,-171.97 2224.16,-169.85 2212.46,-168 2123.78,-153.93 2020.58,-139.35 1958.18,-130.73"/>
<polygon fill="midnightblue" stroke="midnightblue" points="1958.54,-127.25 1948.15,-129.35 1957.58,-134.18 1958.54,-127.25"/>
</g>
<!-- Node39 -->
<g id="node39" class="node">
<title>Node39</title>
<g id="a_node39"><a xlink:href="BasicBoolFunctors_8h_source.html" target="_top" xlink:title=" ">
<polygon fill="white" stroke="black" points="2143.46,-112.5 2143.46,-131.5 2315.46,-131.5 2315.46,-112.5 2143.46,-112.5"/>
<text text-anchor="middle" x="2229.46" y="-119.5" font-family="FreeSans" font-size="10.00">DGtal/base/BasicBoolFunctors.h</text>
</a>
</g>
</g>
<!-- Node34&#45;&gt;Node39 -->
<g id="edge68" class="edge">
<title>Node34&#45;&gt;Node39</title>
<path fill="none" stroke="midnightblue" d="M2286.86,-173.98C2276.42,-164.7 2259.5,-149.67 2246.73,-138.33"/>
<polygon fill="midnightblue" stroke="midnightblue" points="2248.85,-135.53 2239.04,-131.51 2244.2,-140.77 2248.85,-135.53"/>
</g>
<!-- Node35&#45;&gt;Node2 -->
<g id="edge61" class="edge">
<title>Node35&#45;&gt;Node2</title>
<path fill="none" stroke="midnightblue" d="M1854.86,-116.72C1801.96,-111.01 1713.53,-98.85 1640.46,-76 1620.35,-69.71 1617.63,-62.14 1597.46,-56 1512.02,-30 1407.45,-18.43 1351.11,-13.78"/>
<polygon fill="midnightblue" stroke="midnightblue" points="1351.08,-10.27 1340.83,-12.96 1350.52,-17.24 1351.08,-10.27"/>
</g>
<!-- Node35&#45;&gt;Node5 -->
<g id="edge62" class="edge">
<title>Node35&#45;&gt;Node5</title>
<path fill="none" stroke="midnightblue" d="M1909.92,-131.94C1923.34,-147.21 1946.36,-178.67 1929.46,-199 1908.37,-224.37 1824.69,-235.51 1761.59,-240.35"/>
<polygon fill="midnightblue" stroke="midnightblue" points="1760.98,-236.89 1751.26,-241.1 1761.48,-243.87 1760.98,-236.89"/>
</g>
<!-- Node35&#45;&gt;Node7 -->
<g id="edge64" class="edge">
<title>Node35&#45;&gt;Node7</title>
<path fill="none" stroke="midnightblue" d="M1917.21,-112.32C1932.78,-103.74 1956.84,-90.49 1974.92,-80.52"/>
<polygon fill="midnightblue" stroke="midnightblue" points="1976.69,-83.55 1983.76,-75.65 1973.31,-77.42 1976.69,-83.55"/>
</g>
<!-- Node36 -->
<g id="node36" class="node">
<title>Node36</title>
<g id="a_node36"><a xlink:title=" ">
<polygon fill="white" stroke="#bfbfbf" points="1649.96,-56.5 1649.96,-75.5 1774.96,-75.5 1774.96,-56.5 1649.96,-56.5"/>
<text text-anchor="middle" x="1712.46" y="-63.5" font-family="FreeSans" font-size="10.00">boost/lexical_cast.hpp</text>
</a>
</g>
</g>
<!-- Node35&#45;&gt;Node36 -->
<g id="edge63" class="edge">
<title>Node35&#45;&gt;Node36</title>
<path fill="none" stroke="midnightblue" d="M1871.52,-112.44C1839.3,-103.24 1787.93,-88.56 1752.32,-78.39"/>
<polygon fill="midnightblue" stroke="midnightblue" points="1752.85,-74.9 1742.27,-75.52 1750.92,-81.63 1752.85,-74.9"/>
</g>
<!-- Node37 -->
<g id="node37" class="node">
<title>Node37</title>
<g id="a_node37"><a xlink:title=" ">
<polygon fill="white" stroke="#bfbfbf" points="1793.46,-56.5 1793.46,-75.5 1835.46,-75.5 1835.46,-56.5 1793.46,-56.5"/>
<text text-anchor="middle" x="1814.46" y="-63.5" font-family="FreeSans" font-size="10.00">array</text>
</a>
</g>
</g>
<!-- Node35&#45;&gt;Node37 -->
<g id="edge65" class="edge">
<title>Node35&#45;&gt;Node37</title>
<path fill="none" stroke="midnightblue" d="M1887.48,-112.32C1873.91,-103.9 1853.08,-90.97 1837.14,-81.07"/>
<polygon fill="midnightblue" stroke="midnightblue" points="1838.75,-77.95 1828.41,-75.65 1835.06,-83.9 1838.75,-77.95"/>
</g>
<!-- Node38 -->
<g id="node38" class="node">
<title>Node38</title>
<g id="a_node38"><a xlink:href="Color_8ih_source.html" target="_top" xlink:title=" ">
<polygon fill="white" stroke="black" points="1853.46,-56.5 1853.46,-75.5 1949.46,-75.5 1949.46,-56.5 1853.46,-56.5"/>
<text text-anchor="middle" x="1901.46" y="-63.5" font-family="FreeSans" font-size="10.00">DGtal/io/Color.ih</text>
</a>
</g>
</g>
<!-- Node35&#45;&gt;Node38 -->
<g id="edge66" class="edge">
<title>Node35&#45;&gt;Node38</title>
<path fill="none" stroke="midnightblue" d="M1901.46,-112.08C1901.46,-105.01 1901.46,-94.86 1901.46,-85.99"/>
<polygon fill="midnightblue" stroke="midnightblue" points="1904.96,-85.75 1901.46,-75.75 1897.96,-85.75 1904.96,-85.75"/>
</g>
<!-- Node39&#45;&gt;Node2 -->
<g id="edge69" class="edge">
<title>Node39&#45;&gt;Node2</title>
<path fill="none" stroke="midnightblue" d="M2215.48,-112.26C2189.21,-96.01 2133.15,-62.23 2111.46,-56 1966.48,-14.34 1493.39,-10.96 1351.23,-10.91"/>
<polygon fill="midnightblue" stroke="midnightblue" points="1350.8,-7.41 1340.8,-10.91 1350.8,-14.41 1350.8,-7.41"/>
</g>
<!-- Node40 -->
<g id="node40" class="node">
<title>Node40</title>
<g id="a_node40"><a xlink:title=" ">
<polygon fill="white" stroke="#bfbfbf" points="2356.96,-56.5 2356.96,-75.5 2463.96,-75.5 2463.96,-56.5 2356.96,-56.5"/>
<text text-anchor="middle" x="2410.46" y="-63.5" font-family="FreeSans" font-size="10.00">boost/function.hpp</text>
</a>
</g>
</g>
<!-- Node39&#45;&gt;Node40 -->
<g id="edge70" class="edge">
<title>Node39&#45;&gt;Node40</title>
<path fill="none" stroke="midnightblue" d="M2258.14,-112.44C2288.99,-103.24 2338.19,-88.56 2372.29,-78.39"/>
<polygon fill="midnightblue" stroke="midnightblue" points="2373.33,-81.73 2381.92,-75.52 2371.33,-75.02 2373.33,-81.73"/>
</g>
<!-- Node41 -->
<g id="node41" class="node">
<title>Node41</title>
<g id="a_node41"><a xlink:href="BasicBoolFunctors_8ih_source.html" target="_top" xlink:title=" ">
<polygon fill="white" stroke="black" points="2163.96,-56.5 2163.96,-75.5 2338.96,-75.5 2338.96,-56.5 2163.96,-56.5"/>
<text text-anchor="middle" x="2251.46" y="-63.5" font-family="FreeSans" font-size="10.00">DGtal/base/BasicBoolFunctors.ih</text>
</a>
</g>
</g>
<!-- Node39&#45;&gt;Node41 -->
<g id="edge71" class="edge">
<title>Node39&#45;&gt;Node41</title>
<path fill="none" stroke="midnightblue" d="M2233.1,-112.08C2236.07,-104.77 2240.39,-94.18 2244.09,-85.1"/>
<polygon fill="midnightblue" stroke="midnightblue" points="2247.37,-86.33 2247.9,-75.75 2240.88,-83.69 2247.37,-86.33"/>
</g>
<!-- Node42&#45;&gt;Node2 -->
<g id="edge73" class="edge">
<title>Node42&#45;&gt;Node2</title>
<path fill="none" stroke="midnightblue" d="M1210.94,-112.37C1229.08,-93.89 1271.88,-50.29 1295.01,-26.74"/>
<polygon fill="midnightblue" stroke="midnightblue" points="1297.52,-29.18 1302.03,-19.59 1292.52,-24.28 1297.52,-29.18"/>
</g>
<!-- Node43&#45;&gt;Node2 -->
<g id="edge75" class="edge">
<title>Node43&#45;&gt;Node2</title>
<path fill="none" stroke="midnightblue" d="M1362.09,-112.32C1354.13,-103.68 1342.24,-89.76 1334.46,-76 1326.14,-61.27 1319.72,-43.11 1315.62,-29.73"/>
<polygon fill="midnightblue" stroke="midnightblue" points="1318.89,-28.43 1312.74,-19.8 1312.17,-30.38 1318.89,-28.43"/>
</g>
<!-- Node44&#45;&gt;Node2 -->
<g id="edge77" class="edge">
<title>Node44&#45;&gt;Node2</title>
<path fill="none" stroke="midnightblue" d="M2191.71,-291.41C2286.87,-262.16 2575.76,-162.33 2473.46,-56 2433.74,-14.72 1551.45,-11.26 1350.81,-11.01"/>
<polygon fill="midnightblue" stroke="midnightblue" points="1350.71,-7.51 1340.7,-11 1350.7,-14.51 1350.71,-7.51"/>
</g>
<!-- Node44&#45;&gt;Node5 -->
<g id="edge78" class="edge">
<title>Node44&#45;&gt;Node5</title>
<path fill="none" stroke="midnightblue" d="M2087.46,-291.47C1998.1,-281.31 1849.77,-264.45 1761.04,-254.36"/>
<polygon fill="midnightblue" stroke="midnightblue" points="1761.38,-250.88 1751.05,-253.23 1760.59,-257.84 1761.38,-250.88"/>
</g>
<!-- Node44&#45;&gt;Node30 -->
<g id="edge79" class="edge">
<title>Node44&#45;&gt;Node30</title>
<path fill="none" stroke="midnightblue" d="M2160.06,-291.32C2154.89,-272.67 2142.64,-228.44 2135.62,-203.13"/>
<polygon fill="midnightblue" stroke="midnightblue" points="2138.94,-201.98 2132.9,-193.28 2132.19,-203.85 2138.94,-201.98"/>
</g>
</g>
</svg>
