<?xml version="1.0" encoding="UTF-8" standalone="no"?>
<!DOCTYPE svg PUBLIC "-//W3C//DTD SVG 1.1//EN"
 "http://www.w3.org/Graphics/SVG/1.1/DTD/svg11.dtd">
<!-- Generated by graphviz version 2.43.0 (0)
 -->
<!-- Title: DGtal::GradientColorMap&lt; PValue, PDefaultPreset, PDefaultFirstColor, PDefaultLastColor &gt; Pages: 1 -->
<svg width="184pt" height="139pt"
 viewBox="0.00 0.00 184.00 139.00" xmlns="http://www.w3.org/2000/svg" xmlns:xlink="http://www.w3.org/1999/xlink">
<g id="graph0" class="graph" transform="scale(1 1) rotate(0) translate(4 135)">
<title>DGtal::GradientColorMap&lt; PValue, PDefaultPreset, PDefaultFirstColor, PDefaultLastColor &gt;</title>
<polygon fill="white" stroke="transparent" points="-4,4 -4,-135 180,-135 180,4 -4,4"/>
<!-- Node1 -->
<g id="node1" class="node">
<title>Node1</title>
<g id="a_node1"><a xlink:title="Aim: This class template may be used to (linearly) convert scalar values in a given range into a colo...">
<polygon fill="#bfbfbf" stroke="black" points="0,-78.5 0,-130.5 176,-130.5 176,-78.5 0,-78.5"/>
<text text-anchor="start" x="8" y="-118.5" font-family="FreeSans" font-size="10.00">DGtal::GradientColorMap</text>
<text text-anchor="start" x="8" y="-107.5" font-family="FreeSans" font-size="10.00">&lt; PValue, PDefaultPreset,</text>
<text text-anchor="start" x="8" y="-96.5" font-family="FreeSans" font-size="10.00"> PDefaultFirstColor, PDefaultLast</text>
<text text-anchor="middle" x="88" y="-85.5" font-family="FreeSans" font-size="10.00">Color &gt;</text>
</a>
</g>
</g>
<!-- Node2 -->
<g id="node2" class="node">
<title>Node2</title>
<g id="a_node2"><a xlink:href="classDGtal_1_1GradientColorMap.html" target="_top" xlink:title=" ">
<polygon fill="white" stroke="black" points="18.5,-0.5 18.5,-30.5 157.5,-30.5 157.5,-0.5 18.5,-0.5"/>
<text text-anchor="start" x="26.5" y="-18.5" font-family="FreeSans" font-size="10.00">DGtal::GradientColorMap</text>
<text text-anchor="middle" x="88" y="-7.5" font-family="FreeSans" font-size="10.00">&lt; unsigned int &gt;</text>
</a>
</g>
</g>
<!-- Node1&#45;&gt;Node2 -->
<g id="edge1" class="edge">
<title>Node1&#45;&gt;Node2</title>
<path fill="none" stroke="orange" stroke-dasharray="5,2" d="M88,-68.15C88,-55.05 88,-40.93 88,-30.77"/>
<polygon fill="orange" stroke="orange" points="84.5,-68.34 88,-78.34 91.5,-68.34 84.5,-68.34"/>
<text text-anchor="middle" x="131" y="-52" font-family="FreeSans" font-size="10.00"> &lt; unsigned int &gt;</text>
</g>
</g>
</svg>
