<?xml version="1.0" encoding="UTF-8" standalone="no"?>
<!DOCTYPE svg PUBLIC "-//W3C//DTD SVG 1.1//EN"
 "http://www.w3.org/Graphics/SVG/1.1/DTD/svg11.dtd">
<!-- Generated by graphviz version 2.43.0 (0)
 -->
<!-- Title: testBasicBoolFunctors.cpp Pages: 1 -->
<svg width="2607pt" height="319pt"
 viewBox="0.00 0.00 2607.21 319.00" xmlns="http://www.w3.org/2000/svg" xmlns:xlink="http://www.w3.org/1999/xlink">
<g id="graph0" class="graph" transform="scale(1 1) rotate(0) translate(4 315)">
<title>testBasicBoolFunctors.cpp</title>
<polygon fill="white" stroke="transparent" points="-4,4 -4,-315 2603.21,-315 2603.21,4 -4,4"/>
<!-- Node1 -->
<g id="node1" class="node">
<title>Node1</title>
<g id="a_node1"><a xlink:title=" ">
<polygon fill="#bfbfbf" stroke="black" points="2160.71,-291.5 2160.71,-310.5 2305.71,-310.5 2305.71,-291.5 2160.71,-291.5"/>
<text text-anchor="middle" x="2233.21" y="-298.5" font-family="FreeSans" font-size="10.00">testBasicBoolFunctors.cpp</text>
</a>
</g>
</g>
<!-- Node2 -->
<g id="node2" class="node">
<title>Node2</title>
<g id="a_node2"><a xlink:title=" ">
<polygon fill="white" stroke="#bfbfbf" points="1338.21,-0.5 1338.21,-19.5 1398.21,-19.5 1398.21,-0.5 1338.21,-0.5"/>
<text text-anchor="middle" x="1368.21" y="-7.5" font-family="FreeSans" font-size="10.00">iostream</text>
</a>
</g>
</g>
<!-- Node1&#45;&gt;Node2 -->
<g id="edge1" class="edge">
<title>Node1&#45;&gt;Node2</title>
<path fill="none" stroke="midnightblue" d="M2305.96,-292C2412.69,-278.2 2599.21,-245.38 2599.21,-184.5 2599.21,-184.5 2599.21,-184.5 2599.21,-121 2599.21,-87.08 2588.5,-73.1 2559.21,-56 2508.49,-26.39 1610.78,-13.9 1408.48,-11.46"/>
<polygon fill="midnightblue" stroke="midnightblue" points="1408.34,-7.96 1398.3,-11.34 1408.25,-14.96 1408.34,-7.96"/>
</g>
<!-- Node3 -->
<g id="node3" class="node">
<title>Node3</title>
<g id="a_node3"><a xlink:href="Common_8h_source.html" target="_top" xlink:title=" ">
<polygon fill="white" stroke="black" points="1329.71,-235.5 1329.71,-254.5 1456.71,-254.5 1456.71,-235.5 1329.71,-235.5"/>
<text text-anchor="middle" x="1393.21" y="-242.5" font-family="FreeSans" font-size="10.00">DGtal/base/Common.h</text>
</a>
</g>
</g>
<!-- Node1&#45;&gt;Node3 -->
<g id="edge2" class="edge">
<title>Node1&#45;&gt;Node3</title>
<path fill="none" stroke="midnightblue" d="M2160.5,-295.33C2001.97,-285.13 1626.66,-261.01 1467.07,-250.75"/>
<polygon fill="midnightblue" stroke="midnightblue" points="1467.08,-247.24 1456.88,-250.09 1466.63,-254.23 1467.08,-247.24"/>
</g>
<!-- Node39 -->
<g id="node39" class="node">
<title>Node39</title>
<g id="a_node39"><a xlink:href="BasicBoolFunctors_8h_source.html" target="_top" xlink:title=" ">
<polygon fill="white" stroke="black" points="2147.21,-112.5 2147.21,-131.5 2319.21,-131.5 2319.21,-112.5 2147.21,-112.5"/>
<text text-anchor="middle" x="2233.21" y="-119.5" font-family="FreeSans" font-size="10.00">DGtal/base/BasicBoolFunctors.h</text>
</a>
</g>
</g>
<!-- Node1&#45;&gt;Node39 -->
<g id="edge74" class="edge">
<title>Node1&#45;&gt;Node39</title>
<path fill="none" stroke="midnightblue" d="M2233.21,-291.46C2233.21,-264.43 2233.21,-180.24 2233.21,-142.11"/>
<polygon fill="midnightblue" stroke="midnightblue" points="2236.71,-141.87 2233.21,-131.87 2229.71,-141.87 2236.71,-141.87"/>
</g>
<!-- Node3&#45;&gt;Node2 -->
<g id="edge3" class="edge">
<title>Node3&#45;&gt;Node2</title>
<path fill="none" stroke="midnightblue" d="M1456.9,-243.05C1531.56,-239.39 1640.78,-224.56 1604.21,-168 1583.04,-135.26 1554,-157.16 1524.21,-132 1493.13,-105.75 1504.52,-81.97 1473.21,-56 1454.23,-40.26 1428.92,-29.2 1407.91,-21.98"/>
<polygon fill="midnightblue" stroke="midnightblue" points="1408.88,-18.62 1398.29,-18.84 1406.71,-25.27 1408.88,-18.62"/>
</g>
<!-- Node4 -->
<g id="node4" class="node">
<title>Node4</title>
<g id="a_node4"><a xlink:title=" ">
<polygon fill="white" stroke="#bfbfbf" points="1971.71,-174 1971.71,-193 2036.71,-193 2036.71,-174 1971.71,-174"/>
<text text-anchor="middle" x="2004.21" y="-181" font-family="FreeSans" font-size="10.00">exception</text>
</a>
</g>
</g>
<!-- Node3&#45;&gt;Node4 -->
<g id="edge4" class="edge">
<title>Node3&#45;&gt;Node4</title>
<path fill="none" stroke="midnightblue" d="M1456.83,-243.46C1561.93,-241.55 1778.01,-233.36 1957.21,-199 1961.45,-198.19 1965.86,-197.13 1970.19,-195.95"/>
<polygon fill="midnightblue" stroke="midnightblue" points="1971.46,-199.23 1980.07,-193.06 1969.49,-192.51 1971.46,-199.23"/>
</g>
<!-- Node5 -->
<g id="node5" class="node">
<title>Node5</title>
<g id="a_node5"><a xlink:title=" ">
<polygon fill="white" stroke="#bfbfbf" points="1756.21,-56.5 1756.21,-75.5 1820.21,-75.5 1820.21,-56.5 1756.21,-56.5"/>
<text text-anchor="middle" x="1788.21" y="-63.5" font-family="FreeSans" font-size="10.00">algorithm</text>
</a>
</g>
</g>
<!-- Node3&#45;&gt;Node5 -->
<g id="edge5" class="edge">
<title>Node3&#45;&gt;Node5</title>
<path fill="none" stroke="midnightblue" d="M1456.77,-238.51C1523.14,-231.83 1621.99,-218.92 1654.21,-199 1695.04,-173.76 1683.22,-144.86 1718.21,-112 1731.3,-99.71 1748.18,-88.74 1762.09,-80.71"/>
<polygon fill="midnightblue" stroke="midnightblue" points="1764.14,-83.58 1771.16,-75.64 1760.72,-77.47 1764.14,-83.58"/>
</g>
<!-- Node6 -->
<g id="node6" class="node">
<title>Node6</title>
<g id="a_node6"><a xlink:title=" ">
<polygon fill="white" stroke="#bfbfbf" points="168.21,-174 168.21,-193 272.21,-193 272.21,-174 168.21,-174"/>
<text text-anchor="middle" x="220.21" y="-181" font-family="FreeSans" font-size="10.00">boost/version.hpp</text>
</a>
</g>
</g>
<!-- Node3&#45;&gt;Node6 -->
<g id="edge6" class="edge">
<title>Node3&#45;&gt;Node6</title>
<path fill="none" stroke="midnightblue" d="M1329.42,-243.04C1124.72,-239.69 485.89,-227.2 281.21,-199 274.7,-198.1 267.87,-196.82 261.22,-195.39"/>
<polygon fill="midnightblue" stroke="midnightblue" points="261.55,-191.87 251.02,-193.05 259.98,-198.7 261.55,-191.87"/>
</g>
<!-- Node7 -->
<g id="node7" class="node">
<title>Node7</title>
<g id="a_node7"><a xlink:title=" ">
<polygon fill="white" stroke="#bfbfbf" points="290.21,-174 290.21,-193 430.21,-193 430.21,-174 290.21,-174"/>
<text text-anchor="middle" x="360.21" y="-181" font-family="FreeSans" font-size="10.00">boost/concept_check.hpp</text>
</a>
</g>
</g>
<!-- Node3&#45;&gt;Node7 -->
<g id="edge7" class="edge">
<title>Node3&#45;&gt;Node7</title>
<path fill="none" stroke="midnightblue" d="M1329.62,-243.95C1176.05,-243.17 772.99,-237.33 439.21,-199 429.95,-197.94 420.14,-196.44 410.7,-194.81"/>
<polygon fill="midnightblue" stroke="midnightblue" points="411.11,-191.33 400.65,-193 409.87,-198.22 411.11,-191.33"/>
</g>
<!-- Node8 -->
<g id="node8" class="node">
<title>Node8</title>
<g id="a_node8"><a xlink:title=" ">
<polygon fill="white" stroke="#bfbfbf" points="448.21,-174 448.21,-193 578.21,-193 578.21,-174 448.21,-174"/>
<text text-anchor="middle" x="513.21" y="-181" font-family="FreeSans" font-size="10.00">boost/static_assert.hpp</text>
</a>
</g>
</g>
<!-- Node3&#45;&gt;Node8 -->
<g id="edge8" class="edge">
<title>Node3&#45;&gt;Node8</title>
<path fill="none" stroke="midnightblue" d="M1329.46,-243.42C1192.87,-241.52 862.03,-233.43 587.21,-199 578.81,-197.95 569.92,-196.5 561.34,-194.93"/>
<polygon fill="midnightblue" stroke="midnightblue" points="561.93,-191.48 551.45,-193.04 560.62,-198.35 561.93,-191.48"/>
</g>
<!-- Node9 -->
<g id="node9" class="node">
<title>Node9</title>
<g id="a_node9"><a xlink:title=" ">
<polygon fill="white" stroke="#bfbfbf" points="596.71,-174 596.71,-193 735.71,-193 735.71,-174 596.71,-174"/>
<text text-anchor="middle" x="666.21" y="-181" font-family="FreeSans" font-size="10.00">boost/concept/assert.hpp</text>
</a>
</g>
</g>
<!-- Node3&#45;&gt;Node9 -->
<g id="edge9" class="edge">
<title>Node3&#45;&gt;Node9</title>
<path fill="none" stroke="midnightblue" d="M1329.41,-242C1212.81,-237.81 957.65,-226.15 744.21,-199 735.47,-197.89 726.23,-196.43 717.29,-194.86"/>
<polygon fill="midnightblue" stroke="midnightblue" points="717.82,-191.4 707.36,-193.06 716.57,-198.29 717.82,-191.4"/>
</g>
<!-- Node10 -->
<g id="node10" class="node">
<title>Node10</title>
<g id="a_node10"><a xlink:title=" ">
<polygon fill="white" stroke="#bfbfbf" points="753.71,-174 753.71,-193 902.71,-193 902.71,-174 753.71,-174"/>
<text text-anchor="middle" x="828.21" y="-181" font-family="FreeSans" font-size="10.00">boost/concept/requires.hpp</text>
</a>
</g>
</g>
<!-- Node3&#45;&gt;Node10 -->
<g id="edge10" class="edge">
<title>Node3&#45;&gt;Node10</title>
<path fill="none" stroke="midnightblue" d="M1329.62,-239.63C1237.39,-232.94 1061.24,-218.8 912.21,-199 903.05,-197.78 893.37,-196.3 883.95,-194.75"/>
<polygon fill="midnightblue" stroke="midnightblue" points="884.33,-191.26 873.89,-193.05 883.16,-198.16 884.33,-191.26"/>
</g>
<!-- Node11 -->
<g id="node11" class="node">
<title>Node11</title>
<g id="a_node11"><a xlink:title=" ">
<polygon fill="white" stroke="#bfbfbf" points="921.21,-168.5 921.21,-198.5 1043.21,-198.5 1043.21,-168.5 921.21,-168.5"/>
<text text-anchor="start" x="929.21" y="-186.5" font-family="FreeSans" font-size="10.00">boost/iterator/iterator</text>
<text text-anchor="middle" x="982.21" y="-175.5" font-family="FreeSans" font-size="10.00">_concepts.hpp</text>
</a>
</g>
</g>
<!-- Node3&#45;&gt;Node11 -->
<g id="edge11" class="edge">
<title>Node3&#45;&gt;Node11</title>
<path fill="none" stroke="midnightblue" d="M1329.52,-237C1263.01,-229.38 1155.45,-216.16 1053.13,-199.08"/>
<polygon fill="midnightblue" stroke="midnightblue" points="1053.68,-195.63 1043.24,-197.42 1052.52,-202.53 1053.68,-195.63"/>
</g>
<!-- Node12 -->
<g id="node12" class="node">
<title>Node12</title>
<g id="a_node12"><a xlink:title=" ">
<polygon fill="white" stroke="#bfbfbf" points="1061.21,-174 1061.21,-193 1221.21,-193 1221.21,-174 1061.21,-174"/>
<text text-anchor="middle" x="1141.21" y="-181" font-family="FreeSans" font-size="10.00">boost/concept_archetype.hpp</text>
</a>
</g>
</g>
<!-- Node3&#45;&gt;Node12 -->
<g id="edge12" class="edge">
<title>Node3&#45;&gt;Node12</title>
<path fill="none" stroke="midnightblue" d="M1357.1,-235.48C1312.38,-224.92 1236.13,-206.91 1187.24,-195.37"/>
<polygon fill="midnightblue" stroke="midnightblue" points="1187.78,-191.9 1177.25,-193.01 1186.17,-198.71 1187.78,-191.9"/>
</g>
<!-- Node13 -->
<g id="node13" class="node">
<title>Node13</title>
<g id="a_node13"><a xlink:title=" ">
<polygon fill="white" stroke="#bfbfbf" points="1727.71,-112.5 1727.71,-131.5 1774.71,-131.5 1774.71,-112.5 1727.71,-112.5"/>
<text text-anchor="middle" x="1751.21" y="-119.5" font-family="FreeSans" font-size="10.00">cmath</text>
</a>
</g>
</g>
<!-- Node3&#45;&gt;Node13 -->
<g id="edge13" class="edge">
<title>Node3&#45;&gt;Node13</title>
<path fill="none" stroke="midnightblue" d="M1456.73,-241.96C1538.07,-238.19 1673.3,-227.7 1713.21,-199 1732.25,-185.31 1742.3,-159.31 1747.18,-141.57"/>
<polygon fill="midnightblue" stroke="midnightblue" points="1750.6,-142.32 1749.58,-131.77 1743.8,-140.65 1750.6,-142.32"/>
</g>
<!-- Node14 -->
<g id="node14" class="node">
<title>Node14</title>
<g id="a_node14"><a xlink:title=" ">
<polygon fill="white" stroke="#bfbfbf" points="1277.21,-174 1277.21,-193 1327.21,-193 1327.21,-174 1277.21,-174"/>
<text text-anchor="middle" x="1302.21" y="-181" font-family="FreeSans" font-size="10.00">stdio.h</text>
</a>
</g>
</g>
<!-- Node3&#45;&gt;Node14 -->
<g id="edge14" class="edge">
<title>Node3&#45;&gt;Node14</title>
<path fill="none" stroke="midnightblue" d="M1380.17,-235.48C1365.44,-225.84 1341.23,-210.02 1323.7,-198.55"/>
<polygon fill="midnightblue" stroke="midnightblue" points="1325.51,-195.55 1315.22,-193.01 1321.68,-201.41 1325.51,-195.55"/>
</g>
<!-- Node15 -->
<g id="node15" class="node">
<title>Node15</title>
<g id="a_node15"><a xlink:href="Config_8h_source.html" target="_top" xlink:title=" ">
<polygon fill="white" stroke="black" points="419.71,-56.5 419.71,-75.5 532.71,-75.5 532.71,-56.5 419.71,-56.5"/>
<text text-anchor="middle" x="476.21" y="-63.5" font-family="FreeSans" font-size="10.00">DGtal/base/Config.h</text>
</a>
</g>
</g>
<!-- Node3&#45;&gt;Node15 -->
<g id="edge15" class="edge">
<title>Node3&#45;&gt;Node15</title>
<path fill="none" stroke="midnightblue" d="M1392.94,-235.26C1391.92,-219.11 1387.26,-184.72 1366.21,-168 1358.11,-161.57 748.6,-96.05 543.04,-74.11"/>
<polygon fill="midnightblue" stroke="midnightblue" points="543.3,-70.62 532.98,-73.04 542.56,-77.58 543.3,-70.62"/>
</g>
<!-- Node17 -->
<g id="node17" class="node">
<title>Node17</title>
<g id="a_node17"><a xlink:href="Trace_8h_source.html" target="_top" xlink:title=" ">
<polygon fill="white" stroke="black" points="42.21,-174 42.21,-193 150.21,-193 150.21,-174 42.21,-174"/>
<text text-anchor="middle" x="96.21" y="-181" font-family="FreeSans" font-size="10.00">DGtal/base/Trace.h</text>
</a>
</g>
</g>
<!-- Node3&#45;&gt;Node17 -->
<g id="edge18" class="edge">
<title>Node3&#45;&gt;Node17</title>
<path fill="none" stroke="midnightblue" d="M1329.43,-243.27C1110.27,-240.52 388.88,-229.34 159.21,-199 152.33,-198.09 145.1,-196.78 138.09,-195.3"/>
<polygon fill="midnightblue" stroke="midnightblue" points="138.57,-191.82 128.04,-193.06 137.04,-198.66 138.57,-191.82"/>
</g>
<!-- Node24 -->
<g id="node24" class="node">
<title>Node24</title>
<g id="a_node24"><a xlink:href="TraceWriterTerm_8h_source.html" target="_top" xlink:title=" ">
<polygon fill="white" stroke="black" points="15.21,-112.5 15.21,-131.5 177.21,-131.5 177.21,-112.5 15.21,-112.5"/>
<text text-anchor="middle" x="96.21" y="-119.5" font-family="FreeSans" font-size="10.00">DGtal/base/TraceWriterTerm.h</text>
</a>
</g>
</g>
<!-- Node3&#45;&gt;Node24 -->
<g id="edge41" class="edge">
<title>Node3&#45;&gt;Node24</title>
<path fill="none" stroke="midnightblue" d="M1329.58,-244.32C1066.94,-245.36 78.77,-246.09 33.21,-199 23.63,-189.1 26.9,-180.25 33.21,-168 40.29,-154.25 53.73,-143.77 66.39,-136.39"/>
<polygon fill="midnightblue" stroke="midnightblue" points="68.21,-139.39 75.36,-131.57 64.9,-133.22 68.21,-139.39"/>
</g>
<!-- Node25 -->
<g id="node25" class="node">
<title>Node25</title>
<g id="a_node25"><a xlink:href="Assert_8h_source.html" target="_top" xlink:title=" ">
<polygon fill="white" stroke="black" points="673.71,-112.5 673.71,-131.5 786.71,-131.5 786.71,-112.5 673.71,-112.5"/>
<text text-anchor="middle" x="730.21" y="-119.5" font-family="FreeSans" font-size="10.00">DGtal/base/Assert.h</text>
</a>
</g>
</g>
<!-- Node3&#45;&gt;Node25 -->
<g id="edge46" class="edge">
<title>Node3&#45;&gt;Node25</title>
<path fill="none" stroke="midnightblue" d="M1389.74,-235.49C1382.54,-219.09 1364.28,-183.36 1336.21,-168 1289.86,-142.64 945,-129.41 797.17,-124.86"/>
<polygon fill="midnightblue" stroke="midnightblue" points="796.97,-121.35 786.87,-124.55 796.76,-128.35 796.97,-121.35"/>
</g>
<!-- Node28 -->
<g id="node28" class="node">
<title>Node28</title>
<g id="a_node28"><a xlink:href="TraceWriterFile_8h_source.html" target="_top" xlink:title=" ">
<polygon fill="white" stroke="black" points="500.71,-112.5 500.71,-131.5 655.71,-131.5 655.71,-112.5 500.71,-112.5"/>
<text text-anchor="middle" x="578.21" y="-119.5" font-family="FreeSans" font-size="10.00">DGtal/base/TraceWriterFile.h</text>
</a>
</g>
</g>
<!-- Node3&#45;&gt;Node28 -->
<g id="edge42" class="edge">
<title>Node3&#45;&gt;Node28</title>
<path fill="none" stroke="midnightblue" d="M1360.31,-235.48C1334.3,-227.97 1297.62,-215.64 1268.21,-199 1249.24,-188.27 1250.5,-175.96 1230.21,-168 1115.75,-123.09 805.45,-141.6 666.14,-132.06"/>
<polygon fill="midnightblue" stroke="midnightblue" points="666.25,-128.55 656.01,-131.29 665.72,-135.53 666.25,-128.55"/>
</g>
<!-- Node29 -->
<g id="node29" class="node">
<title>Node29</title>
<g id="a_node29"><a xlink:href="ConceptUtils_8h_source.html" target="_top" xlink:title=" ">
<polygon fill="white" stroke="black" points="2367.71,-112.5 2367.71,-131.5 2512.71,-131.5 2512.71,-112.5 2367.71,-112.5"/>
<text text-anchor="middle" x="2440.21" y="-119.5" font-family="FreeSans" font-size="10.00">DGtal/base/ConceptUtils.h</text>
</a>
</g>
</g>
<!-- Node3&#45;&gt;Node29 -->
<g id="edge47" class="edge">
<title>Node3&#45;&gt;Node29</title>
<path fill="none" stroke="midnightblue" d="M1456.86,-242.17C1573.81,-238.23 1830.59,-226.95 2045.21,-199 2172.53,-182.42 2320.7,-150.46 2394.11,-133.76"/>
<polygon fill="midnightblue" stroke="midnightblue" points="2394.99,-137.14 2403.96,-131.5 2393.43,-130.32 2394.99,-137.14"/>
</g>
<!-- Node30 -->
<g id="node30" class="node">
<title>Node30</title>
<g id="a_node30"><a xlink:href="BasicTypes_8h_source.html" target="_top" xlink:title=" ">
<polygon fill="white" stroke="black" points="1533.71,-112.5 1533.71,-131.5 1670.71,-131.5 1670.71,-112.5 1533.71,-112.5"/>
<text text-anchor="middle" x="1602.21" y="-119.5" font-family="FreeSans" font-size="10.00">DGtal/base/BasicTypes.h</text>
</a>
</g>
</g>
<!-- Node3&#45;&gt;Node30 -->
<g id="edge49" class="edge">
<title>Node3&#45;&gt;Node30</title>
<path fill="none" stroke="midnightblue" d="M1456.93,-241.22C1521.4,-236.91 1614.68,-226.06 1637.21,-199 1652.22,-180.96 1634.35,-155.42 1619.11,-139.03"/>
<polygon fill="midnightblue" stroke="midnightblue" points="1621.51,-136.48 1612,-131.8 1616.51,-141.38 1621.51,-136.48"/>
</g>
<!-- Node33 -->
<g id="node33" class="node">
<title>Node33</title>
<g id="a_node33"><a xlink:href="BasicFunctors_8h_source.html" target="_top" xlink:title=" ">
<polygon fill="white" stroke="black" points="1765.21,-174 1765.21,-193 1915.21,-193 1915.21,-174 1765.21,-174"/>
<text text-anchor="middle" x="1840.21" y="-181" font-family="FreeSans" font-size="10.00">DGtal/base/BasicFunctors.h</text>
</a>
</g>
</g>
<!-- Node3&#45;&gt;Node33 -->
<g id="edge54" class="edge">
<title>Node3&#45;&gt;Node33</title>
<path fill="none" stroke="midnightblue" d="M1456.85,-235.92C1526.89,-227.44 1642.54,-213.38 1742.21,-199 1751.52,-197.66 1761.37,-196.14 1771.1,-194.62"/>
<polygon fill="midnightblue" stroke="midnightblue" points="1771.85,-198.04 1781.18,-193.03 1770.76,-191.13 1771.85,-198.04"/>
</g>
<!-- Node42 -->
<g id="node42" class="node">
<title>Node42</title>
<g id="a_node42"><a xlink:href="BasicArchetypes_8h_source.html" target="_top" xlink:title=" ">
<polygon fill="white" stroke="black" points="1275.21,-112.5 1275.21,-131.5 1439.21,-131.5 1439.21,-112.5 1275.21,-112.5"/>
<text text-anchor="middle" x="1357.21" y="-119.5" font-family="FreeSans" font-size="10.00">DGtal/base/BasicArchetypes.h</text>
</a>
</g>
</g>
<!-- Node3&#45;&gt;Node42 -->
<g id="edge70" class="edge">
<title>Node3&#45;&gt;Node42</title>
<path fill="none" stroke="midnightblue" d="M1398.05,-235.17C1405.37,-220.59 1417.36,-190.8 1407.21,-168 1401.64,-155.5 1390.69,-145.01 1380.46,-137.32"/>
<polygon fill="midnightblue" stroke="midnightblue" points="1382.36,-134.38 1372.16,-131.53 1378.36,-140.12 1382.36,-134.38"/>
</g>
<!-- Node43 -->
<g id="node43" class="node">
<title>Node43</title>
<g id="a_node43"><a xlink:href="Exceptions_8h_source.html" target="_top" xlink:title=" ">
<polygon fill="white" stroke="black" points="1459.21,-174 1459.21,-193 1595.21,-193 1595.21,-174 1459.21,-174"/>
<text text-anchor="middle" x="1527.21" y="-181" font-family="FreeSans" font-size="10.00">DGtal/base/Exceptions.h</text>
</a>
</g>
</g>
<!-- Node3&#45;&gt;Node43 -->
<g id="edge72" class="edge">
<title>Node3&#45;&gt;Node43</title>
<path fill="none" stroke="midnightblue" d="M1412.41,-235.48C1434.99,-225.45 1472.71,-208.7 1498.71,-197.15"/>
<polygon fill="midnightblue" stroke="midnightblue" points="1500.33,-200.27 1508.04,-193.01 1497.48,-193.87 1500.33,-200.27"/>
</g>
<!-- Node15&#45;&gt;Node2 -->
<g id="edge16" class="edge">
<title>Node15&#45;&gt;Node2</title>
<path fill="none" stroke="midnightblue" d="M532.83,-60.95C555.63,-59.36 582.16,-57.54 606.21,-56 881.98,-38.31 1214.07,-19.58 1327.76,-13.24"/>
<polygon fill="midnightblue" stroke="midnightblue" points="1328.28,-16.72 1338.07,-12.67 1327.89,-9.73 1328.28,-16.72"/>
</g>
<!-- Node16 -->
<g id="node16" class="node">
<title>Node16</title>
<g id="a_node16"><a xlink:title=" ">
<polygon fill="white" stroke="#bfbfbf" points="369.21,-0.5 369.21,-19.5 413.21,-19.5 413.21,-0.5 369.21,-0.5"/>
<text text-anchor="middle" x="391.21" y="-7.5" font-family="FreeSans" font-size="10.00">string</text>
</a>
</g>
</g>
<!-- Node15&#45;&gt;Node16 -->
<g id="edge17" class="edge">
<title>Node15&#45;&gt;Node16</title>
<path fill="none" stroke="midnightblue" d="M462.55,-56.32C449.29,-47.9 428.94,-34.97 413.36,-25.07"/>
<polygon fill="midnightblue" stroke="midnightblue" points="415.15,-22.06 404.83,-19.65 411.39,-27.97 415.15,-22.06"/>
</g>
<!-- Node17&#45;&gt;Node2 -->
<g id="edge19" class="edge">
<title>Node17&#45;&gt;Node2</title>
<path fill="none" stroke="midnightblue" d="M127.72,-174C137.71,-171.64 148.86,-169.35 159.21,-168 277.05,-152.6 1117.54,-175.33 1228.21,-132 1284.35,-110.02 1333.42,-55.23 1355.62,-27.55"/>
<polygon fill="midnightblue" stroke="midnightblue" points="1358.44,-29.63 1361.85,-19.6 1352.93,-25.31 1358.44,-29.63"/>
</g>
<!-- Node17&#45;&gt;Node15 -->
<g id="edge23" class="edge">
<title>Node17&#45;&gt;Node15</title>
<path fill="none" stroke="midnightblue" d="M130.41,-173.95C139.71,-171.81 149.81,-169.65 159.21,-168 223.82,-156.63 400.78,-172.72 452.21,-132 466.19,-120.93 472.02,-100.89 474.46,-85.98"/>
<polygon fill="midnightblue" stroke="midnightblue" points="477.97,-86.17 475.74,-75.81 471.02,-85.29 477.97,-86.17"/>
</g>
<!-- Node17&#45;&gt;Node16 -->
<g id="edge21" class="edge">
<title>Node17&#45;&gt;Node16</title>
<path fill="none" stroke="midnightblue" d="M117.13,-173.86C139.41,-164.43 175.46,-148.46 205.21,-132 267.76,-97.4 337.35,-49.39 370.92,-25.58"/>
<polygon fill="midnightblue" stroke="midnightblue" points="373.28,-28.2 379.39,-19.54 369.22,-22.5 373.28,-28.2"/>
</g>
<!-- Node18 -->
<g id="node18" class="node">
<title>Node18</title>
<g id="a_node18"><a xlink:title=" ">
<polygon fill="white" stroke="#bfbfbf" points="67.71,-0.5 67.71,-19.5 124.71,-19.5 124.71,-0.5 67.71,-0.5"/>
<text text-anchor="middle" x="96.21" y="-7.5" font-family="FreeSans" font-size="10.00">ostream</text>
</a>
</g>
</g>
<!-- Node17&#45;&gt;Node18 -->
<g id="edge20" class="edge">
<title>Node17&#45;&gt;Node18</title>
<path fill="none" stroke="midnightblue" d="M64.88,-173.96C44.24,-166.53 18.79,-153.49 6.21,-132 -17.96,-90.73 38.19,-46.75 72.34,-24.94"/>
<polygon fill="midnightblue" stroke="midnightblue" points="74.24,-27.88 80.89,-19.64 70.55,-21.93 74.24,-27.88"/>
</g>
<!-- Node19 -->
<g id="node19" class="node">
<title>Node19</title>
<g id="a_node19"><a xlink:title=" ">
<polygon fill="white" stroke="#bfbfbf" points="400.71,-112.5 400.71,-131.5 443.71,-131.5 443.71,-112.5 400.71,-112.5"/>
<text text-anchor="middle" x="422.21" y="-119.5" font-family="FreeSans" font-size="10.00">stack</text>
</a>
</g>
</g>
<!-- Node17&#45;&gt;Node19 -->
<g id="edge22" class="edge">
<title>Node17&#45;&gt;Node19</title>
<path fill="none" stroke="midnightblue" d="M131.1,-174C140.22,-171.9 150.06,-169.76 159.21,-168 258.57,-148.88 287.59,-154.23 390.74,-131.83"/>
<polygon fill="midnightblue" stroke="midnightblue" points="391.61,-135.23 400.62,-129.65 390.1,-128.39 391.61,-135.23"/>
</g>
<!-- Node20 -->
<g id="node20" class="node">
<title>Node20</title>
<g id="a_node20"><a xlink:href="Clock_8h_source.html" target="_top" xlink:title=" ">
<polygon fill="white" stroke="black" points="1109.21,-112.5 1109.21,-131.5 1219.21,-131.5 1219.21,-112.5 1109.21,-112.5"/>
<text text-anchor="middle" x="1164.21" y="-119.5" font-family="FreeSans" font-size="10.00">DGtal/base/Clock.h</text>
</a>
</g>
</g>
<!-- Node17&#45;&gt;Node20 -->
<g id="edge24" class="edge">
<title>Node17&#45;&gt;Node20</title>
<path fill="none" stroke="midnightblue" d="M128.05,-173.99C137.96,-171.66 148.98,-169.39 159.21,-168 341.77,-143.11 906.09,-128.68 1098.87,-124.38"/>
<polygon fill="midnightblue" stroke="midnightblue" points="1099.21,-127.87 1109.13,-124.15 1099.05,-120.87 1099.21,-127.87"/>
</g>
<!-- Node23 -->
<g id="node23" class="node">
<title>Node23</title>
<g id="a_node23"><a xlink:href="TraceWriter_8h_source.html" target="_top" xlink:title=" ">
<polygon fill="white" stroke="black" points="130.71,-56.5 130.71,-75.5 267.71,-75.5 267.71,-56.5 130.71,-56.5"/>
<text text-anchor="middle" x="199.21" y="-63.5" font-family="FreeSans" font-size="10.00">DGtal/base/TraceWriter.h</text>
</a>
</g>
</g>
<!-- Node17&#45;&gt;Node23 -->
<g id="edge28" class="edge">
<title>Node17&#45;&gt;Node23</title>
<path fill="none" stroke="midnightblue" d="M124.11,-173.94C144.46,-166.24 171.04,-152.87 186.21,-132 195.83,-118.76 198.77,-100.18 199.49,-86.27"/>
<polygon fill="midnightblue" stroke="midnightblue" points="202.99,-85.96 199.66,-75.91 195.99,-85.85 202.99,-85.96"/>
</g>
<!-- Node17&#45;&gt;Node24 -->
<g id="edge31" class="edge">
<title>Node17&#45;&gt;Node24</title>
<path fill="none" stroke="midnightblue" d="M96.21,-173.98C96.21,-165.58 96.21,-152.48 96.21,-141.66"/>
<polygon fill="midnightblue" stroke="midnightblue" points="99.71,-141.51 96.21,-131.51 92.71,-141.51 99.71,-141.51"/>
</g>
<!-- Node17&#45;&gt;Node25 -->
<g id="edge36" class="edge">
<title>Node17&#45;&gt;Node25</title>
<path fill="none" stroke="midnightblue" d="M120.43,-173.93C129.71,-171.68 140.33,-169.48 150.21,-168 372.74,-134.67 431.39,-155.21 655.21,-132 657.87,-131.72 660.58,-131.43 663.33,-131.11"/>
<polygon fill="midnightblue" stroke="midnightblue" points="663.87,-134.57 673.38,-129.9 663.03,-127.62 663.87,-134.57"/>
</g>
<!-- Node27 -->
<g id="node27" class="node">
<title>Node27</title>
<g id="a_node27"><a xlink:href="Trace_8ih_source.html" target="_top" xlink:title=" ">
<polygon fill="white" stroke="black" points="271.71,-112.5 271.71,-131.5 382.71,-131.5 382.71,-112.5 271.71,-112.5"/>
<text text-anchor="middle" x="327.21" y="-119.5" font-family="FreeSans" font-size="10.00">DGtal/base/Trace.ih</text>
</a>
</g>
</g>
<!-- Node17&#45;&gt;Node27 -->
<g id="edge40" class="edge">
<title>Node17&#45;&gt;Node27</title>
<path fill="none" stroke="midnightblue" d="M129.3,-173.98C170.13,-163.46 239.62,-145.56 284.45,-134.01"/>
<polygon fill="midnightblue" stroke="midnightblue" points="285.36,-137.39 294.17,-131.51 283.62,-130.61 285.36,-137.39"/>
</g>
<!-- Node20&#45;&gt;Node2 -->
<g id="edge25" class="edge">
<title>Node20&#45;&gt;Node2</title>
<path fill="none" stroke="midnightblue" d="M1171.34,-112.15C1182.94,-98.32 1207.21,-71.53 1233.21,-56 1262.86,-38.28 1300.4,-26.49 1328.36,-19.44"/>
<polygon fill="midnightblue" stroke="midnightblue" points="1329.3,-22.82 1338.19,-17.06 1327.65,-16.01 1329.3,-22.82"/>
</g>
<!-- Node21 -->
<g id="node21" class="node">
<title>Node21</title>
<g id="a_node21"><a xlink:title=" ">
<polygon fill="white" stroke="#bfbfbf" points="1415.71,-56.5 1415.71,-75.5 1464.71,-75.5 1464.71,-56.5 1415.71,-56.5"/>
<text text-anchor="middle" x="1440.21" y="-63.5" font-family="FreeSans" font-size="10.00">cstdlib</text>
</a>
</g>
</g>
<!-- Node20&#45;&gt;Node21 -->
<g id="edge26" class="edge">
<title>Node20&#45;&gt;Node21</title>
<path fill="none" stroke="midnightblue" d="M1207.94,-112.44C1262.72,-101.73 1355.45,-83.58 1405.57,-73.78"/>
<polygon fill="midnightblue" stroke="midnightblue" points="1406.45,-77.17 1415.59,-71.82 1405.11,-70.3 1406.45,-77.17"/>
</g>
<!-- Node22 -->
<g id="node22" class="node">
<title>Node22</title>
<g id="a_node22"><a xlink:href="Clock_8ih_source.html" target="_top" xlink:title=" ">
<polygon fill="white" stroke="black" points="1067.71,-56.5 1067.71,-75.5 1180.71,-75.5 1180.71,-56.5 1067.71,-56.5"/>
<text text-anchor="middle" x="1124.21" y="-63.5" font-family="FreeSans" font-size="10.00">DGtal/base/Clock.ih</text>
</a>
</g>
</g>
<!-- Node20&#45;&gt;Node22 -->
<g id="edge27" class="edge">
<title>Node20&#45;&gt;Node22</title>
<path fill="none" stroke="midnightblue" d="M1157.6,-112.08C1151.95,-104.46 1143.66,-93.26 1136.76,-83.94"/>
<polygon fill="midnightblue" stroke="midnightblue" points="1139.46,-81.7 1130.69,-75.75 1133.83,-85.87 1139.46,-81.7"/>
</g>
<!-- Node23&#45;&gt;Node2 -->
<g id="edge29" class="edge">
<title>Node23&#45;&gt;Node2</title>
<path fill="none" stroke="midnightblue" d="M267.97,-61.82C485.85,-51.76 1156.64,-20.77 1328.01,-12.86"/>
<polygon fill="midnightblue" stroke="midnightblue" points="1328.28,-16.35 1338.11,-12.39 1327.96,-9.36 1328.28,-16.35"/>
</g>
<!-- Node23&#45;&gt;Node18 -->
<g id="edge30" class="edge">
<title>Node23&#45;&gt;Node18</title>
<path fill="none" stroke="midnightblue" d="M182.66,-56.32C166.22,-47.7 140.77,-34.36 121.74,-24.39"/>
<polygon fill="midnightblue" stroke="midnightblue" points="123.2,-21.2 112.72,-19.65 119.95,-27.4 123.2,-21.2"/>
</g>
<!-- Node24&#45;&gt;Node2 -->
<g id="edge32" class="edge">
<title>Node24&#45;&gt;Node2</title>
<path fill="none" stroke="midnightblue" d="M96.65,-112.47C97.9,-98.07 102.71,-69.2 121.21,-56 171.42,-20.17 1119.58,-12.47 1327.95,-11.21"/>
<polygon fill="midnightblue" stroke="midnightblue" points="1328.16,-14.71 1338.13,-11.15 1328.11,-7.71 1328.16,-14.71"/>
</g>
<!-- Node24&#45;&gt;Node15 -->
<g id="edge35" class="edge">
<title>Node24&#45;&gt;Node15</title>
<path fill="none" stroke="midnightblue" d="M156.42,-112.44C225.34,-102.65 337.89,-86.66 409.44,-76.49"/>
<polygon fill="midnightblue" stroke="midnightblue" points="410.28,-79.9 419.69,-75.03 409.29,-72.97 410.28,-79.9"/>
</g>
<!-- Node24&#45;&gt;Node16 -->
<g id="edge33" class="edge">
<title>Node24&#45;&gt;Node16</title>
<path fill="none" stroke="midnightblue" d="M91.42,-112.23C84.66,-98.49 74.54,-71.84 88.21,-56 122.9,-15.78 287.92,-10.93 358.77,-10.74"/>
<polygon fill="midnightblue" stroke="midnightblue" points="358.91,-14.24 368.91,-10.74 358.91,-7.24 358.91,-14.24"/>
</g>
<!-- Node24&#45;&gt;Node23 -->
<g id="edge34" class="edge">
<title>Node24&#45;&gt;Node23</title>
<path fill="none" stroke="midnightblue" d="M112.76,-112.32C129.2,-103.7 154.64,-90.36 173.68,-80.39"/>
<polygon fill="midnightblue" stroke="midnightblue" points="175.47,-83.4 182.7,-75.65 172.22,-77.2 175.47,-83.4"/>
</g>
<!-- Node25&#45;&gt;Node16 -->
<g id="edge39" class="edge">
<title>Node25&#45;&gt;Node16</title>
<path fill="none" stroke="midnightblue" d="M706.44,-112.49C670.72,-99.77 600.99,-75.24 541.21,-56 500.63,-42.94 453.5,-29 423.06,-20.16"/>
<polygon fill="midnightblue" stroke="midnightblue" points="423.98,-16.78 413.4,-17.36 422.04,-23.5 423.98,-16.78"/>
</g>
<!-- Node25&#45;&gt;Node17 -->
<g id="edge37" class="edge">
<title>Node25&#45;&gt;Node17</title>
<path fill="none" stroke="midnightblue" d="M677.74,-131.51C676.22,-131.68 674.7,-131.84 673.21,-132 449.39,-155.21 390.74,-134.67 168.21,-168 161.57,-168.99 154.6,-170.32 147.69,-171.76"/>
<polygon fill="midnightblue" stroke="midnightblue" points="146.7,-168.39 137.67,-173.93 148.18,-175.23 146.7,-168.39"/>
</g>
<!-- Node26 -->
<g id="node26" class="node">
<title>Node26</title>
<g id="a_node26"><a xlink:title=" ">
<polygon fill="white" stroke="#bfbfbf" points="656.71,-56.5 656.71,-75.5 803.71,-75.5 803.71,-56.5 656.71,-56.5"/>
<text text-anchor="middle" x="730.21" y="-63.5" font-family="FreeSans" font-size="10.00">boost/current_function.hpp</text>
</a>
</g>
</g>
<!-- Node25&#45;&gt;Node26 -->
<g id="edge38" class="edge">
<title>Node25&#45;&gt;Node26</title>
<path fill="none" stroke="midnightblue" d="M730.21,-112.08C730.21,-105.01 730.21,-94.86 730.21,-85.99"/>
<polygon fill="midnightblue" stroke="midnightblue" points="733.71,-85.75 730.21,-75.75 726.71,-85.75 733.71,-85.75"/>
</g>
<!-- Node28&#45;&gt;Node2 -->
<g id="edge43" class="edge">
<title>Node28&#45;&gt;Node2</title>
<path fill="none" stroke="midnightblue" d="M584.22,-112.28C594.91,-97.59 618.82,-68.3 647.21,-56 709.73,-28.91 1185.65,-15.38 1328.07,-11.92"/>
<polygon fill="midnightblue" stroke="midnightblue" points="1328.21,-15.41 1338.12,-11.67 1328.04,-8.42 1328.21,-15.41"/>
</g>
<!-- Node28&#45;&gt;Node16 -->
<g id="edge44" class="edge">
<title>Node28&#45;&gt;Node16</title>
<path fill="none" stroke="midnightblue" d="M500.64,-116.59C468.94,-111 434.17,-99.43 410.21,-76 398,-64.07 393.53,-44.76 391.95,-30.29"/>
<polygon fill="midnightblue" stroke="midnightblue" points="395.41,-29.67 391.2,-19.94 388.43,-30.17 395.41,-29.67"/>
</g>
<!-- Node28&#45;&gt;Node23 -->
<g id="edge45" class="edge">
<title>Node28&#45;&gt;Node23</title>
<path fill="none" stroke="midnightblue" d="M518.15,-112.44C450.51,-102.81 340.73,-87.16 269.24,-76.98"/>
<polygon fill="midnightblue" stroke="midnightblue" points="269.37,-73.46 258.98,-75.52 268.39,-80.39 269.37,-73.46"/>
</g>
<!-- Node29&#45;&gt;Node2 -->
<g id="edge48" class="edge">
<title>Node29&#45;&gt;Node2</title>
<path fill="none" stroke="midnightblue" d="M2476.07,-112.44C2514.48,-101.71 2566.82,-81.57 2542.21,-56 2502.09,-14.31 1610.51,-11.17 1408.61,-11"/>
<polygon fill="midnightblue" stroke="midnightblue" points="1408.44,-7.5 1398.44,-10.99 1408.44,-14.5 1408.44,-7.5"/>
</g>
<!-- Node30&#45;&gt;Node2 -->
<g id="edge51" class="edge">
<title>Node30&#45;&gt;Node2</title>
<path fill="none" stroke="midnightblue" d="M1591.72,-112.31C1574.85,-98.7 1540.21,-72.21 1507.21,-56 1475.37,-40.36 1436.85,-28.38 1408.44,-20.73"/>
<polygon fill="midnightblue" stroke="midnightblue" points="1409.02,-17.26 1398.46,-18.11 1407.24,-24.03 1409.02,-17.26"/>
</g>
<!-- Node30&#45;&gt;Node21 -->
<g id="edge50" class="edge">
<title>Node30&#45;&gt;Node21</title>
<path fill="none" stroke="midnightblue" d="M1576.54,-112.44C1549.05,-103.28 1505.26,-88.68 1474.75,-78.52"/>
<polygon fill="midnightblue" stroke="midnightblue" points="1475.55,-75.09 1464.96,-75.25 1473.34,-81.73 1475.55,-75.09"/>
</g>
<!-- Node31 -->
<g id="node31" class="node">
<title>Node31</title>
<g id="a_node31"><a xlink:title=" ">
<polygon fill="white" stroke="#bfbfbf" points="1559.71,-56.5 1559.71,-75.5 1660.71,-75.5 1660.71,-56.5 1559.71,-56.5"/>
<text text-anchor="middle" x="1610.21" y="-63.5" font-family="FreeSans" font-size="10.00">boost/cstdint.hpp</text>
</a>
</g>
</g>
<!-- Node30&#45;&gt;Node31 -->
<g id="edge52" class="edge">
<title>Node30&#45;&gt;Node31</title>
<path fill="none" stroke="midnightblue" d="M1603.53,-112.08C1604.59,-104.93 1606.11,-94.64 1607.44,-85.69"/>
<polygon fill="midnightblue" stroke="midnightblue" points="1610.91,-86.16 1608.91,-75.75 1603.98,-85.13 1610.91,-86.16"/>
</g>
<!-- Node32 -->
<g id="node32" class="node">
<title>Node32</title>
<g id="a_node32"><a xlink:title=" ">
<polygon fill="white" stroke="#bfbfbf" points="1678.71,-56.5 1678.71,-75.5 1737.71,-75.5 1737.71,-56.5 1678.71,-56.5"/>
<text text-anchor="middle" x="1708.21" y="-63.5" font-family="FreeSans" font-size="10.00">gmpxx.h</text>
</a>
</g>
</g>
<!-- Node30&#45;&gt;Node32 -->
<g id="edge53" class="edge">
<title>Node30&#45;&gt;Node32</title>
<path fill="none" stroke="midnightblue" d="M1619.24,-112.32C1636.24,-103.66 1662.58,-90.24 1682.2,-80.25"/>
<polygon fill="midnightblue" stroke="midnightblue" points="1683.9,-83.31 1691.22,-75.65 1680.72,-77.08 1683.9,-83.31"/>
</g>
<!-- Node33&#45;&gt;Node3 -->
<g id="edge65" class="edge">
<title>Node33&#45;&gt;Node3</title>
<path fill="none" stroke="midnightblue" d="M1798.61,-193.03C1786.28,-195.07 1772.76,-197.19 1760.21,-199 1659.1,-213.59 1541.53,-227.85 1467.18,-236.28"/>
<polygon fill="midnightblue" stroke="midnightblue" points="1466.52,-232.83 1456.98,-237.43 1467.31,-239.79 1466.52,-232.83"/>
</g>
<!-- Node33&#45;&gt;Node5 -->
<g id="edge55" class="edge">
<title>Node33&#45;&gt;Node5</title>
<path fill="none" stroke="midnightblue" d="M1848.07,-173.84C1859.53,-160.11 1878.21,-132.79 1866.21,-112 1857.53,-96.98 1841.72,-86.52 1826.59,-79.5"/>
<polygon fill="midnightblue" stroke="midnightblue" points="1827.9,-76.25 1817.33,-75.56 1825.16,-82.69 1827.9,-76.25"/>
</g>
<!-- Node33&#45;&gt;Node13 -->
<g id="edge57" class="edge">
<title>Node33&#45;&gt;Node13</title>
<path fill="none" stroke="midnightblue" d="M1827.46,-173.98C1813.18,-164.43 1789.81,-148.81 1772.7,-137.37"/>
<polygon fill="midnightblue" stroke="midnightblue" points="1774.19,-134.16 1763.94,-131.51 1770.3,-139.98 1774.19,-134.16"/>
</g>
<!-- Node34 -->
<g id="node34" class="node">
<title>Node34</title>
<g id="a_node34"><a xlink:title=" ">
<polygon fill="white" stroke="#bfbfbf" points="1792.71,-112.5 1792.71,-131.5 1857.71,-131.5 1857.71,-112.5 1792.71,-112.5"/>
<text text-anchor="middle" x="1825.21" y="-119.5" font-family="FreeSans" font-size="10.00">functional</text>
</a>
</g>
</g>
<!-- Node33&#45;&gt;Node34 -->
<g id="edge56" class="edge">
<title>Node33&#45;&gt;Node34</title>
<path fill="none" stroke="midnightblue" d="M1838.06,-173.98C1835.92,-165.49 1832.57,-152.2 1829.83,-141.32"/>
<polygon fill="midnightblue" stroke="midnightblue" points="1833.19,-140.35 1827.35,-131.51 1826.4,-142.06 1833.19,-140.35"/>
</g>
<!-- Node35 -->
<g id="node35" class="node">
<title>Node35</title>
<g id="a_node35"><a xlink:href="Color_8h_source.html" target="_top" xlink:title=" ">
<polygon fill="white" stroke="black" points="1914.71,-112.5 1914.71,-131.5 2007.71,-131.5 2007.71,-112.5 1914.71,-112.5"/>
<text text-anchor="middle" x="1961.21" y="-119.5" font-family="FreeSans" font-size="10.00">DGtal/io/Color.h</text>
</a>
</g>
</g>
<!-- Node33&#45;&gt;Node35 -->
<g id="edge58" class="edge">
<title>Node33&#45;&gt;Node35</title>
<path fill="none" stroke="midnightblue" d="M1857.54,-173.98C1877.76,-164.03 1911.4,-147.49 1934.85,-135.96"/>
<polygon fill="midnightblue" stroke="midnightblue" points="1936.47,-139.06 1943.9,-131.51 1933.39,-132.78 1936.47,-139.06"/>
</g>
<!-- Node33&#45;&gt;Node39 -->
<g id="edge66" class="edge">
<title>Node33&#45;&gt;Node39</title>
<path fill="none" stroke="midnightblue" d="M1896.52,-173.98C1968.01,-163.15 2091.18,-144.5 2167.08,-133.01"/>
<polygon fill="midnightblue" stroke="midnightblue" points="2167.64,-136.47 2177.01,-131.51 2166.59,-129.55 2167.64,-136.47"/>
</g>
<!-- Node35&#45;&gt;Node2 -->
<g id="edge59" class="edge">
<title>Node35&#45;&gt;Node2</title>
<path fill="none" stroke="midnightblue" d="M1942.74,-112.41C1923.71,-103.5 1893.24,-89.07 1867.21,-76 1850.15,-67.43 1847.49,-61.47 1829.21,-56 1750.79,-32.52 1505.55,-17.93 1408.41,-12.93"/>
<polygon fill="midnightblue" stroke="midnightblue" points="1408.56,-9.44 1398.4,-12.43 1408.21,-16.43 1408.56,-9.44"/>
</g>
<!-- Node35&#45;&gt;Node3 -->
<g id="edge60" class="edge">
<title>Node35&#45;&gt;Node3</title>
<path fill="none" stroke="midnightblue" d="M1959.78,-131.89C1956.64,-148.28 1947.44,-183.06 1924.21,-199 1887.36,-224.27 1603.79,-237.03 1466.81,-241.76"/>
<polygon fill="midnightblue" stroke="midnightblue" points="1466.69,-238.27 1456.81,-242.11 1466.92,-245.26 1466.69,-238.27"/>
</g>
<!-- Node35&#45;&gt;Node5 -->
<g id="edge62" class="edge">
<title>Node35&#45;&gt;Node5</title>
<path fill="none" stroke="midnightblue" d="M1933.8,-112.44C1904.44,-103.28 1857.69,-88.69 1825.11,-78.52"/>
<polygon fill="midnightblue" stroke="midnightblue" points="1826.08,-75.16 1815.49,-75.52 1824,-81.84 1826.08,-75.16"/>
</g>
<!-- Node36 -->
<g id="node36" class="node">
<title>Node36</title>
<g id="a_node36"><a xlink:title=" ">
<polygon fill="white" stroke="#bfbfbf" points="1876.71,-56.5 1876.71,-75.5 2001.71,-75.5 2001.71,-56.5 1876.71,-56.5"/>
<text text-anchor="middle" x="1939.21" y="-63.5" font-family="FreeSans" font-size="10.00">boost/lexical_cast.hpp</text>
</a>
</g>
</g>
<!-- Node35&#45;&gt;Node36 -->
<g id="edge61" class="edge">
<title>Node35&#45;&gt;Node36</title>
<path fill="none" stroke="midnightblue" d="M1957.58,-112.08C1954.6,-104.77 1950.28,-94.18 1946.58,-85.1"/>
<polygon fill="midnightblue" stroke="midnightblue" points="1949.79,-83.69 1942.77,-75.75 1943.31,-86.33 1949.79,-83.69"/>
</g>
<!-- Node37 -->
<g id="node37" class="node">
<title>Node37</title>
<g id="a_node37"><a xlink:title=" ">
<polygon fill="white" stroke="#bfbfbf" points="2020.21,-56.5 2020.21,-75.5 2062.21,-75.5 2062.21,-56.5 2020.21,-56.5"/>
<text text-anchor="middle" x="2041.21" y="-63.5" font-family="FreeSans" font-size="10.00">array</text>
</a>
</g>
</g>
<!-- Node35&#45;&gt;Node37 -->
<g id="edge63" class="edge">
<title>Node35&#45;&gt;Node37</title>
<path fill="none" stroke="midnightblue" d="M1974.06,-112.32C1986.42,-103.98 2005.34,-91.21 2019.95,-81.35"/>
<polygon fill="midnightblue" stroke="midnightblue" points="2022.06,-84.15 2028.39,-75.65 2018.14,-78.35 2022.06,-84.15"/>
</g>
<!-- Node38 -->
<g id="node38" class="node">
<title>Node38</title>
<g id="a_node38"><a xlink:href="Color_8ih_source.html" target="_top" xlink:title=" ">
<polygon fill="white" stroke="black" points="2080.21,-56.5 2080.21,-75.5 2176.21,-75.5 2176.21,-56.5 2080.21,-56.5"/>
<text text-anchor="middle" x="2128.21" y="-63.5" font-family="FreeSans" font-size="10.00">DGtal/io/Color.ih</text>
</a>
</g>
</g>
<!-- Node35&#45;&gt;Node38 -->
<g id="edge64" class="edge">
<title>Node35&#45;&gt;Node38</title>
<path fill="none" stroke="midnightblue" d="M1987.67,-112.44C2015.89,-103.32 2060.75,-88.81 2092.18,-78.65"/>
<polygon fill="midnightblue" stroke="midnightblue" points="2093.43,-81.92 2101.87,-75.52 2091.28,-75.26 2093.43,-81.92"/>
</g>
<!-- Node39&#45;&gt;Node2 -->
<g id="edge67" class="edge">
<title>Node39&#45;&gt;Node2</title>
<path fill="none" stroke="midnightblue" d="M2229.76,-112.33C2223.42,-97.71 2208.42,-68.53 2185.21,-56 2116.54,-18.94 1564,-12.35 1408.68,-11.22"/>
<polygon fill="midnightblue" stroke="midnightblue" points="1408.64,-7.72 1398.62,-11.15 1408.59,-14.72 1408.64,-7.72"/>
</g>
<!-- Node40 -->
<g id="node40" class="node">
<title>Node40</title>
<g id="a_node40"><a xlink:title=" ">
<polygon fill="white" stroke="#bfbfbf" points="2425.71,-56.5 2425.71,-75.5 2532.71,-75.5 2532.71,-56.5 2425.71,-56.5"/>
<text text-anchor="middle" x="2479.21" y="-63.5" font-family="FreeSans" font-size="10.00">boost/function.hpp</text>
</a>
</g>
</g>
<!-- Node39&#45;&gt;Node40 -->
<g id="edge68" class="edge">
<title>Node39&#45;&gt;Node40</title>
<path fill="none" stroke="midnightblue" d="M2272.19,-112.44C2315.1,-103.02 2384.15,-87.87 2430.58,-77.68"/>
<polygon fill="midnightblue" stroke="midnightblue" points="2431.39,-81.08 2440.41,-75.52 2429.89,-74.24 2431.39,-81.08"/>
</g>
<!-- Node41 -->
<g id="node41" class="node">
<title>Node41</title>
<g id="a_node41"><a xlink:href="BasicBoolFunctors_8ih_source.html" target="_top" xlink:title=" ">
<polygon fill="white" stroke="black" points="2232.71,-56.5 2232.71,-75.5 2407.71,-75.5 2407.71,-56.5 2232.71,-56.5"/>
<text text-anchor="middle" x="2320.21" y="-63.5" font-family="FreeSans" font-size="10.00">DGtal/base/BasicBoolFunctors.ih</text>
</a>
</g>
</g>
<!-- Node39&#45;&gt;Node41 -->
<g id="edge69" class="edge">
<title>Node39&#45;&gt;Node41</title>
<path fill="none" stroke="midnightblue" d="M2247.19,-112.32C2260.76,-103.9 2281.59,-90.97 2297.53,-81.07"/>
<polygon fill="midnightblue" stroke="midnightblue" points="2299.61,-83.9 2306.26,-75.65 2295.92,-77.95 2299.61,-83.9"/>
</g>
<!-- Node42&#45;&gt;Node2 -->
<g id="edge71" class="edge">
<title>Node42&#45;&gt;Node2</title>
<path fill="none" stroke="midnightblue" d="M1358.07,-112.37C1359.85,-94.62 1363.94,-53.67 1366.35,-29.6"/>
<polygon fill="midnightblue" stroke="midnightblue" points="1369.84,-29.89 1367.35,-19.59 1362.87,-29.19 1369.84,-29.89"/>
</g>
<!-- Node43&#45;&gt;Node2 -->
<g id="edge73" class="edge">
<title>Node43&#45;&gt;Node2</title>
<path fill="none" stroke="midnightblue" d="M1517.53,-173.75C1502.7,-160.37 1473.39,-134.03 1448.21,-112 1429.7,-95.81 1421.96,-94.87 1406.21,-76 1394.06,-61.45 1383.48,-42.52 1376.59,-28.85"/>
<polygon fill="midnightblue" stroke="midnightblue" points="1379.6,-27.04 1372.08,-19.58 1373.31,-30.1 1379.6,-27.04"/>
</g>
</g>
</svg>
