<?xml version="1.0" encoding="UTF-8" standalone="no"?>
<!DOCTYPE svg PUBLIC "-//W3C//DTD SVG 1.1//EN"
 "http://www.w3.org/Graphics/SVG/1.1/DTD/svg11.dtd">
<!-- Generated by graphviz version 2.43.0 (0)
 -->
<!-- Title: testPartialTemplateSpecialization.cpp Pages: 1 -->
<!--zoomable 330 -->
<svg id="main" version="1.1" xmlns="http://www.w3.org/2000/svg" xmlns:xlink="http://www.w3.org/1999/xlink" xml:space="preserve" onload="init(evt)">
<style type="text/css"><![CDATA[
.edge:hover path { stroke: red; }
.edge:hover polygon { stroke: red; fill: red; }
]]></style>
<script type="text/javascript"><![CDATA[
var edges = document.getElementsByTagName('g');
if (edges && edges.length) {
  for (var i=0;i<edges.length;i++) {
    if (edges[i].id.substr(0,4)=='edge') {
      edges[i].setAttribute('class','edge');
    }
  }
}
]]></script>
        <defs>
                <circle id="rim" cx="0" cy="0" r="7"/>
                <circle id="rim2" cx="0" cy="0" r="3.5"/>
                <g id="zoomPlus">
                        <use xlink:href="#rim" fill="#404040">
                                <set attributeName="fill" to="#808080" begin="zoomplus.mouseover" end="zoomplus.mouseout"/>
                        </use>
                        <path d="M-4,0h8M0,-4v8" fill="none" stroke="white" stroke-width="1.5" pointer-events="none"/>
                </g>
                <g id="zoomMin">
                        <use xlink:href="#rim" fill="#404040">
                                <set attributeName="fill" to="#808080" begin="zoomminus.mouseover" end="zoomminus.mouseout"/>
                        </use>
                        <path d="M-4,0h8" fill="none" stroke="white" stroke-width="1.5" pointer-events="none"/>
                </g>
                <g id="dirArrow">
                        <path fill="none" stroke="white" stroke-width="1.5" d="M0,-3.0v7 M-2.5,-0.5L0,-3.0L2.5,-0.5"/>
                </g>
               <g id="resetDef">
                       <use xlink:href="#rim2" fill="#404040">
                               <set attributeName="fill" to="#808080" begin="reset.mouseover" end="reset.mouseout"/>
                       </use>
               </g>
        </defs>

<script type="text/javascript">
var viewWidth = 2748;
var viewHeight = 330;
var sectionId = 'dynsection-0';
</script>
<script xlink:href="svgpan.js"/>
<svg id="graph" class="graph">
<g id="viewport">
<title>testPartialTemplateSpecialization.cpp</title>
<polygon fill="white" stroke="transparent" points="-4,4 -4,-326 2744,-326 2744,4 -4,4"/>
<!-- Node1 -->
<g id="node1" class="node">
<title>Node1</title>
<g id="a_node1"><a xlink:title=" ">
<polygon fill="#bfbfbf" stroke="black" points="1991,-302.5 1991,-321.5 2191,-321.5 2191,-302.5 1991,-302.5"/>
<text text-anchor="middle" x="2091" y="-309.5" font-family="FreeSans" font-size="10.00">testPartialTemplateSpecialization.cpp</text>
</a>
</g>
</g>
<!-- Node2 -->
<g id="node2" class="node">
<title>Node2</title>
<g id="a_node2"><a xlink:title=" ">
<polygon fill="white" stroke="#bfbfbf" points="1645,-0.5 1645,-19.5 1705,-19.5 1705,-0.5 1645,-0.5"/>
<text text-anchor="middle" x="1675" y="-7.5" font-family="FreeSans" font-size="10.00">iostream</text>
</a>
</g>
</g>
<!-- Node1&#45;&gt;Node2 -->
<g id="edge1" class="edge">
<title>Node1&#45;&gt;Node2</title>
<path fill="none" stroke="midnightblue" d="M2191.34,-311.9C2373.51,-310.82 2740,-294.92 2740,-184.5 2740,-184.5 2740,-184.5 2740,-121 2740,-82.28 2716.97,-72.61 2682,-56 2593.65,-14.03 1891.66,-11.05 1715.16,-10.96"/>
<polygon fill="midnightblue" stroke="midnightblue" points="1715.01,-7.46 1705.01,-10.96 1715.01,-14.46 1715.01,-7.46"/>
</g>
<!-- Node3 -->
<g id="node3" class="node">
<title>Node3</title>
<g id="a_node3"><a xlink:title=" ">
<polygon fill="white" stroke="#bfbfbf" points="1908,-235.5 1908,-265.5 2018,-265.5 2018,-235.5 1908,-235.5"/>
<text text-anchor="start" x="1916" y="-253.5" font-family="FreeSans" font-size="10.00">boost/type_traits/is</text>
<text text-anchor="middle" x="1963" y="-242.5" font-family="FreeSans" font-size="10.00">_arithmetic.hpp</text>
</a>
</g>
</g>
<!-- Node1&#45;&gt;Node3 -->
<g id="edge2" class="edge">
<title>Node1&#45;&gt;Node3</title>
<path fill="none" stroke="midnightblue" d="M2072.66,-302.48C2054.43,-294 2025.9,-280.74 2002.5,-269.86"/>
<polygon fill="midnightblue" stroke="midnightblue" points="2003.71,-266.56 1993.17,-265.52 2000.76,-272.91 2003.71,-266.56"/>
</g>
<!-- Node4 -->
<g id="node4" class="node">
<title>Node4</title>
<g id="a_node4"><a xlink:title=" ">
<polygon fill="white" stroke="#bfbfbf" points="2036,-235.5 2036,-265.5 2146,-265.5 2146,-235.5 2036,-235.5"/>
<text text-anchor="start" x="2044" y="-253.5" font-family="FreeSans" font-size="10.00">boost/type_traits/is</text>
<text text-anchor="middle" x="2091" y="-242.5" font-family="FreeSans" font-size="10.00">_integral.hpp</text>
</a>
</g>
</g>
<!-- Node1&#45;&gt;Node4 -->
<g id="edge3" class="edge">
<title>Node1&#45;&gt;Node4</title>
<path fill="none" stroke="midnightblue" d="M2091,-302.48C2091,-295.47 2091,-285.19 2091,-275.7"/>
<polygon fill="midnightblue" stroke="midnightblue" points="2094.5,-275.52 2091,-265.52 2087.5,-275.52 2094.5,-275.52"/>
</g>
<!-- Node5 -->
<g id="node5" class="node">
<title>Node5</title>
<g id="a_node5"><a xlink:title=" ">
<polygon fill="white" stroke="#bfbfbf" points="2164.5,-235.5 2164.5,-265.5 2275.5,-265.5 2275.5,-235.5 2164.5,-235.5"/>
<text text-anchor="start" x="2172.5" y="-253.5" font-family="FreeSans" font-size="10.00">boost/utility/enable</text>
<text text-anchor="middle" x="2220" y="-242.5" font-family="FreeSans" font-size="10.00">_if.hpp</text>
</a>
</g>
</g>
<!-- Node1&#45;&gt;Node5 -->
<g id="edge4" class="edge">
<title>Node1&#45;&gt;Node5</title>
<path fill="none" stroke="midnightblue" d="M2109.48,-302.48C2127.93,-293.96 2156.87,-280.62 2180.5,-269.72"/>
<polygon fill="midnightblue" stroke="midnightblue" points="2181.98,-272.89 2189.6,-265.52 2179.05,-266.53 2181.98,-272.89"/>
</g>
<!-- Node6 -->
<g id="node6" class="node">
<title>Node6</title>
<g id="a_node6"><a xlink:href="Common_8h_source.html" target="_top" xlink:title=" ">
<polygon fill="white" stroke="black" points="1325.5,-241 1325.5,-260 1452.5,-260 1452.5,-241 1325.5,-241"/>
<text text-anchor="middle" x="1389" y="-248" font-family="FreeSans" font-size="10.00">DGtal/base/Common.h</text>
</a>
</g>
</g>
<!-- Node1&#45;&gt;Node6 -->
<g id="edge5" class="edge">
<title>Node1&#45;&gt;Node6</title>
<path fill="none" stroke="midnightblue" d="M1990.79,-302.51C1848.05,-290.41 1589.48,-268.49 1462.87,-257.76"/>
<polygon fill="midnightblue" stroke="midnightblue" points="1463.14,-254.27 1452.88,-256.91 1462.55,-261.25 1463.14,-254.27"/>
</g>
<!-- Node6&#45;&gt;Node2 -->
<g id="edge6" class="edge">
<title>Node6&#45;&gt;Node2</title>
<path fill="none" stroke="midnightblue" d="M1399.6,-240.92C1422.38,-222.25 1477.29,-176.05 1518,-132 1547.02,-100.6 1543.5,-82.57 1577,-56 1595.19,-41.57 1618.77,-30.56 1638.23,-23.04"/>
<polygon fill="midnightblue" stroke="midnightblue" points="1639.54,-26.29 1647.7,-19.53 1637.11,-19.72 1639.54,-26.29"/>
</g>
<!-- Node7 -->
<g id="node7" class="node">
<title>Node7</title>
<g id="a_node7"><a xlink:title=" ">
<polygon fill="white" stroke="#bfbfbf" points="2305.5,-174 2305.5,-193 2370.5,-193 2370.5,-174 2305.5,-174"/>
<text text-anchor="middle" x="2338" y="-181" font-family="FreeSans" font-size="10.00">exception</text>
</a>
</g>
</g>
<!-- Node6&#45;&gt;Node7 -->
<g id="edge7" class="edge">
<title>Node6&#45;&gt;Node7</title>
<path fill="none" stroke="midnightblue" d="M1452.73,-247.95C1630.56,-243.29 2129.68,-227.95 2291,-199 2295.47,-198.2 2300.11,-197.1 2304.66,-195.87"/>
<polygon fill="midnightblue" stroke="midnightblue" points="2305.76,-199.2 2314.37,-193.02 2303.79,-192.48 2305.76,-199.2"/>
</g>
<!-- Node8 -->
<g id="node8" class="node">
<title>Node8</title>
<g id="a_node8"><a xlink:title=" ">
<polygon fill="white" stroke="#bfbfbf" points="2216,-56.5 2216,-75.5 2280,-75.5 2280,-56.5 2216,-56.5"/>
<text text-anchor="middle" x="2248" y="-63.5" font-family="FreeSans" font-size="10.00">algorithm</text>
</a>
</g>
</g>
<!-- Node6&#45;&gt;Node8 -->
<g id="edge8" class="edge">
<title>Node6&#45;&gt;Node8</title>
<path fill="none" stroke="midnightblue" d="M1452.6,-248.49C1609.42,-245.47 2011.25,-234.41 2140,-199 2203.44,-181.55 2237.58,-188.07 2272,-132 2281.29,-116.86 2271.88,-97.56 2262.25,-83.94"/>
<polygon fill="midnightblue" stroke="midnightblue" points="2264.95,-81.71 2256.08,-75.91 2259.4,-85.97 2264.95,-81.71"/>
</g>
<!-- Node9 -->
<g id="node9" class="node">
<title>Node9</title>
<g id="a_node9"><a xlink:title=" ">
<polygon fill="white" stroke="#bfbfbf" points="0,-174 0,-193 104,-193 104,-174 0,-174"/>
<text text-anchor="middle" x="52" y="-181" font-family="FreeSans" font-size="10.00">boost/version.hpp</text>
</a>
</g>
</g>
<!-- Node6&#45;&gt;Node9 -->
<g id="edge9" class="edge">
<title>Node6&#45;&gt;Node9</title>
<path fill="none" stroke="midnightblue" d="M1325.39,-248.61C1101.58,-245.24 351.17,-231.71 113,-199 106.49,-198.11 99.66,-196.83 93.02,-195.39"/>
<polygon fill="midnightblue" stroke="midnightblue" points="93.34,-191.88 82.81,-193.05 91.78,-198.7 93.34,-191.88"/>
</g>
<!-- Node10 -->
<g id="node10" class="node">
<title>Node10</title>
<g id="a_node10"><a xlink:title=" ">
<polygon fill="white" stroke="#bfbfbf" points="122,-174 122,-193 262,-193 262,-174 122,-174"/>
<text text-anchor="middle" x="192" y="-181" font-family="FreeSans" font-size="10.00">boost/concept_check.hpp</text>
</a>
</g>
</g>
<!-- Node6&#45;&gt;Node10 -->
<g id="edge10" class="edge">
<title>Node6&#45;&gt;Node10</title>
<path fill="none" stroke="midnightblue" d="M1325.41,-249.66C1154.37,-249.42 670.37,-244.46 271,-199 261.74,-197.95 251.93,-196.45 242.49,-194.83"/>
<polygon fill="midnightblue" stroke="midnightblue" points="242.9,-191.34 232.44,-193.02 241.66,-198.23 242.9,-191.34"/>
</g>
<!-- Node11 -->
<g id="node11" class="node">
<title>Node11</title>
<g id="a_node11"><a xlink:title=" ">
<polygon fill="white" stroke="#bfbfbf" points="280,-174 280,-193 410,-193 410,-174 280,-174"/>
<text text-anchor="middle" x="345" y="-181" font-family="FreeSans" font-size="10.00">boost/static_assert.hpp</text>
</a>
</g>
</g>
<!-- Node6&#45;&gt;Node11 -->
<g id="edge11" class="edge">
<title>Node6&#45;&gt;Node11</title>
<path fill="none" stroke="midnightblue" d="M1325.46,-249.29C1170.12,-248.12 758.95,-240.94 419,-199 410.6,-197.96 401.71,-196.52 393.13,-194.95"/>
<polygon fill="midnightblue" stroke="midnightblue" points="393.72,-191.5 383.24,-193.06 392.41,-198.38 393.72,-191.5"/>
</g>
<!-- Node12 -->
<g id="node12" class="node">
<title>Node12</title>
<g id="a_node12"><a xlink:title=" ">
<polygon fill="white" stroke="#bfbfbf" points="428.5,-174 428.5,-193 567.5,-193 567.5,-174 428.5,-174"/>
<text text-anchor="middle" x="498" y="-181" font-family="FreeSans" font-size="10.00">boost/concept/assert.hpp</text>
</a>
</g>
</g>
<!-- Node6&#45;&gt;Node12 -->
<g id="edge12" class="edge">
<title>Node6&#45;&gt;Node12</title>
<path fill="none" stroke="midnightblue" d="M1325.25,-248.18C1187.84,-244.75 853.72,-233.31 576,-199 567.16,-197.91 557.81,-196.44 548.77,-194.86"/>
<polygon fill="midnightblue" stroke="midnightblue" points="549.2,-191.38 538.74,-193.04 547.96,-198.27 549.2,-191.38"/>
</g>
<!-- Node13 -->
<g id="node13" class="node">
<title>Node13</title>
<g id="a_node13"><a xlink:title=" ">
<polygon fill="white" stroke="#bfbfbf" points="585.5,-174 585.5,-193 734.5,-193 734.5,-174 585.5,-174"/>
<text text-anchor="middle" x="660" y="-181" font-family="FreeSans" font-size="10.00">boost/concept/requires.hpp</text>
</a>
</g>
</g>
<!-- Node6&#45;&gt;Node13 -->
<g id="edge13" class="edge">
<title>Node6&#45;&gt;Node13</title>
<path fill="none" stroke="midnightblue" d="M1325.17,-246.47C1209.15,-240.53 956.04,-225.54 744,-199 734.52,-197.81 724.48,-196.3 714.76,-194.71"/>
<polygon fill="midnightblue" stroke="midnightblue" points="715.23,-191.24 704.79,-193.02 714.06,-198.14 715.23,-191.24"/>
</g>
<!-- Node14 -->
<g id="node14" class="node">
<title>Node14</title>
<g id="a_node14"><a xlink:title=" ">
<polygon fill="white" stroke="#bfbfbf" points="753,-168.5 753,-198.5 875,-198.5 875,-168.5 753,-168.5"/>
<text text-anchor="start" x="761" y="-186.5" font-family="FreeSans" font-size="10.00">boost/iterator/iterator</text>
<text text-anchor="middle" x="814" y="-175.5" font-family="FreeSans" font-size="10.00">_concepts.hpp</text>
</a>
</g>
</g>
<!-- Node6&#45;&gt;Node14 -->
<g id="edge14" class="edge">
<title>Node6&#45;&gt;Node14</title>
<path fill="none" stroke="midnightblue" d="M1325.35,-245.28C1231.3,-238.57 1049.51,-223.8 885.31,-199.1"/>
<polygon fill="midnightblue" stroke="midnightblue" points="885.43,-195.57 875.02,-197.53 884.38,-202.49 885.43,-195.57"/>
</g>
<!-- Node15 -->
<g id="node15" class="node">
<title>Node15</title>
<g id="a_node15"><a xlink:title=" ">
<polygon fill="white" stroke="#bfbfbf" points="893,-174 893,-193 1053,-193 1053,-174 893,-174"/>
<text text-anchor="middle" x="973" y="-181" font-family="FreeSans" font-size="10.00">boost/concept_archetype.hpp</text>
</a>
</g>
</g>
<!-- Node6&#45;&gt;Node15 -->
<g id="edge15" class="edge">
<title>Node6&#45;&gt;Node15</title>
<path fill="none" stroke="midnightblue" d="M1334.19,-240.94C1257.7,-228.98 1119.2,-207.34 1037.73,-194.61"/>
<polygon fill="midnightblue" stroke="midnightblue" points="1038.02,-191.12 1027.6,-193.03 1036.94,-198.03 1038.02,-191.12"/>
</g>
<!-- Node16 -->
<g id="node16" class="node">
<title>Node16</title>
<g id="a_node16"><a xlink:title=" ">
<polygon fill="white" stroke="#bfbfbf" points="1904.5,-112.5 1904.5,-131.5 1951.5,-131.5 1951.5,-112.5 1904.5,-112.5"/>
<text text-anchor="middle" x="1928" y="-119.5" font-family="FreeSans" font-size="10.00">cmath</text>
</a>
</g>
</g>
<!-- Node6&#45;&gt;Node16 -->
<g id="edge16" class="edge">
<title>Node6&#45;&gt;Node16</title>
<path fill="none" stroke="midnightblue" d="M1445.53,-240.99C1501.95,-232.09 1590.97,-216.93 1667,-199 1749.77,-179.49 1845.32,-149.79 1894.66,-133.92"/>
<polygon fill="midnightblue" stroke="midnightblue" points="1896.03,-137.15 1904.47,-130.75 1893.88,-130.49 1896.03,-137.15"/>
</g>
<!-- Node17 -->
<g id="node17" class="node">
<title>Node17</title>
<g id="a_node17"><a xlink:title=" ">
<polygon fill="white" stroke="#bfbfbf" points="1109,-174 1109,-193 1159,-193 1159,-174 1109,-174"/>
<text text-anchor="middle" x="1134" y="-181" font-family="FreeSans" font-size="10.00">stdio.h</text>
</a>
</g>
</g>
<!-- Node6&#45;&gt;Node17 -->
<g id="edge17" class="edge">
<title>Node6&#45;&gt;Node17</title>
<path fill="none" stroke="midnightblue" d="M1345.13,-240.94C1301.19,-231.97 1231.81,-216.73 1173,-199 1170.43,-198.23 1167.78,-197.37 1165.14,-196.47"/>
<polygon fill="midnightblue" stroke="midnightblue" points="1166.29,-193.17 1155.7,-193.12 1163.95,-199.77 1166.29,-193.17"/>
</g>
<!-- Node18 -->
<g id="node18" class="node">
<title>Node18</title>
<g id="a_node18"><a xlink:href="Config_8h_source.html" target="_top" xlink:title=" ">
<polygon fill="white" stroke="black" points="937.5,-56.5 937.5,-75.5 1050.5,-75.5 1050.5,-56.5 937.5,-56.5"/>
<text text-anchor="middle" x="994" y="-63.5" font-family="FreeSans" font-size="10.00">DGtal/base/Config.h</text>
</a>
</g>
</g>
<!-- Node6&#45;&gt;Node18 -->
<g id="edge18" class="edge">
<title>Node6&#45;&gt;Node18</title>
<path fill="none" stroke="midnightblue" d="M1388.5,-240.91C1386.56,-216.13 1377.27,-144.3 1334,-112 1323.18,-103.92 1157,-84.7 1061.05,-74.18"/>
<polygon fill="midnightblue" stroke="midnightblue" points="1061.17,-70.67 1050.85,-73.07 1060.41,-77.63 1061.17,-70.67"/>
</g>
<!-- Node20 -->
<g id="node20" class="node">
<title>Node20</title>
<g id="a_node20"><a xlink:href="Trace_8h_source.html" target="_top" xlink:title=" ">
<polygon fill="white" stroke="black" points="1215,-174 1215,-193 1323,-193 1323,-174 1215,-174"/>
<text text-anchor="middle" x="1269" y="-181" font-family="FreeSans" font-size="10.00">DGtal/base/Trace.h</text>
</a>
</g>
</g>
<!-- Node6&#45;&gt;Node20 -->
<g id="edge21" class="edge">
<title>Node6&#45;&gt;Node20</title>
<path fill="none" stroke="midnightblue" d="M1372.82,-240.73C1352.57,-229.77 1317.7,-210.88 1294.01,-198.05"/>
<polygon fill="midnightblue" stroke="midnightblue" points="1295.39,-194.81 1284.93,-193.13 1292.05,-200.97 1295.39,-194.81"/>
</g>
<!-- Node27 -->
<g id="node27" class="node">
<title>Node27</title>
<g id="a_node27"><a xlink:href="TraceWriterTerm_8h_source.html" target="_top" xlink:title=" ">
<polygon fill="white" stroke="black" points="803,-112.5 803,-131.5 965,-131.5 965,-112.5 803,-112.5"/>
<text text-anchor="middle" x="884" y="-119.5" font-family="FreeSans" font-size="10.00">DGtal/base/TraceWriterTerm.h</text>
</a>
</g>
</g>
<!-- Node6&#45;&gt;Node27 -->
<g id="edge44" class="edge">
<title>Node6&#45;&gt;Node27</title>
<path fill="none" stroke="midnightblue" d="M1336.39,-240.99C1298.61,-233.48 1247.29,-220.33 1206,-199 1186.63,-189 1187.9,-176.9 1168,-168 1134.34,-152.94 1044.95,-140.28 975.36,-132.26"/>
<polygon fill="midnightblue" stroke="midnightblue" points="975.58,-128.76 965.25,-131.11 974.79,-135.71 975.58,-128.76"/>
</g>
<!-- Node28 -->
<g id="node28" class="node">
<title>Node28</title>
<g id="a_node28"><a xlink:href="Assert_8h_source.html" target="_top" xlink:title=" ">
<polygon fill="white" stroke="black" points="1212.5,-112.5 1212.5,-131.5 1325.5,-131.5 1325.5,-112.5 1212.5,-112.5"/>
<text text-anchor="middle" x="1269" y="-119.5" font-family="FreeSans" font-size="10.00">DGtal/base/Assert.h</text>
</a>
</g>
</g>
<!-- Node6&#45;&gt;Node28 -->
<g id="edge49" class="edge">
<title>Node6&#45;&gt;Node28</title>
<path fill="none" stroke="midnightblue" d="M1384.33,-240.94C1375.51,-225.27 1355.2,-191.44 1332,-168 1320.2,-156.09 1304.95,-145.1 1292.4,-136.97"/>
<polygon fill="midnightblue" stroke="midnightblue" points="1294.16,-133.94 1283.84,-131.57 1290.44,-139.86 1294.16,-133.94"/>
</g>
<!-- Node31 -->
<g id="node31" class="node">
<title>Node31</title>
<g id="a_node31"><a xlink:href="TraceWriterFile_8h_source.html" target="_top" xlink:title=" ">
<polygon fill="white" stroke="black" points="591.5,-112.5 591.5,-131.5 746.5,-131.5 746.5,-112.5 591.5,-112.5"/>
<text text-anchor="middle" x="669" y="-119.5" font-family="FreeSans" font-size="10.00">DGtal/base/TraceWriterFile.h</text>
</a>
</g>
</g>
<!-- Node6&#45;&gt;Node31 -->
<g id="edge45" class="edge">
<title>Node6&#45;&gt;Node31</title>
<path fill="none" stroke="midnightblue" d="M1325.4,-247.6C1264.95,-243.7 1172.73,-232.24 1100,-199 1080.18,-189.94 1082.08,-176.47 1062,-168 1034.57,-156.43 863.98,-139.89 756.76,-130.42"/>
<polygon fill="midnightblue" stroke="midnightblue" points="756.86,-126.91 746.59,-129.52 756.25,-133.88 756.86,-126.91"/>
</g>
<!-- Node32 -->
<g id="node32" class="node">
<title>Node32</title>
<g id="a_node32"><a xlink:href="ConceptUtils_8h_source.html" target="_top" xlink:title=" ">
<polygon fill="white" stroke="black" points="1741.5,-112.5 1741.5,-131.5 1886.5,-131.5 1886.5,-112.5 1741.5,-112.5"/>
<text text-anchor="middle" x="1814" y="-119.5" font-family="FreeSans" font-size="10.00">DGtal/base/ConceptUtils.h</text>
</a>
</g>
</g>
<!-- Node6&#45;&gt;Node32 -->
<g id="edge50" class="edge">
<title>Node6&#45;&gt;Node32</title>
<path fill="none" stroke="midnightblue" d="M1432.64,-240.97C1476.75,-231.98 1546.69,-216.67 1606,-199 1670.37,-179.83 1743.75,-151.43 1783.86,-135.33"/>
<polygon fill="midnightblue" stroke="midnightblue" points="1785.36,-138.5 1793.32,-131.51 1782.74,-132.01 1785.36,-138.5"/>
</g>
<!-- Node33 -->
<g id="node33" class="node">
<title>Node33</title>
<g id="a_node33"><a xlink:href="BasicTypes_8h_source.html" target="_top" xlink:title=" ">
<polygon fill="white" stroke="black" points="1586.5,-112.5 1586.5,-131.5 1723.5,-131.5 1723.5,-112.5 1586.5,-112.5"/>
<text text-anchor="middle" x="1655" y="-119.5" font-family="FreeSans" font-size="10.00">DGtal/base/BasicTypes.h</text>
</a>
</g>
</g>
<!-- Node6&#45;&gt;Node33 -->
<g id="edge52" class="edge">
<title>Node6&#45;&gt;Node33</title>
<path fill="none" stroke="midnightblue" d="M1445.67,-241C1483.22,-233.69 1532.63,-220.78 1572,-199 1600.06,-183.48 1626.26,-156.61 1641.45,-139.34"/>
<polygon fill="midnightblue" stroke="midnightblue" points="1644.13,-141.59 1647.98,-131.72 1638.81,-137.03 1644.13,-141.59"/>
</g>
<!-- Node36 -->
<g id="node36" class="node">
<title>Node36</title>
<g id="a_node36"><a xlink:href="BasicFunctors_8h_source.html" target="_top" xlink:title=" ">
<polygon fill="white" stroke="black" points="1981,-174 1981,-193 2131,-193 2131,-174 1981,-174"/>
<text text-anchor="middle" x="2056" y="-181" font-family="FreeSans" font-size="10.00">DGtal/base/BasicFunctors.h</text>
</a>
</g>
</g>
<!-- Node6&#45;&gt;Node36 -->
<g id="edge57" class="edge">
<title>Node6&#45;&gt;Node36</title>
<path fill="none" stroke="midnightblue" d="M1452.65,-242.88C1573.25,-230.82 1834.86,-205.31 1970.56,-192.38"/>
<polygon fill="midnightblue" stroke="midnightblue" points="1971.29,-195.83 1980.91,-191.39 1970.62,-188.86 1971.29,-195.83"/>
</g>
<!-- Node45 -->
<g id="node45" class="node">
<title>Node45</title>
<g id="a_node45"><a xlink:href="BasicArchetypes_8h_source.html" target="_top" xlink:title=" ">
<polygon fill="white" stroke="black" points="2488,-112.5 2488,-131.5 2652,-131.5 2652,-112.5 2488,-112.5"/>
<text text-anchor="middle" x="2570" y="-119.5" font-family="FreeSans" font-size="10.00">DGtal/base/BasicArchetypes.h</text>
</a>
</g>
</g>
<!-- Node6&#45;&gt;Node45 -->
<g id="edge73" class="edge">
<title>Node6&#45;&gt;Node45</title>
<path fill="none" stroke="midnightblue" d="M1452.5,-247.69C1659.75,-241.6 2308.3,-220.97 2400,-199 2455.27,-185.76 2514.81,-154.86 2546.68,-136.8"/>
<polygon fill="midnightblue" stroke="midnightblue" points="2548.72,-139.66 2555.65,-131.64 2545.23,-133.59 2548.72,-139.66"/>
</g>
<!-- Node46 -->
<g id="node46" class="node">
<title>Node46</title>
<g id="a_node46"><a xlink:href="Exceptions_8h_source.html" target="_top" xlink:title=" ">
<polygon fill="white" stroke="black" points="2552,-174 2552,-193 2688,-193 2688,-174 2552,-174"/>
<text text-anchor="middle" x="2620" y="-181" font-family="FreeSans" font-size="10.00">DGtal/base/Exceptions.h</text>
</a>
</g>
</g>
<!-- Node6&#45;&gt;Node46 -->
<g id="edge75" class="edge">
<title>Node6&#45;&gt;Node46</title>
<path fill="none" stroke="midnightblue" d="M1452.7,-248.03C1621.85,-243.82 2096.32,-229.95 2490,-199 2506.84,-197.68 2524.88,-195.9 2541.99,-194.04"/>
<polygon fill="midnightblue" stroke="midnightblue" points="2542.38,-197.52 2551.94,-192.94 2541.61,-190.56 2542.38,-197.52"/>
</g>
<!-- Node18&#45;&gt;Node2 -->
<g id="edge19" class="edge">
<title>Node18&#45;&gt;Node2</title>
<path fill="none" stroke="midnightblue" d="M1050.67,-60.01C1066.02,-58.68 1082.65,-57.26 1098,-56 1299.52,-39.42 1540.78,-21.1 1634.76,-14.02"/>
<polygon fill="midnightblue" stroke="midnightblue" points="1635.25,-17.49 1644.96,-13.25 1634.72,-10.51 1635.25,-17.49"/>
</g>
<!-- Node19 -->
<g id="node19" class="node">
<title>Node19</title>
<g id="a_node19"><a xlink:title=" ">
<polygon fill="white" stroke="#bfbfbf" points="849,-0.5 849,-19.5 893,-19.5 893,-0.5 849,-0.5"/>
<text text-anchor="middle" x="871" y="-7.5" font-family="FreeSans" font-size="10.00">string</text>
</a>
</g>
</g>
<!-- Node18&#45;&gt;Node19 -->
<g id="edge20" class="edge">
<title>Node18&#45;&gt;Node19</title>
<path fill="none" stroke="midnightblue" d="M974.51,-56.44C954.36,-47.6 922.68,-33.69 899.67,-23.59"/>
<polygon fill="midnightblue" stroke="midnightblue" points="900.96,-20.33 890.4,-19.52 898.15,-26.74 900.96,-20.33"/>
</g>
<!-- Node20&#45;&gt;Node2 -->
<g id="edge22" class="edge">
<title>Node20&#45;&gt;Node2</title>
<path fill="none" stroke="midnightblue" d="M1323.06,-178.42C1384.48,-172.52 1479.08,-159.2 1501,-132 1523.78,-103.72 1448.26,-84.31 1471,-56 1491.12,-30.95 1581.12,-19.02 1634.62,-14.05"/>
<polygon fill="midnightblue" stroke="midnightblue" points="1635.15,-17.51 1644.81,-13.14 1634.54,-10.54 1635.15,-17.51"/>
</g>
<!-- Node20&#45;&gt;Node18 -->
<g id="edge26" class="edge">
<title>Node20&#45;&gt;Node18</title>
<path fill="none" stroke="midnightblue" d="M1258.67,-173.82C1240.61,-159.06 1201.61,-129.02 1164,-112 1128.84,-96.08 1086.95,-84.91 1053.55,-77.68"/>
<polygon fill="midnightblue" stroke="midnightblue" points="1053.98,-74.2 1043.47,-75.56 1052.54,-81.05 1053.98,-74.2"/>
</g>
<!-- Node20&#45;&gt;Node19 -->
<g id="edge24" class="edge">
<title>Node20&#45;&gt;Node19</title>
<path fill="none" stroke="midnightblue" d="M1215.37,-173.97C1200.1,-171.77 1183.42,-169.58 1168,-168 1103.11,-161.36 626.69,-179.52 582,-132 503.76,-48.8 748.27,-20.68 838.73,-13.26"/>
<polygon fill="midnightblue" stroke="midnightblue" points="839.28,-16.73 848.97,-12.46 838.73,-9.75 839.28,-16.73"/>
</g>
<!-- Node21 -->
<g id="node21" class="node">
<title>Node21</title>
<g id="a_node21"><a xlink:title=" ">
<polygon fill="white" stroke="#bfbfbf" points="621.5,-0.5 621.5,-19.5 678.5,-19.5 678.5,-0.5 621.5,-0.5"/>
<text text-anchor="middle" x="650" y="-7.5" font-family="FreeSans" font-size="10.00">ostream</text>
</a>
</g>
</g>
<!-- Node20&#45;&gt;Node21 -->
<g id="edge23" class="edge">
<title>Node20&#45;&gt;Node21</title>
<path fill="none" stroke="midnightblue" d="M1215.64,-174C1200.29,-171.78 1183.51,-169.58 1168,-168 1101.44,-161.24 612.87,-180.7 567,-132 554.61,-118.85 559.03,-83.55 578,-56 587.74,-41.86 603.52,-31.27 617.83,-23.93"/>
<polygon fill="midnightblue" stroke="midnightblue" points="619.44,-27.04 626.95,-19.57 616.41,-20.73 619.44,-27.04"/>
</g>
<!-- Node22 -->
<g id="node22" class="node">
<title>Node22</title>
<g id="a_node22"><a xlink:title=" ">
<polygon fill="white" stroke="#bfbfbf" points="1112.5,-112.5 1112.5,-131.5 1155.5,-131.5 1155.5,-112.5 1112.5,-112.5"/>
<text text-anchor="middle" x="1134" y="-119.5" font-family="FreeSans" font-size="10.00">stack</text>
</a>
</g>
</g>
<!-- Node20&#45;&gt;Node22 -->
<g id="edge25" class="edge">
<title>Node20&#45;&gt;Node22</title>
<path fill="none" stroke="midnightblue" d="M1249.66,-173.98C1226.9,-163.95 1188.91,-147.2 1162.71,-135.65"/>
<polygon fill="midnightblue" stroke="midnightblue" points="1163.87,-132.34 1153.31,-131.51 1161.05,-138.74 1163.87,-132.34"/>
</g>
<!-- Node23 -->
<g id="node23" class="node">
<title>Node23</title>
<g id="a_node23"><a xlink:href="Clock_8h_source.html" target="_top" xlink:title=" ">
<polygon fill="white" stroke="black" points="1382,-112.5 1382,-131.5 1492,-131.5 1492,-112.5 1382,-112.5"/>
<text text-anchor="middle" x="1437" y="-119.5" font-family="FreeSans" font-size="10.00">DGtal/base/Clock.h</text>
</a>
</g>
</g>
<!-- Node20&#45;&gt;Node23 -->
<g id="edge27" class="edge">
<title>Node20&#45;&gt;Node23</title>
<path fill="none" stroke="midnightblue" d="M1293.07,-173.98C1322.01,-163.72 1370.76,-146.46 1403.4,-134.9"/>
<polygon fill="midnightblue" stroke="midnightblue" points="1404.72,-138.15 1412.97,-131.51 1402.38,-131.55 1404.72,-138.15"/>
</g>
<!-- Node26 -->
<g id="node26" class="node">
<title>Node26</title>
<g id="a_node26"><a xlink:href="TraceWriter_8h_source.html" target="_top" xlink:title=" ">
<polygon fill="white" stroke="black" points="705.5,-56.5 705.5,-75.5 842.5,-75.5 842.5,-56.5 705.5,-56.5"/>
<text text-anchor="middle" x="774" y="-63.5" font-family="FreeSans" font-size="10.00">DGtal/base/TraceWriter.h</text>
</a>
</g>
</g>
<!-- Node20&#45;&gt;Node26 -->
<g id="edge31" class="edge">
<title>Node20&#45;&gt;Node26</title>
<path fill="none" stroke="midnightblue" d="M1214.81,-174.25C1199.68,-172.07 1183.21,-169.82 1168,-168 1085.1,-158.06 858.71,-184.77 794,-132 780.44,-120.94 775.88,-100.9 774.44,-85.98"/>
<polygon fill="midnightblue" stroke="midnightblue" points="777.92,-85.59 773.85,-75.81 770.93,-85.99 777.92,-85.59"/>
</g>
<!-- Node20&#45;&gt;Node27 -->
<g id="edge34" class="edge">
<title>Node20&#45;&gt;Node27</title>
<path fill="none" stroke="midnightblue" d="M1231.32,-173.98C1221.48,-171.89 1210.86,-169.75 1201,-168 1120.73,-153.76 1028.4,-141.07 964.16,-132.82"/>
<polygon fill="midnightblue" stroke="midnightblue" points="964.47,-129.33 954.1,-131.54 963.58,-136.28 964.47,-129.33"/>
</g>
<!-- Node20&#45;&gt;Node28 -->
<g id="edge39" class="edge">
<title>Node20&#45;&gt;Node28</title>
<path fill="none" stroke="midnightblue" d="M1264.1,-173.98C1262.27,-165.58 1261.8,-152.48 1262.69,-141.66"/>
<polygon fill="midnightblue" stroke="midnightblue" points="1266.19,-141.9 1264.1,-131.51 1259.25,-140.93 1266.19,-141.9"/>
</g>
<!-- Node30 -->
<g id="node30" class="node">
<title>Node30</title>
<g id="a_node30"><a xlink:href="Trace_8ih_source.html" target="_top" xlink:title=" ">
<polygon fill="white" stroke="black" points="983.5,-112.5 983.5,-131.5 1094.5,-131.5 1094.5,-112.5 983.5,-112.5"/>
<text text-anchor="middle" x="1039" y="-119.5" font-family="FreeSans" font-size="10.00">DGtal/base/Trace.ih</text>
</a>
</g>
</g>
<!-- Node20&#45;&gt;Node30 -->
<g id="edge43" class="edge">
<title>Node20&#45;&gt;Node30</title>
<path fill="none" stroke="midnightblue" d="M1236.05,-173.98C1195.4,-163.46 1126.21,-145.56 1081.58,-134.01"/>
<polygon fill="midnightblue" stroke="midnightblue" points="1082.45,-130.63 1071.89,-131.51 1080.7,-137.4 1082.45,-130.63"/>
</g>
<!-- Node23&#45;&gt;Node2 -->
<g id="edge28" class="edge">
<title>Node23&#45;&gt;Node2</title>
<path fill="none" stroke="midnightblue" d="M1434.02,-112.24C1429.96,-98.52 1424.63,-71.89 1438,-56 1462.72,-26.61 1573.65,-16.23 1634.58,-12.71"/>
<polygon fill="midnightblue" stroke="midnightblue" points="1634.84,-16.21 1644.63,-12.17 1634.46,-9.22 1634.84,-16.21"/>
</g>
<!-- Node24 -->
<g id="node24" class="node">
<title>Node24</title>
<g id="a_node24"><a xlink:title=" ">
<polygon fill="white" stroke="#bfbfbf" points="1480.5,-56.5 1480.5,-75.5 1529.5,-75.5 1529.5,-56.5 1480.5,-56.5"/>
<text text-anchor="middle" x="1505" y="-63.5" font-family="FreeSans" font-size="10.00">cstdlib</text>
</a>
</g>
</g>
<!-- Node23&#45;&gt;Node24 -->
<g id="edge29" class="edge">
<title>Node23&#45;&gt;Node24</title>
<path fill="none" stroke="midnightblue" d="M1447.93,-112.32C1458.17,-104.18 1473.72,-91.84 1486,-82.09"/>
<polygon fill="midnightblue" stroke="midnightblue" points="1488.22,-84.79 1493.88,-75.83 1483.87,-79.31 1488.22,-84.79"/>
</g>
<!-- Node25 -->
<g id="node25" class="node">
<title>Node25</title>
<g id="a_node25"><a xlink:href="Clock_8ih_source.html" target="_top" xlink:title=" ">
<polygon fill="white" stroke="black" points="1272.5,-56.5 1272.5,-75.5 1385.5,-75.5 1385.5,-56.5 1272.5,-56.5"/>
<text text-anchor="middle" x="1329" y="-63.5" font-family="FreeSans" font-size="10.00">DGtal/base/Clock.ih</text>
</a>
</g>
</g>
<!-- Node23&#45;&gt;Node25 -->
<g id="edge30" class="edge">
<title>Node23&#45;&gt;Node25</title>
<path fill="none" stroke="midnightblue" d="M1419.65,-112.32C1402.33,-103.66 1375.48,-90.24 1355.5,-80.25"/>
<polygon fill="midnightblue" stroke="midnightblue" points="1356.82,-77 1346.31,-75.65 1353.69,-83.26 1356.82,-77"/>
</g>
<!-- Node26&#45;&gt;Node2 -->
<g id="edge32" class="edge">
<title>Node26&#45;&gt;Node2</title>
<path fill="none" stroke="midnightblue" d="M842.77,-59.69C859.84,-58.42 878.08,-57.12 895,-56 1178.17,-37.3 1519.47,-19.11 1634.75,-13.09"/>
<polygon fill="midnightblue" stroke="midnightblue" points="1635.07,-16.57 1644.87,-12.56 1634.7,-9.58 1635.07,-16.57"/>
</g>
<!-- Node26&#45;&gt;Node21 -->
<g id="edge33" class="edge">
<title>Node26&#45;&gt;Node21</title>
<path fill="none" stroke="midnightblue" d="M754.35,-56.44C734.04,-47.6 702.1,-33.69 678.9,-23.59"/>
<polygon fill="midnightblue" stroke="midnightblue" points="680.12,-20.3 669.56,-19.52 677.33,-26.72 680.12,-20.3"/>
</g>
<!-- Node27&#45;&gt;Node2 -->
<g id="edge35" class="edge">
<title>Node27&#45;&gt;Node2</title>
<path fill="none" stroke="midnightblue" d="M886.95,-112.36C892.45,-97.79 905.74,-68.68 928,-56 989.53,-20.94 1488.16,-12.96 1634.66,-11.36"/>
<polygon fill="midnightblue" stroke="midnightblue" points="1635.03,-14.86 1644.99,-11.25 1634.95,-7.86 1635.03,-14.86"/>
</g>
<!-- Node27&#45;&gt;Node18 -->
<g id="edge38" class="edge">
<title>Node27&#45;&gt;Node18</title>
<path fill="none" stroke="midnightblue" d="M901.67,-112.32C919.39,-103.62 946.9,-90.12 967.29,-80.11"/>
<polygon fill="midnightblue" stroke="midnightblue" points="968.94,-83.2 976.37,-75.65 965.85,-76.92 968.94,-83.2"/>
</g>
<!-- Node27&#45;&gt;Node19 -->
<g id="edge36" class="edge">
<title>Node27&#45;&gt;Node19</title>
<path fill="none" stroke="midnightblue" d="M882.98,-112.37C880.88,-94.62 876.04,-53.67 873.2,-29.6"/>
<polygon fill="midnightblue" stroke="midnightblue" points="876.66,-29.11 872.02,-19.59 869.71,-29.93 876.66,-29.11"/>
</g>
<!-- Node27&#45;&gt;Node26 -->
<g id="edge37" class="edge">
<title>Node27&#45;&gt;Node26</title>
<path fill="none" stroke="midnightblue" d="M866.33,-112.32C848.61,-103.62 821.1,-90.12 800.71,-80.11"/>
<polygon fill="midnightblue" stroke="midnightblue" points="802.15,-76.92 791.63,-75.65 799.06,-83.2 802.15,-76.92"/>
</g>
<!-- Node28&#45;&gt;Node19 -->
<g id="edge42" class="edge">
<title>Node28&#45;&gt;Node19</title>
<path fill="none" stroke="midnightblue" d="M1226.39,-112.48C1191.3,-104.83 1140.57,-92.3 1098,-76 1079.81,-69.04 1077.27,-62.76 1059,-56 1005.92,-36.36 941.19,-23.07 903.19,-16.28"/>
<polygon fill="midnightblue" stroke="midnightblue" points="903.67,-12.81 893.21,-14.54 902.46,-19.71 903.67,-12.81"/>
</g>
<!-- Node28&#45;&gt;Node20 -->
<g id="edge40" class="edge">
<title>Node28&#45;&gt;Node20</title>
<path fill="none" stroke="midnightblue" d="M1273.9,-131.51C1275.73,-139.9 1276.2,-153 1275.32,-163.82"/>
<polygon fill="midnightblue" stroke="midnightblue" points="1271.81,-163.59 1273.9,-173.98 1278.75,-164.55 1271.81,-163.59"/>
</g>
<!-- Node29 -->
<g id="node29" class="node">
<title>Node29</title>
<g id="a_node29"><a xlink:title=" ">
<polygon fill="white" stroke="#bfbfbf" points="1107.5,-56.5 1107.5,-75.5 1254.5,-75.5 1254.5,-56.5 1107.5,-56.5"/>
<text text-anchor="middle" x="1181" y="-63.5" font-family="FreeSans" font-size="10.00">boost/current_function.hpp</text>
</a>
</g>
</g>
<!-- Node28&#45;&gt;Node29 -->
<g id="edge41" class="edge">
<title>Node28&#45;&gt;Node29</title>
<path fill="none" stroke="midnightblue" d="M1254.86,-112.32C1241.13,-103.9 1220.06,-90.97 1203.94,-81.07"/>
<polygon fill="midnightblue" stroke="midnightblue" points="1205.46,-77.9 1195.1,-75.65 1201.8,-83.87 1205.46,-77.9"/>
</g>
<!-- Node31&#45;&gt;Node2 -->
<g id="edge46" class="edge">
<title>Node31&#45;&gt;Node2</title>
<path fill="none" stroke="midnightblue" d="M669.72,-112.47C671.45,-98.06 677.19,-69.19 696,-56 735.01,-28.64 1455.54,-14.7 1634.85,-11.65"/>
<polygon fill="midnightblue" stroke="midnightblue" points="1634.97,-15.15 1644.91,-11.48 1634.86,-8.15 1634.97,-15.15"/>
</g>
<!-- Node31&#45;&gt;Node19 -->
<g id="edge47" class="edge">
<title>Node31&#45;&gt;Node19</title>
<path fill="none" stroke="midnightblue" d="M664.74,-112.32C658.73,-98.71 649.91,-72.23 663,-56 684.7,-29.1 785.8,-17.48 838.63,-13.18"/>
<polygon fill="midnightblue" stroke="midnightblue" points="839.13,-16.65 848.83,-12.39 838.59,-9.67 839.13,-16.65"/>
</g>
<!-- Node31&#45;&gt;Node26 -->
<g id="edge48" class="edge">
<title>Node31&#45;&gt;Node26</title>
<path fill="none" stroke="midnightblue" d="M685.87,-112.32C702.71,-103.66 728.81,-90.24 748.24,-80.25"/>
<polygon fill="midnightblue" stroke="midnightblue" points="749.88,-83.34 757.17,-75.65 746.68,-77.12 749.88,-83.34"/>
</g>
<!-- Node32&#45;&gt;Node2 -->
<g id="edge51" class="edge">
<title>Node32&#45;&gt;Node2</title>
<path fill="none" stroke="midnightblue" d="M1813.05,-112.22C1811.12,-98.47 1805.5,-71.8 1790,-56 1769.94,-35.55 1739.5,-24.19 1714.98,-18"/>
<polygon fill="midnightblue" stroke="midnightblue" points="1715.75,-14.59 1705.22,-15.73 1714.16,-21.41 1715.75,-14.59"/>
</g>
<!-- Node33&#45;&gt;Node2 -->
<g id="edge54" class="edge">
<title>Node33&#45;&gt;Node2</title>
<path fill="none" stroke="midnightblue" d="M1715.48,-112.47C1737.32,-106.14 1759.82,-95.14 1773,-76 1791.29,-49.45 1749.73,-30.92 1715.19,-20.62"/>
<polygon fill="midnightblue" stroke="midnightblue" points="1715.81,-17.16 1705.23,-17.81 1713.91,-23.9 1715.81,-17.16"/>
</g>
<!-- Node33&#45;&gt;Node24 -->
<g id="edge53" class="edge">
<title>Node33&#45;&gt;Node24</title>
<path fill="none" stroke="midnightblue" d="M1631.23,-112.44C1606.11,-103.4 1566.29,-89.06 1538.1,-78.92"/>
<polygon fill="midnightblue" stroke="midnightblue" points="1539.25,-75.61 1528.66,-75.52 1536.88,-82.2 1539.25,-75.61"/>
</g>
<!-- Node34 -->
<g id="node34" class="node">
<title>Node34</title>
<g id="a_node34"><a xlink:title=" ">
<polygon fill="white" stroke="#bfbfbf" points="1586.5,-56.5 1586.5,-75.5 1687.5,-75.5 1687.5,-56.5 1586.5,-56.5"/>
<text text-anchor="middle" x="1637" y="-63.5" font-family="FreeSans" font-size="10.00">boost/cstdint.hpp</text>
</a>
</g>
</g>
<!-- Node33&#45;&gt;Node34 -->
<g id="edge55" class="edge">
<title>Node33&#45;&gt;Node34</title>
<path fill="none" stroke="midnightblue" d="M1652.03,-112.08C1649.62,-104.85 1646.14,-94.41 1643.13,-85.4"/>
<polygon fill="midnightblue" stroke="midnightblue" points="1646.4,-84.13 1639.92,-75.75 1639.76,-86.34 1646.4,-84.13"/>
</g>
<!-- Node35 -->
<g id="node35" class="node">
<title>Node35</title>
<g id="a_node35"><a xlink:title=" ">
<polygon fill="white" stroke="#bfbfbf" points="1705.5,-56.5 1705.5,-75.5 1764.5,-75.5 1764.5,-56.5 1705.5,-56.5"/>
<text text-anchor="middle" x="1735" y="-63.5" font-family="FreeSans" font-size="10.00">gmpxx.h</text>
</a>
</g>
</g>
<!-- Node33&#45;&gt;Node35 -->
<g id="edge56" class="edge">
<title>Node33&#45;&gt;Node35</title>
<path fill="none" stroke="midnightblue" d="M1667.85,-112.32C1680.22,-103.98 1699.13,-91.21 1713.74,-81.35"/>
<polygon fill="midnightblue" stroke="midnightblue" points="1715.85,-84.15 1722.18,-75.65 1711.93,-78.35 1715.85,-84.15"/>
</g>
<!-- Node36&#45;&gt;Node6 -->
<g id="edge68" class="edge">
<title>Node36&#45;&gt;Node6</title>
<path fill="none" stroke="midnightblue" d="M1980.97,-192.26C1852.11,-205.11 1590.51,-230.59 1462.63,-242.75"/>
<polygon fill="midnightblue" stroke="midnightblue" points="1462.16,-239.27 1452.54,-243.7 1462.83,-246.24 1462.16,-239.27"/>
</g>
<!-- Node36&#45;&gt;Node8 -->
<g id="edge58" class="edge">
<title>Node36&#45;&gt;Node8</title>
<path fill="none" stroke="midnightblue" d="M2073.45,-173.89C2092.74,-164.23 2124.56,-147.83 2151,-132 2178.18,-115.73 2208.31,-95.1 2227.67,-81.5"/>
<polygon fill="midnightblue" stroke="midnightblue" points="2229.86,-84.24 2236.01,-75.61 2225.82,-78.53 2229.86,-84.24"/>
</g>
<!-- Node36&#45;&gt;Node16 -->
<g id="edge60" class="edge">
<title>Node36&#45;&gt;Node16</title>
<path fill="none" stroke="midnightblue" d="M2037.66,-173.98C2016.18,-163.99 1980.38,-147.35 1955.55,-135.81"/>
<polygon fill="midnightblue" stroke="midnightblue" points="1956.85,-132.55 1946.31,-131.51 1953.9,-138.9 1956.85,-132.55"/>
</g>
<!-- Node37 -->
<g id="node37" class="node">
<title>Node37</title>
<g id="a_node37"><a xlink:title=" ">
<polygon fill="white" stroke="#bfbfbf" points="2198.5,-112.5 2198.5,-131.5 2263.5,-131.5 2263.5,-112.5 2198.5,-112.5"/>
<text text-anchor="middle" x="2231" y="-119.5" font-family="FreeSans" font-size="10.00">functional</text>
</a>
</g>
</g>
<!-- Node36&#45;&gt;Node37 -->
<g id="edge59" class="edge">
<title>Node36&#45;&gt;Node37</title>
<path fill="none" stroke="midnightblue" d="M2081.07,-173.98C2111.35,-163.68 2162.44,-146.31 2196.44,-134.75"/>
<polygon fill="midnightblue" stroke="midnightblue" points="2197.63,-138.04 2205.97,-131.51 2195.38,-131.41 2197.63,-138.04"/>
</g>
<!-- Node38 -->
<g id="node38" class="node">
<title>Node38</title>
<g id="a_node38"><a xlink:href="Color_8h_source.html" target="_top" xlink:title=" ">
<polygon fill="white" stroke="black" points="2337.5,-112.5 2337.5,-131.5 2430.5,-131.5 2430.5,-112.5 2337.5,-112.5"/>
<text text-anchor="middle" x="2384" y="-119.5" font-family="FreeSans" font-size="10.00">DGtal/io/Color.h</text>
</a>
</g>
</g>
<!-- Node36&#45;&gt;Node38 -->
<g id="edge61" class="edge">
<title>Node36&#45;&gt;Node38</title>
<path fill="none" stroke="midnightblue" d="M2102.99,-173.98C2162.26,-163.22 2264.08,-144.75 2327.52,-133.25"/>
<polygon fill="midnightblue" stroke="midnightblue" points="2328.14,-136.69 2337.36,-131.46 2326.89,-129.8 2328.14,-136.69"/>
</g>
<!-- Node42 -->
<g id="node42" class="node">
<title>Node42</title>
<g id="a_node42"><a xlink:href="BasicBoolFunctors_8h_source.html" target="_top" xlink:title=" ">
<polygon fill="white" stroke="black" points="1970,-112.5 1970,-131.5 2142,-131.5 2142,-112.5 1970,-112.5"/>
<text text-anchor="middle" x="2056" y="-119.5" font-family="FreeSans" font-size="10.00">DGtal/base/BasicBoolFunctors.h</text>
</a>
</g>
</g>
<!-- Node36&#45;&gt;Node42 -->
<g id="edge69" class="edge">
<title>Node36&#45;&gt;Node42</title>
<path fill="none" stroke="midnightblue" d="M2056,-173.98C2056,-165.58 2056,-152.48 2056,-141.66"/>
<polygon fill="midnightblue" stroke="midnightblue" points="2059.5,-141.51 2056,-131.51 2052.5,-141.51 2059.5,-141.51"/>
</g>
<!-- Node38&#45;&gt;Node2 -->
<g id="edge62" class="edge">
<title>Node38&#45;&gt;Node2</title>
<path fill="none" stroke="midnightblue" d="M2372.88,-112.29C2351.95,-96.08 2307.2,-62.37 2289,-56 2182.5,-18.73 1834.05,-12.33 1715.16,-11.23"/>
<polygon fill="midnightblue" stroke="midnightblue" points="1715.07,-7.73 1705.04,-11.14 1715.01,-14.73 1715.07,-7.73"/>
</g>
<!-- Node38&#45;&gt;Node6 -->
<g id="edge63" class="edge">
<title>Node38&#45;&gt;Node6</title>
<path fill="none" stroke="midnightblue" d="M2386.61,-131.53C2390.85,-147.34 2397.08,-181.18 2379,-199 2362.7,-215.06 1689.87,-239.3 1462.89,-247.04"/>
<polygon fill="midnightblue" stroke="midnightblue" points="1462.62,-243.54 1452.74,-247.38 1462.86,-250.54 1462.62,-243.54"/>
</g>
<!-- Node38&#45;&gt;Node8 -->
<g id="edge65" class="edge">
<title>Node38&#45;&gt;Node8</title>
<path fill="none" stroke="midnightblue" d="M2362.45,-112.44C2339.97,-103.52 2304.51,-89.44 2279.02,-79.32"/>
<polygon fill="midnightblue" stroke="midnightblue" points="2280.03,-75.95 2269.45,-75.52 2277.45,-82.46 2280.03,-75.95"/>
</g>
<!-- Node39 -->
<g id="node39" class="node">
<title>Node39</title>
<g id="a_node39"><a xlink:title=" ">
<polygon fill="white" stroke="#bfbfbf" points="2450.5,-56.5 2450.5,-75.5 2575.5,-75.5 2575.5,-56.5 2450.5,-56.5"/>
<text text-anchor="middle" x="2513" y="-63.5" font-family="FreeSans" font-size="10.00">boost/lexical_cast.hpp</text>
</a>
</g>
</g>
<!-- Node38&#45;&gt;Node39 -->
<g id="edge64" class="edge">
<title>Node38&#45;&gt;Node39</title>
<path fill="none" stroke="midnightblue" d="M2404.44,-112.44C2425.67,-103.56 2459.1,-89.56 2483.25,-79.45"/>
<polygon fill="midnightblue" stroke="midnightblue" points="2484.78,-82.61 2492.66,-75.52 2482.08,-76.15 2484.78,-82.61"/>
</g>
<!-- Node40 -->
<g id="node40" class="node">
<title>Node40</title>
<g id="a_node40"><a xlink:title=" ">
<polygon fill="white" stroke="#bfbfbf" points="2594,-56.5 2594,-75.5 2636,-75.5 2636,-56.5 2594,-56.5"/>
<text text-anchor="middle" x="2615" y="-63.5" font-family="FreeSans" font-size="10.00">array</text>
</a>
</g>
</g>
<!-- Node38&#45;&gt;Node40 -->
<g id="edge66" class="edge">
<title>Node38&#45;&gt;Node40</title>
<path fill="none" stroke="midnightblue" d="M2425.55,-112.43C2466.12,-103.87 2529.54,-90.02 2584,-76 2584.1,-75.97 2584.2,-75.95 2584.3,-75.92"/>
<polygon fill="midnightblue" stroke="midnightblue" points="2584.97,-79.37 2593.7,-73.37 2583.13,-72.61 2584.97,-79.37"/>
</g>
<!-- Node41 -->
<g id="node41" class="node">
<title>Node41</title>
<g id="a_node41"><a xlink:href="Color_8ih_source.html" target="_top" xlink:title=" ">
<polygon fill="white" stroke="black" points="2336,-56.5 2336,-75.5 2432,-75.5 2432,-56.5 2336,-56.5"/>
<text text-anchor="middle" x="2384" y="-63.5" font-family="FreeSans" font-size="10.00">DGtal/io/Color.ih</text>
</a>
</g>
</g>
<!-- Node38&#45;&gt;Node41 -->
<g id="edge67" class="edge">
<title>Node38&#45;&gt;Node41</title>
<path fill="none" stroke="midnightblue" d="M2384,-112.08C2384,-105.01 2384,-94.86 2384,-85.99"/>
<polygon fill="midnightblue" stroke="midnightblue" points="2387.5,-85.75 2384,-75.75 2380.5,-85.75 2387.5,-85.75"/>
</g>
<!-- Node42&#45;&gt;Node2 -->
<g id="edge70" class="edge">
<title>Node42&#45;&gt;Node2</title>
<path fill="none" stroke="midnightblue" d="M2022.76,-112.46C1988.8,-103.64 1934.59,-89.34 1888,-76 1825.72,-58.16 1753.71,-35.83 1711.4,-22.52"/>
<polygon fill="midnightblue" stroke="midnightblue" points="1712.4,-19.17 1701.81,-19.51 1710.3,-25.85 1712.4,-19.17"/>
</g>
<!-- Node43 -->
<g id="node43" class="node">
<title>Node43</title>
<g id="a_node43"><a xlink:title=" ">
<polygon fill="white" stroke="#bfbfbf" points="1897.5,-56.5 1897.5,-75.5 2004.5,-75.5 2004.5,-56.5 1897.5,-56.5"/>
<text text-anchor="middle" x="1951" y="-63.5" font-family="FreeSans" font-size="10.00">boost/function.hpp</text>
</a>
</g>
</g>
<!-- Node42&#45;&gt;Node43 -->
<g id="edge71" class="edge">
<title>Node42&#45;&gt;Node43</title>
<path fill="none" stroke="midnightblue" d="M2039.13,-112.32C2022.29,-103.66 1996.19,-90.24 1976.76,-80.25"/>
<polygon fill="midnightblue" stroke="midnightblue" points="1978.32,-77.12 1967.83,-75.65 1975.12,-83.34 1978.32,-77.12"/>
</g>
<!-- Node44 -->
<g id="node44" class="node">
<title>Node44</title>
<g id="a_node44"><a xlink:href="BasicBoolFunctors_8ih_source.html" target="_top" xlink:title=" ">
<polygon fill="white" stroke="black" points="2022.5,-56.5 2022.5,-75.5 2197.5,-75.5 2197.5,-56.5 2022.5,-56.5"/>
<text text-anchor="middle" x="2110" y="-63.5" font-family="FreeSans" font-size="10.00">DGtal/base/BasicBoolFunctors.ih</text>
</a>
</g>
</g>
<!-- Node42&#45;&gt;Node44 -->
<g id="edge72" class="edge">
<title>Node42&#45;&gt;Node44</title>
<path fill="none" stroke="midnightblue" d="M2064.92,-112.08C2072.78,-104.22 2084.43,-92.57 2093.92,-83.08"/>
<polygon fill="midnightblue" stroke="midnightblue" points="2096.65,-85.3 2101.25,-75.75 2091.7,-80.35 2096.65,-85.3"/>
</g>
<!-- Node45&#45;&gt;Node2 -->
<g id="edge74" class="edge">
<title>Node45&#45;&gt;Node2</title>
<path fill="none" stroke="midnightblue" d="M2593.53,-112.35C2622.64,-100.43 2665.94,-77.93 2645,-56 2612.4,-21.85 1893.96,-13.01 1715.06,-11.33"/>
<polygon fill="midnightblue" stroke="midnightblue" points="1715.06,-7.83 1705.02,-11.24 1714.99,-14.83 1715.06,-7.83"/>
</g>
<!-- Node46&#45;&gt;Node2 -->
<g id="edge76" class="edge">
<title>Node46&#45;&gt;Node2</title>
<path fill="none" stroke="midnightblue" d="M2630.36,-173.68C2640.34,-164.46 2654.81,-148.97 2661,-132 2672.58,-100.27 2685.34,-80.42 2662,-56 2628.78,-21.23 1896.19,-12.84 1715.17,-11.3"/>
<polygon fill="midnightblue" stroke="midnightblue" points="1715.05,-7.8 1705.02,-11.22 1714.99,-14.8 1715.05,-7.8"/>
</g>
</g>
</svg>
        <g id="navigator" transform="translate(0 0)" fill="#404254">
                <rect fill="#f2f5e9" fill-opacity="0.5" stroke="#606060" stroke-width=".5" x="0" y="0" width="60" height="60"/>
                <use id="zoomplus" xlink:href="#zoomPlus" x="17" y="9" onmousedown="handleZoom(evt,'in')"/>
                <use id="zoomminus" xlink:href="#zoomMin" x="42" y="9" onmousedown="handleZoom(evt,'out')"/>
                <use id="reset" xlink:href="#resetDef" x="30" y="36" onmousedown="handleReset()"/>
                <g id="arrowUp" xlink:href="#dirArrow" transform="translate(30 24)" onmousedown="handlePan(0,-1)">
                  <use xlink:href="#rim" fill="#404040">
                        <set attributeName="fill" to="#808080" begin="arrowUp.mouseover" end="arrowUp.mouseout"/>
                  </use>
                  <path fill="none" stroke="white" stroke-width="1.5" d="M0,-3.0v7 M-2.5,-0.5L0,-3.0L2.5,-0.5"/>
                </g>
                <g id="arrowRight" xlink:href="#dirArrow" transform="rotate(90) translate(36 -43)" onmousedown="handlePan(1,0)">
                  <use xlink:href="#rim" fill="#404040">
                        <set attributeName="fill" to="#808080" begin="arrowRight.mouseover" end="arrowRight.mouseout"/>
                  </use>
                  <path fill="none" stroke="white" stroke-width="1.5" d="M0,-3.0v7 M-2.5,-0.5L0,-3.0L2.5,-0.5"/>
                </g>
                <g id="arrowDown" xlink:href="#dirArrow" transform="rotate(180) translate(-30 -48)" onmousedown="handlePan(0,1)">
                  <use xlink:href="#rim" fill="#404040">
                        <set attributeName="fill" to="#808080" begin="arrowDown.mouseover" end="arrowDown.mouseout"/>
                  </use>
                  <path fill="none" stroke="white" stroke-width="1.5" d="M0,-3.0v7 M-2.5,-0.5L0,-3.0L2.5,-0.5"/>
                </g>
                <g id="arrowLeft" xlink:href="#dirArrow" transform="rotate(270) translate(-36 17)" onmousedown="handlePan(-1,0)">
                  <use xlink:href="#rim" fill="#404040">
                        <set attributeName="fill" to="#808080" begin="arrowLeft.mouseover" end="arrowLeft.mouseout"/>
                  </use>
                  <path fill="none" stroke="white" stroke-width="1.5" d="M0,-3.0v7 M-2.5,-0.5L0,-3.0L2.5,-0.5"/>
                </g>
        </g>
        <svg viewBox="0 0 15 15" width="100%" height="30px" preserveAspectRatio="xMaxYMin meet">
         <g id="arrow_out" transform="scale(0.3 0.3)">
          <a xlink:href="testPartialTemplateSpecialization_8cpp__incl_org.svg" target="_base">
           <rect id="button" ry="5" rx="5" y="6" x="6" height="38" width="38"
                fill="#f2f5e9" fill-opacity="0.5" stroke="#606060" stroke-width="1.0"/>
           <path id="arrow"
             d="M 11.500037,31.436501 C 11.940474,20.09759 22.043105,11.32322 32.158766,21.979434 L 37.068811,17.246167 C 37.068811,17.246167 37.088388,32 37.088388,32 L 22.160133,31.978069 C 22.160133,31.978069 26.997745,27.140456 26.997745,27.140456 C 18.528582,18.264221 13.291696,25.230495 11.500037,31.436501 z"
             style="fill:#404040;"/>
          </a>
         </g>
        </svg>
</svg>
