<?xml version="1.0" encoding="UTF-8" standalone="no"?>
<!DOCTYPE svg PUBLIC "-//W3C//DTD SVG 1.1//EN"
 "http://www.w3.org/Graphics/SVG/1.1/DTD/svg11.dtd">
<!-- Generated by graphviz version 2.43.0 (0)
 -->
<!-- Title: testClock.cpp Pages: 1 -->
<svg width="2506pt" height="319pt"
 viewBox="0.00 0.00 2506.00 319.00" xmlns="http://www.w3.org/2000/svg" xmlns:xlink="http://www.w3.org/1999/xlink">
<g id="graph0" class="graph" transform="scale(1 1) rotate(0) translate(4 315)">
<title>testClock.cpp</title>
<polygon fill="white" stroke="transparent" points="-4,4 -4,-315 2502,-315 2502,4 -4,4"/>
<!-- Node1 -->
<g id="node1" class="node">
<title>Node1</title>
<g id="a_node1"><a xlink:title=" ">
<polygon fill="#bfbfbf" stroke="black" points="1804.5,-291.5 1804.5,-310.5 1887.5,-310.5 1887.5,-291.5 1804.5,-291.5"/>
<text text-anchor="middle" x="1846" y="-298.5" font-family="FreeSans" font-size="10.00">testClock.cpp</text>
</a>
</g>
</g>
<!-- Node2 -->
<g id="node2" class="node">
<title>Node2</title>
<g id="a_node2"><a xlink:title=" ">
<polygon fill="white" stroke="#bfbfbf" points="1189,-235.5 1189,-254.5 1235,-254.5 1235,-235.5 1189,-235.5"/>
<text text-anchor="middle" x="1212" y="-242.5" font-family="FreeSans" font-size="10.00">cstdio</text>
</a>
</g>
</g>
<!-- Node1&#45;&gt;Node2 -->
<g id="edge1" class="edge">
<title>Node1&#45;&gt;Node2</title>
<path fill="none" stroke="midnightblue" d="M1804.41,-299.74C1707.63,-298.52 1459.89,-291.89 1245.17,-254.86"/>
<polygon fill="midnightblue" stroke="midnightblue" points="1245.75,-251.41 1235.29,-253.13 1244.54,-258.3 1245.75,-251.41"/>
</g>
<!-- Node3 -->
<g id="node3" class="node">
<title>Node3</title>
<g id="a_node3"><a xlink:title=" ">
<polygon fill="white" stroke="#bfbfbf" points="2208.5,-112.5 2208.5,-131.5 2255.5,-131.5 2255.5,-112.5 2208.5,-112.5"/>
<text text-anchor="middle" x="2232" y="-119.5" font-family="FreeSans" font-size="10.00">cmath</text>
</a>
</g>
</g>
<!-- Node1&#45;&gt;Node3 -->
<g id="edge2" class="edge">
<title>Node1&#45;&gt;Node3</title>
<path fill="none" stroke="midnightblue" d="M1887.72,-294.3C1975.14,-281.51 2173.14,-247.75 2218,-199 2232.1,-183.68 2234.25,-159.01 2233.76,-141.95"/>
<polygon fill="midnightblue" stroke="midnightblue" points="2237.22,-141.33 2233.11,-131.56 2230.24,-141.76 2237.22,-141.33"/>
</g>
<!-- Node4 -->
<g id="node4" class="node">
<title>Node4</title>
<g id="a_node4"><a xlink:title=" ">
<polygon fill="white" stroke="#bfbfbf" points="1360,-0.5 1360,-19.5 1420,-19.5 1420,-0.5 1360,-0.5"/>
<text text-anchor="middle" x="1390" y="-7.5" font-family="FreeSans" font-size="10.00">iostream</text>
</a>
</g>
</g>
<!-- Node1&#45;&gt;Node4 -->
<g id="edge3" class="edge">
<title>Node1&#45;&gt;Node4</title>
<path fill="none" stroke="midnightblue" d="M1887.78,-297.04C2031.68,-286.31 2498,-246.72 2498,-184.5 2498,-184.5 2498,-184.5 2498,-121 2498,-81.08 2472.36,-72.5 2436,-56 2343.24,-13.91 1610.94,-11.03 1430.21,-10.96"/>
<polygon fill="midnightblue" stroke="midnightblue" points="1430.08,-7.46 1420.08,-10.96 1430.08,-14.46 1430.08,-7.46"/>
</g>
<!-- Node5 -->
<g id="node5" class="node">
<title>Node5</title>
<g id="a_node5"><a xlink:href="Common_8h_source.html" target="_top" xlink:title=" ">
<polygon fill="white" stroke="black" points="1253.5,-235.5 1253.5,-254.5 1380.5,-254.5 1380.5,-235.5 1253.5,-235.5"/>
<text text-anchor="middle" x="1317" y="-242.5" font-family="FreeSans" font-size="10.00">DGtal/base/Common.h</text>
</a>
</g>
</g>
<!-- Node1&#45;&gt;Node5 -->
<g id="edge4" class="edge">
<title>Node1&#45;&gt;Node5</title>
<path fill="none" stroke="midnightblue" d="M1804.49,-295.76C1715.21,-286.65 1503.9,-265.08 1391.05,-253.56"/>
<polygon fill="midnightblue" stroke="midnightblue" points="1391.08,-250.04 1380.78,-252.51 1390.37,-257.01 1391.08,-250.04"/>
</g>
<!-- Node21 -->
<g id="node21" class="node">
<title>Node21</title>
<g id="a_node21"><a xlink:href="Clock_8h_source.html" target="_top" xlink:title=" ">
<polygon fill="white" stroke="black" points="1559,-112.5 1559,-131.5 1669,-131.5 1669,-112.5 1559,-112.5"/>
<text text-anchor="middle" x="1614" y="-119.5" font-family="FreeSans" font-size="10.00">DGtal/base/Clock.h</text>
</a>
</g>
</g>
<!-- Node1&#45;&gt;Node21 -->
<g id="edge76" class="edge">
<title>Node1&#45;&gt;Node21</title>
<path fill="none" stroke="midnightblue" d="M1847.78,-291.19C1851.97,-267.69 1859.77,-202.98 1827,-168 1816.79,-157.1 1737.95,-142.5 1679.14,-132.93"/>
<polygon fill="midnightblue" stroke="midnightblue" points="1679.58,-129.45 1669.15,-131.32 1678.47,-136.36 1679.58,-129.45"/>
</g>
<!-- Node5&#45;&gt;Node3 -->
<g id="edge15" class="edge">
<title>Node5&#45;&gt;Node3</title>
<path fill="none" stroke="midnightblue" d="M1380.55,-244.28C1570.18,-244.64 2123.05,-241.95 2191,-199 2211.24,-186.2 2222.19,-159.78 2227.56,-141.72"/>
<polygon fill="midnightblue" stroke="midnightblue" points="2230.96,-142.56 2230.16,-131.99 2224.19,-140.75 2230.96,-142.56"/>
</g>
<!-- Node5&#45;&gt;Node4 -->
<g id="edge5" class="edge">
<title>Node5&#45;&gt;Node4</title>
<path fill="none" stroke="midnightblue" d="M1380.71,-243.86C1613.16,-243.04 2404.09,-237.42 2441,-199 2472.5,-166.21 2487.46,-117.11 2412,-56 2373.22,-24.6 1614.74,-13.65 1430.21,-11.44"/>
<polygon fill="midnightblue" stroke="midnightblue" points="1430.16,-7.94 1420.12,-11.33 1430.08,-14.94 1430.16,-7.94"/>
</g>
<!-- Node6 -->
<g id="node6" class="node">
<title>Node6</title>
<g id="a_node6"><a xlink:title=" ">
<polygon fill="white" stroke="#bfbfbf" points="924.5,-174 924.5,-193 989.5,-193 989.5,-174 924.5,-174"/>
<text text-anchor="middle" x="957" y="-181" font-family="FreeSans" font-size="10.00">exception</text>
</a>
</g>
</g>
<!-- Node5&#45;&gt;Node6 -->
<g id="edge6" class="edge">
<title>Node5&#45;&gt;Node6</title>
<path fill="none" stroke="midnightblue" d="M1253.23,-236.03C1175.89,-226.15 1050.13,-209.37 1004,-199 1000.08,-198.12 996.02,-197.07 991.99,-195.95"/>
<polygon fill="midnightblue" stroke="midnightblue" points="992.75,-192.53 982.17,-193.06 990.78,-199.24 992.75,-192.53"/>
</g>
<!-- Node7 -->
<g id="node7" class="node">
<title>Node7</title>
<g id="a_node7"><a xlink:title=" ">
<polygon fill="white" stroke="#bfbfbf" points="1964,-56.5 1964,-75.5 2028,-75.5 2028,-56.5 1964,-56.5"/>
<text text-anchor="middle" x="1996" y="-63.5" font-family="FreeSans" font-size="10.00">algorithm</text>
</a>
</g>
</g>
<!-- Node5&#45;&gt;Node7 -->
<g id="edge7" class="edge">
<title>Node5&#45;&gt;Node7</title>
<path fill="none" stroke="midnightblue" d="M1380.75,-244.6C1444.68,-242.95 1544.61,-234.17 1623,-199 1642.57,-190.22 1640.54,-177.03 1660,-168 1745.11,-128.52 1779.18,-162.22 1868,-132 1886.07,-125.85 1889.02,-120.71 1906,-112 1927.25,-101.1 1951.46,-89.01 1969.42,-80.11"/>
<polygon fill="midnightblue" stroke="midnightblue" points="1971.28,-83.09 1978.69,-75.52 1968.18,-76.82 1971.28,-83.09"/>
</g>
<!-- Node8 -->
<g id="node8" class="node">
<title>Node8</title>
<g id="a_node8"><a xlink:title=" ">
<polygon fill="white" stroke="#bfbfbf" points="1046,-174 1046,-193 1150,-193 1150,-174 1046,-174"/>
<text text-anchor="middle" x="1098" y="-181" font-family="FreeSans" font-size="10.00">boost/version.hpp</text>
</a>
</g>
</g>
<!-- Node5&#45;&gt;Node8 -->
<g id="edge8" class="edge">
<title>Node5&#45;&gt;Node8</title>
<path fill="none" stroke="midnightblue" d="M1285.62,-235.48C1247.08,-225 1181.59,-207.21 1139.08,-195.66"/>
<polygon fill="midnightblue" stroke="midnightblue" points="1139.89,-192.25 1129.32,-193.01 1138.05,-199.01 1139.89,-192.25"/>
</g>
<!-- Node9 -->
<g id="node9" class="node">
<title>Node9</title>
<g id="a_node9"><a xlink:title=" ">
<polygon fill="white" stroke="#bfbfbf" points="1168,-174 1168,-193 1308,-193 1308,-174 1168,-174"/>
<text text-anchor="middle" x="1238" y="-181" font-family="FreeSans" font-size="10.00">boost/concept_check.hpp</text>
</a>
</g>
</g>
<!-- Node5&#45;&gt;Node9 -->
<g id="edge9" class="edge">
<title>Node5&#45;&gt;Node9</title>
<path fill="none" stroke="midnightblue" d="M1305.68,-235.48C1293.13,-226.02 1272.65,-210.6 1257.5,-199.19"/>
<polygon fill="midnightblue" stroke="midnightblue" points="1259.39,-196.23 1249.3,-193.01 1255.18,-201.82 1259.39,-196.23"/>
</g>
<!-- Node10 -->
<g id="node10" class="node">
<title>Node10</title>
<g id="a_node10"><a xlink:title=" ">
<polygon fill="white" stroke="#bfbfbf" points="1484,-174 1484,-193 1614,-193 1614,-174 1484,-174"/>
<text text-anchor="middle" x="1549" y="-181" font-family="FreeSans" font-size="10.00">boost/static_assert.hpp</text>
</a>
</g>
</g>
<!-- Node5&#45;&gt;Node10 -->
<g id="edge10" class="edge">
<title>Node5&#45;&gt;Node10</title>
<path fill="none" stroke="midnightblue" d="M1350.24,-235.48C1391.24,-224.96 1461.03,-207.06 1506.05,-195.51"/>
<polygon fill="midnightblue" stroke="midnightblue" points="1507,-198.88 1515.82,-193.01 1505.27,-192.1 1507,-198.88"/>
</g>
<!-- Node11 -->
<g id="node11" class="node">
<title>Node11</title>
<g id="a_node11"><a xlink:title=" ">
<polygon fill="white" stroke="#bfbfbf" points="1326.5,-174 1326.5,-193 1465.5,-193 1465.5,-174 1326.5,-174"/>
<text text-anchor="middle" x="1396" y="-181" font-family="FreeSans" font-size="10.00">boost/concept/assert.hpp</text>
</a>
</g>
</g>
<!-- Node5&#45;&gt;Node11 -->
<g id="edge11" class="edge">
<title>Node5&#45;&gt;Node11</title>
<path fill="none" stroke="midnightblue" d="M1328.32,-235.48C1340.87,-226.02 1361.35,-210.6 1376.5,-199.19"/>
<polygon fill="midnightblue" stroke="midnightblue" points="1378.82,-201.82 1384.7,-193.01 1374.61,-196.23 1378.82,-201.82"/>
</g>
<!-- Node12 -->
<g id="node12" class="node">
<title>Node12</title>
<g id="a_node12"><a xlink:title=" ">
<polygon fill="white" stroke="#bfbfbf" points="1669.5,-174 1669.5,-193 1818.5,-193 1818.5,-174 1669.5,-174"/>
<text text-anchor="middle" x="1744" y="-181" font-family="FreeSans" font-size="10.00">boost/concept/requires.hpp</text>
</a>
</g>
</g>
<!-- Node5&#45;&gt;Node12 -->
<g id="edge12" class="edge">
<title>Node5&#45;&gt;Node12</title>
<path fill="none" stroke="midnightblue" d="M1380.81,-236.13C1449.02,-227.59 1560.28,-213.24 1656,-199 1665,-197.66 1674.5,-196.17 1683.8,-194.68"/>
<polygon fill="midnightblue" stroke="midnightblue" points="1684.47,-198.11 1693.78,-193.05 1683.35,-191.2 1684.47,-198.11"/>
</g>
<!-- Node13 -->
<g id="node13" class="node">
<title>Node13</title>
<g id="a_node13"><a xlink:title=" ">
<polygon fill="white" stroke="#bfbfbf" points="2042,-168.5 2042,-198.5 2164,-198.5 2164,-168.5 2042,-168.5"/>
<text text-anchor="start" x="2050" y="-186.5" font-family="FreeSans" font-size="10.00">boost/iterator/iterator</text>
<text text-anchor="middle" x="2103" y="-175.5" font-family="FreeSans" font-size="10.00">_concepts.hpp</text>
</a>
</g>
</g>
<!-- Node5&#45;&gt;Node13 -->
<g id="edge13" class="edge">
<title>Node5&#45;&gt;Node13</title>
<path fill="none" stroke="midnightblue" d="M1380.51,-243.02C1504.11,-240.46 1785.69,-231.42 2031.43,-199.08"/>
<polygon fill="midnightblue" stroke="midnightblue" points="2032.17,-202.52 2041.62,-197.73 2031.25,-195.58 2032.17,-202.52"/>
</g>
<!-- Node14 -->
<g id="node14" class="node">
<title>Node14</title>
<g id="a_node14"><a xlink:title=" ">
<polygon fill="white" stroke="#bfbfbf" points="0,-174 0,-193 160,-193 160,-174 0,-174"/>
<text text-anchor="middle" x="80" y="-181" font-family="FreeSans" font-size="10.00">boost/concept_archetype.hpp</text>
</a>
</g>
</g>
<!-- Node5&#45;&gt;Node14 -->
<g id="edge14" class="edge">
<title>Node5&#45;&gt;Node14</title>
<path fill="none" stroke="midnightblue" d="M1253.33,-235.81C1250.18,-235.51 1247.06,-235.24 1244,-235 767.41,-197.72 644.78,-245.53 169,-199 158.03,-197.93 146.35,-196.35 135.2,-194.62"/>
<polygon fill="midnightblue" stroke="midnightblue" points="135.56,-191.13 125.13,-193 134.45,-198.04 135.56,-191.13"/>
</g>
<!-- Node15 -->
<g id="node15" class="node">
<title>Node15</title>
<g id="a_node15"><a xlink:title=" ">
<polygon fill="white" stroke="#bfbfbf" points="178,-174 178,-193 228,-193 228,-174 178,-174"/>
<text text-anchor="middle" x="203" y="-181" font-family="FreeSans" font-size="10.00">stdio.h</text>
</a>
</g>
</g>
<!-- Node5&#45;&gt;Node15 -->
<g id="edge16" class="edge">
<title>Node5&#45;&gt;Node15</title>
<path fill="none" stroke="midnightblue" d="M1253.33,-235.82C1250.18,-235.52 1247.06,-235.24 1244,-235 1021.89,-217.35 460.55,-242.38 242,-199 238.74,-198.35 235.39,-197.47 232.1,-196.46"/>
<polygon fill="midnightblue" stroke="midnightblue" points="233.08,-193.09 222.48,-193.13 230.79,-199.71 233.08,-193.09"/>
</g>
<!-- Node16 -->
<g id="node16" class="node">
<title>Node16</title>
<g id="a_node16"><a xlink:href="Config_8h_source.html" target="_top" xlink:title=" ">
<polygon fill="white" stroke="black" points="360.5,-56.5 360.5,-75.5 473.5,-75.5 473.5,-56.5 360.5,-56.5"/>
<text text-anchor="middle" x="417" y="-63.5" font-family="FreeSans" font-size="10.00">DGtal/base/Config.h</text>
</a>
</g>
</g>
<!-- Node5&#45;&gt;Node16 -->
<g id="edge17" class="edge">
<title>Node5&#45;&gt;Node16</title>
<path fill="none" stroke="midnightblue" d="M1253.33,-235.86C1250.18,-235.54 1247.05,-235.26 1244,-235 1155.89,-227.58 530.04,-234.38 449,-199 410.12,-182.02 397.38,-171.14 381,-132 373.66,-114.46 386.71,-95.57 399.1,-82.7"/>
<polygon fill="midnightblue" stroke="midnightblue" points="401.77,-84.99 406.54,-75.53 396.91,-79.94 401.77,-84.99"/>
</g>
<!-- Node18 -->
<g id="node18" class="node">
<title>Node18</title>
<g id="a_node18"><a xlink:href="Trace_8h_source.html" target="_top" xlink:title=" ">
<polygon fill="white" stroke="black" points="458,-174 458,-193 566,-193 566,-174 458,-174"/>
<text text-anchor="middle" x="512" y="-181" font-family="FreeSans" font-size="10.00">DGtal/base/Trace.h</text>
</a>
</g>
</g>
<!-- Node5&#45;&gt;Node18 -->
<g id="edge20" class="edge">
<title>Node5&#45;&gt;Node18</title>
<path fill="none" stroke="midnightblue" d="M1253.32,-235.94C1250.17,-235.61 1247.05,-235.29 1244,-235 1178.56,-228.71 742.7,-199.73 576.35,-188.74"/>
<polygon fill="midnightblue" stroke="midnightblue" points="576.47,-185.24 566.26,-188.07 576.01,-192.23 576.47,-185.24"/>
</g>
<!-- Node25 -->
<g id="node25" class="node">
<title>Node25</title>
<g id="a_node25"><a xlink:href="TraceWriterTerm_8h_source.html" target="_top" xlink:title=" ">
<polygon fill="white" stroke="black" points="628,-112.5 628,-131.5 790,-131.5 790,-112.5 628,-112.5"/>
<text text-anchor="middle" x="709" y="-119.5" font-family="FreeSans" font-size="10.00">DGtal/base/TraceWriterTerm.h</text>
</a>
</g>
</g>
<!-- Node5&#45;&gt;Node25 -->
<g id="edge43" class="edge">
<title>Node5&#45;&gt;Node25</title>
<path fill="none" stroke="midnightblue" d="M1253.31,-236.06C1250.16,-235.7 1247.05,-235.34 1244,-235 1084.64,-217.19 1040.22,-239.26 885,-199 828.41,-184.32 766.61,-154 733.4,-136.42"/>
<polygon fill="midnightblue" stroke="midnightblue" points="734.9,-133.25 724.43,-131.61 731.59,-139.42 734.9,-133.25"/>
</g>
<!-- Node26 -->
<g id="node26" class="node">
<title>Node26</title>
<g id="a_node26"><a xlink:href="Assert_8h_source.html" target="_top" xlink:title=" ">
<polygon fill="white" stroke="black" points="152.5,-112.5 152.5,-131.5 265.5,-131.5 265.5,-112.5 152.5,-112.5"/>
<text text-anchor="middle" x="209" y="-119.5" font-family="FreeSans" font-size="10.00">DGtal/base/Assert.h</text>
</a>
</g>
</g>
<!-- Node5&#45;&gt;Node26 -->
<g id="edge48" class="edge">
<title>Node5&#45;&gt;Node26</title>
<path fill="none" stroke="midnightblue" d="M1253.33,-235.83C1250.18,-235.52 1247.05,-235.24 1244,-235 1137.16,-226.43 377.5,-243.52 280,-199 252.87,-186.61 231.18,-158.56 219.22,-140.22"/>
<polygon fill="midnightblue" stroke="midnightblue" points="222.13,-138.28 213.87,-131.65 216.2,-141.99 222.13,-138.28"/>
</g>
<!-- Node29 -->
<g id="node29" class="node">
<title>Node29</title>
<g id="a_node29"><a xlink:href="TraceWriterFile_8h_source.html" target="_top" xlink:title=" ">
<polygon fill="white" stroke="black" points="846.5,-112.5 846.5,-131.5 1001.5,-131.5 1001.5,-112.5 846.5,-112.5"/>
<text text-anchor="middle" x="924" y="-119.5" font-family="FreeSans" font-size="10.00">DGtal/base/TraceWriterFile.h</text>
</a>
</g>
</g>
<!-- Node5&#45;&gt;Node29 -->
<g id="edge44" class="edge">
<title>Node5&#45;&gt;Node29</title>
<path fill="none" stroke="midnightblue" d="M1253.31,-236.07C1250.16,-235.7 1247.05,-235.34 1244,-235 1205.26,-230.61 921.11,-227.95 895,-199 879.69,-182.03 895.32,-156.16 908.89,-139.41"/>
<polygon fill="midnightblue" stroke="midnightblue" points="911.76,-141.44 915.63,-131.58 906.45,-136.88 911.76,-141.44"/>
</g>
<!-- Node30 -->
<g id="node30" class="node">
<title>Node30</title>
<g id="a_node30"><a xlink:href="ConceptUtils_8h_source.html" target="_top" xlink:title=" ">
<polygon fill="white" stroke="black" points="1213.5,-112.5 1213.5,-131.5 1358.5,-131.5 1358.5,-112.5 1213.5,-112.5"/>
<text text-anchor="middle" x="1286" y="-119.5" font-family="FreeSans" font-size="10.00">DGtal/base/ConceptUtils.h</text>
</a>
</g>
</g>
<!-- Node5&#45;&gt;Node30 -->
<g id="edge49" class="edge">
<title>Node5&#45;&gt;Node30</title>
<path fill="none" stroke="midnightblue" d="M1253.3,-236.1C1250.16,-235.72 1247.04,-235.35 1244,-235 1170.95,-226.5 964.1,-253.76 915,-199 905.8,-188.74 905.86,-178.31 915,-168 917.39,-165.31 1094.74,-144.72 1203.34,-132.35"/>
<polygon fill="midnightblue" stroke="midnightblue" points="1203.76,-135.82 1213.3,-131.21 1202.97,-128.87 1203.76,-135.82"/>
</g>
<!-- Node31 -->
<g id="node31" class="node">
<title>Node31</title>
<g id="a_node31"><a xlink:href="BasicTypes_8h_source.html" target="_top" xlink:title=" ">
<polygon fill="white" stroke="black" points="1058.5,-112.5 1058.5,-131.5 1195.5,-131.5 1195.5,-112.5 1058.5,-112.5"/>
<text text-anchor="middle" x="1127" y="-119.5" font-family="FreeSans" font-size="10.00">DGtal/base/BasicTypes.h</text>
</a>
</g>
</g>
<!-- Node5&#45;&gt;Node31 -->
<g id="edge51" class="edge">
<title>Node5&#45;&gt;Node31</title>
<path fill="none" stroke="midnightblue" d="M1253.31,-236.08C1250.16,-235.71 1247.04,-235.35 1244,-235 1168.74,-226.36 955.66,-255.33 905,-199 895.79,-188.76 896.28,-178.67 905,-168 914.64,-156.21 993.87,-142.22 1054.96,-133"/>
<polygon fill="midnightblue" stroke="midnightblue" points="1055.6,-136.44 1064.98,-131.51 1054.57,-129.52 1055.6,-136.44"/>
</g>
<!-- Node34 -->
<g id="node34" class="node">
<title>Node34</title>
<g id="a_node34"><a xlink:href="BasicFunctors_8h_source.html" target="_top" xlink:title=" ">
<polygon fill="white" stroke="black" points="1874,-174 1874,-193 2024,-193 2024,-174 1874,-174"/>
<text text-anchor="middle" x="1949" y="-181" font-family="FreeSans" font-size="10.00">DGtal/base/BasicFunctors.h</text>
</a>
</g>
</g>
<!-- Node5&#45;&gt;Node34 -->
<g id="edge56" class="edge">
<title>Node5&#45;&gt;Node34</title>
<path fill="none" stroke="midnightblue" d="M1380.78,-238.52C1476.05,-230.64 1660.85,-215.27 1818,-199 1832.79,-197.47 1848.58,-195.7 1863.9,-193.93"/>
<polygon fill="midnightblue" stroke="midnightblue" points="1864.36,-197.4 1873.89,-192.77 1863.55,-190.44 1864.36,-197.4"/>
</g>
<!-- Node43 -->
<g id="node43" class="node">
<title>Node43</title>
<g id="a_node43"><a xlink:href="BasicArchetypes_8h_source.html" target="_top" xlink:title=" ">
<polygon fill="white" stroke="black" points="1377,-112.5 1377,-131.5 1541,-131.5 1541,-112.5 1377,-112.5"/>
<text text-anchor="middle" x="1459" y="-119.5" font-family="FreeSans" font-size="10.00">DGtal/base/BasicArchetypes.h</text>
</a>
</g>
</g>
<!-- Node5&#45;&gt;Node43 -->
<g id="edge72" class="edge">
<title>Node5&#45;&gt;Node43</title>
<path fill="none" stroke="midnightblue" d="M1253.43,-235.89C1173,-225.32 1044.01,-207.22 1037,-199 1028.06,-188.51 1027.79,-178.25 1037,-168 1039.74,-164.95 1243.24,-144.33 1366.6,-132.09"/>
<polygon fill="midnightblue" stroke="midnightblue" points="1367.21,-135.55 1376.81,-131.08 1366.52,-128.58 1367.21,-135.55"/>
</g>
<!-- Node44 -->
<g id="node44" class="node">
<title>Node44</title>
<g id="a_node44"><a xlink:href="Exceptions_8h_source.html" target="_top" xlink:title=" ">
<polygon fill="white" stroke="black" points="2296,-174 2296,-193 2432,-193 2432,-174 2296,-174"/>
<text text-anchor="middle" x="2364" y="-181" font-family="FreeSans" font-size="10.00">DGtal/base/Exceptions.h</text>
</a>
</g>
</g>
<!-- Node5&#45;&gt;Node44 -->
<g id="edge74" class="edge">
<title>Node5&#45;&gt;Node44</title>
<path fill="none" stroke="midnightblue" d="M1380.61,-242.48C1530.97,-238.56 1920.08,-226.4 2244,-199 2259.09,-197.72 2275.22,-196.01 2290.59,-194.22"/>
<polygon fill="midnightblue" stroke="midnightblue" points="2291.05,-197.69 2300.56,-193.03 2290.22,-190.74 2291.05,-197.69"/>
</g>
<!-- Node16&#45;&gt;Node4 -->
<g id="edge18" class="edge">
<title>Node16&#45;&gt;Node4</title>
<path fill="none" stroke="midnightblue" d="M473.52,-61.86C651.16,-52 1195.55,-21.79 1349.22,-13.26"/>
<polygon fill="midnightblue" stroke="midnightblue" points="1349.81,-16.74 1359.6,-12.69 1349.42,-9.75 1349.81,-16.74"/>
</g>
<!-- Node17 -->
<g id="node17" class="node">
<title>Node17</title>
<g id="a_node17"><a xlink:title=" ">
<polygon fill="white" stroke="#bfbfbf" points="395,-0.5 395,-19.5 439,-19.5 439,-0.5 395,-0.5"/>
<text text-anchor="middle" x="417" y="-7.5" font-family="FreeSans" font-size="10.00">string</text>
</a>
</g>
</g>
<!-- Node16&#45;&gt;Node17 -->
<g id="edge19" class="edge">
<title>Node16&#45;&gt;Node17</title>
<path fill="none" stroke="midnightblue" d="M417,-56.08C417,-49.01 417,-38.86 417,-29.99"/>
<polygon fill="midnightblue" stroke="midnightblue" points="420.5,-29.75 417,-19.75 413.5,-29.75 420.5,-29.75"/>
</g>
<!-- Node18&#45;&gt;Node4 -->
<g id="edge21" class="edge">
<title>Node18&#45;&gt;Node4</title>
<path fill="none" stroke="midnightblue" d="M566.16,-183.37C679.89,-184.18 938.94,-180.5 1010,-132 1041.36,-110.6 1017.97,-77.87 1049,-56 1096.71,-22.38 1270.37,-13.86 1349.83,-11.72"/>
<polygon fill="midnightblue" stroke="midnightblue" points="1350.03,-15.21 1359.94,-11.47 1349.86,-8.22 1350.03,-15.21"/>
</g>
<!-- Node18&#45;&gt;Node16 -->
<g id="edge25" class="edge">
<title>Node18&#45;&gt;Node16</title>
<path fill="none" stroke="midnightblue" d="M457.8,-174.37C432.42,-167.54 404.43,-155.01 389,-132 378.8,-116.79 389.97,-97.25 401.09,-83.59"/>
<polygon fill="midnightblue" stroke="midnightblue" points="403.84,-85.75 407.81,-75.93 398.58,-81.14 403.84,-85.75"/>
</g>
<!-- Node18&#45;&gt;Node17 -->
<g id="edge23" class="edge">
<title>Node18&#45;&gt;Node17</title>
<path fill="none" stroke="midnightblue" d="M468.7,-174C441,-166.73 405.75,-153.86 381,-132 359.84,-113.31 357.87,-103.39 351,-76 348.84,-67.38 346.85,-63.86 351,-56 358.48,-41.85 372.62,-31.32 385.9,-24.01"/>
<polygon fill="midnightblue" stroke="midnightblue" points="387.53,-27.11 394.87,-19.47 384.36,-20.87 387.53,-27.11"/>
</g>
<!-- Node19 -->
<g id="node19" class="node">
<title>Node19</title>
<g id="a_node19"><a xlink:title=" ">
<polygon fill="white" stroke="#bfbfbf" points="650.5,-0.5 650.5,-19.5 707.5,-19.5 707.5,-0.5 650.5,-0.5"/>
<text text-anchor="middle" x="679" y="-7.5" font-family="FreeSans" font-size="10.00">ostream</text>
</a>
</g>
</g>
<!-- Node18&#45;&gt;Node19 -->
<g id="edge22" class="edge">
<title>Node18&#45;&gt;Node19</title>
<path fill="none" stroke="midnightblue" d="M504.67,-173.73C494.02,-159.84 476.8,-132.3 489,-112 521.83,-57.37 595.28,-30.7 640.63,-18.98"/>
<polygon fill="midnightblue" stroke="midnightblue" points="641.54,-22.37 650.41,-16.58 639.86,-15.57 641.54,-22.37"/>
</g>
<!-- Node20 -->
<g id="node20" class="node">
<title>Node20</title>
<g id="a_node20"><a xlink:title=" ">
<polygon fill="white" stroke="#bfbfbf" points="398.5,-112.5 398.5,-131.5 441.5,-131.5 441.5,-112.5 398.5,-112.5"/>
<text text-anchor="middle" x="420" y="-119.5" font-family="FreeSans" font-size="10.00">stack</text>
</a>
</g>
</g>
<!-- Node18&#45;&gt;Node20 -->
<g id="edge24" class="edge">
<title>Node18&#45;&gt;Node20</title>
<path fill="none" stroke="midnightblue" d="M498.82,-173.98C483.93,-164.34 459.46,-148.52 441.73,-137.05"/>
<polygon fill="midnightblue" stroke="midnightblue" points="443.45,-134 433.16,-131.51 439.65,-139.88 443.45,-134"/>
</g>
<!-- Node18&#45;&gt;Node21 -->
<g id="edge26" class="edge">
<title>Node18&#45;&gt;Node21</title>
<path fill="none" stroke="midnightblue" d="M566.22,-180.52C748.13,-173.76 1336.73,-151.06 1548.77,-132.01"/>
<polygon fill="midnightblue" stroke="midnightblue" points="1549.24,-135.48 1558.88,-131.08 1548.6,-128.51 1549.24,-135.48"/>
</g>
<!-- Node24 -->
<g id="node24" class="node">
<title>Node24</title>
<g id="a_node24"><a xlink:href="TraceWriter_8h_source.html" target="_top" xlink:title=" ">
<polygon fill="white" stroke="black" points="749.5,-56.5 749.5,-75.5 886.5,-75.5 886.5,-56.5 749.5,-56.5"/>
<text text-anchor="middle" x="818" y="-63.5" font-family="FreeSans" font-size="10.00">DGtal/base/TraceWriter.h</text>
</a>
</g>
</g>
<!-- Node18&#45;&gt;Node24 -->
<g id="edge30" class="edge">
<title>Node18&#45;&gt;Node24</title>
<path fill="none" stroke="midnightblue" d="M566.04,-179.68C639.45,-174.75 765.41,-162.08 799,-132 811.98,-120.38 816.3,-100.42 817.64,-85.68"/>
<polygon fill="midnightblue" stroke="midnightblue" points="821.13,-85.82 818.17,-75.65 814.14,-85.45 821.13,-85.82"/>
</g>
<!-- Node18&#45;&gt;Node25 -->
<g id="edge33" class="edge">
<title>Node18&#45;&gt;Node25</title>
<path fill="none" stroke="midnightblue" d="M540.23,-173.98C574.6,-163.59 632.81,-146.01 671.08,-134.45"/>
<polygon fill="midnightblue" stroke="midnightblue" points="672.27,-137.75 680.83,-131.51 670.24,-131.05 672.27,-137.75"/>
</g>
<!-- Node18&#45;&gt;Node26 -->
<g id="edge38" class="edge">
<title>Node18&#45;&gt;Node26</title>
<path fill="none" stroke="midnightblue" d="M463.69,-173.98C407.14,-163.33 314.23,-145.11 257.58,-133.58"/>
<polygon fill="midnightblue" stroke="midnightblue" points="257.93,-130.08 247.43,-131.51 256.53,-136.94 257.93,-130.08"/>
</g>
<!-- Node28 -->
<g id="node28" class="node">
<title>Node28</title>
<g id="a_node28"><a xlink:href="Trace_8ih_source.html" target="_top" xlink:title=" ">
<polygon fill="white" stroke="black" points="498.5,-112.5 498.5,-131.5 609.5,-131.5 609.5,-112.5 498.5,-112.5"/>
<text text-anchor="middle" x="554" y="-119.5" font-family="FreeSans" font-size="10.00">DGtal/base/Trace.ih</text>
</a>
</g>
</g>
<!-- Node18&#45;&gt;Node28 -->
<g id="edge42" class="edge">
<title>Node18&#45;&gt;Node28</title>
<path fill="none" stroke="midnightblue" d="M518.02,-173.98C524.26,-165.14 534.17,-151.09 542.02,-139.98"/>
<polygon fill="midnightblue" stroke="midnightblue" points="545.09,-141.7 547.99,-131.51 539.37,-137.66 545.09,-141.7"/>
</g>
<!-- Node21&#45;&gt;Node4 -->
<g id="edge27" class="edge">
<title>Node21&#45;&gt;Node4</title>
<path fill="none" stroke="midnightblue" d="M1569.37,-112.48C1538.97,-105.5 1498.5,-93.81 1466,-76 1442.36,-63.05 1419.44,-41.9 1405.07,-27.26"/>
<polygon fill="midnightblue" stroke="midnightblue" points="1407.45,-24.69 1398.01,-19.89 1402.4,-29.53 1407.45,-24.69"/>
</g>
<!-- Node22 -->
<g id="node22" class="node">
<title>Node22</title>
<g id="a_node22"><a xlink:title=" ">
<polygon fill="white" stroke="#bfbfbf" points="1293.5,-56.5 1293.5,-75.5 1342.5,-75.5 1342.5,-56.5 1293.5,-56.5"/>
<text text-anchor="middle" x="1318" y="-63.5" font-family="FreeSans" font-size="10.00">cstdlib</text>
</a>
</g>
</g>
<!-- Node21&#45;&gt;Node22 -->
<g id="edge28" class="edge">
<title>Node21&#45;&gt;Node22</title>
<path fill="none" stroke="midnightblue" d="M1567.1,-112.44C1507.5,-101.57 1405.99,-83.05 1352.82,-73.35"/>
<polygon fill="midnightblue" stroke="midnightblue" points="1353.33,-69.89 1342.86,-71.54 1352.07,-76.77 1353.33,-69.89"/>
</g>
<!-- Node23 -->
<g id="node23" class="node">
<title>Node23</title>
<g id="a_node23"><a xlink:href="Clock_8ih_source.html" target="_top" xlink:title=" ">
<polygon fill="white" stroke="black" points="1475.5,-56.5 1475.5,-75.5 1588.5,-75.5 1588.5,-56.5 1475.5,-56.5"/>
<text text-anchor="middle" x="1532" y="-63.5" font-family="FreeSans" font-size="10.00">DGtal/base/Clock.ih</text>
</a>
</g>
</g>
<!-- Node21&#45;&gt;Node23 -->
<g id="edge29" class="edge">
<title>Node21&#45;&gt;Node23</title>
<path fill="none" stroke="midnightblue" d="M1600.83,-112.32C1588.15,-103.98 1568.77,-91.21 1553.79,-81.35"/>
<polygon fill="midnightblue" stroke="midnightblue" points="1555.42,-78.23 1545.14,-75.65 1551.57,-84.08 1555.42,-78.23"/>
</g>
<!-- Node24&#45;&gt;Node4 -->
<g id="edge31" class="edge">
<title>Node24&#45;&gt;Node4</title>
<path fill="none" stroke="midnightblue" d="M886.71,-58.51C1007.17,-47.14 1252.82,-23.95 1349.56,-14.82"/>
<polygon fill="midnightblue" stroke="midnightblue" points="1350.17,-18.28 1359.8,-13.85 1349.51,-11.31 1350.17,-18.28"/>
</g>
<!-- Node24&#45;&gt;Node19 -->
<g id="edge32" class="edge">
<title>Node24&#45;&gt;Node19</title>
<path fill="none" stroke="midnightblue" d="M795.98,-56.44C772.9,-47.48 736.44,-33.31 710.36,-23.18"/>
<polygon fill="midnightblue" stroke="midnightblue" points="711.51,-19.88 700.92,-19.52 708.98,-26.4 711.51,-19.88"/>
</g>
<!-- Node25&#45;&gt;Node4 -->
<g id="edge34" class="edge">
<title>Node25&#45;&gt;Node4</title>
<path fill="none" stroke="midnightblue" d="M710.29,-112.48C712.96,-98.08 720.57,-69.22 740,-56 790.31,-21.77 1215.25,-13.29 1349.52,-11.46"/>
<polygon fill="midnightblue" stroke="midnightblue" points="1349.82,-14.95 1359.77,-11.32 1349.73,-7.95 1349.82,-14.95"/>
</g>
<!-- Node25&#45;&gt;Node16 -->
<g id="edge37" class="edge">
<title>Node25&#45;&gt;Node16</title>
<path fill="none" stroke="midnightblue" d="M662.73,-112.44C611.26,-102.92 528.11,-87.55 473,-77.36"/>
<polygon fill="midnightblue" stroke="midnightblue" points="473.52,-73.89 463.05,-75.52 472.25,-80.78 473.52,-73.89"/>
</g>
<!-- Node25&#45;&gt;Node17 -->
<g id="edge35" class="edge">
<title>Node25&#45;&gt;Node17</title>
<path fill="none" stroke="midnightblue" d="M686.09,-112.37C634.23,-92.83 507.81,-45.21 448.58,-22.9"/>
<polygon fill="midnightblue" stroke="midnightblue" points="449.6,-19.54 439.01,-19.29 447.13,-26.09 449.6,-19.54"/>
</g>
<!-- Node25&#45;&gt;Node24 -->
<g id="edge36" class="edge">
<title>Node25&#45;&gt;Node24</title>
<path fill="none" stroke="midnightblue" d="M726.51,-112.32C744.07,-103.62 771.33,-90.12 791.53,-80.11"/>
<polygon fill="midnightblue" stroke="midnightblue" points="793.12,-83.23 800.53,-75.65 790.02,-76.96 793.12,-83.23"/>
</g>
<!-- Node26&#45;&gt;Node17 -->
<g id="edge41" class="edge">
<title>Node26&#45;&gt;Node17</title>
<path fill="none" stroke="midnightblue" d="M222.49,-112.29C242.81,-99.33 282.67,-74.49 318,-56 340.61,-44.17 366.94,-32.28 386.76,-23.7"/>
<polygon fill="midnightblue" stroke="midnightblue" points="388.39,-26.81 396.2,-19.65 385.63,-20.38 388.39,-26.81"/>
</g>
<!-- Node26&#45;&gt;Node18 -->
<g id="edge39" class="edge">
<title>Node26&#45;&gt;Node18</title>
<path fill="none" stroke="midnightblue" d="M257.23,-131.51C313.74,-142.15 406.65,-160.37 463.34,-171.9"/>
<polygon fill="midnightblue" stroke="midnightblue" points="462.99,-175.4 473.49,-173.98 464.39,-168.54 462.99,-175.4"/>
</g>
<!-- Node27 -->
<g id="node27" class="node">
<title>Node27</title>
<g id="a_node27"><a xlink:title=" ">
<polygon fill="white" stroke="#bfbfbf" points="118.5,-56.5 118.5,-75.5 265.5,-75.5 265.5,-56.5 118.5,-56.5"/>
<text text-anchor="middle" x="192" y="-63.5" font-family="FreeSans" font-size="10.00">boost/current_function.hpp</text>
</a>
</g>
</g>
<!-- Node26&#45;&gt;Node27 -->
<g id="edge40" class="edge">
<title>Node26&#45;&gt;Node27</title>
<path fill="none" stroke="midnightblue" d="M206.19,-112.08C203.92,-104.85 200.63,-94.41 197.79,-85.4"/>
<polygon fill="midnightblue" stroke="midnightblue" points="201.1,-84.24 194.75,-75.75 194.42,-86.34 201.1,-84.24"/>
</g>
<!-- Node29&#45;&gt;Node4 -->
<g id="edge45" class="edge">
<title>Node29&#45;&gt;Node4</title>
<path fill="none" stroke="midnightblue" d="M932.76,-112.47C948.16,-98.07 981.69,-69.21 1016,-56 1076.29,-32.8 1266.24,-18.61 1349.84,-13.34"/>
<polygon fill="midnightblue" stroke="midnightblue" points="1350.2,-16.82 1359.97,-12.71 1349.77,-9.84 1350.2,-16.82"/>
</g>
<!-- Node29&#45;&gt;Node17 -->
<g id="edge46" class="edge">
<title>Node29&#45;&gt;Node17</title>
<path fill="none" stroke="midnightblue" d="M884.64,-112.46C787.51,-91.39 537.87,-37.22 449,-17.94"/>
<polygon fill="midnightblue" stroke="midnightblue" points="449.74,-14.52 439.22,-15.82 448.25,-21.36 449.74,-14.52"/>
</g>
<!-- Node29&#45;&gt;Node24 -->
<g id="edge47" class="edge">
<title>Node29&#45;&gt;Node24</title>
<path fill="none" stroke="midnightblue" d="M906.97,-112.32C889.97,-103.66 863.62,-90.24 844.01,-80.25"/>
<polygon fill="midnightblue" stroke="midnightblue" points="845.49,-77.08 834.99,-75.65 842.31,-83.31 845.49,-77.08"/>
</g>
<!-- Node30&#45;&gt;Node4 -->
<g id="edge50" class="edge">
<title>Node30&#45;&gt;Node4</title>
<path fill="none" stroke="midnightblue" d="M1302.13,-112.45C1316.23,-104.41 1336.64,-91.32 1351,-76 1364.05,-62.07 1374.83,-43.06 1381.72,-29.2"/>
<polygon fill="midnightblue" stroke="midnightblue" points="1385.07,-30.31 1386.21,-19.77 1378.75,-27.3 1385.07,-30.31"/>
</g>
<!-- Node31&#45;&gt;Node4 -->
<g id="edge53" class="edge">
<title>Node31&#45;&gt;Node4</title>
<path fill="none" stroke="midnightblue" d="M1151.73,-112.46C1175.82,-103.93 1213.36,-90.1 1245,-76 1262.79,-68.07 1266.36,-64.26 1284,-56 1309.01,-44.3 1337.89,-32.12 1359.18,-23.39"/>
<polygon fill="midnightblue" stroke="midnightblue" points="1360.75,-26.54 1368.68,-19.52 1358.1,-20.05 1360.75,-26.54"/>
</g>
<!-- Node31&#45;&gt;Node22 -->
<g id="edge52" class="edge">
<title>Node31&#45;&gt;Node22</title>
<path fill="none" stroke="midnightblue" d="M1157.26,-112.44C1191.54,-102.75 1247.29,-86.99 1283.3,-76.81"/>
<polygon fill="midnightblue" stroke="midnightblue" points="1284.67,-80.06 1293.34,-73.97 1282.77,-73.32 1284.67,-80.06"/>
</g>
<!-- Node32 -->
<g id="node32" class="node">
<title>Node32</title>
<g id="a_node32"><a xlink:title=" ">
<polygon fill="white" stroke="#bfbfbf" points="1058.5,-56.5 1058.5,-75.5 1159.5,-75.5 1159.5,-56.5 1058.5,-56.5"/>
<text text-anchor="middle" x="1109" y="-63.5" font-family="FreeSans" font-size="10.00">boost/cstdint.hpp</text>
</a>
</g>
</g>
<!-- Node31&#45;&gt;Node32 -->
<g id="edge54" class="edge">
<title>Node31&#45;&gt;Node32</title>
<path fill="none" stroke="midnightblue" d="M1124.03,-112.08C1121.62,-104.85 1118.14,-94.41 1115.13,-85.4"/>
<polygon fill="midnightblue" stroke="midnightblue" points="1118.4,-84.13 1111.92,-75.75 1111.76,-86.34 1118.4,-84.13"/>
</g>
<!-- Node33 -->
<g id="node33" class="node">
<title>Node33</title>
<g id="a_node33"><a xlink:title=" ">
<polygon fill="white" stroke="#bfbfbf" points="1177.5,-56.5 1177.5,-75.5 1236.5,-75.5 1236.5,-56.5 1177.5,-56.5"/>
<text text-anchor="middle" x="1207" y="-63.5" font-family="FreeSans" font-size="10.00">gmpxx.h</text>
</a>
</g>
</g>
<!-- Node31&#45;&gt;Node33 -->
<g id="edge55" class="edge">
<title>Node31&#45;&gt;Node33</title>
<path fill="none" stroke="midnightblue" d="M1139.85,-112.32C1152.22,-103.98 1171.13,-91.21 1185.74,-81.35"/>
<polygon fill="midnightblue" stroke="midnightblue" points="1187.85,-84.15 1194.18,-75.65 1183.93,-78.35 1187.85,-84.15"/>
</g>
<!-- Node34&#45;&gt;Node3 -->
<g id="edge59" class="edge">
<title>Node34&#45;&gt;Node3</title>
<path fill="none" stroke="midnightblue" d="M1996.2,-173.94C2044.55,-164.95 2122.09,-149.94 2198.46,-132"/>
<polygon fill="midnightblue" stroke="midnightblue" points="2199.33,-135.39 2208.26,-129.68 2197.72,-128.58 2199.33,-135.39"/>
</g>
<!-- Node34&#45;&gt;Node5 -->
<g id="edge67" class="edge">
<title>Node34&#45;&gt;Node5</title>
<path fill="none" stroke="midnightblue" d="M1889.03,-193.03C1871.94,-195.09 1853.29,-197.21 1836,-199 1677.87,-215.37 1491.75,-230.83 1390.87,-238.66"/>
<polygon fill="midnightblue" stroke="midnightblue" points="1390.49,-235.18 1380.79,-239.44 1391.03,-242.16 1390.49,-235.18"/>
</g>
<!-- Node34&#45;&gt;Node7 -->
<g id="edge57" class="edge">
<title>Node34&#45;&gt;Node7</title>
<path fill="none" stroke="midnightblue" d="M1958.44,-173.86C1967.94,-164.54 1982.14,-148.77 1989,-132 1994.99,-117.38 1996.53,-99.44 1996.7,-86.11"/>
<polygon fill="midnightblue" stroke="midnightblue" points="2000.19,-85.74 1996.56,-75.79 1993.19,-85.83 2000.19,-85.74"/>
</g>
<!-- Node35 -->
<g id="node35" class="node">
<title>Node35</title>
<g id="a_node35"><a xlink:title=" ">
<polygon fill="white" stroke="#bfbfbf" points="1915.5,-112.5 1915.5,-131.5 1980.5,-131.5 1980.5,-112.5 1915.5,-112.5"/>
<text text-anchor="middle" x="1948" y="-119.5" font-family="FreeSans" font-size="10.00">functional</text>
</a>
</g>
</g>
<!-- Node34&#45;&gt;Node35 -->
<g id="edge58" class="edge">
<title>Node34&#45;&gt;Node35</title>
<path fill="none" stroke="midnightblue" d="M1948.86,-173.98C1948.72,-165.58 1948.5,-152.48 1948.31,-141.66"/>
<polygon fill="midnightblue" stroke="midnightblue" points="1951.81,-141.45 1948.14,-131.51 1944.81,-141.57 1951.81,-141.45"/>
</g>
<!-- Node36 -->
<g id="node36" class="node">
<title>Node36</title>
<g id="a_node36"><a xlink:href="Color_8h_source.html" target="_top" xlink:title=" ">
<polygon fill="white" stroke="black" points="2097.5,-112.5 2097.5,-131.5 2190.5,-131.5 2190.5,-112.5 2097.5,-112.5"/>
<text text-anchor="middle" x="2144" y="-119.5" font-family="FreeSans" font-size="10.00">DGtal/io/Color.h</text>
</a>
</g>
</g>
<!-- Node34&#45;&gt;Node36 -->
<g id="edge60" class="edge">
<title>Node34&#45;&gt;Node36</title>
<path fill="none" stroke="midnightblue" d="M1976.94,-173.98C2010.97,-163.59 2068.58,-146.01 2106.46,-134.45"/>
<polygon fill="midnightblue" stroke="midnightblue" points="2107.57,-137.78 2116.11,-131.51 2105.53,-131.08 2107.57,-137.78"/>
</g>
<!-- Node40 -->
<g id="node40" class="node">
<title>Node40</title>
<g id="a_node40"><a xlink:href="BasicBoolFunctors_8h_source.html" target="_top" xlink:title=" ">
<polygon fill="white" stroke="black" points="1687,-112.5 1687,-131.5 1859,-131.5 1859,-112.5 1687,-112.5"/>
<text text-anchor="middle" x="1773" y="-119.5" font-family="FreeSans" font-size="10.00">DGtal/base/BasicBoolFunctors.h</text>
</a>
</g>
</g>
<!-- Node34&#45;&gt;Node40 -->
<g id="edge68" class="edge">
<title>Node34&#45;&gt;Node40</title>
<path fill="none" stroke="midnightblue" d="M1923.78,-173.98C1893.33,-163.68 1841.95,-146.31 1807.76,-134.75"/>
<polygon fill="midnightblue" stroke="midnightblue" points="1808.76,-131.4 1798.17,-131.51 1806.52,-138.03 1808.76,-131.4"/>
</g>
<!-- Node36&#45;&gt;Node4 -->
<g id="edge61" class="edge">
<title>Node36&#45;&gt;Node4</title>
<path fill="none" stroke="midnightblue" d="M2130.79,-112.49C2104.48,-95.61 2047.15,-59.23 2037,-56 1923.08,-19.8 1553.11,-12.69 1430.14,-11.32"/>
<polygon fill="midnightblue" stroke="midnightblue" points="1430.07,-7.82 1420.04,-11.22 1430,-14.82 1430.07,-7.82"/>
</g>
<!-- Node36&#45;&gt;Node5 -->
<g id="edge62" class="edge">
<title>Node36&#45;&gt;Node5</title>
<path fill="none" stroke="midnightblue" d="M2152.47,-131.67C2166.55,-147.1 2191.47,-179.53 2173,-199 2146.27,-227.17 1593.98,-239.32 1391,-242.85"/>
<polygon fill="midnightblue" stroke="midnightblue" points="1390.67,-239.35 1380.73,-243.02 1390.79,-246.35 1390.67,-239.35"/>
</g>
<!-- Node36&#45;&gt;Node7 -->
<g id="edge64" class="edge">
<title>Node36&#45;&gt;Node7</title>
<path fill="none" stroke="midnightblue" d="M2120.55,-112.44C2095.87,-103.44 2056.81,-89.19 2029.02,-79.05"/>
<polygon fill="midnightblue" stroke="midnightblue" points="2029.94,-75.66 2019.34,-75.52 2027.54,-82.23 2029.94,-75.66"/>
</g>
<!-- Node37 -->
<g id="node37" class="node">
<title>Node37</title>
<g id="a_node37"><a xlink:title=" ">
<polygon fill="white" stroke="#bfbfbf" points="2084.5,-56.5 2084.5,-75.5 2209.5,-75.5 2209.5,-56.5 2084.5,-56.5"/>
<text text-anchor="middle" x="2147" y="-63.5" font-family="FreeSans" font-size="10.00">boost/lexical_cast.hpp</text>
</a>
</g>
</g>
<!-- Node36&#45;&gt;Node37 -->
<g id="edge63" class="edge">
<title>Node36&#45;&gt;Node37</title>
<path fill="none" stroke="midnightblue" d="M2144.5,-112.08C2144.89,-105.01 2145.45,-94.86 2145.95,-85.99"/>
<polygon fill="midnightblue" stroke="midnightblue" points="2149.45,-85.93 2146.51,-75.75 2142.46,-85.54 2149.45,-85.93"/>
</g>
<!-- Node38 -->
<g id="node38" class="node">
<title>Node38</title>
<g id="a_node38"><a xlink:title=" ">
<polygon fill="white" stroke="#bfbfbf" points="2228,-56.5 2228,-75.5 2270,-75.5 2270,-56.5 2228,-56.5"/>
<text text-anchor="middle" x="2249" y="-63.5" font-family="FreeSans" font-size="10.00">array</text>
</a>
</g>
</g>
<!-- Node36&#45;&gt;Node38 -->
<g id="edge65" class="edge">
<title>Node36&#45;&gt;Node38</title>
<path fill="none" stroke="midnightblue" d="M2160.87,-112.32C2177.71,-103.66 2203.81,-90.24 2223.24,-80.25"/>
<polygon fill="midnightblue" stroke="midnightblue" points="2224.88,-83.34 2232.17,-75.65 2221.68,-77.12 2224.88,-83.34"/>
</g>
<!-- Node39 -->
<g id="node39" class="node">
<title>Node39</title>
<g id="a_node39"><a xlink:href="Color_8ih_source.html" target="_top" xlink:title=" ">
<polygon fill="white" stroke="black" points="2288,-56.5 2288,-75.5 2384,-75.5 2384,-56.5 2288,-56.5"/>
<text text-anchor="middle" x="2336" y="-63.5" font-family="FreeSans" font-size="10.00">DGtal/io/Color.ih</text>
</a>
</g>
</g>
<!-- Node36&#45;&gt;Node39 -->
<g id="edge66" class="edge">
<title>Node36&#45;&gt;Node39</title>
<path fill="none" stroke="midnightblue" d="M2174.42,-112.44C2207.28,-103.2 2259.78,-88.44 2295.97,-78.26"/>
<polygon fill="midnightblue" stroke="midnightblue" points="2297.04,-81.59 2305.72,-75.52 2295.15,-74.85 2297.04,-81.59"/>
</g>
<!-- Node40&#45;&gt;Node4 -->
<g id="edge69" class="edge">
<title>Node40&#45;&gt;Node4</title>
<path fill="none" stroke="midnightblue" d="M1742.57,-112.5C1714.48,-104.3 1671.81,-90.95 1636,-76 1618.02,-68.49 1615.34,-62.57 1597,-56 1540.71,-35.84 1472.42,-23.13 1430.08,-16.55"/>
<polygon fill="midnightblue" stroke="midnightblue" points="1430.57,-13.08 1420.16,-15.04 1429.52,-20 1430.57,-13.08"/>
</g>
<!-- Node41 -->
<g id="node41" class="node">
<title>Node41</title>
<g id="a_node41"><a xlink:title=" ">
<polygon fill="white" stroke="#bfbfbf" points="1645.5,-56.5 1645.5,-75.5 1752.5,-75.5 1752.5,-56.5 1645.5,-56.5"/>
<text text-anchor="middle" x="1699" y="-63.5" font-family="FreeSans" font-size="10.00">boost/function.hpp</text>
</a>
</g>
</g>
<!-- Node40&#45;&gt;Node41 -->
<g id="edge70" class="edge">
<title>Node40&#45;&gt;Node41</title>
<path fill="none" stroke="midnightblue" d="M1761.11,-112.32C1749.85,-104.11 1732.71,-91.6 1719.29,-81.81"/>
<polygon fill="midnightblue" stroke="midnightblue" points="1721.25,-78.9 1711.11,-75.83 1717.12,-84.56 1721.25,-78.9"/>
</g>
<!-- Node42 -->
<g id="node42" class="node">
<title>Node42</title>
<g id="a_node42"><a xlink:href="BasicBoolFunctors_8ih_source.html" target="_top" xlink:title=" ">
<polygon fill="white" stroke="black" points="1770.5,-56.5 1770.5,-75.5 1945.5,-75.5 1945.5,-56.5 1770.5,-56.5"/>
<text text-anchor="middle" x="1858" y="-63.5" font-family="FreeSans" font-size="10.00">DGtal/base/BasicBoolFunctors.ih</text>
</a>
</g>
</g>
<!-- Node40&#45;&gt;Node42 -->
<g id="edge71" class="edge">
<title>Node40&#45;&gt;Node42</title>
<path fill="none" stroke="midnightblue" d="M1786.66,-112.32C1799.92,-103.9 1820.27,-90.97 1835.85,-81.07"/>
<polygon fill="midnightblue" stroke="midnightblue" points="1837.81,-83.97 1844.38,-75.65 1834.06,-78.06 1837.81,-83.97"/>
</g>
<!-- Node43&#45;&gt;Node4 -->
<g id="edge73" class="edge">
<title>Node43&#45;&gt;Node4</title>
<path fill="none" stroke="midnightblue" d="M1453.59,-112.37C1442.25,-94.3 1415.83,-52.18 1400.86,-28.31"/>
<polygon fill="midnightblue" stroke="midnightblue" points="1403.67,-26.2 1395.39,-19.59 1397.74,-29.92 1403.67,-26.2"/>
</g>
<!-- Node44&#45;&gt;Node4 -->
<g id="edge75" class="edge">
<title>Node44&#45;&gt;Node4</title>
<path fill="none" stroke="midnightblue" d="M2370.56,-173.75C2386.75,-151.02 2425.08,-89.55 2393,-56 2359.19,-20.64 1613.22,-12.69 1430.24,-11.27"/>
<polygon fill="midnightblue" stroke="midnightblue" points="1430.26,-7.77 1420.23,-11.19 1430.21,-14.77 1430.26,-7.77"/>
</g>
</g>
</svg>
