<?xml version="1.0" encoding="UTF-8" standalone="no"?>
<!DOCTYPE svg PUBLIC "-//W3C//DTD SVG 1.1//EN"
 "http://www.w3.org/Graphics/SVG/1.1/DTD/svg11.dtd">
<!-- Generated by graphviz version 2.43.0 (0)
 -->
<!-- Title: testCirculator.cpp Pages: 1 -->
<svg width="2924pt" height="341pt"
 viewBox="0.00 0.00 2924.00 341.00" xmlns="http://www.w3.org/2000/svg" xmlns:xlink="http://www.w3.org/1999/xlink">
<g id="graph0" class="graph" transform="scale(1 1) rotate(0) translate(4 337)">
<title>testCirculator.cpp</title>
<polygon fill="white" stroke="transparent" points="-4,4 -4,-337 2920,-337 2920,4 -4,4"/>
<!-- Node1 -->
<g id="node1" class="node">
<title>Node1</title>
<g id="a_node1"><a xlink:title=" ">
<polygon fill="#bfbfbf" stroke="black" points="1103,-313.5 1103,-332.5 1205,-332.5 1205,-313.5 1103,-313.5"/>
<text text-anchor="middle" x="1154" y="-320.5" font-family="FreeSans" font-size="10.00">testCirculator.cpp</text>
</a>
</g>
</g>
<!-- Node2 -->
<g id="node2" class="node">
<title>Node2</title>
<g id="a_node2"><a xlink:title=" ">
<polygon fill="white" stroke="#bfbfbf" points="946,-0.5 946,-19.5 1006,-19.5 1006,-0.5 946,-0.5"/>
<text text-anchor="middle" x="976" y="-7.5" font-family="FreeSans" font-size="10.00">iostream</text>
</a>
</g>
</g>
<!-- Node1&#45;&gt;Node2 -->
<g id="edge1" class="edge">
<title>Node1&#45;&gt;Node2</title>
<path fill="none" stroke="midnightblue" d="M1102.93,-322.33C879.59,-323.1 0,-319 0,-206.5 0,-206.5 0,-206.5 0,-137.5 0,-93.8 16.93,-77.45 55,-56 132.41,-12.4 768.11,-10.58 935.65,-10.86"/>
<polygon fill="midnightblue" stroke="midnightblue" points="935.77,-14.36 945.77,-10.88 935.78,-7.36 935.77,-14.36"/>
</g>
<!-- Node3 -->
<g id="node3" class="node">
<title>Node3</title>
<g id="a_node3"><a xlink:title=" ">
<polygon fill="white" stroke="#bfbfbf" points="1101.5,-257.5 1101.5,-276.5 1148.5,-276.5 1148.5,-257.5 1101.5,-257.5"/>
<text text-anchor="middle" x="1125" y="-264.5" font-family="FreeSans" font-size="10.00">vector</text>
</a>
</g>
</g>
<!-- Node1&#45;&gt;Node3 -->
<g id="edge2" class="edge">
<title>Node1&#45;&gt;Node3</title>
<path fill="none" stroke="midnightblue" d="M1149.21,-313.08C1145.24,-305.69 1139.47,-294.95 1134.57,-285.81"/>
<polygon fill="midnightblue" stroke="midnightblue" points="1137.51,-283.91 1129.7,-276.75 1131.35,-287.22 1137.51,-283.91"/>
</g>
<!-- Node4 -->
<g id="node4" class="node">
<title>Node4</title>
<g id="a_node4"><a xlink:title=" ">
<polygon fill="white" stroke="#bfbfbf" points="1167,-257.5 1167,-276.5 1199,-276.5 1199,-257.5 1167,-257.5"/>
<text text-anchor="middle" x="1183" y="-264.5" font-family="FreeSans" font-size="10.00">list</text>
</a>
</g>
</g>
<!-- Node1&#45;&gt;Node4 -->
<g id="edge3" class="edge">
<title>Node1&#45;&gt;Node4</title>
<path fill="none" stroke="midnightblue" d="M1158.79,-313.08C1162.76,-305.69 1168.53,-294.95 1173.43,-285.81"/>
<polygon fill="midnightblue" stroke="midnightblue" points="1176.65,-287.22 1178.3,-276.75 1170.49,-283.91 1176.65,-287.22"/>
</g>
<!-- Node5 -->
<g id="node5" class="node">
<title>Node5</title>
<g id="a_node5"><a xlink:title=" ">
<polygon fill="white" stroke="#bfbfbf" points="1217,-257.5 1217,-276.5 1291,-276.5 1291,-257.5 1217,-257.5"/>
<text text-anchor="middle" x="1254" y="-264.5" font-family="FreeSans" font-size="10.00">forward_list</text>
</a>
</g>
</g>
<!-- Node1&#45;&gt;Node5 -->
<g id="edge4" class="edge">
<title>Node1&#45;&gt;Node5</title>
<path fill="none" stroke="midnightblue" d="M1170.07,-313.32C1185.96,-304.74 1210.51,-291.49 1228.96,-281.52"/>
<polygon fill="midnightblue" stroke="midnightblue" points="1230.84,-284.49 1237.97,-276.65 1227.51,-278.33 1230.84,-284.49"/>
</g>
<!-- Node6 -->
<g id="node6" class="node">
<title>Node6</title>
<g id="a_node6"><a xlink:href="Common_8h_source.html" target="_top" xlink:title=" ">
<polygon fill="white" stroke="black" points="956.5,-257.5 956.5,-276.5 1083.5,-276.5 1083.5,-257.5 956.5,-257.5"/>
<text text-anchor="middle" x="1020" y="-264.5" font-family="FreeSans" font-size="10.00">DGtal/base/Common.h</text>
</a>
</g>
</g>
<!-- Node1&#45;&gt;Node6 -->
<g id="edge5" class="edge">
<title>Node1&#45;&gt;Node6</title>
<path fill="none" stroke="midnightblue" d="M1132.77,-313.44C1110.62,-304.52 1075.68,-290.44 1050.56,-280.32"/>
<polygon fill="midnightblue" stroke="midnightblue" points="1051.72,-277.01 1041.13,-276.52 1049.1,-283.5 1051.72,-277.01"/>
</g>
<!-- Node47 -->
<g id="node44" class="node">
<title>Node47</title>
<g id="a_node44"><a xlink:href="Circulator_8h_source.html" target="_top" xlink:title=" ">
<polygon fill="white" stroke="black" points="2453.5,-257.5 2453.5,-276.5 2582.5,-276.5 2582.5,-257.5 2453.5,-257.5"/>
<text text-anchor="middle" x="2518" y="-264.5" font-family="FreeSans" font-size="10.00">DGtal/base/Circulator.h</text>
</a>
</g>
</g>
<!-- Node1&#45;&gt;Node47 -->
<g id="edge74" class="edge">
<title>Node1&#45;&gt;Node47</title>
<path fill="none" stroke="midnightblue" d="M1205.39,-319.97C1413.79,-311.71 2196.51,-280.73 2443.11,-270.96"/>
<polygon fill="midnightblue" stroke="midnightblue" points="2443.55,-274.45 2453.4,-270.56 2443.27,-267.46 2443.55,-274.45"/>
</g>
<!-- Node6&#45;&gt;Node2 -->
<g id="edge6" class="edge">
<title>Node6&#45;&gt;Node2</title>
<path fill="none" stroke="midnightblue" d="M956.45,-259.95C931.2,-254.07 904.51,-242.73 889,-221 845.49,-160.04 957.47,-199.13 1009,-87 1014.75,-74.48 1013.29,-69.09 1009,-56 1005.51,-45.34 998.43,-35.12 991.71,-27.12"/>
<polygon fill="midnightblue" stroke="midnightblue" points="994.3,-24.76 985.02,-19.66 989.1,-29.44 994.3,-24.76"/>
</g>
<!-- Node7 -->
<g id="node7" class="node">
<title>Node7</title>
<g id="a_node7"><a xlink:title=" ">
<polygon fill="white" stroke="#bfbfbf" points="622.5,-196 622.5,-215 687.5,-215 687.5,-196 622.5,-196"/>
<text text-anchor="middle" x="655" y="-203" font-family="FreeSans" font-size="10.00">exception</text>
</a>
</g>
</g>
<!-- Node6&#45;&gt;Node7 -->
<g id="edge7" class="edge">
<title>Node6&#45;&gt;Node7</title>
<path fill="none" stroke="midnightblue" d="M956.5,-260.82C890.87,-254.62 785.78,-242.3 697,-221 693.77,-220.23 690.45,-219.3 687.14,-218.3"/>
<polygon fill="midnightblue" stroke="midnightblue" points="688.02,-214.91 677.43,-215.14 685.86,-221.57 688.02,-214.91"/>
</g>
<!-- Node8 -->
<g id="node8" class="node">
<title>Node8</title>
<g id="a_node8"><a xlink:title=" ">
<polygon fill="white" stroke="#bfbfbf" points="498,-62 498,-81 562,-81 562,-62 498,-62"/>
<text text-anchor="middle" x="530" y="-69" font-family="FreeSans" font-size="10.00">algorithm</text>
</a>
</g>
</g>
<!-- Node6&#45;&gt;Node8 -->
<g id="edge8" class="edge">
<title>Node6&#45;&gt;Node8</title>
<path fill="none" stroke="midnightblue" d="M956.36,-266.41C800.32,-266.75 408.52,-263.34 369,-221 343.66,-193.85 388.91,-134.24 401,-123 408.28,-116.23 460.03,-97.12 495.73,-84.44"/>
<polygon fill="midnightblue" stroke="midnightblue" points="497.06,-87.69 505.32,-81.06 494.73,-81.09 497.06,-87.69"/>
</g>
<!-- Node9 -->
<g id="node9" class="node">
<title>Node9</title>
<g id="a_node9"><a xlink:title=" ">
<polygon fill="white" stroke="#bfbfbf" points="898,-196 898,-215 1002,-215 1002,-196 898,-196"/>
<text text-anchor="middle" x="950" y="-203" font-family="FreeSans" font-size="10.00">boost/version.hpp</text>
</a>
</g>
</g>
<!-- Node6&#45;&gt;Node9 -->
<g id="edge9" class="edge">
<title>Node6&#45;&gt;Node9</title>
<path fill="none" stroke="midnightblue" d="M1009.97,-257.48C998.95,-248.11 981.04,-232.88 967.66,-221.51"/>
<polygon fill="midnightblue" stroke="midnightblue" points="969.9,-218.82 960.01,-215.01 965.36,-224.15 969.9,-218.82"/>
</g>
<!-- Node10 -->
<g id="node10" class="node">
<title>Node10</title>
<g id="a_node10"><a xlink:title=" ">
<polygon fill="white" stroke="#bfbfbf" points="1020,-196 1020,-215 1160,-215 1160,-196 1020,-196"/>
<text text-anchor="middle" x="1090" y="-203" font-family="FreeSans" font-size="10.00">boost/concept_check.hpp</text>
</a>
</g>
</g>
<!-- Node6&#45;&gt;Node10 -->
<g id="edge10" class="edge">
<title>Node6&#45;&gt;Node10</title>
<path fill="none" stroke="midnightblue" d="M1030.03,-257.48C1041.05,-248.11 1058.96,-232.88 1072.34,-221.51"/>
<polygon fill="midnightblue" stroke="midnightblue" points="1074.64,-224.15 1079.99,-215.01 1070.1,-218.82 1074.64,-224.15"/>
</g>
<!-- Node11 -->
<g id="node11" class="node">
<title>Node11</title>
<g id="a_node11"><a xlink:title=" ">
<polygon fill="white" stroke="#bfbfbf" points="1178,-196 1178,-215 1308,-215 1308,-196 1178,-196"/>
<text text-anchor="middle" x="1243" y="-203" font-family="FreeSans" font-size="10.00">boost/static_assert.hpp</text>
</a>
</g>
</g>
<!-- Node6&#45;&gt;Node11 -->
<g id="edge11" class="edge">
<title>Node6&#45;&gt;Node11</title>
<path fill="none" stroke="midnightblue" d="M1051.95,-257.48C1091.2,-247 1157.88,-229.21 1201.17,-217.66"/>
<polygon fill="midnightblue" stroke="midnightblue" points="1202.35,-220.97 1211.11,-215.01 1200.54,-214.21 1202.35,-220.97"/>
</g>
<!-- Node12 -->
<g id="node12" class="node">
<title>Node12</title>
<g id="a_node12"><a xlink:title=" ">
<polygon fill="white" stroke="#bfbfbf" points="1326.5,-196 1326.5,-215 1465.5,-215 1465.5,-196 1326.5,-196"/>
<text text-anchor="middle" x="1396" y="-203" font-family="FreeSans" font-size="10.00">boost/concept/assert.hpp</text>
</a>
</g>
</g>
<!-- Node6&#45;&gt;Node12 -->
<g id="edge12" class="edge">
<title>Node6&#45;&gt;Node12</title>
<path fill="none" stroke="midnightblue" d="M1079.82,-257.5C1139.86,-248.83 1234.96,-234.74 1317,-221 1324.74,-219.7 1332.89,-218.28 1340.9,-216.84"/>
<polygon fill="midnightblue" stroke="midnightblue" points="1341.71,-220.25 1350.92,-215.02 1340.46,-213.36 1341.71,-220.25"/>
</g>
<!-- Node13 -->
<g id="node13" class="node">
<title>Node13</title>
<g id="a_node13"><a xlink:title=" ">
<polygon fill="white" stroke="#bfbfbf" points="1483.5,-196 1483.5,-215 1632.5,-215 1632.5,-196 1483.5,-196"/>
<text text-anchor="middle" x="1558" y="-203" font-family="FreeSans" font-size="10.00">boost/concept/requires.hpp</text>
</a>
</g>
</g>
<!-- Node6&#45;&gt;Node13 -->
<g id="edge13" class="edge">
<title>Node6&#45;&gt;Node13</title>
<path fill="none" stroke="midnightblue" d="M1083.59,-257.94C1086.43,-257.62 1089.25,-257.3 1092,-257 1261.52,-238.42 1304.96,-243.52 1474,-221 1483.16,-219.78 1492.84,-218.29 1502.25,-216.74"/>
<polygon fill="midnightblue" stroke="midnightblue" points="1503.04,-220.16 1512.32,-215.04 1501.88,-213.26 1503.04,-220.16"/>
</g>
<!-- Node14 -->
<g id="node14" class="node">
<title>Node14</title>
<g id="a_node14"><a xlink:title=" ">
<polygon fill="white" stroke="#bfbfbf" points="1651,-190.5 1651,-220.5 1773,-220.5 1773,-190.5 1651,-190.5"/>
<text text-anchor="start" x="1659" y="-208.5" font-family="FreeSans" font-size="10.00">boost/iterator/iterator</text>
<text text-anchor="middle" x="1712" y="-197.5" font-family="FreeSans" font-size="10.00">_concepts.hpp</text>
</a>
</g>
</g>
<!-- Node6&#45;&gt;Node14 -->
<g id="edge14" class="edge">
<title>Node6&#45;&gt;Node14</title>
<path fill="none" stroke="midnightblue" d="M1083.58,-257.85C1086.42,-257.55 1089.24,-257.26 1092,-257 1335.42,-233.83 1398.65,-253.54 1641,-221 1641.1,-220.99 1641.2,-220.97 1641.3,-220.96"/>
<polygon fill="midnightblue" stroke="midnightblue" points="1641.52,-224.46 1650.9,-219.53 1640.49,-217.54 1641.52,-224.46"/>
</g>
<!-- Node15 -->
<g id="node15" class="node">
<title>Node15</title>
<g id="a_node15"><a xlink:title=" ">
<polygon fill="white" stroke="#bfbfbf" points="1791,-196 1791,-215 1951,-215 1951,-196 1791,-196"/>
<text text-anchor="middle" x="1871" y="-203" font-family="FreeSans" font-size="10.00">boost/concept_archetype.hpp</text>
</a>
</g>
</g>
<!-- Node6&#45;&gt;Node15 -->
<g id="edge15" class="edge">
<title>Node6&#45;&gt;Node15</title>
<path fill="none" stroke="midnightblue" d="M1083.58,-257.8C1086.42,-257.51 1089.24,-257.24 1092,-257 1397.89,-229.94 1476.67,-253.74 1782,-221 1792.5,-219.87 1803.64,-218.34 1814.36,-216.68"/>
<polygon fill="midnightblue" stroke="midnightblue" points="1815.15,-220.1 1824.48,-215.06 1814.05,-213.18 1815.15,-220.1"/>
</g>
<!-- Node16 -->
<g id="node16" class="node">
<title>Node16</title>
<g id="a_node16"><a xlink:title=" ">
<polygon fill="white" stroke="#bfbfbf" points="692.5,-129 692.5,-148 739.5,-148 739.5,-129 692.5,-129"/>
<text text-anchor="middle" x="716" y="-136" font-family="FreeSans" font-size="10.00">cmath</text>
</a>
</g>
</g>
<!-- Node6&#45;&gt;Node16 -->
<g id="edge16" class="edge">
<title>Node6&#45;&gt;Node16</title>
<path fill="none" stroke="midnightblue" d="M956.19,-263.72C845.19,-259.09 626.14,-246.77 603,-221 593.8,-210.75 595.5,-201.56 603,-190 603.63,-189.04 653.9,-166.8 687.17,-152.16"/>
<polygon fill="midnightblue" stroke="midnightblue" points="688.72,-155.3 696.46,-148.07 685.9,-148.89 688.72,-155.3"/>
</g>
<!-- Node17 -->
<g id="node17" class="node">
<title>Node17</title>
<g id="a_node17"><a xlink:title=" ">
<polygon fill="white" stroke="#bfbfbf" points="1969,-196 1969,-215 2019,-215 2019,-196 1969,-196"/>
<text text-anchor="middle" x="1994" y="-203" font-family="FreeSans" font-size="10.00">stdio.h</text>
</a>
</g>
</g>
<!-- Node6&#45;&gt;Node17 -->
<g id="edge17" class="edge">
<title>Node6&#45;&gt;Node17</title>
<path fill="none" stroke="midnightblue" d="M1083.57,-257.76C1086.42,-257.49 1089.24,-257.23 1092,-257 1284.39,-241.01 1771.7,-263.56 1960,-221 1962.52,-220.43 1965.09,-219.68 1967.63,-218.82"/>
<polygon fill="midnightblue" stroke="midnightblue" points="1969.06,-222.02 1977.11,-215.13 1966.52,-215.5 1969.06,-222.02"/>
</g>
<!-- Node18 -->
<g id="node18" class="node">
<title>Node18</title>
<g id="a_node18"><a xlink:href="Config_8h_source.html" target="_top" xlink:title=" ">
<polygon fill="white" stroke="black" points="2139.5,-62 2139.5,-81 2252.5,-81 2252.5,-62 2139.5,-62"/>
<text text-anchor="middle" x="2196" y="-69" font-family="FreeSans" font-size="10.00">DGtal/base/Config.h</text>
</a>
</g>
</g>
<!-- Node6&#45;&gt;Node18 -->
<g id="edge18" class="edge">
<title>Node6&#45;&gt;Node18</title>
<path fill="none" stroke="midnightblue" d="M1083.57,-257.73C1086.42,-257.46 1089.24,-257.22 1092,-257 1155.06,-252.07 2185.99,-266.43 2230,-221 2265.02,-184.85 2229.18,-120.38 2208.48,-89.67"/>
<polygon fill="midnightblue" stroke="midnightblue" points="2211.23,-87.5 2202.64,-81.3 2205.49,-91.5 2211.23,-87.5"/>
</g>
<!-- Node20 -->
<g id="node20" class="node">
<title>Node20</title>
<g id="a_node20"><a xlink:href="Trace_8h_source.html" target="_top" xlink:title=" ">
<polygon fill="white" stroke="black" points="2113,-196 2113,-215 2221,-215 2221,-196 2113,-196"/>
<text text-anchor="middle" x="2167" y="-203" font-family="FreeSans" font-size="10.00">DGtal/base/Trace.h</text>
</a>
</g>
</g>
<!-- Node6&#45;&gt;Node20 -->
<g id="edge21" class="edge">
<title>Node6&#45;&gt;Node20</title>
<path fill="none" stroke="midnightblue" d="M1083.57,-257.74C1086.42,-257.47 1089.24,-257.22 1092,-257 1538.41,-221.19 1654.54,-275.91 2099,-221 2106.66,-220.05 2114.74,-218.67 2122.55,-217.14"/>
<polygon fill="midnightblue" stroke="midnightblue" points="2123.52,-220.51 2132.6,-215.05 2122.1,-213.66 2123.52,-220.51"/>
</g>
<!-- Node27 -->
<g id="node27" class="node">
<title>Node27</title>
<g id="a_node27"><a xlink:href="TraceWriterTerm_8h_source.html" target="_top" xlink:title=" ">
<polygon fill="white" stroke="black" points="1748,-129 1748,-148 1910,-148 1910,-129 1748,-129"/>
<text text-anchor="middle" x="1829" y="-136" font-family="FreeSans" font-size="10.00">DGtal/base/TraceWriterTerm.h</text>
</a>
</g>
</g>
<!-- Node6&#45;&gt;Node27 -->
<g id="edge44" class="edge">
<title>Node6&#45;&gt;Node27</title>
<path fill="none" stroke="midnightblue" d="M1083.57,-257.75C1086.42,-257.48 1089.24,-257.22 1092,-257 1144.86,-252.71 2009.21,-259.2 2046,-221 2055.56,-211.08 2054.57,-200.79 2046,-190 2036.2,-177.66 1950.98,-160.57 1890.31,-149.78"/>
<polygon fill="midnightblue" stroke="midnightblue" points="1890.87,-146.32 1880.42,-148.04 1889.66,-153.22 1890.87,-146.32"/>
</g>
<!-- Node28 -->
<g id="node28" class="node">
<title>Node28</title>
<g id="a_node28"><a xlink:href="Assert_8h_source.html" target="_top" xlink:title=" ">
<polygon fill="white" stroke="black" points="2309.5,-129 2309.5,-148 2422.5,-148 2422.5,-129 2309.5,-129"/>
<text text-anchor="middle" x="2366" y="-136" font-family="FreeSans" font-size="10.00">DGtal/base/Assert.h</text>
</a>
</g>
</g>
<!-- Node6&#45;&gt;Node28 -->
<g id="edge49" class="edge">
<title>Node6&#45;&gt;Node28</title>
<path fill="none" stroke="midnightblue" d="M1083.57,-257.73C1086.42,-257.46 1089.24,-257.21 1092,-257 1221.78,-246.92 2140.72,-265.64 2263,-221 2299.92,-207.52 2333.82,-175.24 2352.03,-155.59"/>
<polygon fill="midnightblue" stroke="midnightblue" points="2354.74,-157.81 2358.83,-148.04 2349.54,-153.13 2354.74,-157.81"/>
</g>
<!-- Node31 -->
<g id="node31" class="node">
<title>Node31</title>
<g id="a_node31"><a xlink:href="TraceWriterFile_8h_source.html" target="_top" xlink:title=" ">
<polygon fill="white" stroke="black" points="1574.5,-129 1574.5,-148 1729.5,-148 1729.5,-129 1574.5,-129"/>
<text text-anchor="middle" x="1652" y="-136" font-family="FreeSans" font-size="10.00">DGtal/base/TraceWriterFile.h</text>
</a>
</g>
</g>
<!-- Node6&#45;&gt;Node31 -->
<g id="edge45" class="edge">
<title>Node6&#45;&gt;Node31</title>
<path fill="none" stroke="midnightblue" d="M1083.57,-257.75C1086.42,-257.48 1089.24,-257.23 1092,-257 1143.87,-252.77 1991.92,-258.5 2028,-221 2037.55,-211.07 2037.12,-200.33 2028,-190 1985.16,-141.49 1803.04,-163.32 1739,-154 1729.99,-152.69 1720.46,-151.2 1711.16,-149.7"/>
<polygon fill="midnightblue" stroke="midnightblue" points="1711.61,-146.22 1701.18,-148.06 1710.48,-153.13 1711.61,-146.22"/>
</g>
<!-- Node32 -->
<g id="node32" class="node">
<title>Node32</title>
<g id="a_node32"><a xlink:href="ConceptUtils_8h_source.html" target="_top" xlink:title=" ">
<polygon fill="white" stroke="black" points="28.5,-129 28.5,-148 173.5,-148 173.5,-129 28.5,-129"/>
<text text-anchor="middle" x="101" y="-136" font-family="FreeSans" font-size="10.00">DGtal/base/ConceptUtils.h</text>
</a>
</g>
</g>
<!-- Node6&#45;&gt;Node32 -->
<g id="edge50" class="edge">
<title>Node6&#45;&gt;Node32</title>
<path fill="none" stroke="midnightblue" d="M956.48,-265.06C774.19,-262.02 257.93,-250.85 188,-221 155.65,-207.19 127.9,-175.79 112.91,-156.25"/>
<polygon fill="midnightblue" stroke="midnightblue" points="115.72,-154.16 106.95,-148.21 110.09,-158.33 115.72,-154.16"/>
</g>
<!-- Node33 -->
<g id="node33" class="node">
<title>Node33</title>
<g id="a_node33"><a xlink:href="BasicTypes_8h_source.html" target="_top" xlink:title=" ">
<polygon fill="white" stroke="black" points="757.5,-129 757.5,-148 894.5,-148 894.5,-129 757.5,-129"/>
<text text-anchor="middle" x="826" y="-136" font-family="FreeSans" font-size="10.00">DGtal/base/BasicTypes.h</text>
</a>
</g>
</g>
<!-- Node6&#45;&gt;Node33 -->
<g id="edge52" class="edge">
<title>Node6&#45;&gt;Node33</title>
<path fill="none" stroke="midnightblue" d="M956.43,-263.55C847.69,-258.69 635.47,-246.09 613,-221 603.81,-210.74 604.45,-200.81 613,-190 618.08,-183.58 712.92,-162.9 774.32,-150.08"/>
<polygon fill="midnightblue" stroke="midnightblue" points="775.16,-153.48 784.24,-148.02 773.74,-146.63 775.16,-153.48"/>
</g>
<!-- Node36 -->
<g id="node36" class="node">
<title>Node36</title>
<g id="a_node36"><a xlink:href="BasicFunctors_8h_source.html" target="_top" xlink:title=" ">
<polygon fill="white" stroke="black" points="378,-196 378,-215 528,-215 528,-196 378,-196"/>
<text text-anchor="middle" x="453" y="-203" font-family="FreeSans" font-size="10.00">DGtal/base/BasicFunctors.h</text>
</a>
</g>
</g>
<!-- Node6&#45;&gt;Node36 -->
<g id="edge57" class="edge">
<title>Node6&#45;&gt;Node36</title>
<path fill="none" stroke="midnightblue" d="M956.37,-261.82C863.05,-255.03 684.09,-240.4 533,-221 523.32,-219.76 513.08,-218.26 503.25,-216.71"/>
<polygon fill="midnightblue" stroke="midnightblue" points="503.63,-213.22 493.2,-215.07 502.51,-220.13 503.63,-213.22"/>
</g>
<!-- Node45 -->
<g id="node42" class="node">
<title>Node45</title>
<g id="a_node42"><a xlink:href="BasicArchetypes_8h_source.html" target="_top" xlink:title=" ">
<polygon fill="white" stroke="black" points="74,-62 74,-81 238,-81 238,-62 74,-62"/>
<text text-anchor="middle" x="156" y="-69" font-family="FreeSans" font-size="10.00">DGtal/base/BasicArchetypes.h</text>
</a>
</g>
</g>
<!-- Node6&#45;&gt;Node45 -->
<g id="edge70" class="edge">
<title>Node6&#45;&gt;Node45</title>
<path fill="none" stroke="midnightblue" d="M956.48,-264.29C792.02,-259.54 360.97,-244.94 301,-221 236.12,-195.1 186.35,-123.27 166.01,-89.92"/>
<polygon fill="midnightblue" stroke="midnightblue" points="168.98,-88.06 160.87,-81.25 162.96,-91.64 168.98,-88.06"/>
</g>
<!-- Node46 -->
<g id="node43" class="node">
<title>Node46</title>
<g id="a_node43"><a xlink:href="Exceptions_8h_source.html" target="_top" xlink:title=" ">
<polygon fill="white" stroke="black" points="706,-196 706,-215 842,-215 842,-196 706,-196"/>
<text text-anchor="middle" x="774" y="-203" font-family="FreeSans" font-size="10.00">DGtal/base/Exceptions.h</text>
</a>
</g>
</g>
<!-- Node6&#45;&gt;Node46 -->
<g id="edge72" class="edge">
<title>Node6&#45;&gt;Node46</title>
<path fill="none" stroke="midnightblue" d="M984.75,-257.48C941.1,-246.92 866.66,-228.91 818.94,-217.37"/>
<polygon fill="midnightblue" stroke="midnightblue" points="819.72,-213.96 809.18,-215.01 818.08,-220.76 819.72,-213.96"/>
</g>
<!-- Node18&#45;&gt;Node2 -->
<g id="edge19" class="edge">
<title>Node18&#45;&gt;Node2</title>
<path fill="none" stroke="midnightblue" d="M2139.32,-67.64C2080.87,-64.69 1987.06,-59.99 1906,-56 1561.7,-39.06 1145.66,-19.12 1016.33,-12.93"/>
<polygon fill="midnightblue" stroke="midnightblue" points="1016.26,-9.42 1006.11,-12.44 1015.93,-16.41 1016.26,-9.42"/>
</g>
<!-- Node19 -->
<g id="node19" class="node">
<title>Node19</title>
<g id="a_node19"><a xlink:title=" ">
<polygon fill="white" stroke="#bfbfbf" points="2174,-0.5 2174,-19.5 2218,-19.5 2218,-0.5 2174,-0.5"/>
<text text-anchor="middle" x="2196" y="-7.5" font-family="FreeSans" font-size="10.00">string</text>
</a>
</g>
</g>
<!-- Node18&#45;&gt;Node19 -->
<g id="edge20" class="edge">
<title>Node18&#45;&gt;Node19</title>
<path fill="none" stroke="midnightblue" d="M2196,-61.98C2196,-53.58 2196,-40.48 2196,-29.66"/>
<polygon fill="midnightblue" stroke="midnightblue" points="2199.5,-29.51 2196,-19.51 2192.5,-29.51 2199.5,-29.51"/>
</g>
<!-- Node20&#45;&gt;Node2 -->
<g id="edge22" class="edge">
<title>Node20&#45;&gt;Node2</title>
<path fill="none" stroke="midnightblue" d="M2112.94,-198.04C2087.24,-195.18 2056.07,-192.01 2028,-190 1925.74,-182.68 1195.01,-204.87 1106,-154 1061.05,-128.31 1079.24,-92.98 1043,-56 1030.81,-43.56 1014.66,-32.59 1001.27,-24.6"/>
<polygon fill="midnightblue" stroke="midnightblue" points="1002.93,-21.52 992.52,-19.56 999.44,-27.58 1002.93,-21.52"/>
</g>
<!-- Node20&#45;&gt;Node18 -->
<g id="edge26" class="edge">
<title>Node20&#45;&gt;Node18</title>
<path fill="none" stroke="midnightblue" d="M2169.61,-195.98C2172.61,-185.99 2177.57,-168.9 2181,-154 2185.93,-132.58 2190.32,-107.71 2193.05,-91.13"/>
<polygon fill="midnightblue" stroke="midnightblue" points="2196.53,-91.55 2194.67,-81.12 2189.62,-90.43 2196.53,-91.55"/>
</g>
<!-- Node20&#45;&gt;Node19 -->
<g id="edge24" class="edge">
<title>Node20&#45;&gt;Node19</title>
<path fill="none" stroke="midnightblue" d="M2177.6,-195.85C2198.42,-178.08 2244.14,-135.07 2261,-87 2265.56,-74 2267.39,-68.2 2261,-56 2253.72,-42.11 2239.99,-31.65 2227.02,-24.33"/>
<polygon fill="midnightblue" stroke="midnightblue" points="2228.3,-21.05 2217.81,-19.55 2225.07,-27.27 2228.3,-21.05"/>
</g>
<!-- Node21 -->
<g id="node21" class="node">
<title>Node21</title>
<g id="a_node21"><a xlink:title=" ">
<polygon fill="white" stroke="#bfbfbf" points="1922.5,-0.5 1922.5,-19.5 1979.5,-19.5 1979.5,-0.5 1922.5,-0.5"/>
<text text-anchor="middle" x="1951" y="-7.5" font-family="FreeSans" font-size="10.00">ostream</text>
</a>
</g>
</g>
<!-- Node20&#45;&gt;Node21 -->
<g id="edge23" class="edge">
<title>Node20&#45;&gt;Node21</title>
<path fill="none" stroke="midnightblue" d="M2166.02,-195.95C2163.81,-179.99 2157.11,-145.3 2139,-123 2098.08,-72.63 2028.07,-39.62 1986.01,-23.22"/>
<polygon fill="midnightblue" stroke="midnightblue" points="1987.05,-19.87 1976.46,-19.6 1984.57,-26.42 1987.05,-19.87"/>
</g>
<!-- Node22 -->
<g id="node22" class="node">
<title>Node22</title>
<g id="a_node22"><a xlink:title=" ">
<polygon fill="white" stroke="#bfbfbf" points="1928.5,-129 1928.5,-148 1971.5,-148 1971.5,-129 1928.5,-129"/>
<text text-anchor="middle" x="1950" y="-136" font-family="FreeSans" font-size="10.00">stack</text>
</a>
</g>
</g>
<!-- Node20&#45;&gt;Node22 -->
<g id="edge25" class="edge">
<title>Node20&#45;&gt;Node22</title>
<path fill="none" stroke="midnightblue" d="M2126.93,-195.96C2088.59,-187.26 2029.47,-172.45 1980,-154 1978.58,-153.47 1977.13,-152.9 1975.68,-152.29"/>
<polygon fill="midnightblue" stroke="midnightblue" points="1976.82,-148.97 1966.26,-148.04 1973.94,-155.35 1976.82,-148.97"/>
</g>
<!-- Node23 -->
<g id="node23" class="node">
<title>Node23</title>
<g id="a_node23"><a xlink:href="Clock_8h_source.html" target="_top" xlink:title=" ">
<polygon fill="white" stroke="black" points="1115,-129 1115,-148 1225,-148 1225,-129 1115,-129"/>
<text text-anchor="middle" x="1170" y="-136" font-family="FreeSans" font-size="10.00">DGtal/base/Clock.h</text>
</a>
</g>
</g>
<!-- Node20&#45;&gt;Node23 -->
<g id="edge27" class="edge">
<title>Node20&#45;&gt;Node23</title>
<path fill="none" stroke="midnightblue" d="M2112.92,-198.29C2087.22,-195.48 2056.05,-192.29 2028,-190 1732.56,-165.91 1378.98,-148.8 1235.4,-142.34"/>
<polygon fill="midnightblue" stroke="midnightblue" points="1235.16,-138.83 1225.02,-141.88 1234.85,-145.82 1235.16,-138.83"/>
</g>
<!-- Node26 -->
<g id="node26" class="node">
<title>Node26</title>
<g id="a_node26"><a xlink:href="TraceWriter_8h_source.html" target="_top" xlink:title=" ">
<polygon fill="white" stroke="black" points="1760.5,-62 1760.5,-81 1897.5,-81 1897.5,-62 1760.5,-62"/>
<text text-anchor="middle" x="1829" y="-69" font-family="FreeSans" font-size="10.00">DGtal/base/TraceWriter.h</text>
</a>
</g>
</g>
<!-- Node20&#45;&gt;Node26 -->
<g id="edge31" class="edge">
<title>Node20&#45;&gt;Node26</title>
<path fill="none" stroke="midnightblue" d="M2163.56,-195.91C2156.28,-178.93 2137.6,-141.14 2109,-123 2076.3,-102.26 1978.63,-87.98 1907.83,-80.03"/>
<polygon fill="midnightblue" stroke="midnightblue" points="1907.92,-76.52 1897.59,-78.9 1907.15,-83.47 1907.92,-76.52"/>
</g>
<!-- Node20&#45;&gt;Node27 -->
<g id="edge34" class="edge">
<title>Node20&#45;&gt;Node27</title>
<path fill="none" stroke="midnightblue" d="M2127.84,-195.97C2118.41,-193.97 2108.35,-191.87 2099,-190 2025.93,-175.38 1941.45,-159.79 1886.73,-149.86"/>
<polygon fill="midnightblue" stroke="midnightblue" points="1887.33,-146.41 1876.87,-148.08 1886.08,-153.3 1887.33,-146.41"/>
</g>
<!-- Node20&#45;&gt;Node28 -->
<g id="edge39" class="edge">
<title>Node20&#45;&gt;Node28</title>
<path fill="none" stroke="midnightblue" d="M2188.67,-195.87C2221.47,-184.35 2283.83,-163.92 2325.25,-151.08"/>
<polygon fill="midnightblue" stroke="midnightblue" points="2326.51,-154.35 2335.04,-148.06 2324.45,-147.66 2326.51,-154.35"/>
</g>
<!-- Node30 -->
<g id="node30" class="node">
<title>Node30</title>
<g id="a_node30"><a xlink:href="Trace_8ih_source.html" target="_top" xlink:title=" ">
<polygon fill="white" stroke="black" points="1989.5,-129 1989.5,-148 2100.5,-148 2100.5,-129 1989.5,-129"/>
<text text-anchor="middle" x="2045" y="-136" font-family="FreeSans" font-size="10.00">DGtal/base/Trace.ih</text>
</a>
</g>
</g>
<!-- Node20&#45;&gt;Node30 -->
<g id="edge43" class="edge">
<title>Node20&#45;&gt;Node30</title>
<path fill="none" stroke="midnightblue" d="M2150.8,-195.87C2130.2,-184.89 2094.41,-165.82 2070.22,-152.94"/>
<polygon fill="midnightblue" stroke="midnightblue" points="2071.74,-149.78 2061.27,-148.17 2068.45,-155.96 2071.74,-149.78"/>
</g>
<!-- Node23&#45;&gt;Node2 -->
<g id="edge28" class="edge">
<title>Node23&#45;&gt;Node2</title>
<path fill="none" stroke="midnightblue" d="M1162.43,-128.86C1147.96,-112.75 1114.8,-77.81 1081,-56 1059.57,-42.17 1033.16,-30.87 1012.2,-23.06"/>
<polygon fill="midnightblue" stroke="midnightblue" points="1013.28,-19.73 1002.68,-19.61 1010.89,-26.31 1013.28,-19.73"/>
</g>
<!-- Node24 -->
<g id="node24" class="node">
<title>Node24</title>
<g id="a_node24"><a xlink:title=" ">
<polygon fill="white" stroke="#bfbfbf" points="951.5,-62 951.5,-81 1000.5,-81 1000.5,-62 951.5,-62"/>
<text text-anchor="middle" x="976" y="-69" font-family="FreeSans" font-size="10.00">cstdlib</text>
</a>
</g>
</g>
<!-- Node23&#45;&gt;Node24 -->
<g id="edge29" class="edge">
<title>Node23&#45;&gt;Node24</title>
<path fill="none" stroke="midnightblue" d="M1144.24,-128.87C1109.8,-117.33 1048.66,-96.84 1010.33,-84"/>
<polygon fill="midnightblue" stroke="midnightblue" points="1011.23,-80.61 1000.64,-80.76 1009.01,-87.25 1011.23,-80.61"/>
</g>
<!-- Node25 -->
<g id="node25" class="node">
<title>Node25</title>
<g id="a_node25"><a xlink:href="Clock_8ih_source.html" target="_top" xlink:title=" ">
<polygon fill="white" stroke="black" points="1133.5,-62 1133.5,-81 1246.5,-81 1246.5,-62 1133.5,-62"/>
<text text-anchor="middle" x="1190" y="-69" font-family="FreeSans" font-size="10.00">DGtal/base/Clock.ih</text>
</a>
</g>
</g>
<!-- Node23&#45;&gt;Node25 -->
<g id="edge30" class="edge">
<title>Node23&#45;&gt;Node25</title>
<path fill="none" stroke="midnightblue" d="M1172.7,-128.73C1175.67,-119.09 1180.52,-103.3 1184.34,-90.91"/>
<polygon fill="midnightblue" stroke="midnightblue" points="1187.75,-91.71 1187.35,-81.13 1181.06,-89.66 1187.75,-91.71"/>
</g>
<!-- Node26&#45;&gt;Node2 -->
<g id="edge32" class="edge">
<title>Node26&#45;&gt;Node2</title>
<path fill="none" stroke="midnightblue" d="M1779.89,-61.94C1765.76,-59.73 1750.3,-57.53 1736,-56 1461.96,-26.59 1130.11,-15.24 1016.45,-12.03"/>
<polygon fill="midnightblue" stroke="midnightblue" points="1016.23,-8.53 1006.14,-11.75 1016.04,-15.52 1016.23,-8.53"/>
</g>
<!-- Node26&#45;&gt;Node21 -->
<g id="edge33" class="edge">
<title>Node26&#45;&gt;Node21</title>
<path fill="none" stroke="midnightblue" d="M1846.48,-61.98C1866.86,-52.03 1900.78,-35.49 1924.42,-23.96"/>
<polygon fill="midnightblue" stroke="midnightblue" points="1926.1,-27.04 1933.55,-19.51 1923.03,-20.75 1926.1,-27.04"/>
</g>
<!-- Node27&#45;&gt;Node2 -->
<g id="edge35" class="edge">
<title>Node27&#45;&gt;Node2</title>
<path fill="none" stroke="midnightblue" d="M1782.82,-128.98C1696.99,-113.3 1506.95,-79.35 1346,-56 1226.55,-38.67 1084.75,-22.7 1016.57,-15.31"/>
<polygon fill="midnightblue" stroke="midnightblue" points="1016.6,-11.8 1006.28,-14.2 1015.84,-18.76 1016.6,-11.8"/>
</g>
<!-- Node27&#45;&gt;Node18 -->
<g id="edge38" class="edge">
<title>Node27&#45;&gt;Node18</title>
<path fill="none" stroke="midnightblue" d="M1882.03,-128.99C1941.33,-119.34 2040.2,-102.89 2125,-87 2131.65,-85.75 2138.63,-84.39 2145.52,-83.02"/>
<polygon fill="midnightblue" stroke="midnightblue" points="2146.38,-86.42 2155.49,-81.01 2145,-79.55 2146.38,-86.42"/>
</g>
<!-- Node27&#45;&gt;Node19 -->
<g id="edge36" class="edge">
<title>Node27&#45;&gt;Node19</title>
<path fill="none" stroke="midnightblue" d="M1853.94,-128.9C1918.67,-106.59 2092.04,-46.83 2164,-22.03"/>
<polygon fill="midnightblue" stroke="midnightblue" points="2165.55,-25.2 2173.86,-18.63 2163.27,-18.58 2165.55,-25.2"/>
</g>
<!-- Node27&#45;&gt;Node26 -->
<g id="edge37" class="edge">
<title>Node27&#45;&gt;Node26</title>
<path fill="none" stroke="midnightblue" d="M1829,-128.73C1829,-119.18 1829,-103.62 1829,-91.28"/>
<polygon fill="midnightblue" stroke="midnightblue" points="1832.5,-91.13 1829,-81.13 1825.5,-91.13 1832.5,-91.13"/>
</g>
<!-- Node28&#45;&gt;Node19 -->
<g id="edge42" class="edge">
<title>Node28&#45;&gt;Node19</title>
<path fill="none" stroke="midnightblue" d="M2391.98,-128.98C2429.42,-115.38 2491.32,-87.09 2465,-56 2435,-20.57 2293.14,-13.01 2228.38,-11.42"/>
<polygon fill="midnightblue" stroke="midnightblue" points="2228.38,-7.92 2218.31,-11.2 2228.24,-14.92 2228.38,-7.92"/>
</g>
<!-- Node28&#45;&gt;Node20 -->
<g id="edge40" class="edge">
<title>Node28&#45;&gt;Node20</title>
<path fill="none" stroke="midnightblue" d="M2344.53,-148.06C2311.84,-159.55 2249.49,-179.97 2208,-192.85"/>
<polygon fill="midnightblue" stroke="midnightblue" points="2206.71,-189.58 2198.19,-195.87 2208.77,-196.27 2206.71,-189.58"/>
</g>
<!-- Node29 -->
<g id="node29" class="node">
<title>Node29</title>
<g id="a_node29"><a xlink:title=" ">
<polygon fill="white" stroke="#bfbfbf" points="2309.5,-62 2309.5,-81 2456.5,-81 2456.5,-62 2309.5,-62"/>
<text text-anchor="middle" x="2383" y="-69" font-family="FreeSans" font-size="10.00">boost/current_function.hpp</text>
</a>
</g>
</g>
<!-- Node28&#45;&gt;Node29 -->
<g id="edge41" class="edge">
<title>Node28&#45;&gt;Node29</title>
<path fill="none" stroke="midnightblue" d="M2368.29,-128.73C2370.82,-119.09 2374.94,-103.3 2378.19,-90.91"/>
<polygon fill="midnightblue" stroke="midnightblue" points="2381.6,-91.69 2380.74,-81.13 2374.83,-89.92 2381.6,-91.69"/>
</g>
<!-- Node31&#45;&gt;Node2 -->
<g id="edge46" class="edge">
<title>Node31&#45;&gt;Node2</title>
<path fill="none" stroke="midnightblue" d="M1613.22,-128.97C1542.3,-113.49 1386.84,-80.15 1255,-56 1170.22,-40.47 1070.41,-25.06 1016.12,-16.92"/>
<polygon fill="midnightblue" stroke="midnightblue" points="1016.62,-13.46 1006.21,-15.44 1015.58,-20.38 1016.62,-13.46"/>
</g>
<!-- Node31&#45;&gt;Node19 -->
<g id="edge47" class="edge">
<title>Node31&#45;&gt;Node19</title>
<path fill="none" stroke="midnightblue" d="M1659.13,-128.93C1674.09,-111.64 1710.72,-72.78 1751,-56 1825.82,-24.83 2074.54,-14.57 2163.78,-11.85"/>
<polygon fill="midnightblue" stroke="midnightblue" points="2163.96,-15.34 2173.85,-11.55 2163.75,-8.35 2163.96,-15.34"/>
</g>
<!-- Node31&#45;&gt;Node26 -->
<g id="edge48" class="edge">
<title>Node31&#45;&gt;Node26</title>
<path fill="none" stroke="midnightblue" d="M1675.5,-128.87C1706.4,-117.52 1760.86,-97.52 1795.91,-84.65"/>
<polygon fill="midnightblue" stroke="midnightblue" points="1797.5,-87.8 1805.68,-81.06 1795.09,-81.23 1797.5,-87.8"/>
</g>
<!-- Node32&#45;&gt;Node2 -->
<g id="edge51" class="edge">
<title>Node32&#45;&gt;Node2</title>
<path fill="none" stroke="midnightblue" d="M91.54,-128.8C75.01,-112.6 44.52,-77.51 65,-56 95.41,-24.05 763.12,-13.63 935.62,-11.46"/>
<polygon fill="midnightblue" stroke="midnightblue" points="935.84,-14.96 945.8,-11.34 935.75,-7.96 935.84,-14.96"/>
</g>
<!-- Node33&#45;&gt;Node2 -->
<g id="edge54" class="edge">
<title>Node33&#45;&gt;Node2</title>
<path fill="none" stroke="midnightblue" d="M791.94,-128.99C747.37,-116.28 678.12,-90.11 707,-56 735.82,-21.95 867.94,-13.65 935.69,-11.63"/>
<polygon fill="midnightblue" stroke="midnightblue" points="936.08,-15.13 945.98,-11.36 935.89,-8.13 936.08,-15.13"/>
</g>
<!-- Node33&#45;&gt;Node24 -->
<g id="edge53" class="edge">
<title>Node33&#45;&gt;Node24</title>
<path fill="none" stroke="midnightblue" d="M845.92,-128.87C871.69,-117.7 916.82,-98.15 946.55,-85.26"/>
<polygon fill="midnightblue" stroke="midnightblue" points="948.21,-88.35 956,-81.17 945.43,-81.93 948.21,-88.35"/>
</g>
<!-- Node34 -->
<g id="node34" class="node">
<title>Node34</title>
<g id="a_node34"><a xlink:title=" ">
<polygon fill="white" stroke="#bfbfbf" points="716.5,-62 716.5,-81 817.5,-81 817.5,-62 716.5,-62"/>
<text text-anchor="middle" x="767" y="-69" font-family="FreeSans" font-size="10.00">boost/cstdint.hpp</text>
</a>
</g>
</g>
<!-- Node33&#45;&gt;Node34 -->
<g id="edge55" class="edge">
<title>Node33&#45;&gt;Node34</title>
<path fill="none" stroke="midnightblue" d="M818.04,-128.73C808.75,-118.5 793.2,-101.36 781.7,-88.69"/>
<polygon fill="midnightblue" stroke="midnightblue" points="784.14,-86.18 774.83,-81.13 778.96,-90.88 784.14,-86.18"/>
</g>
<!-- Node35 -->
<g id="node35" class="node">
<title>Node35</title>
<g id="a_node35"><a xlink:title=" ">
<polygon fill="white" stroke="#bfbfbf" points="835.5,-62 835.5,-81 894.5,-81 894.5,-62 835.5,-62"/>
<text text-anchor="middle" x="865" y="-69" font-family="FreeSans" font-size="10.00">gmpxx.h</text>
</a>
</g>
</g>
<!-- Node33&#45;&gt;Node35 -->
<g id="edge56" class="edge">
<title>Node33&#45;&gt;Node35</title>
<path fill="none" stroke="midnightblue" d="M831.26,-128.73C837.22,-118.79 847.1,-102.34 854.63,-89.79"/>
<polygon fill="midnightblue" stroke="midnightblue" points="857.68,-91.5 859.82,-81.13 851.68,-87.9 857.68,-91.5"/>
</g>
<!-- Node36&#45;&gt;Node6 -->
<g id="edge67" class="edge">
<title>Node36&#45;&gt;Node6</title>
<path fill="none" stroke="midnightblue" d="M510.56,-215.07C523.89,-217.19 537.96,-219.33 551,-221 690.45,-238.9 853.66,-252.75 946.19,-260.11"/>
<polygon fill="midnightblue" stroke="midnightblue" points="946.05,-263.61 956.3,-260.91 946.61,-256.64 946.05,-263.61"/>
</g>
<!-- Node36&#45;&gt;Node8 -->
<g id="edge58" class="edge">
<title>Node36&#45;&gt;Node8</title>
<path fill="none" stroke="midnightblue" d="M442.07,-195.87C424.16,-180.66 392.15,-148.29 409,-123 414.15,-115.26 462.01,-96.83 495.97,-84.51"/>
<polygon fill="midnightblue" stroke="midnightblue" points="497.34,-87.74 505.56,-81.06 494.97,-81.15 497.34,-87.74"/>
</g>
<!-- Node36&#45;&gt;Node16 -->
<g id="edge60" class="edge">
<title>Node36&#45;&gt;Node16</title>
<path fill="none" stroke="midnightblue" d="M505.86,-195.97C552.99,-187.64 623.53,-173.38 683,-154 684.87,-153.39 686.79,-152.71 688.7,-151.99"/>
<polygon fill="midnightblue" stroke="midnightblue" points="690.17,-155.17 698.1,-148.14 687.52,-148.69 690.17,-155.17"/>
</g>
<!-- Node37 -->
<g id="node37" class="node">
<title>Node37</title>
<g id="a_node37"><a xlink:title=" ">
<polygon fill="white" stroke="#bfbfbf" points="418.5,-129 418.5,-148 483.5,-148 483.5,-129 418.5,-129"/>
<text text-anchor="middle" x="451" y="-136" font-family="FreeSans" font-size="10.00">functional</text>
</a>
</g>
</g>
<!-- Node36&#45;&gt;Node37 -->
<g id="edge59" class="edge">
<title>Node36&#45;&gt;Node37</title>
<path fill="none" stroke="midnightblue" d="M452.73,-195.73C452.44,-186.18 451.96,-170.62 451.58,-158.28"/>
<polygon fill="midnightblue" stroke="midnightblue" points="455.07,-158.01 451.27,-148.13 448.07,-158.23 455.07,-158.01"/>
</g>
<!-- Node38 -->
<g id="node38" class="node">
<title>Node38</title>
<g id="a_node38"><a xlink:href="Color_8h_source.html" target="_top" xlink:title=" ">
<polygon fill="white" stroke="red" points="230.5,-129 230.5,-148 323.5,-148 323.5,-129 230.5,-129"/>
<text text-anchor="middle" x="277" y="-136" font-family="FreeSans" font-size="10.00">DGtal/io/Color.h</text>
</a>
</g>
</g>
<!-- Node36&#45;&gt;Node38 -->
<g id="edge61" class="edge">
<title>Node36&#45;&gt;Node38</title>
<path fill="none" stroke="midnightblue" d="M429.63,-195.87C398.91,-184.52 344.76,-164.52 309.9,-151.65"/>
<polygon fill="midnightblue" stroke="midnightblue" points="310.78,-148.24 300.19,-148.06 308.36,-154.81 310.78,-148.24"/>
</g>
<!-- Node42 -->
<g id="node41" class="node">
<title>Node42</title>
<g id="a_node41"><a xlink:href="BasicBoolFunctors_8h_source.html" target="_top" xlink:title=" ">
<polygon fill="white" stroke="red" points="502,-129 502,-148 674,-148 674,-129 502,-129"/>
<text text-anchor="middle" x="588" y="-136" font-family="FreeSans" font-size="10.00">DGtal/base/BasicBoolFunctors.h</text>
</a>
</g>
</g>
<!-- Node36&#45;&gt;Node42 -->
<g id="edge68" class="edge">
<title>Node36&#45;&gt;Node42</title>
<path fill="none" stroke="midnightblue" d="M470.93,-195.87C493.92,-184.8 534.03,-165.49 560.8,-152.6"/>
<polygon fill="midnightblue" stroke="midnightblue" points="562.51,-155.66 570,-148.17 559.47,-149.35 562.51,-155.66"/>
</g>
<!-- Node38&#45;&gt;Node2 -->
<g id="edge62" class="edge">
<title>Node38&#45;&gt;Node2</title>
<path fill="none" stroke="midnightblue" d="M312.19,-128.94C355.41,-118.13 425.97,-99.45 450,-87 469.66,-76.82 468.45,-64.25 489,-56 569.86,-23.53 834.08,-14.2 935.69,-11.78"/>
<polygon fill="midnightblue" stroke="midnightblue" points="935.93,-15.27 945.85,-11.54 935.77,-8.27 935.93,-15.27"/>
</g>
<!-- Node38&#45;&gt;Node6 -->
<g id="edge63" class="edge">
<title>Node38&#45;&gt;Node6</title>
<path fill="none" stroke="midnightblue" d="M280.27,-148.1C287.37,-165.46 306.04,-204.44 336,-221 388.35,-249.94 780.31,-261.18 946.2,-264.67"/>
<polygon fill="midnightblue" stroke="midnightblue" points="946.25,-268.17 956.32,-264.88 946.39,-261.17 946.25,-268.17"/>
</g>
<!-- Node38&#45;&gt;Node8 -->
<g id="edge65" class="edge">
<title>Node38&#45;&gt;Node8</title>
<path fill="none" stroke="midnightblue" d="M312.58,-128.96C367.3,-115.79 467.57,-91.59 484,-87 487.33,-86.07 490.78,-85.06 494.22,-84.03"/>
<polygon fill="midnightblue" stroke="midnightblue" points="495.29,-87.36 503.82,-81.08 493.23,-80.67 495.29,-87.36"/>
</g>
<!-- Node39 -->
<g id="node39" class="node">
<title>Node39</title>
<g id="a_node39"><a xlink:title=" ">
<polygon fill="white" stroke="#bfbfbf" points="316.5,-62 316.5,-81 441.5,-81 441.5,-62 316.5,-62"/>
<text text-anchor="middle" x="379" y="-69" font-family="FreeSans" font-size="10.00">boost/lexical_cast.hpp</text>
</a>
</g>
</g>
<!-- Node38&#45;&gt;Node39 -->
<g id="edge64" class="edge">
<title>Node38&#45;&gt;Node39</title>
<path fill="none" stroke="midnightblue" d="M290.76,-128.73C307.73,-117.92 336.81,-99.38 356.93,-86.57"/>
<polygon fill="midnightblue" stroke="midnightblue" points="358.91,-89.45 365.46,-81.13 355.15,-83.55 358.91,-89.45"/>
</g>
<!-- Node40 -->
<g id="node40" class="node">
<title>Node40</title>
<g id="a_node40"><a xlink:title=" ">
<polygon fill="white" stroke="#bfbfbf" points="256,-62 256,-81 298,-81 298,-62 256,-62"/>
<text text-anchor="middle" x="277" y="-69" font-family="FreeSans" font-size="10.00">array</text>
</a>
</g>
</g>
<!-- Node38&#45;&gt;Node40 -->
<g id="edge66" class="edge">
<title>Node38&#45;&gt;Node40</title>
<path fill="none" stroke="midnightblue" d="M277,-128.73C277,-119.18 277,-103.62 277,-91.28"/>
<polygon fill="midnightblue" stroke="midnightblue" points="280.5,-91.13 277,-81.13 273.5,-91.13 280.5,-91.13"/>
</g>
<!-- Node42&#45;&gt;Node2 -->
<g id="edge69" class="edge">
<title>Node42&#45;&gt;Node2</title>
<path fill="none" stroke="midnightblue" d="M596.39,-128.89C613.54,-111.86 654.58,-73.98 697,-56 776.99,-22.09 879.82,-13.56 935.61,-11.52"/>
<polygon fill="midnightblue" stroke="midnightblue" points="935.91,-15.02 945.8,-11.21 935.69,-8.02 935.91,-15.02"/>
</g>
<!-- Node45&#45;&gt;Node2 -->
<g id="edge71" class="edge">
<title>Node45&#45;&gt;Node2</title>
<path fill="none" stroke="midnightblue" d="M204.05,-61.96C217.88,-59.74 233.01,-57.54 247,-56 508.6,-27.15 825.21,-15.5 935.67,-12.13"/>
<polygon fill="midnightblue" stroke="midnightblue" points="935.81,-15.62 945.7,-11.82 935.6,-8.63 935.81,-15.62"/>
</g>
<!-- Node46&#45;&gt;Node2 -->
<g id="edge73" class="edge">
<title>Node46&#45;&gt;Node2</title>
<path fill="none" stroke="midnightblue" d="M820.56,-195.95C847.66,-188.82 880.74,-176.13 903,-154 936.24,-120.95 919,-96.85 942,-56 947.58,-46.1 955.08,-35.93 961.62,-27.77"/>
<polygon fill="midnightblue" stroke="midnightblue" points="964.53,-29.75 968.2,-19.81 959.13,-25.28 964.53,-29.75"/>
</g>
<!-- Node48 -->
<g id="node45" class="node">
<title>Node48</title>
<g id="a_node45"><a xlink:title=" ">
<polygon fill="white" stroke="#bfbfbf" points="2513.5,-62 2513.5,-81 2566.5,-81 2566.5,-62 2513.5,-62"/>
<text text-anchor="middle" x="2540" y="-69" font-family="FreeSans" font-size="10.00">iterator</text>
</a>
</g>
</g>
<!-- Node47&#45;&gt;Node48 -->
<g id="edge75" class="edge">
<title>Node47&#45;&gt;Node48</title>
<path fill="none" stroke="midnightblue" d="M2510.85,-257.36C2504.23,-248.76 2494.84,-234.87 2491,-221 2487.32,-207.72 2489.88,-203.73 2491,-190 2493.45,-159.92 2490.14,-150.75 2502,-123 2507.35,-110.49 2516.43,-98.24 2524.38,-88.95"/>
<polygon fill="midnightblue" stroke="midnightblue" points="2527.15,-91.1 2531.22,-81.31 2521.94,-86.43 2527.15,-91.1"/>
</g>
<!-- Node49 -->
<g id="node46" class="node">
<title>Node49</title>
<g id="a_node46"><a xlink:href="IteratorCirculatorTraits_8h_source.html" target="_top" xlink:title=" ">
<polygon fill="white" stroke="black" points="2705.5,-123.5 2705.5,-153.5 2862.5,-153.5 2862.5,-123.5 2705.5,-123.5"/>
<text text-anchor="start" x="2713.5" y="-141.5" font-family="FreeSans" font-size="10.00">DGtal/base/IteratorCirculator</text>
<text text-anchor="middle" x="2784" y="-130.5" font-family="FreeSans" font-size="10.00">Traits.h</text>
</a>
</g>
</g>
<!-- Node47&#45;&gt;Node49 -->
<g id="edge76" class="edge">
<title>Node47&#45;&gt;Node49</title>
<path fill="none" stroke="midnightblue" d="M2563.27,-257.43C2595.29,-250.31 2638.63,-238.49 2674,-221 2706.73,-204.82 2739.78,-178.71 2760.99,-160.42"/>
<polygon fill="midnightblue" stroke="midnightblue" points="2763.57,-162.81 2768.78,-153.59 2758.96,-157.55 2763.57,-162.81"/>
</g>
<!-- Node52 -->
<g id="node49" class="node">
<title>Node52</title>
<g id="a_node49"><a xlink:href="IteratorFunctions_8h_source.html" target="_top" xlink:title=" ">
<polygon fill="white" stroke="black" points="2500.5,-196 2500.5,-215 2665.5,-215 2665.5,-196 2500.5,-196"/>
<text text-anchor="middle" x="2583" y="-203" font-family="FreeSans" font-size="10.00">DGtal/base/IteratorFunctions.h</text>
</a>
</g>
</g>
<!-- Node47&#45;&gt;Node52 -->
<g id="edge80" class="edge">
<title>Node47&#45;&gt;Node52</title>
<path fill="none" stroke="midnightblue" d="M2527.31,-257.48C2537.45,-248.2 2553.86,-233.17 2566.25,-221.83"/>
<polygon fill="midnightblue" stroke="midnightblue" points="2568.69,-224.34 2573.7,-215.01 2563.96,-219.18 2568.69,-224.34"/>
</g>
<!-- Node49&#45;&gt;Node48 -->
<g id="edge77" class="edge">
<title>Node49&#45;&gt;Node48</title>
<path fill="none" stroke="midnightblue" d="M2731.36,-123.48C2684.6,-111.02 2617.5,-93.15 2576.44,-82.21"/>
<polygon fill="midnightblue" stroke="midnightblue" points="2577.15,-78.78 2566.59,-79.58 2575.35,-85.54 2577.15,-78.78"/>
</g>
<!-- Node50 -->
<g id="node47" class="node">
<title>Node50</title>
<g id="a_node47"><a xlink:title=" ">
<polygon fill="white" stroke="#bfbfbf" points="2654,-56.5 2654,-86.5 2776,-86.5 2776,-56.5 2654,-56.5"/>
<text text-anchor="start" x="2662" y="-74.5" font-family="FreeSans" font-size="10.00">boost/iterator/iterator</text>
<text text-anchor="middle" x="2715" y="-63.5" font-family="FreeSans" font-size="10.00">_categories.hpp</text>
</a>
</g>
</g>
<!-- Node49&#45;&gt;Node50 -->
<g id="edge78" class="edge">
<title>Node49&#45;&gt;Node50</title>
<path fill="none" stroke="midnightblue" d="M2769.03,-123.4C2759.81,-114.71 2747.81,-103.4 2737.46,-93.66"/>
<polygon fill="midnightblue" stroke="midnightblue" points="2739.62,-90.89 2729.94,-86.58 2734.82,-95.98 2739.62,-90.89"/>
</g>
<!-- Node51 -->
<g id="node48" class="node">
<title>Node51</title>
<g id="a_node48"><a xlink:title=" ">
<polygon fill="white" stroke="#bfbfbf" points="2794,-56.5 2794,-86.5 2916,-86.5 2916,-56.5 2794,-56.5"/>
<text text-anchor="start" x="2802" y="-74.5" font-family="FreeSans" font-size="10.00">boost/iterator/iterator</text>
<text text-anchor="middle" x="2855" y="-63.5" font-family="FreeSans" font-size="10.00">_facade.hpp</text>
</a>
</g>
</g>
<!-- Node49&#45;&gt;Node51 -->
<g id="edge79" class="edge">
<title>Node49&#45;&gt;Node51</title>
<path fill="none" stroke="midnightblue" d="M2799.41,-123.4C2808.99,-114.62 2821.49,-103.18 2832.2,-93.37"/>
<polygon fill="midnightblue" stroke="midnightblue" points="2834.61,-95.91 2839.62,-86.58 2829.88,-90.75 2834.61,-95.91"/>
</g>
<!-- Node52&#45;&gt;Node48 -->
<g id="edge81" class="edge">
<title>Node52&#45;&gt;Node48</title>
<path fill="none" stroke="midnightblue" d="M2560.64,-195.91C2543.33,-187.92 2520.59,-174.2 2510,-154 2498.79,-132.62 2513.34,-106.11 2525.8,-89.24"/>
<polygon fill="midnightblue" stroke="midnightblue" points="2528.56,-91.41 2531.99,-81.38 2523.06,-87.08 2528.56,-91.41"/>
</g>
<!-- Node52&#45;&gt;Node49 -->
<g id="edge82" class="edge">
<title>Node52&#45;&gt;Node49</title>
<path fill="none" stroke="midnightblue" d="M2609.69,-195.87C2640.5,-185.9 2691.95,-169.27 2730.98,-156.64"/>
<polygon fill="midnightblue" stroke="midnightblue" points="2732.18,-159.94 2740.62,-153.53 2730.03,-153.27 2732.18,-159.94"/>
</g>
<!-- Node53 -->
<g id="node50" class="node">
<title>Node53</title>
<g id="a_node50"><a xlink:href="IteratorFunctions_8ih_source.html" target="_top" xlink:title=" ">
<polygon fill="white" stroke="black" points="2519,-129 2519,-148 2687,-148 2687,-129 2519,-129"/>
<text text-anchor="middle" x="2603" y="-136" font-family="FreeSans" font-size="10.00">DGtal/base/IteratorFunctions.ih</text>
</a>
</g>
</g>
<!-- Node52&#45;&gt;Node53 -->
<g id="edge83" class="edge">
<title>Node52&#45;&gt;Node53</title>
<path fill="none" stroke="midnightblue" d="M2585.7,-195.73C2588.67,-186.09 2593.52,-170.3 2597.34,-157.91"/>
<polygon fill="midnightblue" stroke="midnightblue" points="2600.75,-158.71 2600.35,-148.13 2594.06,-156.66 2600.75,-158.71"/>
</g>
</g>
</svg>
