<?xml version="1.0" encoding="UTF-8" standalone="no"?>
<!DOCTYPE svg PUBLIC "-//W3C//DTD SVG 1.1//EN"
 "http://www.w3.org/Graphics/SVG/1.1/DTD/svg11.dtd">
<!-- Generated by graphviz version 2.43.0 (0)
 -->
<!-- Title: Graphical Class Hierarchy Pages: 1 -->
<svg width="331pt" height="296pt"
 viewBox="0.00 0.00 331.00 296.00" xmlns="http://www.w3.org/2000/svg" xmlns:xlink="http://www.w3.org/1999/xlink">
<g id="graph0" class="graph" transform="scale(1 1) rotate(0) translate(4 292)">
<title>Graphical Class Hierarchy</title>
<polygon fill="white" stroke="transparent" points="-4,4 -4,-292 327,-292 327,4 -4,4"/>
<!-- Node849 -->
<g id="node1" class="node">
<title>Node849</title>
<g id="a_node1"><a xlink:title=" ">
<polygon fill="white" stroke="#bfbfbf" points="0,-148 0,-167 74,-167 74,-148 0,-148"/>
<text text-anchor="middle" x="37" y="-155" font-family="FreeSans" font-size="10.00">std::iterator</text>
</a>
</g>
</g>
<!-- Node0 -->
<g id="node2" class="node">
<title>Node0</title>
<g id="a_node2"><a xlink:href="classDGtal_1_1DigitalSetInserter.html" target="_top" xlink:title="Aim: this output iterator class is designed to allow algorithms to insert points in the digital set....">
<polygon fill="white" stroke="black" points="148.5,-257.5 148.5,-287.5 284.5,-287.5 284.5,-257.5 148.5,-257.5"/>
<text text-anchor="start" x="156.5" y="-275.5" font-family="FreeSans" font-size="10.00">DGtal::DigitalSetInserter</text>
<text text-anchor="middle" x="216.5" y="-264.5" font-family="FreeSans" font-size="10.00">&lt; TDigitalSet &gt;</text>
</a>
</g>
</g>
<!-- Node849&#45;&gt;Node0 -->
<g id="edge1" class="edge">
<title>Node849&#45;&gt;Node0</title>
<path fill="none" stroke="midnightblue" d="M47.64,-176.16C59.45,-197.11 81.46,-230.51 110,-248.5 121.52,-255.76 134.98,-260.84 148.35,-264.38"/>
<polygon fill="midnightblue" stroke="midnightblue" points="50.65,-174.38 42.81,-167.26 44.5,-177.72 50.65,-174.38"/>
</g>
<!-- Node851 -->
<g id="node3" class="node">
<title>Node851</title>
<g id="a_node3"><a xlink:href="classDGtal_1_1FreemanChain_1_1ConstIterator.html" target="_top" xlink:title=" ">
<polygon fill="white" stroke="black" points="142,-208.5 142,-238.5 291,-238.5 291,-208.5 142,-208.5"/>
<text text-anchor="start" x="150" y="-226.5" font-family="FreeSans" font-size="10.00">DGtal::FreemanChain</text>
<text text-anchor="middle" x="216.5" y="-215.5" font-family="FreeSans" font-size="10.00">&lt; TInteger &gt;::ConstIterator</text>
</a>
</g>
</g>
<!-- Node849&#45;&gt;Node851 -->
<g id="edge2" class="edge">
<title>Node849&#45;&gt;Node851</title>
<path fill="none" stroke="midnightblue" d="M60.77,-172.7C74.53,-181.31 92.71,-191.69 110,-198.5 120.07,-202.47 130.94,-205.91 141.74,-208.87"/>
<polygon fill="midnightblue" stroke="midnightblue" points="62.32,-169.54 52.01,-167.09 58.54,-175.43 62.32,-169.54"/>
</g>
<!-- Node852 -->
<g id="node4" class="node">
<title>Node852</title>
<g id="a_node4"><a xlink:href="classDGtal_1_1OneItemOutputIterator.html" target="_top" xlink:title="Aim: model of output iterator, ie incrementable and writable iterator, which only stores in a variabl...">
<polygon fill="white" stroke="black" points="121.5,-170 121.5,-189 311.5,-189 311.5,-170 121.5,-170"/>
<text text-anchor="middle" x="216.5" y="-177" font-family="FreeSans" font-size="10.00">DGtal::OneItemOutputIterator&lt; T &gt;</text>
</a>
</g>
</g>
<!-- Node849&#45;&gt;Node852 -->
<g id="edge3" class="edge">
<title>Node849&#45;&gt;Node852</title>
<path fill="none" stroke="midnightblue" d="M84.31,-163.24C100.9,-165.3 120.07,-167.67 138.55,-169.96"/>
<polygon fill="midnightblue" stroke="midnightblue" points="84.7,-159.76 74.35,-162.01 83.84,-166.71 84.7,-159.76"/>
</g>
<!-- Node853 -->
<g id="node5" class="node">
<title>Node853</title>
<g id="a_node5"><a xlink:href="classDGtal_1_1OutputIteratorAdapter.html" target="_top" xlink:title="Aim: Adapts an output iterator i with a unary functor f, both given at construction,...">
<polygon fill="white" stroke="black" points="120,-120.5 120,-150.5 313,-150.5 313,-120.5 120,-120.5"/>
<text text-anchor="start" x="128" y="-138.5" font-family="FreeSans" font-size="10.00">DGtal::OutputIteratorAdapter</text>
<text text-anchor="middle" x="216.5" y="-127.5" font-family="FreeSans" font-size="10.00">&lt; TIterator, TFunctor, TInputValue &gt;</text>
</a>
</g>
</g>
<!-- Node849&#45;&gt;Node853 -->
<g id="edge4" class="edge">
<title>Node849&#45;&gt;Node853</title>
<path fill="none" stroke="midnightblue" d="M84.48,-151.74C95.44,-150.38 107.52,-148.88 119.78,-147.36"/>
<polygon fill="midnightblue" stroke="midnightblue" points="83.84,-148.29 74.35,-152.99 84.7,-155.24 83.84,-148.29"/>
</g>
<!-- Node854 -->
<g id="node6" class="node">
<title>Node854</title>
<g id="a_node6"><a xlink:href="classDGtal_1_1SetValueIterator.html" target="_top" xlink:title="Aim: implements an output iterator, which is able to write values in an underlying image,...">
<polygon fill="white" stroke="black" points="140.5,-71.5 140.5,-101.5 292.5,-101.5 292.5,-71.5 140.5,-71.5"/>
<text text-anchor="start" x="148.5" y="-89.5" font-family="FreeSans" font-size="10.00">DGtal::SetValueIterator</text>
<text text-anchor="middle" x="216.5" y="-78.5" font-family="FreeSans" font-size="10.00">&lt; TImage, TIteratorOnPts &gt;</text>
</a>
</g>
</g>
<!-- Node849&#45;&gt;Node854 -->
<g id="edge5" class="edge">
<title>Node849&#45;&gt;Node854</title>
<path fill="none" stroke="midnightblue" d="M58.58,-141.7C72.45,-131.74 91.51,-119.33 110,-111.5 119.62,-107.43 130.03,-103.94 140.43,-100.99"/>
<polygon fill="midnightblue" stroke="midnightblue" points="56.26,-139.06 50.28,-147.81 60.41,-144.7 56.26,-139.06"/>
</g>
<!-- Node855 -->
<g id="node7" class="node">
<title>Node855</title>
<g id="a_node7"><a xlink:href="classDGtal_1_1TiledImage_1_1TiledIterator.html" target="_top" xlink:title=" ">
<polygon fill="white" stroke="black" points="110,-0.5 110,-52.5 323,-52.5 323,-0.5 110,-0.5"/>
<text text-anchor="start" x="118" y="-40.5" font-family="FreeSans" font-size="10.00">DGtal::TiledImage&lt;</text>
<text text-anchor="start" x="118" y="-29.5" font-family="FreeSans" font-size="10.00"> TImageContainer, TImageFactory,</text>
<text text-anchor="start" x="118" y="-18.5" font-family="FreeSans" font-size="10.00"> TImageCacheReadPolicy, TImageCache</text>
<text text-anchor="middle" x="216.5" y="-7.5" font-family="FreeSans" font-size="10.00">WritePolicy &gt;::TiledIterator</text>
</a>
</g>
</g>
<!-- Node849&#45;&gt;Node855 -->
<g id="edge6" class="edge">
<title>Node849&#45;&gt;Node855</title>
<path fill="none" stroke="midnightblue" d="M47.61,-138.89C59.53,-117.55 81.76,-82.9 110,-62.5 115.02,-58.87 120.43,-55.59 126.06,-52.62"/>
<polygon fill="midnightblue" stroke="midnightblue" points="44.41,-137.45 42.74,-147.91 50.57,-140.77 44.41,-137.45"/>
</g>
</g>
</svg>
